<svg xmlns="http://www.w3.org/2000/svg" xmlns:xlink="http://www.w3.org/1999/xlink" contentStyleType="text/css" data-diagram-type="CLASS" height="558px" preserveAspectRatio="none" style="width:1611px;height:558px;background:#FFFFFF;" version="1.1" viewBox="0 0 1611 558" width="1611px" zoomAndPan="magnify"><defs/><g><!--class RegisterAdder--><g class="entity" data-entity="RegisterAdder" data-source-line="3" data-uid="ent0002" id="entity_RegisterAdder"><rect fill="#F1F1F1" height="64.2969" rx="2.5" ry="2.5" style="stroke:#181818;stroke-width:0.5;" width="204.1035" x="243.81" y="10"/><ellipse cx="286.1629" cy="26" fill="#B4A7E5" rx="11" ry="11" style="stroke:#181818;stroke-width:1;"/><path d="M282.0848,21.7656 L282.0848,19.6094 L289.4754,19.6094 L289.4754,21.7656 L287.0066,21.7656 L287.0066,29.8438 L289.4754,29.8438 L289.4754,32 L282.0848,32 L282.0848,29.8438 L284.5535,29.8438 L284.5535,21.7656 L282.0848,21.7656 Z " fill="#000000"/><text fill="#000000" font-family="sans-serif" font-size="14" font-style="italic" lengthAdjust="spacing" textLength="99.9893" x="306.2413" y="30.8467">RegisterAdder</text><rect fill="#FFFFFF" height="15.9688" style="stroke:#181818;stroke-width:1;stroke-dasharray:2,2;" width="9.3301" x="441.5834" y="7"/><text fill="#000000" font-family="sans-serif" font-size="12" font-style="italic" lengthAdjust="spacing" textLength="7.3301" x="442.5834" y="19.1387">T</text><line style="stroke:#181818;stroke-width:0.5;" x1="244.81" x2="446.9135" y1="42" y2="42"/><line style="stroke:#181818;stroke-width:0.5;" x1="244.81" x2="446.9135" y1="50" y2="50"/><text fill="#000000" font-family="sans-serif" font-size="14" lengthAdjust="spacing" textLength="192.1035" x="249.81" y="66.9951">add(in toAdd  : T) : boolean</text></g><!--class RegisterModifier--><g class="entity" data-entity="RegisterModifier" data-source-line="7" data-uid="ent0003" id="entity_RegisterModifier"><rect fill="#F1F1F1" height="64.2969" rx="2.5" ry="2.5" style="stroke:#181818;stroke-width:0.5;" width="278.6494" x="1156.54" y="10"/><ellipse cx="1228.5107" cy="26" fill="#B4A7E5" rx="11" ry="11" style="stroke:#181818;stroke-width:1;"/><path d="M1224.4326,21.7656 L1224.4326,19.6094 L1231.8232,19.6094 L1231.8232,21.7656 L1229.3545,21.7656 L1229.3545,29.8438 L1231.8232,29.8438 L1231.8232,32 L1224.4326,32 L1224.4326,29.8438 L1226.9013,29.8438 L1226.9013,21.7656 L1224.4326,21.7656 Z " fill="#000000"/><text fill="#000000" font-family="sans-serif" font-size="14" font-style="italic" lengthAdjust="spacing" textLength="114.8779" x="1249.0107" y="30.8467">RegisterModifier</text><rect fill="#FFFFFF" height="15.9688" style="stroke:#181818;stroke-width:1;stroke-dasharray:2,2;" width="9.3301" x="1428.8593" y="7"/><text fill="#000000" font-family="sans-serif" font-size="12" font-style="italic" lengthAdjust="spacing" textLength="7.3301" x="1429.8593" y="19.1387">T</text><line style="stroke:#181818;stroke-width:0.5;" x1="1157.54" x2="1434.1894" y1="42" y2="42"/><line style="stroke:#181818;stroke-width:0.5;" x1="1157.54" x2="1434.1894" y1="50" y2="50"/><text fill="#000000" font-family="sans-serif" font-size="14" lengthAdjust="spacing" textLength="266.6494" x="1162.54" y="66.9951">modify(in old : T, in new : T) : boolean</text></g><!--class RegisterValidator--><g class="entity" data-entity="RegisterValidator" data-source-line="11" data-uid="ent0004" id="entity_RegisterValidator"><rect fill="#F1F1F1" height="64.2969" rx="2.5" ry="2.5" style="stroke:#181818;stroke-width:0.5;" width="233.0059" x="719.36" y="199.49"/><ellipse cx="765.2072" cy="215.49" fill="#B4A7E5" rx="11" ry="11" style="stroke:#181818;stroke-width:1;"/><path d="M761.129,211.2556 L761.129,209.0994 L768.5197,209.0994 L768.5197,211.2556 L766.0509,211.2556 L766.0509,219.3337 L768.5197,219.3337 L768.5197,221.49 L761.129,221.49 L761.129,219.3337 L763.5978,219.3337 L763.5978,211.2556 L761.129,211.2556 Z " fill="#000000"/><text fill="#000000" font-family="sans-serif" font-size="14" font-style="italic" lengthAdjust="spacing" textLength="121.4814" x="785.7072" y="220.3367">RegisterValidator</text><rect fill="#FFFFFF" height="15.9688" style="stroke:#181818;stroke-width:1;stroke-dasharray:2,2;" width="9.3301" x="946.0358" y="196.49"/><text fill="#000000" font-family="sans-serif" font-size="12" font-style="italic" lengthAdjust="spacing" textLength="7.3301" x="947.0358" y="208.6287">T</text><line style="stroke:#181818;stroke-width:0.5;" x1="720.36" x2="951.3659" y1="231.49" y2="231.49"/><line style="stroke:#181818;stroke-width:0.5;" x1="720.36" x2="951.3659" y1="239.49" y2="239.49"/><text fill="#000000" font-family="sans-serif" font-size="14" lengthAdjust="spacing" textLength="221.0059" x="725.36" y="256.4851">isValid(in toVerify : T) : boolean</text></g><!--class RegisterObtainer--><g class="entity" data-entity="RegisterObtainer" data-source-line="15" data-uid="ent0005" id="entity_RegisterObtainer"><rect fill="#F1F1F1" height="64.2969" rx="2.5" ry="2.5" style="stroke:#181818;stroke-width:0.5;" width="254.1084" x="218.81" y="437.86"/><ellipse cx="276.2612" cy="453.86" fill="#B4A7E5" rx="11" ry="11" style="stroke:#181818;stroke-width:1;"/><path d="M272.183,449.6256 L272.183,447.4694 L279.5737,447.4694 L279.5737,449.6256 L277.1049,449.6256 L277.1049,457.7037 L279.5737,457.7037 L279.5737,459.86 L272.183,459.86 L272.183,457.7037 L274.6518,457.7037 L274.6518,449.6256 L272.183,449.6256 Z " fill="#000000"/><text fill="#000000" font-family="sans-serif" font-size="14" font-style="italic" lengthAdjust="spacing" textLength="119.376" x="296.7612" y="458.7067">RegisterObtainer</text><rect fill="#FFFFFF" height="15.9688" style="stroke:#181818;stroke-width:1;stroke-dasharray:2,2;" width="9.3301" x="466.5883" y="434.86"/><text fill="#000000" font-family="sans-serif" font-size="12" font-style="italic" lengthAdjust="spacing" textLength="7.3301" x="467.5883" y="446.9987">T</text><line style="stroke:#181818;stroke-width:0.5;" x1="219.81" x2="471.9184" y1="469.86" y2="469.86"/><line style="stroke:#181818;stroke-width:0.5;" x1="219.81" x2="471.9184" y1="477.86" y2="477.86"/><text fill="#000000" font-family="sans-serif" font-size="14" lengthAdjust="spacing" textLength="242.1084" x="224.81" y="494.8551">getRegister() : ObservableList&lt;T&gt;</text></g><!--class LoanInsertPopupController--><g class="entity" data-entity="LoanInsertPopupController" data-source-line="25" data-uid="ent0006" id="entity_LoanInsertPopupController"><rect fill="#F1F1F1" height="194.6719" rx="2.5" ry="2.5" style="stroke:#181818;stroke-width:0.5;" width="677.7246" x="7" y="134.3"/><ellipse cx="248.2129" cy="150.3" fill="#ADD1B2" rx="11" ry="11" style="stroke:#181818;stroke-width:1;"/><path d="M251.1816,155.9406 Q250.6035,156.2375 249.9629,156.3781 Q249.3223,156.5344 248.6191,156.5344 Q246.1191,156.5344 244.791,154.8937 Q243.4785,153.2375 243.4785,150.1125 Q243.4785,146.9875 244.791,145.3312 Q246.1191,143.675 248.6191,143.675 Q249.3223,143.675 249.9629,143.8312 Q250.6191,143.9875 251.1816,144.2844 L251.1816,147.0031 Q250.5566,146.425 249.9629,146.1594 Q249.3691,145.8781 248.7441,145.8781 Q247.4004,145.8781 246.7129,146.9562 Q246.0254,148.0187 246.0254,150.1125 Q246.0254,152.2062 246.7129,153.2844 Q247.4004,154.3469 248.7441,154.3469 Q249.3691,154.3469 249.9629,154.0812 Q250.5566,153.8 251.1816,153.2219 L251.1816,155.9406 Z " fill="#000000"/><text fill="#000000" font-family="sans-serif" font-size="14" lengthAdjust="spacing" textLength="186.7988" x="268.7129" y="155.1467">LoanInsertPopupController</text><line style="stroke:#181818;stroke-width:0.5;" x1="8" x2="683.7246" y1="166.3" y2="166.3"/><g data-visibility-modifier="PRIVATE_FIELD"><rect fill="none" height="6" style="stroke:#C82930;stroke-width:1;" width="6" x="15" y="176.9484"/></g><text fill="#000000" font-family="sans-serif" font-size="14" lengthAdjust="spacing" textLength="300.7813" x="27" y="183.2951">loanRegisterAdder : RegisterAdder&lt;Loan&gt;</text><g data-visibility-modifier="PRIVATE_FIELD"><rect fill="none" height="6" style="stroke:#C82930;stroke-width:1;" width="6" x="15" y="193.2453"/></g><text fill="#000000" font-family="sans-serif" font-size="14" lengthAdjust="spacing" textLength="344.7979" x="27" y="199.592">bookRegisterObtainer : RegisterObtainer&lt;Book&gt;</text><g data-visibility-modifier="PRIVATE_FIELD"><rect fill="none" height="6" style="stroke:#C82930;stroke-width:1;" width="6" x="15" y="209.5422"/></g><text fill="#000000" font-family="sans-serif" font-size="14" lengthAdjust="spacing" textLength="384.46" x="27" y="215.8889">studentRegisterObtainer : RegisterObtainer&lt;Student&gt;</text><g data-visibility-modifier="PRIVATE_FIELD"><rect fill="none" height="6" style="stroke:#C82930;stroke-width:1;" width="6" x="15" y="225.8391"/></g><text fill="#000000" font-family="sans-serif" font-size="14" lengthAdjust="spacing" textLength="343.7656" x="27" y="232.1857">loanRegisterValidator : RegisterValidator&lt;Loan&gt;</text><line style="stroke:#181818;stroke-width:0.5;" x1="8" x2="683.7246" y1="239.4875" y2="239.4875"/><g data-visibility-modifier="PUBLIC_METHOD"><ellipse cx="18" cy="253.1359" fill="#84BE84" rx="3" ry="3" style="stroke:#038048;stroke-width:1;"/></g><text fill="#000000" font-family="sans-serif" font-size="14" lengthAdjust="spacing" textLength="112.5195" x="27" y="256.4826">initialize() : void</text><g data-visibility-modifier="PUBLIC_METHOD"><ellipse cx="18" cy="269.4328" fill="#84BE84" rx="3" ry="3" style="stroke:#038048;stroke-width:1;"/></g><text fill="#000000" font-family="sans-serif" font-size="14" lengthAdjust="spacing" textLength="591.7939" x="27" y="272.7795">setBookRegisterObtainer(in bookRegisterObtainer : RegisterObtainer&lt;Book&gt;) : void</text><g data-visibility-modifier="PUBLIC_METHOD"><ellipse cx="18" cy="285.7297" fill="#84BE84" rx="3" ry="3" style="stroke:#038048;stroke-width:1;"/></g><text fill="#000000" font-family="sans-serif" font-size="14" lengthAdjust="spacing" textLength="651.7246" x="27" y="289.0764">setStudentRegisterObtainer(in studentRegisterObtainer : RegisterObtainer&lt;Student&gt;) : void</text><g data-visibility-modifier="PUBLIC_METHOD"><ellipse cx="18" cy="302.0266" fill="#84BE84" rx="3" ry="3" style="stroke:#038048;stroke-width:1;"/></g><text fill="#000000" font-family="sans-serif" font-size="14" lengthAdjust="spacing" textLength="527.3652" x="27" y="305.3732">setLoanRegisterAdder(in loanRegisterAdder : RegisterAdder&lt;Loan&gt;) : void</text><g data-visibility-modifier="PUBLIC_METHOD"><ellipse cx="18" cy="318.3234" fill="#84BE84" rx="3" ry="3" style="stroke:#038048;stroke-width:1;"/></g><text fill="#000000" font-family="sans-serif" font-size="14" lengthAdjust="spacing" textLength="591.8418" x="27" y="321.6701">setLoanRegisterValidator(in loanRegisterValidator : RegisterValidator&lt;Loan&gt;) : void</text></g><!--class LoanModifyPopupController--><g class="entity" data-entity="LoanModifyPopupController" data-source-line="48" data-uid="ent0007" id="entity_LoanModifyPopupController"><rect fill="#F1F1F1" height="162.0781" rx="2.5" ry="2.5" style="stroke:#181818;stroke-width:0.5;" width="617.8418" x="986.94" y="150.6"/><ellipse cx="1194.9713" cy="166.6" fill="#ADD1B2" rx="11" ry="11" style="stroke:#181818;stroke-width:1;"/><path d="M1197.94,172.2406 Q1197.3619,172.5375 1196.7213,172.6781 Q1196.0806,172.8344 1195.3775,172.8344 Q1192.8775,172.8344 1191.5494,171.1937 Q1190.2369,169.5375 1190.2369,166.4125 Q1190.2369,163.2875 1191.5494,161.6312 Q1192.8775,159.975 1195.3775,159.975 Q1196.0806,159.975 1196.7213,160.1312 Q1197.3775,160.2875 1197.94,160.5844 L1197.94,163.3031 Q1197.315,162.725 1196.7213,162.4594 Q1196.1275,162.1781 1195.5025,162.1781 Q1194.1588,162.1781 1193.4713,163.2562 Q1192.7838,164.3187 1192.7838,166.4125 Q1192.7838,168.5062 1193.4713,169.5844 Q1194.1588,170.6469 1195.5025,170.6469 Q1196.1275,170.6469 1196.7213,170.3812 Q1197.315,170.1 1197.94,169.5219 L1197.94,172.2406 Z " fill="#000000"/><text fill="#000000" font-family="sans-serif" font-size="14" lengthAdjust="spacing" textLength="193.2793" x="1215.4713" y="171.4467">LoanModifyPopupController</text><line style="stroke:#181818;stroke-width:0.5;" x1="987.94" x2="1603.7818" y1="182.6" y2="182.6"/><g data-visibility-modifier="PRIVATE_FIELD"><rect fill="none" height="6" style="stroke:#C82930;stroke-width:1;" width="6" x="994.94" y="193.2484"/></g><text fill="#000000" font-family="sans-serif" font-size="14" lengthAdjust="spacing" textLength="330.5586" x="1006.94" y="199.5951">loanRegisterModifier : RegisterModifier&lt;Loan&gt;</text><g data-visibility-modifier="PRIVATE_FIELD"><rect fill="none" height="6" style="stroke:#C82930;stroke-width:1;" width="6" x="994.94" y="209.5453"/></g><text fill="#000000" font-family="sans-serif" font-size="14" lengthAdjust="spacing" textLength="343.7656" x="1006.94" y="215.892">loanRegisterValidator : RegisterValidator&lt;Loan&gt;</text><g data-visibility-modifier="PRIVATE_FIELD"><rect fill="none" height="6" style="stroke:#C82930;stroke-width:1;" width="6" x="994.94" y="225.8422"/></g><text fill="#000000" font-family="sans-serif" font-size="14" lengthAdjust="spacing" textLength="136.6436" x="1006.94" y="232.1889">loanToModify: Loan</text><line style="stroke:#181818;stroke-width:0.5;" x1="987.94" x2="1603.7818" y1="239.4906" y2="239.4906"/><g data-visibility-modifier="PUBLIC_METHOD"><ellipse cx="997.94" cy="253.1391" fill="#84BE84" rx="3" ry="3" style="stroke:#038048;stroke-width:1;"/></g><text fill="#000000" font-family="sans-serif" font-size="14" lengthAdjust="spacing" textLength="112.5195" x="1006.94" y="256.4857">initialize() : void</text><g data-visibility-modifier="PUBLIC_METHOD"><ellipse cx="997.94" cy="269.4359" fill="#84BE84" rx="3" ry="3" style="stroke:#038048;stroke-width:1;"/></g><text fill="#000000" font-family="sans-serif" font-size="14" lengthAdjust="spacing" textLength="331.4404" x="1006.94" y="272.7826">setLoanToModify(in loanToModify : Loan) : void</text><g data-visibility-modifier="PUBLIC_METHOD"><ellipse cx="997.94" cy="285.7328" fill="#84BE84" rx="3" ry="3" style="stroke:#038048;stroke-width:1;"/></g><text fill="#000000" font-family="sans-serif" font-size="14" lengthAdjust="spacing" textLength="572.0313" x="1006.94" y="289.0795">setLoanRegisterModifier(in loanRegisterModifier : RegisterModifier&lt;Loan&gt;) : void</text><g data-visibility-modifier="PUBLIC_METHOD"><ellipse cx="997.94" cy="302.0297" fill="#84BE84" rx="3" ry="3" style="stroke:#038048;stroke-width:1;"/></g><text fill="#000000" font-family="sans-serif" font-size="14" lengthAdjust="spacing" textLength="591.8418" x="1006.94" y="305.3764">setLoanRegisterValidator(in loanRegisterValidator : RegisterValidator&lt;Loan&gt;) : void</text></g><!--class LoanPopupController--><g class="entity" data-entity="LoanPopupController" data-source-line="61" data-uid="ent0008" id="entity_LoanPopupController"><rect fill="#F1F1F1" height="162.0781" rx="2.5" ry="2.5" style="stroke:#181818;stroke-width:0.5;" width="356.4766" x="812.62" y="388.97"/><ellipse cx="913.286" cy="404.97" fill="#A9DCDF" rx="11" ry="11" style="stroke:#181818;stroke-width:1;"/><path d="M913.3954,400.3137 L912.2391,405.3919 L914.5673,405.3919 L913.3954,400.3137 Z M911.911,398.0794 L914.8954,398.0794 L918.2548,410.47 L915.8016,410.47 L915.036,407.4075 L911.7548,407.4075 L911.0048,410.47 L908.5673,410.47 L911.911,398.0794 Z " fill="#000000"/><text fill="#000000" font-family="sans-serif" font-size="14" font-style="italic" lengthAdjust="spacing" textLength="146.6445" x="933.786" y="409.8167">LoanPopupController</text><line style="stroke:#181818;stroke-width:0.5;" x1="813.62" x2="1168.0966" y1="420.97" y2="420.97"/><g data-visibility-modifier="PROTECTED_FIELD"><polygon fill="none" points="823.62,429.6184,827.62,433.6184,823.62,437.6184,819.62,433.6184" style="stroke:#B38D22;stroke-width:1;"/></g><text fill="#000000" font-family="sans-serif" font-size="14" lengthAdjust="spacing" textLength="240.9736" x="832.62" y="437.9651">studentCB : ComboBox&lt;Student&gt;</text><g data-visibility-modifier="PROTECTED_FIELD"><polygon fill="none" points="823.62,445.9153,827.62,449.9153,823.62,453.9153,819.62,449.9153" style="stroke:#B38D22;stroke-width:1;"/></g><text fill="#000000" font-family="sans-serif" font-size="14" lengthAdjust="spacing" textLength="201.3115" x="832.62" y="454.262">bookCB : ComboBox&lt;Book&gt;</text><g data-visibility-modifier="PROTECTED_FIELD"><polygon fill="none" points="823.62,462.2122,827.62,466.2122,823.62,470.2122,819.62,466.2122" style="stroke:#B38D22;stroke-width:1;"/></g><text fill="#000000" font-family="sans-serif" font-size="14" lengthAdjust="spacing" textLength="153.7813" x="832.62" y="470.5589">loanEndCB : TextField</text><g data-visibility-modifier="PROTECTED_FIELD"><polygon fill="none" points="823.62,478.5091,827.62,482.5091,823.62,486.5091,819.62,482.5091" style="stroke:#B38D22;stroke-width:1;"/></g><text fill="#000000" font-family="sans-serif" font-size="14" lengthAdjust="spacing" textLength="137.8262" x="832.62" y="486.8557">confirmBtn : Button</text><g data-visibility-modifier="PROTECTED_FIELD"><polygon fill="none" points="823.62,494.8059,827.62,498.8059,823.62,502.8059,819.62,498.8059" style="stroke:#B38D22;stroke-width:1;"/></g><text fill="#000000" font-family="sans-serif" font-size="14" lengthAdjust="spacing" textLength="129.8281" x="832.62" y="503.1526">cancelBtn : Button</text><line style="stroke:#181818;stroke-width:0.5;" x1="813.62" x2="1168.0966" y1="510.4544" y2="510.4544"/><g data-visibility-modifier="PROTECTED_METHOD"><polygon fill="#FFFF44" points="823.62,519.1028,827.62,523.1028,823.62,527.1028,819.62,523.1028" style="stroke:#B38D22;stroke-width:1;"/></g><text fill="#000000" font-family="sans-serif" font-size="14" lengthAdjust="spacing" textLength="330.4766" x="832.62" y="527.4495">confirmBtnAction(in event : ActionEvent) : void</text><g data-visibility-modifier="PROTECTED_METHOD"><polygon fill="#FFFF44" points="823.62,535.3997,827.62,539.3997,823.62,543.3997,819.62,539.3997" style="stroke:#B38D22;stroke-width:1;"/></g><text fill="#000000" font-family="sans-serif" font-size="14" lengthAdjust="spacing" textLength="322.4785" x="832.62" y="543.7464">cancelBtnAction(in event : ActionEvent) : void</text></g><!--link LoanInsertPopupController to LoanPopupController--><g class="link" data-entity-1="LoanInsertPopupController" data-entity-2="LoanPopupController" data-source-line="74" data-uid="lnk9" id="link_LoanInsertPopupController_LoanPopupController"><path codeLine="74" d="M610.07,329.46 C678.08,354.39 732.7799,374.4244 795.2999,397.3444" fill="none" id="LoanInsertPopupController-to-LoanPopupController" style="stroke:#181818;stroke-width:1;"/><polygon fill="none" points="812.2,403.54,797.3651,391.711,793.2347,402.9777,812.2,403.54" style="stroke:#181818;stroke-width:1;"/></g><!--link LoanModifyPopupController to LoanPopupController--><g class="link" data-entity-1="LoanModifyPopupController" data-entity-2="LoanPopupController" data-source-line="75" data-uid="lnk10" id="link_LoanModifyPopupController_LoanPopupController"><path codeLine="75" d="M1192.18,312.99 C1160.75,337.35 1140.4466,353.0826 1109.0066,377.4526" fill="none" id="LoanModifyPopupController-to-LoanPopupController" style="stroke:#181818;stroke-width:1;"/><polygon fill="none" points="1094.78,388.48,1112.6824,382.1948,1105.3308,372.7104,1094.78,388.48" style="stroke:#181818;stroke-width:1;"/></g><!--link LoanInsertPopupController to RegisterValidator--><g class="link" data-entity-1="LoanInsertPopupController" data-entity-2="RegisterValidator" data-source-line="77" data-uid="lnk11" id="link_LoanInsertPopupController_RegisterValidator"><path codeLine="77" d="M685.13,231.64 C696.42,231.64 701.7,231.64 712.99,231.64" fill="none" id="LoanInsertPopupController-to-RegisterValidator" style="stroke:#181818;stroke-width:1;"/><polygon fill="#181818" points="718.99,231.64,709.99,227.64,713.99,231.64,709.99,235.64,718.99,231.64" style="stroke:#181818;stroke-width:1;"/></g><!--reverse link RegisterAdder to LoanInsertPopupController--><g class="link" data-entity-1="RegisterAdder" data-entity-2="LoanInsertPopupController" data-source-line="78" data-uid="lnk13" id="link_RegisterAdder_LoanInsertPopupController"><path codeLine="78" d="M345.86,80.53 C345.86,97.11 345.86,112.44 345.86,133.98" fill="none" id="RegisterAdder-backto-LoanInsertPopupController" style="stroke:#181818;stroke-width:1;"/><polygon fill="#181818" points="345.86,74.53,341.86,83.53,345.86,79.53,349.86,83.53,345.86,74.53" style="stroke:#181818;stroke-width:1;"/></g><!--link LoanInsertPopupController to RegisterObtainer--><g class="link" data-entity-1="LoanInsertPopupController" data-entity-2="RegisterObtainer" data-source-line="79" data-uid="lnk14" id="link_LoanInsertPopupController_RegisterObtainer"><path codeLine="79" d="M345.86,329.46 C345.86,368.09 345.86,403.87 345.86,431.55" fill="none" id="LoanInsertPopupController-to-RegisterObtainer" style="stroke:#181818;stroke-width:1;"/><polygon fill="#181818" points="345.86,437.55,349.86,428.55,345.86,432.55,341.86,428.55,345.86,437.55" style="stroke:#181818;stroke-width:1;"/></g><!--reverse link RegisterValidator to LoanModifyPopupController--><g class="link" data-entity-1="RegisterValidator" data-entity-2="LoanModifyPopupController" data-source-line="82" data-uid="lnk16" id="link_RegisterValidator_LoanModifyPopupController"><path codeLine="82" d="M958.66,231.64 C969.94,231.64 975.23,231.64 986.51,231.64" fill="none" id="RegisterValidator-backto-LoanModifyPopupController" style="stroke:#181818;stroke-width:1;"/><polygon fill="#181818" points="952.66,231.64,961.66,235.64,957.66,231.64,961.66,227.64,952.66,231.64" style="stroke:#181818;stroke-width:1;"/></g><!--reverse link RegisterModifier to LoanModifyPopupController--><g class="link" data-entity-1="RegisterModifier" data-entity-2="LoanModifyPopupController" data-source-line="83" data-uid="lnk18" id="link_RegisterModifier_LoanModifyPopupController"><path codeLine="83" d="M1295.86,80.53 C1295.86,101.28 1295.86,123.48 1295.86,150.2" fill="none" id="RegisterModifier-backto-LoanModifyPopupController" style="stroke:#181818;stroke-width:1;"/><polygon fill="#181818" points="1295.86,74.53,1291.86,83.53,1295.86,79.53,1299.86,83.53,1295.86,74.53" style="stroke:#181818;stroke-width:1;"/></g><!--SRC=[jLHTRvim57tthx2KXtJg-0FJX1GOgP18Y59MQNipsAciERuLE5cxhlzzDWHY4c2q4Zn4yRq-vtuTt_byaYzSXp_368Vh9DWk5xuV8CIbOlcEP0nlsIClz651ASk_9kuh8fJUS8aLQ1F6Nt3oIV-a088HYTwwi2kWVCTFyBqvl1W64DJ0FsFzNxBVewWUYE2KAAYuU56UgtGUMAw9Hx74gI9SdX9wPAgstnXad1OiFv9Ki4WRzHN3WUOJz_u-s2Pu4s- -Rv3vCa6A0aT0P2XrEce3JuSd7wJAGGYMlw9RBhdYkle_hCpw29mYHsX0QsBQqvwWeNJHRS6K1_3hiY6casc7tQ9fUcVmRXFQCDwh0sLITP4MtQuktXDBcpgwBCoGZgosbwWHqoLPux08pyfhaphlwXToFj29zbn79AS5z5RAQ5hLhk9luVA7fLfBjkMRVnadstek2QoQvI2iixvdtDqohvUBrOrctrJDU7Vt73ju5VjAEtMCI-dyDvrfrLYDdQI5oaccy7aULvEOdOJeUnhhmpu53vxFafiPMRTzbO1d9hL0qjANi6Urv4nGDCj0xdY-zvJKTk-W54Xj939ZecMpRouonK6QUjbHHzMNAajWJarDPvPnzoTSrvRu_JYAWhl5AbWd8UfTrDYXpb-tQmAezvKCO8O2vOvxBOyXmC42bEjok0ptQa4XD5I4wCsd1s3dKx-PVm00]--></g></svg>