<svg xmlns="http://www.w3.org/2000/svg" xmlns:xlink="http://www.w3.org/1999/xlink" contentStyleType="text/css" data-diagram-type="CLASS" height="907px" preserveAspectRatio="none" style="width:875px;height:907px;background:#FFFFFF;" version="1.1" viewBox="0 0 875 907" width="875px" zoomAndPan="magnify"><defs/><g><!--class Student--><g class="entity" data-entity="Student" data-source-line="4" data-uid="ent0002" id="entity_Student"><rect fill="#F1F1F1" height="341.3438" rx="2.5" ry="2.5" style="stroke:#181818;stroke-width:0.5;" width="239.9443" x="10.51" y="559.16"/><ellipse cx="98.6765" cy="575.16" fill="#ADD1B2" rx="11" ry="11" style="stroke:#181818;stroke-width:1;"/><path d="M101.6453,580.8006 Q101.0671,581.0975 100.4265,581.2381 Q99.7859,581.3944 99.0828,581.3944 Q96.5828,581.3944 95.2546,579.7538 Q93.9421,578.0975 93.9421,574.9725 Q93.9421,571.8475 95.2546,570.1913 Q96.5828,568.535 99.0828,568.535 Q99.7859,568.535 100.4265,568.6913 Q101.0828,568.8475 101.6453,569.1444 L101.6453,571.8631 Q101.0203,571.285 100.4265,571.0194 Q99.8328,570.7381 99.2078,570.7381 Q97.864,570.7381 97.1765,571.8163 Q96.489,572.8788 96.489,574.9725 Q96.489,577.0663 97.1765,578.1444 Q97.864,579.2069 99.2078,579.2069 Q99.8328,579.2069 100.4265,578.9413 Q101.0203,578.66 101.6453,578.0819 L101.6453,580.8006 Z " fill="#000000"/><text fill="#000000" font-family="sans-serif" font-size="14" lengthAdjust="spacing" textLength="55.1113" x="119.1765" y="580.0067">Student</text><line style="stroke:#181818;stroke-width:0.5;" x1="11.51" x2="249.4543" y1="591.16" y2="591.16"/><g data-visibility-modifier="PRIVATE_FIELD"><rect fill="none" height="6" style="stroke:#C82930;stroke-width:1;" width="6" x="18.51" y="601.8084"/></g><text fill="#000000" font-family="sans-serif" font-size="14" lengthAdjust="spacing" textLength="95.1016" x="30.51" y="608.1551">name : String</text><g data-visibility-modifier="PRIVATE_FIELD"><rect fill="none" height="6" style="stroke:#C82930;stroke-width:1;" width="6" x="18.51" y="618.1053"/></g><text fill="#000000" font-family="sans-serif" font-size="14" lengthAdjust="spacing" textLength="117.0244" x="30.51" y="624.452">surname : String</text><g data-visibility-modifier="PRIVATE_FIELD"><rect fill="none" height="6" style="stroke:#C82930;stroke-width:1;" width="6" x="18.51" y="634.4022"/></g><text fill="#000000" font-family="sans-serif" font-size="14" lengthAdjust="spacing" textLength="208.0996" x="30.51" y="640.7489">studentId : String {readOnly}</text><g data-visibility-modifier="PRIVATE_FIELD"><rect fill="none" height="6" style="stroke:#C82930;stroke-width:1;" width="6" x="18.51" y="650.6991"/></g><text fill="#000000" font-family="sans-serif" font-size="14" lengthAdjust="spacing" textLength="94.0078" x="30.51" y="657.0457">email : String</text><g data-visibility-modifier="PRIVATE_FIELD"><rect fill="none" height="6" style="stroke:#C82930;stroke-width:1;" width="6" x="18.51" y="666.9959"/></g><text fill="#000000" font-family="sans-serif" font-size="14" lengthAdjust="spacing" textLength="179.0332" x="30.51" y="673.3426">activeLoans : List&lt;Loan&gt;</text><line style="stroke:#181818;stroke-width:0.5;" x1="11.51" x2="249.4543" y1="680.6444" y2="680.6444"/><g data-visibility-modifier="PUBLIC_METHOD"><ellipse cx="21.51" cy="694.2928" fill="#84BE84" rx="3" ry="3" style="stroke:#038048;stroke-width:1;"/></g><text fill="#000000" font-family="sans-serif" font-size="14" lengthAdjust="spacing" textLength="79.3857" x="30.51" y="697.6395">Student(...)</text><g data-visibility-modifier="PUBLIC_METHOD"><ellipse cx="21.51" cy="710.5897" fill="#84BE84" rx="3" ry="3" style="stroke:#038048;stroke-width:1;"/></g><text fill="#000000" font-family="sans-serif" font-size="14" lengthAdjust="spacing" textLength="130.6143" x="30.51" y="713.9364">getName() : String</text><g data-visibility-modifier="PUBLIC_METHOD"><ellipse cx="21.51" cy="726.8866" fill="#84BE84" rx="3" ry="3" style="stroke:#038048;stroke-width:1;"/></g><text fill="#000000" font-family="sans-serif" font-size="14" lengthAdjust="spacing" textLength="152.5303" x="30.51" y="730.2332">getSurname() : String</text><g data-visibility-modifier="PUBLIC_METHOD"><ellipse cx="21.51" cy="743.1834" fill="#84BE84" rx="3" ry="3" style="stroke:#038048;stroke-width:1;"/></g><text fill="#000000" font-family="sans-serif" font-size="14" lengthAdjust="spacing" textLength="157.4385" x="30.51" y="746.5301">getStudentId() : String</text><g data-visibility-modifier="PUBLIC_METHOD"><ellipse cx="21.51" cy="759.4803" fill="#84BE84" rx="3" ry="3" style="stroke:#038048;stroke-width:1;"/></g><text fill="#000000" font-family="sans-serif" font-size="14" lengthAdjust="spacing" textLength="128.1533" x="30.51" y="762.827">getEmail() : String</text><g data-visibility-modifier="PUBLIC_METHOD"><ellipse cx="21.51" cy="775.7772" fill="#84BE84" rx="3" ry="3" style="stroke:#038048;stroke-width:1;"/></g><text fill="#000000" font-family="sans-serif" font-size="14" lengthAdjust="spacing" textLength="213.9443" x="30.51" y="779.1239">getActiveLoans() : List&lt;Loan&gt;</text><g data-visibility-modifier="PUBLIC_METHOD"><ellipse cx="21.51" cy="792.0741" fill="#84BE84" rx="3" ry="3" style="stroke:#038048;stroke-width:1;"/></g><text fill="#000000" font-family="sans-serif" font-size="14" lengthAdjust="spacing" textLength="100.9531" x="30.51" y="795.4207">copy(...) : void</text><g data-visibility-modifier="PUBLIC_METHOD"><ellipse cx="21.51" cy="808.3709" fill="#84BE84" rx="3" ry="3" style="stroke:#038048;stroke-width:1;"/></g><text fill="#000000" font-family="sans-serif" font-size="14" lengthAdjust="spacing" textLength="171.2402" x="30.51" y="811.7176">addActiveLoan(...) : void</text><g data-visibility-modifier="PUBLIC_METHOD"><ellipse cx="21.51" cy="824.6678" fill="#84BE84" rx="3" ry="3" style="stroke:#038048;stroke-width:1;"/></g><text fill="#000000" font-family="sans-serif" font-size="14" lengthAdjust="spacing" textLength="198.3584" x="30.51" y="828.0145">removeActiveLoan(...) : void</text><g data-visibility-modifier="PUBLIC_METHOD"><ellipse cx="21.51" cy="840.9647" fill="#84BE84" rx="3" ry="3" style="stroke:#038048;stroke-width:1;"/></g><text fill="#000000" font-family="sans-serif" font-size="14" lengthAdjust="spacing" textLength="126.5195" x="30.51" y="844.3114">isValid() : boolean</text><g data-visibility-modifier="PUBLIC_METHOD"><ellipse cx="21.51" cy="857.2616" fill="#84BE84" rx="3" ry="3" style="stroke:#038048;stroke-width:1;"/></g><text fill="#000000" font-family="sans-serif" font-size="14" lengthAdjust="spacing" textLength="212.0781" x="30.51" y="860.6082">isAvailableForLoan() : boolean</text><g data-visibility-modifier="PRIVATE_METHOD"><rect fill="#F24D5C" height="6" style="stroke:#C82930;stroke-width:1;" width="6" x="18.51" y="870.5584"/></g><text fill="#000000" font-family="sans-serif" font-size="14" lengthAdjust="spacing" textLength="207.9971" x="30.51" y="876.9051">isStudentIdValid(...) : boolean</text><g data-visibility-modifier="PRIVATE_METHOD"><rect fill="#F24D5C" height="6" style="stroke:#C82930;stroke-width:1;" width="6" x="18.51" y="886.8553"/></g><text fill="#000000" font-family="sans-serif" font-size="14" lengthAdjust="spacing" textLength="178.7119" x="30.51" y="893.202">isEmailValid(...) : boolean</text></g><!--class Loan--><g class="entity" data-entity="Loan" data-source-line="4" data-uid="ent0003" id="entity_Loan"><rect fill="#F1F1F1" height="325.0469" rx="2.5" ry="2.5" style="stroke:#181818;stroke-width:0.5;" width="234.4141" x="300.28" y="567.3"/><ellipse cx="396.3283" cy="583.3" fill="#ADD1B2" rx="11" ry="11" style="stroke:#181818;stroke-width:1;"/><path d="M399.2971,588.9406 Q398.719,589.2375 398.0783,589.3781 Q397.4377,589.5344 396.7346,589.5344 Q394.2346,589.5344 392.9065,587.8938 Q391.594,586.2375 391.594,583.1125 Q391.594,579.9875 392.9065,578.3313 Q394.2346,576.675 396.7346,576.675 Q397.4377,576.675 398.0783,576.8313 Q398.7346,576.9875 399.2971,577.2844 L399.2971,580.0031 Q398.6721,579.425 398.0783,579.1594 Q397.4846,578.8781 396.8596,578.8781 Q395.5158,578.8781 394.8283,579.9563 Q394.1408,581.0188 394.1408,583.1125 Q394.1408,585.2063 394.8283,586.2844 Q395.5158,587.3469 396.8596,587.3469 Q397.4846,587.3469 398.0783,587.0813 Q398.6721,586.8 399.2971,586.2219 L399.2971,588.9406 Z " fill="#000000"/><text fill="#000000" font-family="sans-serif" font-size="14" lengthAdjust="spacing" textLength="33.8174" x="416.8283" y="588.1467">Loan</text><line style="stroke:#181818;stroke-width:0.5;" x1="301.28" x2="533.6941" y1="599.3" y2="599.3"/><g data-visibility-modifier="PRIVATE_FIELD"><rect fill="none" height="6" style="stroke:#C82930;stroke-width:1;" width="6" x="308.28" y="609.9484"/></g><text fill="#000000" font-family="sans-serif" font-size="14" lengthAdjust="spacing" textLength="178.1104" x="320.28" y="616.2951">loanId : UUID {readOnly}</text><g data-visibility-modifier="PRIVATE_FIELD"><rect fill="none" height="6" style="stroke:#C82930;stroke-width:1;" width="6" x="308.28" y="626.2453"/></g><text fill="#000000" font-family="sans-serif" font-size="14" lengthAdjust="spacing" textLength="208.4141" x="320.28" y="632.592">student : Student {readOnly}</text><g data-visibility-modifier="PRIVATE_FIELD"><rect fill="none" height="6" style="stroke:#C82930;stroke-width:1;" width="6" x="308.28" y="642.5422"/></g><text fill="#000000" font-family="sans-serif" font-size="14" lengthAdjust="spacing" textLength="168.752" x="320.28" y="648.8889">book : Book {readOnly}</text><g data-visibility-modifier="PRIVATE_FIELD"><rect fill="none" height="6" style="stroke:#C82930;stroke-width:1;" width="6" x="308.28" y="658.8391"/></g><text fill="#000000" font-family="sans-serif" font-size="14" lengthAdjust="spacing" textLength="140.123" x="320.28" y="665.1857">loanEnd : LocalDate</text><g data-visibility-modifier="PRIVATE_FIELD"><rect fill="none" height="6" style="stroke:#C82930;stroke-width:1;" width="6" x="308.28" y="675.1359"/></g><text fill="#000000" font-family="sans-serif" font-size="14" lengthAdjust="spacing" textLength="130.4502" x="320.28" y="681.4826">returned : boolean</text><line style="stroke:#181818;stroke-width:0.5;" x1="301.28" x2="533.6941" y1="688.7844" y2="688.7844"/><g data-visibility-modifier="PUBLIC_METHOD"><ellipse cx="311.28" cy="702.4328" fill="#84BE84" rx="3" ry="3" style="stroke:#038048;stroke-width:1;"/></g><text fill="#000000" font-family="sans-serif" font-size="14" lengthAdjust="spacing" textLength="58.0918" x="320.28" y="705.7795">Loan(...)</text><g data-visibility-modifier="PUBLIC_METHOD"><ellipse cx="311.28" cy="718.7297" fill="#84BE84" rx="3" ry="3" style="stroke:#038048;stroke-width:1;"/></g><text fill="#000000" font-family="sans-serif" font-size="14" lengthAdjust="spacing" textLength="129.7666" x="320.28" y="722.0764">getLoanId() : UUID</text><g data-visibility-modifier="PUBLIC_METHOD"><ellipse cx="311.28" cy="735.0266" fill="#84BE84" rx="3" ry="3" style="stroke:#038048;stroke-width:1;"/></g><text fill="#000000" font-family="sans-serif" font-size="14" lengthAdjust="spacing" textLength="157.7529" x="320.28" y="738.3732">getStudent() : Student</text><g data-visibility-modifier="PUBLIC_METHOD"><ellipse cx="311.28" cy="751.3234" fill="#84BE84" rx="3" ry="3" style="stroke:#038048;stroke-width:1;"/></g><text fill="#000000" font-family="sans-serif" font-size="14" lengthAdjust="spacing" textLength="117.2158" x="320.28" y="754.6701">getBook() : Book</text><g data-visibility-modifier="PUBLIC_METHOD"><ellipse cx="311.28" cy="767.6203" fill="#84BE84" rx="3" ry="3" style="stroke:#038048;stroke-width:1;"/></g><text fill="#000000" font-family="sans-serif" font-size="14" lengthAdjust="spacing" textLength="177.9463" x="320.28" y="770.967">getLoanEnd() : LocalDate</text><g data-visibility-modifier="PUBLIC_METHOD"><ellipse cx="311.28" cy="783.9172" fill="#84BE84" rx="3" ry="3" style="stroke:#038048;stroke-width:1;"/></g><text fill="#000000" font-family="sans-serif" font-size="14" lengthAdjust="spacing" textLength="156.5293" x="320.28" y="787.2639">isReturned() : boolean</text><g data-visibility-modifier="PUBLIC_METHOD"><ellipse cx="311.28" cy="800.2141" fill="#84BE84" rx="3" ry="3" style="stroke:#038048;stroke-width:1;"/></g><text fill="#000000" font-family="sans-serif" font-size="14" lengthAdjust="spacing" textLength="149.3379" x="320.28" y="803.5607">setLoanEnd(...) : void</text><g data-visibility-modifier="PUBLIC_METHOD"><ellipse cx="311.28" cy="816.5109" fill="#84BE84" rx="3" ry="3" style="stroke:#038048;stroke-width:1;"/></g><text fill="#000000" font-family="sans-serif" font-size="14" lengthAdjust="spacing" textLength="131.3457" x="320.28" y="819.8576">returnLoan() : void</text><g data-visibility-modifier="PUBLIC_METHOD"><ellipse cx="311.28" cy="832.8078" fill="#84BE84" rx="3" ry="3" style="stroke:#038048;stroke-width:1;"/></g><text fill="#000000" font-family="sans-serif" font-size="14" lengthAdjust="spacing" textLength="144.6074" x="320.28" y="836.1545">activateLoan() : void</text><g data-visibility-modifier="PUBLIC_METHOD"><ellipse cx="311.28" cy="849.1047" fill="#84BE84" rx="3" ry="3" style="stroke:#038048;stroke-width:1;"/></g><text fill="#000000" font-family="sans-serif" font-size="14" lengthAdjust="spacing" textLength="131.8447" x="320.28" y="852.4514">isDelay() : boolean</text><g data-visibility-modifier="PRIVATE_METHOD"><rect fill="#F24D5C" height="6" style="stroke:#C82930;stroke-width:1;" width="6" x="308.28" y="862.4016"/></g><text fill="#000000" font-family="sans-serif" font-size="14" lengthAdjust="spacing" textLength="156.6045" x="320.28" y="868.7482">isActivable() : boolean</text><g data-visibility-modifier="PRIVATE_METHOD"><rect fill="#F24D5C" height="6" style="stroke:#C82930;stroke-width:1;" width="6" x="308.28" y="878.6984"/></g><text fill="#000000" font-family="sans-serif" font-size="14" lengthAdjust="spacing" textLength="126.5195" x="320.28" y="885.0451">isValid() : boolean</text></g><!--class Book--><g class="entity" data-entity="Book" data-source-line="6" data-uid="ent0005" id="entity_Book"><rect fill="#F1F1F1" height="341.3438" rx="2.5" ry="2.5" style="stroke:#181818;stroke-width:0.5;" width="284.1318" x="584.42" y="559.16"/><ellipse cx="704.8145" cy="575.16" fill="#ADD1B2" rx="11" ry="11" style="stroke:#181818;stroke-width:1;"/><path d="M707.7833,580.8006 Q707.2052,581.0975 706.5645,581.2381 Q705.9239,581.3944 705.2208,581.3944 Q702.7208,581.3944 701.3927,579.7538 Q700.0802,578.0975 700.0802,574.9725 Q700.0802,571.8475 701.3927,570.1913 Q702.7208,568.535 705.2208,568.535 Q705.9239,568.535 706.5645,568.6913 Q707.2208,568.8475 707.7833,569.1444 L707.7833,571.8631 Q707.1583,571.285 706.5645,571.0194 Q705.9708,570.7381 705.3458,570.7381 Q704.002,570.7381 703.3145,571.8163 Q702.627,572.8788 702.627,574.9725 Q702.627,577.0663 703.3145,578.1444 Q704.002,579.2069 705.3458,579.2069 Q705.9708,579.2069 706.5645,578.9413 Q707.1583,578.66 707.7833,578.0819 L707.7833,580.8006 Z " fill="#000000"/><text fill="#000000" font-family="sans-serif" font-size="14" lengthAdjust="spacing" textLength="34.8428" x="725.3145" y="580.0067">Book</text><line style="stroke:#181818;stroke-width:0.5;" x1="585.42" x2="867.5518" y1="591.16" y2="591.16"/><g data-visibility-modifier="PRIVATE_FIELD"><rect fill="none" height="6" style="stroke:#C82930;stroke-width:1;" width="6" x="592.42" y="601.8084"/></g><text fill="#000000" font-family="sans-serif" font-size="14" lengthAdjust="spacing" textLength="82.7695" x="604.42" y="608.1551">title : String</text><g data-visibility-modifier="PRIVATE_FIELD"><rect fill="none" height="6" style="stroke:#C82930;stroke-width:1;" width="6" x="592.42" y="618.1053"/></g><text fill="#000000" font-family="sans-serif" font-size="14" lengthAdjust="spacing" textLength="156.7617" x="604.42" y="624.452">authors : List&lt;String&gt;</text><g data-visibility-modifier="PRIVATE_FIELD"><rect fill="none" height="6" style="stroke:#C82930;stroke-width:1;" width="6" x="592.42" y="634.4022"/></g><text fill="#000000" font-family="sans-serif" font-size="14" lengthAdjust="spacing" textLength="188.7061" x="604.42" y="640.7489">bookId : String {readOnly}</text><g data-visibility-modifier="PRIVATE_FIELD"><rect fill="none" height="6" style="stroke:#C82930;stroke-width:1;" width="6" x="592.42" y="650.6991"/></g><text fill="#000000" font-family="sans-serif" font-size="14" lengthAdjust="spacing" textLength="150.5752" x="604.42" y="657.0457">publishmentYear : int</text><g data-visibility-modifier="PRIVATE_FIELD"><rect fill="none" height="6" style="stroke:#C82930;stroke-width:1;" width="6" x="592.42" y="666.9959"/></g><text fill="#000000" font-family="sans-serif" font-size="14" lengthAdjust="spacing" textLength="142.085" x="604.42" y="673.3426">availableCopies : int</text><line style="stroke:#181818;stroke-width:0.5;" x1="585.42" x2="867.5518" y1="680.6444" y2="680.6444"/><g data-visibility-modifier="PUBLIC_METHOD"><ellipse cx="595.42" cy="694.2928" fill="#84BE84" rx="3" ry="3" style="stroke:#038048;stroke-width:1;"/></g><text fill="#000000" font-family="sans-serif" font-size="14" lengthAdjust="spacing" textLength="59.1172" x="604.42" y="697.6395">Book(...)</text><g data-visibility-modifier="PUBLIC_METHOD"><ellipse cx="595.42" cy="710.5897" fill="#84BE84" rx="3" ry="3" style="stroke:#038048;stroke-width:1;"/></g><text fill="#000000" font-family="sans-serif" font-size="14" lengthAdjust="spacing" textLength="119.7451" x="604.42" y="713.9364">getTitle() : String</text><g data-visibility-modifier="PUBLIC_METHOD"><ellipse cx="595.42" cy="726.8866" fill="#84BE84" rx="3" ry="3" style="stroke:#038048;stroke-width:1;"/></g><text fill="#000000" font-family="sans-serif" font-size="14" lengthAdjust="spacing" textLength="191.6729" x="604.42" y="730.2332">getAuthors() : List&lt;String&gt;</text><g data-visibility-modifier="PUBLIC_METHOD"><ellipse cx="595.42" cy="743.1834" fill="#84BE84" rx="3" ry="3" style="stroke:#038048;stroke-width:1;"/></g><text fill="#000000" font-family="sans-serif" font-size="14" lengthAdjust="spacing" textLength="137.1699" x="604.42" y="746.5301">getBookId() : String</text><g data-visibility-modifier="PUBLIC_METHOD"><ellipse cx="595.42" cy="759.4803" fill="#84BE84" rx="3" ry="3" style="stroke:#038048;stroke-width:1;"/></g><text fill="#000000" font-family="sans-serif" font-size="14" lengthAdjust="spacing" textLength="184.0439" x="604.42" y="762.827">getPublishmentYear() : int</text><g data-visibility-modifier="PUBLIC_METHOD"><ellipse cx="595.42" cy="775.7772" fill="#84BE84" rx="3" ry="3" style="stroke:#038048;stroke-width:1;"/></g><text fill="#000000" font-family="sans-serif" font-size="14" lengthAdjust="spacing" textLength="176.9961" x="604.42" y="779.1239">getAvailableCopies() : int</text><g data-visibility-modifier="PUBLIC_METHOD"><ellipse cx="595.42" cy="792.0741" fill="#84BE84" rx="3" ry="3" style="stroke:#038048;stroke-width:1;"/></g><text fill="#000000" font-family="sans-serif" font-size="14" lengthAdjust="spacing" textLength="200.1289" x="604.42" y="795.4207">setAvailableCopies(...) : void</text><g data-visibility-modifier="PUBLIC_METHOD"><ellipse cx="595.42" cy="808.3709" fill="#84BE84" rx="3" ry="3" style="stroke:#038048;stroke-width:1;"/></g><text fill="#000000" font-family="sans-serif" font-size="14" lengthAdjust="spacing" textLength="100.9531" x="604.42" y="811.7176">copy(...) : void</text><g data-visibility-modifier="PUBLIC_METHOD"><ellipse cx="595.42" cy="824.6678" fill="#84BE84" rx="3" ry="3" style="stroke:#038048;stroke-width:1;"/></g><text fill="#000000" font-family="sans-serif" font-size="14" lengthAdjust="spacing" textLength="212.0781" x="604.42" y="828.0145">isAvailableForLoan() : boolean</text><g data-visibility-modifier="PRIVATE_METHOD"><rect fill="#F24D5C" height="6" style="stroke:#C82930;stroke-width:1;" width="6" x="592.42" y="837.9647"/></g><text fill="#000000" font-family="sans-serif" font-size="14" lengthAdjust="spacing" textLength="126.5195" x="604.42" y="844.3114">isValid() : boolean</text><g data-visibility-modifier="PRIVATE_METHOD"><rect fill="#F24D5C" height="6" style="stroke:#C82930;stroke-width:1;" width="6" x="592.42" y="854.2616"/></g><text fill="#000000" font-family="sans-serif" font-size="14" lengthAdjust="spacing" textLength="187.7285" x="604.42" y="860.6082">isBookIdValid(...) : boolean</text><g data-visibility-modifier="PRIVATE_METHOD"><rect fill="#F24D5C" height="6" style="stroke:#C82930;stroke-width:1;" width="6" x="592.42" y="870.5584"/></g><text fill="#000000" font-family="sans-serif" font-size="14" lengthAdjust="spacing" textLength="258.1318" x="604.42" y="876.9051">isPublishmentYearValid(...) : boolean</text><g data-visibility-modifier="PRIVATE_METHOD"><rect fill="#F24D5C" height="6" style="stroke:#C82930;stroke-width:1;" width="6" x="592.42" y="886.8553"/></g><text fill="#000000" font-family="sans-serif" font-size="14" lengthAdjust="spacing" textLength="251.084" x="604.42" y="893.202">isAvailableCopiesValid(...) : boolean</text></g><!--class BookRegister--><g class="entity" data-entity="BookRegister" data-source-line="8" data-uid="ent0007" id="entity_BookRegister"><rect fill="#F1F1F1" height="80.5938" rx="2.5" ry="2.5" style="stroke:#181818;stroke-width:0.5;" width="213.3047" x="595.83" y="418.56"/><ellipse cx="651.6762" cy="434.56" fill="#ADD1B2" rx="11" ry="11" style="stroke:#181818;stroke-width:1;"/><path d="M654.6449,440.2006 Q654.0668,440.4975 653.4262,440.6381 Q652.7856,440.7944 652.0824,440.7944 Q649.5824,440.7944 648.2543,439.1538 Q646.9418,437.4975 646.9418,434.3725 Q646.9418,431.2475 648.2543,429.5913 Q649.5824,427.935 652.0824,427.935 Q652.7856,427.935 653.4262,428.0913 Q654.0824,428.2475 654.6449,428.5444 L654.6449,431.2631 Q654.0199,430.685 653.4262,430.4194 Q652.8324,430.1381 652.2074,430.1381 Q650.8637,430.1381 650.1762,431.2163 Q649.4887,432.2788 649.4887,434.3725 Q649.4887,436.4663 650.1762,437.5444 Q650.8637,438.6069 652.2074,438.6069 Q652.8324,438.6069 653.4262,438.3413 Q654.0199,438.06 654.6449,437.4819 L654.6449,440.2006 Z " fill="#000000"/><text fill="#000000" font-family="sans-serif" font-size="14" lengthAdjust="spacing" textLength="93.1123" x="672.1762" y="439.4067">BookRegister</text><line style="stroke:#181818;stroke-width:0.5;" x1="596.83" x2="808.1347" y1="450.56" y2="450.56"/><g data-visibility-modifier="PRIVATE_FIELD"><rect fill="none" height="6" style="stroke:#C82930;stroke-width:1;" width="6" x="603.83" y="461.2084"/></g><text fill="#000000" font-family="sans-serif" font-size="14" lengthAdjust="spacing" textLength="187.3047" x="615.83" y="467.5551">bookRegister : Set&lt;Book&gt;</text><line style="stroke:#181818;stroke-width:0.5;" x1="596.83" x2="808.1347" y1="474.8569" y2="474.8569"/><g data-visibility-modifier="PUBLIC_METHOD"><ellipse cx="606.83" cy="488.5053" fill="#84BE84" rx="3" ry="3" style="stroke:#038048;stroke-width:1;"/></g><text fill="#000000" font-family="sans-serif" font-size="14" lengthAdjust="spacing" textLength="104.0361" x="615.83" y="491.852">BookRegister()</text></g><!--class Register<T>--><g class="entity" data-entity="Register.T." data-source-line="9" data-uid="ent0009" id="entity_Register.T."><rect fill="#F1F1F1" height="129.4844" rx="2.5" ry="2.5" style="stroke:#181818;stroke-width:0.5;" width="212.7578" x="311.1" y="229.08"/><ellipse cx="368.0878" cy="245.08" fill="#B4A7E5" rx="11" ry="11" style="stroke:#181818;stroke-width:1;"/><path d="M364.0097,240.8456 L364.0097,238.6894 L371.4003,238.6894 L371.4003,240.8456 L368.9315,240.8456 L368.9315,248.9238 L371.4003,248.9238 L371.4003,251.08 L364.0097,251.08 L364.0097,248.9238 L366.4784,248.9238 L366.4784,240.8456 L364.0097,240.8456 Z " fill="#000000"/><text fill="#000000" font-family="sans-serif" font-size="14" font-style="italic" lengthAdjust="spacing" textLength="90.2822" x="388.5878" y="249.9267">Register&lt;T&gt;</text><line style="stroke:#181818;stroke-width:0.5;" x1="312.1" x2="522.8578" y1="261.08" y2="261.08"/><line style="stroke:#181818;stroke-width:0.5;" x1="312.1" x2="522.8578" y1="269.08" y2="269.08"/><g data-visibility-modifier="PUBLIC_METHOD"><ellipse cx="322.1" cy="282.7284" fill="#84BE84" rx="3" ry="3" style="stroke:#038048;stroke-width:1;"/></g><text fill="#000000" font-family="sans-serif" font-size="14" lengthAdjust="spacing" textLength="93.8711" x="331.1" y="286.0751">add(...) : void</text><g data-visibility-modifier="PUBLIC_METHOD"><ellipse cx="322.1" cy="299.0253" fill="#84BE84" rx="3" ry="3" style="stroke:#038048;stroke-width:1;"/></g><text fill="#000000" font-family="sans-serif" font-size="14" lengthAdjust="spacing" textLength="115.7119" x="331.1" y="302.372">modify(...) : void</text><g data-visibility-modifier="PUBLIC_METHOD"><ellipse cx="322.1" cy="315.3222" fill="#84BE84" rx="3" ry="3" style="stroke:#038048;stroke-width:1;"/></g><text fill="#000000" font-family="sans-serif" font-size="14" lengthAdjust="spacing" textLength="120.9893" x="331.1" y="318.6689">remove(...) : void</text><g data-visibility-modifier="PUBLIC_METHOD"><ellipse cx="322.1" cy="331.6191" fill="#84BE84" rx="3" ry="3" style="stroke:#038048;stroke-width:1;"/></g><text fill="#000000" font-family="sans-serif" font-size="14" lengthAdjust="spacing" textLength="154.4307" x="331.1" y="334.9657">isUnique(...) : boolean</text><g data-visibility-modifier="PUBLIC_METHOD"><ellipse cx="322.1" cy="347.9159" fill="#84BE84" rx="3" ry="3" style="stroke:#038048;stroke-width:1;"/></g><text fill="#000000" font-family="sans-serif" font-size="14" lengthAdjust="spacing" textLength="186.7578" x="331.1" y="351.2626">getRegisterList() : List&lt;T&gt;</text></g><!--class StudentRegister--><g class="entity" data-entity="StudentRegister" data-source-line="11" data-uid="ent0012" id="entity_StudentRegister"><rect fill="#F1F1F1" height="80.5938" rx="2.5" ry="2.5" style="stroke:#181818;stroke-width:0.5;" width="252.9668" x="7" y="418.56"/><ellipse cx="72.543" cy="434.56" fill="#ADD1B2" rx="11" ry="11" style="stroke:#181818;stroke-width:1;"/><path d="M75.5117,440.2006 Q74.9336,440.4975 74.293,440.6381 Q73.6523,440.7944 72.9492,440.7944 Q70.4492,440.7944 69.1211,439.1538 Q67.8086,437.4975 67.8086,434.3725 Q67.8086,431.2475 69.1211,429.5913 Q70.4492,427.935 72.9492,427.935 Q73.6523,427.935 74.293,428.0913 Q74.9492,428.2475 75.5117,428.5444 L75.5117,431.2631 Q74.8867,430.685 74.293,430.4194 Q73.6992,430.1381 73.0742,430.1381 Q71.7305,430.1381 71.043,431.2163 Q70.3555,432.2788 70.3555,434.3725 Q70.3555,436.4663 71.043,437.5444 Q71.7305,438.6069 73.0742,438.6069 Q73.6992,438.6069 74.293,438.3413 Q74.8867,438.06 75.5117,437.4819 L75.5117,440.2006 Z " fill="#000000"/><text fill="#000000" font-family="sans-serif" font-size="14" lengthAdjust="spacing" textLength="113.3809" x="93.043" y="439.4067">StudentRegister</text><line style="stroke:#181818;stroke-width:0.5;" x1="8" x2="258.9668" y1="450.56" y2="450.56"/><g data-visibility-modifier="PRIVATE_FIELD"><rect fill="none" height="6" style="stroke:#C82930;stroke-width:1;" width="6" x="15" y="461.2084"/></g><text fill="#000000" font-family="sans-serif" font-size="14" lengthAdjust="spacing" textLength="226.9668" x="27" y="467.5551">studentRegister : Set&lt;Student&gt;</text><line style="stroke:#181818;stroke-width:0.5;" x1="8" x2="258.9668" y1="474.8569" y2="474.8569"/><g data-visibility-modifier="PUBLIC_METHOD"><ellipse cx="18" cy="488.5053" fill="#84BE84" rx="3" ry="3" style="stroke:#038048;stroke-width:1;"/></g><text fill="#000000" font-family="sans-serif" font-size="14" lengthAdjust="spacing" textLength="124.3047" x="27" y="491.852">StudentRegister()</text></g><!--class LoanRegister--><g class="entity" data-entity="LoanRegister" data-source-line="14" data-uid="ent0016" id="entity_LoanRegister"><rect fill="#F1F1F1" height="80.5938" rx="2.5" ry="2.5" style="stroke:#181818;stroke-width:0.5;" width="208.0615" x="313.45" y="418.56"/><ellipse cx="367.1873" cy="434.56" fill="#ADD1B2" rx="11" ry="11" style="stroke:#181818;stroke-width:1;"/><path d="M370.1561,440.2006 Q369.5779,440.4975 368.9373,440.6381 Q368.2967,440.7944 367.5936,440.7944 Q365.0936,440.7944 363.7654,439.1538 Q362.4529,437.4975 362.4529,434.3725 Q362.4529,431.2475 363.7654,429.5913 Q365.0936,427.935 367.5936,427.935 Q368.2967,427.935 368.9373,428.0913 Q369.5936,428.2475 370.1561,428.5444 L370.1561,431.2631 Q369.5311,430.685 368.9373,430.4194 Q368.3436,430.1381 367.7186,430.1381 Q366.3748,430.1381 365.6873,431.2163 Q364.9998,432.2788 364.9998,434.3725 Q364.9998,436.4663 365.6873,437.5444 Q366.3748,438.6069 367.7186,438.6069 Q368.3436,438.6069 368.9373,438.3413 Q369.5311,438.06 370.1561,437.4819 L370.1561,440.2006 Z " fill="#000000"/><text fill="#000000" font-family="sans-serif" font-size="14" lengthAdjust="spacing" textLength="92.0869" x="387.6873" y="439.4067">LoanRegister</text><line style="stroke:#181818;stroke-width:0.5;" x1="314.45" x2="520.5115" y1="450.56" y2="450.56"/><g data-visibility-modifier="PRIVATE_FIELD"><rect fill="none" height="6" style="stroke:#C82930;stroke-width:1;" width="6" x="321.45" y="461.2084"/></g><text fill="#000000" font-family="sans-serif" font-size="14" lengthAdjust="spacing" textLength="182.0615" x="333.45" y="467.5551">loanRegister : Set&lt;Loan&gt;</text><line style="stroke:#181818;stroke-width:0.5;" x1="314.45" x2="520.5115" y1="474.8569" y2="474.8569"/><g data-visibility-modifier="PUBLIC_METHOD"><ellipse cx="324.45" cy="488.5053" fill="#84BE84" rx="3" ry="3" style="stroke:#038048;stroke-width:1;"/></g><text fill="#000000" font-family="sans-serif" font-size="14" lengthAdjust="spacing" textLength="103.0107" x="333.45" y="491.852">LoanRegister()</text></g><!--class Library--><g class="entity" data-entity="Library" data-source-line="17" data-uid="ent0020" id="entity_Library"><rect fill="#F1F1F1" height="162.0781" rx="2.5" ry="2.5" style="stroke:#181818;stroke-width:0.5;" width="323.7529" x="255.61" y="7"/><ellipse cx="388.7604" cy="23" fill="#ADD1B2" rx="11" ry="11" style="stroke:#181818;stroke-width:1;"/><path d="M391.7291,28.6406 Q391.151,28.9375 390.5104,29.0781 Q389.8698,29.2344 389.1666,29.2344 Q386.6666,29.2344 385.3385,27.5938 Q384.026,25.9375 384.026,22.8125 Q384.026,19.6875 385.3385,18.0313 Q386.6666,16.375 389.1666,16.375 Q389.8698,16.375 390.5104,16.5313 Q391.1666,16.6875 391.7291,16.9844 L391.7291,19.7031 Q391.1041,19.125 390.5104,18.8594 Q389.9166,18.5781 389.2916,18.5781 Q387.9479,18.5781 387.2604,19.6563 Q386.5729,20.7188 386.5729,22.8125 Q386.5729,24.9063 387.2604,25.9844 Q387.9479,27.0469 389.2916,27.0469 Q389.9166,27.0469 390.5104,26.7813 Q391.1041,26.5 391.7291,25.9219 L391.7291,28.6406 Z " fill="#000000"/><text fill="#000000" font-family="sans-serif" font-size="14" lengthAdjust="spacing" textLength="48.9521" x="409.2604" y="27.8467">Library</text><line style="stroke:#181818;stroke-width:0.5;" x1="256.61" x2="578.3629" y1="39" y2="39"/><g data-visibility-modifier="PRIVATE_FIELD"><rect fill="none" height="6" style="stroke:#C82930;stroke-width:1;" width="6" x="263.61" y="49.6484"/></g><text fill="#000000" font-family="sans-serif" font-size="14" lengthAdjust="spacing" textLength="222.585" x="275.61" y="55.9951">bookRegister : Register&lt;Book&gt;</text><g data-visibility-modifier="PRIVATE_FIELD"><rect fill="none" height="6" style="stroke:#C82930;stroke-width:1;" width="6" x="263.61" y="65.9453"/></g><text fill="#000000" font-family="sans-serif" font-size="14" lengthAdjust="spacing" textLength="262.2471" x="275.61" y="72.292">studentRegister : Register&lt;Student&gt;</text><g data-visibility-modifier="PRIVATE_FIELD"><rect fill="none" height="6" style="stroke:#C82930;stroke-width:1;" width="6" x="263.61" y="82.2422"/></g><text fill="#000000" font-family="sans-serif" font-size="14" lengthAdjust="spacing" textLength="217.3418" x="275.61" y="88.5889">loanRegister : Register&lt;Loan&gt;</text><line style="stroke:#181818;stroke-width:0.5;" x1="256.61" x2="578.3629" y1="95.8906" y2="95.8906"/><g data-visibility-modifier="PUBLIC_METHOD"><ellipse cx="266.61" cy="109.5391" fill="#84BE84" rx="3" ry="3" style="stroke:#038048;stroke-width:1;"/></g><text fill="#000000" font-family="sans-serif" font-size="14" lengthAdjust="spacing" textLength="59.876" x="275.61" y="112.8857">Library()</text><g data-visibility-modifier="PUBLIC_METHOD"><ellipse cx="266.61" cy="125.8359" fill="#84BE84" rx="3" ry="3" style="stroke:#038048;stroke-width:1;"/></g><text fill="#000000" font-family="sans-serif" font-size="14" lengthAdjust="spacing" textLength="257.2158" x="275.61" y="129.1826">getBookRegister() : Register&lt;Book&gt;</text><g data-visibility-modifier="PUBLIC_METHOD"><ellipse cx="266.61" cy="142.1328" fill="#84BE84" rx="3" ry="3" style="stroke:#038048;stroke-width:1;"/></g><text fill="#000000" font-family="sans-serif" font-size="14" lengthAdjust="spacing" textLength="297.7529" x="275.61" y="145.4795">getStudentRegister() : Register&lt;Student&gt;</text><g data-visibility-modifier="PUBLIC_METHOD"><ellipse cx="266.61" cy="158.4297" fill="#84BE84" rx="3" ry="3" style="stroke:#038048;stroke-width:1;"/></g><text fill="#000000" font-family="sans-serif" font-size="14" lengthAdjust="spacing" textLength="255.165" x="275.61" y="161.7764">getLoanRegister() : Register&lt;Loan&gt;</text></g><!--link Student to Loan--><g class="link" data-entity-1="Student" data-entity-2="Loan" data-link-type="association" data-source-line="4" data-uid="lnk4" id="link_Student_Loan"><path codeLine="4" d="M250.72,729.83 C267.11,729.83 283.51,729.83 299.9,729.83" fill="none" id="Student-Loan" style="stroke:#181818;stroke-width:1;"/><text fill="#000000" font-family="sans-serif" font-size="13" lengthAdjust="spacing" textLength="8.271" x="258.299" y="726.4438">1</text><text fill="#000000" font-family="sans-serif" font-size="13" lengthAdjust="spacing" textLength="8.271" x="284.1195" y="726.4211">3</text></g><!--link Loan to Book--><g class="link" data-entity-1="Loan" data-entity-2="Book" data-link-type="dependency" data-source-line="6" data-uid="lnk6" id="link_Loan_Book"><path codeLine="6" d="M535.17,729.83 C551.49,729.83 561.8,729.83 578.12,729.83" fill="none" id="Loan-to-Book" style="stroke:#181818;stroke-width:1;"/><polygon fill="#181818" points="584.12,729.83,575.12,725.83,579.12,729.83,575.12,733.83,584.12,729.83" style="stroke:#181818;stroke-width:1;"/><text fill="#000000" font-family="sans-serif" font-size="13" lengthAdjust="spacing" textLength="6.5" x="542.5394" y="726.4443">*</text><text fill="#000000" font-family="sans-serif" font-size="13" lengthAdjust="spacing" textLength="8.271" x="568.123" y="726.4903">1</text></g><!--link BookRegister to Book--><g class="link" data-entity-1="BookRegister" data-entity-2="Book" data-link-type="dependency" data-source-line="8" data-uid="lnk8" id="link_BookRegister_Book"><path codeLine="8" d="M706.02,499.55 C707.51,516.21 708.8168,530.8337 710.7768,552.8037" fill="none" id="BookRegister-to-Book" style="stroke:#181818;stroke-width:1;"/><polygon fill="#181818" points="711.31,558.78,714.4944,549.4602,710.8657,553.7998,706.5261,550.171,711.31,558.78" style="stroke:#181818;stroke-width:1;"/><text fill="#000000" font-family="sans-serif" font-size="13" lengthAdjust="spacing" textLength="8.271" x="697.9679" y="519.3083">1</text><text fill="#000000" font-family="sans-serif" font-size="13" lengthAdjust="spacing" textLength="6.5" x="704.5538" y="548.317">*</text></g><!--reverse link Register<T> to BookRegister--><g class="link" data-entity-1="Register.T." data-entity-2="BookRegister" data-link-type="extension" data-source-line="9" data-uid="lnk11" id="link_Register.T._BookRegister"><path codeLine="9" d="M539.6326,364.7006 C576.1526,385.6006 600.43,399.48 633.22,418.24" fill="none" id="Register&lt;T&gt;-backto-BookRegister" style="stroke:#181818;stroke-width:1;stroke-dasharray:7,7;"/><polygon fill="none" points="524.01,355.76,536.6524,369.9082,542.6128,359.4931,524.01,355.76" style="stroke:#181818;stroke-width:1;"/></g><!--link StudentRegister to Student--><g class="link" data-entity-1="StudentRegister" data-entity-2="Student" data-link-type="dependency" data-source-line="11" data-uid="lnk13" id="link_StudentRegister_Student"><path codeLine="11" d="M133.04,499.55 C132.85,516.21 132.6983,530.8104 132.4483,552.7804" fill="none" id="StudentRegister-to-Student" style="stroke:#181818;stroke-width:1;"/><polygon fill="#181818" points="132.38,558.78,136.4821,549.8261,132.4369,553.7803,128.4827,549.7351,132.38,558.78" style="stroke:#181818;stroke-width:1;"/><text fill="#000000" font-family="sans-serif" font-size="13" lengthAdjust="spacing" textLength="8.271" x="124.3534" y="519.3083">1</text><text fill="#000000" font-family="sans-serif" font-size="13" lengthAdjust="spacing" textLength="6.5" x="126.344" y="548.317">*</text></g><!--reverse link Register<T> to StudentRegister--><g class="link" data-entity-1="Register.T." data-entity-2="StudentRegister" data-link-type="extension" data-source-line="12" data-uid="lnk15" id="link_Register.T._StudentRegister"><path codeLine="12" d="M295.311,364.9544 C259.111,385.7444 235.24,399.44 202.73,418.11" fill="none" id="Register&lt;T&gt;-backto-StudentRegister" style="stroke:#181818;stroke-width:1;stroke-dasharray:7,7;"/><polygon fill="none" points="310.92,355.99,292.3229,359.7514,298.2992,370.1574,310.92,355.99" style="stroke:#181818;stroke-width:1;"/></g><!--link LoanRegister to Loan--><g class="link" data-entity-1="LoanRegister" data-entity-2="Loan" data-link-type="dependency" data-source-line="14" data-uid="lnk17" id="link_LoanRegister_Loan"><path codeLine="14" d="M417.48,499.55 C417.48,518.25 417.48,535.93 417.48,560.94" fill="none" id="LoanRegister-to-Loan" style="stroke:#181818;stroke-width:1;"/><polygon fill="#181818" points="417.48,566.94,421.48,557.94,417.48,561.94,413.48,557.94,417.48,566.94" style="stroke:#181818;stroke-width:1;"/><text fill="#000000" font-family="sans-serif" font-size="13" lengthAdjust="spacing" textLength="8.271" x="408.864" y="519.3083">1</text><text fill="#000000" font-family="sans-serif" font-size="13" lengthAdjust="spacing" textLength="6.5" x="411.3551" y="556.2894">*</text></g><!--reverse link Register<T> to LoanRegister--><g class="link" data-entity-1="Register.T." data-entity-2="LoanRegister" data-link-type="extension" data-source-line="15" data-uid="lnk19" id="link_Register.T._LoanRegister"><path codeLine="15" d="M417.48,376.79 C417.48,396.95 417.48,400.62 417.48,418.53" fill="none" id="Register&lt;T&gt;-backto-LoanRegister" style="stroke:#181818;stroke-width:1;stroke-dasharray:7,7;"/><polygon fill="none" points="417.48,358.79,411.48,376.79,423.48,376.79,417.48,358.79" style="stroke:#181818;stroke-width:1;"/></g><!--link Library to Register<T>--><g class="link" data-entity-1="Library" data-entity-2="Register.T." data-link-type="dependency" data-source-line="17" data-uid="lnk21" id="link_Library_Register.T."><path codeLine="17" d="M417.48,169.29 C417.48,189 417.48,203.85 417.48,222.69" fill="none" id="Library-to-Register&lt;T&gt;" style="stroke:#181818;stroke-width:1;"/><polygon fill="#181818" points="417.48,228.69,421.48,219.69,417.48,223.69,413.48,219.69,417.48,228.69" style="stroke:#181818;stroke-width:1;"/><text fill="#000000" font-family="sans-serif" font-size="13" lengthAdjust="spacing" textLength="8.271" x="409.1352" y="189.2672">1</text><text fill="#000000" font-family="sans-serif" font-size="13" lengthAdjust="spacing" textLength="8.271" x="409.0574" y="217.82">3</text></g><!--SRC=[ZLLDYzim4BtxLmXVccn9Q2czb618coqiXBRi9WizAl5i8c9RgUG4Gfh_NdrPjkHnQ0u1wpsDtkZDZEI1LKSgQ4agdeE48_dy8NctPpcG4ieD29aaB_KfXwecwSUKJCI4f9zIikIqIXBzJz87ivmP_2ldXoJH_y-mOx86ORVb6dzmU01FJzE_2ck-PwiizKVYCHpO8w6Hj4GyZ4aXWF40R2Eek7JsglGZphQWKZQwo3KXwZSX5Is1V57BWbKxjoPF0bssMvzo3v2h09h_h8hBpN6WfAo8Dz9jpSwWiv0AMYfDC_sH9GP_tsWQJQVJiLlQGVr3IHYDmrW6UB7oSApHYAAFMXsAp5k91k-8j9mjFrwCG0MUESlTCitpTYk22oZv6UvIc7ob1RE2DvmNe1nlaFbP2QQR0hvpORR7f8aY-Pnj77T2p3AveunRKnkcKvh2ADI7iNgzVbhqZNR5OAxILLHCKV4F2jUDr0Tr-CTAnr_oBIqMj0Q72AYLmP1t5Bhxy1VO-hOqAisrQ9szGd1csrxqe9Pa4DFfGJ2boHP0e4fxyUnq8KR9TYzM0dgVTwzRFBeir14OnkG22df13JVbfAi2HVlLv0ssLZXcpUgYr-FqLE-vy6rgiQnZwDtkFvus1PFxKbtsRw12CPcxTXMvAULl_CX0EinbQmm9dLrfUNYlMerjdtPLUdy7Hi2lKABXi6vjp4ET4K7s2Nt71sR5VxOpFWqqOjEws-LHUdUvKI93iq4b3-ADRY5yK5mTcH6895lodBrT1YSYUZthYlqv0IRNEDEShZrlpLzbONtxX_BQgLg_g0e2wfdcPTtQQ_3Hk0qMlzpNSF958HqxVjEmmC5ptXstKSZWZUnk2eAvbtyWM- -OJNae0q_pQQ2gF2sKPYMCnc43jcfn7TqnZNC3CNv2urohwFOF]--></g></svg>