<svg xmlns="http://www.w3.org/2000/svg" xmlns:xlink="http://www.w3.org/1999/xlink" contentStyleType="text/css" data-diagram-type="SEQUENCE" height="298px" preserveAspectRatio="none" style="width:766px;height:298px;background:#FFFFFF;" version="1.1" viewBox="0 0 766 298" width="766px" zoomAndPan="magnify"><defs/><g><g><title>Admin</title><rect fill="#000000" fill-opacity="0.00000" height="136.5313" width="8" x="26.4321" y="81.2969"/><line style="stroke:#181818;stroke-width:0.5;stroke-dasharray:5,5;" x1="30" x2="30" y1="81.2969" y2="217.8281"/></g><g><title>SideBarController</title><rect fill="#000000" fill-opacity="0.00000" height="136.5313" width="8" x="217.2485" y="81.2969"/><line style="stroke:#181818;stroke-width:0.5;stroke-dasharray:5,5;" x1="220.5542" x2="220.5542" y1="81.2969" y2="217.8281"/></g><g><title>StudentRegisterController</title><rect fill="#000000" fill-opacity="0.00000" height="136.5313" width="8" x="394.2197" y="81.2969"/><line style="stroke:#181818;stroke-width:0.5;stroke-dasharray:5,5;" x1="397.9429" x2="397.9429" y1="81.2969" y2="217.8281"/></g><g><title>MainController</title><rect fill="#000000" fill-opacity="0.00000" height="136.5313" width="8" x="560.7935" y="81.2969"/><line style="stroke:#181818;stroke-width:0.5;stroke-dasharray:5,5;" x1="564.4966" x2="564.4966" y1="81.2969" y2="217.8281"/></g><g><title>StudentRegister</title><rect fill="#000000" fill-opacity="0.00000" height="136.5313" width="8" x="692.7808" y="81.2969"/><line style="stroke:#181818;stroke-width:0.5;stroke-dasharray:5,5;" x1="696.0903" x2="696.0903" y1="81.2969" y2="217.8281"/></g><g class="participant participant-head" data-participant="Admin"><text fill="#000000" font-family="sans-serif" font-size="14" lengthAdjust="spacing" textLength="44.8643" x="5" y="77.9951">Admin</text><ellipse cx="30.4321" cy="13.5" fill="#E2E2F0" rx="8" ry="8" style="stroke:#181818;stroke-width:0.5;"/><path d="M30.4321,21.5 L30.4321,48.5 M17.4321,29.5 L43.4321,29.5 M30.4321,48.5 L17.4321,63.5 M30.4321,48.5 L43.4321,63.5" fill="none" style="stroke:#181818;stroke-width:0.5;"/></g><g class="participant participant-tail" data-participant="Admin"><text fill="#000000" font-family="sans-serif" font-size="14" lengthAdjust="spacing" textLength="44.8643" x="5" y="229.8232">Admin</text><ellipse cx="30.4321" cy="241.625" fill="#E2E2F0" rx="8" ry="8" style="stroke:#181818;stroke-width:0.5;"/><path d="M30.4321,249.625 L30.4321,276.625 M17.4321,257.625 L43.4321,257.625 M30.4321,276.625 L17.4321,291.625 M30.4321,276.625 L43.4321,291.625" fill="none" style="stroke:#181818;stroke-width:0.5;"/></g><g class="participant participant-head" data-participant="SideBarController"><rect fill="#E2E2F0" height="30.2969" rx="2.5" ry="2.5" style="stroke:#181818;stroke-width:0.5;" width="137.3887" x="152.5542" y="50"/><text fill="#000000" font-family="sans-serif" font-size="14" lengthAdjust="spacing" textLength="123.3887" x="159.5542" y="69.9951">SideBarController</text></g><g class="participant participant-tail" data-participant="SideBarController"><rect fill="#E2E2F0" height="30.2969" rx="2.5" ry="2.5" style="stroke:#181818;stroke-width:0.5;" width="137.3887" x="152.5542" y="216.8281"/><text fill="#000000" font-family="sans-serif" font-size="14" lengthAdjust="spacing" textLength="123.3887" x="159.5542" y="236.8232">SideBarController</text></g><g class="participant participant-head" data-participant="StudentRegisterController"><rect fill="#E2E2F0" height="30.2969" rx="2.5" ry="2.5" style="stroke:#181818;stroke-width:0.5;" width="196.5537" x="299.9429" y="50"/><text fill="#000000" font-family="sans-serif" font-size="14" lengthAdjust="spacing" textLength="182.5537" x="306.9429" y="69.9951">StudentRegisterController</text></g><g class="participant participant-tail" data-participant="StudentRegisterController"><rect fill="#E2E2F0" height="30.2969" rx="2.5" ry="2.5" style="stroke:#181818;stroke-width:0.5;" width="196.5537" x="299.9429" y="216.8281"/><text fill="#000000" font-family="sans-serif" font-size="14" lengthAdjust="spacing" textLength="182.5537" x="306.9429" y="236.8232">StudentRegisterController</text></g><g class="participant participant-head" data-participant="MainController"><rect fill="#E2E2F0" height="30.2969" rx="2.5" ry="2.5" style="stroke:#181818;stroke-width:0.5;" width="116.5938" x="506.4966" y="50"/><text fill="#000000" font-family="sans-serif" font-size="14" lengthAdjust="spacing" textLength="102.5938" x="513.4966" y="69.9951">MainController</text></g><g class="participant participant-tail" data-participant="MainController"><rect fill="#E2E2F0" height="30.2969" rx="2.5" ry="2.5" style="stroke:#181818;stroke-width:0.5;" width="116.5938" x="506.4966" y="216.8281"/><text fill="#000000" font-family="sans-serif" font-size="14" lengthAdjust="spacing" textLength="102.5938" x="513.4966" y="236.8232">MainController</text></g><g class="participant participant-head" data-participant="StudentRegister"><rect fill="#E2E2F0" height="30.2969" rx="2.5" ry="2.5" style="stroke:#181818;stroke-width:0.5;" width="127.3809" x="633.0903" y="50"/><text fill="#000000" font-family="sans-serif" font-size="14" lengthAdjust="spacing" textLength="113.3809" x="640.0903" y="69.9951">StudentRegister</text></g><g class="participant participant-tail" data-participant="StudentRegister"><rect fill="#E2E2F0" height="30.2969" rx="2.5" ry="2.5" style="stroke:#181818;stroke-width:0.5;" width="127.3809" x="633.0903" y="216.8281"/><text fill="#000000" font-family="sans-serif" font-size="14" lengthAdjust="spacing" textLength="113.3809" x="640.0903" y="236.8232">StudentRegister</text></g><g class="message" data-participant-1="Admin" data-participant-2="StudentRegisterController"><polygon fill="#181818" points="386.2197,108.4297,396.2197,112.4297,386.2197,116.4297,390.2197,112.4297" style="stroke:#181818;stroke-width:1;"/><line style="stroke:#181818;stroke-width:1;" x1="30.4321" x2="392.2197" y1="112.4297" y2="112.4297"/><text fill="#000000" font-family="sans-serif" font-size="13" lengthAdjust="spacing" textLength="126.2422" x="37.4321" y="107.3638">"Selects a Student"</text></g><g class="message" data-participant-1="Admin" data-participant-2="SideBarController"><polygon fill="#181818" points="209.2485,137.5625,219.2485,141.5625,209.2485,145.5625,213.2485,141.5625" style="stroke:#181818;stroke-width:1;"/><line style="stroke:#181818;stroke-width:1;" x1="30.4321" x2="215.2485" y1="141.5625" y2="141.5625"/><text fill="#000000" font-family="sans-serif" font-size="13" lengthAdjust="spacing" textLength="166.8164" x="37.4321" y="136.4966">"Clicks "Remove" Button"</text></g><g class="message" data-participant-1="SideBarController" data-participant-2="StudentRegisterController"><polygon fill="#181818" points="386.2197,166.6953,396.2197,170.6953,386.2197,174.6953,390.2197,170.6953" style="stroke:#181818;stroke-width:1;"/><line style="stroke:#181818;stroke-width:1;" x1="221.2485" x2="392.2197" y1="170.6953" y2="170.6953"/><text fill="#000000" font-family="sans-serif" font-size="13" lengthAdjust="spacing" textLength="147.3418" x="228.2485" y="165.6294">removeFromRegister()</text></g><g class="message" data-participant-1="StudentRegisterController" data-participant-2="StudentRegister"><polygon fill="#181818" points="684.7808,195.8281,694.7808,199.8281,684.7808,203.8281,688.7808,199.8281" style="stroke:#181818;stroke-width:1;"/><line style="stroke:#181818;stroke-width:1;" x1="398.2197" x2="690.7808" y1="199.8281" y2="199.8281"/><text fill="#000000" font-family="sans-serif" font-size="13" lengthAdjust="spacing" textLength="169.9775" x="405.2197" y="194.7622">remove(Selected student)</text></g><!--SRC=[ZO_B2i8m44Nt-OeX6tNX3xWGeeqIi2tsiUakj8C4sqJIqUzNMofgAReRkEUUcPa5IkmJ4OO20WMfFEOoAXwpF1m492gC2nL7yfdbKGnfbWSooYHZkYJdGLIDiOnTj2TJceks1AcfSAFzrbdohgxHVwPqhT1IWYVJ4avHeJRsFm5ZtGcmN4-hOGKynHfBQa4F67yhVb_yB6nhKvvRu0asxeOSDbSYPpaRmpzM-qwmywuPulc2JHV6jfTZtZ-15RGziRW3]--></g></svg>