<svg xmlns="http://www.w3.org/2000/svg" xmlns:xlink="http://www.w3.org/1999/xlink" contentStyleType="text/css" data-diagram-type="SEQUENCE" height="448px" preserveAspectRatio="none" style="width:720px;height:448px;background:#FFFFFF;" version="1.1" viewBox="0 0 720 448" width="720px" zoomAndPan="magnify"><defs/><g><rect fill="none" height="164.7969" style="stroke:#000000;stroke-width:1.5;" width="704.2896" x="10" y="156.5625"/><rect fill="none" height="46.2656" style="stroke:#000000;stroke-width:1.5;" width="546.7729" x="20" y="268.0938"/><g><title>Admin</title><rect fill="#000000" fill-opacity="0.00000" height="286.1953" width="8" x="51.4321" y="81.2969"/><line style="stroke:#181818;stroke-width:0.5;stroke-dasharray:5,5;" x1="55" x2="55" y1="81.2969" y2="367.4922"/></g><g><title>.u..StudentRegisterController</title><rect fill="#000000" fill-opacity="0.00000" height="286.1953" width="8" x="215.3281" y="81.2969"/><line style="stroke:#181818;stroke-width:0.5;stroke-dasharray:5,5;" x1="218.6929" x2="218.6929" y1="81.2969" y2="367.4922"/></g><g><title>.u..StudentInsertPopupController</title><rect fill="#000000" fill-opacity="0.00000" height="286.1953" width="8" x="439.3682" y="81.2969"/><line style="stroke:#181818;stroke-width:0.5;stroke-dasharray:5,5;" x1="442.9634" x2="442.9634" y1="81.2969" y2="367.4922"/></g><g><title>.u..StudentRegister</title><rect fill="#000000" fill-opacity="0.00000" height="286.1953" width="8" x="634.2407" y="81.2969"/><line style="stroke:#181818;stroke-width:0.5;stroke-dasharray:5,5;" x1="638.1919" x2="638.1919" y1="81.2969" y2="367.4922"/></g><g class="participant participant-head" data-participant="Admin"><text fill="#000000" font-family="sans-serif" font-size="14" lengthAdjust="spacing" textLength="44.8643" x="30" y="77.9951">Admin</text><ellipse cx="55.4321" cy="13.5" fill="#E2E2F0" rx="8" ry="8" style="stroke:#181818;stroke-width:0.5;"/><path d="M55.4321,21.5 L55.4321,48.5 M42.4321,29.5 L68.4321,29.5 M55.4321,48.5 L42.4321,63.5 M55.4321,48.5 L68.4321,63.5" fill="none" style="stroke:#181818;stroke-width:0.5;"/></g><g class="participant participant-tail" data-participant="Admin"><text fill="#000000" font-family="sans-serif" font-size="14" lengthAdjust="spacing" textLength="44.8643" x="30" y="379.4873">Admin</text><ellipse cx="55.4321" cy="391.2891" fill="#E2E2F0" rx="8" ry="8" style="stroke:#181818;stroke-width:0.5;"/><path d="M55.4321,399.2891 L55.4321,426.2891 M42.4321,407.2891 L68.4321,407.2891 M55.4321,426.2891 L42.4321,441.2891 M55.4321,426.2891 L68.4321,441.2891" fill="none" style="stroke:#181818;stroke-width:0.5;"/></g><g class="participant participant-head" data-participant="StudentRegisterController"><rect fill="#E2E2F0" height="30.2969" rx="2.5" ry="2.5" style="stroke:#181818;stroke-width:0.5;" width="201.2705" x="118.6929" y="50"/><text fill="#000000" font-family="sans-serif" font-size="14" lengthAdjust="spacing" text-decoration="underline" textLength="187.2705" x="125.6929" y="69.9951">:StudentRegisterController</text></g><g class="participant participant-tail" data-participant="StudentRegisterController"><rect fill="#E2E2F0" height="30.2969" rx="2.5" ry="2.5" style="stroke:#181818;stroke-width:0.5;" width="201.2705" x="118.6929" y="366.4922"/><text fill="#000000" font-family="sans-serif" font-size="14" lengthAdjust="spacing" text-decoration="underline" textLength="187.2705" x="125.6929" y="386.4873">:StudentRegisterController</text></g><g class="participant participant-head" data-participant="StudentInsertPopupController"><rect fill="#E2E2F0" height="30.2969" rx="2.5" ry="2.5" style="stroke:#181818;stroke-width:0.5;" width="226.8096" x="329.9634" y="50"/><text fill="#000000" font-family="sans-serif" font-size="14" lengthAdjust="spacing" text-decoration="underline" textLength="212.8096" x="336.9634" y="69.9951">:StudentInsertPopupController</text></g><g class="participant participant-tail" data-participant="StudentInsertPopupController"><rect fill="#E2E2F0" height="30.2969" rx="2.5" ry="2.5" style="stroke:#181818;stroke-width:0.5;" width="226.8096" x="329.9634" y="366.4922"/><text fill="#000000" font-family="sans-serif" font-size="14" lengthAdjust="spacing" text-decoration="underline" textLength="212.8096" x="336.9634" y="386.4873">:StudentInsertPopupController</text></g><g class="participant participant-head" data-participant="StudentRegister"><rect fill="#E2E2F0" height="30.2969" rx="2.5" ry="2.5" style="stroke:#181818;stroke-width:0.5;" width="132.0977" x="572.1919" y="50"/><text fill="#000000" font-family="sans-serif" font-size="14" lengthAdjust="spacing" text-decoration="underline" textLength="118.0977" x="579.1919" y="69.9951">:StudentRegister</text></g><g class="participant participant-tail" data-participant="StudentRegister"><rect fill="#E2E2F0" height="30.2969" rx="2.5" ry="2.5" style="stroke:#181818;stroke-width:0.5;" width="132.0977" x="572.1919" y="366.4922"/><text fill="#000000" font-family="sans-serif" font-size="14" lengthAdjust="spacing" text-decoration="underline" textLength="118.0977" x="579.1919" y="386.4873">:StudentRegister</text></g><g class="message" data-participant-1="Admin" data-participant-2="StudentRegisterController"><polygon fill="#181818" points="207.3281,108.4297,217.3281,112.4297,207.3281,116.4297,211.3281,112.4297" style="stroke:#181818;stroke-width:1;"/><line style="stroke:#181818;stroke-width:1;" x1="55.4321" x2="213.3281" y1="112.4297" y2="112.4297"/><text fill="#000000" font-family="sans-serif" font-size="13" lengthAdjust="spacing" textLength="120.4087" x="62.4321" y="107.3638">openInsertPopup()</text></g><g class="message" data-participant-1="StudentRegisterController" data-participant-2="Admin"><polygon fill="#181818" points="66.4321,137.5625,56.4321,141.5625,66.4321,145.5625,62.4321,141.5625" style="stroke:#181818;stroke-width:1;"/><line style="stroke:#181818;stroke-width:1;stroke-dasharray:2,2;" x1="60.4321" x2="218.3281" y1="141.5625" y2="141.5625"/><text fill="#000000" font-family="sans-serif" font-size="13" lengthAdjust="spacing" textLength="139.896" x="72.4321" y="136.4966">"Shows Insert Popup"</text></g><path d="M10,156.5625 L86.624,156.5625 L86.624,163.6953 L76.624,173.6953 L10,173.6953 L10,156.5625" fill="#EEEEEE" style="stroke:#000000;stroke-width:1.5;"/><rect fill="none" height="164.7969" style="stroke:#000000;stroke-width:1.5;" width="704.2896" x="10" y="156.5625"/><text fill="#000000" font-family="sans-serif" font-size="13" font-weight="bold" lengthAdjust="spacing" textLength="31.624" x="25" y="169.6294">loop</text><text fill="#000000" font-family="sans-serif" font-size="11" font-weight="bold" lengthAdjust="spacing" textLength="111.4878" x="101.624" y="168.7729">[studentNotValid]</text><g class="message" data-participant-1="Admin" data-participant-2="StudentInsertPopupController"><polygon fill="#181818" points="431.3682,190.8281,441.3682,194.8281,431.3682,198.8281,435.3682,194.8281" style="stroke:#181818;stroke-width:1;"/><line style="stroke:#181818;stroke-width:1;" x1="55.4321" x2="437.3682" y1="194.8281" y2="194.8281"/><text fill="#000000" font-family="sans-serif" font-size="13" lengthAdjust="spacing" textLength="159.9038" x="62.4321" y="189.7622">confirmBtnAction(event)</text></g><g class="message" data-participant-1="StudentInsertPopupController" data-participant-2="StudentRegister"><polygon fill="#181818" points="626.2407,219.9609,636.2407,223.9609,626.2407,227.9609,630.2407,223.9609" style="stroke:#181818;stroke-width:1;"/><line style="stroke:#181818;stroke-width:1;" x1="443.3682" x2="632.2407" y1="223.9609" y2="223.9609"/><text fill="#000000" font-family="sans-serif" font-size="13" lengthAdjust="spacing" textLength="170.8726" x="450.3682" y="218.895">isUnique(insertedStudent)</text></g><g class="message" data-participant-1="StudentRegister" data-participant-2="StudentInsertPopupController"><polygon fill="#181818" points="454.3682,249.0938,444.3682,253.0938,454.3682,257.0938,450.3682,253.0938" style="stroke:#181818;stroke-width:1;"/><line style="stroke:#181818;stroke-width:1;stroke-dasharray:2,2;" x1="448.3682" x2="637.2407" y1="253.0938" y2="253.0938"/><text fill="#000000" font-family="sans-serif" font-size="13" lengthAdjust="spacing" textLength="37.064" x="460.3682" y="248.0278">result</text></g><path d="M20,268.0938 L89.4512,268.0938 L89.4512,275.2266 L79.4512,285.2266 L20,285.2266 L20,268.0938" fill="#EEEEEE" style="stroke:#000000;stroke-width:1.5;"/><rect fill="none" height="46.2656" style="stroke:#000000;stroke-width:1.5;" width="546.7729" x="20" y="268.0938"/><text fill="#000000" font-family="sans-serif" font-size="13" font-weight="bold" lengthAdjust="spacing" textLength="24.4512" x="35" y="281.1606">opt</text><text fill="#000000" font-family="sans-serif" font-size="11" font-weight="bold" lengthAdjust="spacing" textLength="111.4878" x="104.4512" y="280.3042">[studentNotValid]</text><g class="message" data-participant-1="StudentInsertPopupController" data-participant-2="Admin"><polygon fill="#181818" points="66.4321,302.3594,56.4321,306.3594,66.4321,310.3594,62.4321,306.3594" style="stroke:#181818;stroke-width:1;"/><line style="stroke:#181818;stroke-width:1;stroke-dasharray:2,2;" x1="60.4321" x2="442.3682" y1="306.3594" y2="306.3594"/><text fill="#000000" font-family="sans-serif" font-size="13" lengthAdjust="spacing" textLength="125.2202" x="72.4321" y="301.2935">"Shows Error Alert"</text></g><g class="message" data-participant-1="StudentInsertPopupController" data-participant-2="StudentRegister"><polygon fill="#181818" points="626.2407,345.4922,636.2407,349.4922,626.2407,353.4922,630.2407,349.4922" style="stroke:#181818;stroke-width:1;"/><line style="stroke:#181818;stroke-width:1;" x1="443.3682" x2="632.2407" y1="349.4922" y2="349.4922"/><text fill="#000000" font-family="sans-serif" font-size="13" lengthAdjust="spacing" textLength="139.1025" x="450.3682" y="344.4263">add(insertedStudent)</text></g><!--SRC=[bPB1IiGm54Nt-Of7DrCN_O4o35GRf33jw7JgmbreeWOwUJ5vrTytque8JHrS11BUlIVtXcpAghW_5dLTG5b1onyxtZo7FT_lDrNJycDLy-Pqk0oxvW3jgIl3cJCcUa87XJnhmvWLZdIlhJ04oNRSvIsDKXawgbVjIRaxDEHm69HBG7XOdQw2AkELemUqeuspeeAhkM9f69jAGRPRpmave5NcrwNf3LjNPu4rGtD8sZVyz31ROV8cR42qu6T_W_Ga1YqNCQ8L0x57ywBT-PPCqPD6awgFeFx94xSjsmMIzftHxwDAzUHHybjoXRNDiWZCAJyEnD3IejdVoPQFnPsx_BKmfOGf8wVr_tf2oaMpBm00]--></g></svg>