<svg xmlns="http://www.w3.org/2000/svg" xmlns:xlink="http://www.w3.org/1999/xlink" contentStyleType="text/css" data-diagram-type="SEQUENCE" height="477px" preserveAspectRatio="none" style="width:1005px;height:477px;background:#FFFFFF;" version="1.1" viewBox="0 0 1005 477" width="1005px" zoomAndPan="magnify"><defs/><g><rect fill="none" height="164.7969" style="stroke:#000000;stroke-width:1.5;" width="989.6216" x="10" y="185.6953"/><rect fill="none" height="46.2656" style="stroke:#000000;stroke-width:1.5;" width="715.647" x="20" y="297.2266"/><g><title>Admin</title><rect fill="#000000" fill-opacity="0.00000" height="315.3281" width="8" x="51.4321" y="81.2969"/><line style="stroke:#181818;stroke-width:0.5;stroke-dasharray:5,5;" x1="55" x2="55" y1="81.2969" y2="396.625"/></g><g><title>SideBarController</title><rect fill="#000000" fill-opacity="0.00000" height="315.3281" width="8" x="214.3062" y="81.2969"/><line style="stroke:#181818;stroke-width:0.5;stroke-dasharray:5,5;" x1="217.6118" x2="217.6118" y1="81.2969" y2="396.625"/></g><g><title>StudentRegisterController</title><rect fill="#000000" fill-opacity="0.00000" height="315.3281" width="8" x="391.2773" y="81.2969"/><line style="stroke:#181818;stroke-width:0.5;stroke-dasharray:5,5;" x1="395.0005" x2="395.0005" y1="81.2969" y2="396.625"/></g><g><title>StudentInsertPopupController</title><rect fill="#000000" fill-opacity="0.00000" height="315.3281" width="8" x="610.6006" y="81.2969"/><line style="stroke:#181818;stroke-width:0.5;stroke-dasharray:5,5;" x1="614.5542" x2="614.5542" y1="81.2969" y2="396.625"/></g><g><title>MainController</title><rect fill="#000000" fill-opacity="0.00000" height="315.3281" width="8" x="789.9438" y="81.2969"/><line style="stroke:#181818;stroke-width:0.5;stroke-dasharray:5,5;" x1="793.647" x2="793.647" y1="81.2969" y2="396.625"/></g><g><title>StudentRegister</title><rect fill="#000000" fill-opacity="0.00000" height="315.3281" width="8" x="921.9312" y="81.2969"/><line style="stroke:#181818;stroke-width:0.5;stroke-dasharray:5,5;" x1="925.2407" x2="925.2407" y1="81.2969" y2="396.625"/></g><g class="participant participant-head" data-participant="Admin"><text fill="#000000" font-family="sans-serif" font-size="14" lengthAdjust="spacing" textLength="44.8643" x="30" y="77.9951">Admin</text><ellipse cx="55.4321" cy="13.5" fill="#E2E2F0" rx="8" ry="8" style="stroke:#181818;stroke-width:0.5;"/><path d="M55.4321,21.5 L55.4321,48.5 M42.4321,29.5 L68.4321,29.5 M55.4321,48.5 L42.4321,63.5 M55.4321,48.5 L68.4321,63.5" fill="none" style="stroke:#181818;stroke-width:0.5;"/></g><g class="participant participant-tail" data-participant="Admin"><text fill="#000000" font-family="sans-serif" font-size="14" lengthAdjust="spacing" textLength="44.8643" x="30" y="408.6201">Admin</text><ellipse cx="55.4321" cy="420.4219" fill="#E2E2F0" rx="8" ry="8" style="stroke:#181818;stroke-width:0.5;"/><path d="M55.4321,428.4219 L55.4321,455.4219 M42.4321,436.4219 L68.4321,436.4219 M55.4321,455.4219 L42.4321,470.4219 M55.4321,455.4219 L68.4321,470.4219" fill="none" style="stroke:#181818;stroke-width:0.5;"/></g><g class="participant participant-head" data-participant="SideBarController"><rect fill="#E2E2F0" height="30.2969" rx="2.5" ry="2.5" style="stroke:#181818;stroke-width:0.5;" width="137.3887" x="149.6118" y="50"/><text fill="#000000" font-family="sans-serif" font-size="14" lengthAdjust="spacing" textLength="123.3887" x="156.6118" y="69.9951">SideBarController</text></g><g class="participant participant-tail" data-participant="SideBarController"><rect fill="#E2E2F0" height="30.2969" rx="2.5" ry="2.5" style="stroke:#181818;stroke-width:0.5;" width="137.3887" x="149.6118" y="395.625"/><text fill="#000000" font-family="sans-serif" font-size="14" lengthAdjust="spacing" textLength="123.3887" x="156.6118" y="415.6201">SideBarController</text></g><g class="participant participant-head" data-participant="StudentRegisterController"><rect fill="#E2E2F0" height="30.2969" rx="2.5" ry="2.5" style="stroke:#181818;stroke-width:0.5;" width="196.5537" x="297.0005" y="50"/><text fill="#000000" font-family="sans-serif" font-size="14" lengthAdjust="spacing" textLength="182.5537" x="304.0005" y="69.9951">StudentRegisterController</text></g><g class="participant participant-tail" data-participant="StudentRegisterController"><rect fill="#E2E2F0" height="30.2969" rx="2.5" ry="2.5" style="stroke:#181818;stroke-width:0.5;" width="196.5537" x="297.0005" y="395.625"/><text fill="#000000" font-family="sans-serif" font-size="14" lengthAdjust="spacing" textLength="182.5537" x="304.0005" y="415.6201">StudentRegisterController</text></g><g class="participant participant-head" data-participant="StudentInsertPopupController"><rect fill="#E2E2F0" height="30.2969" rx="2.5" ry="2.5" style="stroke:#181818;stroke-width:0.5;" width="222.0928" x="503.5542" y="50"/><text fill="#000000" font-family="sans-serif" font-size="14" lengthAdjust="spacing" textLength="208.0928" x="510.5542" y="69.9951">StudentInsertPopupController</text></g><g class="participant participant-tail" data-participant="StudentInsertPopupController"><rect fill="#E2E2F0" height="30.2969" rx="2.5" ry="2.5" style="stroke:#181818;stroke-width:0.5;" width="222.0928" x="503.5542" y="395.625"/><text fill="#000000" font-family="sans-serif" font-size="14" lengthAdjust="spacing" textLength="208.0928" x="510.5542" y="415.6201">StudentInsertPopupController</text></g><g class="participant participant-head" data-participant="MainController"><rect fill="#E2E2F0" height="30.2969" rx="2.5" ry="2.5" style="stroke:#181818;stroke-width:0.5;" width="116.5938" x="735.647" y="50"/><text fill="#000000" font-family="sans-serif" font-size="14" lengthAdjust="spacing" textLength="102.5938" x="742.647" y="69.9951">MainController</text></g><g class="participant participant-tail" data-participant="MainController"><rect fill="#E2E2F0" height="30.2969" rx="2.5" ry="2.5" style="stroke:#181818;stroke-width:0.5;" width="116.5938" x="735.647" y="395.625"/><text fill="#000000" font-family="sans-serif" font-size="14" lengthAdjust="spacing" textLength="102.5938" x="742.647" y="415.6201">MainController</text></g><g class="participant participant-head" data-participant="StudentRegister"><rect fill="#E2E2F0" height="30.2969" rx="2.5" ry="2.5" style="stroke:#181818;stroke-width:0.5;" width="127.3809" x="862.2407" y="50"/><text fill="#000000" font-family="sans-serif" font-size="14" lengthAdjust="spacing" textLength="113.3809" x="869.2407" y="69.9951">StudentRegister</text></g><g class="participant participant-tail" data-participant="StudentRegister"><rect fill="#E2E2F0" height="30.2969" rx="2.5" ry="2.5" style="stroke:#181818;stroke-width:0.5;" width="127.3809" x="862.2407" y="395.625"/><text fill="#000000" font-family="sans-serif" font-size="14" lengthAdjust="spacing" textLength="113.3809" x="869.2407" y="415.6201">StudentRegister</text></g><g class="message" data-participant-1="Admin" data-participant-2="SideBarController"><polygon fill="#181818" points="206.3062,108.4297,216.3062,112.4297,206.3062,116.4297,210.3062,112.4297" style="stroke:#181818;stroke-width:1;"/><line style="stroke:#181818;stroke-width:1;" x1="55.4321" x2="212.3062" y1="112.4297" y2="112.4297"/><text fill="#000000" font-family="sans-serif" font-size="13" lengthAdjust="spacing" textLength="138.874" x="62.4321" y="107.3638">"Clicks "Add" Button"</text></g><g class="message" data-participant-1="SideBarController" data-participant-2="StudentRegisterController"><polygon fill="#181818" points="383.2773,137.5625,393.2773,141.5625,383.2773,145.5625,387.2773,141.5625" style="stroke:#181818;stroke-width:1;"/><line style="stroke:#181818;stroke-width:1;" x1="218.3062" x2="389.2773" y1="141.5625" y2="141.5625"/><text fill="#000000" font-family="sans-serif" font-size="13" lengthAdjust="spacing" textLength="120.4087" x="225.3062" y="136.4966">openInsertPopup()</text></g><g class="message" data-participant-1="StudentRegisterController" data-participant-2="Admin"><polygon fill="#181818" points="66.4321,166.6953,56.4321,170.6953,66.4321,174.6953,62.4321,170.6953" style="stroke:#181818;stroke-width:1;"/><line style="stroke:#181818;stroke-width:1;stroke-dasharray:2,2;" x1="60.4321" x2="394.2773" y1="170.6953" y2="170.6953"/><text fill="#000000" font-family="sans-serif" font-size="13" lengthAdjust="spacing" textLength="139.896" x="72.4321" y="165.6294">"Shows Insert Popup"</text></g><path d="M10,185.6953 L86.624,185.6953 L86.624,192.8281 L76.624,202.8281 L10,202.8281 L10,185.6953" fill="#EEEEEE" style="stroke:#000000;stroke-width:1.5;"/><rect fill="none" height="164.7969" style="stroke:#000000;stroke-width:1.5;" width="989.6216" x="10" y="185.6953"/><text fill="#000000" font-family="sans-serif" font-size="13" font-weight="bold" lengthAdjust="spacing" textLength="31.624" x="25" y="198.7622">loop</text><text fill="#000000" font-family="sans-serif" font-size="11" font-weight="bold" lengthAdjust="spacing" textLength="111.4878" x="101.624" y="197.9058">[studentNotValid]</text><g class="message" data-participant-1="Admin" data-participant-2="StudentInsertPopupController"><polygon fill="#181818" points="602.6006,219.9609,612.6006,223.9609,602.6006,227.9609,606.6006,223.9609" style="stroke:#181818;stroke-width:1;"/><line style="stroke:#181818;stroke-width:1;" x1="55.4321" x2="608.6006" y1="223.9609" y2="223.9609"/><text fill="#000000" font-family="sans-serif" font-size="13" lengthAdjust="spacing" textLength="91.1904" x="62.4321" y="218.895">"Inserts Data"</text></g><g class="message" data-participant-1="StudentInsertPopupController" data-participant-2="StudentRegister"><polygon fill="#181818" points="913.9312,249.0938,923.9312,253.0938,913.9312,257.0938,917.9312,253.0938" style="stroke:#181818;stroke-width:1;"/><line style="stroke:#181818;stroke-width:1;" x1="614.6006" x2="919.9312" y1="253.0938" y2="253.0938"/><text fill="#000000" font-family="sans-serif" font-size="13" lengthAdjust="spacing" textLength="161.4844" x="621.6006" y="248.0278">isValid(Student inserted)</text></g><g class="message" data-participant-1="StudentRegister" data-participant-2="StudentInsertPopupController"><polygon fill="#181818" points="625.6006,278.2266,615.6006,282.2266,625.6006,286.2266,621.6006,282.2266" style="stroke:#181818;stroke-width:1;"/><line style="stroke:#181818;stroke-width:1;stroke-dasharray:2,2;" x1="619.6006" x2="924.9312" y1="282.2266" y2="282.2266"/><text fill="#000000" font-family="sans-serif" font-size="13" lengthAdjust="spacing" textLength="37.064" x="631.6006" y="277.1606">result</text></g><path d="M20,297.2266 L89.4512,297.2266 L89.4512,304.3594 L79.4512,314.3594 L20,314.3594 L20,297.2266" fill="#EEEEEE" style="stroke:#000000;stroke-width:1.5;"/><rect fill="none" height="46.2656" style="stroke:#000000;stroke-width:1.5;" width="715.647" x="20" y="297.2266"/><text fill="#000000" font-family="sans-serif" font-size="13" font-weight="bold" lengthAdjust="spacing" textLength="24.4512" x="35" y="310.2935">opt</text><text fill="#000000" font-family="sans-serif" font-size="11" font-weight="bold" lengthAdjust="spacing" textLength="111.4878" x="104.4512" y="309.437">[studentNotValid]</text><g class="message" data-participant-1="StudentInsertPopupController" data-participant-2="Admin"><polygon fill="#181818" points="66.4321,331.4922,56.4321,335.4922,66.4321,339.4922,62.4321,335.4922" style="stroke:#181818;stroke-width:1;"/><line style="stroke:#181818;stroke-width:1;stroke-dasharray:2,2;" x1="60.4321" x2="613.6006" y1="335.4922" y2="335.4922"/><text fill="#000000" font-family="sans-serif" font-size="13" lengthAdjust="spacing" textLength="205.061" x="72.4321" y="330.4263">"Data not correct, please retry"</text></g><g class="message" data-participant-1="StudentInsertPopupController" data-participant-2="StudentRegister"><polygon fill="#181818" points="913.9312,374.625,923.9312,378.625,913.9312,382.625,917.9312,378.625" style="stroke:#181818;stroke-width:1;"/><line style="stroke:#181818;stroke-width:1;" x1="614.6006" x2="919.9312" y1="378.625" y2="378.625"/><text fill="#000000" font-family="sans-serif" font-size="13" lengthAdjust="spacing" textLength="143.2349" x="621.6006" y="373.5591">add(Student inserted)</text></g><!--SRC=[bL1DIyGm4BtdLmovx2xOFo0YTBT52jkkjhiUl8Lcq61CGZ95_FUchOULRgjx24nu7_FUhB8YVQZJiamXAw39dqvvzHBdVBzV5LMJrqMPLyT33vwg0pJ7KnR_EMEY9UiXbH_ACEQ49zKg9mn1eoHkXTzPGzvgZVutIfr4GpM-ga3u1wim0JqzMjUv6M8fbFdV9iQ6h93SJnF2BV2TLkrx09vAoM7R4Ld3sPJPo-SgH1lhq9obNc_OF3k9NcEckBvvivy1HYaCMiwqjGx2gAyiFGkjv5cBXHlrZYCG81CaE5jaJqj50nM6XUiV1DGWHRbPzhfBaWjc7aEdYLb7aqBBoSvlr3S1OmbQwpssT0DEemWOtSb_SOP63k_wha9UwFaD]--></g></svg>