<svg xmlns="http://www.w3.org/2000/svg" xmlns:xlink="http://www.w3.org/1999/xlink" contentStyleType="text/css" data-diagram-type="SEQUENCE" height="298px" preserveAspectRatio="none" style="width:730px;height:298px;background:#FFFFFF;" version="1.1" viewBox="0 0 730 298" width="730px" zoomAndPan="magnify"><defs/><g><g><title>Admin</title><rect fill="#000000" fill-opacity="0.00000" height="136.5313" width="8" x="26.4321" y="81.2969"/><line style="stroke:#181818;stroke-width:0.5;stroke-dasharray:5,5;" x1="30" x2="30" y1="81.2969" y2="217.8281"/></g><g><title>SideBarController</title><rect fill="#000000" fill-opacity="0.00000" height="136.5313" width="8" x="217.2485" y="81.2969"/><line style="stroke:#181818;stroke-width:0.5;stroke-dasharray:5,5;" x1="220.5542" x2="220.5542" y1="81.2969" y2="217.8281"/></g><g><title>BookRegisterController</title><rect fill="#000000" fill-opacity="0.00000" height="136.5313" width="8" x="388.5903" y="81.2969"/><line style="stroke:#181818;stroke-width:0.5;stroke-dasharray:5,5;" x1="392.4478" x2="392.4478" y1="81.2969" y2="217.8281"/></g><g><title>MainController</title><rect fill="#000000" fill-opacity="0.00000" height="136.5313" width="8" x="545.0298" y="81.2969"/><line style="stroke:#181818;stroke-width:0.5;stroke-dasharray:5,5;" x1="548.7329" x2="548.7329" y1="81.2969" y2="217.8281"/></g><g><title>BookRegister</title><rect fill="#000000" fill-opacity="0.00000" height="136.5313" width="8" x="666.8828" y="81.2969"/><line style="stroke:#181818;stroke-width:0.5;stroke-dasharray:5,5;" x1="670.3267" x2="670.3267" y1="81.2969" y2="217.8281"/></g><g class="participant participant-head" data-participant="Admin"><text fill="#000000" font-family="sans-serif" font-size="14" lengthAdjust="spacing" textLength="44.8643" x="5" y="77.9951">Admin</text><ellipse cx="30.4321" cy="13.5" fill="#E2E2F0" rx="8" ry="8" style="stroke:#181818;stroke-width:0.5;"/><path d="M30.4321,21.5 L30.4321,48.5 M17.4321,29.5 L43.4321,29.5 M30.4321,48.5 L17.4321,63.5 M30.4321,48.5 L43.4321,63.5" fill="none" style="stroke:#181818;stroke-width:0.5;"/></g><g class="participant participant-tail" data-participant="Admin"><text fill="#000000" font-family="sans-serif" font-size="14" lengthAdjust="spacing" textLength="44.8643" x="5" y="229.8232">Admin</text><ellipse cx="30.4321" cy="241.625" fill="#E2E2F0" rx="8" ry="8" style="stroke:#181818;stroke-width:0.5;"/><path d="M30.4321,249.625 L30.4321,276.625 M17.4321,257.625 L43.4321,257.625 M30.4321,276.625 L17.4321,291.625 M30.4321,276.625 L43.4321,291.625" fill="none" style="stroke:#181818;stroke-width:0.5;"/></g><g class="participant participant-head" data-participant="SideBarController"><rect fill="#E2E2F0" height="30.2969" rx="2.5" ry="2.5" style="stroke:#181818;stroke-width:0.5;" width="137.3887" x="152.5542" y="50"/><text fill="#000000" font-family="sans-serif" font-size="14" lengthAdjust="spacing" textLength="123.3887" x="159.5542" y="69.9951">SideBarController</text></g><g class="participant participant-tail" data-participant="SideBarController"><rect fill="#E2E2F0" height="30.2969" rx="2.5" ry="2.5" style="stroke:#181818;stroke-width:0.5;" width="137.3887" x="152.5542" y="216.8281"/><text fill="#000000" font-family="sans-serif" font-size="14" lengthAdjust="spacing" textLength="123.3887" x="159.5542" y="236.8232">SideBarController</text></g><g class="participant participant-head" data-participant="BookRegisterController"><rect fill="#E2E2F0" height="30.2969" rx="2.5" ry="2.5" style="stroke:#181818;stroke-width:0.5;" width="176.2852" x="304.4478" y="50"/><text fill="#000000" font-family="sans-serif" font-size="14" lengthAdjust="spacing" textLength="162.2852" x="311.4478" y="69.9951">BookRegisterController</text></g><g class="participant participant-tail" data-participant="BookRegisterController"><rect fill="#E2E2F0" height="30.2969" rx="2.5" ry="2.5" style="stroke:#181818;stroke-width:0.5;" width="176.2852" x="304.4478" y="216.8281"/><text fill="#000000" font-family="sans-serif" font-size="14" lengthAdjust="spacing" textLength="162.2852" x="311.4478" y="236.8232">BookRegisterController</text></g><g class="participant participant-head" data-participant="MainController"><rect fill="#E2E2F0" height="30.2969" rx="2.5" ry="2.5" style="stroke:#181818;stroke-width:0.5;" width="116.5938" x="490.7329" y="50"/><text fill="#000000" font-family="sans-serif" font-size="14" lengthAdjust="spacing" textLength="102.5938" x="497.7329" y="69.9951">MainController</text></g><g class="participant participant-tail" data-participant="MainController"><rect fill="#E2E2F0" height="30.2969" rx="2.5" ry="2.5" style="stroke:#181818;stroke-width:0.5;" width="116.5938" x="490.7329" y="216.8281"/><text fill="#000000" font-family="sans-serif" font-size="14" lengthAdjust="spacing" textLength="102.5938" x="497.7329" y="236.8232">MainController</text></g><g class="participant participant-head" data-participant="BookRegister"><rect fill="#E2E2F0" height="30.2969" rx="2.5" ry="2.5" style="stroke:#181818;stroke-width:0.5;" width="107.1123" x="617.3267" y="50"/><text fill="#000000" font-family="sans-serif" font-size="14" lengthAdjust="spacing" textLength="93.1123" x="624.3267" y="69.9951">BookRegister</text></g><g class="participant participant-tail" data-participant="BookRegister"><rect fill="#E2E2F0" height="30.2969" rx="2.5" ry="2.5" style="stroke:#181818;stroke-width:0.5;" width="107.1123" x="617.3267" y="216.8281"/><text fill="#000000" font-family="sans-serif" font-size="14" lengthAdjust="spacing" textLength="93.1123" x="624.3267" y="236.8232">BookRegister</text></g><g class="message" data-participant-1="Admin" data-participant-2="BookRegisterController"><polygon fill="#181818" points="380.5903,108.4297,390.5903,112.4297,380.5903,116.4297,384.5903,112.4297" style="stroke:#181818;stroke-width:1;"/><line style="stroke:#181818;stroke-width:1;" x1="30.4321" x2="386.5903" y1="112.4297" y2="112.4297"/><text fill="#000000" font-family="sans-serif" font-size="13" lengthAdjust="spacing" textLength="107.4214" x="37.4321" y="107.3638">"Selects a Book"</text></g><g class="message" data-participant-1="Admin" data-participant-2="SideBarController"><polygon fill="#181818" points="209.2485,137.5625,219.2485,141.5625,209.2485,145.5625,213.2485,141.5625" style="stroke:#181818;stroke-width:1;"/><line style="stroke:#181818;stroke-width:1;" x1="30.4321" x2="215.2485" y1="141.5625" y2="141.5625"/><text fill="#000000" font-family="sans-serif" font-size="13" lengthAdjust="spacing" textLength="166.8164" x="37.4321" y="136.4966">"Clicks "Remove" Button"</text></g><g class="message" data-participant-1="SideBarController" data-participant-2="BookRegisterController"><polygon fill="#181818" points="380.5903,166.6953,390.5903,170.6953,380.5903,174.6953,384.5903,170.6953" style="stroke:#181818;stroke-width:1;"/><line style="stroke:#181818;stroke-width:1;" x1="221.2485" x2="386.5903" y1="170.6953" y2="170.6953"/><text fill="#000000" font-family="sans-serif" font-size="13" lengthAdjust="spacing" textLength="147.3418" x="228.2485" y="165.6294">removeFromRegister()</text></g><g class="message" data-participant-1="BookRegisterController" data-participant-2="BookRegister"><polygon fill="#181818" points="658.8828,195.8281,668.8828,199.8281,658.8828,203.8281,662.8828,199.8281" style="stroke:#181818;stroke-width:1;"/><line style="stroke:#181818;stroke-width:1;" x1="392.5903" x2="664.8828" y1="199.8281" y2="199.8281"/><text fill="#000000" font-family="sans-serif" font-size="13" lengthAdjust="spacing" textLength="152.6357" x="399.5903" y="194.7622">remove(Selected Book)</text></g><!--SRC=[ZP3B2i8m44NtynL3Djg5Fz25a6gLG1-OugQxq0uIsYObZNw_jgAYKd4tSCzzC0j9dRrGP6qJ0i1YA_XUyZJbk1LOn8TZd9MtEquIZbAaUIdoB1wrOuQ9Y6GEe2fl7VAwqmQWLyxhIlVAU2nqJP5o6skyisrBxaqTAoMTzE1f3acLDd-u0QPoNArdGZ54Lb1BbHzGJGnxMRvMZlIcrLKp8Bj_Xs5qzjuQ1j_mhr8tkNVETWzv6S0C_P7pT2_lmwcUvE0A]--></g></svg>