<svg xmlns="http://www.w3.org/2000/svg" xmlns:xlink="http://www.w3.org/1999/xlink" contentStyleType="text/css" data-diagram-type="SEQUENCE" height="506px" preserveAspectRatio="none" style="width:966px;height:506px;background:#FFFFFF;" version="1.1" viewBox="0 0 966 506" width="966px" zoomAndPan="magnify"><defs/><g><rect fill="none" height="164.7969" style="stroke:#000000;stroke-width:1.5;" width="950.127" x="10" y="214.8281"/><rect fill="none" height="46.2656" style="stroke:#000000;stroke-width:1.5;" width="697.4463" x="20" y="326.3594"/><g><title>Admin</title><rect fill="#000000" fill-opacity="0.00000" height="344.4609" width="8" x="51.4321" y="81.2969"/><line style="stroke:#181818;stroke-width:0.5;stroke-dasharray:5,5;" x1="55" x2="55" y1="81.2969" y2="425.7578"/></g><g><title>SideBarController</title><rect fill="#000000" fill-opacity="0.00000" height="344.4609" width="8" x="232.2129" y="81.2969"/><line style="stroke:#181818;stroke-width:0.5;stroke-dasharray:5,5;" x1="235.5186" x2="235.5186" y1="81.2969" y2="425.7578"/></g><g><title>LoanRegisterController</title><rect fill="#000000" fill-opacity="0.00000" height="344.4609" width="8" x="398.5371" y="81.2969"/><line style="stroke:#181818;stroke-width:0.5;stroke-dasharray:5,5;" x1="401.9072" x2="401.9072" y1="81.2969" y2="425.7578"/></g><g><title>LoanModifyPopupController</title><rect fill="#000000" fill-opacity="0.00000" height="344.4609" width="8" x="599.8066" y="81.2969"/><line style="stroke:#181818;stroke-width:0.5;stroke-dasharray:5,5;" x1="603.167" x2="603.167" y1="81.2969" y2="425.7578"/></g><g><title>MainController</title><rect fill="#000000" fill-opacity="0.00000" height="344.4609" width="8" x="771.7432" y="81.2969"/><line style="stroke:#181818;stroke-width:0.5;stroke-dasharray:5,5;" x1="775.4463" x2="775.4463" y1="81.2969" y2="425.7578"/></g><g><title>LoanRegister</title><rect fill="#000000" fill-opacity="0.00000" height="344.4609" width="8" x="893.0835" y="81.2969"/><line style="stroke:#181818;stroke-width:0.5;stroke-dasharray:5,5;" x1="897.04" x2="897.04" y1="81.2969" y2="425.7578"/></g><g class="participant participant-head" data-participant="Admin"><text fill="#000000" font-family="sans-serif" font-size="14" lengthAdjust="spacing" textLength="44.8643" x="30" y="77.9951">Admin</text><ellipse cx="55.4321" cy="13.5" fill="#E2E2F0" rx="8" ry="8" style="stroke:#181818;stroke-width:0.5;"/><path d="M55.4321,21.5 L55.4321,48.5 M42.4321,29.5 L68.4321,29.5 M55.4321,48.5 L42.4321,63.5 M55.4321,48.5 L68.4321,63.5" fill="none" style="stroke:#181818;stroke-width:0.5;"/></g><g class="participant participant-tail" data-participant="Admin"><text fill="#000000" font-family="sans-serif" font-size="14" lengthAdjust="spacing" textLength="44.8643" x="30" y="437.7529">Admin</text><ellipse cx="55.4321" cy="449.5547" fill="#E2E2F0" rx="8" ry="8" style="stroke:#181818;stroke-width:0.5;"/><path d="M55.4321,457.5547 L55.4321,484.5547 M42.4321,465.5547 L68.4321,465.5547 M55.4321,484.5547 L42.4321,499.5547 M55.4321,484.5547 L68.4321,499.5547" fill="none" style="stroke:#181818;stroke-width:0.5;"/></g><g class="participant participant-head" data-participant="SideBarController"><rect fill="#E2E2F0" height="30.2969" rx="2.5" ry="2.5" style="stroke:#181818;stroke-width:0.5;" width="137.3887" x="167.5186" y="50"/><text fill="#000000" font-family="sans-serif" font-size="14" lengthAdjust="spacing" textLength="123.3887" x="174.5186" y="69.9951">SideBarController</text></g><g class="participant participant-tail" data-participant="SideBarController"><rect fill="#E2E2F0" height="30.2969" rx="2.5" ry="2.5" style="stroke:#181818;stroke-width:0.5;" width="137.3887" x="167.5186" y="424.7578"/><text fill="#000000" font-family="sans-serif" font-size="14" lengthAdjust="spacing" textLength="123.3887" x="174.5186" y="444.7529">SideBarController</text></g><g class="participant participant-head" data-participant="LoanRegisterController"><rect fill="#E2E2F0" height="30.2969" rx="2.5" ry="2.5" style="stroke:#181818;stroke-width:0.5;" width="175.2598" x="314.9072" y="50"/><text fill="#000000" font-family="sans-serif" font-size="14" lengthAdjust="spacing" textLength="161.2598" x="321.9072" y="69.9951">LoanRegisterController</text></g><g class="participant participant-tail" data-participant="LoanRegisterController"><rect fill="#E2E2F0" height="30.2969" rx="2.5" ry="2.5" style="stroke:#181818;stroke-width:0.5;" width="175.2598" x="314.9072" y="424.7578"/><text fill="#000000" font-family="sans-serif" font-size="14" lengthAdjust="spacing" textLength="161.2598" x="321.9072" y="444.7529">LoanRegisterController</text></g><g class="participant participant-head" data-participant="LoanModifyPopupController"><rect fill="#E2E2F0" height="30.2969" rx="2.5" ry="2.5" style="stroke:#181818;stroke-width:0.5;" width="207.2793" x="500.167" y="50"/><text fill="#000000" font-family="sans-serif" font-size="14" lengthAdjust="spacing" textLength="193.2793" x="507.167" y="69.9951">LoanModifyPopupController</text></g><g class="participant participant-tail" data-participant="LoanModifyPopupController"><rect fill="#E2E2F0" height="30.2969" rx="2.5" ry="2.5" style="stroke:#181818;stroke-width:0.5;" width="207.2793" x="500.167" y="424.7578"/><text fill="#000000" font-family="sans-serif" font-size="14" lengthAdjust="spacing" textLength="193.2793" x="507.167" y="444.7529">LoanModifyPopupController</text></g><g class="participant participant-head" data-participant="MainController"><rect fill="#E2E2F0" height="30.2969" rx="2.5" ry="2.5" style="stroke:#181818;stroke-width:0.5;" width="116.5938" x="717.4463" y="50"/><text fill="#000000" font-family="sans-serif" font-size="14" lengthAdjust="spacing" textLength="102.5938" x="724.4463" y="69.9951">MainController</text></g><g class="participant participant-tail" data-participant="MainController"><rect fill="#E2E2F0" height="30.2969" rx="2.5" ry="2.5" style="stroke:#181818;stroke-width:0.5;" width="116.5938" x="717.4463" y="424.7578"/><text fill="#000000" font-family="sans-serif" font-size="14" lengthAdjust="spacing" textLength="102.5938" x="724.4463" y="444.7529">MainController</text></g><g class="participant participant-head" data-participant="LoanRegister"><rect fill="#E2E2F0" height="30.2969" rx="2.5" ry="2.5" style="stroke:#181818;stroke-width:0.5;" width="106.0869" x="844.04" y="50"/><text fill="#000000" font-family="sans-serif" font-size="14" lengthAdjust="spacing" textLength="92.0869" x="851.04" y="69.9951">LoanRegister</text></g><g class="participant participant-tail" data-participant="LoanRegister"><rect fill="#E2E2F0" height="30.2969" rx="2.5" ry="2.5" style="stroke:#181818;stroke-width:0.5;" width="106.0869" x="844.04" y="424.7578"/><text fill="#000000" font-family="sans-serif" font-size="14" lengthAdjust="spacing" textLength="92.0869" x="851.04" y="444.7529">LoanRegister</text></g><g class="message" data-participant-1="Admin" data-participant-2="LoanRegisterController"><polygon fill="#181818" points="390.5371,108.4297,400.5371,112.4297,390.5371,116.4297,394.5371,112.4297" style="stroke:#181818;stroke-width:1;"/><line style="stroke:#181818;stroke-width:1;" x1="55.4321" x2="396.5371" y1="112.4297" y2="112.4297"/><text fill="#000000" font-family="sans-serif" font-size="13" lengthAdjust="spacing" textLength="106.4692" x="62.4321" y="107.3638">"Selects a Loan"</text></g><g class="message" data-participant-1="Admin" data-participant-2="SideBarController"><polygon fill="#181818" points="224.2129,137.5625,234.2129,141.5625,224.2129,145.5625,228.2129,141.5625" style="stroke:#181818;stroke-width:1;"/><line style="stroke:#181818;stroke-width:1;" x1="55.4321" x2="230.2129" y1="141.5625" y2="141.5625"/><text fill="#000000" font-family="sans-serif" font-size="13" lengthAdjust="spacing" textLength="156.7808" x="62.4321" y="136.4966">"Clicks "Modify" Button"</text></g><g class="message" data-participant-1="SideBarController" data-participant-2="LoanRegisterController"><polygon fill="#181818" points="390.5371,166.6953,400.5371,170.6953,390.5371,174.6953,394.5371,170.6953" style="stroke:#181818;stroke-width:1;"/><line style="stroke:#181818;stroke-width:1;" x1="236.2129" x2="396.5371" y1="170.6953" y2="170.6953"/><text fill="#000000" font-family="sans-serif" font-size="13" lengthAdjust="spacing" textLength="126.4263" x="243.2129" y="165.6294">openModifyPopup()</text></g><g class="message" data-participant-1="LoanRegisterController" data-participant-2="Admin"><polygon fill="#181818" points="66.4321,195.8281,56.4321,199.8281,66.4321,203.8281,62.4321,199.8281" style="stroke:#181818;stroke-width:1;"/><line style="stroke:#181818;stroke-width:1;stroke-dasharray:2,2;" x1="60.4321" x2="401.5371" y1="199.8281" y2="199.8281"/><text fill="#000000" font-family="sans-serif" font-size="13" lengthAdjust="spacing" textLength="145.9136" x="72.4321" y="194.7622">"Shows Modify Popup"</text></g><path d="M10,214.8281 L86.624,214.8281 L86.624,221.9609 L76.624,231.9609 L10,231.9609 L10,214.8281" fill="#EEEEEE" style="stroke:#000000;stroke-width:1.5;"/><rect fill="none" height="164.7969" style="stroke:#000000;stroke-width:1.5;" width="950.127" x="10" y="214.8281"/><text fill="#000000" font-family="sans-serif" font-size="13" font-weight="bold" lengthAdjust="spacing" textLength="31.624" x="25" y="227.895">loop</text><text fill="#000000" font-family="sans-serif" font-size="11" font-weight="bold" lengthAdjust="spacing" textLength="90.0088" x="101.624" y="227.0386">[loanNotValid]</text><g class="message" data-participant-1="Admin" data-participant-2="LoanModifyPopupController"><polygon fill="#181818" points="591.8066,249.0938,601.8066,253.0938,591.8066,257.0938,595.8066,253.0938" style="stroke:#181818;stroke-width:1;"/><line style="stroke:#181818;stroke-width:1;" x1="55.4321" x2="597.8066" y1="253.0938" y2="253.0938"/><text fill="#000000" font-family="sans-serif" font-size="13" lengthAdjust="spacing" textLength="122.1924" x="62.4321" y="248.0278">"Inserts new Data"</text></g><g class="message" data-participant-1="LoanModifyPopupController" data-participant-2="LoanRegister"><polygon fill="#181818" points="885.0835,278.2266,895.0835,282.2266,885.0835,286.2266,889.0835,282.2266" style="stroke:#181818;stroke-width:1;"/><line style="stroke:#181818;stroke-width:1;" x1="603.8066" x2="891.0835" y1="282.2266" y2="282.2266"/><text fill="#000000" font-family="sans-serif" font-size="13" lengthAdjust="spacing" textLength="115.2671" x="610.8066" y="277.1606">isValid(new Loan)</text></g><g class="message" data-participant-1="LoanRegister" data-participant-2="LoanModifyPopupController"><polygon fill="#181818" points="614.8066,307.3594,604.8066,311.3594,614.8066,315.3594,610.8066,311.3594" style="stroke:#181818;stroke-width:1;"/><line style="stroke:#181818;stroke-width:1;stroke-dasharray:2,2;" x1="608.8066" x2="896.0835" y1="311.3594" y2="311.3594"/><text fill="#000000" font-family="sans-serif" font-size="13" lengthAdjust="spacing" textLength="37.064" x="620.8066" y="306.2935">result</text></g><path d="M20,326.3594 L89.4512,326.3594 L89.4512,333.4922 L79.4512,343.4922 L20,343.4922 L20,326.3594" fill="#EEEEEE" style="stroke:#000000;stroke-width:1.5;"/><rect fill="none" height="46.2656" style="stroke:#000000;stroke-width:1.5;" width="697.4463" x="20" y="326.3594"/><text fill="#000000" font-family="sans-serif" font-size="13" font-weight="bold" lengthAdjust="spacing" textLength="24.4512" x="35" y="339.4263">opt</text><text fill="#000000" font-family="sans-serif" font-size="11" font-weight="bold" lengthAdjust="spacing" textLength="90.0088" x="104.4512" y="338.5698">[loanNotValid]</text><g class="message" data-participant-1="LoanModifyPopupController" data-participant-2="Admin"><polygon fill="#181818" points="66.4321,360.625,56.4321,364.625,66.4321,368.625,62.4321,364.625" style="stroke:#181818;stroke-width:1;"/><line style="stroke:#181818;stroke-width:1;stroke-dasharray:2,2;" x1="60.4321" x2="602.8066" y1="364.625" y2="364.625"/><text fill="#000000" font-family="sans-serif" font-size="13" lengthAdjust="spacing" textLength="205.061" x="72.4321" y="359.5591">"Data not correct, please retry"</text></g><g class="message" data-participant-1="LoanModifyPopupController" data-participant-2="LoanRegister"><polygon fill="#181818" points="885.0835,403.7578,895.0835,407.7578,885.0835,411.7578,889.0835,407.7578" style="stroke:#181818;stroke-width:1;"/><line style="stroke:#181818;stroke-width:1;" x1="603.8066" x2="891.0835" y1="407.7578" y2="407.7578"/><text fill="#000000" font-family="sans-serif" font-size="13" lengthAdjust="spacing" textLength="215.9727" x="610.8066" y="402.6919">modify(Loan selected, new Loan)</text></g><!--SRC=[bPBHIiCm58RlynI7tBZ1-W8YGhTEARITRimBxq9xr62M4vACiRStoK3NpHQz28IS_pld_vFS56N-kCxhEeUYXCtoURjiNiD-MLKvrAkYV2WNgRHjLb2jyeOnqNgoa7SxgHapmdhPIYEqXutiS2xiWhItf1JQNhKYeTVuBft7CKbDdNmxFf7Pcm5LBQJ-mmp6aaN8xWT6motm3IfilGEHDFm7kSeIrGibsqy7_EIHmtplFGNgMZmsb0oUfvnCsO0q2rrEXgBJ3peuE76GGCuKaG4Lu8RyYr2owqV-zIfZhr8xj26rnWCKmWlEXkKNIG8kNPerYNGiJKVekooxn2swlVACZEzR7x5mVW_HBsZoq9AruUrcO1GAXw6ljqVEK7Tf_IVHBkacyHHS-X7OpU0xtnS0]--></g></svg>