<svg xmlns="http://www.w3.org/2000/svg" xmlns:xlink="http://www.w3.org/1999/xlink" contentStyleType="text/css" data-diagram-type="SEQUENCE" height="419px" preserveAspectRatio="none" style="width:795px;height:419px;background:#FFFFFF;" version="1.1" viewBox="0 0 795 419" width="795px" zoomAndPan="magnify"><defs/><g><rect fill="none" height="106.5313" style="stroke:#000000;stroke-width:1.5;" width="579.271" x="10" y="185.6953"/><rect fill="none" height="46.2656" style="stroke:#000000;stroke-width:1.5;" width="559.271" x="20" y="238.9609"/><g><title>Admin</title><rect fill="#000000" fill-opacity="0.00000" height="257.0625" width="8" x="51.4321" y="81.2969"/><line style="stroke:#181818;stroke-width:0.5;stroke-dasharray:5,5;" x1="55" x2="55" y1="81.2969" y2="338.3594"/></g><g><title>.u..StudentRegisterController</title><rect fill="#000000" fill-opacity="0.00000" height="257.0625" width="8" x="221.3457" y="81.2969"/><line style="stroke:#181818;stroke-width:0.5;stroke-dasharray:5,5;" x1="224.7104" x2="224.7104" y1="81.2969" y2="338.3594"/></g><g><title>.u..StudentModifyPopupController</title><rect fill="#000000" fill-opacity="0.00000" height="257.0625" width="8" x="448.626" y="81.2969"/><line style="stroke:#181818;stroke-width:0.5;stroke-dasharray:5,5;" x1="451.981" x2="451.981" y1="81.2969" y2="338.3594"/></g><g><title>.u..StudentRegister</title><rect fill="#000000" fill-opacity="0.00000" height="257.0625" width="8" x="719.8799" y="81.2969"/><line style="stroke:#181818;stroke-width:0.5;stroke-dasharray:5,5;" x1="723.8311" x2="723.8311" y1="81.2969" y2="338.3594"/></g><g class="participant participant-head" data-participant="Admin"><text fill="#000000" font-family="sans-serif" font-size="14" lengthAdjust="spacing" textLength="44.8643" x="30" y="77.9951">Admin</text><ellipse cx="55.4321" cy="13.5" fill="#E2E2F0" rx="8" ry="8" style="stroke:#181818;stroke-width:0.5;"/><path d="M55.4321,21.5 L55.4321,48.5 M42.4321,29.5 L68.4321,29.5 M55.4321,48.5 L42.4321,63.5 M55.4321,48.5 L68.4321,63.5" fill="none" style="stroke:#181818;stroke-width:0.5;"/></g><g class="participant participant-tail" data-participant="Admin"><text fill="#000000" font-family="sans-serif" font-size="14" lengthAdjust="spacing" textLength="44.8643" x="30" y="350.3545">Admin</text><ellipse cx="55.4321" cy="362.1563" fill="#E2E2F0" rx="8" ry="8" style="stroke:#181818;stroke-width:0.5;"/><path d="M55.4321,370.1563 L55.4321,397.1563 M42.4321,378.1563 L68.4321,378.1563 M55.4321,397.1563 L42.4321,412.1563 M55.4321,397.1563 L68.4321,412.1563" fill="none" style="stroke:#181818;stroke-width:0.5;"/></g><g class="participant participant-head" data-participant="StudentRegisterController"><rect fill="#E2E2F0" height="30.2969" rx="2.5" ry="2.5" style="stroke:#181818;stroke-width:0.5;" width="201.2705" x="124.7104" y="50"/><text fill="#000000" font-family="sans-serif" font-size="14" lengthAdjust="spacing" text-decoration="underline" textLength="187.2705" x="131.7104" y="69.9951">:StudentRegisterController</text></g><g class="participant participant-tail" data-participant="StudentRegisterController"><rect fill="#E2E2F0" height="30.2969" rx="2.5" ry="2.5" style="stroke:#181818;stroke-width:0.5;" width="201.2705" x="124.7104" y="337.3594"/><text fill="#000000" font-family="sans-serif" font-size="14" lengthAdjust="spacing" text-decoration="underline" textLength="187.2705" x="131.7104" y="357.3545">:StudentRegisterController</text></g><g class="participant participant-head" data-participant="StudentModifyPopupController"><rect fill="#E2E2F0" height="30.2969" rx="2.5" ry="2.5" style="stroke:#181818;stroke-width:0.5;" width="233.29" x="335.981" y="50"/><text fill="#000000" font-family="sans-serif" font-size="14" lengthAdjust="spacing" text-decoration="underline" textLength="219.29" x="342.981" y="69.9951">:StudentModifyPopupController</text></g><g class="participant participant-tail" data-participant="StudentModifyPopupController"><rect fill="#E2E2F0" height="30.2969" rx="2.5" ry="2.5" style="stroke:#181818;stroke-width:0.5;" width="233.29" x="335.981" y="337.3594"/><text fill="#000000" font-family="sans-serif" font-size="14" lengthAdjust="spacing" text-decoration="underline" textLength="219.29" x="342.981" y="357.3545">:StudentModifyPopupController</text></g><g class="participant participant-head" data-participant="StudentRegister"><rect fill="#E2E2F0" height="30.2969" rx="2.5" ry="2.5" style="stroke:#181818;stroke-width:0.5;" width="132.0977" x="657.8311" y="50"/><text fill="#000000" font-family="sans-serif" font-size="14" lengthAdjust="spacing" text-decoration="underline" textLength="118.0977" x="664.8311" y="69.9951">:StudentRegister</text></g><g class="participant participant-tail" data-participant="StudentRegister"><rect fill="#E2E2F0" height="30.2969" rx="2.5" ry="2.5" style="stroke:#181818;stroke-width:0.5;" width="132.0977" x="657.8311" y="337.3594"/><text fill="#000000" font-family="sans-serif" font-size="14" lengthAdjust="spacing" text-decoration="underline" textLength="118.0977" x="664.8311" y="357.3545">:StudentRegister</text></g><g class="message" data-participant-1="Admin" data-participant-2="StudentRegisterController"><polygon fill="#181818" points="213.3457,108.4297,223.3457,112.4297,213.3457,116.4297,217.3457,112.4297" style="stroke:#181818;stroke-width:1;"/><line style="stroke:#181818;stroke-width:1;" x1="55.4321" x2="219.3457" y1="112.4297" y2="112.4297"/><text fill="#000000" font-family="sans-serif" font-size="13" lengthAdjust="spacing" textLength="126.2422" x="62.4321" y="107.3638">"Selects a Student"</text></g><g class="message" data-participant-1="Admin" data-participant-2="StudentRegisterController"><polygon fill="#181818" points="213.3457,137.5625,223.3457,141.5625,213.3457,145.5625,217.3457,141.5625" style="stroke:#181818;stroke-width:1;"/><line style="stroke:#181818;stroke-width:1;" x1="55.4321" x2="219.3457" y1="141.5625" y2="141.5625"/><text fill="#000000" font-family="sans-serif" font-size="13" lengthAdjust="spacing" textLength="126.4263" x="62.4321" y="136.4966">openModifyPopup()</text></g><g class="message" data-participant-1="StudentRegisterController" data-participant-2="Admin"><polygon fill="#181818" points="66.4321,166.6953,56.4321,170.6953,66.4321,174.6953,62.4321,170.6953" style="stroke:#181818;stroke-width:1;"/><line style="stroke:#181818;stroke-width:1;stroke-dasharray:2,2;" x1="60.4321" x2="224.3457" y1="170.6953" y2="170.6953"/><text fill="#000000" font-family="sans-serif" font-size="13" lengthAdjust="spacing" textLength="145.9136" x="72.4321" y="165.6294">"Shows Modify Popup"</text></g><path d="M10,185.6953 L86.624,185.6953 L86.624,192.8281 L76.624,202.8281 L10,202.8281 L10,185.6953" fill="#EEEEEE" style="stroke:#000000;stroke-width:1.5;"/><rect fill="none" height="106.5313" style="stroke:#000000;stroke-width:1.5;" width="579.271" x="10" y="185.6953"/><text fill="#000000" font-family="sans-serif" font-size="13" font-weight="bold" lengthAdjust="spacing" textLength="31.624" x="25" y="198.7622">loop</text><text fill="#000000" font-family="sans-serif" font-size="11" font-weight="bold" lengthAdjust="spacing" textLength="112.8628" x="101.624" y="197.9058">[StudentNotValid]</text><g class="message" data-participant-1="Admin" data-participant-2="StudentModifyPopupController"><polygon fill="#181818" points="440.626,219.9609,450.626,223.9609,440.626,227.9609,444.626,223.9609" style="stroke:#181818;stroke-width:1;"/><line style="stroke:#181818;stroke-width:1;" x1="55.4321" x2="446.626" y1="223.9609" y2="223.9609"/><text fill="#000000" font-family="sans-serif" font-size="13" lengthAdjust="spacing" textLength="159.9038" x="62.4321" y="218.895">confirmBtnAction(event)</text></g><path d="M20,238.9609 L89.4512,238.9609 L89.4512,246.0938 L79.4512,256.0938 L20,256.0938 L20,238.9609" fill="#EEEEEE" style="stroke:#000000;stroke-width:1.5;"/><rect fill="none" height="46.2656" style="stroke:#000000;stroke-width:1.5;" width="559.271" x="20" y="238.9609"/><text fill="#000000" font-family="sans-serif" font-size="13" font-weight="bold" lengthAdjust="spacing" textLength="24.4512" x="35" y="252.0278">opt</text><text fill="#000000" font-family="sans-serif" font-size="11" font-weight="bold" lengthAdjust="spacing" textLength="112.8628" x="104.4512" y="251.1714">[StudentNotValid]</text><g class="message" data-participant-1="StudentModifyPopupController" data-participant-2="Admin"><polygon fill="#181818" points="66.4321,273.2266,56.4321,277.2266,66.4321,281.2266,62.4321,277.2266" style="stroke:#181818;stroke-width:1;"/><line style="stroke:#181818;stroke-width:1;stroke-dasharray:2,2;" x1="60.4321" x2="451.626" y1="277.2266" y2="277.2266"/><text fill="#000000" font-family="sans-serif" font-size="13" lengthAdjust="spacing" textLength="125.2202" x="72.4321" y="272.1606">"Shows Error Alert"</text></g><g class="message" data-participant-1="StudentModifyPopupController" data-participant-2="StudentRegister"><polygon fill="#181818" points="711.8799,316.3594,721.8799,320.3594,711.8799,324.3594,715.8799,320.3594" style="stroke:#181818;stroke-width:1;"/><line style="stroke:#181818;stroke-width:1;" x1="452.626" x2="717.8799" y1="320.3594" y2="320.3594"/><text fill="#000000" font-family="sans-serif" font-size="13" lengthAdjust="spacing" textLength="247.2539" x="459.626" y="315.2935">modify(selectedStudent, newStudent)</text></g><!--SRC=[ZPB1QiCm38RlVWgHon9ONw2CWjTu8z2aMzFii9j9tCsGMCPHLlRsSzqM1acw7Gm2_VhqwyTtQSQVTppFEQGPbEAr4iMxhyLcmo7VfjbJjWwjgjX2kQzIKUm5Ox8cTC2RJXl6h7IaQssb8OWUXjMofA5HXdRgG_Uat1eDEMnRvIAGFSnsPq4vDlhm_O9siDEiIS6VlgRSC1QEWiLgtYSi8IfLgshgGLvbqVy6qIhpossSi7drmhFEqDF2JppsS1w5C1kn5j5UjnL8RxBLpSZ6P3QUMACvQDSzak4rQJIn-lBgXA6b4VCcQiAcSExqFNpNvw9C4zvjo2WsJ-k2DEv3rggv2Ex1gEEbJdu0]--></g></svg>