<svg xmlns="http://www.w3.org/2000/svg" xmlns:xlink="http://www.w3.org/1999/xlink" contentStyleType="text/css" data-diagram-type="CLASS" height="907px" preserveAspectRatio="none" style="width:1726px;height:907px;background:#FFFFFF;" version="1.1" viewBox="0 0 1726 907" width="1726px" zoomAndPan="magnify"><defs/><g><!--class Student--><g class="entity" data-entity="Student" data-source-line="4" data-uid="ent0002" id="entity_Student"><rect fill="#F1F1F1" height="341.3438" rx="2.5" ry="2.5" style="stroke:#181818;stroke-width:0.5;" width="510.1348" x="7" y="559"/><ellipse cx="230.2617" cy="575" fill="#ADD1B2" rx="11" ry="11" style="stroke:#181818;stroke-width:1;"/><path d="M233.2305,580.6406 Q232.6523,580.9375 232.0117,581.0781 Q231.3711,581.2344 230.668,581.2344 Q228.168,581.2344 226.8398,579.5938 Q225.5273,577.9375 225.5273,574.8125 Q225.5273,571.6875 226.8398,570.0313 Q228.168,568.375 230.668,568.375 Q231.3711,568.375 232.0117,568.5313 Q232.668,568.6875 233.2305,568.9844 L233.2305,571.7031 Q232.6055,571.125 232.0117,570.8594 Q231.418,570.5781 230.793,570.5781 Q229.4492,570.5781 228.7617,571.6563 Q228.0742,572.7188 228.0742,574.8125 Q228.0742,576.9063 228.7617,577.9844 Q229.4492,579.0469 230.793,579.0469 Q231.418,579.0469 232.0117,578.7813 Q232.6055,578.5 233.2305,577.9219 L233.2305,580.6406 Z " fill="#000000"/><text fill="#000000" font-family="sans-serif" font-size="14" lengthAdjust="spacing" textLength="55.1113" x="250.7617" y="579.8467">Student</text><line style="stroke:#181818;stroke-width:0.5;" x1="8" x2="516.1348" y1="591" y2="591"/><rect fill="none" height="6" style="stroke:#C82930;stroke-width:1;" width="6" x="15" y="601.6484"/><text fill="#000000" font-family="sans-serif" font-size="14" lengthAdjust="spacing" textLength="95.1016" x="27" y="607.9951">name : String</text><rect fill="none" height="6" style="stroke:#C82930;stroke-width:1;" width="6" x="15" y="617.9453"/><text fill="#000000" font-family="sans-serif" font-size="14" lengthAdjust="spacing" textLength="117.0244" x="27" y="624.292">surname : String</text><rect fill="none" height="6" style="stroke:#C82930;stroke-width:1;" width="6" x="15" y="634.2422"/><text fill="#000000" font-family="sans-serif" font-size="14" lengthAdjust="spacing" textLength="208.0996" x="27" y="640.5889">studentId : String {readOnly}</text><rect fill="none" height="6" style="stroke:#C82930;stroke-width:1;" width="6" x="15" y="650.5391"/><text fill="#000000" font-family="sans-serif" font-size="14" lengthAdjust="spacing" textLength="94.0078" x="27" y="656.8857">email : String</text><rect fill="none" height="6" style="stroke:#C82930;stroke-width:1;" width="6" x="15" y="666.8359"/><text fill="#000000" font-family="sans-serif" font-size="14" lengthAdjust="spacing" textLength="179.0332" x="27" y="673.1826">activeLoans : List&lt;Loan&gt;</text><line style="stroke:#181818;stroke-width:0.5;" x1="8" x2="516.1348" y1="680.4844" y2="680.4844"/><ellipse cx="18" cy="694.1328" fill="#84BE84" rx="3" ry="3" style="stroke:#038048;stroke-width:1;"/><text fill="#000000" font-family="sans-serif" font-size="14" lengthAdjust="spacing" textLength="484.1348" x="27" y="697.4795">Student(String name, String surname, String studentId, String email)</text><ellipse cx="18" cy="710.4297" fill="#84BE84" rx="3" ry="3" style="stroke:#038048;stroke-width:1;"/><text fill="#000000" font-family="sans-serif" font-size="14" lengthAdjust="spacing" textLength="130.6143" x="27" y="713.7764">getName() : String</text><ellipse cx="18" cy="726.7266" fill="#84BE84" rx="3" ry="3" style="stroke:#038048;stroke-width:1;"/><text fill="#000000" font-family="sans-serif" font-size="14" lengthAdjust="spacing" textLength="152.5303" x="27" y="730.0732">getSurname() : String</text><ellipse cx="18" cy="743.0234" fill="#84BE84" rx="3" ry="3" style="stroke:#038048;stroke-width:1;"/><text fill="#000000" font-family="sans-serif" font-size="14" lengthAdjust="spacing" textLength="157.4385" x="27" y="746.3701">getStudentId() : String</text><ellipse cx="18" cy="759.3203" fill="#84BE84" rx="3" ry="3" style="stroke:#038048;stroke-width:1;"/><text fill="#000000" font-family="sans-serif" font-size="14" lengthAdjust="spacing" textLength="128.1533" x="27" y="762.667">getEmail() : String</text><ellipse cx="18" cy="775.6172" fill="#84BE84" rx="3" ry="3" style="stroke:#038048;stroke-width:1;"/><text fill="#000000" font-family="sans-serif" font-size="14" lengthAdjust="spacing" textLength="213.9443" x="27" y="778.9639">getActiveLoans() : List&lt;Loan&gt;</text><ellipse cx="18" cy="791.9141" fill="#84BE84" rx="3" ry="3" style="stroke:#038048;stroke-width:1;"/><text fill="#000000" font-family="sans-serif" font-size="14" lengthAdjust="spacing" textLength="209.5283" x="27" y="795.2607">copy(Student newData) : void</text><ellipse cx="18" cy="808.2109" fill="#84BE84" rx="3" ry="3" style="stroke:#038048;stroke-width:1;"/><text fill="#000000" font-family="sans-serif" font-size="14" lengthAdjust="spacing" textLength="270.5322" x="27" y="811.5576">addActiveLoan(Loan loanToAdd) : void</text><ellipse cx="18" cy="824.5078" fill="#84BE84" rx="3" ry="3" style="stroke:#038048;stroke-width:1;"/><text fill="#000000" font-family="sans-serif" font-size="14" lengthAdjust="spacing" textLength="327.7422" x="27" y="827.8545">removeActiveLoan(Loan loanToRemove) : void</text><ellipse cx="18" cy="840.8047" fill="#84BE84" rx="3" ry="3" style="stroke:#038048;stroke-width:1;"/><text fill="#000000" font-family="sans-serif" font-size="14" lengthAdjust="spacing" textLength="126.5195" x="27" y="844.1514">isValid() : boolean</text><ellipse cx="18" cy="857.1016" fill="#84BE84" rx="3" ry="3" style="stroke:#038048;stroke-width:1;"/><text fill="#000000" font-family="sans-serif" font-size="14" lengthAdjust="spacing" textLength="212.0781" x="27" y="860.4482">isAvailableForLoan() : boolean</text><rect fill="#F24D5C" height="6" style="stroke:#C82930;stroke-width:1;" width="6" x="15" y="870.3984"/><text fill="#000000" font-family="sans-serif" font-size="14" lengthAdjust="spacing" textLength="307.4121" x="27" y="876.7451">isStudentIdValid(String studentId) : boolean</text><rect fill="#F24D5C" height="6" style="stroke:#C82930;stroke-width:1;" width="6" x="15" y="886.6953"/><text fill="#000000" font-family="sans-serif" font-size="14" lengthAdjust="spacing" textLength="250.2021" x="27" y="893.042">isEmailValid(String email) : boolean</text></g><!--class Loan--><g class="entity" data-entity="Loan" data-source-line="4" data-uid="ent0003" id="entity_Loan"><rect fill="#F1F1F1" height="325.0469" rx="2.5" ry="2.5" style="stroke:#181818;stroke-width:0.5;" width="405.9961" x="567" y="567"/><ellipse cx="748.8394" cy="583" fill="#ADD1B2" rx="11" ry="11" style="stroke:#181818;stroke-width:1;"/><path d="M751.8081,588.6406 Q751.23,588.9375 750.5894,589.0781 Q749.9487,589.2344 749.2456,589.2344 Q746.7456,589.2344 745.4175,587.5938 Q744.105,585.9375 744.105,582.8125 Q744.105,579.6875 745.4175,578.0313 Q746.7456,576.375 749.2456,576.375 Q749.9487,576.375 750.5894,576.5313 Q751.2456,576.6875 751.8081,576.9844 L751.8081,579.7031 Q751.1831,579.125 750.5894,578.8594 Q749.9956,578.5781 749.3706,578.5781 Q748.0269,578.5781 747.3394,579.6563 Q746.6519,580.7188 746.6519,582.8125 Q746.6519,584.9063 747.3394,585.9844 Q748.0269,587.0469 749.3706,587.0469 Q749.9956,587.0469 750.5894,586.7813 Q751.1831,586.5 751.8081,585.9219 L751.8081,588.6406 Z " fill="#000000"/><text fill="#000000" font-family="sans-serif" font-size="14" lengthAdjust="spacing" textLength="33.8174" x="769.3394" y="587.8467">Loan</text><line style="stroke:#181818;stroke-width:0.5;" x1="568" x2="971.9961" y1="599" y2="599"/><rect fill="none" height="6" style="stroke:#C82930;stroke-width:1;" width="6" x="575" y="609.6484"/><text fill="#000000" font-family="sans-serif" font-size="14" lengthAdjust="spacing" textLength="178.1104" x="587" y="615.9951">loanId : UUID {readOnly}</text><rect fill="none" height="6" style="stroke:#C82930;stroke-width:1;" width="6" x="575" y="625.9453"/><text fill="#000000" font-family="sans-serif" font-size="14" lengthAdjust="spacing" textLength="208.4141" x="587" y="632.292">student : Student {readOnly}</text><rect fill="none" height="6" style="stroke:#C82930;stroke-width:1;" width="6" x="575" y="642.2422"/><text fill="#000000" font-family="sans-serif" font-size="14" lengthAdjust="spacing" textLength="168.752" x="587" y="648.5889">book : Book {readOnly}</text><rect fill="none" height="6" style="stroke:#C82930;stroke-width:1;" width="6" x="575" y="658.5391"/><text fill="#000000" font-family="sans-serif" font-size="14" lengthAdjust="spacing" textLength="140.123" x="587" y="664.8857">loanEnd : LocalDate</text><rect fill="none" height="6" style="stroke:#C82930;stroke-width:1;" width="6" x="575" y="674.8359"/><text fill="#000000" font-family="sans-serif" font-size="14" lengthAdjust="spacing" textLength="130.4502" x="587" y="681.1826">returned : boolean</text><line style="stroke:#181818;stroke-width:0.5;" x1="568" x2="971.9961" y1="688.4844" y2="688.4844"/><ellipse cx="578" cy="702.1328" fill="#84BE84" rx="3" ry="3" style="stroke:#038048;stroke-width:1;"/><text fill="#000000" font-family="sans-serif" font-size="14" lengthAdjust="spacing" textLength="379.9961" x="587" y="705.4795">Loan(Student student, Book book, LocalDate loanEnd)</text><ellipse cx="578" cy="718.4297" fill="#84BE84" rx="3" ry="3" style="stroke:#038048;stroke-width:1;"/><text fill="#000000" font-family="sans-serif" font-size="14" lengthAdjust="spacing" textLength="129.7666" x="587" y="721.7764">getLoanId() : UUID</text><ellipse cx="578" cy="734.7266" fill="#84BE84" rx="3" ry="3" style="stroke:#038048;stroke-width:1;"/><text fill="#000000" font-family="sans-serif" font-size="14" lengthAdjust="spacing" textLength="157.7529" x="587" y="738.0732">getStudent() : Student</text><ellipse cx="578" cy="751.0234" fill="#84BE84" rx="3" ry="3" style="stroke:#038048;stroke-width:1;"/><text fill="#000000" font-family="sans-serif" font-size="14" lengthAdjust="spacing" textLength="117.2158" x="587" y="754.3701">getBook() : Book</text><ellipse cx="578" cy="767.3203" fill="#84BE84" rx="3" ry="3" style="stroke:#038048;stroke-width:1;"/><text fill="#000000" font-family="sans-serif" font-size="14" lengthAdjust="spacing" textLength="177.9463" x="587" y="770.667">getLoanEnd() : LocalDate</text><ellipse cx="578" cy="783.6172" fill="#84BE84" rx="3" ry="3" style="stroke:#038048;stroke-width:1;"/><text fill="#000000" font-family="sans-serif" font-size="14" lengthAdjust="spacing" textLength="156.5293" x="587" y="786.9639">isReturned() : boolean</text><ellipse cx="578" cy="799.9141" fill="#84BE84" rx="3" ry="3" style="stroke:#038048;stroke-width:1;"/><text fill="#000000" font-family="sans-serif" font-size="14" lengthAdjust="spacing" textLength="266.9434" x="587" y="803.2607">setLoanEnd(LocalDate loanEnd) : void</text><ellipse cx="578" cy="816.2109" fill="#84BE84" rx="3" ry="3" style="stroke:#038048;stroke-width:1;"/><text fill="#000000" font-family="sans-serif" font-size="14" lengthAdjust="spacing" textLength="131.3457" x="587" y="819.5576">returnLoan() : void</text><ellipse cx="578" cy="832.5078" fill="#84BE84" rx="3" ry="3" style="stroke:#038048;stroke-width:1;"/><text fill="#000000" font-family="sans-serif" font-size="14" lengthAdjust="spacing" textLength="144.6074" x="587" y="835.8545">activateLoan() : void</text><ellipse cx="578" cy="848.8047" fill="#84BE84" rx="3" ry="3" style="stroke:#038048;stroke-width:1;"/><text fill="#000000" font-family="sans-serif" font-size="14" lengthAdjust="spacing" textLength="131.8447" x="587" y="852.1514">isDelay() : boolean</text><rect fill="#F24D5C" height="6" style="stroke:#C82930;stroke-width:1;" width="6" x="575" y="862.1016"/><text fill="#000000" font-family="sans-serif" font-size="14" lengthAdjust="spacing" textLength="156.6045" x="587" y="868.4482">isActivable() : boolean</text><rect fill="#F24D5C" height="6" style="stroke:#C82930;stroke-width:1;" width="6" x="575" y="878.3984"/><text fill="#000000" font-family="sans-serif" font-size="14" lengthAdjust="spacing" textLength="126.5195" x="587" y="884.7451">isValid() : boolean</text></g><!--class Book--><g class="entity" data-entity="Book" data-source-line="6" data-uid="ent0005" id="entity_Book"><rect fill="#F1F1F1" height="341.3438" rx="2.5" ry="2.5" style="stroke:#181818;stroke-width:0.5;" width="696.2637" x="1023" y="559"/><ellipse cx="1349.4604" cy="575" fill="#ADD1B2" rx="11" ry="11" style="stroke:#181818;stroke-width:1;"/><path d="M1352.4292,580.6406 Q1351.8511,580.9375 1351.2104,581.0781 Q1350.5698,581.2344 1349.8667,581.2344 Q1347.3667,581.2344 1346.0386,579.5938 Q1344.7261,577.9375 1344.7261,574.8125 Q1344.7261,571.6875 1346.0386,570.0313 Q1347.3667,568.375 1349.8667,568.375 Q1350.5698,568.375 1351.2104,568.5313 Q1351.8667,568.6875 1352.4292,568.9844 L1352.4292,571.7031 Q1351.8042,571.125 1351.2104,570.8594 Q1350.6167,570.5781 1349.9917,570.5781 Q1348.6479,570.5781 1347.9604,571.6563 Q1347.2729,572.7188 1347.2729,574.8125 Q1347.2729,576.9063 1347.9604,577.9844 Q1348.6479,579.0469 1349.9917,579.0469 Q1350.6167,579.0469 1351.2104,578.7813 Q1351.8042,578.5 1352.4292,577.9219 L1352.4292,580.6406 Z " fill="#000000"/><text fill="#000000" font-family="sans-serif" font-size="14" lengthAdjust="spacing" textLength="34.8428" x="1369.9604" y="579.8467">Book</text><line style="stroke:#181818;stroke-width:0.5;" x1="1024" x2="1718.2637" y1="591" y2="591"/><rect fill="none" height="6" style="stroke:#C82930;stroke-width:1;" width="6" x="1031" y="601.6484"/><text fill="#000000" font-family="sans-serif" font-size="14" lengthAdjust="spacing" textLength="82.7695" x="1043" y="607.9951">title : String</text><rect fill="none" height="6" style="stroke:#C82930;stroke-width:1;" width="6" x="1031" y="617.9453"/><text fill="#000000" font-family="sans-serif" font-size="14" lengthAdjust="spacing" textLength="156.7617" x="1043" y="624.292">authors : List&lt;String&gt;</text><rect fill="none" height="6" style="stroke:#C82930;stroke-width:1;" width="6" x="1031" y="634.2422"/><text fill="#000000" font-family="sans-serif" font-size="14" lengthAdjust="spacing" textLength="188.7061" x="1043" y="640.5889">bookId : String {readOnly}</text><rect fill="none" height="6" style="stroke:#C82930;stroke-width:1;" width="6" x="1031" y="650.5391"/><text fill="#000000" font-family="sans-serif" font-size="14" lengthAdjust="spacing" textLength="150.5752" x="1043" y="656.8857">publishmentYear : int</text><rect fill="none" height="6" style="stroke:#C82930;stroke-width:1;" width="6" x="1031" y="666.8359"/><text fill="#000000" font-family="sans-serif" font-size="14" lengthAdjust="spacing" textLength="142.085" x="1043" y="673.1826">availableCopies : int</text><line style="stroke:#181818;stroke-width:0.5;" x1="1024" x2="1718.2637" y1="680.4844" y2="680.4844"/><ellipse cx="1034" cy="694.1328" fill="#84BE84" rx="3" ry="3" style="stroke:#038048;stroke-width:1;"/><text fill="#000000" font-family="sans-serif" font-size="14" lengthAdjust="spacing" textLength="670.2637" x="1043" y="697.4795">Book(String title, List&lt;String&gt; authors, String bookId, int publishmentYear, int availableCopies)</text><ellipse cx="1034" cy="710.4297" fill="#84BE84" rx="3" ry="3" style="stroke:#038048;stroke-width:1;"/><text fill="#000000" font-family="sans-serif" font-size="14" lengthAdjust="spacing" textLength="119.7451" x="1043" y="713.7764">getTitle() : String</text><ellipse cx="1034" cy="726.7266" fill="#84BE84" rx="3" ry="3" style="stroke:#038048;stroke-width:1;"/><text fill="#000000" font-family="sans-serif" font-size="14" lengthAdjust="spacing" textLength="191.6729" x="1043" y="730.0732">getAuthors() : List&lt;String&gt;</text><ellipse cx="1034" cy="743.0234" fill="#84BE84" rx="3" ry="3" style="stroke:#038048;stroke-width:1;"/><text fill="#000000" font-family="sans-serif" font-size="14" lengthAdjust="spacing" textLength="137.1699" x="1043" y="746.3701">getBookId() : String</text><ellipse cx="1034" cy="759.3203" fill="#84BE84" rx="3" ry="3" style="stroke:#038048;stroke-width:1;"/><text fill="#000000" font-family="sans-serif" font-size="14" lengthAdjust="spacing" textLength="184.0439" x="1043" y="762.667">getPublishmentYear() : int</text><ellipse cx="1034" cy="775.6172" fill="#84BE84" rx="3" ry="3" style="stroke:#038048;stroke-width:1;"/><text fill="#000000" font-family="sans-serif" font-size="14" lengthAdjust="spacing" textLength="176.9961" x="1043" y="778.9639">getAvailableCopies() : int</text><ellipse cx="1034" cy="791.9141" fill="#84BE84" rx="3" ry="3" style="stroke:#038048;stroke-width:1;"/><text fill="#000000" font-family="sans-serif" font-size="14" lengthAdjust="spacing" textLength="319.6963" x="1043" y="795.2607">setAvailableCopies(int availableCopies) : void</text><ellipse cx="1034" cy="808.2109" fill="#84BE84" rx="3" ry="3" style="stroke:#038048;stroke-width:1;"/><text fill="#000000" font-family="sans-serif" font-size="14" lengthAdjust="spacing" textLength="189.2598" x="1043" y="811.5576">copy(Book newData) : void</text><ellipse cx="1034" cy="824.5078" fill="#84BE84" rx="3" ry="3" style="stroke:#038048;stroke-width:1;"/><text fill="#000000" font-family="sans-serif" font-size="14" lengthAdjust="spacing" textLength="212.0781" x="1043" y="827.8545">isAvailableForLoan() : boolean</text><rect fill="#F24D5C" height="6" style="stroke:#C82930;stroke-width:1;" width="6" x="1031" y="837.8047"/><text fill="#000000" font-family="sans-serif" font-size="14" lengthAdjust="spacing" textLength="126.5195" x="1043" y="844.1514">isValid() : boolean</text><rect fill="#F24D5C" height="6" style="stroke:#C82930;stroke-width:1;" width="6" x="1031" y="854.1016"/><text fill="#000000" font-family="sans-serif" font-size="14" lengthAdjust="spacing" textLength="267.75" x="1043" y="860.4482">isBookIdValid(String bookId) : boolean</text><rect fill="#F24D5C" height="6" style="stroke:#C82930;stroke-width:1;" width="6" x="1031" y="870.3984"/><text fill="#000000" font-family="sans-serif" font-size="14" lengthAdjust="spacing" textLength="386.1895" x="1043" y="876.7451">isPublishmentYearValid(int publishmentYear) : boolean</text><rect fill="#F24D5C" height="6" style="stroke:#C82930;stroke-width:1;" width="6" x="1031" y="886.6953"/><text fill="#000000" font-family="sans-serif" font-size="14" lengthAdjust="spacing" textLength="370.6514" x="1043" y="893.042">isAvailableCopiesValid(int availableCopies) : boolean</text></g><!--class BookRegister--><g class="entity" data-entity="BookRegister" data-source-line="8" data-uid="ent0007" id="entity_BookRegister"><rect fill="#F1F1F1" height="80.5938" rx="2.5" ry="2.5" style="stroke:#181818;stroke-width:0.5;" width="213.3047" x="1094.5" y="418"/><ellipse cx="1150.3462" cy="434" fill="#ADD1B2" rx="11" ry="11" style="stroke:#181818;stroke-width:1;"/><path d="M1153.3149,439.6406 Q1152.7368,439.9375 1152.0962,440.0781 Q1151.4556,440.2344 1150.7524,440.2344 Q1148.2524,440.2344 1146.9243,438.5938 Q1145.6118,436.9375 1145.6118,433.8125 Q1145.6118,430.6875 1146.9243,429.0313 Q1148.2524,427.375 1150.7524,427.375 Q1151.4556,427.375 1152.0962,427.5313 Q1152.7524,427.6875 1153.3149,427.9844 L1153.3149,430.7031 Q1152.6899,430.125 1152.0962,429.8594 Q1151.5024,429.5781 1150.8774,429.5781 Q1149.5337,429.5781 1148.8462,430.6563 Q1148.1587,431.7188 1148.1587,433.8125 Q1148.1587,435.9063 1148.8462,436.9844 Q1149.5337,438.0469 1150.8774,438.0469 Q1151.5024,438.0469 1152.0962,437.7813 Q1152.6899,437.5 1153.3149,436.9219 L1153.3149,439.6406 Z " fill="#000000"/><text fill="#000000" font-family="sans-serif" font-size="14" lengthAdjust="spacing" textLength="93.1123" x="1170.8462" y="438.8467">BookRegister</text><line style="stroke:#181818;stroke-width:0.5;" x1="1095.5" x2="1306.8047" y1="450" y2="450"/><rect fill="none" height="6" style="stroke:#C82930;stroke-width:1;" width="6" x="1102.5" y="460.6484"/><text fill="#000000" font-family="sans-serif" font-size="14" lengthAdjust="spacing" textLength="187.3047" x="1114.5" y="466.9951">bookRegister : Set&lt;Book&gt;</text><line style="stroke:#181818;stroke-width:0.5;" x1="1095.5" x2="1306.8047" y1="474.2969" y2="474.2969"/><ellipse cx="1105.5" cy="487.9453" fill="#84BE84" rx="3" ry="3" style="stroke:#038048;stroke-width:1;"/><text fill="#000000" font-family="sans-serif" font-size="14" lengthAdjust="spacing" textLength="104.0361" x="1114.5" y="491.292">BookRegister()</text></g><!--class Register<T>--><g class="entity" data-entity="Register.T." data-source-line="9" data-uid="ent0009" id="entity_Register.T."><rect fill="#F1F1F1" height="129.4844" rx="2.5" ry="2.5" style="stroke:#181818;stroke-width:0.5;" width="237.3398" x="651.5" y="229"/><ellipse cx="720.7788" cy="245" fill="#B4A7E5" rx="11" ry="11" style="stroke:#181818;stroke-width:1;"/><path d="M716.7007,240.7656 L716.7007,238.6094 L724.0913,238.6094 L724.0913,240.7656 L721.6226,240.7656 L721.6226,248.8438 L724.0913,248.8438 L724.0913,251 L716.7007,251 L716.7007,248.8438 L719.1694,248.8438 L719.1694,240.7656 L716.7007,240.7656 Z " fill="#000000"/><text fill="#000000" font-family="sans-serif" font-size="14" font-style="italic" lengthAdjust="spacing" textLength="90.2822" x="741.2788" y="249.8467">Register&lt;T&gt;</text><line style="stroke:#181818;stroke-width:0.5;" x1="652.5" x2="887.8398" y1="261" y2="261"/><line style="stroke:#181818;stroke-width:0.5;" x1="652.5" x2="887.8398" y1="269" y2="269"/><ellipse cx="662.5" cy="282.6484" fill="#84BE84" rx="3" ry="3" style="stroke:#038048;stroke-width:1;"/><text fill="#000000" font-family="sans-serif" font-size="14" lengthAdjust="spacing" textLength="134.9277" x="671.5" y="285.9951">add(T toAdd) : void</text><ellipse cx="662.5" cy="298.9453" fill="#84BE84" rx="3" ry="3" style="stroke:#038048;stroke-width:1;"/><text fill="#000000" font-family="sans-serif" font-size="14" lengthAdjust="spacing" textLength="211.3398" x="671.5" y="302.292">modify(T old, T newObj) : void</text><ellipse cx="662.5" cy="315.2422" fill="#84BE84" rx="3" ry="3" style="stroke:#038048;stroke-width:1;"/><text fill="#000000" font-family="sans-serif" font-size="14" lengthAdjust="spacing" textLength="192.1377" x="671.5" y="318.5889">remove(T toRemove) : void</text><ellipse cx="662.5" cy="331.5391" fill="#84BE84" rx="3" ry="3" style="stroke:#038048;stroke-width:1;"/><text fill="#000000" font-family="sans-serif" font-size="14" lengthAdjust="spacing" textLength="209.1865" x="671.5" y="334.8857">isUnique(T toVerify) : boolean</text><ellipse cx="662.5" cy="347.8359" fill="#84BE84" rx="3" ry="3" style="stroke:#038048;stroke-width:1;"/><text fill="#000000" font-family="sans-serif" font-size="14" lengthAdjust="spacing" textLength="186.7578" x="671.5" y="351.1826">getRegisterList() : List&lt;T&gt;</text></g><!--class StudentRegister--><g class="entity" data-entity="StudentRegister" data-source-line="11" data-uid="ent0012" id="entity_StudentRegister"><rect fill="#F1F1F1" height="80.5938" rx="2.5" ry="2.5" style="stroke:#181818;stroke-width:0.5;" width="252.9668" x="249.5" y="418"/><ellipse cx="315.043" cy="434" fill="#ADD1B2" rx="11" ry="11" style="stroke:#181818;stroke-width:1;"/><path d="M318.0117,439.6406 Q317.4336,439.9375 316.793,440.0781 Q316.1523,440.2344 315.4492,440.2344 Q312.9492,440.2344 311.6211,438.5938 Q310.3086,436.9375 310.3086,433.8125 Q310.3086,430.6875 311.6211,429.0313 Q312.9492,427.375 315.4492,427.375 Q316.1523,427.375 316.793,427.5313 Q317.4492,427.6875 318.0117,427.9844 L318.0117,430.7031 Q317.3867,430.125 316.793,429.8594 Q316.1992,429.5781 315.5742,429.5781 Q314.2305,429.5781 313.543,430.6563 Q312.8555,431.7188 312.8555,433.8125 Q312.8555,435.9063 313.543,436.9844 Q314.2305,438.0469 315.5742,438.0469 Q316.1992,438.0469 316.793,437.7813 Q317.3867,437.5 318.0117,436.9219 L318.0117,439.6406 Z " fill="#000000"/><text fill="#000000" font-family="sans-serif" font-size="14" lengthAdjust="spacing" textLength="113.3809" x="335.543" y="438.8467">StudentRegister</text><line style="stroke:#181818;stroke-width:0.5;" x1="250.5" x2="501.4668" y1="450" y2="450"/><rect fill="none" height="6" style="stroke:#C82930;stroke-width:1;" width="6" x="257.5" y="460.6484"/><text fill="#000000" font-family="sans-serif" font-size="14" lengthAdjust="spacing" textLength="226.9668" x="269.5" y="466.9951">studentRegister : Set&lt;Student&gt;</text><line style="stroke:#181818;stroke-width:0.5;" x1="250.5" x2="501.4668" y1="474.2969" y2="474.2969"/><ellipse cx="260.5" cy="487.9453" fill="#84BE84" rx="3" ry="3" style="stroke:#038048;stroke-width:1;"/><text fill="#000000" font-family="sans-serif" font-size="14" lengthAdjust="spacing" textLength="124.3047" x="269.5" y="491.292">StudentRegister()</text></g><!--class LoanRegister--><g class="entity" data-entity="LoanRegister" data-source-line="14" data-uid="ent0016" id="entity_LoanRegister"><rect fill="#F1F1F1" height="80.5938" rx="2.5" ry="2.5" style="stroke:#181818;stroke-width:0.5;" width="208.0615" x="666" y="418"/><ellipse cx="719.7373" cy="434" fill="#ADD1B2" rx="11" ry="11" style="stroke:#181818;stroke-width:1;"/><path d="M722.7061,439.6406 Q722.1279,439.9375 721.4873,440.0781 Q720.8467,440.2344 720.1436,440.2344 Q717.6436,440.2344 716.3154,438.5938 Q715.0029,436.9375 715.0029,433.8125 Q715.0029,430.6875 716.3154,429.0313 Q717.6436,427.375 720.1436,427.375 Q720.8467,427.375 721.4873,427.5313 Q722.1436,427.6875 722.7061,427.9844 L722.7061,430.7031 Q722.0811,430.125 721.4873,429.8594 Q720.8936,429.5781 720.2686,429.5781 Q718.9248,429.5781 718.2373,430.6563 Q717.5498,431.7188 717.5498,433.8125 Q717.5498,435.9063 718.2373,436.9844 Q718.9248,438.0469 720.2686,438.0469 Q720.8936,438.0469 721.4873,437.7813 Q722.0811,437.5 722.7061,436.9219 L722.7061,439.6406 Z " fill="#000000"/><text fill="#000000" font-family="sans-serif" font-size="14" lengthAdjust="spacing" textLength="92.0869" x="740.2373" y="438.8467">LoanRegister</text><line style="stroke:#181818;stroke-width:0.5;" x1="667" x2="873.0615" y1="450" y2="450"/><rect fill="none" height="6" style="stroke:#C82930;stroke-width:1;" width="6" x="674" y="460.6484"/><text fill="#000000" font-family="sans-serif" font-size="14" lengthAdjust="spacing" textLength="182.0615" x="686" y="466.9951">loanRegister : Set&lt;Loan&gt;</text><line style="stroke:#181818;stroke-width:0.5;" x1="667" x2="873.0615" y1="474.2969" y2="474.2969"/><ellipse cx="677" cy="487.9453" fill="#84BE84" rx="3" ry="3" style="stroke:#038048;stroke-width:1;"/><text fill="#000000" font-family="sans-serif" font-size="14" lengthAdjust="spacing" textLength="103.0107" x="686" y="491.292">LoanRegister()</text></g><!--class Library--><g class="entity" data-entity="Library" data-source-line="17" data-uid="ent0020" id="entity_Library"><rect fill="#F1F1F1" height="162.0781" rx="2.5" ry="2.5" style="stroke:#181818;stroke-width:0.5;" width="323.7529" x="608" y="7"/><ellipse cx="741.1504" cy="23" fill="#ADD1B2" rx="11" ry="11" style="stroke:#181818;stroke-width:1;"/><path d="M744.1191,28.6406 Q743.541,28.9375 742.9004,29.0781 Q742.2598,29.2344 741.5566,29.2344 Q739.0566,29.2344 737.7285,27.5938 Q736.416,25.9375 736.416,22.8125 Q736.416,19.6875 737.7285,18.0313 Q739.0566,16.375 741.5566,16.375 Q742.2598,16.375 742.9004,16.5313 Q743.5566,16.6875 744.1191,16.9844 L744.1191,19.7031 Q743.4941,19.125 742.9004,18.8594 Q742.3066,18.5781 741.6816,18.5781 Q740.3379,18.5781 739.6504,19.6563 Q738.9629,20.7188 738.9629,22.8125 Q738.9629,24.9063 739.6504,25.9844 Q740.3379,27.0469 741.6816,27.0469 Q742.3066,27.0469 742.9004,26.7813 Q743.4941,26.5 744.1191,25.9219 L744.1191,28.6406 Z " fill="#000000"/><text fill="#000000" font-family="sans-serif" font-size="14" lengthAdjust="spacing" textLength="48.9521" x="761.6504" y="27.8467">Library</text><line style="stroke:#181818;stroke-width:0.5;" x1="609" x2="930.7529" y1="39" y2="39"/><rect fill="none" height="6" style="stroke:#C82930;stroke-width:1;" width="6" x="616" y="49.6484"/><text fill="#000000" font-family="sans-serif" font-size="14" lengthAdjust="spacing" textLength="222.585" x="628" y="55.9951">bookRegister : Register&lt;Book&gt;</text><rect fill="none" height="6" style="stroke:#C82930;stroke-width:1;" width="6" x="616" y="65.9453"/><text fill="#000000" font-family="sans-serif" font-size="14" lengthAdjust="spacing" textLength="262.2471" x="628" y="72.292">studentRegister : Register&lt;Student&gt;</text><rect fill="none" height="6" style="stroke:#C82930;stroke-width:1;" width="6" x="616" y="82.2422"/><text fill="#000000" font-family="sans-serif" font-size="14" lengthAdjust="spacing" textLength="217.3418" x="628" y="88.5889">loanRegister : Register&lt;Loan&gt;</text><line style="stroke:#181818;stroke-width:0.5;" x1="609" x2="930.7529" y1="95.8906" y2="95.8906"/><ellipse cx="619" cy="109.5391" fill="#84BE84" rx="3" ry="3" style="stroke:#038048;stroke-width:1;"/><text fill="#000000" font-family="sans-serif" font-size="14" lengthAdjust="spacing" textLength="59.876" x="628" y="112.8857">Library()</text><ellipse cx="619" cy="125.8359" fill="#84BE84" rx="3" ry="3" style="stroke:#038048;stroke-width:1;"/><text fill="#000000" font-family="sans-serif" font-size="14" lengthAdjust="spacing" textLength="257.2158" x="628" y="129.1826">getBookRegister() : Register&lt;Book&gt;</text><ellipse cx="619" cy="142.1328" fill="#84BE84" rx="3" ry="3" style="stroke:#038048;stroke-width:1;"/><text fill="#000000" font-family="sans-serif" font-size="14" lengthAdjust="spacing" textLength="297.7529" x="628" y="145.4795">getStudentRegister() : Register&lt;Student&gt;</text><ellipse cx="619" cy="158.4297" fill="#84BE84" rx="3" ry="3" style="stroke:#038048;stroke-width:1;"/><text fill="#000000" font-family="sans-serif" font-size="14" lengthAdjust="spacing" textLength="255.165" x="628" y="161.7764">getLoanRegister() : Register&lt;Loan&gt;</text></g><!--link Student to Loan--><g class="link" data-entity-1="Student" data-entity-2="Loan" data-source-line="4" data-uid="lnk4" id="link_Student_Loan"><path codeLine="4" d="M517.49,729.5 C533.93,729.5 550.37,729.5 566.81,729.5" fill="none" id="Student-Loan" style="stroke:#181818;stroke-width:1;"/><text fill="#000000" font-family="sans-serif" font-size="13" lengthAdjust="spacing" textLength="8.271" x="525.1956" y="726.3411">1</text><text fill="#000000" font-family="sans-serif" font-size="13" lengthAdjust="spacing" textLength="8.271" x="550.722" y="726.2756">3</text></g><!--link Loan to Book--><g class="link" data-entity-1="Loan" data-entity-2="Book" data-source-line="6" data-uid="lnk6" id="link_Loan_Book"><path codeLine="6" d="M973.07,729.5 C989.65,729.5 1000.23,729.5 1016.81,729.5" fill="none" id="Loan-to-Book" style="stroke:#181818;stroke-width:1;"/><polygon fill="#181818" points="1022.81,729.5,1013.81,725.5,1017.81,729.5,1013.81,733.5,1022.81,729.5" style="stroke:#181818;stroke-width:1;"/><text fill="#000000" font-family="sans-serif" font-size="13" lengthAdjust="spacing" textLength="6.5" x="981.1295" y="726.2756">*</text><text fill="#000000" font-family="sans-serif" font-size="13" lengthAdjust="spacing" textLength="8.271" x="1006.5556" y="726.3886">1</text></g><!--link BookRegister to Book--><g class="link" data-entity-1="BookRegister" data-entity-2="Book" data-source-line="8" data-uid="lnk8" id="link_BookRegister_Book"><path codeLine="8" d="M1226.08,499.19 C1236.66,515.93 1246.5447,531.5679 1260.5047,553.6579" fill="none" id="BookRegister-to-Book" style="stroke:#181818;stroke-width:1;"/><polygon fill="#181818" points="1263.71,558.73,1262.2834,548.985,1261.0389,554.5033,1255.5206,553.2588,1263.71,558.73" style="stroke:#181818;stroke-width:1;"/><text fill="#000000" font-family="sans-serif" font-size="13" lengthAdjust="spacing" textLength="8.271" x="1221.3053" y="518.6773">1</text><text fill="#000000" font-family="sans-serif" font-size="13" lengthAdjust="spacing" textLength="6.5" x="1252.7178" y="547.7143">*</text></g><!--reverse link Register<T> to BookRegister--><g class="link" data-entity-1="Register.T." data-entity-2="BookRegister" data-source-line="9" data-uid="lnk11" id="link_Register.T._BookRegister"><path codeLine="9" d="M905.466,345.7279 C970.506,370.3279 1033.57,394.18 1096.28,417.9" fill="none" id="Register&lt;T&gt;-backto-BookRegister" style="stroke:#181818;stroke-width:1;stroke-dasharray:7,7;"/><polygon fill="none" points="888.63,339.36,903.3434,351.3398,907.5886,340.1159,888.63,339.36" style="stroke:#181818;stroke-width:1;"/></g><!--link StudentRegister to Student--><g class="link" data-entity-1="StudentRegister" data-entity-2="Student" data-source-line="11" data-uid="lnk13" id="link_StudentRegister_Student"><path codeLine="11" d="M359.18,499.19 C352.09,515.93 345.6509,531.1155 336.2909,553.2055" fill="none" id="StudentRegister-to-Student" style="stroke:#181818;stroke-width:1;"/><polygon fill="#181818" points="333.95,558.73,341.1443,552.0038,335.9007,554.1262,333.7783,548.8826,333.95,558.73" style="stroke:#181818;stroke-width:1;"/><text fill="#000000" font-family="sans-serif" font-size="13" lengthAdjust="spacing" textLength="8.271" x="348.0152" y="518.6773">1</text><text fill="#000000" font-family="sans-serif" font-size="13" lengthAdjust="spacing" textLength="6.5" x="331.0826" y="547.7143">*</text></g><!--reverse link Register<T> to StudentRegister--><g class="link" data-entity-1="Register.T." data-entity-2="StudentRegister" data-source-line="12" data-uid="lnk15" id="link_Register.T._StudentRegister"><path codeLine="12" d="M634.6169,350.5103 C577.1769,374.2703 525.78,395.54 471.72,417.9" fill="none" id="Register&lt;T&gt;-backto-StudentRegister" style="stroke:#181818;stroke-width:1;stroke-dasharray:7,7;"/><polygon fill="none" points="651.25,343.63,632.3234,344.9659,636.9103,356.0547,651.25,343.63" style="stroke:#181818;stroke-width:1;"/></g><!--link LoanRegister to Loan--><g class="link" data-entity-1="LoanRegister" data-entity-2="Loan" data-source-line="14" data-uid="lnk17" id="link_LoanRegister_Loan"><path codeLine="14" d="M770,499.19 C770,517.97 770,535.77 770,560.88" fill="none" id="LoanRegister-to-Loan" style="stroke:#181818;stroke-width:1;"/><polygon fill="#181818" points="770,566.88,774,557.88,770,561.88,766,557.88,770,566.88" style="stroke:#181818;stroke-width:1;"/><text fill="#000000" font-family="sans-serif" font-size="13" lengthAdjust="spacing" textLength="8.271" x="761.4035" y="518.6773">1</text><text fill="#000000" font-family="sans-serif" font-size="13" lengthAdjust="spacing" textLength="6.5" x="763.8669" y="555.7088">*</text></g><!--reverse link Register<T> to LoanRegister--><g class="link" data-entity-1="Register.T." data-entity-2="LoanRegister" data-source-line="15" data-uid="lnk19" id="link_Register.T._LoanRegister"><path codeLine="15" d="M770,376.45 C770,396.43 770,399.89 770,417.7" fill="none" id="Register&lt;T&gt;-backto-LoanRegister" style="stroke:#181818;stroke-width:1;stroke-dasharray:7,7;"/><polygon fill="none" points="770,358.45,764,376.45,776,376.45,770,358.45" style="stroke:#181818;stroke-width:1;"/></g><!--link Library to Register<T>--><g class="link" data-entity-1="Library" data-entity-2="Register.T." data-source-line="17" data-uid="lnk21" id="link_Library_Register.T."><path codeLine="17" d="M770,169.14 C770,188.93 770,203.88 770,222.78" fill="none" id="Library-to-Register&lt;T&gt;" style="stroke:#181818;stroke-width:1;"/><polygon fill="#181818" points="770,228.78,774,219.78,770,223.78,766,219.78,770,228.78" style="stroke:#181818;stroke-width:1;"/><text fill="#000000" font-family="sans-serif" font-size="13" lengthAdjust="spacing" textLength="8.271" x="761.6668" y="189.1038">1</text><text fill="#000000" font-family="sans-serif" font-size="13" lengthAdjust="spacing" textLength="8.271" x="761.5587" y="217.9286">3</text></g><!--SRC=[ZLPDQnin4Btlhn2-T9tQeQNqKeB1RL88cAOaJg17sJknrUokN6djOjpyz-fx9Usur8S5wpqzpMYUHf8lhDrHGHlIyWeaxCZ7TyMRBQk0DD2iGCYYUEZs5RGT6RqVaQcOaj674LbmsXQ5_fBHXHcU6Vmpvoz5eR_ti66o0s6dLHg_S7W2N-ul_oZC_xzQpaPXILp3WGCIggH3n6LC2WcC2x2LeE8OpLNfPvnrJQNqSP5JGTHlIbhQ0FcaXWLhDsvCxWKwRAVULW4W9m6qkclhuwlZG4DPdK-awuuTG6SX5RHGCLtfFxF2u6zzJAKJrMjF_0ekblw_3oACc2N7Jce3tJT5ByTf30Pui58uvcLHz4OlWIBpFZM3HybPpfhlZgNVz1P-NzEEQkA1iyfHQ5NrCgMnQwq-IpwlgemgeE47mDdt1iicCFb4QsQpMd5UWxAJH-O7bHLTrV2L2oEMawQA53R6wkHLmAQOtKhejaGHzTNRqSJllQZpCEvwVBoz7dhBBMggu4oSKvJ-YyBrsHs2MlwcrVeBlgQrgWGuH42dl05L5A7R9RClVZaNmCJgwxKclPINZvouCFcORTKP3Tpc76KRHG2rk45C6qh4bBnrMHA_hkMzom0fjEpd3eFDxQLLWXTYZshBgOaOnkGrrFI8siTOLNiCHOVU3CQm9NJCZdNre1tHVRVb8dGKYyqY8_opKUtsgvh9RQEs_WTGePZC5K4f-uFnXUyOI8UvR4rvdAg9QvAixyCAxSb6Cj4I-Q9sC5ijyizIo-DjnoxIjvmu- -2YCztiUng5uR3OWVCqeemWXmGiZTGZfWsQck8zy3-x4TxCD6BpJRgEtNcCdEs0dOKK27LqccS_5zc0oDMA0UAPhY6zbft5pILGBac7zFo6L-pvg41UAnijzGRUhNwY5uDHE7CFFBRirzuoda0enM6dKANtiMbJzUvQpjA36HuZf-YuXK7bEEYkD6yM7ngFb-DUB7yTdT9MdqawTlvkm8IJ9rDylsIIoJiadfI8kTVLcMn3FMtAvp88j9066bMWfQ7P4CfnUiBxQF4uuji6voR1X8i6vzg8Nly2]--></g></svg>