<svg xmlns="http://www.w3.org/2000/svg" xmlns:xlink="http://www.w3.org/1999/xlink" contentStyleType="text/css" data-diagram-type="CLASS" height="907px" preserveAspectRatio="none" style="width:1836px;height:907px;background:#FFFFFF;" version="1.1" viewBox="0 0 1836 907" width="1836px" zoomAndPan="magnify"><defs/><g><!--class Student--><g class="entity" data-entity="Student" data-source-line="5" data-uid="ent0002" id="entity_Student"><rect fill="#F1F1F1" height="341.3438" rx="2.5" ry="2.5" style="stroke:#181818;stroke-width:0.5;" width="546.8027" x="7" y="559"/><ellipse cx="248.5957" cy="575" fill="#ADD1B2" rx="11" ry="11" style="stroke:#181818;stroke-width:1;"/><path d="M251.5645,580.6406 Q250.9863,580.9375 250.3457,581.0781 Q249.7051,581.2344 249.002,581.2344 Q246.502,581.2344 245.1738,579.5938 Q243.8613,577.9375 243.8613,574.8125 Q243.8613,571.6875 245.1738,570.0313 Q246.502,568.375 249.002,568.375 Q249.7051,568.375 250.3457,568.5313 Q251.002,568.6875 251.5645,568.9844 L251.5645,571.7031 Q250.9395,571.125 250.3457,570.8594 Q249.752,570.5781 249.127,570.5781 Q247.7832,570.5781 247.0957,571.6563 Q246.4082,572.7188 246.4082,574.8125 Q246.4082,576.9063 247.0957,577.9844 Q247.7832,579.0469 249.127,579.0469 Q249.752,579.0469 250.3457,578.7813 Q250.9395,578.5 251.5645,577.9219 L251.5645,580.6406 Z " fill="#000000"/><text fill="#000000" font-family="sans-serif" font-size="14" lengthAdjust="spacing" textLength="55.1113" x="269.0957" y="579.8467">Student</text><line style="stroke:#181818;stroke-width:0.5;" x1="8" x2="552.8027" y1="591" y2="591"/><rect fill="none" height="6" style="stroke:#C82930;stroke-width:1;" width="6" x="15" y="601.6484"/><text fill="#000000" font-family="sans-serif" font-size="14" lengthAdjust="spacing" textLength="95.1016" x="27" y="607.9951">name : String</text><rect fill="none" height="6" style="stroke:#C82930;stroke-width:1;" width="6" x="15" y="617.9453"/><text fill="#000000" font-family="sans-serif" font-size="14" lengthAdjust="spacing" textLength="117.0244" x="27" y="624.292">surname : String</text><rect fill="none" height="6" style="stroke:#C82930;stroke-width:1;" width="6" x="15" y="634.2422"/><text fill="#000000" font-family="sans-serif" font-size="14" lengthAdjust="spacing" textLength="208.0996" x="27" y="640.5889">studentId : String {readOnly}</text><rect fill="none" height="6" style="stroke:#C82930;stroke-width:1;" width="6" x="15" y="650.5391"/><text fill="#000000" font-family="sans-serif" font-size="14" lengthAdjust="spacing" textLength="94.0078" x="27" y="656.8857">email : String</text><rect fill="none" height="6" style="stroke:#C82930;stroke-width:1;" width="6" x="15" y="666.8359"/><text fill="#000000" font-family="sans-serif" font-size="14" lengthAdjust="spacing" textLength="179.0332" x="27" y="673.1826">activeLoans : List&lt;Loan&gt;</text><line style="stroke:#181818;stroke-width:0.5;" x1="8" x2="552.8027" y1="680.4844" y2="680.4844"/><ellipse cx="18" cy="694.1328" fill="#84BE84" rx="3" ry="3" style="stroke:#038048;stroke-width:1;"/><text fill="#000000" font-family="sans-serif" font-size="14" lengthAdjust="spacing" textLength="520.8027" x="27" y="697.4795">Student(name : String, surname : String, studentId : String, email : String)</text><ellipse cx="18" cy="710.4297" fill="#84BE84" rx="3" ry="3" style="stroke:#038048;stroke-width:1;"/><text fill="#000000" font-family="sans-serif" font-size="14" lengthAdjust="spacing" textLength="130.6143" x="27" y="713.7764">getName() : String</text><ellipse cx="18" cy="726.7266" fill="#84BE84" rx="3" ry="3" style="stroke:#038048;stroke-width:1;"/><text fill="#000000" font-family="sans-serif" font-size="14" lengthAdjust="spacing" textLength="152.5303" x="27" y="730.0732">getSurname() : String</text><ellipse cx="18" cy="743.0234" fill="#84BE84" rx="3" ry="3" style="stroke:#038048;stroke-width:1;"/><text fill="#000000" font-family="sans-serif" font-size="14" lengthAdjust="spacing" textLength="157.4385" x="27" y="746.3701">getStudentId() : String</text><ellipse cx="18" cy="759.3203" fill="#84BE84" rx="3" ry="3" style="stroke:#038048;stroke-width:1;"/><text fill="#000000" font-family="sans-serif" font-size="14" lengthAdjust="spacing" textLength="128.1533" x="27" y="762.667">getEmail() : String</text><ellipse cx="18" cy="775.6172" fill="#84BE84" rx="3" ry="3" style="stroke:#038048;stroke-width:1;"/><text fill="#000000" font-family="sans-serif" font-size="14" lengthAdjust="spacing" textLength="213.9443" x="27" y="778.9639">getActiveLoans() : List&lt;Loan&gt;</text><ellipse cx="18" cy="791.9141" fill="#84BE84" rx="3" ry="3" style="stroke:#038048;stroke-width:1;"/><text fill="#000000" font-family="sans-serif" font-size="14" lengthAdjust="spacing" textLength="218.6953" x="27" y="795.2607">copy(newData : Student) : void</text><ellipse cx="18" cy="808.2109" fill="#84BE84" rx="3" ry="3" style="stroke:#038048;stroke-width:1;"/><text fill="#000000" font-family="sans-serif" font-size="14" lengthAdjust="spacing" textLength="279.6992" x="27" y="811.5576">addActiveLoan(loanToAdd : Loan) : void</text><ellipse cx="18" cy="824.5078" fill="#84BE84" rx="3" ry="3" style="stroke:#038048;stroke-width:1;"/><text fill="#000000" font-family="sans-serif" font-size="14" lengthAdjust="spacing" textLength="336.9092" x="27" y="827.8545">removeActiveLoan(loanToRemove : Loan) : void</text><ellipse cx="18" cy="840.8047" fill="#84BE84" rx="3" ry="3" style="stroke:#038048;stroke-width:1;"/><text fill="#000000" font-family="sans-serif" font-size="14" lengthAdjust="spacing" textLength="126.5195" x="27" y="844.1514">isValid() : boolean</text><ellipse cx="18" cy="857.1016" fill="#84BE84" rx="3" ry="3" style="stroke:#038048;stroke-width:1;"/><text fill="#000000" font-family="sans-serif" font-size="14" lengthAdjust="spacing" textLength="212.0781" x="27" y="860.4482">isAvailableForLoan() : boolean</text><rect fill="#F24D5C" height="6" style="stroke:#C82930;stroke-width:1;" width="6" x="15" y="870.3984"/><text fill="#000000" font-family="sans-serif" font-size="14" lengthAdjust="spacing" textLength="316.5791" x="27" y="876.7451">isStudentIdValid(studentId : String) : boolean</text><rect fill="#F24D5C" height="6" style="stroke:#C82930;stroke-width:1;" width="6" x="15" y="886.6953"/><text fill="#000000" font-family="sans-serif" font-size="14" lengthAdjust="spacing" textLength="259.3691" x="27" y="893.042">isEmailValid(email : String) : boolean</text></g><!--class Loan--><g class="entity" data-entity="Loan" data-source-line="5" data-uid="ent0003" id="entity_Loan"><rect fill="#F1F1F1" height="325.0469" rx="2.5" ry="2.5" style="stroke:#181818;stroke-width:0.5;" width="433.4971" x="604" y="567"/><ellipse cx="799.5898" cy="583" fill="#ADD1B2" rx="11" ry="11" style="stroke:#181818;stroke-width:1;"/><path d="M802.5586,588.6406 Q801.9805,588.9375 801.3398,589.0781 Q800.6992,589.2344 799.9961,589.2344 Q797.4961,589.2344 796.168,587.5938 Q794.8555,585.9375 794.8555,582.8125 Q794.8555,579.6875 796.168,578.0313 Q797.4961,576.375 799.9961,576.375 Q800.6992,576.375 801.3398,576.5313 Q801.9961,576.6875 802.5586,576.9844 L802.5586,579.7031 Q801.9336,579.125 801.3398,578.8594 Q800.7461,578.5781 800.1211,578.5781 Q798.7773,578.5781 798.0898,579.6563 Q797.4023,580.7188 797.4023,582.8125 Q797.4023,584.9063 798.0898,585.9844 Q798.7773,587.0469 800.1211,587.0469 Q800.7461,587.0469 801.3398,586.7813 Q801.9336,586.5 802.5586,585.9219 L802.5586,588.6406 Z " fill="#000000"/><text fill="#000000" font-family="sans-serif" font-size="14" lengthAdjust="spacing" textLength="33.8174" x="820.0898" y="587.8467">Loan</text><line style="stroke:#181818;stroke-width:0.5;" x1="605" x2="1036.4971" y1="599" y2="599"/><rect fill="none" height="6" style="stroke:#C82930;stroke-width:1;" width="6" x="612" y="609.6484"/><text fill="#000000" font-family="sans-serif" font-size="14" lengthAdjust="spacing" textLength="178.1104" x="624" y="615.9951">loanId : UUID {readOnly}</text><rect fill="none" height="6" style="stroke:#C82930;stroke-width:1;" width="6" x="612" y="625.9453"/><text fill="#000000" font-family="sans-serif" font-size="14" lengthAdjust="spacing" textLength="208.4141" x="624" y="632.292">student : Student {readOnly}</text><rect fill="none" height="6" style="stroke:#C82930;stroke-width:1;" width="6" x="612" y="642.2422"/><text fill="#000000" font-family="sans-serif" font-size="14" lengthAdjust="spacing" textLength="168.752" x="624" y="648.5889">book : Book {readOnly}</text><rect fill="none" height="6" style="stroke:#C82930;stroke-width:1;" width="6" x="612" y="658.5391"/><text fill="#000000" font-family="sans-serif" font-size="14" lengthAdjust="spacing" textLength="140.123" x="624" y="664.8857">loanEnd : LocalDate</text><rect fill="none" height="6" style="stroke:#C82930;stroke-width:1;" width="6" x="612" y="674.8359"/><text fill="#000000" font-family="sans-serif" font-size="14" lengthAdjust="spacing" textLength="130.4502" x="624" y="681.1826">returned : boolean</text><line style="stroke:#181818;stroke-width:0.5;" x1="605" x2="1036.4971" y1="688.4844" y2="688.4844"/><ellipse cx="615" cy="702.1328" fill="#84BE84" rx="3" ry="3" style="stroke:#038048;stroke-width:1;"/><text fill="#000000" font-family="sans-serif" font-size="14" lengthAdjust="spacing" textLength="407.4971" x="624" y="705.4795">Loan(student : Student, book : Book, loanEnd : LocalDate)</text><ellipse cx="615" cy="718.4297" fill="#84BE84" rx="3" ry="3" style="stroke:#038048;stroke-width:1;"/><text fill="#000000" font-family="sans-serif" font-size="14" lengthAdjust="spacing" textLength="129.7666" x="624" y="721.7764">getLoanId() : UUID</text><ellipse cx="615" cy="734.7266" fill="#84BE84" rx="3" ry="3" style="stroke:#038048;stroke-width:1;"/><text fill="#000000" font-family="sans-serif" font-size="14" lengthAdjust="spacing" textLength="157.7529" x="624" y="738.0732">getStudent() : Student</text><ellipse cx="615" cy="751.0234" fill="#84BE84" rx="3" ry="3" style="stroke:#038048;stroke-width:1;"/><text fill="#000000" font-family="sans-serif" font-size="14" lengthAdjust="spacing" textLength="117.2158" x="624" y="754.3701">getBook() : Book</text><ellipse cx="615" cy="767.3203" fill="#84BE84" rx="3" ry="3" style="stroke:#038048;stroke-width:1;"/><text fill="#000000" font-family="sans-serif" font-size="14" lengthAdjust="spacing" textLength="177.9463" x="624" y="770.667">getLoanEnd() : LocalDate</text><ellipse cx="615" cy="783.6172" fill="#84BE84" rx="3" ry="3" style="stroke:#038048;stroke-width:1;"/><text fill="#000000" font-family="sans-serif" font-size="14" lengthAdjust="spacing" textLength="156.5293" x="624" y="786.9639">isReturned() : boolean</text><ellipse cx="615" cy="799.9141" fill="#84BE84" rx="3" ry="3" style="stroke:#038048;stroke-width:1;"/><text fill="#000000" font-family="sans-serif" font-size="14" lengthAdjust="spacing" textLength="276.1104" x="624" y="803.2607">setLoanEnd(loanEnd : LocalDate) : void</text><ellipse cx="615" cy="816.2109" fill="#84BE84" rx="3" ry="3" style="stroke:#038048;stroke-width:1;"/><text fill="#000000" font-family="sans-serif" font-size="14" lengthAdjust="spacing" textLength="131.3457" x="624" y="819.5576">returnLoan() : void</text><ellipse cx="615" cy="832.5078" fill="#84BE84" rx="3" ry="3" style="stroke:#038048;stroke-width:1;"/><text fill="#000000" font-family="sans-serif" font-size="14" lengthAdjust="spacing" textLength="144.6074" x="624" y="835.8545">activateLoan() : void</text><ellipse cx="615" cy="848.8047" fill="#84BE84" rx="3" ry="3" style="stroke:#038048;stroke-width:1;"/><text fill="#000000" font-family="sans-serif" font-size="14" lengthAdjust="spacing" textLength="131.8447" x="624" y="852.1514">isDelay() : boolean</text><rect fill="#F24D5C" height="6" style="stroke:#C82930;stroke-width:1;" width="6" x="612" y="862.1016"/><text fill="#000000" font-family="sans-serif" font-size="14" lengthAdjust="spacing" textLength="156.6045" x="624" y="868.4482">isActivable() : boolean</text><rect fill="#F24D5C" height="6" style="stroke:#C82930;stroke-width:1;" width="6" x="612" y="878.3984"/><text fill="#000000" font-family="sans-serif" font-size="14" lengthAdjust="spacing" textLength="126.5195" x="624" y="884.7451">isValid() : boolean</text></g><!--class Book--><g class="entity" data-entity="Book" data-source-line="7" data-uid="ent0005" id="entity_Book"><rect fill="#F1F1F1" height="341.3438" rx="2.5" ry="2.5" style="stroke:#181818;stroke-width:0.5;" width="742.0986" x="1087.5" y="559"/><ellipse cx="1436.8779" cy="575" fill="#ADD1B2" rx="11" ry="11" style="stroke:#181818;stroke-width:1;"/><path d="M1439.8467,580.6406 Q1439.2686,580.9375 1438.6279,581.0781 Q1437.9873,581.2344 1437.2842,581.2344 Q1434.7842,581.2344 1433.4561,579.5938 Q1432.1436,577.9375 1432.1436,574.8125 Q1432.1436,571.6875 1433.4561,570.0313 Q1434.7842,568.375 1437.2842,568.375 Q1437.9873,568.375 1438.6279,568.5313 Q1439.2842,568.6875 1439.8467,568.9844 L1439.8467,571.7031 Q1439.2217,571.125 1438.6279,570.8594 Q1438.0342,570.5781 1437.4092,570.5781 Q1436.0654,570.5781 1435.3779,571.6563 Q1434.6904,572.7188 1434.6904,574.8125 Q1434.6904,576.9063 1435.3779,577.9844 Q1436.0654,579.0469 1437.4092,579.0469 Q1438.0342,579.0469 1438.6279,578.7813 Q1439.2217,578.5 1439.8467,577.9219 L1439.8467,580.6406 Z " fill="#000000"/><text fill="#000000" font-family="sans-serif" font-size="14" lengthAdjust="spacing" textLength="34.8428" x="1457.3779" y="579.8467">Book</text><line style="stroke:#181818;stroke-width:0.5;" x1="1088.5" x2="1828.5986" y1="591" y2="591"/><rect fill="none" height="6" style="stroke:#C82930;stroke-width:1;" width="6" x="1095.5" y="601.6484"/><text fill="#000000" font-family="sans-serif" font-size="14" lengthAdjust="spacing" textLength="82.7695" x="1107.5" y="607.9951">title : String</text><rect fill="none" height="6" style="stroke:#C82930;stroke-width:1;" width="6" x="1095.5" y="617.9453"/><text fill="#000000" font-family="sans-serif" font-size="14" lengthAdjust="spacing" textLength="156.7617" x="1107.5" y="624.292">authors : List&lt;String&gt;</text><rect fill="none" height="6" style="stroke:#C82930;stroke-width:1;" width="6" x="1095.5" y="634.2422"/><text fill="#000000" font-family="sans-serif" font-size="14" lengthAdjust="spacing" textLength="188.7061" x="1107.5" y="640.5889">bookId : String {readOnly}</text><rect fill="none" height="6" style="stroke:#C82930;stroke-width:1;" width="6" x="1095.5" y="650.5391"/><text fill="#000000" font-family="sans-serif" font-size="14" lengthAdjust="spacing" textLength="150.5752" x="1107.5" y="656.8857">publishmentYear : int</text><rect fill="none" height="6" style="stroke:#C82930;stroke-width:1;" width="6" x="1095.5" y="666.8359"/><text fill="#000000" font-family="sans-serif" font-size="14" lengthAdjust="spacing" textLength="142.085" x="1107.5" y="673.1826">availableCopies : int</text><line style="stroke:#181818;stroke-width:0.5;" x1="1088.5" x2="1828.5986" y1="680.4844" y2="680.4844"/><ellipse cx="1098.5" cy="694.1328" fill="#84BE84" rx="3" ry="3" style="stroke:#038048;stroke-width:1;"/><text fill="#000000" font-family="sans-serif" font-size="14" lengthAdjust="spacing" textLength="716.0986" x="1107.5" y="697.4795">Book(title : String, authors : List&lt;String&gt;, bookId : String, publishmentYear : int, availableCopies : int)</text><ellipse cx="1098.5" cy="710.4297" fill="#84BE84" rx="3" ry="3" style="stroke:#038048;stroke-width:1;"/><text fill="#000000" font-family="sans-serif" font-size="14" lengthAdjust="spacing" textLength="119.7451" x="1107.5" y="713.7764">getTitle() : String</text><ellipse cx="1098.5" cy="726.7266" fill="#84BE84" rx="3" ry="3" style="stroke:#038048;stroke-width:1;"/><text fill="#000000" font-family="sans-serif" font-size="14" lengthAdjust="spacing" textLength="191.6729" x="1107.5" y="730.0732">getAuthors() : List&lt;String&gt;</text><ellipse cx="1098.5" cy="743.0234" fill="#84BE84" rx="3" ry="3" style="stroke:#038048;stroke-width:1;"/><text fill="#000000" font-family="sans-serif" font-size="14" lengthAdjust="spacing" textLength="137.1699" x="1107.5" y="746.3701">getBookId() : String</text><ellipse cx="1098.5" cy="759.3203" fill="#84BE84" rx="3" ry="3" style="stroke:#038048;stroke-width:1;"/><text fill="#000000" font-family="sans-serif" font-size="14" lengthAdjust="spacing" textLength="184.0439" x="1107.5" y="762.667">getPublishmentYear() : int</text><ellipse cx="1098.5" cy="775.6172" fill="#84BE84" rx="3" ry="3" style="stroke:#038048;stroke-width:1;"/><text fill="#000000" font-family="sans-serif" font-size="14" lengthAdjust="spacing" textLength="176.9961" x="1107.5" y="778.9639">getAvailableCopies() : int</text><ellipse cx="1098.5" cy="791.9141" fill="#84BE84" rx="3" ry="3" style="stroke:#038048;stroke-width:1;"/><text fill="#000000" font-family="sans-serif" font-size="14" lengthAdjust="spacing" textLength="328.8633" x="1107.5" y="795.2607">setAvailableCopies(availableCopies : int) : void</text><ellipse cx="1098.5" cy="808.2109" fill="#84BE84" rx="3" ry="3" style="stroke:#038048;stroke-width:1;"/><text fill="#000000" font-family="sans-serif" font-size="14" lengthAdjust="spacing" textLength="198.4268" x="1107.5" y="811.5576">copy(newData : Book) : void</text><ellipse cx="1098.5" cy="824.5078" fill="#84BE84" rx="3" ry="3" style="stroke:#038048;stroke-width:1;"/><text fill="#000000" font-family="sans-serif" font-size="14" lengthAdjust="spacing" textLength="212.0781" x="1107.5" y="827.8545">isAvailableForLoan() : boolean</text><rect fill="#F24D5C" height="6" style="stroke:#C82930;stroke-width:1;" width="6" x="1095.5" y="837.8047"/><text fill="#000000" font-family="sans-serif" font-size="14" lengthAdjust="spacing" textLength="126.5195" x="1107.5" y="844.1514">isValid() : boolean</text><rect fill="#F24D5C" height="6" style="stroke:#C82930;stroke-width:1;" width="6" x="1095.5" y="854.1016"/><text fill="#000000" font-family="sans-serif" font-size="14" lengthAdjust="spacing" textLength="276.917" x="1107.5" y="860.4482">isBookIdValid(bookId : String) : boolean</text><rect fill="#F24D5C" height="6" style="stroke:#C82930;stroke-width:1;" width="6" x="1095.5" y="870.3984"/><text fill="#000000" font-family="sans-serif" font-size="14" lengthAdjust="spacing" textLength="395.3564" x="1107.5" y="876.7451">isPublishmentYearValid(publishmentYear : int) : boolean</text><rect fill="#F24D5C" height="6" style="stroke:#C82930;stroke-width:1;" width="6" x="1095.5" y="886.6953"/><text fill="#000000" font-family="sans-serif" font-size="14" lengthAdjust="spacing" textLength="379.8184" x="1107.5" y="893.042">isAvailableCopiesValid(availableCopies : int) : boolean</text></g><!--class BookRegister--><g class="entity" data-entity="BookRegister" data-source-line="9" data-uid="ent0007" id="entity_BookRegister"><rect fill="#F1F1F1" height="80.5938" rx="2.5" ry="2.5" style="stroke:#181818;stroke-width:0.5;" width="213.3047" x="1163" y="418"/><ellipse cx="1218.8462" cy="434" fill="#ADD1B2" rx="11" ry="11" style="stroke:#181818;stroke-width:1;"/><path d="M1221.8149,439.6406 Q1221.2368,439.9375 1220.5962,440.0781 Q1219.9556,440.2344 1219.2524,440.2344 Q1216.7524,440.2344 1215.4243,438.5938 Q1214.1118,436.9375 1214.1118,433.8125 Q1214.1118,430.6875 1215.4243,429.0313 Q1216.7524,427.375 1219.2524,427.375 Q1219.9556,427.375 1220.5962,427.5313 Q1221.2524,427.6875 1221.8149,427.9844 L1221.8149,430.7031 Q1221.1899,430.125 1220.5962,429.8594 Q1220.0024,429.5781 1219.3774,429.5781 Q1218.0337,429.5781 1217.3462,430.6563 Q1216.6587,431.7188 1216.6587,433.8125 Q1216.6587,435.9063 1217.3462,436.9844 Q1218.0337,438.0469 1219.3774,438.0469 Q1220.0024,438.0469 1220.5962,437.7813 Q1221.1899,437.5 1221.8149,436.9219 L1221.8149,439.6406 Z " fill="#000000"/><text fill="#000000" font-family="sans-serif" font-size="14" lengthAdjust="spacing" textLength="93.1123" x="1239.3462" y="438.8467">BookRegister</text><line style="stroke:#181818;stroke-width:0.5;" x1="1164" x2="1375.3047" y1="450" y2="450"/><rect fill="none" height="6" style="stroke:#C82930;stroke-width:1;" width="6" x="1171" y="460.6484"/><text fill="#000000" font-family="sans-serif" font-size="14" lengthAdjust="spacing" textLength="187.3047" x="1183" y="466.9951">bookRegister : Set&lt;Book&gt;</text><line style="stroke:#181818;stroke-width:0.5;" x1="1164" x2="1375.3047" y1="474.2969" y2="474.2969"/><ellipse cx="1174" cy="487.9453" fill="#84BE84" rx="3" ry="3" style="stroke:#038048;stroke-width:1;"/><text fill="#000000" font-family="sans-serif" font-size="14" lengthAdjust="spacing" textLength="104.0361" x="1183" y="491.292">BookRegister()</text></g><!--class Register<T>--><g class="entity" data-entity="Register.T." data-source-line="10" data-uid="ent0009" id="entity_Register.T."><rect fill="#F1F1F1" height="129.4844" rx="2.5" ry="2.5" style="stroke:#181818;stroke-width:0.5;" width="295.6162" x="672.5" y="229"/><ellipse cx="770.917" cy="245" fill="#B4A7E5" rx="11" ry="11" style="stroke:#181818;stroke-width:1;"/><path d="M766.8389,240.7656 L766.8389,238.6094 L774.2295,238.6094 L774.2295,240.7656 L771.7607,240.7656 L771.7607,248.8438 L774.2295,248.8438 L774.2295,251 L766.8389,251 L766.8389,248.8438 L769.3076,248.8438 L769.3076,240.7656 L766.8389,240.7656 Z " fill="#000000"/><text fill="#000000" font-family="sans-serif" font-size="14" font-style="italic" lengthAdjust="spacing" textLength="90.2822" x="791.417" y="249.8467">Register&lt;T&gt;</text><line style="stroke:#181818;stroke-width:0.5;" x1="673.5" x2="967.1162" y1="261" y2="261"/><line style="stroke:#181818;stroke-width:0.5;" x1="673.5" x2="967.1162" y1="269" y2="269"/><ellipse cx="683.5" cy="282.6484" fill="#84BE84" rx="3" ry="3" style="stroke:#038048;stroke-width:1;"/><text fill="#000000" font-family="sans-serif" font-size="14" lengthAdjust="spacing" textLength="144.0947" x="692.5" y="285.9951">add(toAdd : T) : void</text><ellipse cx="683.5" cy="298.9453" fill="#84BE84" rx="3" ry="3" style="stroke:#038048;stroke-width:1;"/><text fill="#000000" font-family="sans-serif" font-size="14" lengthAdjust="spacing" textLength="269.6162" x="692.5" y="302.292">modify(oldItem : T, newItem : T) : void</text><ellipse cx="683.5" cy="315.2422" fill="#84BE84" rx="3" ry="3" style="stroke:#038048;stroke-width:1;"/><text fill="#000000" font-family="sans-serif" font-size="14" lengthAdjust="spacing" textLength="201.3047" x="692.5" y="318.5889">remove(toRemove : T) : void</text><ellipse cx="683.5" cy="331.5391" fill="#84BE84" rx="3" ry="3" style="stroke:#038048;stroke-width:1;"/><text fill="#000000" font-family="sans-serif" font-size="14" lengthAdjust="spacing" textLength="218.3535" x="692.5" y="334.8857">isUnique(toVerify : T) : boolean</text><ellipse cx="683.5" cy="347.8359" fill="#84BE84" rx="3" ry="3" style="stroke:#038048;stroke-width:1;"/><text fill="#000000" font-family="sans-serif" font-size="14" lengthAdjust="spacing" textLength="186.7578" x="692.5" y="351.1826">getRegisterList() : List&lt;T&gt;</text></g><!--class StudentRegister--><g class="entity" data-entity="StudentRegister" data-source-line="12" data-uid="ent0012" id="entity_StudentRegister"><rect fill="#F1F1F1" height="80.5938" rx="2.5" ry="2.5" style="stroke:#181818;stroke-width:0.5;" width="252.9668" x="284" y="418"/><ellipse cx="349.543" cy="434" fill="#ADD1B2" rx="11" ry="11" style="stroke:#181818;stroke-width:1;"/><path d="M352.5117,439.6406 Q351.9336,439.9375 351.293,440.0781 Q350.6523,440.2344 349.9492,440.2344 Q347.4492,440.2344 346.1211,438.5938 Q344.8086,436.9375 344.8086,433.8125 Q344.8086,430.6875 346.1211,429.0313 Q347.4492,427.375 349.9492,427.375 Q350.6523,427.375 351.293,427.5313 Q351.9492,427.6875 352.5117,427.9844 L352.5117,430.7031 Q351.8867,430.125 351.293,429.8594 Q350.6992,429.5781 350.0742,429.5781 Q348.7305,429.5781 348.043,430.6563 Q347.3555,431.7188 347.3555,433.8125 Q347.3555,435.9063 348.043,436.9844 Q348.7305,438.0469 350.0742,438.0469 Q350.6992,438.0469 351.293,437.7813 Q351.8867,437.5 352.5117,436.9219 L352.5117,439.6406 Z " fill="#000000"/><text fill="#000000" font-family="sans-serif" font-size="14" lengthAdjust="spacing" textLength="113.3809" x="370.043" y="438.8467">StudentRegister</text><line style="stroke:#181818;stroke-width:0.5;" x1="285" x2="535.9668" y1="450" y2="450"/><rect fill="none" height="6" style="stroke:#C82930;stroke-width:1;" width="6" x="292" y="460.6484"/><text fill="#000000" font-family="sans-serif" font-size="14" lengthAdjust="spacing" textLength="226.9668" x="304" y="466.9951">studentRegister : Set&lt;Student&gt;</text><line style="stroke:#181818;stroke-width:0.5;" x1="285" x2="535.9668" y1="474.2969" y2="474.2969"/><ellipse cx="295" cy="487.9453" fill="#84BE84" rx="3" ry="3" style="stroke:#038048;stroke-width:1;"/><text fill="#000000" font-family="sans-serif" font-size="14" lengthAdjust="spacing" textLength="124.3047" x="304" y="491.292">StudentRegister()</text></g><!--class LoanRegister--><g class="entity" data-entity="LoanRegister" data-source-line="15" data-uid="ent0016" id="entity_LoanRegister"><rect fill="#F1F1F1" height="80.5938" rx="2.5" ry="2.5" style="stroke:#181818;stroke-width:0.5;" width="208.0615" x="716.5" y="418"/><ellipse cx="770.2373" cy="434" fill="#ADD1B2" rx="11" ry="11" style="stroke:#181818;stroke-width:1;"/><path d="M773.2061,439.6406 Q772.6279,439.9375 771.9873,440.0781 Q771.3467,440.2344 770.6436,440.2344 Q768.1436,440.2344 766.8154,438.5938 Q765.5029,436.9375 765.5029,433.8125 Q765.5029,430.6875 766.8154,429.0313 Q768.1436,427.375 770.6436,427.375 Q771.3467,427.375 771.9873,427.5313 Q772.6436,427.6875 773.2061,427.9844 L773.2061,430.7031 Q772.5811,430.125 771.9873,429.8594 Q771.3936,429.5781 770.7686,429.5781 Q769.4248,429.5781 768.7373,430.6563 Q768.0498,431.7188 768.0498,433.8125 Q768.0498,435.9063 768.7373,436.9844 Q769.4248,438.0469 770.7686,438.0469 Q771.3936,438.0469 771.9873,437.7813 Q772.5811,437.5 773.2061,436.9219 L773.2061,439.6406 Z " fill="#000000"/><text fill="#000000" font-family="sans-serif" font-size="14" lengthAdjust="spacing" textLength="92.0869" x="790.7373" y="438.8467">LoanRegister</text><line style="stroke:#181818;stroke-width:0.5;" x1="717.5" x2="923.5615" y1="450" y2="450"/><rect fill="none" height="6" style="stroke:#C82930;stroke-width:1;" width="6" x="724.5" y="460.6484"/><text fill="#000000" font-family="sans-serif" font-size="14" lengthAdjust="spacing" textLength="182.0615" x="736.5" y="466.9951">loanRegister : Set&lt;Loan&gt;</text><line style="stroke:#181818;stroke-width:0.5;" x1="717.5" x2="923.5615" y1="474.2969" y2="474.2969"/><ellipse cx="727.5" cy="487.9453" fill="#84BE84" rx="3" ry="3" style="stroke:#038048;stroke-width:1;"/><text fill="#000000" font-family="sans-serif" font-size="14" lengthAdjust="spacing" textLength="103.0107" x="736.5" y="491.292">LoanRegister()</text></g><!--class Library--><g class="entity" data-entity="Library" data-source-line="18" data-uid="ent0020" id="entity_Library"><rect fill="#F1F1F1" height="162.0781" rx="2.5" ry="2.5" style="stroke:#181818;stroke-width:0.5;" width="323.7529" x="658.5" y="7"/><ellipse cx="791.6504" cy="23" fill="#ADD1B2" rx="11" ry="11" style="stroke:#181818;stroke-width:1;"/><path d="M794.6191,28.6406 Q794.041,28.9375 793.4004,29.0781 Q792.7598,29.2344 792.0566,29.2344 Q789.5566,29.2344 788.2285,27.5938 Q786.916,25.9375 786.916,22.8125 Q786.916,19.6875 788.2285,18.0313 Q789.5566,16.375 792.0566,16.375 Q792.7598,16.375 793.4004,16.5313 Q794.0566,16.6875 794.6191,16.9844 L794.6191,19.7031 Q793.9941,19.125 793.4004,18.8594 Q792.8066,18.5781 792.1816,18.5781 Q790.8379,18.5781 790.1504,19.6563 Q789.4629,20.7188 789.4629,22.8125 Q789.4629,24.9063 790.1504,25.9844 Q790.8379,27.0469 792.1816,27.0469 Q792.8066,27.0469 793.4004,26.7813 Q793.9941,26.5 794.6191,25.9219 L794.6191,28.6406 Z " fill="#000000"/><text fill="#000000" font-family="sans-serif" font-size="14" lengthAdjust="spacing" textLength="48.9521" x="812.1504" y="27.8467">Library</text><line style="stroke:#181818;stroke-width:0.5;" x1="659.5" x2="981.2529" y1="39" y2="39"/><rect fill="none" height="6" style="stroke:#C82930;stroke-width:1;" width="6" x="666.5" y="49.6484"/><text fill="#000000" font-family="sans-serif" font-size="14" lengthAdjust="spacing" textLength="222.585" x="678.5" y="55.9951">bookRegister : Register&lt;Book&gt;</text><rect fill="none" height="6" style="stroke:#C82930;stroke-width:1;" width="6" x="666.5" y="65.9453"/><text fill="#000000" font-family="sans-serif" font-size="14" lengthAdjust="spacing" textLength="262.2471" x="678.5" y="72.292">studentRegister : Register&lt;Student&gt;</text><rect fill="none" height="6" style="stroke:#C82930;stroke-width:1;" width="6" x="666.5" y="82.2422"/><text fill="#000000" font-family="sans-serif" font-size="14" lengthAdjust="spacing" textLength="217.3418" x="678.5" y="88.5889">loanRegister : Register&lt;Loan&gt;</text><line style="stroke:#181818;stroke-width:0.5;" x1="659.5" x2="981.2529" y1="95.8906" y2="95.8906"/><ellipse cx="669.5" cy="109.5391" fill="#84BE84" rx="3" ry="3" style="stroke:#038048;stroke-width:1;"/><text fill="#000000" font-family="sans-serif" font-size="14" lengthAdjust="spacing" textLength="59.876" x="678.5" y="112.8857">Library()</text><ellipse cx="669.5" cy="125.8359" fill="#84BE84" rx="3" ry="3" style="stroke:#038048;stroke-width:1;"/><text fill="#000000" font-family="sans-serif" font-size="14" lengthAdjust="spacing" textLength="257.2158" x="678.5" y="129.1826">getBookRegister() : Register&lt;Book&gt;</text><ellipse cx="669.5" cy="142.1328" fill="#84BE84" rx="3" ry="3" style="stroke:#038048;stroke-width:1;"/><text fill="#000000" font-family="sans-serif" font-size="14" lengthAdjust="spacing" textLength="297.7529" x="678.5" y="145.4795">getStudentRegister() : Register&lt;Student&gt;</text><ellipse cx="669.5" cy="158.4297" fill="#84BE84" rx="3" ry="3" style="stroke:#038048;stroke-width:1;"/><text fill="#000000" font-family="sans-serif" font-size="14" lengthAdjust="spacing" textLength="255.165" x="678.5" y="161.7764">getLoanRegister() : Register&lt;Loan&gt;</text></g><!--link Student to Loan--><g class="link" data-entity-1="Student" data-entity-2="Loan" data-source-line="5" data-uid="lnk4" id="link_Student_Loan"><path codeLine="5" d="M554.19,729.5 C570.75,729.5 587.31,729.5 603.86,729.5" fill="none" id="Student-Loan" style="stroke:#181818;stroke-width:1;"/><text fill="#000000" font-family="sans-serif" font-size="13" lengthAdjust="spacing" textLength="8.271" x="561.5724" y="726.3649">1</text><text fill="#000000" font-family="sans-serif" font-size="13" lengthAdjust="spacing" textLength="8.271" x="587.9267" y="726.2989">3</text></g><!--link Loan to Book--><g class="link" data-entity-1="Loan" data-entity-2="Book" data-source-line="7" data-uid="lnk6" id="link_Loan_Book"><path codeLine="7" d="M1037.01,729.5 C1053.75,729.5 1064.49,729.5 1081.23,729.5" fill="none" id="Loan-to-Book" style="stroke:#181818;stroke-width:1;"/><polygon fill="#181818" points="1087.23,729.5,1078.23,725.5,1082.23,729.5,1078.23,733.5,1087.23,729.5" style="stroke:#181818;stroke-width:1;"/><text fill="#000000" font-family="sans-serif" font-size="13" lengthAdjust="spacing" textLength="6.5" x="1045.5847" y="726.2756">*</text><text fill="#000000" font-family="sans-serif" font-size="13" lengthAdjust="spacing" textLength="8.271" x="1071.6091" y="726.4124">1</text></g><!--link BookRegister to Book--><g class="link" data-entity-1="BookRegister" data-entity-2="Book" data-source-line="9" data-uid="lnk8" id="link_BookRegister_Book"><path codeLine="9" d="M1297.39,499.19 C1309.14,515.93 1320.2507,531.7306 1335.7707,553.8206" fill="none" id="BookRegister-to-Book" style="stroke:#181818;stroke-width:1;"/><polygon fill="#181818" points="1339.22,558.73,1337.319,549.0663,1336.3456,554.6388,1330.7731,553.6654,1339.22,558.73" style="stroke:#181818;stroke-width:1;"/><text fill="#000000" font-family="sans-serif" font-size="13" lengthAdjust="spacing" textLength="8.271" x="1293.0456" y="518.6773">1</text><text fill="#000000" font-family="sans-serif" font-size="13" lengthAdjust="spacing" textLength="6.5" x="1327.6883" y="547.7143">*</text></g><!--reverse link Register<T> to BookRegister--><g class="link" data-entity-1="Register.T." data-entity-2="BookRegister" data-source-line="10" data-uid="lnk11" id="link_Register.T._BookRegister"><path codeLine="10" d="M985.6792,354.4635 C1049.1592,377.5135 1104.94,397.76 1162.96,418.82" fill="none" id="Register&lt;T&gt;-backto-BookRegister" style="stroke:#181818;stroke-width:1;stroke-dasharray:7,7;"/><polygon fill="none" points="968.76,348.32,983.6313,360.1032,987.727,348.8237,968.76,348.32" style="stroke:#181818;stroke-width:1;"/></g><!--link StudentRegister to Student--><g class="link" data-entity-1="StudentRegister" data-entity-2="Student" data-source-line="12" data-uid="lnk13" id="link_StudentRegister_Student"><path codeLine="12" d="M391.32,499.19 C383.23,515.93 375.8297,531.2373 365.1597,553.3273" fill="none" id="StudentRegister-to-Student" style="stroke:#181818;stroke-width:1;"/><polygon fill="#181818" points="362.55,558.73,370.0663,552.3656,364.7247,554.2277,362.8627,548.8861,362.55,558.73" style="stroke:#181818;stroke-width:1;"/><text fill="#000000" font-family="sans-serif" font-size="13" lengthAdjust="spacing" textLength="8.271" x="379.7939" y="518.6773">1</text><text fill="#000000" font-family="sans-serif" font-size="13" lengthAdjust="spacing" textLength="6.5" x="360.1478" y="547.7143">*</text></g><!--reverse link Register<T> to StudentRegister--><g class="link" data-entity-1="Register.T." data-entity-2="StudentRegister" data-source-line="13" data-uid="lnk15" id="link_Register.T._StudentRegister"><path codeLine="13" d="M655.7527,359.9982 C601.7327,381.4682 558.71,398.58 509.93,417.97" fill="none" id="Register&lt;T&gt;-backto-StudentRegister" style="stroke:#181818;stroke-width:1;stroke-dasharray:7,7;"/><polygon fill="none" points="672.48,353.35,653.5367,354.4224,657.9688,365.5739,672.48,353.35" style="stroke:#181818;stroke-width:1;"/></g><!--link LoanRegister to Loan--><g class="link" data-entity-1="LoanRegister" data-entity-2="Loan" data-source-line="15" data-uid="lnk17" id="link_LoanRegister_Loan"><path codeLine="15" d="M820.5,499.19 C820.5,517.97 820.5,535.77 820.5,560.88" fill="none" id="LoanRegister-to-Loan" style="stroke:#181818;stroke-width:1;"/><polygon fill="#181818" points="820.5,566.88,824.5,557.88,820.5,561.88,816.5,557.88,820.5,566.88" style="stroke:#181818;stroke-width:1;"/><text fill="#000000" font-family="sans-serif" font-size="13" lengthAdjust="spacing" textLength="8.271" x="811.9035" y="518.6773">1</text><text fill="#000000" font-family="sans-serif" font-size="13" lengthAdjust="spacing" textLength="6.5" x="814.3548" y="555.7088">*</text></g><!--reverse link Register<T> to LoanRegister--><g class="link" data-entity-1="Register.T." data-entity-2="LoanRegister" data-source-line="16" data-uid="lnk19" id="link_Register.T._LoanRegister"><path codeLine="16" d="M820.5,376.45 C820.5,396.43 820.5,399.89 820.5,417.7" fill="none" id="Register&lt;T&gt;-backto-LoanRegister" style="stroke:#181818;stroke-width:1;stroke-dasharray:7,7;"/><polygon fill="none" points="820.5,358.45,814.5,376.45,826.5,376.45,820.5,358.45" style="stroke:#181818;stroke-width:1;"/></g><!--link Library to Register<T>--><g class="link" data-entity-1="Library" data-entity-2="Register.T." data-source-line="18" data-uid="lnk21" id="link_Library_Register.T."><path codeLine="18" d="M820.5,169.14 C820.5,188.93 820.5,203.88 820.5,222.78" fill="none" id="Library-to-Register&lt;T&gt;" style="stroke:#181818;stroke-width:1;"/><polygon fill="#181818" points="820.5,228.78,824.5,219.78,820.5,223.78,816.5,219.78,820.5,228.78" style="stroke:#181818;stroke-width:1;"/><text fill="#000000" font-family="sans-serif" font-size="13" lengthAdjust="spacing" textLength="8.271" x="812.1668" y="189.1038">1</text><text fill="#000000" font-family="sans-serif" font-size="13" lengthAdjust="spacing" textLength="8.271" x="812.0983" y="217.9286">3</text></g><!--SRC=[ZLPRQzim67tthn1vgTCvPMFiPPH0rcOG2Er8dC8UbVXhAsfRcUnaXAp_VRfPbkGlOta8METyzwDByyRgFHMq8ZKle84z-V8nkNfb1P0AgYs89acko6Go8QlvSfOl7X_MwYjPjuS2wfQCFet8H4p8wFE8B3cjaqJzaz6rNfvg_1ldRqcY_bVmmfeMX34h57vjyG2-ETpyaLZtVPjFHqaN4lTXmG49zQHInDte4W8OTy2sWegJPolBZpYsRNVBsNezDqrBTYLjcYvNSaw8_4r8JIiWN-MoOFMBNMiE0bqsfel20UGiW1QFTNbwjnoeA2jZGxfhsH5KPOs4bZBFM_KnJJJ-eSif3O9cWpGo98CiYZYsBb-WVP2swJZCHGDhunV7kWWeEbUnK6JMbwXnhqZ3sV7zAQtXzprjgRRNSHJro5bXIRGeUaTfAVzoFYjKjMeX8Wke-146_9LUnarOyqHBPchRSbw255o7p8woDhejuJiNsbrCcaYIQu_nCvm7PgIxPWoYONdazqwWUWjtwbGbQU-RpU9-g3ORl-_da2BzlqbSxV0XgDpFQzFV7ItbRC0Y0bgf4YYy36sdT6y6WJC_K8OvzfIvr5Nf1gkw1kgp2ZE7YWELPute8ojm9aCPrGLLgAckR1t8o9lU5ait5floutJXQrO9K1fW66lkeQGdL4fQk4flA3hKgHE86QLbjgmj1mSLFRIlNBYpnc1JJn3_FCBsXst9cjTADlydK26Pp8v1UkusoHtVCsWiPglL0meJoYxaaiLfP7ZO38_eQIbNyV0ZoKJkZoE_3qvH5qww7s4sciDyDSx2l292CoJWXOHwYGv9bTz0KVzrJk77d49CpGQFPe3HepuOEtHKgCR3cetrnKPuIfSh89xf3iABtSfUNnHfQw-6F6fHnGlsV4fvMInQg1GX8xAdtGTwYqXdxjx81otVrEpNGN6UG4ZN7ISyJgGckbILsdhPvTDmxxhNpTdRaMvH3WFQMyMR-lkgmzDnxon-Rft3Mo5oQTdnemDp7Bp1_AieSXayOdoZm9bzhbseretNb7of0aTpPQ1PELgOcaaX7OTRlyyMpyE_ad1ka8oxZN2koUZzBm00]--></g></svg>