<svg xmlns="http://www.w3.org/2000/svg" xmlns:xlink="http://www.w3.org/1999/xlink" contentStyleType="text/css" data-diagram-type="CLASS" height="874px" preserveAspectRatio="none" style="width:1432px;height:874px;background:#FFFFFF;" version="1.1" viewBox="0 0 1432 874" width="1432px" zoomAndPan="magnify"><defs/><g><!--class StudentRegisterController--><g class="entity" data-entity="StudentRegisterController" data-source-line="3" data-uid="ent0002" id="entity_StudentRegisterController"><rect fill="#F1F1F1" height="276.1563" rx="2.5" ry="2.5" style="stroke:#181818;stroke-width:0.5;" width="494.4053" x="469" y="7"/><ellipse cx="620.6758" cy="23" fill="#ADD1B2" rx="11" ry="11" style="stroke:#181818;stroke-width:1;"/><path d="M623.6445,28.6406 Q623.0664,28.9375 622.4258,29.0781 Q621.7852,29.2344 621.082,29.2344 Q618.582,29.2344 617.2539,27.5938 Q615.9414,25.9375 615.9414,22.8125 Q615.9414,19.6875 617.2539,18.0313 Q618.582,16.375 621.082,16.375 Q621.7852,16.375 622.4258,16.5313 Q623.082,16.6875 623.6445,16.9844 L623.6445,19.7031 Q623.0195,19.125 622.4258,18.8594 Q621.832,18.5781 621.207,18.5781 Q619.8633,18.5781 619.1758,19.6563 Q618.4883,20.7188 618.4883,22.8125 Q618.4883,24.9063 619.1758,25.9844 Q619.8633,27.0469 621.207,27.0469 Q621.832,27.0469 622.4258,26.7813 Q623.0195,26.5 623.6445,25.9219 L623.6445,28.6406 Z " fill="#000000"/><text fill="#000000" font-family="sans-serif" font-size="14" lengthAdjust="spacing" textLength="182.5537" x="641.1758" y="27.8467">StudentRegisterController</text><line style="stroke:#181818;stroke-width:0.5;" x1="470" x2="962.4053" y1="39" y2="39"/><rect fill="none" height="6" style="stroke:#C82930;stroke-width:1;" width="6" x="477" y="49.6484"/><text fill="#000000" font-family="sans-serif" font-size="14" lengthAdjust="spacing" textLength="256.2793" x="489" y="55.9951">studentTable : TableView&lt;Student&gt;</text><rect fill="none" height="6" style="stroke:#C82930;stroke-width:1;" width="6" x="477" y="65.9453"/><text fill="#000000" font-family="sans-serif" font-size="14" lengthAdjust="spacing" textLength="302.0117" x="489" y="72.292">nameClm : TableColumn&lt;Student, String&gt;</text><rect fill="none" height="6" style="stroke:#C82930;stroke-width:1;" width="6" x="477" y="82.2422"/><text fill="#000000" font-family="sans-serif" font-size="14" lengthAdjust="spacing" textLength="323.9346" x="489" y="88.5889">surnameClm : TableColumn&lt;Student, String&gt;</text><rect fill="none" height="6" style="stroke:#C82930;stroke-width:1;" width="6" x="477" y="98.5391"/><text fill="#000000" font-family="sans-serif" font-size="14" lengthAdjust="spacing" textLength="328.8428" x="489" y="104.8857">studentIdClm : TableColumn&lt;Student, String&gt;</text><rect fill="none" height="6" style="stroke:#C82930;stroke-width:1;" width="6" x="477" y="114.8359"/><text fill="#000000" font-family="sans-serif" font-size="14" lengthAdjust="spacing" textLength="300.918" x="489" y="121.1826">emailClm : TableColumn&lt;Student, String&gt;</text><rect fill="none" height="6" style="stroke:#C82930;stroke-width:1;" width="6" x="477" y="131.1328"/><text fill="#000000" font-family="sans-serif" font-size="14" lengthAdjust="spacing" textLength="262.2471" x="489" y="137.4795">studentRegister : Register&lt;Student&gt;</text><rect fill="none" height="6" style="stroke:#C82930;stroke-width:1;" width="6" x="477" y="147.4297"/><text fill="#000000" font-family="sans-serif" font-size="14" lengthAdjust="spacing" textLength="258.8018" x="489" y="153.7764">sideBarController : SideBarController</text><rect fill="none" height="6" style="stroke:#C82930;stroke-width:1;" width="6" x="477" y="163.7266"/><text fill="#000000" font-family="sans-serif" font-size="14" lengthAdjust="spacing" textLength="428.21" x="489" y="170.0732">studentInsertPopupController : StudentInsertPopupController</text><rect fill="none" height="6" style="stroke:#C82930;stroke-width:1;" width="6" x="477" y="180.0234"/><text fill="#000000" font-family="sans-serif" font-size="14" lengthAdjust="spacing" textLength="441.1709" x="489" y="186.3701">studentModifyPopupController : StudentModifyPopupController</text><line style="stroke:#181818;stroke-width:0.5;" x1="470" x2="962.4053" y1="193.6719" y2="193.6719"/><ellipse cx="480" cy="207.3203" fill="#84BE84" rx="3" ry="3" style="stroke:#038048;stroke-width:1;"/><text fill="#000000" font-family="sans-serif" font-size="14" lengthAdjust="spacing" textLength="112.5195" x="489" y="210.667">initialize() : void</text><rect fill="#F24D5C" height="6" style="stroke:#C82930;stroke-width:1;" width="6" x="477" y="220.6172"/><text fill="#000000" font-family="sans-serif" font-size="14" lengthAdjust="spacing" textLength="172.915" x="489" y="226.9639">openInsertPopup() : void</text><rect fill="#F24D5C" height="6" style="stroke:#C82930;stroke-width:1;" width="6" x="477" y="236.9141"/><text fill="#000000" font-family="sans-serif" font-size="14" lengthAdjust="spacing" textLength="179.3955" x="489" y="243.2607">openModifyPopup() : void</text><rect fill="#F24D5C" height="6" style="stroke:#C82930;stroke-width:1;" width="6" x="477" y="253.2109"/><text fill="#000000" font-family="sans-serif" font-size="14" lengthAdjust="spacing" textLength="201.9199" x="489" y="259.5576">removeFromRegister() : void</text><ellipse cx="480" cy="272.5078" fill="#84BE84" rx="3" ry="3" style="stroke:#038048;stroke-width:1;"/><text fill="#000000" font-family="sans-serif" font-size="14" lengthAdjust="spacing" textLength="468.4053" x="489" y="275.8545">setStudentRegister(in studentRegister : Register&lt;Student&gt;) : void</text></g><!--class SideBarController--><g class="entity" data-entity="SideBarController" data-source-line="23" data-uid="ent0003" id="entity_SideBarController"><rect fill="#F1F1F1" height="178.375" rx="2.5" ry="2.5" style="stroke:#181818;stroke-width:0.5;" width="226.751" x="1013.5" y="56"/><ellipse cx="1060.9312" cy="72" fill="#ADD1B2" rx="11" ry="11" style="stroke:#181818;stroke-width:1;"/><path d="M1063.8999,77.6406 Q1063.3218,77.9375 1062.6812,78.0781 Q1062.0405,78.2344 1061.3374,78.2344 Q1058.8374,78.2344 1057.5093,76.5938 Q1056.1968,74.9375 1056.1968,71.8125 Q1056.1968,68.6875 1057.5093,67.0313 Q1058.8374,65.375 1061.3374,65.375 Q1062.0405,65.375 1062.6812,65.5313 Q1063.3374,65.6875 1063.8999,65.9844 L1063.8999,68.7031 Q1063.2749,68.125 1062.6812,67.8594 Q1062.0874,67.5781 1061.4624,67.5781 Q1060.1187,67.5781 1059.4312,68.6563 Q1058.7437,69.7188 1058.7437,71.8125 Q1058.7437,73.9063 1059.4312,74.9844 Q1060.1187,76.0469 1061.4624,76.0469 Q1062.0874,76.0469 1062.6812,75.7813 Q1063.2749,75.5 1063.8999,74.9219 L1063.8999,77.6406 Z " fill="#000000"/><text fill="#000000" font-family="sans-serif" font-size="14" lengthAdjust="spacing" textLength="123.3887" x="1081.4312" y="76.8467">SideBarController</text><line style="stroke:#181818;stroke-width:0.5;" x1="1014.5" x2="1239.251" y1="88" y2="88"/><rect fill="none" height="6" style="stroke:#C82930;stroke-width:1;" width="6" x="1021.5" y="98.6484"/><text fill="#000000" font-family="sans-serif" font-size="14" lengthAdjust="spacing" textLength="110.8311" x="1033.5" y="104.9951">addBtn : Button</text><rect fill="none" height="6" style="stroke:#C82930;stroke-width:1;" width="6" x="1021.5" y="114.9453"/><text fill="#000000" font-family="sans-serif" font-size="14" lengthAdjust="spacing" textLength="165.2451" x="1033.5" y="121.292">searchBarTF : TextField</text><rect fill="none" height="6" style="stroke:#C82930;stroke-width:1;" width="6" x="1021.5" y="131.2422"/><text fill="#000000" font-family="sans-serif" font-size="14" lengthAdjust="spacing" textLength="137.9492" x="1033.5" y="137.5889">removeBtn : Button</text><rect fill="none" height="6" style="stroke:#C82930;stroke-width:1;" width="6" x="1021.5" y="147.5391"/><text fill="#000000" font-family="sans-serif" font-size="14" lengthAdjust="spacing" textLength="132.6719" x="1033.5" y="153.8857">modifyBtn : Button</text><line style="stroke:#181818;stroke-width:0.5;" x1="1014.5" x2="1239.251" y1="161.1875" y2="161.1875"/><ellipse cx="1024.5" cy="174.8359" fill="#84BE84" rx="3" ry="3" style="stroke:#038048;stroke-width:1;"/><text fill="#000000" font-family="sans-serif" font-size="14" lengthAdjust="spacing" textLength="145.7422" x="1033.5" y="178.1826">getAddBtn() : Button</text><ellipse cx="1024.5" cy="191.1328" fill="#84BE84" rx="3" ry="3" style="stroke:#038048;stroke-width:1;"/><text fill="#000000" font-family="sans-serif" font-size="14" lengthAdjust="spacing" textLength="200.751" x="1033.5" y="194.4795">getSearchBarTF() : TextField</text><ellipse cx="1024.5" cy="207.4297" fill="#84BE84" rx="3" ry="3" style="stroke:#038048;stroke-width:1;"/><text fill="#000000" font-family="sans-serif" font-size="14" lengthAdjust="spacing" textLength="175.834" x="1033.5" y="210.7764">getRemoveBtn() : Button</text><ellipse cx="1024.5" cy="223.7266" fill="#84BE84" rx="3" ry="3" style="stroke:#038048;stroke-width:1;"/><text fill="#000000" font-family="sans-serif" font-size="14" lengthAdjust="spacing" textLength="165.0264" x="1033.5" y="227.0732">getModifyBtn() : Button</text></g><!--class StudentInsertPopupController--><g class="entity" data-entity="StudentInsertPopupController" data-source-line="35" data-uid="ent0004" id="entity_StudentInsertPopupController"><rect fill="#F1F1F1" height="129.4844" rx="2.5" ry="2.5" style="stroke:#181818;stroke-width:0.5;" width="684.041" x="7" y="359.5"/><ellipse cx="240.7241" cy="375.5" fill="#ADD1B2" rx="11" ry="11" style="stroke:#181818;stroke-width:1;"/><path d="M243.6929,381.1406 Q243.1147,381.4375 242.4741,381.5781 Q241.8335,381.7344 241.1304,381.7344 Q238.6304,381.7344 237.3022,380.0938 Q235.9897,378.4375 235.9897,375.3125 Q235.9897,372.1875 237.3022,370.5313 Q238.6304,368.875 241.1304,368.875 Q241.8335,368.875 242.4741,369.0313 Q243.1304,369.1875 243.6929,369.4844 L243.6929,372.2031 Q243.0679,371.625 242.4741,371.3594 Q241.8804,371.0781 241.2554,371.0781 Q239.9116,371.0781 239.2241,372.1563 Q238.5366,373.2188 238.5366,375.3125 Q238.5366,377.4063 239.2241,378.4844 Q239.9116,379.5469 241.2554,379.5469 Q241.8804,379.5469 242.4741,379.2813 Q243.0679,379 243.6929,378.4219 L243.6929,381.1406 Z " fill="#000000"/><text fill="#000000" font-family="sans-serif" font-size="14" lengthAdjust="spacing" textLength="208.0928" x="261.2241" y="380.3467">StudentInsertPopupController</text><line style="stroke:#181818;stroke-width:0.5;" x1="8" x2="690.041" y1="391.5" y2="391.5"/><rect fill="none" height="6" style="stroke:#C82930;stroke-width:1;" width="6" x="15" y="402.1484"/><text fill="#000000" font-family="sans-serif" font-size="14" lengthAdjust="spacing" textLength="345.6865" x="27" y="408.4951">studentRegisterAdder : RegisterAdder&lt;Student&gt;</text><rect fill="none" height="6" style="stroke:#C82930;stroke-width:1;" width="6" x="15" y="418.4453"/><text fill="#000000" font-family="sans-serif" font-size="14" lengthAdjust="spacing" textLength="388.6709" x="27" y="424.792">studentRegisterValidator : RegisterValidator&lt;Student&gt;</text><line style="stroke:#181818;stroke-width:0.5;" x1="8" x2="690.041" y1="432.0938" y2="432.0938"/><ellipse cx="18" cy="445.7422" fill="#84BE84" rx="3" ry="3" style="stroke:#038048;stroke-width:1;"/><text fill="#000000" font-family="sans-serif" font-size="14" lengthAdjust="spacing" textLength="112.5195" x="27" y="449.0889">initialize() : void</text><ellipse cx="18" cy="462.0391" fill="#84BE84" rx="3" ry="3" style="stroke:#038048;stroke-width:1;"/><text fill="#000000" font-family="sans-serif" font-size="14" lengthAdjust="spacing" textLength="593.5645" x="27" y="465.3857">setStudentRegisterAdder(in studentRegisterAdder : RegisterAdder&lt;Student&gt;) : void</text><ellipse cx="18" cy="478.3359" fill="#84BE84" rx="3" ry="3" style="stroke:#038048;stroke-width:1;"/><text fill="#000000" font-family="sans-serif" font-size="14" lengthAdjust="spacing" textLength="658.041" x="27" y="481.6826">setStudentRegisterValidator(in studentRegisterValidator : RegisterValidator&lt;Student&gt;) : void</text></g><!--class StudentModifyPopupController--><g class="entity" data-entity="StudentModifyPopupController" data-source-line="44" data-uid="ent0005" id="entity_StudentModifyPopupController"><rect fill="#F1F1F1" height="162.0781" rx="2.5" ry="2.5" style="stroke:#181818;stroke-width:0.5;" width="684.041" x="741" y="343"/><ellipse cx="971.4839" cy="359" fill="#ADD1B2" rx="11" ry="11" style="stroke:#181818;stroke-width:1;"/><path d="M974.4526,364.6406 Q973.8745,364.9375 973.2339,365.0781 Q972.5933,365.2344 971.8901,365.2344 Q969.3901,365.2344 968.062,363.5938 Q966.7495,361.9375 966.7495,358.8125 Q966.7495,355.6875 968.062,354.0313 Q969.3901,352.375 971.8901,352.375 Q972.5933,352.375 973.2339,352.5313 Q973.8901,352.6875 974.4526,352.9844 L974.4526,355.7031 Q973.8276,355.125 973.2339,354.8594 Q972.6401,354.5781 972.0151,354.5781 Q970.6714,354.5781 969.9839,355.6563 Q969.2964,356.7188 969.2964,358.8125 Q969.2964,360.9063 969.9839,361.9844 Q970.6714,363.0469 972.0151,363.0469 Q972.6401,363.0469 973.2339,362.7813 Q973.8276,362.5 974.4526,361.9219 L974.4526,364.6406 Z " fill="#000000"/><text fill="#000000" font-family="sans-serif" font-size="14" lengthAdjust="spacing" textLength="214.5732" x="991.9839" y="363.8467">StudentModifyPopupController</text><line style="stroke:#181818;stroke-width:0.5;" x1="742" x2="1424.041" y1="375" y2="375"/><rect fill="none" height="6" style="stroke:#C82930;stroke-width:1;" width="6" x="749" y="385.6484"/><text fill="#000000" font-family="sans-serif" font-size="14" lengthAdjust="spacing" textLength="375.4639" x="761" y="391.9951">studentRegisterModifier : RegisterModifier&lt;Student&gt;</text><rect fill="none" height="6" style="stroke:#C82930;stroke-width:1;" width="6" x="749" y="401.9453"/><text fill="#000000" font-family="sans-serif" font-size="14" lengthAdjust="spacing" textLength="388.6709" x="761" y="408.292">studentRegisterValidator : RegisterValidator&lt;Student&gt;</text><rect fill="none" height="6" style="stroke:#C82930;stroke-width:1;" width="6" x="749" y="418.2422"/><text fill="#000000" font-family="sans-serif" font-size="14" lengthAdjust="spacing" textLength="181.5488" x="761" y="424.5889">studentToModify: Student</text><line style="stroke:#181818;stroke-width:0.5;" x1="742" x2="1424.041" y1="431.8906" y2="431.8906"/><ellipse cx="752" cy="445.5391" fill="#84BE84" rx="3" ry="3" style="stroke:#038048;stroke-width:1;"/><text fill="#000000" font-family="sans-serif" font-size="14" lengthAdjust="spacing" textLength="112.5195" x="761" y="448.8857">initialize() : void</text><ellipse cx="752" cy="461.8359" fill="#84BE84" rx="3" ry="3" style="stroke:#038048;stroke-width:1;"/><text fill="#000000" font-family="sans-serif" font-size="14" lengthAdjust="spacing" textLength="397.6396" x="761" y="465.1826">setStudentToModify(in studentToModify : Student) : void</text><ellipse cx="752" cy="478.1328" fill="#84BE84" rx="3" ry="3" style="stroke:#038048;stroke-width:1;"/><text fill="#000000" font-family="sans-serif" font-size="14" lengthAdjust="spacing" textLength="638.2305" x="761" y="481.4795">setStudentRegisterModifier(in studentRegisterModifier : RegisterModifier&lt;Student&gt;) : void</text><ellipse cx="752" cy="494.4297" fill="#84BE84" rx="3" ry="3" style="stroke:#038048;stroke-width:1;"/><text fill="#000000" font-family="sans-serif" font-size="14" lengthAdjust="spacing" textLength="658.041" x="761" y="497.7764">setStudentRegisterValidator(in studentRegisterValidator : RegisterValidator&lt;Student&gt;) : void</text></g><!--class RegisterAdder--><g class="entity" data-entity="RegisterAdder" data-source-line="55" data-uid="ent0006" id="entity_RegisterAdder"><rect fill="#F1F1F1" height="64.2969" rx="2.5" ry="2.5" style="stroke:#181818;stroke-width:0.5;" width="204.1035" x="224" y="565"/><ellipse cx="266.3529" cy="581" fill="#B4A7E5" rx="11" ry="11" style="stroke:#181818;stroke-width:1;"/><path d="M262.2748,576.7656 L262.2748,574.6094 L269.6654,574.6094 L269.6654,576.7656 L267.1966,576.7656 L267.1966,584.8438 L269.6654,584.8438 L269.6654,587 L262.2748,587 L262.2748,584.8438 L264.7435,584.8438 L264.7435,576.7656 L262.2748,576.7656 Z " fill="#000000"/><text fill="#000000" font-family="sans-serif" font-size="14" font-style="italic" lengthAdjust="spacing" textLength="99.9893" x="286.4313" y="585.8467">RegisterAdder</text><rect fill="#FFFFFF" height="15.9688" style="stroke:#181818;stroke-width:1;stroke-dasharray:2,2;" width="9.3301" x="421.7734" y="562"/><text fill="#000000" font-family="sans-serif" font-size="12" font-style="italic" lengthAdjust="spacing" textLength="7.3301" x="422.7734" y="574.1387">T</text><line style="stroke:#181818;stroke-width:0.5;" x1="225" x2="427.1035" y1="597" y2="597"/><line style="stroke:#181818;stroke-width:0.5;" x1="225" x2="427.1035" y1="605" y2="605"/><text fill="#000000" font-family="sans-serif" font-size="14" lengthAdjust="spacing" textLength="192.1035" x="230" y="621.9951">add(in toAdd  : T) : boolean</text></g><!--class RegisterModifier--><g class="entity" data-entity="RegisterModifier" data-source-line="59" data-uid="ent0007" id="entity_RegisterModifier"><rect fill="#F1F1F1" height="64.2969" rx="2.5" ry="2.5" style="stroke:#181818;stroke-width:0.5;" width="278.6494" x="966.5" y="565"/><ellipse cx="1038.4707" cy="581" fill="#B4A7E5" rx="11" ry="11" style="stroke:#181818;stroke-width:1;"/><path d="M1034.3926,576.7656 L1034.3926,574.6094 L1041.7832,574.6094 L1041.7832,576.7656 L1039.3145,576.7656 L1039.3145,584.8438 L1041.7832,584.8438 L1041.7832,587 L1034.3926,587 L1034.3926,584.8438 L1036.8613,584.8438 L1036.8613,576.7656 L1034.3926,576.7656 Z " fill="#000000"/><text fill="#000000" font-family="sans-serif" font-size="14" font-style="italic" lengthAdjust="spacing" textLength="114.8779" x="1058.9707" y="585.8467">RegisterModifier</text><rect fill="#FFFFFF" height="15.9688" style="stroke:#181818;stroke-width:1;stroke-dasharray:2,2;" width="9.3301" x="1238.8193" y="562"/><text fill="#000000" font-family="sans-serif" font-size="12" font-style="italic" lengthAdjust="spacing" textLength="7.3301" x="1239.8193" y="574.1387">T</text><line style="stroke:#181818;stroke-width:0.5;" x1="967.5" x2="1244.1494" y1="597" y2="597"/><line style="stroke:#181818;stroke-width:0.5;" x1="967.5" x2="1244.1494" y1="605" y2="605"/><text fill="#000000" font-family="sans-serif" font-size="14" lengthAdjust="spacing" textLength="266.6494" x="972.5" y="621.9951">modify(in old : T, in new : T) : boolean</text></g><!--class RegisterValidator--><g class="entity" data-entity="RegisterValidator" data-source-line="63" data-uid="ent0008" id="entity_RegisterValidator"><rect fill="#F1F1F1" height="64.2969" rx="2.5" ry="2.5" style="stroke:#181818;stroke-width:0.5;" width="233.0059" x="580.5" y="565"/><ellipse cx="626.3472" cy="581" fill="#B4A7E5" rx="11" ry="11" style="stroke:#181818;stroke-width:1;"/><path d="M622.269,576.7656 L622.269,574.6094 L629.6597,574.6094 L629.6597,576.7656 L627.1909,576.7656 L627.1909,584.8438 L629.6597,584.8438 L629.6597,587 L622.269,587 L622.269,584.8438 L624.7378,584.8438 L624.7378,576.7656 L622.269,576.7656 Z " fill="#000000"/><text fill="#000000" font-family="sans-serif" font-size="14" font-style="italic" lengthAdjust="spacing" textLength="121.4814" x="646.8472" y="585.8467">RegisterValidator</text><rect fill="#FFFFFF" height="15.9688" style="stroke:#181818;stroke-width:1;stroke-dasharray:2,2;" width="9.3301" x="807.1758" y="562"/><text fill="#000000" font-family="sans-serif" font-size="12" font-style="italic" lengthAdjust="spacing" textLength="7.3301" x="808.1758" y="574.1387">T</text><line style="stroke:#181818;stroke-width:0.5;" x1="581.5" x2="812.5059" y1="597" y2="597"/><line style="stroke:#181818;stroke-width:0.5;" x1="581.5" x2="812.5059" y1="605" y2="605"/><text fill="#000000" font-family="sans-serif" font-size="14" lengthAdjust="spacing" textLength="221.0059" x="586.5" y="621.9951">isValid(in toVerify : T) : boolean</text></g><!--class StudentPopupController--><g class="entity" data-entity="StudentPopupController" data-source-line="68" data-uid="ent0009" id="entity_StudentPopupController"><rect fill="#F1F1F1" height="178.375" rx="2.5" ry="2.5" style="stroke:#181818;stroke-width:0.5;" width="356.4766" x="519" y="689"/><ellipse cx="609.019" cy="705" fill="#A9DCDF" rx="11" ry="11" style="stroke:#181818;stroke-width:1;"/><path d="M609.1284,700.3438 L607.9722,705.4219 L610.3003,705.4219 L609.1284,700.3438 Z M607.644,698.1094 L610.6284,698.1094 L613.9878,710.5 L611.5347,710.5 L610.769,707.4375 L607.4878,707.4375 L606.7378,710.5 L604.3003,710.5 L607.644,698.1094 Z " fill="#000000"/><text fill="#000000" font-family="sans-serif" font-size="14" font-style="italic" lengthAdjust="spacing" textLength="167.9385" x="629.519" y="709.8467">StudentPopupController</text><line style="stroke:#181818;stroke-width:0.5;" x1="520" x2="874.4766" y1="721" y2="721"/><polygon fill="none" points="530,729.6484,534,733.6484,530,737.6484,526,733.6484" style="stroke:#B38D22;stroke-width:1;"/><text fill="#000000" font-family="sans-serif" font-size="14" lengthAdjust="spacing" textLength="134.1963" x="539" y="737.9951">nameTF : TextField</text><polygon fill="none" points="530,745.9453,534,749.9453,530,753.9453,526,749.9453" style="stroke:#B38D22;stroke-width:1;"/><text fill="#000000" font-family="sans-serif" font-size="14" lengthAdjust="spacing" textLength="156.1191" x="539" y="754.292">surnameTF : TextField</text><polygon fill="none" points="530,762.2422,534,766.2422,530,770.2422,526,766.2422" style="stroke:#B38D22;stroke-width:1;"/><text fill="#000000" font-family="sans-serif" font-size="14" lengthAdjust="spacing" textLength="161.0273" x="539" y="770.5889">studentIdTF : TextField</text><polygon fill="none" points="530,778.5391,534,782.5391,530,786.5391,526,782.5391" style="stroke:#B38D22;stroke-width:1;"/><text fill="#000000" font-family="sans-serif" font-size="14" lengthAdjust="spacing" textLength="133.1025" x="539" y="786.8857">emailTF : TextField</text><polygon fill="none" points="530,794.8359,534,798.8359,530,802.8359,526,798.8359" style="stroke:#B38D22;stroke-width:1;"/><text fill="#000000" font-family="sans-serif" font-size="14" lengthAdjust="spacing" textLength="137.8262" x="539" y="803.1826">confirmBtn : Button</text><polygon fill="none" points="530,811.1328,534,815.1328,530,819.1328,526,815.1328" style="stroke:#B38D22;stroke-width:1;"/><text fill="#000000" font-family="sans-serif" font-size="14" lengthAdjust="spacing" textLength="129.8281" x="539" y="819.4795">cancelBtn : Button</text><line style="stroke:#181818;stroke-width:0.5;" x1="520" x2="874.4766" y1="826.7813" y2="826.7813"/><polygon fill="#FFFF44" points="530,835.4297,534,839.4297,530,843.4297,526,839.4297" style="stroke:#B38D22;stroke-width:1;"/><text fill="#000000" font-family="sans-serif" font-size="14" lengthAdjust="spacing" textLength="330.4766" x="539" y="843.7764">confirmBtnAction(in event : ActionEvent) : void</text><polygon fill="#FFFF44" points="530,851.7266,534,855.7266,530,859.7266,526,855.7266" style="stroke:#B38D22;stroke-width:1;"/><text fill="#000000" font-family="sans-serif" font-size="14" lengthAdjust="spacing" textLength="322.4785" x="539" y="860.0732">cancelBtnAction(in event : ActionEvent) : void</text></g><!--link StudentInsertPopupController to StudentPopupController--><g class="link" data-entity-1="StudentInsertPopupController" data-entity-2="StudentPopupController" data-source-line="82" data-uid="lnk10" id="link_StudentInsertPopupController_StudentPopupController"><path codeLine="82" d="M412.02,488.74 C467.35,544.71 535.7253,613.8693 597.2553,676.1093" fill="none" id="StudentInsertPopupController-to-StudentPopupController" style="stroke:#181818;stroke-width:1;"/><polygon fill="none" points="609.91,688.91,601.5222,671.891,592.9884,680.3275,609.91,688.91" style="stroke:#181818;stroke-width:1;"/></g><!--link StudentModifyPopupController to StudentPopupController--><g class="link" data-entity-1="StudentModifyPopupController" data-entity-2="StudentPopupController" data-source-line="83" data-uid="lnk11" id="link_StudentModifyPopupController_StudentPopupController"><path codeLine="83" d="M994.93,505.31 C934.96,560 868.8804,620.2615 807.1404,676.5615" fill="none" id="StudentModifyPopupController-to-StudentPopupController" style="stroke:#181818;stroke-width:1;"/><polygon fill="none" points="793.84,688.69,811.1832,680.995,803.0976,672.1281,793.84,688.69" style="stroke:#181818;stroke-width:1;"/></g><!--link StudentInsertPopupController to RegisterValidator--><g class="link" data-entity-1="StudentInsertPopupController" data-entity-2="RegisterValidator" data-source-line="86" data-uid="lnk12" id="link_StudentInsertPopupController_RegisterValidator"><path codeLine="86" d="M478.58,488.67 C531.53,514.69 584.9749,540.9541 628.2249,562.2041" fill="none" id="StudentInsertPopupController-to-RegisterValidator" style="stroke:#181818;stroke-width:1;"/><polygon fill="#181818" points="633.61,564.85,627.2962,557.2911,629.1224,562.6451,623.7684,564.4713,633.61,564.85" style="stroke:#181818;stroke-width:1;"/></g><!--link StudentInsertPopupController to RegisterAdder--><g class="link" data-entity-1="StudentInsertPopupController" data-entity-2="RegisterAdder" data-source-line="87" data-uid="lnk13" id="link_StudentInsertPopupController_RegisterAdder"><path codeLine="87" d="M340.44,488.67 C336.94,514.69 333.8503,537.6536 330.9903,558.9036" fill="none" id="StudentInsertPopupController-to-RegisterAdder" style="stroke:#181818;stroke-width:1;"/><polygon fill="#181818" points="330.19,564.85,335.3547,556.464,330.8569,559.8947,327.4262,555.3969,330.19,564.85" style="stroke:#181818;stroke-width:1;"/></g><!--link StudentModifyPopupController to RegisterValidator--><g class="link" data-entity-1="StudentModifyPopupController" data-entity-2="RegisterValidator" data-source-line="89" data-uid="lnk14" id="link_StudentModifyPopupController_RegisterValidator"><path codeLine="89" d="M902.15,505.12 C854.12,526.4 810.5658,545.6897 772.4858,562.5597" fill="none" id="StudentModifyPopupController-to-RegisterValidator" style="stroke:#181818;stroke-width:1;"/><polygon fill="#181818" points="767,564.99,776.8489,565.0018,771.5715,562.9648,773.6085,557.6874,767,564.99" style="stroke:#181818;stroke-width:1;"/></g><!--link StudentModifyPopupController to RegisterModifier--><g class="link" data-entity-1="StudentModifyPopupController" data-entity-2="RegisterModifier" data-source-line="90" data-uid="lnk15" id="link_StudentModifyPopupController_RegisterModifier"><path codeLine="90" d="M1093.79,505.24 C1096.64,526.42 1098.751,542.0734 1101.011,558.8934" fill="none" id="StudentModifyPopupController-to-RegisterModifier" style="stroke:#181818;stroke-width:1;"/><polygon fill="#181818" points="1101.81,564.84,1104.5759,555.3875,1101.1442,559.8845,1096.6471,556.4528,1101.81,564.84" style="stroke:#181818;stroke-width:1;"/></g><!--link StudentRegisterController to SideBarController--><g class="link" data-entity-1="StudentRegisterController" data-entity-2="SideBarController" data-source-line="94" data-uid="lnk16" id="link_StudentRegisterController_SideBarController"><path codeLine="94" d="M963.24,145 C979.98,145 990.72,145 1007.46,145" fill="none" id="StudentRegisterController-to-SideBarController" style="stroke:#181818;stroke-width:1;"/><polygon fill="#181818" points="1013.46,145,1004.46,141,1008.46,145,1004.46,149,1013.46,145" style="stroke:#181818;stroke-width:1;"/><text fill="#000000" font-family="sans-serif" font-size="13" lengthAdjust="spacing" textLength="8.271" x="971.4816" y="141.8204">1</text><text fill="#000000" font-family="sans-serif" font-size="13" lengthAdjust="spacing" textLength="8.271" x="997.2138" y="141.531">1</text></g><!--link StudentRegisterController to StudentInsertPopupController--><g class="link" data-entity-1="StudentRegisterController" data-entity-2="StudentInsertPopupController" data-source-line="95" data-uid="lnk17" id="link_StudentRegisterController_StudentInsertPopupController"><path codeLine="95" d="M534.38,283.08 C499.02,309.77 468.3597,332.9164 438.0597,355.7764" fill="none" id="StudentRegisterController-to-StudentInsertPopupController" style="stroke:#181818;stroke-width:1;"/><polygon fill="#181818" points="433.27,359.39,442.8637,357.1627,437.2614,356.3786,438.0455,350.7764,433.27,359.39" style="stroke:#181818;stroke-width:1;"/><text fill="#000000" font-family="sans-serif" font-size="13" lengthAdjust="spacing" textLength="8.271" x="516.2252" y="303.1077">1</text><text fill="#000000" font-family="sans-serif" font-size="13" lengthAdjust="spacing" textLength="8.271" x="434.0621" y="348.5506">1</text></g><!--link StudentRegisterController to StudentModifyPopupController--><g class="link" data-entity-1="StudentRegisterController" data-entity-2="StudentModifyPopupController" data-source-line="96" data-uid="lnk18" id="link_StudentRegisterController_StudentModifyPopupController"><path codeLine="96" d="M897.62,283.08 C924.68,303.51 947.0114,320.3549 971.8214,339.0849" fill="none" id="StudentRegisterController-to-StudentModifyPopupController" style="stroke:#181818;stroke-width:1;"/><polygon fill="#181818" points="976.61,342.7,971.8371,334.0849,972.6195,339.6874,967.017,340.4697,976.61,342.7" style="stroke:#181818;stroke-width:1;"/><text fill="#000000" font-family="sans-serif" font-size="13" lengthAdjust="spacing" textLength="8.271" x="899.3299" y="303.1077">1</text><text fill="#000000" font-family="sans-serif" font-size="13" lengthAdjust="spacing" textLength="8.271" x="958.7886" y="331.8606">1</text></g><!--link RegisterAdder to RegisterValidator--><!--SRC=[lLPBZzem4BxxLrZBWQtOIEsXbwf22WYgI3nMG3bGzM2I0QmcDd8CsvRkVw-TuCHv4BAgr5EScVc-UVeH_w3iI0I9CEC1n7347zyZv8SaZl5IdW9WSW5x6aiGGywau648ue9wb559IKX_m-Cx_0cVEGsG4wU05Tc6e8J9TqtXvVELgOySHY8OXf7H3dbuYfZHFocNWhAziejFehLfAl62DiOG4Hg-WTKah-pDqiecfW4CY5KPPROio_88MGn2FlFZwLX4DAWpy9G7TFVh9hXMZP33Zy0iOgjPMcEXB8s0Y9zXB7XaKiwLlHXaQIuUASCjgfLHl2AKJLYvLXVaa20OIAQC1oSfELC502ByWp9RZNNNuASSKmYpE8l6KP9HGOPwUv1kmfhaSHLhwJAdJbGvkTOk37yPDZLERCLhQTlKjlFEpZ55Kz4MYfZystDND5yhke18RaCoMGwhQrx2NDF1vWYQnY5pNCFQBb1xKWebhHto6oMr8bln56W5P4Jv1hhPYyIG5efXHF_S4QSKJXPDRQ-Csvh2jWdo_pMDCcMo8pwKncVLlo2rlRKFoPK8wosdWLlEGo2i7fibek5HraaU1Xh-XDMQmKihgZnipKNZv3yDPmqYdOSo2oBRM0hYIroOnSeKTlHzLJgYEjThh28sLrPPaLnFPQ7FsOwAg72eTNp2V0YB1vrbwVgISgPJWxFof8nIoUXipthEqiu-ERgRpZViECwV_eqQeQPjt8oyvpLm-jKctukqNnnFT2U-HX-tSkfNnjWgOVLbXHy-F617A9XUL9yITu210JQzADx6SUDXqUrsySIRZLmySvV3-NBbukVH0a-zBnDlld0N8pnnyTfRVdKdtcRZRhpvR8IAbulpxK3LWdqNT7-GJarjbPE_]--></g></svg>