<svg xmlns="http://www.w3.org/2000/svg" xmlns:xlink="http://www.w3.org/1999/xlink" contentStyleType="text/css" data-diagram-type="CLASS" height="512px" preserveAspectRatio="none" style="width:1417px;height:512px;background:#FFFFFF;" version="1.1" viewBox="0 0 1417 512" width="1417px" zoomAndPan="magnify"><defs/><g><!--class StudentRegisterController--><g class="entity" data-entity="StudentRegisterController" data-source-line="1" data-uid="ent0002" id="entity_StudentRegisterController"><rect fill="#F1F1F1" height="276.1563" rx="2.5" ry="2.5" style="stroke:#181818;stroke-width:0.5;" width="494.4053" x="460.82" y="7"/><ellipse cx="612.4958" cy="23" fill="#ADD1B2" rx="11" ry="11" style="stroke:#181818;stroke-width:1;"/><path d="M615.4645,28.6406 Q614.8864,28.9375 614.2458,29.0781 Q613.6052,29.2344 612.902,29.2344 Q610.402,29.2344 609.0739,27.5938 Q607.7614,25.9375 607.7614,22.8125 Q607.7614,19.6875 609.0739,18.0313 Q610.402,16.375 612.902,16.375 Q613.6052,16.375 614.2458,16.5313 Q614.902,16.6875 615.4645,16.9844 L615.4645,19.7031 Q614.8395,19.125 614.2458,18.8594 Q613.652,18.5781 613.027,18.5781 Q611.6833,18.5781 610.9958,19.6563 Q610.3083,20.7188 610.3083,22.8125 Q610.3083,24.9063 610.9958,25.9844 Q611.6833,27.0469 613.027,27.0469 Q613.652,27.0469 614.2458,26.7813 Q614.8395,26.5 615.4645,25.9219 L615.4645,28.6406 Z " fill="#000000"/><text fill="#000000" font-family="sans-serif" font-size="14" lengthAdjust="spacing" textLength="182.5537" x="632.9958" y="27.8467">StudentRegisterController</text><line style="stroke:#181818;stroke-width:0.5;" x1="461.82" x2="954.2253" y1="39" y2="39"/><g data-visibility-modifier="PRIVATE_FIELD"><rect fill="none" height="6" style="stroke:#C82930;stroke-width:1;" width="6" x="468.82" y="49.6484"/></g><text fill="#000000" font-family="sans-serif" font-size="14" lengthAdjust="spacing" textLength="256.2793" x="480.82" y="55.9951">studentTable : TableView&lt;Student&gt;</text><g data-visibility-modifier="PRIVATE_FIELD"><rect fill="none" height="6" style="stroke:#C82930;stroke-width:1;" width="6" x="468.82" y="65.9453"/></g><text fill="#000000" font-family="sans-serif" font-size="14" lengthAdjust="spacing" textLength="302.0117" x="480.82" y="72.292">nameClm : TableColumn&lt;Student, String&gt;</text><g data-visibility-modifier="PRIVATE_FIELD"><rect fill="none" height="6" style="stroke:#C82930;stroke-width:1;" width="6" x="468.82" y="82.2422"/></g><text fill="#000000" font-family="sans-serif" font-size="14" lengthAdjust="spacing" textLength="323.9346" x="480.82" y="88.5889">surnameClm : TableColumn&lt;Student, String&gt;</text><g data-visibility-modifier="PRIVATE_FIELD"><rect fill="none" height="6" style="stroke:#C82930;stroke-width:1;" width="6" x="468.82" y="98.5391"/></g><text fill="#000000" font-family="sans-serif" font-size="14" lengthAdjust="spacing" textLength="328.8428" x="480.82" y="104.8857">studentIdClm : TableColumn&lt;Student, String&gt;</text><g data-visibility-modifier="PRIVATE_FIELD"><rect fill="none" height="6" style="stroke:#C82930;stroke-width:1;" width="6" x="468.82" y="114.8359"/></g><text fill="#000000" font-family="sans-serif" font-size="14" lengthAdjust="spacing" textLength="300.918" x="480.82" y="121.1826">emailClm : TableColumn&lt;Student, String&gt;</text><g data-visibility-modifier="PRIVATE_FIELD"><rect fill="none" height="6" style="stroke:#C82930;stroke-width:1;" width="6" x="468.82" y="131.1328"/></g><text fill="#000000" font-family="sans-serif" font-size="14" lengthAdjust="spacing" textLength="262.2471" x="480.82" y="137.4795">studentRegister : Register&lt;Student&gt;</text><g data-visibility-modifier="PRIVATE_FIELD"><rect fill="none" height="6" style="stroke:#C82930;stroke-width:1;" width="6" x="468.82" y="147.4297"/></g><text fill="#000000" font-family="sans-serif" font-size="14" lengthAdjust="spacing" textLength="258.8018" x="480.82" y="153.7764">sideBarController : SideBarController</text><g data-visibility-modifier="PRIVATE_FIELD"><rect fill="none" height="6" style="stroke:#C82930;stroke-width:1;" width="6" x="468.82" y="163.7266"/></g><text fill="#000000" font-family="sans-serif" font-size="14" lengthAdjust="spacing" textLength="428.21" x="480.82" y="170.0732">studentInsertPopupController : StudentInsertPopupController</text><g data-visibility-modifier="PRIVATE_FIELD"><rect fill="none" height="6" style="stroke:#C82930;stroke-width:1;" width="6" x="468.82" y="180.0234"/></g><text fill="#000000" font-family="sans-serif" font-size="14" lengthAdjust="spacing" textLength="441.1709" x="480.82" y="186.3701">studentModifyPopupController : StudentModifyPopupController</text><line style="stroke:#181818;stroke-width:0.5;" x1="461.82" x2="954.2253" y1="193.6719" y2="193.6719"/><g data-visibility-modifier="PUBLIC_METHOD"><ellipse cx="471.82" cy="207.3203" fill="#84BE84" rx="3" ry="3" style="stroke:#038048;stroke-width:1;"/></g><text fill="#000000" font-family="sans-serif" font-size="14" lengthAdjust="spacing" textLength="112.5195" x="480.82" y="210.667">initialize() : void</text><g data-visibility-modifier="PRIVATE_METHOD"><rect fill="#F24D5C" height="6" style="stroke:#C82930;stroke-width:1;" width="6" x="468.82" y="220.6172"/></g><text fill="#000000" font-family="sans-serif" font-size="14" lengthAdjust="spacing" textLength="172.915" x="480.82" y="226.9639">openInsertPopup() : void</text><g data-visibility-modifier="PRIVATE_METHOD"><rect fill="#F24D5C" height="6" style="stroke:#C82930;stroke-width:1;" width="6" x="468.82" y="236.9141"/></g><text fill="#000000" font-family="sans-serif" font-size="14" lengthAdjust="spacing" textLength="179.3955" x="480.82" y="243.2607">openModifyPopup() : void</text><g data-visibility-modifier="PRIVATE_METHOD"><rect fill="#F24D5C" height="6" style="stroke:#C82930;stroke-width:1;" width="6" x="468.82" y="253.2109"/></g><text fill="#000000" font-family="sans-serif" font-size="14" lengthAdjust="spacing" textLength="201.9199" x="480.82" y="259.5576">removeFromRegister() : void</text><g data-visibility-modifier="PUBLIC_METHOD"><ellipse cx="471.82" cy="272.5078" fill="#84BE84" rx="3" ry="3" style="stroke:#038048;stroke-width:1;"/></g><text fill="#000000" font-family="sans-serif" font-size="14" lengthAdjust="spacing" textLength="468.4053" x="480.82" y="275.8545">setStudentRegister(in studentRegister : Register&lt;Student&gt;) : void</text></g><!--class SideBarController--><g class="entity" data-entity="SideBarController" data-source-line="21" data-uid="ent0003" id="entity_SideBarController"><rect fill="#F1F1F1" height="178.375" rx="2.5" ry="2.5" style="stroke:#181818;stroke-width:0.5;" width="226.751" x="990.65" y="55.89"/><ellipse cx="1038.0812" cy="71.89" fill="#ADD1B2" rx="11" ry="11" style="stroke:#181818;stroke-width:1;"/><path d="M1041.0499,77.5306 Q1040.4718,77.8275 1039.8312,77.9681 Q1039.1905,78.1244 1038.4874,78.1244 Q1035.9874,78.1244 1034.6593,76.4838 Q1033.3468,74.8275 1033.3468,71.7025 Q1033.3468,68.5775 1034.6593,66.9213 Q1035.9874,65.265 1038.4874,65.265 Q1039.1905,65.265 1039.8312,65.4213 Q1040.4874,65.5775 1041.0499,65.8744 L1041.0499,68.5931 Q1040.4249,68.015 1039.8312,67.7494 Q1039.2374,67.4681 1038.6124,67.4681 Q1037.2687,67.4681 1036.5812,68.5463 Q1035.8937,69.6088 1035.8937,71.7025 Q1035.8937,73.7963 1036.5812,74.8744 Q1037.2687,75.9369 1038.6124,75.9369 Q1039.2374,75.9369 1039.8312,75.6713 Q1040.4249,75.39 1041.0499,74.8119 L1041.0499,77.5306 Z " fill="#000000"/><text fill="#000000" font-family="sans-serif" font-size="14" lengthAdjust="spacing" textLength="123.3887" x="1058.5812" y="76.7367">SideBarController</text><line style="stroke:#181818;stroke-width:0.5;" x1="991.65" x2="1216.401" y1="87.89" y2="87.89"/><g data-visibility-modifier="PRIVATE_FIELD"><rect fill="none" height="6" style="stroke:#C82930;stroke-width:1;" width="6" x="998.65" y="98.5384"/></g><text fill="#000000" font-family="sans-serif" font-size="14" lengthAdjust="spacing" textLength="110.8311" x="1010.65" y="104.8851">addBtn : Button</text><g data-visibility-modifier="PRIVATE_FIELD"><rect fill="none" height="6" style="stroke:#C82930;stroke-width:1;" width="6" x="998.65" y="114.8353"/></g><text fill="#000000" font-family="sans-serif" font-size="14" lengthAdjust="spacing" textLength="165.2451" x="1010.65" y="121.182">searchBarTF : TextField</text><g data-visibility-modifier="PRIVATE_FIELD"><rect fill="none" height="6" style="stroke:#C82930;stroke-width:1;" width="6" x="998.65" y="131.1322"/></g><text fill="#000000" font-family="sans-serif" font-size="14" lengthAdjust="spacing" textLength="137.9492" x="1010.65" y="137.4789">removeBtn : Button</text><g data-visibility-modifier="PRIVATE_FIELD"><rect fill="none" height="6" style="stroke:#C82930;stroke-width:1;" width="6" x="998.65" y="147.4291"/></g><text fill="#000000" font-family="sans-serif" font-size="14" lengthAdjust="spacing" textLength="132.6719" x="1010.65" y="153.7757">modifyBtn : Button</text><line style="stroke:#181818;stroke-width:0.5;" x1="991.65" x2="1216.401" y1="161.0775" y2="161.0775"/><g data-visibility-modifier="PUBLIC_METHOD"><ellipse cx="1001.65" cy="174.7259" fill="#84BE84" rx="3" ry="3" style="stroke:#038048;stroke-width:1;"/></g><text fill="#000000" font-family="sans-serif" font-size="14" lengthAdjust="spacing" textLength="145.7422" x="1010.65" y="178.0726">getAddBtn() : Button</text><g data-visibility-modifier="PUBLIC_METHOD"><ellipse cx="1001.65" cy="191.0228" fill="#84BE84" rx="3" ry="3" style="stroke:#038048;stroke-width:1;"/></g><text fill="#000000" font-family="sans-serif" font-size="14" lengthAdjust="spacing" textLength="200.751" x="1010.65" y="194.3695">getSearchBarTF() : TextField</text><g data-visibility-modifier="PUBLIC_METHOD"><ellipse cx="1001.65" cy="207.3197" fill="#84BE84" rx="3" ry="3" style="stroke:#038048;stroke-width:1;"/></g><text fill="#000000" font-family="sans-serif" font-size="14" lengthAdjust="spacing" textLength="175.834" x="1010.65" y="210.6664">getRemoveBtn() : Button</text><g data-visibility-modifier="PUBLIC_METHOD"><ellipse cx="1001.65" cy="223.6166" fill="#84BE84" rx="3" ry="3" style="stroke:#038048;stroke-width:1;"/></g><text fill="#000000" font-family="sans-serif" font-size="14" lengthAdjust="spacing" textLength="165.0264" x="1010.65" y="226.9632">getModifyBtn() : Button</text></g><!--class StudentInsertPopupController--><g class="entity" data-entity="StudentInsertPopupController" data-source-line="33" data-uid="ent0004" id="entity_StudentInsertPopupController"><rect fill="#F1F1F1" height="129.4844" rx="2.5" ry="2.5" style="stroke:#181818;stroke-width:0.5;" width="684.041" x="7" y="359.45"/><ellipse cx="240.7241" cy="375.45" fill="#ADD1B2" rx="11" ry="11" style="stroke:#181818;stroke-width:1;"/><path d="M243.6929,381.0906 Q243.1147,381.3875 242.4741,381.5281 Q241.8335,381.6844 241.1304,381.6844 Q238.6304,381.6844 237.3022,380.0438 Q235.9897,378.3875 235.9897,375.2625 Q235.9897,372.1375 237.3022,370.4813 Q238.6304,368.825 241.1304,368.825 Q241.8335,368.825 242.4741,368.9813 Q243.1304,369.1375 243.6929,369.4344 L243.6929,372.1531 Q243.0679,371.575 242.4741,371.3094 Q241.8804,371.0281 241.2554,371.0281 Q239.9116,371.0281 239.2241,372.1063 Q238.5366,373.1688 238.5366,375.2625 Q238.5366,377.3563 239.2241,378.4344 Q239.9116,379.4969 241.2554,379.4969 Q241.8804,379.4969 242.4741,379.2313 Q243.0679,378.95 243.6929,378.3719 L243.6929,381.0906 Z " fill="#000000"/><text fill="#000000" font-family="sans-serif" font-size="14" lengthAdjust="spacing" textLength="208.0928" x="261.2241" y="380.2967">StudentInsertPopupController</text><line style="stroke:#181818;stroke-width:0.5;" x1="8" x2="690.041" y1="391.45" y2="391.45"/><g data-visibility-modifier="PRIVATE_FIELD"><rect fill="none" height="6" style="stroke:#C82930;stroke-width:1;" width="6" x="15" y="402.0984"/></g><text fill="#000000" font-family="sans-serif" font-size="14" lengthAdjust="spacing" textLength="345.6865" x="27" y="408.4451">studentRegisterAdder : RegisterAdder&lt;Student&gt;</text><g data-visibility-modifier="PRIVATE_FIELD"><rect fill="none" height="6" style="stroke:#C82930;stroke-width:1;" width="6" x="15" y="418.3953"/></g><text fill="#000000" font-family="sans-serif" font-size="14" lengthAdjust="spacing" textLength="388.6709" x="27" y="424.742">studentRegisterValidator : RegisterValidator&lt;Student&gt;</text><line style="stroke:#181818;stroke-width:0.5;" x1="8" x2="690.041" y1="432.0438" y2="432.0438"/><g data-visibility-modifier="PUBLIC_METHOD"><ellipse cx="18" cy="445.6922" fill="#84BE84" rx="3" ry="3" style="stroke:#038048;stroke-width:1;"/></g><text fill="#000000" font-family="sans-serif" font-size="14" lengthAdjust="spacing" textLength="112.5195" x="27" y="449.0389">initialize() : void</text><g data-visibility-modifier="PUBLIC_METHOD"><ellipse cx="18" cy="461.9891" fill="#84BE84" rx="3" ry="3" style="stroke:#038048;stroke-width:1;"/></g><text fill="#000000" font-family="sans-serif" font-size="14" lengthAdjust="spacing" textLength="593.5645" x="27" y="465.3357">setStudentRegisterAdder(in studentRegisterAdder : RegisterAdder&lt;Student&gt;) : void</text><g data-visibility-modifier="PUBLIC_METHOD"><ellipse cx="18" cy="478.2859" fill="#84BE84" rx="3" ry="3" style="stroke:#038048;stroke-width:1;"/></g><text fill="#000000" font-family="sans-serif" font-size="14" lengthAdjust="spacing" textLength="658.041" x="27" y="481.6326">setStudentRegisterValidator(in studentRegisterValidator : RegisterValidator&lt;Student&gt;) : void</text></g><!--class StudentModifyPopupController--><g class="entity" data-entity="StudentModifyPopupController" data-source-line="42" data-uid="ent0005" id="entity_StudentModifyPopupController"><rect fill="#F1F1F1" height="162.0781" rx="2.5" ry="2.5" style="stroke:#181818;stroke-width:0.5;" width="684.041" x="726" y="343.15"/><ellipse cx="956.4839" cy="359.15" fill="#ADD1B2" rx="11" ry="11" style="stroke:#181818;stroke-width:1;"/><path d="M959.4526,364.7906 Q958.8745,365.0875 958.2339,365.2281 Q957.5933,365.3844 956.8901,365.3844 Q954.3901,365.3844 953.062,363.7438 Q951.7495,362.0875 951.7495,358.9625 Q951.7495,355.8375 953.062,354.1813 Q954.3901,352.525 956.8901,352.525 Q957.5933,352.525 958.2339,352.6813 Q958.8901,352.8375 959.4526,353.1344 L959.4526,355.8531 Q958.8276,355.275 958.2339,355.0094 Q957.6401,354.7281 957.0151,354.7281 Q955.6714,354.7281 954.9839,355.8063 Q954.2964,356.8688 954.2964,358.9625 Q954.2964,361.0563 954.9839,362.1344 Q955.6714,363.1969 957.0151,363.1969 Q957.6401,363.1969 958.2339,362.9313 Q958.8276,362.65 959.4526,362.0719 L959.4526,364.7906 Z " fill="#000000"/><text fill="#000000" font-family="sans-serif" font-size="14" lengthAdjust="spacing" textLength="214.5732" x="976.9839" y="363.9967">StudentModifyPopupController</text><line style="stroke:#181818;stroke-width:0.5;" x1="727" x2="1409.041" y1="375.15" y2="375.15"/><g data-visibility-modifier="PRIVATE_FIELD"><rect fill="none" height="6" style="stroke:#C82930;stroke-width:1;" width="6" x="734" y="385.7984"/></g><text fill="#000000" font-family="sans-serif" font-size="14" lengthAdjust="spacing" textLength="375.4639" x="746" y="392.1451">studentRegisterModifier : RegisterModifier&lt;Student&gt;</text><g data-visibility-modifier="PRIVATE_FIELD"><rect fill="none" height="6" style="stroke:#C82930;stroke-width:1;" width="6" x="734" y="402.0953"/></g><text fill="#000000" font-family="sans-serif" font-size="14" lengthAdjust="spacing" textLength="388.6709" x="746" y="408.442">studentRegisterValidator : RegisterValidator&lt;Student&gt;</text><g data-visibility-modifier="PRIVATE_FIELD"><rect fill="none" height="6" style="stroke:#C82930;stroke-width:1;" width="6" x="734" y="418.3922"/></g><text fill="#000000" font-family="sans-serif" font-size="14" lengthAdjust="spacing" textLength="181.5488" x="746" y="424.7389">studentToModify: Student</text><line style="stroke:#181818;stroke-width:0.5;" x1="727" x2="1409.041" y1="432.0406" y2="432.0406"/><g data-visibility-modifier="PUBLIC_METHOD"><ellipse cx="737" cy="445.6891" fill="#84BE84" rx="3" ry="3" style="stroke:#038048;stroke-width:1;"/></g><text fill="#000000" font-family="sans-serif" font-size="14" lengthAdjust="spacing" textLength="112.5195" x="746" y="449.0357">initialize() : void</text><g data-visibility-modifier="PUBLIC_METHOD"><ellipse cx="737" cy="461.9859" fill="#84BE84" rx="3" ry="3" style="stroke:#038048;stroke-width:1;"/></g><text fill="#000000" font-family="sans-serif" font-size="14" lengthAdjust="spacing" textLength="397.6396" x="746" y="465.3326">setStudentToModify(in studentToModify : Student) : void</text><g data-visibility-modifier="PUBLIC_METHOD"><ellipse cx="737" cy="478.2828" fill="#84BE84" rx="3" ry="3" style="stroke:#038048;stroke-width:1;"/></g><text fill="#000000" font-family="sans-serif" font-size="14" lengthAdjust="spacing" textLength="638.2305" x="746" y="481.6295">setStudentRegisterModifier(in studentRegisterModifier : RegisterModifier&lt;Student&gt;) : void</text><g data-visibility-modifier="PUBLIC_METHOD"><ellipse cx="737" cy="494.5797" fill="#84BE84" rx="3" ry="3" style="stroke:#038048;stroke-width:1;"/></g><text fill="#000000" font-family="sans-serif" font-size="14" lengthAdjust="spacing" textLength="658.041" x="746" y="497.9264">setStudentRegisterValidator(in studentRegisterValidator : RegisterValidator&lt;Student&gt;) : void</text></g><!--link StudentRegisterController to SideBarController--><g class="link" data-entity-1="StudentRegisterController" data-entity-2="SideBarController" data-source-line="55" data-uid="lnk6" id="link_StudentRegisterController_SideBarController"><path codeLine="55" d="M955.52,145.07 C967.12,145.07 972.72,145.07 984.33,145.07" fill="none" id="StudentRegisterController-to-SideBarController" style="stroke:#181818;stroke-width:1;"/><polygon fill="#181818" points="990.33,145.07,981.33,141.07,985.33,145.07,981.33,149.07,990.33,145.07" style="stroke:#181818;stroke-width:1;"/><text fill="#000000" font-family="sans-serif" font-size="13" lengthAdjust="spacing" textLength="8.271" x="962.9904" y="141.916">1</text><text fill="#000000" font-family="sans-serif" font-size="13" lengthAdjust="spacing" textLength="8.271" x="974.4314" y="141.6369">1</text></g><!--link StudentRegisterController to StudentInsertPopupController--><g class="link" data-entity-1="StudentRegisterController" data-entity-2="StudentInsertPopupController" data-source-line="56" data-uid="lnk7" id="link_StudentRegisterController_StudentInsertPopupController"><path codeLine="56" d="M529.84,283.62 C495.66,310 466.18,332.7543 436.83,355.4043" fill="none" id="StudentRegisterController-to-StudentInsertPopupController" style="stroke:#181818;stroke-width:1;"/><polygon fill="#181818" points="432.08,359.07,441.6488,356.7381,436.0384,356.0153,436.7612,350.4048,432.08,359.07" style="stroke:#181818;stroke-width:1;"/><text fill="#000000" font-family="sans-serif" font-size="13" lengthAdjust="spacing" textLength="8.271" x="512.4532" y="303.2206">1</text><text fill="#000000" font-family="sans-serif" font-size="13" lengthAdjust="spacing" textLength="8.271" x="432.742" y="348.2011">1</text></g><!--link StudentRegisterController to StudentModifyPopupController--><g class="link" data-entity-1="StudentRegisterController" data-entity-2="StudentModifyPopupController" data-source-line="57" data-uid="lnk8" id="link_StudentRegisterController_StudentModifyPopupController"><path codeLine="57" d="M886.7,283.62 C913.02,303.88 934.6253,320.5104 958.7653,339.0904" fill="none" id="StudentRegisterController-to-StudentModifyPopupController" style="stroke:#181818;stroke-width:1;"/><polygon fill="#181818" points="963.52,342.75,958.8277,334.0908,959.5577,339.7003,953.9482,340.4304,963.52,342.75" style="stroke:#181818;stroke-width:1;"/><text fill="#000000" font-family="sans-serif" font-size="13" lengthAdjust="spacing" textLength="8.271" x="887.7138" y="303.2206">1</text><text fill="#000000" font-family="sans-serif" font-size="13" lengthAdjust="spacing" textLength="8.271" x="946.2074" y="332.1794">1</text></g><!--SRC=[lLNBRi8m4BpxAwAUg6WElLOLKa52wW6f0iJTnLjgoR6HxT07uj_hEDYnKoS4LMek2JixuztPJTWoh5IsqYK1hfUmeqg3d0ckfM0Cv16DAQUQOaQ_ONIRFMG7GGdALKrOurS69cZl6meVZsUb2SevBc362eVE12iBxl0xSwIaV6VoL2a7fzQHPp8a6GfCsHMghdcJxnw3RXGbCCM1CoPjrOur5N85Kh-8VRcF6Jsm9oy4eMzVdUGaZ50kzi03uM1O5HAm0aH28Gumbw9mBJVWM85kxSM8yco0MrxYXCorhJUixTKHvPYGgUOcULfgBRWn0B3SlfkqzRoQ6dpgEGNcwuoJ2zjH54FZ7UWdgshxE8UhwAgHjb0ZNg5Bfz-cBTmX8N3oJVMCyyARuqmprKOcsj_XtiNf6oD7i1OXnSSQMcfuLZanmVuA-jR17vnG7LPek2cHfSabxx0qg6mjQc9Ga0irBr3dB6mYZSnmeJzF96-Luwj9pieTcp1sI97_DpI4ElywiflxcooN-SG-_FvMNY0IH-pxP5wdaLog7m00]--></g></svg>