<svg xmlns="http://www.w3.org/2000/svg" xmlns:xlink="http://www.w3.org/1999/xlink" contentStyleType="text/css" data-diagram-type="CLASS" height="414px" preserveAspectRatio="none" style="width:1261px;height:414px;background:#FFFFFF;" version="1.1" viewBox="0 0 1261 414" width="1261px" zoomAndPan="magnify"><defs/><g><!--class Student--><g class="entity" data-entity="Student" data-source-line="4" data-uid="ent0002" id="entity_Student"><rect fill="#F1F1F1" height="32" rx="2.5" ry="2.5" style="stroke:#181818;stroke-width:0.5;" width="87.1113" x="66.13" y="375"/><ellipse cx="81.13" cy="391" fill="#ADD1B2" rx="11" ry="11" style="stroke:#181818;stroke-width:1;"/><path d="M84.0988,396.6406 Q83.5206,396.9375 82.88,397.0781 Q82.2394,397.2344 81.5363,397.2344 Q79.0363,397.2344 77.7081,395.5938 Q76.3956,393.9375 76.3956,390.8125 Q76.3956,387.6875 77.7081,386.0313 Q79.0363,384.375 81.5363,384.375 Q82.2394,384.375 82.88,384.5313 Q83.5363,384.6875 84.0988,384.9844 L84.0988,387.7031 Q83.4738,387.125 82.88,386.8594 Q82.2863,386.5781 81.6613,386.5781 Q80.3175,386.5781 79.63,387.6563 Q78.9425,388.7188 78.9425,390.8125 Q78.9425,392.9063 79.63,393.9844 Q80.3175,395.0469 81.6613,395.0469 Q82.2863,395.0469 82.88,394.7813 Q83.4738,394.5 84.0988,393.9219 L84.0988,396.6406 Z " fill="#000000"/><text fill="#000000" font-family="sans-serif" font-size="14" lengthAdjust="spacing" textLength="55.1113" x="95.13" y="395.8467">Student</text></g><!--class Loan--><g class="entity" data-entity="Loan" data-source-line="4" data-uid="ent0003" id="entity_Loan"><rect fill="#F1F1F1" height="32" rx="2.5" ry="2.5" style="stroke:#181818;stroke-width:0.5;" width="65.8174" x="231.78" y="375"/><ellipse cx="246.78" cy="391" fill="#ADD1B2" rx="11" ry="11" style="stroke:#181818;stroke-width:1;"/><path d="M249.7488,396.6406 Q249.1706,396.9375 248.53,397.0781 Q247.8894,397.2344 247.1863,397.2344 Q244.6863,397.2344 243.3581,395.5938 Q242.0456,393.9375 242.0456,390.8125 Q242.0456,387.6875 243.3581,386.0313 Q244.6863,384.375 247.1863,384.375 Q247.8894,384.375 248.53,384.5313 Q249.1863,384.6875 249.7488,384.9844 L249.7488,387.7031 Q249.1238,387.125 248.53,386.8594 Q247.9363,386.5781 247.3113,386.5781 Q245.9675,386.5781 245.28,387.6563 Q244.5925,388.7188 244.5925,390.8125 Q244.5925,392.9063 245.28,393.9844 Q245.9675,395.0469 247.3113,395.0469 Q247.9363,395.0469 248.53,394.7813 Q249.1238,394.5 249.7488,393.9219 L249.7488,396.6406 Z " fill="#000000"/><text fill="#000000" font-family="sans-serif" font-size="14" lengthAdjust="spacing" textLength="33.8174" x="260.78" y="395.8467">Loan</text></g><!--class Book--><g class="entity" data-entity="Book" data-source-line="6" data-uid="ent0005" id="entity_Book"><rect fill="#F1F1F1" height="32" rx="2.5" ry="2.5" style="stroke:#181818;stroke-width:0.5;" width="66.8428" x="377.27" y="375"/><ellipse cx="392.27" cy="391" fill="#ADD1B2" rx="11" ry="11" style="stroke:#181818;stroke-width:1;"/><path d="M395.2388,396.6406 Q394.6606,396.9375 394.02,397.0781 Q393.3794,397.2344 392.6763,397.2344 Q390.1763,397.2344 388.8481,395.5938 Q387.5356,393.9375 387.5356,390.8125 Q387.5356,387.6875 388.8481,386.0313 Q390.1763,384.375 392.6763,384.375 Q393.3794,384.375 394.02,384.5313 Q394.6763,384.6875 395.2388,384.9844 L395.2388,387.7031 Q394.6138,387.125 394.02,386.8594 Q393.4263,386.5781 392.8013,386.5781 Q391.4575,386.5781 390.77,387.6563 Q390.0825,388.7188 390.0825,390.8125 Q390.0825,392.9063 390.77,393.9844 Q391.4575,395.0469 392.8013,395.0469 Q393.4263,395.0469 394.02,394.7813 Q394.6138,394.5 395.2388,393.9219 L395.2388,396.6406 Z " fill="#000000"/><text fill="#000000" font-family="sans-serif" font-size="14" lengthAdjust="spacing" textLength="34.8428" x="406.27" y="395.8467">Book</text></g><!--class BookRegister--><g class="entity" data-entity="BookRegister" data-source-line="8" data-uid="ent0007" id="entity_BookRegister"><rect fill="#F1F1F1" height="32" rx="2.5" ry="2.5" style="stroke:#181818;stroke-width:0.5;" width="125.1123" x="377.13" y="283"/><ellipse cx="392.13" cy="299" fill="#ADD1B2" rx="11" ry="11" style="stroke:#181818;stroke-width:1;"/><path d="M395.0988,304.6406 Q394.5206,304.9375 393.88,305.0781 Q393.2394,305.2344 392.5363,305.2344 Q390.0363,305.2344 388.7081,303.5938 Q387.3956,301.9375 387.3956,298.8125 Q387.3956,295.6875 388.7081,294.0313 Q390.0363,292.375 392.5363,292.375 Q393.2394,292.375 393.88,292.5313 Q394.5363,292.6875 395.0988,292.9844 L395.0988,295.7031 Q394.4738,295.125 393.88,294.8594 Q393.2863,294.5781 392.6613,294.5781 Q391.3175,294.5781 390.63,295.6563 Q389.9425,296.7188 389.9425,298.8125 Q389.9425,300.9063 390.63,301.9844 Q391.3175,303.0469 392.6613,303.0469 Q393.2863,303.0469 393.88,302.7813 Q394.4738,302.5 395.0988,301.9219 L395.0988,304.6406 Z " fill="#000000"/><text fill="#000000" font-family="sans-serif" font-size="14" lengthAdjust="spacing" textLength="93.1123" x="406.13" y="303.8467">BookRegister</text></g><!--class Register<T>--><g class="entity" data-entity="Register.T." data-source-line="9" data-uid="ent0009" id="entity_Register.T."><rect fill="#F1F1F1" height="32" rx="2.5" ry="2.5" style="stroke:#181818;stroke-width:0.5;" width="122.2822" x="300.55" y="191"/><ellipse cx="315.55" cy="207" fill="#B4A7E5" rx="11" ry="11" style="stroke:#181818;stroke-width:1;"/><path d="M311.4719,202.7656 L311.4719,200.6094 L318.8625,200.6094 L318.8625,202.7656 L316.3938,202.7656 L316.3938,210.8438 L318.8625,210.8438 L318.8625,213 L311.4719,213 L311.4719,210.8438 L313.9406,210.8438 L313.9406,202.7656 L311.4719,202.7656 Z " fill="#000000"/><text fill="#000000" font-family="sans-serif" font-size="14" font-style="italic" lengthAdjust="spacing" textLength="90.2822" x="329.55" y="211.8467">Register&lt;T&gt;</text></g><!--class StudentRegister--><g class="entity" data-entity="StudentRegister" data-source-line="11" data-uid="ent0012" id="entity_StudentRegister"><rect fill="#F1F1F1" height="32" rx="2.5" ry="2.5" style="stroke:#181818;stroke-width:0.5;" width="145.3809" x="7" y="283"/><ellipse cx="22" cy="299" fill="#ADD1B2" rx="11" ry="11" style="stroke:#181818;stroke-width:1;"/><path d="M24.9688,304.6406 Q24.3906,304.9375 23.75,305.0781 Q23.1094,305.2344 22.4063,305.2344 Q19.9063,305.2344 18.5781,303.5938 Q17.2656,301.9375 17.2656,298.8125 Q17.2656,295.6875 18.5781,294.0313 Q19.9063,292.375 22.4063,292.375 Q23.1094,292.375 23.75,292.5313 Q24.4063,292.6875 24.9688,292.9844 L24.9688,295.7031 Q24.3438,295.125 23.75,294.8594 Q23.1563,294.5781 22.5313,294.5781 Q21.1875,294.5781 20.5,295.6563 Q19.8125,296.7188 19.8125,298.8125 Q19.8125,300.9063 20.5,301.9844 Q21.1875,303.0469 22.5313,303.0469 Q23.1563,303.0469 23.75,302.7813 Q24.3438,302.5 24.9688,301.9219 L24.9688,304.6406 Z " fill="#000000"/><text fill="#000000" font-family="sans-serif" font-size="14" lengthAdjust="spacing" textLength="113.3809" x="36" y="303.8467">StudentRegister</text></g><!--class LoanRegister--><g class="entity" data-entity="LoanRegister" data-source-line="14" data-uid="ent0016" id="entity_LoanRegister"><rect fill="#F1F1F1" height="32" rx="2.5" ry="2.5" style="stroke:#181818;stroke-width:0.5;" width="124.0869" x="202.65" y="283"/><ellipse cx="217.65" cy="299" fill="#ADD1B2" rx="11" ry="11" style="stroke:#181818;stroke-width:1;"/><path d="M220.6188,304.6406 Q220.0406,304.9375 219.4,305.0781 Q218.7594,305.2344 218.0563,305.2344 Q215.5563,305.2344 214.2281,303.5938 Q212.9156,301.9375 212.9156,298.8125 Q212.9156,295.6875 214.2281,294.0313 Q215.5563,292.375 218.0563,292.375 Q218.7594,292.375 219.4,292.5313 Q220.0563,292.6875 220.6188,292.9844 L220.6188,295.7031 Q219.9938,295.125 219.4,294.8594 Q218.8063,294.5781 218.1813,294.5781 Q216.8375,294.5781 216.15,295.6563 Q215.4625,296.7188 215.4625,298.8125 Q215.4625,300.9063 216.15,301.9844 Q216.8375,303.0469 218.1813,303.0469 Q218.8063,303.0469 219.4,302.7813 Q219.9938,302.5 220.6188,301.9219 L220.6188,304.6406 Z " fill="#000000"/><text fill="#000000" font-family="sans-serif" font-size="14" lengthAdjust="spacing" textLength="92.0869" x="231.65" y="303.8467">LoanRegister</text></g><!--class Library--><g class="entity" data-entity="Library" data-source-line="17" data-uid="ent0020" id="entity_Library"><rect fill="#F1F1F1" height="32" rx="2.5" ry="2.5" style="stroke:#181818;stroke-width:0.5;" width="80.9521" x="484.21" y="191"/><ellipse cx="499.21" cy="207" fill="#ADD1B2" rx="11" ry="11" style="stroke:#181818;stroke-width:1;"/><path d="M502.1788,212.6406 Q501.6006,212.9375 500.96,213.0781 Q500.3194,213.2344 499.6163,213.2344 Q497.1163,213.2344 495.7881,211.5938 Q494.4756,209.9375 494.4756,206.8125 Q494.4756,203.6875 495.7881,202.0313 Q497.1163,200.375 499.6163,200.375 Q500.3194,200.375 500.96,200.5313 Q501.6163,200.6875 502.1788,200.9844 L502.1788,203.7031 Q501.5538,203.125 500.96,202.8594 Q500.3663,202.5781 499.7413,202.5781 Q498.3975,202.5781 497.71,203.6563 Q497.0225,204.7188 497.0225,206.8125 Q497.0225,208.9063 497.71,209.9844 Q498.3975,211.0469 499.7413,211.0469 Q500.3663,211.0469 500.96,210.7813 Q501.5538,210.5 502.1788,209.9219 L502.1788,212.6406 Z " fill="#000000"/><text fill="#000000" font-family="sans-serif" font-size="14" lengthAdjust="spacing" textLength="48.9521" x="513.21" y="211.8467">Library</text></g><!--class MainController--><g class="entity" data-entity="MainController" data-source-line="19" data-uid="ent0023" id="entity_MainController"><rect fill="#F1F1F1" height="32" rx="2.5" ry="2.5" style="stroke:#181818;stroke-width:0.5;" width="134.5938" x="660.39" y="191"/><ellipse cx="675.39" cy="207" fill="#ADD1B2" rx="11" ry="11" style="stroke:#181818;stroke-width:1;"/><path d="M678.3588,212.6406 Q677.7806,212.9375 677.14,213.0781 Q676.4994,213.2344 675.7963,213.2344 Q673.2963,213.2344 671.9681,211.5938 Q670.6556,209.9375 670.6556,206.8125 Q670.6556,203.6875 671.9681,202.0313 Q673.2963,200.375 675.7963,200.375 Q676.4994,200.375 677.14,200.5313 Q677.7963,200.6875 678.3588,200.9844 L678.3588,203.7031 Q677.7338,203.125 677.14,202.8594 Q676.5463,202.5781 675.9213,202.5781 Q674.5775,202.5781 673.89,203.6563 Q673.2025,204.7188 673.2025,206.8125 Q673.2025,208.9063 673.89,209.9844 Q674.5775,211.0469 675.9213,211.0469 Q676.5463,211.0469 677.14,210.7813 Q677.7338,210.5 678.3588,209.9219 L678.3588,212.6406 Z " fill="#000000"/><text fill="#000000" font-family="sans-serif" font-size="14" lengthAdjust="spacing" textLength="102.5938" x="689.39" y="211.8467">MainController</text></g><!--class Refresh--><g class="entity" data-entity="Refresh" data-source-line="20" data-uid="ent0026" id="entity_Refresh"><rect fill="#F1F1F1" height="32" rx="2.5" ry="2.5" style="stroke:#181818;stroke-width:0.5;" width="85.8057" x="841.79" y="99"/><ellipse cx="856.79" cy="115" fill="#B4A7E5" rx="11" ry="11" style="stroke:#181818;stroke-width:1;"/><path d="M852.7119,110.7656 L852.7119,108.6094 L860.1025,108.6094 L860.1025,110.7656 L857.6338,110.7656 L857.6338,118.8438 L860.1025,118.8438 L860.1025,121 L852.7119,121 L852.7119,118.8438 L855.1806,118.8438 L855.1806,110.7656 L852.7119,110.7656 Z " fill="#000000"/><text fill="#000000" font-family="sans-serif" font-size="14" font-style="italic" lengthAdjust="spacing" textLength="53.8057" x="870.79" y="119.8467">Refresh</text></g><!--class MenuBarController--><g class="entity" data-entity="MenuBarController" data-source-line="21" data-uid="ent0029" id="entity_MenuBarController"><rect fill="#F1F1F1" height="32" rx="2.5" ry="2.5" style="stroke:#181818;stroke-width:0.5;" width="163.5508" x="627.92" y="99"/><ellipse cx="642.92" cy="115" fill="#ADD1B2" rx="11" ry="11" style="stroke:#181818;stroke-width:1;"/><path d="M645.8888,120.6406 Q645.3106,120.9375 644.67,121.0781 Q644.0294,121.2344 643.3263,121.2344 Q640.8263,121.2344 639.4981,119.5938 Q638.1856,117.9375 638.1856,114.8125 Q638.1856,111.6875 639.4981,110.0313 Q640.8263,108.375 643.3263,108.375 Q644.0294,108.375 644.67,108.5313 Q645.3263,108.6875 645.8888,108.9844 L645.8888,111.7031 Q645.2638,111.125 644.67,110.8594 Q644.0763,110.5781 643.4513,110.5781 Q642.1075,110.5781 641.42,111.6563 Q640.7325,112.7188 640.7325,114.8125 Q640.7325,116.9063 641.42,117.9844 Q642.1075,119.0469 643.4513,119.0469 Q644.0763,119.0469 644.67,118.7813 Q645.2638,118.5 645.8888,117.9219 L645.8888,120.6406 Z " fill="#000000"/><text fill="#000000" font-family="sans-serif" font-size="14" lengthAdjust="spacing" textLength="131.5508" x="656.92" y="119.8467">MenuBarController</text></g><!--class BookRegisterController--><g class="entity" data-entity="BookRegisterController" data-source-line="22" data-uid="ent0032" id="entity_BookRegisterController"><rect fill="#F1F1F1" height="32" rx="2.5" ry="2.5" style="stroke:#181818;stroke-width:0.5;" width="194.2852" x="552.55" y="283"/><ellipse cx="567.55" cy="299" fill="#ADD1B2" rx="11" ry="11" style="stroke:#181818;stroke-width:1;"/><path d="M570.5188,304.6406 Q569.9406,304.9375 569.3,305.0781 Q568.6594,305.2344 567.9563,305.2344 Q565.4563,305.2344 564.1281,303.5938 Q562.8156,301.9375 562.8156,298.8125 Q562.8156,295.6875 564.1281,294.0313 Q565.4563,292.375 567.9563,292.375 Q568.6594,292.375 569.3,292.5313 Q569.9563,292.6875 570.5188,292.9844 L570.5188,295.7031 Q569.8938,295.125 569.3,294.8594 Q568.7063,294.5781 568.0813,294.5781 Q566.7375,294.5781 566.05,295.6563 Q565.3625,296.7188 565.3625,298.8125 Q565.3625,300.9063 566.05,301.9844 Q566.7375,303.0469 568.0813,303.0469 Q568.7063,303.0469 569.3,302.7813 Q569.8938,302.5 570.5188,301.9219 L570.5188,304.6406 Z " fill="#000000"/><text fill="#000000" font-family="sans-serif" font-size="14" lengthAdjust="spacing" textLength="162.2852" x="581.55" y="303.8467">BookRegisterController</text></g><!--class StudentRegisterController--><g class="entity" data-entity="StudentRegisterController" data-source-line="23" data-uid="ent0034" id="entity_StudentRegisterController"><rect fill="#F1F1F1" height="32" rx="2.5" ry="2.5" style="stroke:#181818;stroke-width:0.5;" width="214.5537" x="796.41" y="283"/><ellipse cx="811.41" cy="299" fill="#ADD1B2" rx="11" ry="11" style="stroke:#181818;stroke-width:1;"/><path d="M814.3788,304.6406 Q813.8006,304.9375 813.16,305.0781 Q812.5194,305.2344 811.8163,305.2344 Q809.3163,305.2344 807.9881,303.5938 Q806.6756,301.9375 806.6756,298.8125 Q806.6756,295.6875 807.9881,294.0313 Q809.3163,292.375 811.8163,292.375 Q812.5194,292.375 813.16,292.5313 Q813.8163,292.6875 814.3788,292.9844 L814.3788,295.7031 Q813.7538,295.125 813.16,294.8594 Q812.5663,294.5781 811.9413,294.5781 Q810.5975,294.5781 809.91,295.6563 Q809.2225,296.7188 809.2225,298.8125 Q809.2225,300.9063 809.91,301.9844 Q810.5975,303.0469 811.9413,303.0469 Q812.5663,303.0469 813.16,302.7813 Q813.7538,302.5 814.3788,301.9219 L814.3788,304.6406 Z " fill="#000000"/><text fill="#000000" font-family="sans-serif" font-size="14" lengthAdjust="spacing" textLength="182.5537" x="825.41" y="303.8467">StudentRegisterController</text></g><!--class LoanRegisterController--><g class="entity" data-entity="LoanRegisterController" data-source-line="24" data-uid="ent0036" id="entity_LoanRegisterController"><rect fill="#F1F1F1" height="32" rx="2.5" ry="2.5" style="stroke:#181818;stroke-width:0.5;" width="193.2598" x="1061.06" y="283"/><ellipse cx="1076.06" cy="299" fill="#ADD1B2" rx="11" ry="11" style="stroke:#181818;stroke-width:1;"/><path d="M1079.0288,304.6406 Q1078.4506,304.9375 1077.81,305.0781 Q1077.1694,305.2344 1076.4663,305.2344 Q1073.9663,305.2344 1072.6381,303.5938 Q1071.3256,301.9375 1071.3256,298.8125 Q1071.3256,295.6875 1072.6381,294.0313 Q1073.9663,292.375 1076.4663,292.375 Q1077.1694,292.375 1077.81,292.5313 Q1078.4663,292.6875 1079.0288,292.9844 L1079.0288,295.7031 Q1078.4038,295.125 1077.81,294.8594 Q1077.2163,294.5781 1076.5913,294.5781 Q1075.2475,294.5781 1074.56,295.6563 Q1073.8725,296.7188 1073.8725,298.8125 Q1073.8725,300.9063 1074.56,301.9844 Q1075.2475,303.0469 1076.5913,303.0469 Q1077.2163,303.0469 1077.81,302.7813 Q1078.4038,302.5 1079.0288,301.9219 L1079.0288,304.6406 Z " fill="#000000"/><text fill="#000000" font-family="sans-serif" font-size="14" lengthAdjust="spacing" textLength="161.2598" x="1090.06" y="303.8467">LoanRegisterController</text></g><!--class LibraryIOManager--><g class="entity" data-entity="LibraryIOManager" data-source-line="27" data-uid="ent0039" id="entity_LibraryIOManager"><rect fill="#F1F1F1" height="32" rx="2.5" ry="2.5" style="stroke:#181818;stroke-width:0.5;" width="157.4668" x="419.96" y="99"/><ellipse cx="434.96" cy="115" fill="#ADD1B2" rx="11" ry="11" style="stroke:#181818;stroke-width:1;"/><path d="M437.9288,120.6406 Q437.3506,120.9375 436.71,121.0781 Q436.0694,121.2344 435.3663,121.2344 Q432.8663,121.2344 431.5381,119.5938 Q430.2256,117.9375 430.2256,114.8125 Q430.2256,111.6875 431.5381,110.0313 Q432.8663,108.375 435.3663,108.375 Q436.0694,108.375 436.71,108.5313 Q437.3663,108.6875 437.9288,108.9844 L437.9288,111.7031 Q437.3038,111.125 436.71,110.8594 Q436.1163,110.5781 435.4913,110.5781 Q434.1475,110.5781 433.46,111.6563 Q432.7725,112.7188 432.7725,114.8125 Q432.7725,116.9063 433.46,117.9844 Q434.1475,119.0469 435.4913,119.0469 Q436.1163,119.0469 436.71,118.7813 Q437.3038,118.5 437.9288,117.9219 L437.9288,120.6406 Z " fill="#000000"/><text fill="#000000" font-family="sans-serif" font-size="14" lengthAdjust="spacing" textLength="125.4668" x="448.96" y="119.8467">LibraryIOManager</text></g><!--class ResultActions--><g class="entity" data-entity="ResultActions" data-source-line="29" data-uid="ent0043" id="entity_ResultActions"><rect fill="#F1F1F1" height="32" rx="2.5" ry="2.5" style="stroke:#181818;stroke-width:0.5;" width="127.2725" x="540.05" y="7"/><ellipse cx="555.05" cy="23" fill="#B4A7E5" rx="11" ry="11" style="stroke:#181818;stroke-width:1;"/><path d="M550.9719,18.7656 L550.9719,16.6094 L558.3625,16.6094 L558.3625,18.7656 L555.8938,18.7656 L555.8938,26.8438 L558.3625,26.8438 L558.3625,29 L550.9719,29 L550.9719,26.8438 L553.4406,26.8438 L553.4406,18.7656 L550.9719,18.7656 Z " fill="#000000"/><text fill="#000000" font-family="sans-serif" font-size="14" font-style="italic" lengthAdjust="spacing" textLength="95.2725" x="569.05" y="27.8467">ResultActions</text></g><!--class SideBarController--><g class="entity" data-entity="SideBarController" data-source-line="34" data-uid="ent0049" id="entity_SideBarController"><rect fill="#F1F1F1" height="32" rx="2.5" ry="2.5" style="stroke:#181818;stroke-width:0.5;" width="155.3887" x="826" y="375"/><ellipse cx="841" cy="391" fill="#ADD1B2" rx="11" ry="11" style="stroke:#181818;stroke-width:1;"/><path d="M843.9688,396.6406 Q843.3906,396.9375 842.75,397.0781 Q842.1094,397.2344 841.4063,397.2344 Q838.9063,397.2344 837.5781,395.5938 Q836.2656,393.9375 836.2656,390.8125 Q836.2656,387.6875 837.5781,386.0313 Q838.9063,384.375 841.4063,384.375 Q842.1094,384.375 842.75,384.5313 Q843.4063,384.6875 843.9688,384.9844 L843.9688,387.7031 Q843.3438,387.125 842.75,386.8594 Q842.1563,386.5781 841.5313,386.5781 Q840.1875,386.5781 839.5,387.6563 Q838.8125,388.7188 838.8125,390.8125 Q838.8125,392.9063 839.5,393.9844 Q840.1875,395.0469 841.5313,395.0469 Q842.1563,395.0469 842.75,394.7813 Q843.3438,394.5 843.9688,393.9219 L843.9688,396.6406 Z " fill="#000000"/><text fill="#000000" font-family="sans-serif" font-size="14" lengthAdjust="spacing" textLength="123.3887" x="855" y="395.8467">SideBarController</text></g><!--link Student to Loan--><g class="link" data-entity-1="Student" data-entity-2="Loan" data-link-type="association" data-source-line="4" data-uid="lnk4" id="link_Student_Loan"><path codeLine="4" d="M153.59,391 C179.63,391 205.67,391 231.71,391" fill="none" id="Student-Loan" style="stroke:#181818;stroke-width:1;"/><text fill="#000000" font-family="sans-serif" font-size="13" lengthAdjust="spacing" textLength="8.271" x="161.2463" y="386.8822">1</text><text fill="#000000" font-family="sans-serif" font-size="13" lengthAdjust="spacing" textLength="8.271" x="215.6506" y="386.4408">3</text></g><!--link Loan to Book--><g class="link" data-entity-1="Loan" data-entity-2="Book" data-link-type="dependency" data-source-line="6" data-uid="lnk6" id="link_Loan_Book"><path codeLine="6" d="M298.05,391 C324.31,391 344.56,391 370.81,391" fill="none" id="Loan-to-Book" style="stroke:#181818;stroke-width:1;"/><polygon fill="#181818" points="376.81,391,367.81,387,371.81,391,367.81,395,376.81,391" style="stroke:#181818;stroke-width:1;"/><text fill="#000000" font-family="sans-serif" font-size="13" lengthAdjust="spacing" textLength="6.5" x="305.6011" y="386.5337">*</text><text fill="#000000" font-family="sans-serif" font-size="13" lengthAdjust="spacing" textLength="8.271" x="361.0249" y="386.5337">1</text></g><!--link BookRegister to Book--><g class="link" data-entity-1="BookRegister" data-entity-2="Book" data-link-type="dependency" data-source-line="8" data-uid="lnk8" id="link_BookRegister_Book"><path codeLine="8" d="M434.77,315.27 C429.44,331.82 422.8225,352.3699 417.4725,368.9499" fill="none" id="BookRegister-to-Book" style="stroke:#181818;stroke-width:1;"/><polygon fill="#181818" points="415.63,374.66,422.2005,367.3232,417.1654,369.9016,414.5871,364.8665,415.63,374.66" style="stroke:#181818;stroke-width:1;"/><text fill="#000000" font-family="sans-serif" font-size="13" lengthAdjust="spacing" textLength="8.271" x="423.9712" y="334.9347">1</text><text fill="#000000" font-family="sans-serif" font-size="13" lengthAdjust="spacing" textLength="6.5" x="410.355" y="363.8519">*</text></g><!--reverse link Register<T> to BookRegister--><g class="link" data-entity-1="Register.T." data-entity-2="BookRegister" data-link-type="extension" data-source-line="9" data-uid="lnk11" id="link_Register.T._BookRegister"><path codeLine="9" d="M386.7119,236.8697 C401.0619,253.4197 412.03,266.08 426.39,282.66" fill="none" id="Register&lt;T&gt;-backto-BookRegister" style="stroke:#181818;stroke-width:1;stroke-dasharray:7,7;"/><polygon fill="none" points="374.92,223.27,382.1786,240.8003,391.2451,232.9391,374.92,223.27" style="stroke:#181818;stroke-width:1;"/></g><!--link StudentRegister to Student--><g class="link" data-entity-1="StudentRegister" data-entity-2="Student" data-link-type="dependency" data-source-line="11" data-uid="lnk13" id="link_StudentRegister_Student"><path codeLine="11" d="M84.78,315.27 C90.3,331.82 97.1516,352.3882 102.6816,368.9682" fill="none" id="StudentRegister-to-Student" style="stroke:#181818;stroke-width:1;"/><polygon fill="#181818" points="104.58,374.66,105.5269,364.8568,102.998,369.9169,97.9379,367.388,104.58,374.66" style="stroke:#181818;stroke-width:1;"/><text fill="#000000" font-family="sans-serif" font-size="13" lengthAdjust="spacing" textLength="8.271" x="77.1705" y="334.9347">1</text><text fill="#000000" font-family="sans-serif" font-size="13" lengthAdjust="spacing" textLength="6.5" x="95.9778" y="363.8519">*</text></g><!--reverse link Register<T> to StudentRegister--><g class="link" data-entity-1="Register.T." data-entity-2="StudentRegister" data-link-type="extension" data-source-line="12" data-uid="lnk15" id="link_Register.T._StudentRegister"><path codeLine="12" d="M296.0626,228.9442 C244.2526,245.4842 179.75,266.06 128.01,282.58" fill="none" id="Register&lt;T&gt;-backto-StudentRegister" style="stroke:#181818;stroke-width:1;stroke-dasharray:7,7;"/><polygon fill="none" points="313.21,223.47,294.2379,223.2284,297.8873,234.66,313.21,223.47" style="stroke:#181818;stroke-width:1;"/></g><!--link LoanRegister to Loan--><g class="link" data-entity-1="LoanRegister" data-entity-2="Loan" data-link-type="dependency" data-source-line="14" data-uid="lnk17" id="link_LoanRegister_Loan"><path codeLine="14" d="M264.69,315.27 C264.69,331.82 264.69,352.08 264.69,368.66" fill="none" id="LoanRegister-to-Loan" style="stroke:#181818;stroke-width:1;"/><polygon fill="#181818" points="264.69,374.66,268.69,365.66,264.69,369.66,260.69,365.66,264.69,374.66" style="stroke:#181818;stroke-width:1;"/><text fill="#000000" font-family="sans-serif" font-size="13" lengthAdjust="spacing" textLength="8.271" x="255.4571" y="334.9347">1</text><text fill="#000000" font-family="sans-serif" font-size="13" lengthAdjust="spacing" textLength="6.5" x="257.7795" y="363.8519">*</text></g><!--reverse link Register<T> to LoanRegister--><g class="link" data-entity-1="Register.T." data-entity-2="LoanRegister" data-link-type="extension" data-source-line="15" data-uid="lnk19" id="link_Register.T._LoanRegister"><path codeLine="15" d="M332.0439,235.5119 C314.2039,252.0619 299.09,266.08 281.23,282.66" fill="none" id="Register&lt;T&gt;-backto-LoanRegister" style="stroke:#181818;stroke-width:1;stroke-dasharray:7,7;"/><polygon fill="none" points="345.24,223.27,327.9633,231.1132,336.1245,239.9106,345.24,223.27" style="stroke:#181818;stroke-width:1;"/></g><!--reverse link Register<T> to Library--><g class="link" data-entity-1="Register.T." data-entity-2="Library" data-link-type="dependency" data-source-line="17" data-uid="lnk22" id="link_Register.T._Library"><path codeLine="17" d="M429.13,207 C449.37,207 463.6,207 483.83,207" fill="none" id="Register&lt;T&gt;-backto-Library" style="stroke:#181818;stroke-width:1;"/><polygon fill="#181818" points="423.13,207,432.13,211,428.13,207,432.13,203,423.13,207" style="stroke:#181818;stroke-width:1;"/><text fill="#000000" font-family="sans-serif" font-size="13" lengthAdjust="spacing" textLength="8.271" x="430.712" y="203.2074">3</text><text fill="#000000" font-family="sans-serif" font-size="13" lengthAdjust="spacing" textLength="8.271" x="467.8641" y="202.7428">1</text></g><!--reverse link Library to MainController--><g class="link" data-entity-1="Library" data-entity-2="MainController" data-link-type="dependency" data-source-line="19" data-uid="lnk25" id="link_Library_MainController"><path codeLine="19" d="M571.53,207 C602.99,207 628.45,207 659.91,207" fill="none" id="Library-backto-MainController" style="stroke:#181818;stroke-width:1;"/><polygon fill="#181818" points="565.53,207,574.53,211,570.53,207,574.53,203,565.53,207" style="stroke:#181818;stroke-width:1;"/><text fill="#000000" font-family="sans-serif" font-size="13" lengthAdjust="spacing" textLength="8.271" x="573.2608" y="202.7892">1</text><text fill="#000000" font-family="sans-serif" font-size="13" lengthAdjust="spacing" textLength="8.271" x="644.0742" y="203.2538">1</text></g><!--reverse link Refresh to MainController--><g class="link" data-entity-1="Refresh" data-entity-2="MainController" data-link-type="extension" data-source-line="20" data-uid="lnk28" id="link_Refresh_MainController"><path codeLine="20" d="M842.0856,140.425 C813.2456,156.965 783.4,174.06 754.59,190.58" fill="none" id="Refresh-backto-MainController" style="stroke:#181818;stroke-width:1;stroke-dasharray:7,7;"/><polygon fill="none" points="857.7,131.47,839.1006,135.2202,845.0706,145.6298,857.7,131.47" style="stroke:#181818;stroke-width:1;"/></g><!--reverse link MenuBarController to MainController--><g class="link" data-entity-1="MenuBarController" data-entity-2="MainController" data-link-type="dependency" data-source-line="21" data-uid="lnk31" id="link_MenuBarController_MainController"><path codeLine="21" d="M713.9167,137.1535 C717.2267,153.7035 721.31,174.08 724.62,190.66" fill="none" id="MenuBarController-backto-MainController" style="stroke:#181818;stroke-width:1;"/><polygon fill="#181818" points="712.74,131.27,710.5827,140.8797,713.7206,136.1729,718.4274,139.3108,712.74,131.27" style="stroke:#181818;stroke-width:1;"/><text fill="#000000" font-family="sans-serif" font-size="13" lengthAdjust="spacing" textLength="8.271" x="704.4787" y="150.9347">1</text><text fill="#000000" font-family="sans-serif" font-size="13" lengthAdjust="spacing" textLength="8.271" x="714.324" y="179.8519">1</text></g><!--link MainController to BookRegisterController--><g class="link" data-entity-1="MainController" data-entity-2="BookRegisterController" data-link-type="dependency" data-source-line="22" data-uid="lnk33" id="link_MainController_BookRegisterController"><path codeLine="22" d="M714.46,223.27 C700.12,239.82 681.2897,261.546 666.9197,278.126" fill="none" id="MainController-to-BookRegisterController" style="stroke:#181818;stroke-width:1;stroke-dasharray:7,7;"/><polygon fill="#181818" points="662.99,282.66,671.9072,278.4787,666.2647,278.8816,665.8618,273.2391,662.99,282.66" style="stroke:#181818;stroke-width:1;"/></g><!--link MainController to StudentRegisterController--><g class="link" data-entity-1="MainController" data-entity-2="StudentRegisterController" data-link-type="dependency" data-source-line="23" data-uid="lnk35" id="link_MainController_StudentRegisterController"><path codeLine="23" d="M757.95,223.47 C790.28,240.01 835.8981,263.3279 868.1981,279.8479" fill="none" id="MainController-to-StudentRegisterController" style="stroke:#181818;stroke-width:1;stroke-dasharray:7,7;"/><polygon fill="#181818" points="873.54,282.58,867.3486,274.9206,869.0884,280.3032,863.7058,282.0431,873.54,282.58" style="stroke:#181818;stroke-width:1;"/></g><!--link MainController to LoanRegisterController--><g class="link" data-entity-1="MainController" data-entity-2="LoanRegisterController" data-link-type="dependency" data-source-line="24" data-uid="lnk37" id="link_MainController_LoanRegisterController"><path codeLine="24" d="M795.35,222.16 C873.87,238.6 997.0371,264.3815 1078.0671,281.3315" fill="none" id="MainController-to-LoanRegisterController" style="stroke:#181818;stroke-width:1;stroke-dasharray:7,7;"/><polygon fill="#181818" points="1083.94,282.56,1075.9497,276.802,1079.0459,281.5362,1074.3117,284.6325,1083.94,282.56" style="stroke:#181818;stroke-width:1;"/></g><!--link MenuBarController to Refresh--><g class="link" data-entity-1="MenuBarController" data-entity-2="Refresh" data-link-type="dependency" data-source-line="26" data-uid="lnk38" id="link_MenuBarController_Refresh"><path codeLine="26" d="M791.72,115 C808.31,115 818.89,115 835.47,115" fill="none" id="MenuBarController-to-Refresh" style="stroke:#181818;stroke-width:1;"/><polygon fill="#181818" points="841.47,115,832.47,111,836.47,115,832.47,119,841.47,115" style="stroke:#181818;stroke-width:1;"/><text fill="#000000" font-family="sans-serif" font-size="13" lengthAdjust="spacing" textLength="8.271" x="799.3936" y="111.4048">1</text><text fill="#000000" font-family="sans-serif" font-size="13" lengthAdjust="spacing" textLength="8.271" x="825.3769" y="110.7892">1</text></g><!--reverse link LibraryIOManager to MenuBarController--><g class="link" data-entity-1="LibraryIOManager" data-entity-2="MenuBarController" data-link-type="dependency" data-source-line="27" data-uid="lnk41" id="link_LibraryIOManager_MenuBarController"><path codeLine="27" d="M583.82,115 C600.39,115 610.96,115 627.53,115" fill="none" id="LibraryIOManager-backto-MenuBarController" style="stroke:#181818;stroke-width:1;"/><polygon fill="#181818" points="577.82,115,586.82,119,582.82,115,586.82,111,577.82,115" style="stroke:#181818;stroke-width:1;"/><text fill="#000000" font-family="sans-serif" font-size="13" lengthAdjust="spacing" textLength="8.271" x="585.4957" y="111.3816">1</text><text fill="#000000" font-family="sans-serif" font-size="13" lengthAdjust="spacing" textLength="8.271" x="611.5991" y="111.3816">1</text></g><!--link MenuBarController to Library--><g class="link" data-entity-1="MenuBarController" data-entity-2="Library" data-link-type="dependency" data-source-line="28" data-uid="lnk42" id="link_MenuBarController_Library"><path codeLine="28" d="M677.89,131.47 C643.9,148.01 595.7352,171.4347 561.7852,187.9547" fill="none" id="MenuBarController-to-Library" style="stroke:#181818;stroke-width:1;"/><polygon fill="#181818" points="556.39,190.58,566.2329,190.2389,560.886,188.3923,562.7326,183.0453,556.39,190.58" style="stroke:#181818;stroke-width:1;"/><text fill="#000000" font-family="sans-serif" font-size="13" lengthAdjust="spacing" textLength="8.271" x="658.5202" y="151.1985">1</text><text fill="#000000" font-family="sans-serif" font-size="13" lengthAdjust="spacing" textLength="8.271" x="557.2638" y="180.0436">1</text></g><!--reverse link ResultActions to MenuBarController--><g class="link" data-entity-1="ResultActions" data-entity-2="MenuBarController" data-link-type="extension" data-source-line="29" data-uid="lnk45" id="link_ResultActions_MenuBarController"><path codeLine="29" d="M635.3906,50.9209 C654.8806,67.4709 672.09,82.08 691.62,98.66" fill="none" id="ResultActions-backto-MenuBarController" style="stroke:#181818;stroke-width:1;stroke-dasharray:7,7;"/><polygon fill="none" points="621.67,39.27,631.507,55.4945,639.2743,46.3474,621.67,39.27" style="stroke:#181818;stroke-width:1;"/></g><!--link LibraryIOManager to Library--><g class="link" data-entity-1="LibraryIOManager" data-entity-2="Library" data-link-type="dependency" data-source-line="31" data-uid="lnk46" id="link_LibraryIOManager_Library"><path codeLine="31" d="M503.1,131.27 C507.88,147.82 513.8047,168.3157 518.5947,184.8957" fill="none" id="LibraryIOManager-to-Library" style="stroke:#181818;stroke-width:1;stroke-dasharray:7,7;"/><polygon fill="#181818" points="520.26,190.66,521.6049,180.9034,518.8722,185.8564,513.9192,183.1238,520.26,190.66" style="stroke:#181818;stroke-width:1;"/></g><!--reverse link ResultActions to LibraryIOManager--><g class="link" data-entity-1="ResultActions" data-entity-2="LibraryIOManager" data-link-type="dependency" data-source-line="32" data-uid="lnk48" id="link_ResultActions_LibraryIOManager"><path codeLine="32" d="M581.3243,43.1746 C562.0143,59.7246 535.93,82.08 516.59,98.66" fill="none" id="ResultActions-backto-LibraryIOManager" style="stroke:#181818;stroke-width:1;"/><polygon fill="#181818" points="585.88,39.27,576.4434,42.0897,582.0836,42.5238,581.6495,48.164,585.88,39.27" style="stroke:#181818;stroke-width:1;"/><text fill="#000000" font-family="sans-serif" font-size="13" lengthAdjust="spacing" textLength="8.271" x="570.9725" y="58.9347">1</text><text fill="#000000" font-family="sans-serif" font-size="13" lengthAdjust="spacing" textLength="8.271" x="513.2381" y="87.8519">1</text></g><!--link StudentRegisterController to SideBarController--><g class="link" data-entity-1="StudentRegisterController" data-entity-2="SideBarController" data-link-type="dependency" data-source-line="34" data-uid="lnk50" id="link_StudentRegisterController_SideBarController"><path codeLine="34" d="M903.69,315.27 C903.69,331.82 903.69,352.08 903.69,368.66" fill="none" id="StudentRegisterController-to-SideBarController" style="stroke:#181818;stroke-width:1;"/><polygon fill="#181818" points="903.69,374.66,907.69,365.66,903.69,369.66,899.69,365.66,903.69,374.66" style="stroke:#181818;stroke-width:1;"/><text fill="#000000" font-family="sans-serif" font-size="13" lengthAdjust="spacing" textLength="8.271" x="894.4592" y="334.9347">1</text><text fill="#000000" font-family="sans-serif" font-size="13" lengthAdjust="spacing" textLength="8.271" x="894.4084" y="363.8519">1</text></g><!--link LoanRegisterController to SideBarController--><g class="link" data-entity-1="LoanRegisterController" data-entity-2="SideBarController" data-link-type="dependency" data-source-line="35" data-uid="lnk51" id="link_LoanRegisterController_SideBarController"><path codeLine="35" d="M1114.03,315.47 C1067.36,332.01 999.4753,356.0556 952.8653,372.5756" fill="none" id="LoanRegisterController-to-SideBarController" style="stroke:#181818;stroke-width:1;"/><polygon fill="#181818" points="947.21,374.58,957.0292,375.3436,951.9227,372.9097,954.3567,367.8032,947.21,374.58" style="stroke:#181818;stroke-width:1;"/><text fill="#000000" font-family="sans-serif" font-size="13" lengthAdjust="spacing" textLength="8.271" x="1090.8816" y="335.1985">1</text><text fill="#000000" font-family="sans-serif" font-size="13" lengthAdjust="spacing" textLength="8.271" x="951.8488" y="364.0436">1</text></g><!--link BookRegisterController to SideBarController--><g class="link" data-entity-1="BookRegisterController" data-entity-2="SideBarController" data-link-type="dependency" data-source-line="36" data-uid="lnk52" id="link_BookRegisterController_SideBarController"><path codeLine="36" d="M693.35,315.47 C740.02,332.01 807.9047,356.0556 854.5147,372.5756" fill="none" id="BookRegisterController-to-SideBarController" style="stroke:#181818;stroke-width:1;"/><polygon fill="#181818" points="860.17,374.58,853.0233,367.8032,855.4573,372.9097,850.3508,375.3436,860.17,374.58" style="stroke:#181818;stroke-width:1;"/><text fill="#000000" font-family="sans-serif" font-size="13" lengthAdjust="spacing" textLength="8.271" x="698.034" y="335.1985">1</text><text fill="#000000" font-family="sans-serif" font-size="13" lengthAdjust="spacing" textLength="8.271" x="837.0648" y="364.0436">1</text></g><!--SRC=[pLXBR-Cs4BxhLmW-9RkrqQBe9GWCvB463CIxGPniqIDjqJ4HYdH9ATlKpNyltoAfaUqS2dGFMKJVpF3Zl3WJ-KBO3WbKbunNME9T-TlFnPPKkAnnlS925iMoQIlCcdBqowWSYt4v-dLKtd74YaB_B4UVpEUfmQyvVoaA_VC1FnFPO67LAer_SdW2Jzh9Fmhplry-JaVXIDY60tj2e2LD4JPZhf30i06o4aYyMLsgTTNrCva58ko6iqPmIlqnr7d4wUSozgm7l15ORa43hJEmmAozHgA3UwOcqp9swM79p6k7XMFtH995ZvDF3aivN0iMormp_xP033rh1h1ybRko9-QzALlQNAqRmfaioYAtRw_aZFJ0nEcfgMBGQId1qL8LJi9iLC0kFAu7H_IuNh6cI4eVvd9VbEhVk6IenkM5-Ym8UtRVP2l0prPrNWMWt0kCgc-Clhqx6LmZGdD5fDprYlM5fOBk5FLB_SkqCFXdp-biCfcSkq_FkFcgA9oTfxOCiBJqOCnp1D4lcXs8N7KK3HwHj39hldip11NuoadbFgEgwbG1NE2Ql-A38aH-HvHOmYlEALRjnoDNhuemMb4yuyAevq9Z9HJkREsu4t8fStTGujtdXcdRFZ6e-iM4-kbfVjiFj4i6uqgNKRc8il-YS9smVL2R_yAq_Jk-HlGMDTWX0ZSgmBYA63f_10TsSRipB8rRDCzU8hXWsuSXW9gIGSopanXJd6m29AnqB1uSBo1GijE5Ka3hXUZ5oQFJGXq1OKJUOehUm82RTD9P0QBzR0e1jg5maWrfQA_6KTjikGXbQh5f5D23rRzhLvJ8RQsS_GT6GaaIvtPbsQVo3TyHB1tcRci2aaRsKTE3QzLoxEeqPXdYEz02xbEAHeR4kN6Lyim4P5-W7_61Nd5YESFTG2FsMWUhFBlUGTdi8aEzGLqUYmrQutIwSNbaMY1msPfNPFCss151zpmnycUB8RecClvq7VCk-8_JDB_3rBQFiZPyL0c1cqijDurpp-DdvvsnV8pSfvqlC-caypSDCfpCbd6xpKmcRsIib1XpO-Z0RKF4x9M7RX34mZL0La4ifMOfd9sd1TYnXNd4RHgMJSY43WtBMaR1BTdC6hpil7KHnhtEQuzefRwhdwcNyi_Q9VctkZTuNW3ZkSzpHXgYQkrldFRySOJq1xoqpoHbwQRgK932_fuhECVqgExJItJKKvzr0_55Vq2taXNU83KTBz4hlaVDDdzRr03275UNJNOR60hD4N_PPzVbNh-TA70H7mY8y1rcCqAXPhIcNE81JAhx7O5-9ytMpA-voBZSA7Y9AJOhXCUrZa-xBVznfUBImF7hhIVxC3P5cudnRhAf9AKQjECtLtCVTgTA-of3VPooP8nf-9IKxNgDfSm3k54FK2kYk0urNo1Tk_8qKupv_pl1F_8MfbU56rfxaHjEsvfveP_ATC9ncy_fydxqFbd3B4WVjNz2fvRvngUhB_ysy3Xr0d4-3DTTkwlKr1eydhSnNLPp9bKAt_DTkuFWXPaEGDZE1pF1wwJHHn9I3JRhRPZXi_g0r-fzshspbEaMlU3ohs0QQC6162s7KkU03fGtaBX-daudPCVqqsJT6ZOa7BQWQRQSdMXzuBazBLcZFRJBfaJdRWYBTADKw-c263HnVQn2_liIE5A1jaBIjH8Sae4ASQDGLY7n-6WMntu2Q94y0TmwUPfmjZqEAStLMwEUhcFP3j99DvuFd71qfFv8-uKZy7_8hC-dPTP0x-rTE2ILsX6l6wR_uD8s3MUfCIGUPpeE-AzcHZ1DkG9gThLCW6XzDoVPF-vqIdRNw8upU7gWMp7TcQ21XJyuHj__1G00]--></g></svg>