<svg xmlns="http://www.w3.org/2000/svg" xmlns:xlink="http://www.w3.org/1999/xlink" contentStyleType="text/css" data-diagram-type="CLASS" height="826px" preserveAspectRatio="none" style="width:1168px;height:826px;background:#FFFFFF;" version="1.1" viewBox="0 0 1168 826" width="1168px" zoomAndPan="magnify"><defs/><g><!--class Register--><g class="entity" data-entity="Register" data-source-line="1" data-uid="ent0002" id="entity_Register"><rect fill="#F1F1F1" height="129.4844" rx="2.5" ry="2.5" style="stroke:#181818;stroke-width:0.5;" width="278.6494" x="465.74" y="229.08"/><ellipse cx="566.0149" cy="245.08" fill="#B4A7E5" rx="11" ry="11" style="stroke:#181818;stroke-width:1;"/><path d="M561.9368,240.8456 L561.9368,238.6894 L569.3274,238.6894 L569.3274,240.8456 L566.8587,240.8456 L566.8587,248.9237 L569.3274,248.9237 L569.3274,251.08 L561.9368,251.08 L561.9368,248.9237 L564.4055,248.9237 L564.4055,240.8456 L561.9368,240.8456 Z " fill="#000000"/><text fill="#000000" font-family="sans-serif" font-size="14" font-style="italic" lengthAdjust="spacing" textLength="58.2695" x="586.5149" y="249.9267">Register</text><rect fill="#FFFFFF" height="15.9688" style="stroke:#181818;stroke-width:1;stroke-dasharray:2,2;" width="9.3301" x="738.0593" y="226.08"/><text fill="#000000" font-family="sans-serif" font-size="12" font-style="italic" lengthAdjust="spacing" textLength="7.3301" x="739.0593" y="238.2187">T</text><line style="stroke:#181818;stroke-width:0.5;" x1="466.74" x2="743.3894" y1="261.08" y2="261.08"/><line style="stroke:#181818;stroke-width:0.5;" x1="466.74" x2="743.3894" y1="269.08" y2="269.08"/><text fill="#000000" font-family="sans-serif" font-size="14" lengthAdjust="spacing" textLength="192.1035" x="471.74" y="286.0751">add(in toAdd  : T) : boolean</text><text fill="#000000" font-family="sans-serif" font-size="14" lengthAdjust="spacing" textLength="266.6494" x="471.74" y="302.372">modify(in old : T, in new : T) : boolean</text><text fill="#000000" font-family="sans-serif" font-size="14" lengthAdjust="spacing" textLength="244.8633" x="471.74" y="318.6689">remove(in toRemove : T) : boolean</text><text fill="#000000" font-family="sans-serif" font-size="14" lengthAdjust="spacing" textLength="221.0059" x="471.74" y="334.9657">isValid(in toVerify : T) : boolean</text><text fill="#000000" font-family="sans-serif" font-size="14" lengthAdjust="spacing" textLength="242.1084" x="471.74" y="351.2626">getRegister() : ObservableList&lt;T&gt;</text></g><!--class StudentRegister--><g class="entity" data-entity="StudentRegister" data-source-line="11" data-uid="ent0003" id="entity_StudentRegister"><rect fill="#F1F1F1" height="80.5938" rx="2.5" ry="2.5" style="stroke:#181818;stroke-width:0.5;" width="334.2734" x="90.92" y="418.57"/><ellipse cx="197.1163" cy="434.57" fill="#ADD1B2" rx="11" ry="11" style="stroke:#181818;stroke-width:1;"/><path d="M200.085,440.2106 Q199.5069,440.5075 198.8663,440.6481 Q198.2257,440.8044 197.5225,440.8044 Q195.0225,440.8044 193.6944,439.1638 Q192.3819,437.5075 192.3819,434.3825 Q192.3819,431.2575 193.6944,429.6013 Q195.0225,427.945 197.5225,427.945 Q198.2257,427.945 198.8663,428.1013 Q199.5225,428.2575 200.085,428.5544 L200.085,431.2731 Q199.46,430.695 198.8663,430.4294 Q198.2725,430.1481 197.6475,430.1481 Q196.3038,430.1481 195.6163,431.2263 Q194.9288,432.2888 194.9288,434.3825 Q194.9288,436.4763 195.6163,437.5544 Q196.3038,438.6169 197.6475,438.6169 Q198.2725,438.6169 198.8663,438.3513 Q199.46,438.07 200.085,437.4919 L200.085,440.2106 Z " fill="#000000"/><text fill="#000000" font-family="sans-serif" font-size="14" lengthAdjust="spacing" textLength="113.3809" x="217.6163" y="439.4167">StudentRegister</text><line style="stroke:#181818;stroke-width:0.5;" x1="91.92" x2="424.1934" y1="450.57" y2="450.57"/><g data-visibility-modifier="PRIVATE_FIELD"><rect fill="none" height="6" style="stroke:#C82930;stroke-width:1;" width="6" x="98.92" y="461.2184"/></g><text fill="#000000" font-family="sans-serif" font-size="14" lengthAdjust="spacing" textLength="308.2734" x="110.92" y="467.5651">studentRegister : ObservableList&lt;Student&gt;</text><line style="stroke:#181818;stroke-width:0.5;" x1="91.92" x2="424.1934" y1="474.8669" y2="474.8669"/><g data-visibility-modifier="PUBLIC_METHOD"><ellipse cx="101.92" cy="488.5153" fill="#84BE84" rx="3" ry="3" style="stroke:#038048;stroke-width:1;"/></g><text fill="#000000" font-family="sans-serif" font-size="14" lengthAdjust="spacing" textLength="124.3047" x="110.92" y="491.862">StudentRegister()</text></g><!--class BookRegister--><g class="entity" data-entity="BookRegister" data-source-line="16" data-uid="ent0004" id="entity_BookRegister"><rect fill="#F1F1F1" height="80.5938" rx="2.5" ry="2.5" style="stroke:#181818;stroke-width:0.5;" width="294.6113" x="784.75" y="418.57"/><ellipse cx="881.2495" cy="434.57" fill="#ADD1B2" rx="11" ry="11" style="stroke:#181818;stroke-width:1;"/><path d="M884.2183,440.2106 Q883.6401,440.5075 882.9995,440.6481 Q882.3589,440.8044 881.6558,440.8044 Q879.1558,440.8044 877.8276,439.1638 Q876.5151,437.5075 876.5151,434.3825 Q876.5151,431.2575 877.8276,429.6013 Q879.1558,427.945 881.6558,427.945 Q882.3589,427.945 882.9995,428.1013 Q883.6558,428.2575 884.2183,428.5544 L884.2183,431.2731 Q883.5933,430.695 882.9995,430.4294 Q882.4058,430.1481 881.7808,430.1481 Q880.437,430.1481 879.7495,431.2263 Q879.062,432.2888 879.062,434.3825 Q879.062,436.4763 879.7495,437.5544 Q880.437,438.6169 881.7808,438.6169 Q882.4058,438.6169 882.9995,438.3513 Q883.5933,438.07 884.2183,437.4919 L884.2183,440.2106 Z " fill="#000000"/><text fill="#000000" font-family="sans-serif" font-size="14" lengthAdjust="spacing" textLength="93.1123" x="901.7495" y="439.4167">BookRegister</text><line style="stroke:#181818;stroke-width:0.5;" x1="785.75" x2="1078.3613" y1="450.57" y2="450.57"/><g data-visibility-modifier="PRIVATE_FIELD"><rect fill="none" height="6" style="stroke:#C82930;stroke-width:1;" width="6" x="792.75" y="461.2184"/></g><text fill="#000000" font-family="sans-serif" font-size="14" lengthAdjust="spacing" textLength="268.6113" x="804.75" y="467.5651">bookRegister : ObservableList&lt;Book&gt;</text><line style="stroke:#181818;stroke-width:0.5;" x1="785.75" x2="1078.3613" y1="474.8669" y2="474.8669"/><g data-visibility-modifier="PUBLIC_METHOD"><ellipse cx="795.75" cy="488.5153" fill="#84BE84" rx="3" ry="3" style="stroke:#038048;stroke-width:1;"/></g><text fill="#000000" font-family="sans-serif" font-size="14" lengthAdjust="spacing" textLength="104.0361" x="804.75" y="491.862">BookRegister()</text></g><!--class LoanRegister--><g class="entity" data-entity="LoanRegister" data-source-line="21" data-uid="ent0005" id="entity_LoanRegister"><rect fill="#F1F1F1" height="80.5938" rx="2.5" ry="2.5" style="stroke:#181818;stroke-width:0.5;" width="289.3682" x="460.38" y="418.57"/><ellipse cx="554.7706" cy="434.57" fill="#ADD1B2" rx="11" ry="11" style="stroke:#181818;stroke-width:1;"/><path d="M557.7394,440.2106 Q557.1613,440.5075 556.5206,440.6481 Q555.88,440.8044 555.1769,440.8044 Q552.6769,440.8044 551.3488,439.1638 Q550.0363,437.5075 550.0363,434.3825 Q550.0363,431.2575 551.3488,429.6013 Q552.6769,427.945 555.1769,427.945 Q555.88,427.945 556.5206,428.1013 Q557.1769,428.2575 557.7394,428.5544 L557.7394,431.2731 Q557.1144,430.695 556.5206,430.4294 Q555.9269,430.1481 555.3019,430.1481 Q553.9581,430.1481 553.2706,431.2263 Q552.5831,432.2888 552.5831,434.3825 Q552.5831,436.4763 553.2706,437.5544 Q553.9581,438.6169 555.3019,438.6169 Q555.9269,438.6169 556.5206,438.3513 Q557.1144,438.07 557.7394,437.4919 L557.7394,440.2106 Z " fill="#000000"/><text fill="#000000" font-family="sans-serif" font-size="14" lengthAdjust="spacing" textLength="92.0869" x="575.2706" y="439.4167">LoanRegister</text><line style="stroke:#181818;stroke-width:0.5;" x1="461.38" x2="748.7482" y1="450.57" y2="450.57"/><g data-visibility-modifier="PRIVATE_FIELD"><rect fill="none" height="6" style="stroke:#C82930;stroke-width:1;" width="6" x="468.38" y="461.2184"/></g><text fill="#000000" font-family="sans-serif" font-size="14" lengthAdjust="spacing" textLength="263.3682" x="480.38" y="467.5651">loanRegister : ObservableList&lt;Loan&gt;</text><line style="stroke:#181818;stroke-width:0.5;" x1="461.38" x2="748.7482" y1="474.8669" y2="474.8669"/><g data-visibility-modifier="PUBLIC_METHOD"><ellipse cx="471.38" cy="488.5153" fill="#84BE84" rx="3" ry="3" style="stroke:#038048;stroke-width:1;"/></g><text fill="#000000" font-family="sans-serif" font-size="14" lengthAdjust="spacing" textLength="103.0107" x="480.38" y="491.862">LoanRegister()</text></g><!--class Student--><g class="entity" data-entity="Student" data-source-line="30" data-uid="ent0006" id="entity_Student"><rect fill="#F1F1F1" height="259.8594" rx="2.5" ry="2.5" style="stroke:#181818;stroke-width:0.5;" width="380.1221" x="7" y="559.16"/><ellipse cx="165.2554" cy="575.16" fill="#ADD1B2" rx="11" ry="11" style="stroke:#181818;stroke-width:1;"/><path d="M168.2241,580.8006 Q167.646,581.0975 167.0054,581.2381 Q166.3647,581.3944 165.6616,581.3944 Q163.1616,581.3944 161.8335,579.7538 Q160.521,578.0975 160.521,574.9725 Q160.521,571.8475 161.8335,570.1913 Q163.1616,568.535 165.6616,568.535 Q166.3647,568.535 167.0054,568.6913 Q167.6616,568.8475 168.2241,569.1444 L168.2241,571.8631 Q167.5991,571.285 167.0054,571.0194 Q166.4116,570.7381 165.7866,570.7381 Q164.4429,570.7381 163.7554,571.8163 Q163.0679,572.8788 163.0679,574.9725 Q163.0679,577.0663 163.7554,578.1444 Q164.4429,579.2069 165.7866,579.2069 Q166.4116,579.2069 167.0054,578.9413 Q167.5991,578.66 168.2241,578.0819 L168.2241,580.8006 Z " fill="#000000"/><text fill="#000000" font-family="sans-serif" font-size="14" lengthAdjust="spacing" textLength="55.1113" x="185.7554" y="580.0067">Student</text><line style="stroke:#181818;stroke-width:0.5;" x1="8" x2="386.1221" y1="591.16" y2="591.16"/><g data-visibility-modifier="PRIVATE_FIELD"><rect fill="none" height="6" style="stroke:#C82930;stroke-width:1;" width="6" x="15" y="601.8084"/></g><text fill="#000000" font-family="sans-serif" font-size="14" lengthAdjust="spacing" textLength="154.8955" x="27" y="608.1551">name : StringProperty</text><g data-visibility-modifier="PRIVATE_FIELD"><rect fill="none" height="6" style="stroke:#C82930;stroke-width:1;" width="6" x="15" y="618.1053"/></g><text fill="#000000" font-family="sans-serif" font-size="14" lengthAdjust="spacing" textLength="176.8184" x="27" y="624.452">surname : StringProperty</text><g data-visibility-modifier="PRIVATE_FIELD"><rect fill="none" height="6" style="stroke:#C82930;stroke-width:1;" width="6" x="15" y="634.4022"/></g><text fill="#000000" font-family="sans-serif" font-size="14" lengthAdjust="spacing" textLength="267.8936" x="27" y="640.7489">studentId : StringProperty {readOnly}</text><g data-visibility-modifier="PRIVATE_FIELD"><rect fill="none" height="6" style="stroke:#C82930;stroke-width:1;" width="6" x="15" y="650.6991"/></g><text fill="#000000" font-family="sans-serif" font-size="14" lengthAdjust="spacing" textLength="153.8018" x="27" y="657.0457">email : StringProperty</text><g data-visibility-modifier="PRIVATE_FIELD"><rect fill="none" height="6" style="stroke:#C82930;stroke-width:1;" width="6" x="15" y="666.9959"/></g><text fill="#000000" font-family="sans-serif" font-size="14" lengthAdjust="spacing" textLength="258.8564" x="27" y="673.3426">activeLoans : ObservableList&lt;Loan&gt;</text><line style="stroke:#181818;stroke-width:0.5;" x1="8" x2="386.1221" y1="680.6444" y2="680.6444"/><g data-visibility-modifier="PUBLIC_METHOD"><ellipse cx="18" cy="694.2928" fill="#84BE84" rx="3" ry="3" style="stroke:#038048;stroke-width:1;"/></g><text fill="#000000" font-family="sans-serif" font-size="14" lengthAdjust="spacing" textLength="66.0352" x="27" y="697.6395">Student()</text><g data-visibility-modifier="PUBLIC_METHOD"><ellipse cx="18" cy="710.5897" fill="#84BE84" rx="3" ry="3" style="stroke:#038048;stroke-width:1;"/></g><text fill="#000000" font-family="sans-serif" font-size="14" lengthAdjust="spacing" textLength="225.6133" x="27" y="713.9364">nameProperty() : StringProperty</text><g data-visibility-modifier="PUBLIC_METHOD"><ellipse cx="18" cy="726.8866" fill="#84BE84" rx="3" ry="3" style="stroke:#038048;stroke-width:1;"/></g><text fill="#000000" font-family="sans-serif" font-size="14" lengthAdjust="spacing" textLength="247.5361" x="27" y="730.2332">surnameProperty() : StringProperty</text><g data-visibility-modifier="PUBLIC_METHOD"><ellipse cx="18" cy="743.1834" fill="#84BE84" rx="3" ry="3" style="stroke:#038048;stroke-width:1;"/></g><text fill="#000000" font-family="sans-serif" font-size="14" lengthAdjust="spacing" textLength="252.4443" x="27" y="746.5301">studentIdProperty() : StringProperty</text><g data-visibility-modifier="PUBLIC_METHOD"><ellipse cx="18" cy="759.4803" fill="#84BE84" rx="3" ry="3" style="stroke:#038048;stroke-width:1;"/></g><text fill="#000000" font-family="sans-serif" font-size="14" lengthAdjust="spacing" textLength="224.5195" x="27" y="762.827">emailProperty() : StringProperty</text><g data-visibility-modifier="PUBLIC_METHOD"><ellipse cx="18" cy="775.7772" fill="#84BE84" rx="3" ry="3" style="stroke:#038048;stroke-width:1;"/></g><text fill="#000000" font-family="sans-serif" font-size="14" lengthAdjust="spacing" textLength="293.7676" x="27" y="779.1239">getActiveLoans() : ObservableList&lt;Loan&gt;</text><g data-visibility-modifier="PUBLIC_METHOD"><ellipse cx="18" cy="792.0741" fill="#84BE84" rx="3" ry="3" style="stroke:#038048;stroke-width:1;"/></g><text fill="#000000" font-family="sans-serif" font-size="14" lengthAdjust="spacing" textLength="296.9121" x="27" y="795.4207">addActiveLoan(in loanToAdd : Loan) : void</text><g data-visibility-modifier="PUBLIC_METHOD"><ellipse cx="18" cy="808.3709" fill="#84BE84" rx="3" ry="3" style="stroke:#038048;stroke-width:1;"/></g><text fill="#000000" font-family="sans-serif" font-size="14" lengthAdjust="spacing" textLength="354.1221" x="27" y="811.7176">removeActiveLoan(in loanToRemove : Loan) : void</text></g><!--class Book--><g class="entity" data-entity="Book" data-source-line="47" data-uid="ent0007" id="entity_Book"><rect fill="#F1F1F1" height="227.2656" rx="2.5" ry="2.5" style="stroke:#181818;stroke-width:0.5;" width="339.1953" x="822.46" y="575.46"/><ellipse cx="970.3863" cy="591.46" fill="#ADD1B2" rx="11" ry="11" style="stroke:#181818;stroke-width:1;"/><path d="M973.355,597.1006 Q972.7769,597.3975 972.1363,597.5381 Q971.4956,597.6944 970.7925,597.6944 Q968.2925,597.6944 966.9644,596.0538 Q965.6519,594.3975 965.6519,591.2725 Q965.6519,588.1475 966.9644,586.4913 Q968.2925,584.835 970.7925,584.835 Q971.4956,584.835 972.1363,584.9913 Q972.7925,585.1475 973.355,585.4444 L973.355,588.1631 Q972.73,587.585 972.1363,587.3194 Q971.5425,587.0381 970.9175,587.0381 Q969.5738,587.0381 968.8863,588.1163 Q968.1988,589.1788 968.1988,591.2725 Q968.1988,593.3663 968.8863,594.4444 Q969.5738,595.5069 970.9175,595.5069 Q971.5425,595.5069 972.1363,595.2413 Q972.73,594.96 973.355,594.3819 L973.355,597.1006 Z " fill="#000000"/><text fill="#000000" font-family="sans-serif" font-size="14" lengthAdjust="spacing" textLength="34.8428" x="990.8863" y="596.3067">Book</text><line style="stroke:#181818;stroke-width:0.5;" x1="823.46" x2="1160.6553" y1="607.46" y2="607.46"/><g data-visibility-modifier="PRIVATE_FIELD"><rect fill="none" height="6" style="stroke:#C82930;stroke-width:1;" width="6" x="830.46" y="618.1084"/></g><text fill="#000000" font-family="sans-serif" font-size="14" lengthAdjust="spacing" textLength="142.5635" x="842.46" y="624.4551">title : StringProperty</text><g data-visibility-modifier="PRIVATE_FIELD"><rect fill="none" height="6" style="stroke:#C82930;stroke-width:1;" width="6" x="830.46" y="634.4053"/></g><text fill="#000000" font-family="sans-serif" font-size="14" lengthAdjust="spacing" textLength="242.4775" x="842.46" y="640.752">publishmentYear : IntegerProperty</text><g data-visibility-modifier="PRIVATE_FIELD"><rect fill="none" height="6" style="stroke:#C82930;stroke-width:1;" width="6" x="830.46" y="650.7022"/></g><text fill="#000000" font-family="sans-serif" font-size="14" lengthAdjust="spacing" textLength="168.6221" x="842.46" y="657.0489">authors : StringProperty</text><g data-visibility-modifier="PRIVATE_FIELD"><rect fill="none" height="6" style="stroke:#C82930;stroke-width:1;" width="6" x="830.46" y="666.9991"/></g><text fill="#000000" font-family="sans-serif" font-size="14" lengthAdjust="spacing" textLength="248.5" x="842.46" y="673.3457">bookId : StringProperty {readOnly}</text><g data-visibility-modifier="PRIVATE_FIELD"><rect fill="none" height="6" style="stroke:#C82930;stroke-width:1;" width="6" x="830.46" y="683.2959"/></g><text fill="#000000" font-family="sans-serif" font-size="14" lengthAdjust="spacing" textLength="233.9873" x="842.46" y="689.6426">availableCopies : IntegerProperty</text><line style="stroke:#181818;stroke-width:0.5;" x1="823.46" x2="1160.6553" y1="696.9444" y2="696.9444"/><g data-visibility-modifier="PUBLIC_METHOD"><ellipse cx="833.46" cy="710.5928" fill="#84BE84" rx="3" ry="3" style="stroke:#038048;stroke-width:1;"/></g><text fill="#000000" font-family="sans-serif" font-size="14" lengthAdjust="spacing" textLength="45.7666" x="842.46" y="713.9395">Book()</text><g data-visibility-modifier="PUBLIC_METHOD"><ellipse cx="833.46" cy="726.8897" fill="#84BE84" rx="3" ry="3" style="stroke:#038048;stroke-width:1;"/></g><text fill="#000000" font-family="sans-serif" font-size="14" lengthAdjust="spacing" textLength="213.2813" x="842.46" y="730.2364">titleProperty() : StringProperty</text><g data-visibility-modifier="PUBLIC_METHOD"><ellipse cx="833.46" cy="743.1866" fill="#84BE84" rx="3" ry="3" style="stroke:#038048;stroke-width:1;"/></g><text fill="#000000" font-family="sans-serif" font-size="14" lengthAdjust="spacing" textLength="313.1953" x="842.46" y="746.5332">publishmentYearProperty() : IntegerProperty</text><g data-visibility-modifier="PUBLIC_METHOD"><ellipse cx="833.46" cy="759.4834" fill="#84BE84" rx="3" ry="3" style="stroke:#038048;stroke-width:1;"/></g><text fill="#000000" font-family="sans-serif" font-size="14" lengthAdjust="spacing" textLength="239.3398" x="842.46" y="762.8301">authorsProperty() : StringProperty</text><g data-visibility-modifier="PUBLIC_METHOD"><ellipse cx="833.46" cy="775.7803" fill="#84BE84" rx="3" ry="3" style="stroke:#038048;stroke-width:1;"/></g><text fill="#000000" font-family="sans-serif" font-size="14" lengthAdjust="spacing" textLength="233.0508" x="842.46" y="779.127">bookIdProperty() : StringProperty</text><g data-visibility-modifier="PUBLIC_METHOD"><ellipse cx="833.46" cy="792.0772" fill="#84BE84" rx="3" ry="3" style="stroke:#038048;stroke-width:1;"/></g><text fill="#000000" font-family="sans-serif" font-size="14" lengthAdjust="spacing" textLength="304.7051" x="842.46" y="795.4239">availableCopiesProperty() : IntegerProperty</text></g><!--class Loan--><g class="entity" data-entity="Loan" data-source-line="62" data-uid="ent0008" id="entity_Loan"><rect fill="#F1F1F1" height="178.375" rx="2.5" ry="2.5" style="stroke:#181818;stroke-width:0.5;" width="365.6914" x="422.21" y="599.9"/><ellipse cx="583.897" cy="615.9" fill="#ADD1B2" rx="11" ry="11" style="stroke:#181818;stroke-width:1;"/><path d="M586.8658,621.5406 Q586.2876,621.8375 585.647,621.9781 Q585.0064,622.1344 584.3033,622.1344 Q581.8033,622.1344 580.4751,620.4938 Q579.1626,618.8375 579.1626,615.7125 Q579.1626,612.5875 580.4751,610.9313 Q581.8033,609.275 584.3033,609.275 Q585.0064,609.275 585.647,609.4313 Q586.3033,609.5875 586.8658,609.8844 L586.8658,612.6031 Q586.2408,612.025 585.647,611.7594 Q585.0533,611.4781 584.4283,611.4781 Q583.0845,611.4781 582.397,612.5563 Q581.7095,613.6188 581.7095,615.7125 Q581.7095,617.8063 582.397,618.8844 Q583.0845,619.9469 584.4283,619.9469 Q585.0533,619.9469 585.647,619.6813 Q586.2408,619.4 586.8658,618.8219 L586.8658,621.5406 Z " fill="#000000"/><text fill="#000000" font-family="sans-serif" font-size="14" lengthAdjust="spacing" textLength="33.8174" x="604.397" y="620.7467">Loan</text><line style="stroke:#181818;stroke-width:0.5;" x1="423.21" x2="786.9014" y1="631.9" y2="631.9"/><g data-visibility-modifier="PRIVATE_FIELD"><rect fill="none" height="6" style="stroke:#C82930;stroke-width:1;" width="6" x="430.21" y="642.5484"/></g><text fill="#000000" font-family="sans-serif" font-size="14" lengthAdjust="spacing" textLength="208.4141" x="442.21" y="648.8951">student : Student {readOnly}</text><g data-visibility-modifier="PRIVATE_FIELD"><rect fill="none" height="6" style="stroke:#C82930;stroke-width:1;" width="6" x="430.21" y="658.8453"/></g><text fill="#000000" font-family="sans-serif" font-size="14" lengthAdjust="spacing" textLength="168.752" x="442.21" y="665.192">book : Book {readOnly}</text><g data-visibility-modifier="PRIVATE_FIELD"><rect fill="none" height="6" style="stroke:#C82930;stroke-width:1;" width="6" x="430.21" y="675.1422"/></g><text fill="#000000" font-family="sans-serif" font-size="14" lengthAdjust="spacing" textLength="268.9736" x="442.21" y="681.4889">loanEnd : ObjectProperty&lt;LocalDate&gt;</text><g data-visibility-modifier="PRIVATE_FIELD"><rect fill="none" height="6" style="stroke:#C82930;stroke-width:1;" width="6" x="430.21" y="691.4391"/></g><text fill="#000000" font-family="sans-serif" font-size="14" lengthAdjust="spacing" textLength="190.9619" x="442.21" y="697.7857">returned : BooleanProperty</text><line style="stroke:#181818;stroke-width:0.5;" x1="423.21" x2="786.9014" y1="705.0875" y2="705.0875"/><g data-visibility-modifier="PUBLIC_METHOD"><ellipse cx="433.21" cy="718.7359" fill="#84BE84" rx="3" ry="3" style="stroke:#038048;stroke-width:1;"/></g><text fill="#000000" font-family="sans-serif" font-size="14" lengthAdjust="spacing" textLength="157.7529" x="442.21" y="722.0826">getStudent() : Student</text><g data-visibility-modifier="PUBLIC_METHOD"><ellipse cx="433.21" cy="735.0328" fill="#84BE84" rx="3" ry="3" style="stroke:#038048;stroke-width:1;"/></g><text fill="#000000" font-family="sans-serif" font-size="14" lengthAdjust="spacing" textLength="117.2158" x="442.21" y="738.3795">getBook() : Book</text><g data-visibility-modifier="PUBLIC_METHOD"><ellipse cx="433.21" cy="751.3297" fill="#84BE84" rx="3" ry="3" style="stroke:#038048;stroke-width:1;"/></g><text fill="#000000" font-family="sans-serif" font-size="14" lengthAdjust="spacing" textLength="339.6914" x="442.21" y="754.6764">loanEndProperty() : ObjectProperty&lt;LocalDate&gt;</text><g data-visibility-modifier="PUBLIC_METHOD"><ellipse cx="433.21" cy="767.6266" fill="#84BE84" rx="3" ry="3" style="stroke:#038048;stroke-width:1;"/></g><text fill="#000000" font-family="sans-serif" font-size="14" lengthAdjust="spacing" textLength="261.6797" x="442.21" y="770.9732">returnedProperty() : BooleanProperty</text></g><!--class Library--><g class="entity" data-entity="Library" data-source-line="91" data-uid="ent0021" id="entity_Library"><rect fill="#F1F1F1" height="162.0781" rx="2.5" ry="2.5" style="stroke:#181818;stroke-width:0.5;" width="323.7529" x="443.18" y="7"/><ellipse cx="576.3304" cy="23" fill="#ADD1B2" rx="11" ry="11" style="stroke:#181818;stroke-width:1;"/><path d="M579.2991,28.6406 Q578.721,28.9375 578.0804,29.0781 Q577.4398,29.2344 576.7366,29.2344 Q574.2366,29.2344 572.9085,27.5938 Q571.596,25.9375 571.596,22.8125 Q571.596,19.6875 572.9085,18.0313 Q574.2366,16.375 576.7366,16.375 Q577.4398,16.375 578.0804,16.5313 Q578.7366,16.6875 579.2991,16.9844 L579.2991,19.7031 Q578.6741,19.125 578.0804,18.8594 Q577.4866,18.5781 576.8616,18.5781 Q575.5179,18.5781 574.8304,19.6563 Q574.1429,20.7188 574.1429,22.8125 Q574.1429,24.9063 574.8304,25.9844 Q575.5179,27.0469 576.8616,27.0469 Q577.4866,27.0469 578.0804,26.7813 Q578.6741,26.5 579.2991,25.9219 L579.2991,28.6406 Z " fill="#000000"/><text fill="#000000" font-family="sans-serif" font-size="14" lengthAdjust="spacing" textLength="48.9521" x="596.8304" y="27.8467">Library</text><line style="stroke:#181818;stroke-width:0.5;" x1="444.18" x2="765.9329" y1="39" y2="39"/><g data-visibility-modifier="PRIVATE_FIELD"><rect fill="none" height="6" style="stroke:#C82930;stroke-width:1;" width="6" x="451.18" y="49.6484"/></g><text fill="#000000" font-family="sans-serif" font-size="14" lengthAdjust="spacing" textLength="262.2471" x="463.18" y="55.9951">studentRegister : Register&lt;Student&gt;</text><g data-visibility-modifier="PRIVATE_FIELD"><rect fill="none" height="6" style="stroke:#C82930;stroke-width:1;" width="6" x="451.18" y="65.9453"/></g><text fill="#000000" font-family="sans-serif" font-size="14" lengthAdjust="spacing" textLength="217.3418" x="463.18" y="72.292">loanRegister : Register&lt;Loan&gt;</text><g data-visibility-modifier="PRIVATE_FIELD"><rect fill="none" height="6" style="stroke:#C82930;stroke-width:1;" width="6" x="451.18" y="82.2422"/></g><text fill="#000000" font-family="sans-serif" font-size="14" lengthAdjust="spacing" textLength="222.585" x="463.18" y="88.5889">bookRegister : Register&lt;Book&gt;</text><line style="stroke:#181818;stroke-width:0.5;" x1="444.18" x2="765.9329" y1="95.8906" y2="95.8906"/><g data-visibility-modifier="PUBLIC_METHOD"><ellipse cx="454.18" cy="109.5391" fill="#84BE84" rx="3" ry="3" style="stroke:#038048;stroke-width:1;"/></g><text fill="#000000" font-family="sans-serif" font-size="14" lengthAdjust="spacing" textLength="59.876" x="463.18" y="112.8857">Library()</text><g data-visibility-modifier="PUBLIC_METHOD"><ellipse cx="454.18" cy="125.8359" fill="#84BE84" rx="3" ry="3" style="stroke:#038048;stroke-width:1;"/></g><text fill="#000000" font-family="sans-serif" font-size="14" lengthAdjust="spacing" textLength="297.7529" x="463.18" y="129.1826">getStudentRegister() : Register&lt;Student&gt;</text><g data-visibility-modifier="PUBLIC_METHOD"><ellipse cx="454.18" cy="142.1328" fill="#84BE84" rx="3" ry="3" style="stroke:#038048;stroke-width:1;"/></g><text fill="#000000" font-family="sans-serif" font-size="14" lengthAdjust="spacing" textLength="257.2158" x="463.18" y="145.4795">getBookRegister() : Register&lt;Book&gt;</text><g data-visibility-modifier="PUBLIC_METHOD"><ellipse cx="454.18" cy="158.4297" fill="#84BE84" rx="3" ry="3" style="stroke:#038048;stroke-width:1;"/></g><text fill="#000000" font-family="sans-serif" font-size="14" lengthAdjust="spacing" textLength="255.165" x="463.18" y="161.7764">getLoanRegister() : Register&lt;Loan&gt;</text></g><!--reverse link Register to StudentRegister--><g class="link" data-entity-1="Register" data-entity-2="StudentRegister" data-source-line="79" data-uid="lnk10" id="link_Register_StudentRegister"><path codeLine="79" d="M452.1187,366.6847 C409.6387,386.6447 380.36,400.4 342.53,418.18" fill="none" id="Register-backto-StudentRegister" style="stroke:#181818;stroke-width:1;stroke-dasharray:7,7;"/><polygon fill="none" points="468.41,359.03,449.5672,361.2543,454.6703,372.1152,468.41,359.03" style="stroke:#181818;stroke-width:1;"/></g><!--link StudentRegister to Student--><g class="link" data-entity-1="StudentRegister" data-entity-2="Student" data-source-line="80" data-uid="lnk11" id="link_StudentRegister_Student"><path codeLine="80" d="M247.43,499.62 C242.89,516.6 238.8578,531.6831 233.0878,553.2931" fill="none" id="StudentRegister-to-Student" style="stroke:#181818;stroke-width:1;"/><polygon fill="#181818" points="231.54,559.09,237.7263,551.4265,232.8298,554.2592,229.9971,549.3627,231.54,559.09" style="stroke:#181818;stroke-width:1;"/><text fill="#000000" font-family="sans-serif" font-size="13" lengthAdjust="spacing" textLength="8.271" x="237.211" y="519.0858">1</text><text fill="#000000" font-family="sans-serif" font-size="13" lengthAdjust="spacing" textLength="6.5" x="227.3743" y="548.2115">*</text></g><!--reverse link Register to BookRegister--><g class="link" data-entity-1="Register" data-entity-2="BookRegister" data-source-line="82" data-uid="lnk13" id="link_Register_BookRegister"><path codeLine="82" d="M749.9385,367.0621 C789.9685,387.0221 816.81,400.4 852.46,418.18" fill="none" id="Register-backto-BookRegister" style="stroke:#181818;stroke-width:1;stroke-dasharray:7,7;"/><polygon fill="none" points="733.83,359.03,747.2612,372.4316,752.6159,361.6926,733.83,359.03" style="stroke:#181818;stroke-width:1;"/></g><!--link BookRegister to Book--><g class="link" data-entity-1="BookRegister" data-entity-2="Book" data-source-line="83" data-uid="lnk14" id="link_BookRegister_Book"><path codeLine="83" d="M942.51,499.62 C948.08,520.82 953.723,542.2776 960.873,569.4476" fill="none" id="BookRegister-to-Book" style="stroke:#181818;stroke-width:1;"/><polygon fill="#181818" points="962.4,575.25,963.9779,565.5284,961.1275,570.4146,956.2413,567.5643,962.4,575.25" style="stroke:#181818;stroke-width:1;"/><text fill="#000000" font-family="sans-serif" font-size="13" lengthAdjust="spacing" textLength="8.271" x="935.5191" y="519.0858">1</text><text fill="#000000" font-family="sans-serif" font-size="13" lengthAdjust="spacing" textLength="6.5" x="954.3239" y="564.5476">*</text></g><!--reverse link Register to LoanRegister--><g class="link" data-entity-1="Register" data-entity-2="LoanRegister" data-source-line="85" data-uid="lnk16" id="link_Register_LoanRegister"><path codeLine="85" d="M605.06,376.79 C605.06,396.96 605.06,400.62 605.06,418.53" fill="none" id="Register-backto-LoanRegister" style="stroke:#181818;stroke-width:1;stroke-dasharray:7,7;"/><polygon fill="none" points="605.06,358.79,599.06,376.79,611.06,376.79,605.06,358.79" style="stroke:#181818;stroke-width:1;"/></g><!--link LoanRegister to Loan--><g class="link" data-entity-1="LoanRegister" data-entity-2="Loan" data-source-line="86" data-uid="lnk17" id="link_LoanRegister_Loan"><path codeLine="86" d="M605.06,499.62 C605.06,527.2 605.06,559.06 605.06,593.61" fill="none" id="LoanRegister-to-Loan" style="stroke:#181818;stroke-width:1;"/><polygon fill="#181818" points="605.06,599.61,609.06,590.61,605.06,594.61,601.06,590.61,605.06,599.61" style="stroke:#181818;stroke-width:1;"/><text fill="#000000" font-family="sans-serif" font-size="13" lengthAdjust="spacing" textLength="8.271" x="596.4676" y="519.0858">1</text><text fill="#000000" font-family="sans-serif" font-size="13" lengthAdjust="spacing" textLength="6.5" x="598.8412" y="588.9543">*</text></g><!--reverse link Book to Loan--><g class="link" data-entity-1="Book" data-entity-2="Loan" data-source-line="88" data-uid="lnk19" id="link_Book_Loan"><path codeLine="88" d="M816.17,689.09 C804.9,689.09 799.63,689.09 788.36,689.09" fill="none" id="Book-backto-Loan" style="stroke:#181818;stroke-width:1;"/><polygon fill="#181818" points="822.17,689.09,813.17,685.09,817.17,689.09,813.17,693.09,822.17,689.09" style="stroke:#181818;stroke-width:1;"/><text fill="#000000" font-family="sans-serif" font-size="13" lengthAdjust="spacing" textLength="8.271" x="806.2969" y="685.8199">1</text><text fill="#000000" font-family="sans-serif" font-size="13" lengthAdjust="spacing" textLength="6.5" x="795.6473" y="685.8666">*</text></g><!--link Loan to Student--><g class="link" data-entity-1="Loan" data-entity-2="Student" data-source-line="89" data-uid="lnk20" id="link_Loan_Student"><path codeLine="89" d="M421.93,689.09 C410.46,689.09 398.99,689.09 387.51,689.09" fill="none" id="Loan-Student" style="stroke:#181818;stroke-width:1;"/><text fill="#000000" font-family="sans-serif" font-size="13" lengthAdjust="spacing" textLength="28.939" x="385.4431" y="685.7604">0...3</text><text fill="#000000" font-family="sans-serif" font-size="13" lengthAdjust="spacing" textLength="8.271" x="395.111" y="701.4525">1</text></g><!--link Library to Register--><g class="link" data-entity-1="Library" data-entity-2="Register" data-source-line="103" data-uid="lnk22" id="link_Library_Register"><path codeLine="103" d="M605.06,169.29 C605.06,189 605.06,203.85 605.06,222.69" fill="none" id="Library-to-Register" style="stroke:#181818;stroke-width:1;"/><polygon fill="#181818" points="605.06,228.69,609.06,219.69,605.06,223.69,601.06,219.69,605.06,228.69" style="stroke:#181818;stroke-width:1;"/><text fill="#000000" font-family="sans-serif" font-size="13" lengthAdjust="spacing" textLength="8.271" x="596.7161" y="189.2672">1</text><text fill="#000000" font-family="sans-serif" font-size="13" lengthAdjust="spacing" textLength="8.271" x="596.6368" y="217.82">3</text></g><!--SRC=[XLLBRzim3BxhLmWvfNCThDYj609qZqE10XtQei2ESiGcsXGha9KCGTR_FbAo7Kbsl1m2I_puyIbIrGxicrW1VuArQl3m-MLvOaBAkQgvCtTISdxBNwxmhp96WwZPraZrTYIvqPA4rno_Q_YJ0oripG42qPF_pX6gUHLQjRPUmI9l3bc3wroRq_rZrO0zY4h30rwYj-oTCMSGjW7BJuojj6WQ_kps4kfUzSJA9hqPKhKgIrPaolChiX5ulnZpEoAjekEGaS185-l4N0z6r16NZev3BW8ZLwmJkABmy-YHj1PRolgpiwfU_x1c1zOTCHbxUqaILE_bGCPF5eHyhFNndPMm5KgFg8kLKmSWBvjBCVJvHVyBygBJzlND28lMqsbCv_CaohiyYS0itftz7sktjWhuFiv0wbwgtOj_BRU-hAHwC4go8Zo2CNJ_91A5fDEmW4uvFLQdtRxIgjbiCUwV8AXXxl4jhy56jTYxZR7DY3ArxVygB0wOBWhygzafQ4OCXCwcAded9rERkPjWSzwYTNoIC8Gm2SaYcBIPFChpjF2iuIlE3Hb74OMVt5DXlzVIzyqlMBcE7ljc9VGtuM39IWiEUnfa8A0X5sKKMx1_7MVZ_ZuakpNBYjPM4jLbgqLdDS7dziCumLys0VbYl_Yxx7V4G3oxcV5Ibai- -p3hVMRntCiP4bcYxgDZyPpBTHDPeakIeEkFfQRxcvOpN7zSB1QVK6HBB-cTRQklAYliSNHTz1koNnJvoEuHOKpasw4NXxs0mpnOenTqhdkoxOOskquOXxKR1p7feXWwHuLkxOSSKgemCHti7m00]--></g></svg>