<svg xmlns="http://www.w3.org/2000/svg" xmlns:xlink="http://www.w3.org/1999/xlink" contentStyleType="text/css" data-diagram-type="CLASS" height="962px" preserveAspectRatio="none" style="width:2367px;height:962px;background:#FFFFFF;" version="1.1" viewBox="0 0 2367 962" width="2367px" zoomAndPan="magnify"><defs/><g><!--class StudentRegisterController--><g class="entity" data-entity="StudentRegisterController" data-source-line="4" data-uid="ent0002" id="entity_StudentRegisterController"><rect fill="#F1F1F1" height="276.1563" rx="2.5" ry="2.5" style="stroke:#181818;stroke-width:0.5;" width="479.9063" x="1027" y="278"/><ellipse cx="1171.4263" cy="294" fill="#ADD1B2" rx="11" ry="11" style="stroke:#181818;stroke-width:1;"/><path d="M1174.395,299.6406 Q1173.8169,299.9375 1173.1763,300.0781 Q1172.5356,300.2344 1171.8325,300.2344 Q1169.3325,300.2344 1168.0044,298.5938 Q1166.6919,296.9375 1166.6919,293.8125 Q1166.6919,290.6875 1168.0044,289.0313 Q1169.3325,287.375 1171.8325,287.375 Q1172.5356,287.375 1173.1763,287.5313 Q1173.8325,287.6875 1174.395,287.9844 L1174.395,290.7031 Q1173.77,290.125 1173.1763,289.8594 Q1172.5825,289.5781 1171.9575,289.5781 Q1170.6138,289.5781 1169.9263,290.6563 Q1169.2388,291.7188 1169.2388,293.8125 Q1169.2388,295.9063 1169.9263,296.9844 Q1170.6138,298.0469 1171.9575,298.0469 Q1172.5825,298.0469 1173.1763,297.7813 Q1173.77,297.5 1174.395,296.9219 L1174.395,299.6406 Z " fill="#000000"/><text fill="#000000" font-family="sans-serif" font-size="14" lengthAdjust="spacing" textLength="182.5537" x="1191.9263" y="298.8467">StudentRegisterController</text><line style="stroke:#181818;stroke-width:0.5;" x1="1028" x2="1505.9063" y1="310" y2="310"/><rect fill="none" height="6" style="stroke:#C82930;stroke-width:1;" width="6" x="1035" y="320.6484"/><text fill="#000000" font-family="sans-serif" font-size="14" lengthAdjust="spacing" textLength="256.2793" x="1047" y="326.9951">studentTable : TableView&lt;Student&gt;</text><rect fill="none" height="6" style="stroke:#C82930;stroke-width:1;" width="6" x="1035" y="336.9453"/><text fill="#000000" font-family="sans-serif" font-size="14" lengthAdjust="spacing" textLength="302.0117" x="1047" y="343.292">nameClm : TableColumn&lt;Student, String&gt;</text><rect fill="none" height="6" style="stroke:#C82930;stroke-width:1;" width="6" x="1035" y="353.2422"/><text fill="#000000" font-family="sans-serif" font-size="14" lengthAdjust="spacing" textLength="323.9346" x="1047" y="359.5889">surnameClm : TableColumn&lt;Student, String&gt;</text><rect fill="none" height="6" style="stroke:#C82930;stroke-width:1;" width="6" x="1035" y="369.5391"/><text fill="#000000" font-family="sans-serif" font-size="14" lengthAdjust="spacing" textLength="328.8428" x="1047" y="375.8857">studentIdClm : TableColumn&lt;Student, String&gt;</text><rect fill="none" height="6" style="stroke:#C82930;stroke-width:1;" width="6" x="1035" y="385.8359"/><text fill="#000000" font-family="sans-serif" font-size="14" lengthAdjust="spacing" textLength="300.918" x="1047" y="392.1826">emailClm : TableColumn&lt;Student, String&gt;</text><rect fill="none" height="6" style="stroke:#C82930;stroke-width:1;" width="6" x="1035" y="402.1328"/><text fill="#000000" font-family="sans-serif" font-size="14" lengthAdjust="spacing" textLength="262.2471" x="1047" y="408.4795">studentRegister : Register&lt;Student&gt;</text><rect fill="none" height="6" style="stroke:#C82930;stroke-width:1;" width="6" x="1035" y="418.4297"/><text fill="#000000" font-family="sans-serif" font-size="14" lengthAdjust="spacing" textLength="258.8018" x="1047" y="424.7764">sideBarController : SideBarController</text><line style="stroke:#181818;stroke-width:0.5;" x1="1028" x2="1505.9063" y1="432.0781" y2="432.0781"/><ellipse cx="1038" cy="445.7266" fill="#84BE84" rx="3" ry="3" style="stroke:#038048;stroke-width:1;"/><text fill="#000000" font-family="sans-serif" font-size="14" lengthAdjust="spacing" textLength="453.9063" x="1047" y="449.0732">StudentRegisterController(Register&lt;Student&gt; studentRegisterz)</text><ellipse cx="1038" cy="462.0234" fill="#84BE84" rx="3" ry="3" style="stroke:#038048;stroke-width:1;"/><text fill="#000000" font-family="sans-serif" font-size="14" lengthAdjust="spacing" textLength="112.5195" x="1047" y="465.3701">initialize() : void</text><ellipse cx="1038" cy="478.3203" fill="#84BE84" rx="3" ry="3" style="stroke:#038048;stroke-width:1;"/><text fill="#000000" font-family="sans-serif" font-size="14" lengthAdjust="spacing" textLength="175.5469" x="1047" y="481.667">updateTableView() : void</text><rect fill="#F24D5C" height="6" style="stroke:#C82930;stroke-width:1;" width="6" x="1035" y="491.6172"/><text fill="#000000" font-family="sans-serif" font-size="14" lengthAdjust="spacing" textLength="172.915" x="1047" y="497.9639">openInsertPopup() : void</text><rect fill="#F24D5C" height="6" style="stroke:#C82930;stroke-width:1;" width="6" x="1035" y="507.9141"/><text fill="#000000" font-family="sans-serif" font-size="14" lengthAdjust="spacing" textLength="179.3955" x="1047" y="514.2607">openModifyPopup() : void</text><rect fill="#F24D5C" height="6" style="stroke:#C82930;stroke-width:1;" width="6" x="1035" y="524.2109"/><text fill="#000000" font-family="sans-serif" font-size="14" lengthAdjust="spacing" textLength="201.9199" x="1047" y="530.5576">removeFromRegister() : void</text><rect fill="#F24D5C" height="6" style="stroke:#C82930;stroke-width:1;" width="6" x="1035" y="540.5078"/><text fill="#000000" font-family="sans-serif" font-size="14" lengthAdjust="spacing" textLength="135.8232" x="1047" y="546.8545">searchBook() : void</text></g><!--class SideBarController--><g class="entity" data-entity="SideBarController" data-source-line="4" data-uid="ent0003" id="entity_SideBarController"><rect fill="#F1F1F1" height="178.375" rx="2.5" ry="2.5" style="stroke:#181818;stroke-width:0.5;" width="226.751" x="1289.5" y="695.5"/><ellipse cx="1336.9312" cy="711.5" fill="#ADD1B2" rx="11" ry="11" style="stroke:#181818;stroke-width:1;"/><path d="M1339.8999,717.1406 Q1339.3218,717.4375 1338.6812,717.5781 Q1338.0405,717.7344 1337.3374,717.7344 Q1334.8374,717.7344 1333.5093,716.0938 Q1332.1968,714.4375 1332.1968,711.3125 Q1332.1968,708.1875 1333.5093,706.5313 Q1334.8374,704.875 1337.3374,704.875 Q1338.0405,704.875 1338.6812,705.0313 Q1339.3374,705.1875 1339.8999,705.4844 L1339.8999,708.2031 Q1339.2749,707.625 1338.6812,707.3594 Q1338.0874,707.0781 1337.4624,707.0781 Q1336.1187,707.0781 1335.4312,708.1563 Q1334.7437,709.2188 1334.7437,711.3125 Q1334.7437,713.4063 1335.4312,714.4844 Q1336.1187,715.5469 1337.4624,715.5469 Q1338.0874,715.5469 1338.6812,715.2813 Q1339.2749,715 1339.8999,714.4219 L1339.8999,717.1406 Z " fill="#000000"/><text fill="#000000" font-family="sans-serif" font-size="14" lengthAdjust="spacing" textLength="123.3887" x="1357.4312" y="716.3467">SideBarController</text><line style="stroke:#181818;stroke-width:0.5;" x1="1290.5" x2="1515.251" y1="727.5" y2="727.5"/><rect fill="none" height="6" style="stroke:#C82930;stroke-width:1;" width="6" x="1297.5" y="738.1484"/><text fill="#000000" font-family="sans-serif" font-size="14" lengthAdjust="spacing" textLength="110.8311" x="1309.5" y="744.4951">addBtn : Button</text><rect fill="none" height="6" style="stroke:#C82930;stroke-width:1;" width="6" x="1297.5" y="754.4453"/><text fill="#000000" font-family="sans-serif" font-size="14" lengthAdjust="spacing" textLength="165.2451" x="1309.5" y="760.792">searchBarTF : TextField</text><rect fill="none" height="6" style="stroke:#C82930;stroke-width:1;" width="6" x="1297.5" y="770.7422"/><text fill="#000000" font-family="sans-serif" font-size="14" lengthAdjust="spacing" textLength="137.9492" x="1309.5" y="777.0889">removeBtn : Button</text><rect fill="none" height="6" style="stroke:#C82930;stroke-width:1;" width="6" x="1297.5" y="787.0391"/><text fill="#000000" font-family="sans-serif" font-size="14" lengthAdjust="spacing" textLength="132.6719" x="1309.5" y="793.3857">modifyBtn : Button</text><line style="stroke:#181818;stroke-width:0.5;" x1="1290.5" x2="1515.251" y1="800.6875" y2="800.6875"/><ellipse cx="1300.5" cy="814.3359" fill="#84BE84" rx="3" ry="3" style="stroke:#038048;stroke-width:1;"/><text fill="#000000" font-family="sans-serif" font-size="14" lengthAdjust="spacing" textLength="145.7422" x="1309.5" y="817.6826">getAddBtn() : Button</text><ellipse cx="1300.5" cy="830.6328" fill="#84BE84" rx="3" ry="3" style="stroke:#038048;stroke-width:1;"/><text fill="#000000" font-family="sans-serif" font-size="14" lengthAdjust="spacing" textLength="200.751" x="1309.5" y="833.9795">getSearchBarTF() : TextField</text><ellipse cx="1300.5" cy="846.9297" fill="#84BE84" rx="3" ry="3" style="stroke:#038048;stroke-width:1;"/><text fill="#000000" font-family="sans-serif" font-size="14" lengthAdjust="spacing" textLength="175.834" x="1309.5" y="850.2764">getRemoveBtn() : Button</text><ellipse cx="1300.5" cy="863.2266" fill="#84BE84" rx="3" ry="3" style="stroke:#038048;stroke-width:1;"/><text fill="#000000" font-family="sans-serif" font-size="14" lengthAdjust="spacing" textLength="165.0264" x="1309.5" y="866.5732">getModifyBtn() : Button</text></g><!--class Register<T>--><g class="entity" data-entity="Register.T." data-source-line="5" data-uid="ent0005" id="entity_Register.T."><rect fill="#F1F1F1" height="129.4844" rx="2.5" ry="2.5" style="stroke:#181818;stroke-width:0.5;" width="237.3398" x="1002.5" y="720"/><ellipse cx="1071.7788" cy="736" fill="#B4A7E5" rx="11" ry="11" style="stroke:#181818;stroke-width:1;"/><path d="M1067.7007,731.7656 L1067.7007,729.6094 L1075.0913,729.6094 L1075.0913,731.7656 L1072.6226,731.7656 L1072.6226,739.8438 L1075.0913,739.8438 L1075.0913,742 L1067.7007,742 L1067.7007,739.8438 L1070.1694,739.8438 L1070.1694,731.7656 L1067.7007,731.7656 Z " fill="#000000"/><text fill="#000000" font-family="sans-serif" font-size="14" font-style="italic" lengthAdjust="spacing" textLength="90.2822" x="1092.2788" y="740.8467">Register&lt;T&gt;</text><line style="stroke:#181818;stroke-width:0.5;" x1="1003.5" x2="1238.8398" y1="752" y2="752"/><line style="stroke:#181818;stroke-width:0.5;" x1="1003.5" x2="1238.8398" y1="760" y2="760"/><ellipse cx="1013.5" cy="773.6484" fill="#84BE84" rx="3" ry="3" style="stroke:#038048;stroke-width:1;"/><text fill="#000000" font-family="sans-serif" font-size="14" lengthAdjust="spacing" textLength="134.9277" x="1022.5" y="776.9951">add(T toAdd) : void</text><ellipse cx="1013.5" cy="789.9453" fill="#84BE84" rx="3" ry="3" style="stroke:#038048;stroke-width:1;"/><text fill="#000000" font-family="sans-serif" font-size="14" lengthAdjust="spacing" textLength="211.3398" x="1022.5" y="793.292">modify(T old, T newObj) : void</text><ellipse cx="1013.5" cy="806.2422" fill="#84BE84" rx="3" ry="3" style="stroke:#038048;stroke-width:1;"/><text fill="#000000" font-family="sans-serif" font-size="14" lengthAdjust="spacing" textLength="192.1377" x="1022.5" y="809.5889">remove(T toRemove) : void</text><ellipse cx="1013.5" cy="822.5391" fill="#84BE84" rx="3" ry="3" style="stroke:#038048;stroke-width:1;"/><text fill="#000000" font-family="sans-serif" font-size="14" lengthAdjust="spacing" textLength="209.1865" x="1022.5" y="825.8857">isUnique(T toVerify) : boolean</text><ellipse cx="1013.5" cy="838.8359" fill="#84BE84" rx="3" ry="3" style="stroke:#038048;stroke-width:1;"/><text fill="#000000" font-family="sans-serif" font-size="14" lengthAdjust="spacing" textLength="186.7578" x="1022.5" y="842.1826">getRegisterList() : List&lt;T&gt;</text></g><!--class StudentInsertPopupController--><g class="entity" data-entity="StudentInsertPopupController" data-source-line="6" data-uid="ent0007" id="entity_StudentInsertPopupController"><rect fill="#F1F1F1" height="96.8906" rx="2.5" ry="2.5" style="stroke:#181818;stroke-width:0.5;" width="969.9404" x="7" y="367.5"/><ellipse cx="383.6738" cy="383.5" fill="#ADD1B2" rx="11" ry="11" style="stroke:#181818;stroke-width:1;"/><path d="M386.6426,389.1406 Q386.0645,389.4375 385.4238,389.5781 Q384.7832,389.7344 384.0801,389.7344 Q381.5801,389.7344 380.252,388.0938 Q378.9395,386.4375 378.9395,383.3125 Q378.9395,380.1875 380.252,378.5313 Q381.5801,376.875 384.0801,376.875 Q384.7832,376.875 385.4238,377.0313 Q386.0801,377.1875 386.6426,377.4844 L386.6426,380.2031 Q386.0176,379.625 385.4238,379.3594 Q384.8301,379.0781 384.2051,379.0781 Q382.8613,379.0781 382.1738,380.1563 Q381.4863,381.2188 381.4863,383.3125 Q381.4863,385.4063 382.1738,386.4844 Q382.8613,387.5469 384.2051,387.5469 Q384.8301,387.5469 385.4238,387.2813 Q386.0176,387 386.6426,386.4219 L386.6426,389.1406 Z " fill="#000000"/><text fill="#000000" font-family="sans-serif" font-size="14" lengthAdjust="spacing" textLength="208.0928" x="404.1738" y="388.3467">StudentInsertPopupController</text><line style="stroke:#181818;stroke-width:0.5;" x1="8" x2="975.9404" y1="399.5" y2="399.5"/><rect fill="none" height="6" style="stroke:#C82930;stroke-width:1;" width="6" x="15" y="410.1484"/><text fill="#000000" font-family="sans-serif" font-size="14" lengthAdjust="spacing" textLength="345.6865" x="27" y="416.4951">studentRegisterAdder : RegisterAdder&lt;Student&gt;</text><rect fill="none" height="6" style="stroke:#C82930;stroke-width:1;" width="6" x="15" y="426.4453"/><text fill="#000000" font-family="sans-serif" font-size="14" lengthAdjust="spacing" textLength="388.6709" x="27" y="432.792">studentRegisterValidator : RegisterValidator&lt;Student&gt;</text><line style="stroke:#181818;stroke-width:0.5;" x1="8" x2="975.9404" y1="440.0938" y2="440.0938"/><ellipse cx="18" cy="453.7422" fill="#84BE84" rx="3" ry="3" style="stroke:#038048;stroke-width:1;"/><text fill="#000000" font-family="sans-serif" font-size="14" lengthAdjust="spacing" textLength="943.9404" x="27" y="457.0889">StudentInsertPopupController(RegisterAdder&lt;Student&gt; studentRegisterAdder, RegisterValidator&lt;Student&gt; studentRegisterValidator)</text></g><!--class StudentModifyPopupController--><g class="entity" data-entity="StudentModifyPopupController" data-source-line="7" data-uid="ent0010" id="entity_StudentModifyPopupController"><rect fill="#F1F1F1" height="113.1875" rx="2.5" ry="2.5" style="stroke:#181818;stroke-width:0.5;" width="803.5264" x="1557" y="359.5"/><ellipse cx="1847.2266" cy="375.5" fill="#ADD1B2" rx="11" ry="11" style="stroke:#181818;stroke-width:1;"/><path d="M1850.1953,381.1406 Q1849.6172,381.4375 1848.9766,381.5781 Q1848.3359,381.7344 1847.6328,381.7344 Q1845.1328,381.7344 1843.8047,380.0938 Q1842.4922,378.4375 1842.4922,375.3125 Q1842.4922,372.1875 1843.8047,370.5313 Q1845.1328,368.875 1847.6328,368.875 Q1848.3359,368.875 1848.9766,369.0313 Q1849.6328,369.1875 1850.1953,369.4844 L1850.1953,372.2031 Q1849.5703,371.625 1848.9766,371.3594 Q1848.3828,371.0781 1847.7578,371.0781 Q1846.4141,371.0781 1845.7266,372.1563 Q1845.0391,373.2188 1845.0391,375.3125 Q1845.0391,377.4063 1845.7266,378.4844 Q1846.4141,379.5469 1847.7578,379.5469 Q1848.3828,379.5469 1848.9766,379.2813 Q1849.5703,379 1850.1953,378.4219 L1850.1953,381.1406 Z " fill="#000000"/><text fill="#000000" font-family="sans-serif" font-size="14" lengthAdjust="spacing" textLength="214.5732" x="1867.7266" y="380.3467">StudentModifyPopupController</text><line style="stroke:#181818;stroke-width:0.5;" x1="1558" x2="2359.5264" y1="391.5" y2="391.5"/><rect fill="none" height="6" style="stroke:#C82930;stroke-width:1;" width="6" x="1565" y="402.1484"/><text fill="#000000" font-family="sans-serif" font-size="14" lengthAdjust="spacing" textLength="375.4639" x="1577" y="408.4951">studentRegisterModifier : RegisterModifier&lt;Student&gt;</text><rect fill="none" height="6" style="stroke:#C82930;stroke-width:1;" width="6" x="1565" y="418.4453"/><text fill="#000000" font-family="sans-serif" font-size="14" lengthAdjust="spacing" textLength="185.999" x="1577" y="424.792">studentToModify : Student</text><line style="stroke:#181818;stroke-width:0.5;" x1="1558" x2="2359.5264" y1="432.0938" y2="432.0938"/><ellipse cx="1568" cy="445.7422" fill="#84BE84" rx="3" ry="3" style="stroke:#038048;stroke-width:1;"/><text fill="#000000" font-family="sans-serif" font-size="14" lengthAdjust="spacing" textLength="777.5264" x="1577" y="449.0889">StudentModifyPopupController(RegisterModifier&lt;Student&gt; studentRegisterModifier, Student studentToModify)</text><ellipse cx="1568" cy="462.0391" fill="#84BE84" rx="3" ry="3" style="stroke:#038048;stroke-width:1;"/><text fill="#000000" font-family="sans-serif" font-size="14" lengthAdjust="spacing" textLength="112.5195" x="1577" y="465.3857">initialize() : void</text></g><!--class RegisterAdder<T>--><g class="entity" data-entity="RegisterAdder.T." data-source-line="9" data-uid="ent0012" id="entity_RegisterAdder.T."><rect fill="#F1F1F1" height="64.2969" rx="2.5" ry="2.5" style="stroke:#181818;stroke-width:0.5;" width="164.002" x="410" y="80.5"/><ellipse cx="425" cy="96.5" fill="#B4A7E5" rx="11" ry="11" style="stroke:#181818;stroke-width:1;"/><path d="M420.9219,92.2656 L420.9219,90.1094 L428.3125,90.1094 L428.3125,92.2656 L425.8438,92.2656 L425.8438,100.3438 L428.3125,100.3438 L428.3125,102.5 L420.9219,102.5 L420.9219,100.3438 L423.3906,100.3438 L423.3906,92.2656 L420.9219,92.2656 Z " fill="#000000"/><text fill="#000000" font-family="sans-serif" font-size="14" font-style="italic" lengthAdjust="spacing" textLength="132.002" x="439" y="101.3467">RegisterAdder&lt;T&gt;</text><line style="stroke:#181818;stroke-width:0.5;" x1="411" x2="573.002" y1="112.5" y2="112.5"/><line style="stroke:#181818;stroke-width:0.5;" x1="411" x2="573.002" y1="120.5" y2="120.5"/><ellipse cx="421" cy="134.1484" fill="#84BE84" rx="3" ry="3" style="stroke:#038048;stroke-width:1;"/><text fill="#000000" font-family="sans-serif" font-size="14" lengthAdjust="spacing" textLength="134.9277" x="430" y="137.4951">add(T toAdd) : void</text></g><!--class RegisterValidator<T>--><g class="entity" data-entity="RegisterValidator.T." data-source-line="10" data-uid="ent0015" id="entity_RegisterValidator.T."><rect fill="#F1F1F1" height="64.2969" rx="2.5" ry="2.5" style="stroke:#181818;stroke-width:0.5;" width="235.1865" x="374.5" y="752.5"/><ellipse cx="411.8616" cy="768.5" fill="#B4A7E5" rx="11" ry="11" style="stroke:#181818;stroke-width:1;"/><path d="M407.7834,764.2656 L407.7834,762.1094 L415.1741,762.1094 L415.1741,764.2656 L412.7053,764.2656 L412.7053,772.3438 L415.1741,772.3438 L415.1741,774.5 L407.7834,774.5 L407.7834,772.3438 L410.2522,772.3438 L410.2522,764.2656 L407.7834,764.2656 Z " fill="#000000"/><text fill="#000000" font-family="sans-serif" font-size="14" font-style="italic" lengthAdjust="spacing" textLength="153.4941" x="430.8308" y="773.3467">RegisterValidator&lt;T&gt;</text><line style="stroke:#181818;stroke-width:0.5;" x1="375.5" x2="608.6865" y1="784.5" y2="784.5"/><line style="stroke:#181818;stroke-width:0.5;" x1="375.5" x2="608.6865" y1="792.5" y2="792.5"/><ellipse cx="385.5" cy="806.1484" fill="#84BE84" rx="3" ry="3" style="stroke:#038048;stroke-width:1;"/><text fill="#000000" font-family="sans-serif" font-size="14" lengthAdjust="spacing" textLength="209.1865" x="394.5" y="809.4951">isUnique(T toVerify) : boolean</text></g><!--class StudentPopupController--><g class="entity" data-entity="StudentPopupController" data-source-line="11" data-uid="ent0017" id="entity_StudentPopupController"><rect fill="#F1F1F1" height="210.9688" rx="2.5" ry="2.5" style="stroke:#181818;stroke-width:0.5;" width="586.5264" x="913.5" y="7"/><ellipse cx="1118.5439" cy="23" fill="#A9DCDF" rx="11" ry="11" style="stroke:#181818;stroke-width:1;"/><path d="M1118.6533,18.3438 L1117.4971,23.4219 L1119.8252,23.4219 L1118.6533,18.3438 Z M1117.1689,16.1094 L1120.1533,16.1094 L1123.5127,28.5 L1121.0596,28.5 L1120.2939,25.4375 L1117.0127,25.4375 L1116.2627,28.5 L1113.8252,28.5 L1117.1689,16.1094 Z " fill="#000000"/><text fill="#000000" font-family="sans-serif" font-size="14" font-style="italic" lengthAdjust="spacing" textLength="167.9385" x="1139.0439" y="27.8467">StudentPopupController</text><line style="stroke:#181818;stroke-width:0.5;" x1="914.5" x2="1499.0264" y1="39" y2="39"/><polygon fill="none" points="924.5,47.6484,928.5,51.6484,924.5,55.6484,920.5,51.6484" style="stroke:#B38D22;stroke-width:1;"/><text fill="#000000" font-family="sans-serif" font-size="14" lengthAdjust="spacing" textLength="134.1963" x="933.5" y="55.9951">nameTF : TextField</text><polygon fill="none" points="924.5,63.9453,928.5,67.9453,924.5,71.9453,920.5,67.9453" style="stroke:#B38D22;stroke-width:1;"/><text fill="#000000" font-family="sans-serif" font-size="14" lengthAdjust="spacing" textLength="156.1191" x="933.5" y="72.292">surnameTF : TextField</text><polygon fill="none" points="924.5,80.2422,928.5,84.2422,924.5,88.2422,920.5,84.2422" style="stroke:#B38D22;stroke-width:1;"/><text fill="#000000" font-family="sans-serif" font-size="14" lengthAdjust="spacing" textLength="161.0273" x="933.5" y="88.5889">studentIdTF : TextField</text><polygon fill="none" points="924.5,96.5391,928.5,100.5391,924.5,104.5391,920.5,100.5391" style="stroke:#B38D22;stroke-width:1;"/><text fill="#000000" font-family="sans-serif" font-size="14" lengthAdjust="spacing" textLength="133.1025" x="933.5" y="104.8857">emailTF : TextField</text><polygon fill="none" points="924.5,112.8359,928.5,116.8359,924.5,120.8359,920.5,116.8359" style="stroke:#B38D22;stroke-width:1;"/><text fill="#000000" font-family="sans-serif" font-size="14" lengthAdjust="spacing" textLength="137.8262" x="933.5" y="121.1826">confirmBtn : Button</text><polygon fill="none" points="924.5,129.1328,928.5,133.1328,924.5,137.1328,920.5,133.1328" style="stroke:#B38D22;stroke-width:1;"/><text fill="#000000" font-family="sans-serif" font-size="14" lengthAdjust="spacing" textLength="129.8281" x="933.5" y="137.4795">cancelBtn : Button</text><line style="stroke:#181818;stroke-width:0.5;" x1="914.5" x2="1499.0264" y1="144.7813" y2="144.7813"/><ellipse cx="924.5" cy="158.4297" fill="#84BE84" rx="3" ry="3" style="stroke:#038048;stroke-width:1;"/><text fill="#000000" font-family="sans-serif" font-size="14" lengthAdjust="spacing" textLength="112.5195" x="933.5" y="161.7764">initialize() : void</text><ellipse cx="924.5" cy="174.7266" fill="#84BE84" rx="3" ry="3" style="stroke:#038048;stroke-width:1;"/><text fill="#000000" font-family="sans-serif" font-size="14" font-style="italic" lengthAdjust="spacing" textLength="304.0967" x="933.5" y="178.0732">confirmBtnAction(ActionEvent event) : void</text><ellipse cx="924.5" cy="191.0234" fill="#84BE84" rx="3" ry="3" style="stroke:#038048;stroke-width:1;"/><text fill="#000000" font-family="sans-serif" font-size="14" lengthAdjust="spacing" textLength="296.0986" x="933.5" y="194.3701">cancelBtnAction(ActionEvent event) : void</text><polygon fill="#FFFF44" points="924.5,202.3203,928.5,206.3203,924.5,210.3203,920.5,206.3203" style="stroke:#B38D22;stroke-width:1;"/><text fill="#000000" font-family="sans-serif" font-size="14" lengthAdjust="spacing" textLength="560.5264" x="933.5" y="210.667">showAlert(Alert.AlertType type, String title, String header, String content) : void</text></g><!--class RegisterModifier<T>--><g class="entity" data-entity="RegisterModifier.T." data-source-line="14" data-uid="ent0020" id="entity_RegisterModifier.T."><rect fill="#F1F1F1" height="64.2969" rx="2.5" ry="2.5" style="stroke:#181818;stroke-width:0.5;" width="237.3398" x="1840.5" y="80.5"/><ellipse cx="1881.8021" cy="96.5" fill="#B4A7E5" rx="11" ry="11" style="stroke:#181818;stroke-width:1;"/><path d="M1877.724,92.2656 L1877.724,90.1094 L1885.1146,90.1094 L1885.1146,92.2656 L1882.6459,92.2656 L1882.6459,100.3438 L1885.1146,100.3438 L1885.1146,102.5 L1877.724,102.5 L1877.724,100.3438 L1880.1928,100.3438 L1880.1928,92.2656 L1877.724,92.2656 Z " fill="#000000"/><text fill="#000000" font-family="sans-serif" font-size="14" font-style="italic" lengthAdjust="spacing" textLength="146.8906" x="1901.6471" y="101.3467">RegisterModifier&lt;T&gt;</text><line style="stroke:#181818;stroke-width:0.5;" x1="1841.5" x2="2076.8398" y1="112.5" y2="112.5"/><line style="stroke:#181818;stroke-width:0.5;" x1="1841.5" x2="2076.8398" y1="120.5" y2="120.5"/><ellipse cx="1851.5" cy="134.1484" fill="#84BE84" rx="3" ry="3" style="stroke:#038048;stroke-width:1;"/><text fill="#000000" font-family="sans-serif" font-size="14" lengthAdjust="spacing" textLength="211.3398" x="1860.5" y="137.4951">modify(T old, T newObj) : void</text></g><!--class Student--><g class="entity" data-entity="Student" data-source-line="16" data-uid="ent0025" id="entity_Student"><rect fill="#F1F1F1" height="341.3438" rx="2.5" ry="2.5" style="stroke:#181818;stroke-width:0.5;" width="510.1348" x="1704" y="614"/><ellipse cx="1927.2617" cy="630" fill="#ADD1B2" rx="11" ry="11" style="stroke:#181818;stroke-width:1;"/><path d="M1930.2305,635.6406 Q1929.6523,635.9375 1929.0117,636.0781 Q1928.3711,636.2344 1927.668,636.2344 Q1925.168,636.2344 1923.8398,634.5938 Q1922.5273,632.9375 1922.5273,629.8125 Q1922.5273,626.6875 1923.8398,625.0313 Q1925.168,623.375 1927.668,623.375 Q1928.3711,623.375 1929.0117,623.5313 Q1929.668,623.6875 1930.2305,623.9844 L1930.2305,626.7031 Q1929.6055,626.125 1929.0117,625.8594 Q1928.418,625.5781 1927.793,625.5781 Q1926.4492,625.5781 1925.7617,626.6563 Q1925.0742,627.7188 1925.0742,629.8125 Q1925.0742,631.9063 1925.7617,632.9844 Q1926.4492,634.0469 1927.793,634.0469 Q1928.418,634.0469 1929.0117,633.7813 Q1929.6055,633.5 1930.2305,632.9219 L1930.2305,635.6406 Z " fill="#000000"/><text fill="#000000" font-family="sans-serif" font-size="14" lengthAdjust="spacing" textLength="55.1113" x="1947.7617" y="634.8467">Student</text><line style="stroke:#181818;stroke-width:0.5;" x1="1705" x2="2213.1348" y1="646" y2="646"/><rect fill="none" height="6" style="stroke:#C82930;stroke-width:1;" width="6" x="1712" y="656.6484"/><text fill="#000000" font-family="sans-serif" font-size="14" lengthAdjust="spacing" textLength="95.1016" x="1724" y="662.9951">name : String</text><rect fill="none" height="6" style="stroke:#C82930;stroke-width:1;" width="6" x="1712" y="672.9453"/><text fill="#000000" font-family="sans-serif" font-size="14" lengthAdjust="spacing" textLength="117.0244" x="1724" y="679.292">surname : String</text><rect fill="none" height="6" style="stroke:#C82930;stroke-width:1;" width="6" x="1712" y="689.2422"/><text fill="#000000" font-family="sans-serif" font-size="14" lengthAdjust="spacing" textLength="208.0996" x="1724" y="695.5889">studentId : String {readOnly}</text><rect fill="none" height="6" style="stroke:#C82930;stroke-width:1;" width="6" x="1712" y="705.5391"/><text fill="#000000" font-family="sans-serif" font-size="14" lengthAdjust="spacing" textLength="94.0078" x="1724" y="711.8857">email : String</text><rect fill="none" height="6" style="stroke:#C82930;stroke-width:1;" width="6" x="1712" y="721.8359"/><text fill="#000000" font-family="sans-serif" font-size="14" lengthAdjust="spacing" textLength="179.0332" x="1724" y="728.1826">activeLoans : List&lt;Loan&gt;</text><line style="stroke:#181818;stroke-width:0.5;" x1="1705" x2="2213.1348" y1="735.4844" y2="735.4844"/><ellipse cx="1715" cy="749.1328" fill="#84BE84" rx="3" ry="3" style="stroke:#038048;stroke-width:1;"/><text fill="#000000" font-family="sans-serif" font-size="14" lengthAdjust="spacing" textLength="484.1348" x="1724" y="752.4795">Student(String name, String surname, String studentId, String email)</text><ellipse cx="1715" cy="765.4297" fill="#84BE84" rx="3" ry="3" style="stroke:#038048;stroke-width:1;"/><text fill="#000000" font-family="sans-serif" font-size="14" lengthAdjust="spacing" textLength="130.6143" x="1724" y="768.7764">getName() : String</text><ellipse cx="1715" cy="781.7266" fill="#84BE84" rx="3" ry="3" style="stroke:#038048;stroke-width:1;"/><text fill="#000000" font-family="sans-serif" font-size="14" lengthAdjust="spacing" textLength="152.5303" x="1724" y="785.0732">getSurname() : String</text><ellipse cx="1715" cy="798.0234" fill="#84BE84" rx="3" ry="3" style="stroke:#038048;stroke-width:1;"/><text fill="#000000" font-family="sans-serif" font-size="14" lengthAdjust="spacing" textLength="157.4385" x="1724" y="801.3701">getStudentId() : String</text><ellipse cx="1715" cy="814.3203" fill="#84BE84" rx="3" ry="3" style="stroke:#038048;stroke-width:1;"/><text fill="#000000" font-family="sans-serif" font-size="14" lengthAdjust="spacing" textLength="128.1533" x="1724" y="817.667">getEmail() : String</text><ellipse cx="1715" cy="830.6172" fill="#84BE84" rx="3" ry="3" style="stroke:#038048;stroke-width:1;"/><text fill="#000000" font-family="sans-serif" font-size="14" lengthAdjust="spacing" textLength="213.9443" x="1724" y="833.9639">getActiveLoans() : List&lt;Loan&gt;</text><ellipse cx="1715" cy="846.9141" fill="#84BE84" rx="3" ry="3" style="stroke:#038048;stroke-width:1;"/><text fill="#000000" font-family="sans-serif" font-size="14" lengthAdjust="spacing" textLength="209.5283" x="1724" y="850.2607">copy(Student newData) : void</text><ellipse cx="1715" cy="863.2109" fill="#84BE84" rx="3" ry="3" style="stroke:#038048;stroke-width:1;"/><text fill="#000000" font-family="sans-serif" font-size="14" lengthAdjust="spacing" textLength="270.5322" x="1724" y="866.5576">addActiveLoan(Loan loanToAdd) : void</text><ellipse cx="1715" cy="879.5078" fill="#84BE84" rx="3" ry="3" style="stroke:#038048;stroke-width:1;"/><text fill="#000000" font-family="sans-serif" font-size="14" lengthAdjust="spacing" textLength="327.7422" x="1724" y="882.8545">removeActiveLoan(Loan loanToRemove) : void</text><ellipse cx="1715" cy="895.8047" fill="#84BE84" rx="3" ry="3" style="stroke:#038048;stroke-width:1;"/><text fill="#000000" font-family="sans-serif" font-size="14" lengthAdjust="spacing" textLength="126.5195" x="1724" y="899.1514">isValid() : boolean</text><ellipse cx="1715" cy="912.1016" fill="#84BE84" rx="3" ry="3" style="stroke:#038048;stroke-width:1;"/><text fill="#000000" font-family="sans-serif" font-size="14" lengthAdjust="spacing" textLength="212.0781" x="1724" y="915.4482">isAvailableForLoan() : boolean</text><rect fill="#F24D5C" height="6" style="stroke:#C82930;stroke-width:1;" width="6" x="1712" y="925.3984"/><text fill="#000000" font-family="sans-serif" font-size="14" lengthAdjust="spacing" textLength="307.4121" x="1724" y="931.7451">isStudentIdValid(String studentId) : boolean</text><rect fill="#F24D5C" height="6" style="stroke:#C82930;stroke-width:1;" width="6" x="1712" y="941.6953"/><text fill="#000000" font-family="sans-serif" font-size="14" lengthAdjust="spacing" textLength="250.2021" x="1724" y="948.042">isEmailValid(String email) : boolean</text></g><!--link StudentRegisterController to SideBarController--><g class="link" data-entity-1="StudentRegisterController" data-entity-2="SideBarController" data-source-line="4" data-uid="lnk4" id="link_StudentRegisterController_SideBarController"><path codeLine="4" d="M1317.93,554.25 C1335.46,601.5 1352.5333,647.4846 1368.2133,689.7546" fill="none" id="StudentRegisterController-to-SideBarController" style="stroke:#181818;stroke-width:1;"/><polygon fill="#181818" points="1370.3,695.38,1370.9202,685.5507,1368.561,690.6921,1363.4196,688.333,1370.3,695.38" style="stroke:#181818;stroke-width:1;"/><text fill="#000000" font-family="sans-serif" font-size="13" lengthAdjust="spacing" textLength="8.271" x="1312.5065" y="574.287">1</text><text fill="#000000" font-family="sans-serif" font-size="13" lengthAdjust="spacing" textLength="8.271" x="1359.2823" y="684.4355">1</text></g><!--link StudentRegisterController to Register<T>--><g class="link" data-entity-1="StudentRegisterController" data-entity-2="Register.T." data-source-line="5" data-uid="lnk6" id="link_StudentRegisterController_Register.T."><path codeLine="5" d="M1212.32,554.25 C1189.66,611.15 1166.6901,668.8059 1148.5201,714.4259" fill="none" id="StudentRegisterController-to-Register&lt;T&gt;" style="stroke:#181818;stroke-width:1;"/><polygon fill="#181818" points="1146.3,720,1153.3463,713.1189,1148.1501,715.3549,1145.9141,710.1587,1146.3,720" style="stroke:#181818;stroke-width:1;"/><text fill="#000000" font-family="sans-serif" font-size="13" lengthAdjust="spacing" textLength="8.271" x="1201.1209" y="574.287">1</text><text fill="#000000" font-family="sans-serif" font-size="13" lengthAdjust="spacing" textLength="8.271" x="1140.7588" y="708.7216">1</text></g><!--reverse link StudentInsertPopupController to StudentRegisterController--><g class="link" data-entity-1="StudentInsertPopupController" data-entity-2="StudentRegisterController" data-source-line="6" data-uid="lnk9" id="link_StudentInsertPopupController_StudentRegisterController"><path codeLine="6" d="M983.13,416 C999.74,416 1010.35,416 1026.95,416" fill="none" id="StudentInsertPopupController-backto-StudentRegisterController" style="stroke:#181818;stroke-width:1;stroke-dasharray:7,7;"/><polygon fill="#181818" points="977.13,416,986.13,420,982.13,416,986.13,412,977.13,416" style="stroke:#181818;stroke-width:1;"/></g><!--link StudentRegisterController to StudentModifyPopupController--><g class="link" data-entity-1="StudentRegisterController" data-entity-2="StudentModifyPopupController" data-source-line="7" data-uid="lnk11" id="link_StudentRegisterController_StudentModifyPopupController"><path codeLine="7" d="M1507.24,416 C1523.71,416 1534.18,416 1550.65,416" fill="none" id="StudentRegisterController-to-StudentModifyPopupController" style="stroke:#181818;stroke-width:1;stroke-dasharray:7,7;"/><polygon fill="#181818" points="1556.65,416,1547.65,412,1551.65,416,1547.65,420,1556.65,416" style="stroke:#181818;stroke-width:1;"/></g><!--reverse link RegisterAdder<T> to StudentInsertPopupController--><g class="link" data-entity-1="RegisterAdder.T." data-entity-2="StudentInsertPopupController" data-source-line="9" data-uid="lnk14" id="link_RegisterAdder.T._StudentInsertPopupController"><path codeLine="9" d="M492,150.63 C492,203.44 492,304.91 492,367.28" fill="none" id="RegisterAdder&lt;T&gt;-backto-StudentInsertPopupController" style="stroke:#181818;stroke-width:1;"/><polygon fill="#181818" points="492,144.63,488,153.63,492,149.63,496,153.63,492,144.63" style="stroke:#181818;stroke-width:1;"/><text fill="#000000" font-family="sans-serif" font-size="13" lengthAdjust="spacing" textLength="8.271" x="483.2027" y="164.8537">1</text><text fill="#000000" font-family="sans-serif" font-size="13" lengthAdjust="spacing" textLength="8.271" x="483.4607" y="356.458">1</text></g><!--link StudentInsertPopupController to RegisterValidator<T>--><g class="link" data-entity-1="StudentInsertPopupController" data-entity-2="RegisterValidator.T." data-source-line="10" data-uid="lnk16" id="link_StudentInsertPopupController_RegisterValidator.T."><path codeLine="10" d="M492,464.54 C492,540.66 492,681.85 492,746.15" fill="none" id="StudentInsertPopupController-to-RegisterValidator&lt;T&gt;" style="stroke:#181818;stroke-width:1;"/><polygon fill="#181818" points="492,752.15,496,743.15,492,747.15,488,743.15,492,752.15" style="stroke:#181818;stroke-width:1;"/><text fill="#000000" font-family="sans-serif" font-size="13" lengthAdjust="spacing" textLength="8.271" x="483.4607" y="484.5045">1</text><text fill="#000000" font-family="sans-serif" font-size="13" lengthAdjust="spacing" textLength="8.271" x="483.2208" y="741.3553">1</text></g><!--reverse link StudentPopupController to StudentInsertPopupController--><g class="link" data-entity-1="StudentPopupController" data-entity-2="StudentInsertPopupController" data-source-line="11" data-uid="lnk19" id="link_StudentPopupController_StudentInsertPopupController"><path codeLine="11" d="M942.3445,225.0943 C821.9545,275.8643 699.82,327.37 605.06,367.33" fill="none" id="StudentPopupController-backto-StudentInsertPopupController" style="stroke:#181818;stroke-width:1;"/><polygon fill="none" points="958.93,218.1,940.013,219.5658,944.6759,230.6228,958.93,218.1" style="stroke:#181818;stroke-width:1;"/></g><!--reverse link RegisterModifier<T> to StudentModifyPopupController--><g class="link" data-entity-1="RegisterModifier.T." data-entity-2="StudentModifyPopupController" data-source-line="14" data-uid="lnk22" id="link_RegisterModifier.T._StudentModifyPopupController"><path codeLine="14" d="M1959,150.63 C1959,201.26 1959,296.12 1959,359.32" fill="none" id="RegisterModifier&lt;T&gt;-backto-StudentModifyPopupController" style="stroke:#181818;stroke-width:1;"/><polygon fill="#181818" points="1959,144.63,1955,153.63,1959,149.63,1963,153.63,1959,144.63" style="stroke:#181818;stroke-width:1;"/><text fill="#000000" font-family="sans-serif" font-size="13" lengthAdjust="spacing" textLength="8.271" x="1950.1679" y="164.8537">1</text><text fill="#000000" font-family="sans-serif" font-size="13" lengthAdjust="spacing" textLength="8.271" x="1950.5579" y="348.5616">1</text></g><!--reverse link StudentPopupController to StudentModifyPopupController--><g class="link" data-entity-1="StudentPopupController" data-entity-2="StudentModifyPopupController" data-source-line="15" data-uid="lnk24" id="link_StudentPopupController_StudentModifyPopupController"><path codeLine="15" d="M1484.6071,224.7986 C1603.1771,272.3386 1721.93,319.95 1820.52,359.48" fill="none" id="StudentPopupController-backto-StudentModifyPopupController" style="stroke:#181818;stroke-width:1;"/><polygon fill="none" points="1467.9,218.1,1482.3743,230.3677,1486.84,219.2296,1467.9,218.1" style="stroke:#181818;stroke-width:1;"/></g><!--link StudentModifyPopupController to Student--><g class="link" data-entity-1="StudentModifyPopupController" data-entity-2="Student" data-source-line="16" data-uid="lnk26" id="link_StudentModifyPopupController_Student"><path codeLine="16" d="M1959,472.66 C1959,510.51 1959,556.77 1959,607.65" fill="none" id="StudentModifyPopupController-to-Student" style="stroke:#181818;stroke-width:1;"/><polygon fill="#181818" points="1959,613.65,1963,604.65,1959,608.65,1955,604.65,1959,613.65" style="stroke:#181818;stroke-width:1;"/><text fill="#000000" font-family="sans-serif" font-size="13" lengthAdjust="spacing" textLength="8.271" x="1950.5352" y="492.9439">1</text><text fill="#000000" font-family="sans-serif" font-size="13" lengthAdjust="spacing" textLength="8.271" x="1950.8341" y="603.1883">1</text></g><!--SRC=[bLRFJzim5Bxdhx3AOK6ZQ3liWb2bmgWq2SO46NUtUL0FnyuSjmow_kzp7Djn72Tq75oSxttlbzzxTlLCM8a5BX3ZELHGeY-VaWzhaWCge5Y2g9BaNcvoOF8EdaWbGLno9WMd50IQV9wWQJwTwNyczufrWJrySZ3L2fndip7IAJsT8GD_OnK8-OENcxAL6EEAbdl3S_Bu6dAJCSsDmvlGuNcUTxqU8VUYVS2Kv5Zo0nGeot-T-pt7ax6u1ZpNigJhV9m_QljzopPi8vaaAughocxHBa7gRueOBW2TgS-2i2VphTg8w6UJgTm1Q2S0vxUClkwD31IOq928Lv9iuPfZLYdeMkNXlDxC4er_j3wbHcbj-yHQCBwqU-k4-w9D7XjLJo2_A_7qkEk31kuRLN7CgesYLxM9A39lGzEu5rmZi-BbQsgJpk3bAvQu5jnoaXiHdEUjchHU45LBnbML1w822hw5kFITnW82gNIrQz-Md5F0p27phOeABoaikD3AGg6f4dA9QVI4fn2Zw6nrn9iZyaJtIKAOweP7l8Bk63A5gREIPaX6ab3eebSWfweAiZghjyjVqKnf3GE9-Sd8xqqZyG12QUpdI1smzQq-sFQ4izb026umZSOHv_gZmT7V2JQkgJFXdAftGjwx4H5UA6vOg5Wk95ESYusKt9vu1LYiregHBHIKmH-v841pWpO74Q4raNK0hw-q9PrmZzIqQcjEurs3vj2CpQY26slOH_V1W8nSPRlk7CpgrgdjrxyF15xE3NNcZTPBMbYHIqut1RD2TdpDkZFtS7dRWGSpT1F-htwR1aLoNHg4MVNAvQnVGi6exsStxQaFNNYpCvum8ecgyBTcb7jDlIbLrOCxa2uyHRm4vjtpCTYxK4EuAUI5u8NrA9GmZS3vS-etA5vMKgWx47KABBoqc-ewqbKJQQGZMo5np5P35DKd7qLMd3qIKVIwKo6OhO36kdCu_JiRwTvJN5zMdANDpzMslWQXNWEkitUGl8fupL_cAcyorUkfNhFN4f1KYtiSI29fkrkhrme8jrLEIbzpE0FYRy9Tl4FqvFVQfBa9mbxfSjoSzdZjx7RSRkz4lKhZPgDEdepO6lJmk9UT-Djp83lsRlC2TTTTF4SPRmpeHvTvmdRo4BMV3ceVykZ4FOa3msFZPlyF]--></g></svg>