<svg xmlns="http://www.w3.org/2000/svg" xmlns:xlink="http://www.w3.org/1999/xlink" contentStyleType="text/css" data-diagram-type="CLASS" height="962px" preserveAspectRatio="none" style="width:2405px;height:962px;background:#FFFFFF;" version="1.1" viewBox="0 0 2405 962" width="2405px" zoomAndPan="magnify"><defs/><g><!--class StudentRegisterController--><g class="entity" data-entity="StudentRegisterController" data-source-line="5" data-uid="ent0002" id="entity_StudentRegisterController"><rect fill="#F1F1F1" height="276.1563" rx="2.5" ry="2.5" style="stroke:#181818;stroke-width:0.5;" width="481.7246" x="1045" y="278"/><ellipse cx="1190.3354" cy="294" fill="#ADD1B2" rx="11" ry="11" style="stroke:#181818;stroke-width:1;"/><path d="M1193.3042,299.6406 Q1192.7261,299.9375 1192.0854,300.0781 Q1191.4448,300.2344 1190.7417,300.2344 Q1188.2417,300.2344 1186.9136,298.5938 Q1185.6011,296.9375 1185.6011,293.8125 Q1185.6011,290.6875 1186.9136,289.0313 Q1188.2417,287.375 1190.7417,287.375 Q1191.4448,287.375 1192.0854,287.5313 Q1192.7417,287.6875 1193.3042,287.9844 L1193.3042,290.7031 Q1192.6792,290.125 1192.0854,289.8594 Q1191.4917,289.5781 1190.8667,289.5781 Q1189.5229,289.5781 1188.8354,290.6563 Q1188.1479,291.7188 1188.1479,293.8125 Q1188.1479,295.9063 1188.8354,296.9844 Q1189.5229,298.0469 1190.8667,298.0469 Q1191.4917,298.0469 1192.0854,297.7813 Q1192.6792,297.5 1193.3042,296.9219 L1193.3042,299.6406 Z " fill="#000000"/><text fill="#000000" font-family="sans-serif" font-size="14" lengthAdjust="spacing" textLength="182.5537" x="1210.8354" y="298.8467">StudentRegisterController</text><line style="stroke:#181818;stroke-width:0.5;" x1="1046" x2="1525.7246" y1="310" y2="310"/><rect fill="none" height="6" style="stroke:#C82930;stroke-width:1;" width="6" x="1053" y="320.6484"/><text fill="#000000" font-family="sans-serif" font-size="14" lengthAdjust="spacing" textLength="256.2793" x="1065" y="326.9951">studentTable : TableView&lt;Student&gt;</text><rect fill="none" height="6" style="stroke:#C82930;stroke-width:1;" width="6" x="1053" y="336.9453"/><text fill="#000000" font-family="sans-serif" font-size="14" lengthAdjust="spacing" textLength="302.0117" x="1065" y="343.292">nameClm : TableColumn&lt;Student, String&gt;</text><rect fill="none" height="6" style="stroke:#C82930;stroke-width:1;" width="6" x="1053" y="353.2422"/><text fill="#000000" font-family="sans-serif" font-size="14" lengthAdjust="spacing" textLength="323.9346" x="1065" y="359.5889">surnameClm : TableColumn&lt;Student, String&gt;</text><rect fill="none" height="6" style="stroke:#C82930;stroke-width:1;" width="6" x="1053" y="369.5391"/><text fill="#000000" font-family="sans-serif" font-size="14" lengthAdjust="spacing" textLength="328.8428" x="1065" y="375.8857">studentIdClm : TableColumn&lt;Student, String&gt;</text><rect fill="none" height="6" style="stroke:#C82930;stroke-width:1;" width="6" x="1053" y="385.8359"/><text fill="#000000" font-family="sans-serif" font-size="14" lengthAdjust="spacing" textLength="300.918" x="1065" y="392.1826">emailClm : TableColumn&lt;Student, String&gt;</text><rect fill="none" height="6" style="stroke:#C82930;stroke-width:1;" width="6" x="1053" y="402.1328"/><text fill="#000000" font-family="sans-serif" font-size="14" lengthAdjust="spacing" textLength="262.2471" x="1065" y="408.4795">studentRegister : Register&lt;Student&gt;</text><rect fill="none" height="6" style="stroke:#C82930;stroke-width:1;" width="6" x="1053" y="418.4297"/><text fill="#000000" font-family="sans-serif" font-size="14" lengthAdjust="spacing" textLength="258.8018" x="1065" y="424.7764">sideBarController : SideBarController</text><line style="stroke:#181818;stroke-width:0.5;" x1="1046" x2="1525.7246" y1="432.0781" y2="432.0781"/><ellipse cx="1056" cy="445.7266" fill="#84BE84" rx="3" ry="3" style="stroke:#038048;stroke-width:1;"/><text fill="#000000" font-family="sans-serif" font-size="14" lengthAdjust="spacing" textLength="455.7246" x="1065" y="449.0732">StudentRegisterController(studentRegister : Register&lt;Student&gt;)</text><ellipse cx="1056" cy="462.0234" fill="#84BE84" rx="3" ry="3" style="stroke:#038048;stroke-width:1;"/><text fill="#000000" font-family="sans-serif" font-size="14" lengthAdjust="spacing" textLength="112.5195" x="1065" y="465.3701">initialize() : void</text><ellipse cx="1056" cy="478.3203" fill="#84BE84" rx="3" ry="3" style="stroke:#038048;stroke-width:1;"/><text fill="#000000" font-family="sans-serif" font-size="14" lengthAdjust="spacing" textLength="175.5469" x="1065" y="481.667">updateTableView() : void</text><rect fill="#F24D5C" height="6" style="stroke:#C82930;stroke-width:1;" width="6" x="1053" y="491.6172"/><text fill="#000000" font-family="sans-serif" font-size="14" lengthAdjust="spacing" textLength="172.915" x="1065" y="497.9639">openInsertPopup() : void</text><rect fill="#F24D5C" height="6" style="stroke:#C82930;stroke-width:1;" width="6" x="1053" y="507.9141"/><text fill="#000000" font-family="sans-serif" font-size="14" lengthAdjust="spacing" textLength="179.3955" x="1065" y="514.2607">openModifyPopup() : void</text><rect fill="#F24D5C" height="6" style="stroke:#C82930;stroke-width:1;" width="6" x="1053" y="524.2109"/><text fill="#000000" font-family="sans-serif" font-size="14" lengthAdjust="spacing" textLength="201.9199" x="1065" y="530.5576">removeFromRegister() : void</text><rect fill="#F24D5C" height="6" style="stroke:#C82930;stroke-width:1;" width="6" x="1053" y="540.5078"/><text fill="#000000" font-family="sans-serif" font-size="14" lengthAdjust="spacing" textLength="135.8232" x="1065" y="546.8545">searchBook() : void</text></g><!--class SideBarController--><g class="entity" data-entity="SideBarController" data-source-line="5" data-uid="ent0003" id="entity_SideBarController"><rect fill="#F1F1F1" height="178.375" rx="2.5" ry="2.5" style="stroke:#181818;stroke-width:0.5;" width="226.751" x="1304.5" y="695.5"/><ellipse cx="1351.9312" cy="711.5" fill="#ADD1B2" rx="11" ry="11" style="stroke:#181818;stroke-width:1;"/><path d="M1354.8999,717.1406 Q1354.3218,717.4375 1353.6812,717.5781 Q1353.0405,717.7344 1352.3374,717.7344 Q1349.8374,717.7344 1348.5093,716.0938 Q1347.1968,714.4375 1347.1968,711.3125 Q1347.1968,708.1875 1348.5093,706.5313 Q1349.8374,704.875 1352.3374,704.875 Q1353.0405,704.875 1353.6812,705.0313 Q1354.3374,705.1875 1354.8999,705.4844 L1354.8999,708.2031 Q1354.2749,707.625 1353.6812,707.3594 Q1353.0874,707.0781 1352.4624,707.0781 Q1351.1187,707.0781 1350.4312,708.1563 Q1349.7437,709.2188 1349.7437,711.3125 Q1349.7437,713.4063 1350.4312,714.4844 Q1351.1187,715.5469 1352.4624,715.5469 Q1353.0874,715.5469 1353.6812,715.2813 Q1354.2749,715 1354.8999,714.4219 L1354.8999,717.1406 Z " fill="#000000"/><text fill="#000000" font-family="sans-serif" font-size="14" lengthAdjust="spacing" textLength="123.3887" x="1372.4312" y="716.3467">SideBarController</text><line style="stroke:#181818;stroke-width:0.5;" x1="1305.5" x2="1530.251" y1="727.5" y2="727.5"/><rect fill="none" height="6" style="stroke:#C82930;stroke-width:1;" width="6" x="1312.5" y="738.1484"/><text fill="#000000" font-family="sans-serif" font-size="14" lengthAdjust="spacing" textLength="110.8311" x="1324.5" y="744.4951">addBtn : Button</text><rect fill="none" height="6" style="stroke:#C82930;stroke-width:1;" width="6" x="1312.5" y="754.4453"/><text fill="#000000" font-family="sans-serif" font-size="14" lengthAdjust="spacing" textLength="165.2451" x="1324.5" y="760.792">searchBarTF : TextField</text><rect fill="none" height="6" style="stroke:#C82930;stroke-width:1;" width="6" x="1312.5" y="770.7422"/><text fill="#000000" font-family="sans-serif" font-size="14" lengthAdjust="spacing" textLength="137.9492" x="1324.5" y="777.0889">removeBtn : Button</text><rect fill="none" height="6" style="stroke:#C82930;stroke-width:1;" width="6" x="1312.5" y="787.0391"/><text fill="#000000" font-family="sans-serif" font-size="14" lengthAdjust="spacing" textLength="132.6719" x="1324.5" y="793.3857">modifyBtn : Button</text><line style="stroke:#181818;stroke-width:0.5;" x1="1305.5" x2="1530.251" y1="800.6875" y2="800.6875"/><ellipse cx="1315.5" cy="814.3359" fill="#84BE84" rx="3" ry="3" style="stroke:#038048;stroke-width:1;"/><text fill="#000000" font-family="sans-serif" font-size="14" lengthAdjust="spacing" textLength="145.7422" x="1324.5" y="817.6826">getAddBtn() : Button</text><ellipse cx="1315.5" cy="830.6328" fill="#84BE84" rx="3" ry="3" style="stroke:#038048;stroke-width:1;"/><text fill="#000000" font-family="sans-serif" font-size="14" lengthAdjust="spacing" textLength="200.751" x="1324.5" y="833.9795">getSearchBarTF() : TextField</text><ellipse cx="1315.5" cy="846.9297" fill="#84BE84" rx="3" ry="3" style="stroke:#038048;stroke-width:1;"/><text fill="#000000" font-family="sans-serif" font-size="14" lengthAdjust="spacing" textLength="175.834" x="1324.5" y="850.2764">getRemoveBtn() : Button</text><ellipse cx="1315.5" cy="863.2266" fill="#84BE84" rx="3" ry="3" style="stroke:#038048;stroke-width:1;"/><text fill="#000000" font-family="sans-serif" font-size="14" lengthAdjust="spacing" textLength="165.0264" x="1324.5" y="866.5732">getModifyBtn() : Button</text></g><!--class Register<T>--><g class="entity" data-entity="Register.T." data-source-line="6" data-uid="ent0005" id="entity_Register.T."><rect fill="#F1F1F1" height="129.4844" rx="2.5" ry="2.5" style="stroke:#181818;stroke-width:0.5;" width="295.6162" x="958" y="720"/><ellipse cx="1056.417" cy="736" fill="#B4A7E5" rx="11" ry="11" style="stroke:#181818;stroke-width:1;"/><path d="M1052.3389,731.7656 L1052.3389,729.6094 L1059.7295,729.6094 L1059.7295,731.7656 L1057.2607,731.7656 L1057.2607,739.8438 L1059.7295,739.8438 L1059.7295,742 L1052.3389,742 L1052.3389,739.8438 L1054.8076,739.8438 L1054.8076,731.7656 L1052.3389,731.7656 Z " fill="#000000"/><text fill="#000000" font-family="sans-serif" font-size="14" font-style="italic" lengthAdjust="spacing" textLength="90.2822" x="1076.917" y="740.8467">Register&lt;T&gt;</text><line style="stroke:#181818;stroke-width:0.5;" x1="959" x2="1252.6162" y1="752" y2="752"/><line style="stroke:#181818;stroke-width:0.5;" x1="959" x2="1252.6162" y1="760" y2="760"/><ellipse cx="969" cy="773.6484" fill="#84BE84" rx="3" ry="3" style="stroke:#038048;stroke-width:1;"/><text fill="#000000" font-family="sans-serif" font-size="14" lengthAdjust="spacing" textLength="144.0947" x="978" y="776.9951">add(toAdd : T) : void</text><ellipse cx="969" cy="789.9453" fill="#84BE84" rx="3" ry="3" style="stroke:#038048;stroke-width:1;"/><text fill="#000000" font-family="sans-serif" font-size="14" lengthAdjust="spacing" textLength="269.6162" x="978" y="793.292">modify(oldItem : T, newItem : T) : void</text><ellipse cx="969" cy="806.2422" fill="#84BE84" rx="3" ry="3" style="stroke:#038048;stroke-width:1;"/><text fill="#000000" font-family="sans-serif" font-size="14" lengthAdjust="spacing" textLength="201.3047" x="978" y="809.5889">remove(toRemove : T) : void</text><ellipse cx="969" cy="822.5391" fill="#84BE84" rx="3" ry="3" style="stroke:#038048;stroke-width:1;"/><text fill="#000000" font-family="sans-serif" font-size="14" lengthAdjust="spacing" textLength="218.3535" x="978" y="825.8857">isUnique(toVerify : T) : boolean</text><ellipse cx="969" cy="838.8359" fill="#84BE84" rx="3" ry="3" style="stroke:#038048;stroke-width:1;"/><text fill="#000000" font-family="sans-serif" font-size="14" lengthAdjust="spacing" textLength="186.7578" x="978" y="842.1826">getRegisterList() : List&lt;T&gt;</text></g><!--class StudentInsertPopupController--><g class="entity" data-entity="StudentInsertPopupController" data-source-line="7" data-uid="ent0007" id="entity_StudentInsertPopupController"><rect fill="#F1F1F1" height="96.8906" rx="2.5" ry="2.5" style="stroke:#181818;stroke-width:0.5;" width="988.2744" x="7" y="367.5"/><ellipse cx="392.8408" cy="383.5" fill="#ADD1B2" rx="11" ry="11" style="stroke:#181818;stroke-width:1;"/><path d="M395.8096,389.1406 Q395.2314,389.4375 394.5908,389.5781 Q393.9502,389.7344 393.2471,389.7344 Q390.7471,389.7344 389.4189,388.0938 Q388.1064,386.4375 388.1064,383.3125 Q388.1064,380.1875 389.4189,378.5313 Q390.7471,376.875 393.2471,376.875 Q393.9502,376.875 394.5908,377.0313 Q395.2471,377.1875 395.8096,377.4844 L395.8096,380.2031 Q395.1846,379.625 394.5908,379.3594 Q393.9971,379.0781 393.3721,379.0781 Q392.0283,379.0781 391.3408,380.1563 Q390.6533,381.2188 390.6533,383.3125 Q390.6533,385.4063 391.3408,386.4844 Q392.0283,387.5469 393.3721,387.5469 Q393.9971,387.5469 394.5908,387.2813 Q395.1846,387 395.8096,386.4219 L395.8096,389.1406 Z " fill="#000000"/><text fill="#000000" font-family="sans-serif" font-size="14" lengthAdjust="spacing" textLength="208.0928" x="413.3408" y="388.3467">StudentInsertPopupController</text><line style="stroke:#181818;stroke-width:0.5;" x1="8" x2="994.2744" y1="399.5" y2="399.5"/><rect fill="none" height="6" style="stroke:#C82930;stroke-width:1;" width="6" x="15" y="410.1484"/><text fill="#000000" font-family="sans-serif" font-size="14" lengthAdjust="spacing" textLength="345.6865" x="27" y="416.4951">studentRegisterAdder : RegisterAdder&lt;Student&gt;</text><rect fill="none" height="6" style="stroke:#C82930;stroke-width:1;" width="6" x="15" y="426.4453"/><text fill="#000000" font-family="sans-serif" font-size="14" lengthAdjust="spacing" textLength="388.6709" x="27" y="432.792">studentRegisterValidator : RegisterValidator&lt;Student&gt;</text><line style="stroke:#181818;stroke-width:0.5;" x1="8" x2="994.2744" y1="440.0938" y2="440.0938"/><ellipse cx="18" cy="453.7422" fill="#84BE84" rx="3" ry="3" style="stroke:#038048;stroke-width:1;"/><text fill="#000000" font-family="sans-serif" font-size="14" lengthAdjust="spacing" textLength="962.2744" x="27" y="457.0889">StudentInsertPopupController(studentRegisterAdder : RegisterAdder&lt;Student&gt;, studentRegisterValidator : RegisterValidator&lt;Student&gt;)</text></g><!--class StudentModifyPopupController--><g class="entity" data-entity="StudentModifyPopupController" data-source-line="8" data-uid="ent0010" id="entity_StudentModifyPopupController"><rect fill="#F1F1F1" height="113.1875" rx="2.5" ry="2.5" style="stroke:#181818;stroke-width:0.5;" width="821.8604" x="1577" y="359.5"/><ellipse cx="1876.3936" cy="375.5" fill="#ADD1B2" rx="11" ry="11" style="stroke:#181818;stroke-width:1;"/><path d="M1879.3623,381.1406 Q1878.7842,381.4375 1878.1436,381.5781 Q1877.5029,381.7344 1876.7998,381.7344 Q1874.2998,381.7344 1872.9717,380.0938 Q1871.6592,378.4375 1871.6592,375.3125 Q1871.6592,372.1875 1872.9717,370.5313 Q1874.2998,368.875 1876.7998,368.875 Q1877.5029,368.875 1878.1436,369.0313 Q1878.7998,369.1875 1879.3623,369.4844 L1879.3623,372.2031 Q1878.7373,371.625 1878.1436,371.3594 Q1877.5498,371.0781 1876.9248,371.0781 Q1875.5811,371.0781 1874.8936,372.1563 Q1874.2061,373.2188 1874.2061,375.3125 Q1874.2061,377.4063 1874.8936,378.4844 Q1875.5811,379.5469 1876.9248,379.5469 Q1877.5498,379.5469 1878.1436,379.2813 Q1878.7373,379 1879.3623,378.4219 L1879.3623,381.1406 Z " fill="#000000"/><text fill="#000000" font-family="sans-serif" font-size="14" lengthAdjust="spacing" textLength="214.5732" x="1896.8936" y="380.3467">StudentModifyPopupController</text><line style="stroke:#181818;stroke-width:0.5;" x1="1578" x2="2397.8604" y1="391.5" y2="391.5"/><rect fill="none" height="6" style="stroke:#C82930;stroke-width:1;" width="6" x="1585" y="402.1484"/><text fill="#000000" font-family="sans-serif" font-size="14" lengthAdjust="spacing" textLength="375.4639" x="1597" y="408.4951">studentRegisterModifier : RegisterModifier&lt;Student&gt;</text><rect fill="none" height="6" style="stroke:#C82930;stroke-width:1;" width="6" x="1585" y="418.4453"/><text fill="#000000" font-family="sans-serif" font-size="14" lengthAdjust="spacing" textLength="185.999" x="1597" y="424.792">studentToModify : Student</text><line style="stroke:#181818;stroke-width:0.5;" x1="1578" x2="2397.8604" y1="432.0938" y2="432.0938"/><ellipse cx="1588" cy="445.7422" fill="#84BE84" rx="3" ry="3" style="stroke:#038048;stroke-width:1;"/><text fill="#000000" font-family="sans-serif" font-size="14" lengthAdjust="spacing" textLength="795.8604" x="1597" y="449.0889">StudentModifyPopupController(studentRegisterModifier : RegisterModifier&lt;Student&gt;, studentToModify : Student)</text><ellipse cx="1588" cy="462.0391" fill="#84BE84" rx="3" ry="3" style="stroke:#038048;stroke-width:1;"/><text fill="#000000" font-family="sans-serif" font-size="14" lengthAdjust="spacing" textLength="112.5195" x="1597" y="465.3857">initialize() : void</text></g><!--class RegisterAdder<T>--><g class="entity" data-entity="RegisterAdder.T." data-source-line="10" data-uid="ent0012" id="entity_RegisterAdder.T."><rect fill="#F1F1F1" height="64.2969" rx="2.5" ry="2.5" style="stroke:#181818;stroke-width:0.5;" width="170.0947" x="416" y="80.5"/><ellipse cx="433.7417" cy="96.5" fill="#B4A7E5" rx="11" ry="11" style="stroke:#181818;stroke-width:1;"/><path d="M429.6636,92.2656 L429.6636,90.1094 L437.0542,90.1094 L437.0542,92.2656 L434.5855,92.2656 L434.5855,100.3438 L437.0542,100.3438 L437.0542,102.5 L429.6636,102.5 L429.6636,100.3438 L432.1324,100.3438 L432.1324,92.2656 L429.6636,92.2656 Z " fill="#000000"/><text fill="#000000" font-family="sans-serif" font-size="14" font-style="italic" lengthAdjust="spacing" textLength="132.002" x="448.351" y="101.3467">RegisterAdder&lt;T&gt;</text><line style="stroke:#181818;stroke-width:0.5;" x1="417" x2="585.0947" y1="112.5" y2="112.5"/><line style="stroke:#181818;stroke-width:0.5;" x1="417" x2="585.0947" y1="120.5" y2="120.5"/><ellipse cx="427" cy="134.1484" fill="#84BE84" rx="3" ry="3" style="stroke:#038048;stroke-width:1;"/><text fill="#000000" font-family="sans-serif" font-size="14" lengthAdjust="spacing" textLength="144.0947" x="436" y="137.4951">add(toAdd : T) : void</text></g><!--class RegisterValidator<T>--><g class="entity" data-entity="RegisterValidator.T." data-source-line="11" data-uid="ent0015" id="entity_RegisterValidator.T."><rect fill="#F1F1F1" height="64.2969" rx="2.5" ry="2.5" style="stroke:#181818;stroke-width:0.5;" width="244.3535" x="379" y="752.5"/><ellipse cx="420.4867" cy="768.5" fill="#B4A7E5" rx="11" ry="11" style="stroke:#181818;stroke-width:1;"/><path d="M416.4086,764.2656 L416.4086,762.1094 L423.7992,762.1094 L423.7992,764.2656 L421.3305,764.2656 L421.3305,772.3438 L423.7992,772.3438 L423.7992,774.5 L416.4086,774.5 L416.4086,772.3438 L418.8773,772.3438 L418.8773,764.2656 L416.4086,764.2656 Z " fill="#000000"/><text fill="#000000" font-family="sans-serif" font-size="14" font-style="italic" lengthAdjust="spacing" textLength="153.4941" x="440.3727" y="773.3467">RegisterValidator&lt;T&gt;</text><line style="stroke:#181818;stroke-width:0.5;" x1="380" x2="622.3535" y1="784.5" y2="784.5"/><line style="stroke:#181818;stroke-width:0.5;" x1="380" x2="622.3535" y1="792.5" y2="792.5"/><ellipse cx="390" cy="806.1484" fill="#84BE84" rx="3" ry="3" style="stroke:#038048;stroke-width:1;"/><text fill="#000000" font-family="sans-serif" font-size="14" lengthAdjust="spacing" textLength="218.3535" x="399" y="809.4951">isUnique(toVerify : T) : boolean</text></g><!--class StudentPopupController--><g class="entity" data-entity="StudentPopupController" data-source-line="12" data-uid="ent0017" id="entity_StudentPopupController"><rect fill="#F1F1F1" height="210.9688" rx="2.5" ry="2.5" style="stroke:#181818;stroke-width:0.5;" width="623.1943" x="901.5" y="7"/><ellipse cx="1124.8779" cy="23" fill="#A9DCDF" rx="11" ry="11" style="stroke:#181818;stroke-width:1;"/><path d="M1124.9873,18.3438 L1123.8311,23.4219 L1126.1592,23.4219 L1124.9873,18.3438 Z M1123.5029,16.1094 L1126.4873,16.1094 L1129.8467,28.5 L1127.3936,28.5 L1126.6279,25.4375 L1123.3467,25.4375 L1122.5967,28.5 L1120.1592,28.5 L1123.5029,16.1094 Z " fill="#000000"/><text fill="#000000" font-family="sans-serif" font-size="14" font-style="italic" lengthAdjust="spacing" textLength="167.9385" x="1145.3779" y="27.8467">StudentPopupController</text><line style="stroke:#181818;stroke-width:0.5;" x1="902.5" x2="1523.6943" y1="39" y2="39"/><polygon fill="none" points="912.5,47.6484,916.5,51.6484,912.5,55.6484,908.5,51.6484" style="stroke:#B38D22;stroke-width:1;"/><text fill="#000000" font-family="sans-serif" font-size="14" lengthAdjust="spacing" textLength="134.1963" x="921.5" y="55.9951">nameTF : TextField</text><polygon fill="none" points="912.5,63.9453,916.5,67.9453,912.5,71.9453,908.5,67.9453" style="stroke:#B38D22;stroke-width:1;"/><text fill="#000000" font-family="sans-serif" font-size="14" lengthAdjust="spacing" textLength="156.1191" x="921.5" y="72.292">surnameTF : TextField</text><polygon fill="none" points="912.5,80.2422,916.5,84.2422,912.5,88.2422,908.5,84.2422" style="stroke:#B38D22;stroke-width:1;"/><text fill="#000000" font-family="sans-serif" font-size="14" lengthAdjust="spacing" textLength="161.0273" x="921.5" y="88.5889">studentIdTF : TextField</text><polygon fill="none" points="912.5,96.5391,916.5,100.5391,912.5,104.5391,908.5,100.5391" style="stroke:#B38D22;stroke-width:1;"/><text fill="#000000" font-family="sans-serif" font-size="14" lengthAdjust="spacing" textLength="133.1025" x="921.5" y="104.8857">emailTF : TextField</text><polygon fill="none" points="912.5,112.8359,916.5,116.8359,912.5,120.8359,908.5,116.8359" style="stroke:#B38D22;stroke-width:1;"/><text fill="#000000" font-family="sans-serif" font-size="14" lengthAdjust="spacing" textLength="137.8262" x="921.5" y="121.1826">confirmBtn : Button</text><polygon fill="none" points="912.5,129.1328,916.5,133.1328,912.5,137.1328,908.5,133.1328" style="stroke:#B38D22;stroke-width:1;"/><text fill="#000000" font-family="sans-serif" font-size="14" lengthAdjust="spacing" textLength="129.8281" x="921.5" y="137.4795">cancelBtn : Button</text><line style="stroke:#181818;stroke-width:0.5;" x1="902.5" x2="1523.6943" y1="144.7813" y2="144.7813"/><ellipse cx="912.5" cy="158.4297" fill="#84BE84" rx="3" ry="3" style="stroke:#038048;stroke-width:1;"/><text fill="#000000" font-family="sans-serif" font-size="14" lengthAdjust="spacing" textLength="112.5195" x="921.5" y="161.7764">initialize() : void</text><ellipse cx="912.5" cy="174.7266" fill="#84BE84" rx="3" ry="3" style="stroke:#038048;stroke-width:1;"/><text fill="#000000" font-family="sans-serif" font-size="14" font-style="italic" lengthAdjust="spacing" textLength="313.2637" x="921.5" y="178.0732">confirmBtnAction(event : ActionEvent) : void</text><ellipse cx="912.5" cy="191.0234" fill="#84BE84" rx="3" ry="3" style="stroke:#038048;stroke-width:1;"/><text fill="#000000" font-family="sans-serif" font-size="14" lengthAdjust="spacing" textLength="305.2656" x="921.5" y="194.3701">cancelBtnAction(event : ActionEvent) : void</text><polygon fill="#FFFF44" points="912.5,202.3203,916.5,206.3203,912.5,210.3203,908.5,206.3203" style="stroke:#B38D22;stroke-width:1;"/><text fill="#000000" font-family="sans-serif" font-size="14" lengthAdjust="spacing" textLength="597.1943" x="921.5" y="210.667">showAlert(type : Alert.AlertType, title : String, header : String, content : String) : void</text></g><!--class RegisterModifier<T>--><g class="entity" data-entity="RegisterModifier.T." data-source-line="15" data-uid="ent0020" id="entity_RegisterModifier.T."><rect fill="#F1F1F1" height="64.2969" rx="2.5" ry="2.5" style="stroke:#181818;stroke-width:0.5;" width="295.6162" x="1840" y="80.5"/><ellipse cx="1910.1128" cy="96.5" fill="#B4A7E5" rx="11" ry="11" style="stroke:#181818;stroke-width:1;"/><path d="M1906.0347,92.2656 L1906.0347,90.1094 L1913.4253,90.1094 L1913.4253,92.2656 L1910.9565,92.2656 L1910.9565,100.3438 L1913.4253,100.3438 L1913.4253,102.5 L1906.0347,102.5 L1906.0347,100.3438 L1908.5034,100.3438 L1908.5034,92.2656 L1906.0347,92.2656 Z " fill="#000000"/><text fill="#000000" font-family="sans-serif" font-size="14" font-style="italic" lengthAdjust="spacing" textLength="146.8906" x="1930.6128" y="101.3467">RegisterModifier&lt;T&gt;</text><line style="stroke:#181818;stroke-width:0.5;" x1="1841" x2="2134.6162" y1="112.5" y2="112.5"/><line style="stroke:#181818;stroke-width:0.5;" x1="1841" x2="2134.6162" y1="120.5" y2="120.5"/><ellipse cx="1851" cy="134.1484" fill="#84BE84" rx="3" ry="3" style="stroke:#038048;stroke-width:1;"/><text fill="#000000" font-family="sans-serif" font-size="14" lengthAdjust="spacing" textLength="269.6162" x="1860" y="137.4951">modify(oldItem : T, newItem : T) : void</text></g><!--class Student--><g class="entity" data-entity="Student" data-source-line="17" data-uid="ent0025" id="entity_Student"><rect fill="#F1F1F1" height="341.3438" rx="2.5" ry="2.5" style="stroke:#181818;stroke-width:0.5;" width="546.8027" x="1714.5" y="614"/><ellipse cx="1956.0957" cy="630" fill="#ADD1B2" rx="11" ry="11" style="stroke:#181818;stroke-width:1;"/><path d="M1959.0645,635.6406 Q1958.4863,635.9375 1957.8457,636.0781 Q1957.2051,636.2344 1956.502,636.2344 Q1954.002,636.2344 1952.6738,634.5938 Q1951.3613,632.9375 1951.3613,629.8125 Q1951.3613,626.6875 1952.6738,625.0313 Q1954.002,623.375 1956.502,623.375 Q1957.2051,623.375 1957.8457,623.5313 Q1958.502,623.6875 1959.0645,623.9844 L1959.0645,626.7031 Q1958.4395,626.125 1957.8457,625.8594 Q1957.252,625.5781 1956.627,625.5781 Q1955.2832,625.5781 1954.5957,626.6563 Q1953.9082,627.7188 1953.9082,629.8125 Q1953.9082,631.9063 1954.5957,632.9844 Q1955.2832,634.0469 1956.627,634.0469 Q1957.252,634.0469 1957.8457,633.7813 Q1958.4395,633.5 1959.0645,632.9219 L1959.0645,635.6406 Z " fill="#000000"/><text fill="#000000" font-family="sans-serif" font-size="14" lengthAdjust="spacing" textLength="55.1113" x="1976.5957" y="634.8467">Student</text><line style="stroke:#181818;stroke-width:0.5;" x1="1715.5" x2="2260.3027" y1="646" y2="646"/><rect fill="none" height="6" style="stroke:#C82930;stroke-width:1;" width="6" x="1722.5" y="656.6484"/><text fill="#000000" font-family="sans-serif" font-size="14" lengthAdjust="spacing" textLength="95.1016" x="1734.5" y="662.9951">name : String</text><rect fill="none" height="6" style="stroke:#C82930;stroke-width:1;" width="6" x="1722.5" y="672.9453"/><text fill="#000000" font-family="sans-serif" font-size="14" lengthAdjust="spacing" textLength="117.0244" x="1734.5" y="679.292">surname : String</text><rect fill="none" height="6" style="stroke:#C82930;stroke-width:1;" width="6" x="1722.5" y="689.2422"/><text fill="#000000" font-family="sans-serif" font-size="14" lengthAdjust="spacing" textLength="208.0996" x="1734.5" y="695.5889">studentId : String {readOnly}</text><rect fill="none" height="6" style="stroke:#C82930;stroke-width:1;" width="6" x="1722.5" y="705.5391"/><text fill="#000000" font-family="sans-serif" font-size="14" lengthAdjust="spacing" textLength="94.0078" x="1734.5" y="711.8857">email : String</text><rect fill="none" height="6" style="stroke:#C82930;stroke-width:1;" width="6" x="1722.5" y="721.8359"/><text fill="#000000" font-family="sans-serif" font-size="14" lengthAdjust="spacing" textLength="179.0332" x="1734.5" y="728.1826">activeLoans : List&lt;Loan&gt;</text><line style="stroke:#181818;stroke-width:0.5;" x1="1715.5" x2="2260.3027" y1="735.4844" y2="735.4844"/><ellipse cx="1725.5" cy="749.1328" fill="#84BE84" rx="3" ry="3" style="stroke:#038048;stroke-width:1;"/><text fill="#000000" font-family="sans-serif" font-size="14" lengthAdjust="spacing" textLength="520.8027" x="1734.5" y="752.4795">Student(name : String, surname : String, studentId : String, email : String)</text><ellipse cx="1725.5" cy="765.4297" fill="#84BE84" rx="3" ry="3" style="stroke:#038048;stroke-width:1;"/><text fill="#000000" font-family="sans-serif" font-size="14" lengthAdjust="spacing" textLength="130.6143" x="1734.5" y="768.7764">getName() : String</text><ellipse cx="1725.5" cy="781.7266" fill="#84BE84" rx="3" ry="3" style="stroke:#038048;stroke-width:1;"/><text fill="#000000" font-family="sans-serif" font-size="14" lengthAdjust="spacing" textLength="152.5303" x="1734.5" y="785.0732">getSurname() : String</text><ellipse cx="1725.5" cy="798.0234" fill="#84BE84" rx="3" ry="3" style="stroke:#038048;stroke-width:1;"/><text fill="#000000" font-family="sans-serif" font-size="14" lengthAdjust="spacing" textLength="157.4385" x="1734.5" y="801.3701">getStudentId() : String</text><ellipse cx="1725.5" cy="814.3203" fill="#84BE84" rx="3" ry="3" style="stroke:#038048;stroke-width:1;"/><text fill="#000000" font-family="sans-serif" font-size="14" lengthAdjust="spacing" textLength="128.1533" x="1734.5" y="817.667">getEmail() : String</text><ellipse cx="1725.5" cy="830.6172" fill="#84BE84" rx="3" ry="3" style="stroke:#038048;stroke-width:1;"/><text fill="#000000" font-family="sans-serif" font-size="14" lengthAdjust="spacing" textLength="213.9443" x="1734.5" y="833.9639">getActiveLoans() : List&lt;Loan&gt;</text><ellipse cx="1725.5" cy="846.9141" fill="#84BE84" rx="3" ry="3" style="stroke:#038048;stroke-width:1;"/><text fill="#000000" font-family="sans-serif" font-size="14" lengthAdjust="spacing" textLength="218.6953" x="1734.5" y="850.2607">copy(newData : Student) : void</text><ellipse cx="1725.5" cy="863.2109" fill="#84BE84" rx="3" ry="3" style="stroke:#038048;stroke-width:1;"/><text fill="#000000" font-family="sans-serif" font-size="14" lengthAdjust="spacing" textLength="279.6992" x="1734.5" y="866.5576">addActiveLoan(loanToAdd : Loan) : void</text><ellipse cx="1725.5" cy="879.5078" fill="#84BE84" rx="3" ry="3" style="stroke:#038048;stroke-width:1;"/><text fill="#000000" font-family="sans-serif" font-size="14" lengthAdjust="spacing" textLength="336.9092" x="1734.5" y="882.8545">removeActiveLoan(loanToRemove : Loan) : void</text><ellipse cx="1725.5" cy="895.8047" fill="#84BE84" rx="3" ry="3" style="stroke:#038048;stroke-width:1;"/><text fill="#000000" font-family="sans-serif" font-size="14" lengthAdjust="spacing" textLength="126.5195" x="1734.5" y="899.1514">isValid() : boolean</text><ellipse cx="1725.5" cy="912.1016" fill="#84BE84" rx="3" ry="3" style="stroke:#038048;stroke-width:1;"/><text fill="#000000" font-family="sans-serif" font-size="14" lengthAdjust="spacing" textLength="212.0781" x="1734.5" y="915.4482">isAvailableForLoan() : boolean</text><rect fill="#F24D5C" height="6" style="stroke:#C82930;stroke-width:1;" width="6" x="1722.5" y="925.3984"/><text fill="#000000" font-family="sans-serif" font-size="14" lengthAdjust="spacing" textLength="316.5791" x="1734.5" y="931.7451">isStudentIdValid(studentId : String) : boolean</text><rect fill="#F24D5C" height="6" style="stroke:#C82930;stroke-width:1;" width="6" x="1722.5" y="941.6953"/><text fill="#000000" font-family="sans-serif" font-size="14" lengthAdjust="spacing" textLength="259.3691" x="1734.5" y="948.042">isEmailValid(email : String) : boolean</text></g><!--link StudentRegisterController to SideBarController--><g class="link" data-entity-1="StudentRegisterController" data-entity-2="SideBarController" data-source-line="5" data-uid="lnk4" id="link_StudentRegisterController_SideBarController"><path codeLine="5" d="M1335.43,554.25 C1352.45,601.5 1369.0074,647.4648 1384.2274,689.7348" fill="none" id="StudentRegisterController-to-SideBarController" style="stroke:#181818;stroke-width:1;"/><polygon fill="#181818" points="1386.26,695.38,1386.9745,685.5571,1384.5661,690.6757,1379.4476,688.2673,1386.26,695.38" style="stroke:#181818;stroke-width:1;"/><text fill="#000000" font-family="sans-serif" font-size="13" lengthAdjust="spacing" textLength="8.271" x="1329.9294" y="574.287">1</text><text fill="#000000" font-family="sans-serif" font-size="13" lengthAdjust="spacing" textLength="8.271" x="1375.3218" y="684.4355">1</text></g><!--link StudentRegisterController to Register<T>--><g class="link" data-entity-1="StudentRegisterController" data-entity-2="Register.T." data-source-line="6" data-uid="lnk6" id="link_StudentRegisterController_Register.T."><path codeLine="6" d="M1218.59,554.25 C1190.64,611.15 1162.2345,668.9942 1139.8345,714.6142" fill="none" id="StudentRegisterController-to-Register&lt;T&gt;" style="stroke:#181818;stroke-width:1;"/><polygon fill="#181818" points="1137.19,720,1144.7473,713.6843,1139.3937,715.5118,1137.5662,710.1583,1137.19,720" style="stroke:#181818;stroke-width:1;"/><text fill="#000000" font-family="sans-serif" font-size="13" lengthAdjust="spacing" textLength="8.271" x="1206.6997" y="574.287">1</text><text fill="#000000" font-family="sans-serif" font-size="13" lengthAdjust="spacing" textLength="8.271" x="1132.3717" y="708.7216">1</text></g><!--reverse link StudentInsertPopupController to StudentRegisterController--><g class="link" data-entity-1="StudentInsertPopupController" data-entity-2="StudentRegisterController" data-source-line="7" data-uid="lnk9" id="link_StudentInsertPopupController_StudentRegisterController"><path codeLine="7" d="M1001.07,416 C1017.65,416 1028.22,416 1044.79,416" fill="none" id="StudentInsertPopupController-backto-StudentRegisterController" style="stroke:#181818;stroke-width:1;stroke-dasharray:7,7;"/><polygon fill="#181818" points="995.07,416,1004.07,420,1000.07,416,1004.07,412,995.07,416" style="stroke:#181818;stroke-width:1;"/></g><!--link StudentRegisterController to StudentModifyPopupController--><g class="link" data-entity-1="StudentRegisterController" data-entity-2="StudentModifyPopupController" data-source-line="8" data-uid="lnk11" id="link_StudentRegisterController_StudentModifyPopupController"><path codeLine="8" d="M1527.31,416 C1543.81,416 1554.3,416 1570.8,416" fill="none" id="StudentRegisterController-to-StudentModifyPopupController" style="stroke:#181818;stroke-width:1;stroke-dasharray:7,7;"/><polygon fill="#181818" points="1576.8,416,1567.8,412,1571.8,416,1567.8,420,1576.8,416" style="stroke:#181818;stroke-width:1;"/></g><!--reverse link RegisterAdder<T> to StudentInsertPopupController--><g class="link" data-entity-1="RegisterAdder.T." data-entity-2="StudentInsertPopupController" data-source-line="10" data-uid="lnk14" id="link_RegisterAdder.T._StudentInsertPopupController"><path codeLine="10" d="M501,150.63 C501,203.44 501,304.91 501,367.28" fill="none" id="RegisterAdder&lt;T&gt;-backto-StudentInsertPopupController" style="stroke:#181818;stroke-width:1;"/><polygon fill="#181818" points="501,144.63,497,153.63,501,149.63,505,153.63,501,144.63" style="stroke:#181818;stroke-width:1;"/><text fill="#000000" font-family="sans-serif" font-size="13" lengthAdjust="spacing" textLength="8.271" x="492.1932" y="164.8537">1</text><text fill="#000000" font-family="sans-serif" font-size="13" lengthAdjust="spacing" textLength="8.271" x="492.4373" y="356.458">1</text></g><!--link StudentInsertPopupController to RegisterValidator<T>--><g class="link" data-entity-1="StudentInsertPopupController" data-entity-2="RegisterValidator.T." data-source-line="11" data-uid="lnk16" id="link_StudentInsertPopupController_RegisterValidator.T."><path codeLine="11" d="M501,464.54 C501,540.66 501,681.85 501,746.15" fill="none" id="StudentInsertPopupController-to-RegisterValidator&lt;T&gt;" style="stroke:#181818;stroke-width:1;"/><polygon fill="#181818" points="501,752.15,505,743.15,501,747.15,497,743.15,501,752.15" style="stroke:#181818;stroke-width:1;"/><text fill="#000000" font-family="sans-serif" font-size="13" lengthAdjust="spacing" textLength="8.271" x="492.4373" y="484.5045">1</text><text fill="#000000" font-family="sans-serif" font-size="13" lengthAdjust="spacing" textLength="8.271" x="492.2044" y="741.3553">1</text></g><!--reverse link StudentPopupController to StudentInsertPopupController--><g class="link" data-entity-1="StudentPopupController" data-entity-2="StudentInsertPopupController" data-source-line="12" data-uid="lnk19" id="link_StudentPopupController_StudentInsertPopupController"><path codeLine="12" d="M949.4047,225.1186 C829.5047,275.8886 707.94,327.37 613.58,367.33" fill="none" id="StudentPopupController-backto-StudentInsertPopupController" style="stroke:#181818;stroke-width:1;"/><polygon fill="none" points="965.98,218.1,947.0652,219.5935,951.7443,230.6437,965.98,218.1" style="stroke:#181818;stroke-width:1;"/></g><!--reverse link RegisterModifier<T> to StudentModifyPopupController--><g class="link" data-entity-1="RegisterModifier.T." data-entity-2="StudentModifyPopupController" data-source-line="15" data-uid="lnk22" id="link_RegisterModifier.T._StudentModifyPopupController"><path codeLine="15" d="M1988,150.63 C1988,201.26 1988,296.12 1988,359.32" fill="none" id="RegisterModifier&lt;T&gt;-backto-StudentModifyPopupController" style="stroke:#181818;stroke-width:1;"/><polygon fill="#181818" points="1988,144.63,1984,153.63,1988,149.63,1992,153.63,1988,144.63" style="stroke:#181818;stroke-width:1;"/><text fill="#000000" font-family="sans-serif" font-size="13" lengthAdjust="spacing" textLength="8.271" x="1979.2425" y="164.8537">1</text><text fill="#000000" font-family="sans-serif" font-size="13" lengthAdjust="spacing" textLength="8.271" x="1979.5375" y="348.5616">1</text></g><!--reverse link StudentPopupController to StudentModifyPopupController--><g class="link" data-entity-1="StudentPopupController" data-entity-2="StudentModifyPopupController" data-source-line="16" data-uid="lnk24" id="link_StudentPopupController_StudentModifyPopupController"><path codeLine="16" d="M1498.6553,224.6262 C1620.8553,272.1662 1743.68,319.95 1845.28,359.48" fill="none" id="StudentPopupController-backto-StudentModifyPopupController" style="stroke:#181818;stroke-width:1;"/><polygon fill="none" points="1481.88,218.1,1496.4799,230.2179,1500.8306,219.0344,1481.88,218.1" style="stroke:#181818;stroke-width:1;"/></g><!--link StudentModifyPopupController to Student--><g class="link" data-entity-1="StudentModifyPopupController" data-entity-2="Student" data-source-line="17" data-uid="lnk26" id="link_StudentModifyPopupController_Student"><path codeLine="17" d="M1988,472.66 C1988,510.51 1988,556.77 1988,607.65" fill="none" id="StudentModifyPopupController-to-Student" style="stroke:#181818;stroke-width:1;"/><polygon fill="#181818" points="1988,613.65,1992,604.65,1988,608.65,1984,604.65,1988,613.65" style="stroke:#181818;stroke-width:1;"/><text fill="#000000" font-family="sans-serif" font-size="13" lengthAdjust="spacing" textLength="8.271" x="1979.5138" y="492.9439">1</text><text fill="#000000" font-family="sans-serif" font-size="13" lengthAdjust="spacing" textLength="8.271" x="1979.8411" y="603.1883">1</text></g><!--SRC=[dLPDRzem6BxdLrZqq5HBgksmIrKXKGPI9TfE9UlT4BTOTUpCCNICyT_dsB7ZE8RISW3izttUxmzNhvYMaCC2K9QZ2fNW-zVeV8Lp10fKB12lekWSf6aA7YUpKNRxS3-lJz5Sh7D4nIDwmPL0VCoeu8mGnC7Wsm2aUJfKVmPpAUa6ElJ1oL33S9qDZu4koUKGDEHRMY4kVh9oNROSnx2ynTwn73zlVMnqJB8sUEqRFChphjL7m3rldo31EHJi105IypzhVi_mw9XV1onNlBXhV1X_LFVxcetR3MTaYcmy6ytd4rrYqPB0gZ8iO1S1-Ka1XGK2L_AQO_hIt5Lh7hnkefTR0jXn1FC7IhRxXWSL41CV29S2Rz2CGLf9qap6vhe-32D5_s9iYZjAavuPIS22nDDuqOXyGU9UOkEBhYsACDTompIZ8KYTrBg2b57heg8xJcgU9IktCKLlFw202g_qrAmRXlE62UPvAoWcyYjZilnhUVA_nynHmJQen_-ehiCGNAb-K1Ok62C8KaiPRQHlS47Gb74bpcTA9PCDZvRJpqS8fAAc0Lwo7EPz564gU-OPBb5tM3Mbgg8JYoOUcUTPePeZPYI_5QYe6H8WesqEmT19OJPOMIzIloZ-lQvvdX2NeWrFDsmoyyRKEkDjwhFX0O_iD7l7hJ3QdIXMmAc-XqLs9gIL-Qx_UpjG_9LaHujqx4PGYRbP2y5CFLG8ykLA8h9fBHFz4LECIDvGTMO2CEraX-1qdzAaek-0T4EtwXIzgx39OACpAE3EA7QfUs-S1fRXhZirixgrQltrxnD6RzSDTEWCuZ4f3CkOaNL13LFITComEw5FvpUDUZ92TUf7vPimI93jOC_DgbSkL_qIyXP3Fxhn2GhDAi0K2ooB_A-U-4wJhqjP-CXcf4jE0IiHTPuA8RApatsohkGfPuMnpETeEe6nrzZjKRYe19Sh4tGgpD_xkhpELDa4EkdCb4YOPieXI5Mf3rAMZ3vZNlJQKr8WNI8IQi_3uTyPJ_UEu7gVCHgZJVr8kGBwEDdqTwNLU292UhrYRoCPEn6BRLdteZfSgkzCtYH0O47SzyPAlcvqXJONqawXrRGRpEIjawxm4tCNRXUr4vmIrZl2Rvmknevj1zUESeljDbBGglX3rYIVC-IY5w7mS_P0XCpUStJOLHYEKyQqWlQjvSKYg3_-XDxaiCfZ8sZ_7m00]--></g></svg>