<svg xmlns="http://www.w3.org/2000/svg" xmlns:xlink="http://www.w3.org/1999/xlink" contentStyleType="text/css" data-diagram-type="CLASS" height="1108px" preserveAspectRatio="none" style="width:2157px;height:1108px;background:#FFFFFF;" version="1.1" viewBox="0 0 2157 1108" width="2157px" zoomAndPan="magnify"><defs/><g><!--class BookRegisterController--><g class="entity" data-entity="BookRegisterController" data-source-line="5" data-uid="ent0002" id="entity_BookRegisterController"><rect fill="#F1F1F1" height="292.4531" rx="2.5" ry="2.5" style="stroke:#181818;stroke-width:0.5;" width="421.7939" x="946.5" y="408"/><ellipse cx="1072.0044" cy="424" fill="#ADD1B2" rx="11" ry="11" style="stroke:#181818;stroke-width:1;"/><path d="M1074.9731,429.6406 Q1074.395,429.9375 1073.7544,430.0781 Q1073.1138,430.2344 1072.4106,430.2344 Q1069.9106,430.2344 1068.5825,428.5938 Q1067.27,426.9375 1067.27,423.8125 Q1067.27,420.6875 1068.5825,419.0313 Q1069.9106,417.375 1072.4106,417.375 Q1073.1138,417.375 1073.7544,417.5313 Q1074.4106,417.6875 1074.9731,417.9844 L1074.9731,420.7031 Q1074.3481,420.125 1073.7544,419.8594 Q1073.1606,419.5781 1072.5356,419.5781 Q1071.1919,419.5781 1070.5044,420.6563 Q1069.8169,421.7188 1069.8169,423.8125 Q1069.8169,425.9063 1070.5044,426.9844 Q1071.1919,428.0469 1072.5356,428.0469 Q1073.1606,428.0469 1073.7544,427.7813 Q1074.3481,427.5 1074.9731,426.9219 L1074.9731,429.6406 Z " fill="#000000"/><text fill="#000000" font-family="sans-serif" font-size="14" lengthAdjust="spacing" textLength="162.2852" x="1092.5044" y="428.8467">BookRegisterController</text><line style="stroke:#181818;stroke-width:0.5;" x1="947.5" x2="1367.2939" y1="440" y2="440"/><rect fill="none" height="6" style="stroke:#C82930;stroke-width:1;" width="6" x="954.5" y="450.6484"/><text fill="#000000" font-family="sans-serif" font-size="14" lengthAdjust="spacing" textLength="216.6172" x="966.5" y="456.9951">bookTable : TableView&lt;Book&gt;</text><rect fill="none" height="6" style="stroke:#C82930;stroke-width:1;" width="6" x="954.5" y="466.9453"/><text fill="#000000" font-family="sans-serif" font-size="14" lengthAdjust="spacing" textLength="269.4111" x="966.5" y="473.292">titleClm : TableColumn&lt;Book, String&gt;</text><rect fill="none" height="6" style="stroke:#C82930;stroke-width:1;" width="6" x="954.5" y="483.2422"/><text fill="#000000" font-family="sans-serif" font-size="14" lengthAdjust="spacing" textLength="295.4697" x="966.5" y="489.5889">authorsClm : TableColumn&lt;Book, String&gt;</text><rect fill="none" height="6" style="stroke:#C82930;stroke-width:1;" width="6" x="954.5" y="499.5391"/><text fill="#000000" font-family="sans-serif" font-size="14" lengthAdjust="spacing" textLength="369.3252" x="966.5" y="505.8857">publishmentYearClm : TableColumn&lt;Book, Integer&gt;</text><rect fill="none" height="6" style="stroke:#C82930;stroke-width:1;" width="6" x="954.5" y="515.8359"/><text fill="#000000" font-family="sans-serif" font-size="14" lengthAdjust="spacing" textLength="289.1807" x="966.5" y="522.1826">bookIdClm : TableColumn&lt;Book, String&gt;</text><rect fill="none" height="6" style="stroke:#C82930;stroke-width:1;" width="6" x="954.5" y="532.1328"/><text fill="#000000" font-family="sans-serif" font-size="14" lengthAdjust="spacing" textLength="360.835" x="966.5" y="538.4795">availableCopiesClm : TableColumn&lt;Book, Integer&gt;</text><rect fill="none" height="6" style="stroke:#C82930;stroke-width:1;" width="6" x="954.5" y="548.4297"/><text fill="#000000" font-family="sans-serif" font-size="14" lengthAdjust="spacing" textLength="222.585" x="966.5" y="554.7764">bookRegister : Register&lt;Book&gt;</text><rect fill="none" height="6" style="stroke:#C82930;stroke-width:1;" width="6" x="954.5" y="564.7266"/><text fill="#000000" font-family="sans-serif" font-size="14" lengthAdjust="spacing" textLength="258.8018" x="966.5" y="571.0732">sideBarController : SideBarController</text><line style="stroke:#181818;stroke-width:0.5;" x1="947.5" x2="1367.2939" y1="578.375" y2="578.375"/><ellipse cx="957.5" cy="592.0234" fill="#84BE84" rx="3" ry="3" style="stroke:#038048;stroke-width:1;"/><text fill="#000000" font-family="sans-serif" font-size="14" lengthAdjust="spacing" textLength="395.7939" x="966.5" y="595.3701">BookRegisterController(bookRegister : Register&lt;Book&gt;)</text><ellipse cx="957.5" cy="608.3203" fill="#84BE84" rx="3" ry="3" style="stroke:#038048;stroke-width:1;"/><text fill="#000000" font-family="sans-serif" font-size="14" lengthAdjust="spacing" textLength="112.5195" x="966.5" y="611.667">initialize() : void</text><rect fill="#F24D5C" height="6" style="stroke:#C82930;stroke-width:1;" width="6" x="954.5" y="621.6172"/><text fill="#000000" font-family="sans-serif" font-size="14" lengthAdjust="spacing" textLength="172.915" x="966.5" y="627.9639">openInsertPopup() : void</text><rect fill="#F24D5C" height="6" style="stroke:#C82930;stroke-width:1;" width="6" x="954.5" y="637.9141"/><text fill="#000000" font-family="sans-serif" font-size="14" lengthAdjust="spacing" textLength="179.3955" x="966.5" y="644.2607">openModifyPopup() : void</text><rect fill="#F24D5C" height="6" style="stroke:#C82930;stroke-width:1;" width="6" x="954.5" y="654.2109"/><text fill="#000000" font-family="sans-serif" font-size="14" lengthAdjust="spacing" textLength="201.9199" x="966.5" y="660.5576">removeFromRegister() : void</text><ellipse cx="957.5" cy="673.5078" fill="#84BE84" rx="3" ry="3" style="stroke:#038048;stroke-width:1;"/><text fill="#000000" font-family="sans-serif" font-size="14" lengthAdjust="spacing" textLength="175.5469" x="966.5" y="676.8545">updateTableView() : void</text><rect fill="#F24D5C" height="6" style="stroke:#C82930;stroke-width:1;" width="6" x="954.5" y="686.8047"/><text fill="#000000" font-family="sans-serif" font-size="14" lengthAdjust="spacing" textLength="135.8232" x="966.5" y="693.1514">searchBook() : void</text></g><!--class SideBarController--><g class="entity" data-entity="SideBarController" data-source-line="5" data-uid="ent0003" id="entity_SideBarController"><rect fill="#F1F1F1" height="178.375" rx="2.5" ry="2.5" style="stroke:#181818;stroke-width:0.5;" width="226.751" x="1087" y="841.5"/><ellipse cx="1134.4312" cy="857.5" fill="#ADD1B2" rx="11" ry="11" style="stroke:#181818;stroke-width:1;"/><path d="M1137.3999,863.1406 Q1136.8218,863.4375 1136.1812,863.5781 Q1135.5405,863.7344 1134.8374,863.7344 Q1132.3374,863.7344 1131.0093,862.0938 Q1129.6968,860.4375 1129.6968,857.3125 Q1129.6968,854.1875 1131.0093,852.5313 Q1132.3374,850.875 1134.8374,850.875 Q1135.5405,850.875 1136.1812,851.0313 Q1136.8374,851.1875 1137.3999,851.4844 L1137.3999,854.2031 Q1136.7749,853.625 1136.1812,853.3594 Q1135.5874,853.0781 1134.9624,853.0781 Q1133.6187,853.0781 1132.9312,854.1563 Q1132.2437,855.2188 1132.2437,857.3125 Q1132.2437,859.4063 1132.9312,860.4844 Q1133.6187,861.5469 1134.9624,861.5469 Q1135.5874,861.5469 1136.1812,861.2813 Q1136.7749,861 1137.3999,860.4219 L1137.3999,863.1406 Z " fill="#000000"/><text fill="#000000" font-family="sans-serif" font-size="14" lengthAdjust="spacing" textLength="123.3887" x="1154.9312" y="862.3467">SideBarController</text><line style="stroke:#181818;stroke-width:0.5;" x1="1088" x2="1312.751" y1="873.5" y2="873.5"/><rect fill="none" height="6" style="stroke:#C82930;stroke-width:1;" width="6" x="1095" y="884.1484"/><text fill="#000000" font-family="sans-serif" font-size="14" lengthAdjust="spacing" textLength="110.8311" x="1107" y="890.4951">addBtn : Button</text><rect fill="none" height="6" style="stroke:#C82930;stroke-width:1;" width="6" x="1095" y="900.4453"/><text fill="#000000" font-family="sans-serif" font-size="14" lengthAdjust="spacing" textLength="165.2451" x="1107" y="906.792">searchBarTF : TextField</text><rect fill="none" height="6" style="stroke:#C82930;stroke-width:1;" width="6" x="1095" y="916.7422"/><text fill="#000000" font-family="sans-serif" font-size="14" lengthAdjust="spacing" textLength="137.9492" x="1107" y="923.0889">removeBtn : Button</text><rect fill="none" height="6" style="stroke:#C82930;stroke-width:1;" width="6" x="1095" y="933.0391"/><text fill="#000000" font-family="sans-serif" font-size="14" lengthAdjust="spacing" textLength="132.6719" x="1107" y="939.3857">modifyBtn : Button</text><line style="stroke:#181818;stroke-width:0.5;" x1="1088" x2="1312.751" y1="946.6875" y2="946.6875"/><ellipse cx="1098" cy="960.3359" fill="#84BE84" rx="3" ry="3" style="stroke:#038048;stroke-width:1;"/><text fill="#000000" font-family="sans-serif" font-size="14" lengthAdjust="spacing" textLength="145.7422" x="1107" y="963.6826">getAddBtn() : Button</text><ellipse cx="1098" cy="976.6328" fill="#84BE84" rx="3" ry="3" style="stroke:#038048;stroke-width:1;"/><text fill="#000000" font-family="sans-serif" font-size="14" lengthAdjust="spacing" textLength="200.751" x="1107" y="979.9795">getSearchBarTF() : TextField</text><ellipse cx="1098" cy="992.9297" fill="#84BE84" rx="3" ry="3" style="stroke:#038048;stroke-width:1;"/><text fill="#000000" font-family="sans-serif" font-size="14" lengthAdjust="spacing" textLength="175.834" x="1107" y="996.2764">getRemoveBtn() : Button</text><ellipse cx="1098" cy="1009.2266" fill="#84BE84" rx="3" ry="3" style="stroke:#038048;stroke-width:1;"/><text fill="#000000" font-family="sans-serif" font-size="14" lengthAdjust="spacing" textLength="165.0264" x="1107" y="1012.5732">getModifyBtn() : Button</text></g><!--class Register<T>--><g class="entity" data-entity="Register.T." data-source-line="6" data-uid="ent0005" id="entity_Register.T."><rect fill="#F1F1F1" height="129.4844" rx="2.5" ry="2.5" style="stroke:#181818;stroke-width:0.5;" width="295.6162" x="740.5" y="866"/><ellipse cx="838.917" cy="882" fill="#B4A7E5" rx="11" ry="11" style="stroke:#181818;stroke-width:1;"/><path d="M834.8389,877.7656 L834.8389,875.6094 L842.2295,875.6094 L842.2295,877.7656 L839.7607,877.7656 L839.7607,885.8438 L842.2295,885.8438 L842.2295,888 L834.8389,888 L834.8389,885.8438 L837.3076,885.8438 L837.3076,877.7656 L834.8389,877.7656 Z " fill="#000000"/><text fill="#000000" font-family="sans-serif" font-size="14" font-style="italic" lengthAdjust="spacing" textLength="90.2822" x="859.417" y="886.8467">Register&lt;T&gt;</text><line style="stroke:#181818;stroke-width:0.5;" x1="741.5" x2="1035.1162" y1="898" y2="898"/><line style="stroke:#181818;stroke-width:0.5;" x1="741.5" x2="1035.1162" y1="906" y2="906"/><ellipse cx="751.5" cy="919.6484" fill="#84BE84" rx="3" ry="3" style="stroke:#038048;stroke-width:1;"/><text fill="#000000" font-family="sans-serif" font-size="14" lengthAdjust="spacing" textLength="144.0947" x="760.5" y="922.9951">add(toAdd : T) : void</text><ellipse cx="751.5" cy="935.9453" fill="#84BE84" rx="3" ry="3" style="stroke:#038048;stroke-width:1;"/><text fill="#000000" font-family="sans-serif" font-size="14" lengthAdjust="spacing" textLength="269.6162" x="760.5" y="939.292">modify(oldItem : T, newItem : T) : void</text><ellipse cx="751.5" cy="952.2422" fill="#84BE84" rx="3" ry="3" style="stroke:#038048;stroke-width:1;"/><text fill="#000000" font-family="sans-serif" font-size="14" lengthAdjust="spacing" textLength="201.3047" x="760.5" y="955.5889">remove(toRemove : T) : void</text><ellipse cx="751.5" cy="968.5391" fill="#84BE84" rx="3" ry="3" style="stroke:#038048;stroke-width:1;"/><text fill="#000000" font-family="sans-serif" font-size="14" lengthAdjust="spacing" textLength="218.3535" x="760.5" y="971.8857">isUnique(toVerify : T) : boolean</text><ellipse cx="751.5" cy="984.8359" fill="#84BE84" rx="3" ry="3" style="stroke:#038048;stroke-width:1;"/><text fill="#000000" font-family="sans-serif" font-size="14" lengthAdjust="spacing" textLength="186.7578" x="760.5" y="988.1826">getRegisterList() : List&lt;T&gt;</text></g><!--class BookInsertPopupController--><g class="entity" data-entity="BookInsertPopupController" data-source-line="7" data-uid="ent0007" id="entity_BookInsertPopupController"><rect fill="#F1F1F1" height="113.1875" rx="2.5" ry="2.5" style="stroke:#181818;stroke-width:0.5;" width="888.6816" x="7" y="497.5"/><ellipse cx="353.1787" cy="513.5" fill="#ADD1B2" rx="11" ry="11" style="stroke:#181818;stroke-width:1;"/><path d="M356.1475,519.1406 Q355.5693,519.4375 354.9287,519.5781 Q354.2881,519.7344 353.585,519.7344 Q351.085,519.7344 349.7568,518.0938 Q348.4443,516.4375 348.4443,513.3125 Q348.4443,510.1875 349.7568,508.5313 Q351.085,506.875 353.585,506.875 Q354.2881,506.875 354.9287,507.0313 Q355.585,507.1875 356.1475,507.4844 L356.1475,510.2031 Q355.5225,509.625 354.9287,509.3594 Q354.335,509.0781 353.71,509.0781 Q352.3662,509.0781 351.6787,510.1563 Q350.9912,511.2188 350.9912,513.3125 Q350.9912,515.4063 351.6787,516.4844 Q352.3662,517.5469 353.71,517.5469 Q354.335,517.5469 354.9287,517.2813 Q355.5225,517 356.1475,516.4219 L356.1475,519.1406 Z " fill="#000000"/><text fill="#000000" font-family="sans-serif" font-size="14" lengthAdjust="spacing" textLength="187.8242" x="373.6787" y="518.3467">BookInsertPopupController</text><line style="stroke:#181818;stroke-width:0.5;" x1="8" x2="894.6816" y1="529.5" y2="529.5"/><rect fill="none" height="6" style="stroke:#C82930;stroke-width:1;" width="6" x="15" y="540.1484"/><text fill="#000000" font-family="sans-serif" font-size="14" lengthAdjust="spacing" textLength="306.0244" x="27" y="546.4951">bookRegisterAdder : RegisterAdder&lt;Book&gt;</text><rect fill="none" height="6" style="stroke:#C82930;stroke-width:1;" width="6" x="15" y="556.4453"/><text fill="#000000" font-family="sans-serif" font-size="14" lengthAdjust="spacing" textLength="349.0088" x="27" y="562.792">bookRegisterValidator : RegisterValidator&lt;Book&gt;</text><line style="stroke:#181818;stroke-width:0.5;" x1="8" x2="894.6816" y1="570.0938" y2="570.0938"/><ellipse cx="18" cy="583.7422" fill="#84BE84" rx="3" ry="3" style="stroke:#038048;stroke-width:1;"/><text fill="#000000" font-family="sans-serif" font-size="14" lengthAdjust="spacing" textLength="862.6816" x="27" y="587.0889">BookInsertPopupController(bookRegisterAdder : RegisterAdder&lt;Book&gt;, bookRegisterValidator : RegisterValidator&lt;Book&gt;)</text><ellipse cx="18" cy="600.0391" fill="#84BE84" rx="3" ry="3" style="stroke:#038048;stroke-width:1;"/><text fill="#000000" font-family="sans-serif" font-size="14" lengthAdjust="spacing" textLength="112.5195" x="27" y="603.3857">initialize() : void</text></g><!--class BookModifyPopupController--><g class="entity" data-entity="BookModifyPopupController" data-source-line="8" data-uid="ent0010" id="entity_BookModifyPopupController"><rect fill="#F1F1F1" height="113.1875" rx="2.5" ry="2.5" style="stroke:#181818;stroke-width:0.5;" width="722.2676" x="1418.5" y="497.5"/><ellipse cx="1678.2314" cy="513.5" fill="#ADD1B2" rx="11" ry="11" style="stroke:#181818;stroke-width:1;"/><path d="M1681.2002,519.1406 Q1680.6221,519.4375 1679.9814,519.5781 Q1679.3408,519.7344 1678.6377,519.7344 Q1676.1377,519.7344 1674.8096,518.0938 Q1673.4971,516.4375 1673.4971,513.3125 Q1673.4971,510.1875 1674.8096,508.5313 Q1676.1377,506.875 1678.6377,506.875 Q1679.3408,506.875 1679.9814,507.0313 Q1680.6377,507.1875 1681.2002,507.4844 L1681.2002,510.2031 Q1680.5752,509.625 1679.9814,509.3594 Q1679.3877,509.0781 1678.7627,509.0781 Q1677.4189,509.0781 1676.7314,510.1563 Q1676.0439,511.2188 1676.0439,513.3125 Q1676.0439,515.4063 1676.7314,516.4844 Q1677.4189,517.5469 1678.7627,517.5469 Q1679.3877,517.5469 1679.9814,517.2813 Q1680.5752,517 1681.2002,516.4219 L1681.2002,519.1406 Z " fill="#000000"/><text fill="#000000" font-family="sans-serif" font-size="14" lengthAdjust="spacing" textLength="194.3047" x="1698.7314" y="518.3467">BookModifyPopupController</text><line style="stroke:#181818;stroke-width:0.5;" x1="1419.5" x2="2139.7676" y1="529.5" y2="529.5"/><rect fill="none" height="6" style="stroke:#C82930;stroke-width:1;" width="6" x="1426.5" y="540.1484"/><text fill="#000000" font-family="sans-serif" font-size="14" lengthAdjust="spacing" textLength="335.8018" x="1438.5" y="546.4951">bookRegisterModifier : RegisterModifier&lt;Book&gt;</text><rect fill="none" height="6" style="stroke:#C82930;stroke-width:1;" width="6" x="1426.5" y="556.4453"/><text fill="#000000" font-family="sans-serif" font-size="14" lengthAdjust="spacing" textLength="146.3369" x="1438.5" y="562.792">bookToModify : Book</text><line style="stroke:#181818;stroke-width:0.5;" x1="1419.5" x2="2139.7676" y1="570.0938" y2="570.0938"/><ellipse cx="1429.5" cy="583.7422" fill="#84BE84" rx="3" ry="3" style="stroke:#038048;stroke-width:1;"/><text fill="#000000" font-family="sans-serif" font-size="14" lengthAdjust="spacing" textLength="696.2676" x="1438.5" y="587.0889">BookModifyPopupController(bookRegisterModifier : RegisterModifier&lt;Book&gt;, bookToModify : Book)</text><ellipse cx="1429.5" cy="600.0391" fill="#84BE84" rx="3" ry="3" style="stroke:#038048;stroke-width:1;"/><text fill="#000000" font-family="sans-serif" font-size="14" lengthAdjust="spacing" textLength="112.5195" x="1438.5" y="603.3857">initialize() : void</text></g><!--class RegisterAdder<T>--><g class="entity" data-entity="RegisterAdder.T." data-source-line="10" data-uid="ent0012" id="entity_RegisterAdder.T."><rect fill="#F1F1F1" height="64.2969" rx="2.5" ry="2.5" style="stroke:#181818;stroke-width:0.5;" width="170.0947" x="366.5" y="145.5"/><ellipse cx="384.2417" cy="161.5" fill="#B4A7E5" rx="11" ry="11" style="stroke:#181818;stroke-width:1;"/><path d="M380.1636,157.2656 L380.1636,155.1094 L387.5542,155.1094 L387.5542,157.2656 L385.0855,157.2656 L385.0855,165.3438 L387.5542,165.3438 L387.5542,167.5 L380.1636,167.5 L380.1636,165.3438 L382.6324,165.3438 L382.6324,157.2656 L380.1636,157.2656 Z " fill="#000000"/><text fill="#000000" font-family="sans-serif" font-size="14" font-style="italic" lengthAdjust="spacing" textLength="132.002" x="398.851" y="166.3467">RegisterAdder&lt;T&gt;</text><line style="stroke:#181818;stroke-width:0.5;" x1="367.5" x2="535.5947" y1="177.5" y2="177.5"/><line style="stroke:#181818;stroke-width:0.5;" x1="367.5" x2="535.5947" y1="185.5" y2="185.5"/><ellipse cx="377.5" cy="199.1484" fill="#84BE84" rx="3" ry="3" style="stroke:#038048;stroke-width:1;"/><text fill="#000000" font-family="sans-serif" font-size="14" lengthAdjust="spacing" textLength="144.0947" x="386.5" y="202.4951">add(toAdd : T) : void</text></g><!--class RegisterValidator<T>--><g class="entity" data-entity="RegisterValidator.T." data-source-line="11" data-uid="ent0015" id="entity_RegisterValidator.T."><rect fill="#F1F1F1" height="64.2969" rx="2.5" ry="2.5" style="stroke:#181818;stroke-width:0.5;" width="244.3535" x="329.5" y="898.5"/><ellipse cx="370.9867" cy="914.5" fill="#B4A7E5" rx="11" ry="11" style="stroke:#181818;stroke-width:1;"/><path d="M366.9086,910.2656 L366.9086,908.1094 L374.2992,908.1094 L374.2992,910.2656 L371.8305,910.2656 L371.8305,918.3438 L374.2992,918.3438 L374.2992,920.5 L366.9086,920.5 L366.9086,918.3438 L369.3773,918.3438 L369.3773,910.2656 L366.9086,910.2656 Z " fill="#000000"/><text fill="#000000" font-family="sans-serif" font-size="14" font-style="italic" lengthAdjust="spacing" textLength="153.4941" x="390.8727" y="919.3467">RegisterValidator&lt;T&gt;</text><line style="stroke:#181818;stroke-width:0.5;" x1="330.5" x2="572.8535" y1="930.5" y2="930.5"/><line style="stroke:#181818;stroke-width:0.5;" x1="330.5" x2="572.8535" y1="938.5" y2="938.5"/><ellipse cx="340.5" cy="952.1484" fill="#84BE84" rx="3" ry="3" style="stroke:#038048;stroke-width:1;"/><text fill="#000000" font-family="sans-serif" font-size="14" lengthAdjust="spacing" textLength="218.3535" x="349.5" y="955.4951">isUnique(toVerify : T) : boolean</text></g><!--class BookPopupController--><g class="entity" data-entity="BookPopupController" data-source-line="12" data-uid="ent0017" id="entity_BookPopupController"><rect fill="#F1F1F1" height="341.3438" rx="2.5" ry="2.5" style="stroke:#181818;stroke-width:0.5;" width="623.1943" x="773" y="7"/><ellipse cx="1006.5122" cy="23" fill="#A9DCDF" rx="11" ry="11" style="stroke:#181818;stroke-width:1;"/><path d="M1006.6216,18.3438 L1005.4653,23.4219 L1007.7935,23.4219 L1006.6216,18.3438 Z M1005.1372,16.1094 L1008.1216,16.1094 L1011.481,28.5 L1009.0278,28.5 L1008.2622,25.4375 L1004.981,25.4375 L1004.231,28.5 L1001.7935,28.5 L1005.1372,16.1094 Z " fill="#000000"/><text fill="#000000" font-family="sans-serif" font-size="14" font-style="italic" lengthAdjust="spacing" textLength="147.6699" x="1027.0122" y="27.8467">BookPopupController</text><line style="stroke:#181818;stroke-width:0.5;" x1="774" x2="1395.1943" y1="39" y2="39"/><polygon fill="none" points="784,47.6484,788,51.6484,784,55.6484,780,51.6484" style="stroke:#B38D22;stroke-width:1;"/><text fill="#000000" font-family="sans-serif" font-size="14" lengthAdjust="spacing" textLength="121.8643" x="793" y="55.9951">titleTF : TextField</text><polygon fill="none" points="784,63.9453,788,67.9453,784,71.9453,780,67.9453" style="stroke:#B38D22;stroke-width:1;"/><text fill="#000000" font-family="sans-serif" font-size="14" lengthAdjust="spacing" textLength="163.584" x="793" y="72.292">authorsListVBox : VBox</text><polygon fill="none" points="784,80.2422,788,84.2422,784,88.2422,780,84.2422" style="stroke:#B38D22;stroke-width:1;"/><text fill="#000000" font-family="sans-serif" font-size="14" lengthAdjust="spacing" textLength="150.5342" x="793" y="88.5889">Author1TF : TextField</text><polygon fill="none" points="784,96.5391,788,100.5391,784,104.5391,780,100.5391" style="stroke:#B38D22;stroke-width:1;"/><text fill="#000000" font-family="sans-serif" font-size="14" lengthAdjust="spacing" textLength="176.5859" x="793" y="104.8857">publishYearTF : TextField</text><polygon fill="none" points="784,112.8359,788,116.8359,784,120.8359,780,116.8359" style="stroke:#B38D22;stroke-width:1;"/><text fill="#000000" font-family="sans-serif" font-size="14" lengthAdjust="spacing" textLength="139.4395" x="793" y="121.1826">copiesTF : TextField</text><polygon fill="none" points="784,129.1328,788,133.1328,784,137.1328,780,133.1328" style="stroke:#B38D22;stroke-width:1;"/><text fill="#000000" font-family="sans-serif" font-size="14" lengthAdjust="spacing" textLength="164.459" x="793" y="137.4795">bookCodeTF : TextField</text><polygon fill="none" points="784,145.4297,788,149.4297,784,153.4297,780,149.4297" style="stroke:#B38D22;stroke-width:1;"/><text fill="#000000" font-family="sans-serif" font-size="14" lengthAdjust="spacing" textLength="137.8262" x="793" y="153.7764">confirmBtn : Button</text><polygon fill="none" points="784,161.7266,788,165.7266,784,169.7266,780,165.7266" style="stroke:#B38D22;stroke-width:1;"/><text fill="#000000" font-family="sans-serif" font-size="14" lengthAdjust="spacing" textLength="129.8281" x="793" y="170.0732">cancelBtn : Button</text><polygon fill="none" points="784,178.0234,788,182.0234,784,186.0234,780,182.0234" style="stroke:#B38D22;stroke-width:1;"/><text fill="#000000" font-family="sans-serif" font-size="14" lengthAdjust="spacing" textLength="165.2588" x="793" y="186.3701">addAuthorsBtn : Button</text><polygon fill="none" points="784,194.3203,788,198.3203,784,202.3203,780,198.3203" style="stroke:#B38D22;stroke-width:1;"/><text fill="#000000" font-family="sans-serif" font-size="14" lengthAdjust="spacing" textLength="273.4307" x="793" y="202.667">dynamicAuthorFields : List&lt;TextField&gt;</text><rect fill="none" height="6" style="stroke:#C82930;stroke-width:1;" width="6" x="781" y="212.6172"/><text fill="#000000" font-family="sans-serif" font-size="14" lengthAdjust="spacing" textLength="137.5869" x="793" y="218.9639">removeImg : Image</text><line style="stroke:#181818;stroke-width:0.5;" x1="774" x2="1395.1943" y1="226.2656" y2="226.2656"/><ellipse cx="784" cy="239.9141" fill="#84BE84" rx="3" ry="3" style="stroke:#038048;stroke-width:1;"/><text fill="#000000" font-family="sans-serif" font-size="14" lengthAdjust="spacing" textLength="112.5195" x="793" y="243.2607">initialize() : void</text><rect fill="#F24D5C" height="6" style="stroke:#C82930;stroke-width:1;" width="6" x="781" y="253.2109"/><text fill="#000000" font-family="sans-serif" font-size="14" lengthAdjust="spacing" textLength="294.1367" x="793" y="259.5576">createAuthorRow(authorNum : int) : HBox</text><polygon fill="#FFFF44" points="784,267.5078,788,271.5078,784,275.5078,780,271.5078" style="stroke:#B38D22;stroke-width:1;"/><text fill="#000000" font-family="sans-serif" font-size="14" lengthAdjust="spacing" textLength="259.7998" x="793" y="275.8545">getAuthorsListPopup() : List&lt;String&gt;</text><rect fill="#F24D5C" height="6" style="stroke:#C82930;stroke-width:1;" width="6" x="781" y="285.8047"/><text fill="#000000" font-family="sans-serif" font-size="14" lengthAdjust="spacing" textLength="272.6377" x="793" y="292.1514">addAuthors(event : ActionEvent) : void</text><ellipse cx="784" cy="305.1016" fill="#84BE84" rx="3" ry="3" style="stroke:#038048;stroke-width:1;"/><text fill="#000000" font-family="sans-serif" font-size="14" font-style="italic" lengthAdjust="spacing" textLength="313.2637" x="793" y="308.4482">confirmBtnAction(event : ActionEvent) : void</text><ellipse cx="784" cy="321.3984" fill="#84BE84" rx="3" ry="3" style="stroke:#038048;stroke-width:1;"/><text fill="#000000" font-family="sans-serif" font-size="14" lengthAdjust="spacing" textLength="305.2656" x="793" y="324.7451">cancelBtnAction(event : ActionEvent) : void</text><polygon fill="#FFFF44" points="784,332.6953,788,336.6953,784,340.6953,780,336.6953" style="stroke:#B38D22;stroke-width:1;"/><text fill="#000000" font-family="sans-serif" font-size="14" lengthAdjust="spacing" textLength="597.1943" x="793" y="341.042">showAlert(type : Alert.AlertType, title : String, header : String, content : String) : void</text></g><!--class RegisterModifier<T>--><g class="entity" data-entity="RegisterModifier.T." data-source-line="15" data-uid="ent0020" id="entity_RegisterModifier.T."><rect fill="#F1F1F1" height="64.2969" rx="2.5" ry="2.5" style="stroke:#181818;stroke-width:0.5;" width="295.6162" x="1631.5" y="145.5"/><ellipse cx="1701.6128" cy="161.5" fill="#B4A7E5" rx="11" ry="11" style="stroke:#181818;stroke-width:1;"/><path d="M1697.5347,157.2656 L1697.5347,155.1094 L1704.9253,155.1094 L1704.9253,157.2656 L1702.4565,157.2656 L1702.4565,165.3438 L1704.9253,165.3438 L1704.9253,167.5 L1697.5347,167.5 L1697.5347,165.3438 L1700.0034,165.3438 L1700.0034,157.2656 L1697.5347,157.2656 Z " fill="#000000"/><text fill="#000000" font-family="sans-serif" font-size="14" font-style="italic" lengthAdjust="spacing" textLength="146.8906" x="1722.1128" y="166.3467">RegisterModifier&lt;T&gt;</text><line style="stroke:#181818;stroke-width:0.5;" x1="1632.5" x2="1926.1162" y1="177.5" y2="177.5"/><line style="stroke:#181818;stroke-width:0.5;" x1="1632.5" x2="1926.1162" y1="185.5" y2="185.5"/><ellipse cx="1642.5" cy="199.1484" fill="#84BE84" rx="3" ry="3" style="stroke:#038048;stroke-width:1;"/><text fill="#000000" font-family="sans-serif" font-size="14" lengthAdjust="spacing" textLength="269.6162" x="1651.5" y="202.4951">modify(oldItem : T, newItem : T) : void</text></g><!--class Book--><g class="entity" data-entity="Book" data-source-line="17" data-uid="ent0025" id="entity_Book"><rect fill="#F1F1F1" height="341.3438" rx="2.5" ry="2.5" style="stroke:#181818;stroke-width:0.5;" width="742.0986" x="1408.5" y="760"/><ellipse cx="1757.8779" cy="776" fill="#ADD1B2" rx="11" ry="11" style="stroke:#181818;stroke-width:1;"/><path d="M1760.8467,781.6406 Q1760.2686,781.9375 1759.6279,782.0781 Q1758.9873,782.2344 1758.2842,782.2344 Q1755.7842,782.2344 1754.4561,780.5938 Q1753.1436,778.9375 1753.1436,775.8125 Q1753.1436,772.6875 1754.4561,771.0313 Q1755.7842,769.375 1758.2842,769.375 Q1758.9873,769.375 1759.6279,769.5313 Q1760.2842,769.6875 1760.8467,769.9844 L1760.8467,772.7031 Q1760.2217,772.125 1759.6279,771.8594 Q1759.0342,771.5781 1758.4092,771.5781 Q1757.0654,771.5781 1756.3779,772.6563 Q1755.6904,773.7188 1755.6904,775.8125 Q1755.6904,777.9063 1756.3779,778.9844 Q1757.0654,780.0469 1758.4092,780.0469 Q1759.0342,780.0469 1759.6279,779.7813 Q1760.2217,779.5 1760.8467,778.9219 L1760.8467,781.6406 Z " fill="#000000"/><text fill="#000000" font-family="sans-serif" font-size="14" lengthAdjust="spacing" textLength="34.8428" x="1778.3779" y="780.8467">Book</text><line style="stroke:#181818;stroke-width:0.5;" x1="1409.5" x2="2149.5986" y1="792" y2="792"/><rect fill="none" height="6" style="stroke:#C82930;stroke-width:1;" width="6" x="1416.5" y="802.6484"/><text fill="#000000" font-family="sans-serif" font-size="14" lengthAdjust="spacing" textLength="82.7695" x="1428.5" y="808.9951">title : String</text><rect fill="none" height="6" style="stroke:#C82930;stroke-width:1;" width="6" x="1416.5" y="818.9453"/><text fill="#000000" font-family="sans-serif" font-size="14" lengthAdjust="spacing" textLength="156.7617" x="1428.5" y="825.292">authors : List&lt;String&gt;</text><rect fill="none" height="6" style="stroke:#C82930;stroke-width:1;" width="6" x="1416.5" y="835.2422"/><text fill="#000000" font-family="sans-serif" font-size="14" lengthAdjust="spacing" textLength="188.7061" x="1428.5" y="841.5889">bookId : String {readOnly}</text><rect fill="none" height="6" style="stroke:#C82930;stroke-width:1;" width="6" x="1416.5" y="851.5391"/><text fill="#000000" font-family="sans-serif" font-size="14" lengthAdjust="spacing" textLength="150.5752" x="1428.5" y="857.8857">publishmentYear : int</text><rect fill="none" height="6" style="stroke:#C82930;stroke-width:1;" width="6" x="1416.5" y="867.8359"/><text fill="#000000" font-family="sans-serif" font-size="14" lengthAdjust="spacing" textLength="142.085" x="1428.5" y="874.1826">availableCopies : int</text><line style="stroke:#181818;stroke-width:0.5;" x1="1409.5" x2="2149.5986" y1="881.4844" y2="881.4844"/><ellipse cx="1419.5" cy="895.1328" fill="#84BE84" rx="3" ry="3" style="stroke:#038048;stroke-width:1;"/><text fill="#000000" font-family="sans-serif" font-size="14" lengthAdjust="spacing" textLength="716.0986" x="1428.5" y="898.4795">Book(title : String, authors : List&lt;String&gt;, bookId : String, publishmentYear : int, availableCopies : int)</text><ellipse cx="1419.5" cy="911.4297" fill="#84BE84" rx="3" ry="3" style="stroke:#038048;stroke-width:1;"/><text fill="#000000" font-family="sans-serif" font-size="14" lengthAdjust="spacing" textLength="119.7451" x="1428.5" y="914.7764">getTitle() : String</text><ellipse cx="1419.5" cy="927.7266" fill="#84BE84" rx="3" ry="3" style="stroke:#038048;stroke-width:1;"/><text fill="#000000" font-family="sans-serif" font-size="14" lengthAdjust="spacing" textLength="191.6729" x="1428.5" y="931.0732">getAuthors() : List&lt;String&gt;</text><ellipse cx="1419.5" cy="944.0234" fill="#84BE84" rx="3" ry="3" style="stroke:#038048;stroke-width:1;"/><text fill="#000000" font-family="sans-serif" font-size="14" lengthAdjust="spacing" textLength="137.1699" x="1428.5" y="947.3701">getBookId() : String</text><ellipse cx="1419.5" cy="960.3203" fill="#84BE84" rx="3" ry="3" style="stroke:#038048;stroke-width:1;"/><text fill="#000000" font-family="sans-serif" font-size="14" lengthAdjust="spacing" textLength="184.0439" x="1428.5" y="963.667">getPublishmentYear() : int</text><ellipse cx="1419.5" cy="976.6172" fill="#84BE84" rx="3" ry="3" style="stroke:#038048;stroke-width:1;"/><text fill="#000000" font-family="sans-serif" font-size="14" lengthAdjust="spacing" textLength="176.9961" x="1428.5" y="979.9639">getAvailableCopies() : int</text><ellipse cx="1419.5" cy="992.9141" fill="#84BE84" rx="3" ry="3" style="stroke:#038048;stroke-width:1;"/><text fill="#000000" font-family="sans-serif" font-size="14" lengthAdjust="spacing" textLength="328.8633" x="1428.5" y="996.2607">setAvailableCopies(availableCopies : int) : void</text><ellipse cx="1419.5" cy="1009.2109" fill="#84BE84" rx="3" ry="3" style="stroke:#038048;stroke-width:1;"/><text fill="#000000" font-family="sans-serif" font-size="14" lengthAdjust="spacing" textLength="198.4268" x="1428.5" y="1012.5576">copy(newData : Book) : void</text><ellipse cx="1419.5" cy="1025.5078" fill="#84BE84" rx="3" ry="3" style="stroke:#038048;stroke-width:1;"/><text fill="#000000" font-family="sans-serif" font-size="14" lengthAdjust="spacing" textLength="212.0781" x="1428.5" y="1028.8545">isAvailableForLoan() : boolean</text><rect fill="#F24D5C" height="6" style="stroke:#C82930;stroke-width:1;" width="6" x="1416.5" y="1038.8047"/><text fill="#000000" font-family="sans-serif" font-size="14" lengthAdjust="spacing" textLength="126.5195" x="1428.5" y="1045.1514">isValid() : boolean</text><rect fill="#F24D5C" height="6" style="stroke:#C82930;stroke-width:1;" width="6" x="1416.5" y="1055.1016"/><text fill="#000000" font-family="sans-serif" font-size="14" lengthAdjust="spacing" textLength="276.917" x="1428.5" y="1061.4482">isBookIdValid(bookId : String) : boolean</text><rect fill="#F24D5C" height="6" style="stroke:#C82930;stroke-width:1;" width="6" x="1416.5" y="1071.3984"/><text fill="#000000" font-family="sans-serif" font-size="14" lengthAdjust="spacing" textLength="395.3564" x="1428.5" y="1077.7451">isPublishmentYearValid(publishmentYear : int) : boolean</text><rect fill="#F24D5C" height="6" style="stroke:#C82930;stroke-width:1;" width="6" x="1416.5" y="1087.6953"/><text fill="#000000" font-family="sans-serif" font-size="14" lengthAdjust="spacing" textLength="379.8184" x="1428.5" y="1094.042">isAvailableCopiesValid(availableCopies : int) : boolean</text></g><!--link BookRegisterController to SideBarController--><g class="link" data-entity-1="BookRegisterController" data-entity-2="SideBarController" data-source-line="5" data-uid="lnk4" id="link_BookRegisterController_SideBarController"><path codeLine="5" d="M1174.16,700.06 C1179.62,747.68 1184.8446,793.1893 1189.6846,835.2793" fill="none" id="BookRegisterController-to-SideBarController" style="stroke:#181818;stroke-width:1;"/><polygon fill="#181818" points="1190.37,841.24,1193.3157,831.842,1189.7988,836.2727,1185.368,832.7559,1190.37,841.24" style="stroke:#181818;stroke-width:1;"/><text fill="#000000" font-family="sans-serif" font-size="13" lengthAdjust="spacing" textLength="8.271" x="1166.8654" y="720.5159">1</text><text fill="#000000" font-family="sans-serif" font-size="13" lengthAdjust="spacing" textLength="8.271" x="1181.2214" y="830.2839">1</text></g><!--link BookRegisterController to Register<T>--><g class="link" data-entity-1="BookRegisterController" data-entity-2="Register.T." data-source-line="6" data-uid="lnk6" id="link_BookRegisterController_Register.T."><path codeLine="6" d="M1053.31,700.06 C1012.08,757.45 970.3509,815.5573 937.7109,860.9873" fill="none" id="BookRegisterController-to-Register&lt;T&gt;" style="stroke:#181818;stroke-width:1;"/><polygon fill="#181818" points="934.21,865.86,942.7099,860.8848,937.1274,861.7994,936.2129,856.2169,934.21,865.86" style="stroke:#181818;stroke-width:1;"/><text fill="#000000" font-family="sans-serif" font-size="13" lengthAdjust="spacing" textLength="8.271" x="1039.4064" y="720.5159">1</text><text fill="#000000" font-family="sans-serif" font-size="13" lengthAdjust="spacing" textLength="8.271" x="930.8078" y="855.0174">1</text></g><!--reverse link BookInsertPopupController to BookRegisterController--><g class="link" data-entity-1="BookInsertPopupController" data-entity-2="BookRegisterController" data-source-line="7" data-uid="lnk9" id="link_BookInsertPopupController_BookRegisterController"><path codeLine="7" d="M902.2,554 C918.95,554 929.71,554 946.47,554" fill="none" id="BookInsertPopupController-backto-BookRegisterController" style="stroke:#181818;stroke-width:1;stroke-dasharray:7,7;"/><polygon fill="#181818" points="896.2,554,905.2,558,901.2,554,905.2,550,896.2,554" style="stroke:#181818;stroke-width:1;"/></g><!--link BookRegisterController to BookModifyPopupController--><g class="link" data-entity-1="BookRegisterController" data-entity-2="BookModifyPopupController" data-source-line="8" data-uid="lnk11" id="link_BookRegisterController_BookModifyPopupController"><path codeLine="8" d="M1368.58,554 C1385.17,554 1395.75,554 1412.34,554" fill="none" id="BookRegisterController-to-BookModifyPopupController" style="stroke:#181818;stroke-width:1;stroke-dasharray:7,7;"/><polygon fill="#181818" points="1418.34,554,1409.34,550,1413.34,554,1409.34,558,1418.34,554" style="stroke:#181818;stroke-width:1;"/></g><!--reverse link RegisterAdder<T> to BookInsertPopupController--><g class="link" data-entity-1="RegisterAdder.T." data-entity-2="BookInsertPopupController" data-source-line="10" data-uid="lnk14" id="link_RegisterAdder.T._BookInsertPopupController"><path codeLine="10" d="M451.5,215.79 C451.5,279.16 451.5,417.44 451.5,497.28" fill="none" id="RegisterAdder&lt;T&gt;-backto-BookInsertPopupController" style="stroke:#181818;stroke-width:1;"/><polygon fill="#181818" points="451.5,209.79,447.5,218.79,451.5,214.79,455.5,218.79,451.5,209.79" style="stroke:#181818;stroke-width:1;"/><text fill="#000000" font-family="sans-serif" font-size="13" lengthAdjust="spacing" textLength="8.271" x="442.6932" y="230.0467">1</text><text fill="#000000" font-family="sans-serif" font-size="13" lengthAdjust="spacing" textLength="8.271" x="443.0484" y="486.5167">1</text></g><!--link BookInsertPopupController to RegisterValidator<T>--><g class="link" data-entity-1="BookInsertPopupController" data-entity-2="RegisterValidator.T." data-source-line="11" data-uid="lnk16" id="link_BookInsertPopupController_RegisterValidator.T."><path codeLine="11" d="M451.5,610.66 C451.5,690.54 451.5,829 451.5,892.33" fill="none" id="BookInsertPopupController-to-RegisterValidator&lt;T&gt;" style="stroke:#181818;stroke-width:1;"/><polygon fill="#181818" points="451.5,898.33,455.5,889.33,451.5,893.33,447.5,889.33,451.5,898.33" style="stroke:#181818;stroke-width:1;"/><text fill="#000000" font-family="sans-serif" font-size="13" lengthAdjust="spacing" textLength="8.271" x="443.0253" y="630.9439">1</text><text fill="#000000" font-family="sans-serif" font-size="13" lengthAdjust="spacing" textLength="8.271" x="442.6665" y="887.198">1</text></g><!--reverse link BookPopupController to BookInsertPopupController--><g class="link" data-entity-1="BookPopupController" data-entity-2="BookInsertPopupController" data-source-line="12" data-uid="lnk19" id="link_BookPopupController_BookInsertPopupController"><path codeLine="12" d="M782.138,357.385 C691.198,411.185 612.46,457.77 545.33,497.49" fill="none" id="BookPopupController-backto-BookInsertPopupController" style="stroke:#181818;stroke-width:1;"/><polygon fill="none" points="797.63,348.22,779.083,352.221,785.193,362.549,797.63,348.22" style="stroke:#181818;stroke-width:1;"/></g><!--reverse link RegisterModifier<T> to BookModifyPopupController--><g class="link" data-entity-1="RegisterModifier.T." data-entity-2="BookModifyPopupController" data-source-line="15" data-uid="lnk22" id="link_RegisterModifier.T._BookModifyPopupController"><path codeLine="15" d="M1779.5,215.79 C1779.5,279.16 1779.5,417.44 1779.5,497.28" fill="none" id="RegisterModifier&lt;T&gt;-backto-BookModifyPopupController" style="stroke:#181818;stroke-width:1;"/><polygon fill="#181818" points="1779.5,209.79,1775.5,218.79,1779.5,214.79,1783.5,218.79,1779.5,209.79" style="stroke:#181818;stroke-width:1;"/><text fill="#000000" font-family="sans-serif" font-size="13" lengthAdjust="spacing" textLength="8.271" x="1770.7425" y="230.0467">1</text><text fill="#000000" font-family="sans-serif" font-size="13" lengthAdjust="spacing" textLength="8.271" x="1771.0127" y="486.5167">1</text></g><!--reverse link BookPopupController to BookModifyPopupController--><g class="link" data-entity-1="BookPopupController" data-entity-2="BookModifyPopupController" data-source-line="16" data-uid="lnk24" id="link_BookPopupController_BookModifyPopupController"><path codeLine="16" d="M1412.0154,354.9794 C1512.7354,409.2594 1601.67,457.17 1676.17,497.32" fill="none" id="BookPopupController-backto-BookModifyPopupController" style="stroke:#181818;stroke-width:1;"/><polygon fill="none" points="1396.17,346.44,1409.169,360.2612,1414.8619,349.6976,1396.17,346.44" style="stroke:#181818;stroke-width:1;"/></g><!--link BookModifyPopupController to Book--><g class="link" data-entity-1="BookModifyPopupController" data-entity-2="Book" data-source-line="17" data-uid="lnk26" id="link_BookModifyPopupController_Book"><path codeLine="17" d="M1779.5,610.66 C1779.5,650.39 1779.5,700.11 1779.5,753.87" fill="none" id="BookModifyPopupController-to-Book" style="stroke:#181818;stroke-width:1;"/><polygon fill="#181818" points="1779.5,759.87,1783.5,750.87,1779.5,754.87,1775.5,750.87,1779.5,759.87" style="stroke:#181818;stroke-width:1;"/><text fill="#000000" font-family="sans-serif" font-size="13" lengthAdjust="spacing" textLength="8.271" x="1770.9877" y="630.9439">1</text><text fill="#000000" font-family="sans-serif" font-size="13" lengthAdjust="spacing" textLength="8.271" x="1771.3227" y="748.8606">1</text></g><!--SRC=[bLTBRziu4BxhLn39eIeg1zj3BqLWmF4cM0Ff0x4sm1vfYR69IgHAKabTr_zz-PGeYegT769BCz_CSFZDm_m79Wrai0Q4beYZ1dpwAtctmoK2DQetYF4aUGTcinbukBrVvAjlNzVgARcXzCS3sc8k45jI8XYjAiJ0nSSBC2jdS_tbOYtDt41FVd4UpYbSv_D9n5LrDGTAjY8SCV6TDctJYoTHpAA-q18_xKDKCcdGHDY64IxAqWlp5UJeR8-mmYKKz1HQ-lnZGXu5cqmUP29QhOkzWEFWQPSd7Bf3AhN4yMPvlrYlRmrhagA2d6ivE2H0_is0mA92u3DO2uR9rhw4hTXHnkNhUndvjP7DhN2ZabLs471W29RVIBK_MeMctLIOxsf4n7y8Cgc9YN2Mdo6kuAP2IzfWnArC2p_emD9XGDb4B5aOHXPtcyKzlhSUjqZaob_wVfW2BLaOpresoeFMqBmfe-3lmsYqZak3iJwCAr3WOuNuGUJ7CyMbXHMqsQS4lVmD1PGI5L-WWNbdzuwoUmg9zYopMI58x2rXhkiZAZ5dDlBW3cBgGHuCBdfLCNIG0uEUJ8H37vD4la7i2HPesCuixJy0M9QfeB9_I5WUfAZM9PRIgbm9L2k53CYSkeT0cw6QFYDfx45_YMXW_Y_1FrkbyuYODErq_DDgJhXG5TjwskNpYHDrxU_4iU9elnrr1iuzUzpaeAjsDa-U_-WwqsXYTMrA7kn644NfLWZg2C8bUOgTHEHtoYRw9UumgaehDJSJWPb33WHUNMfFEliUI8lMlJij7pgqDsXzHWrySOvzwT7lov6XUV3wRgvehpohpqUCNguLQExtycLLEuKbhTgQQ9KC39kuxQhdAGVbEWLQIK9i4HlEYJF36PRq6pouX4dzhj3zdF0HfJwFQUOFeF4DfA_wSQC44oomvFzlCqow-fy1sY3YRHSniJVLGx5XyHsZjVER1lsbRMJDeOuIeG5R96gs-kKBDrmmM0ZGao_SAWppBWsl8YLswMYasjJZ3VqbDTI75Phv-J4Aj9HIT8hA2ys3g4ZTnb9konCuyeHPFIfwAO6aG5L485kBdVGHORadiCQ5KT2EkasaSpqVtDIgtagDLGstA3b9ZKBkJW8Pwm_q9JNv_DhM_L3xfqzelvEe07gsH9Qq_b0fUfPrAxKMXS2KtAgdW407nuMZbp-ZVWQwI-oPY4l0T_Hb8GacKh5lL3lJ3rVwVoxVP21S0dTonJIbQr_8E8LnqwyUZjazeUCx_I7IFlGezMhRZ5Q_aVZQtPpp4FtiCoYlfKJ3ICzqdxtLysiDQP2T-4-9M7RSgk0vxRQ7C4SvDNRj-kdd8UemVPEZBERZrHF_3m00]--></g></svg>