<svg xmlns="http://www.w3.org/2000/svg" xmlns:xlink="http://www.w3.org/1999/xlink" contentStyleType="text/css" data-diagram-type="CLASS" height="1108px" preserveAspectRatio="none" style="width:2139px;height:1108px;background:#FFFFFF;" version="1.1" viewBox="0 0 2139 1108" width="2139px" zoomAndPan="magnify"><defs/><g><!--class BookRegisterController--><g class="entity" data-entity="BookRegisterController" data-source-line="4" data-uid="ent0002" id="entity_BookRegisterController"><rect fill="#F1F1F1" height="292.4531" rx="2.5" ry="2.5" style="stroke:#181818;stroke-width:0.5;" width="452.2891" x="927" y="408"/><ellipse cx="1067.752" cy="424" fill="#ADD1B2" rx="11" ry="11" style="stroke:#181818;stroke-width:1;"/><path d="M1070.7207,429.6406 Q1070.1426,429.9375 1069.502,430.0781 Q1068.8613,430.2344 1068.1582,430.2344 Q1065.6582,430.2344 1064.3301,428.5938 Q1063.0176,426.9375 1063.0176,423.8125 Q1063.0176,420.6875 1064.3301,419.0313 Q1065.6582,417.375 1068.1582,417.375 Q1068.8613,417.375 1069.502,417.5313 Q1070.1582,417.6875 1070.7207,417.9844 L1070.7207,420.7031 Q1070.0957,420.125 1069.502,419.8594 Q1068.9082,419.5781 1068.2832,419.5781 Q1066.9395,419.5781 1066.252,420.6563 Q1065.5645,421.7188 1065.5645,423.8125 Q1065.5645,425.9063 1066.252,426.9844 Q1066.9395,428.0469 1068.2832,428.0469 Q1068.9082,428.0469 1069.502,427.7813 Q1070.0957,427.5 1070.7207,426.9219 L1070.7207,429.6406 Z " fill="#000000"/><text fill="#000000" font-family="sans-serif" font-size="14" lengthAdjust="spacing" textLength="162.2852" x="1088.252" y="428.8467">BookRegisterController</text><line style="stroke:#181818;stroke-width:0.5;" x1="928" x2="1378.2891" y1="440" y2="440"/><rect fill="none" height="6" style="stroke:#C82930;stroke-width:1;" width="6" x="935" y="450.6484"/><text fill="#000000" font-family="sans-serif" font-size="14" lengthAdjust="spacing" textLength="216.6172" x="947" y="456.9951">bookTable : TableView&lt;Book&gt;</text><rect fill="none" height="6" style="stroke:#C82930;stroke-width:1;" width="6" x="935" y="466.9453"/><text fill="#000000" font-family="sans-serif" font-size="14" lengthAdjust="spacing" textLength="269.4111" x="947" y="473.292">titleClm : TableColumn&lt;Book, String&gt;</text><rect fill="none" height="6" style="stroke:#C82930;stroke-width:1;" width="6" x="935" y="483.2422"/><text fill="#000000" font-family="sans-serif" font-size="14" lengthAdjust="spacing" textLength="295.4697" x="947" y="489.5889">authorsClm : TableColumn&lt;Book, String&gt;</text><rect fill="none" height="6" style="stroke:#C82930;stroke-width:1;" width="6" x="935" y="499.5391"/><text fill="#000000" font-family="sans-serif" font-size="14" lengthAdjust="spacing" textLength="369.3252" x="947" y="505.8857">publishmentYearClm : TableColumn&lt;Book, Integer&gt;</text><rect fill="none" height="6" style="stroke:#C82930;stroke-width:1;" width="6" x="935" y="515.8359"/><text fill="#000000" font-family="sans-serif" font-size="14" lengthAdjust="spacing" textLength="289.1807" x="947" y="522.1826">bookIdClm : TableColumn&lt;Book, String&gt;</text><rect fill="none" height="6" style="stroke:#C82930;stroke-width:1;" width="6" x="935" y="532.1328"/><text fill="#000000" font-family="sans-serif" font-size="14" lengthAdjust="spacing" textLength="360.835" x="947" y="538.4795">availableCopiesClm : TableColumn&lt;Book, Integer&gt;</text><rect fill="none" height="6" style="stroke:#C82930;stroke-width:1;" width="6" x="935" y="548.4297"/><text fill="#000000" font-family="sans-serif" font-size="14" lengthAdjust="spacing" textLength="222.585" x="947" y="554.7764">bookRegister : Register&lt;Book&gt;</text><rect fill="none" height="6" style="stroke:#C82930;stroke-width:1;" width="6" x="935" y="564.7266"/><text fill="#000000" font-family="sans-serif" font-size="14" lengthAdjust="spacing" textLength="258.8018" x="947" y="571.0732">sideBarController : SideBarController</text><line style="stroke:#181818;stroke-width:0.5;" x1="928" x2="1378.2891" y1="578.375" y2="578.375"/><ellipse cx="938" cy="592.0234" fill="#84BE84" rx="3" ry="3" style="stroke:#038048;stroke-width:1;"/><text fill="#000000" font-family="sans-serif" font-size="14" lengthAdjust="spacing" textLength="426.2891" x="947" y="595.3701">BookRegisterController(Register&lt;Student&gt; studentRegister)</text><ellipse cx="938" cy="608.3203" fill="#84BE84" rx="3" ry="3" style="stroke:#038048;stroke-width:1;"/><text fill="#000000" font-family="sans-serif" font-size="14" lengthAdjust="spacing" textLength="112.5195" x="947" y="611.667">initialize() : void</text><rect fill="#F24D5C" height="6" style="stroke:#C82930;stroke-width:1;" width="6" x="935" y="621.6172"/><text fill="#000000" font-family="sans-serif" font-size="14" lengthAdjust="spacing" textLength="172.915" x="947" y="627.9639">openInsertPopup() : void</text><rect fill="#F24D5C" height="6" style="stroke:#C82930;stroke-width:1;" width="6" x="935" y="637.9141"/><text fill="#000000" font-family="sans-serif" font-size="14" lengthAdjust="spacing" textLength="179.3955" x="947" y="644.2607">openModifyPopup() : void</text><rect fill="#F24D5C" height="6" style="stroke:#C82930;stroke-width:1;" width="6" x="935" y="654.2109"/><text fill="#000000" font-family="sans-serif" font-size="14" lengthAdjust="spacing" textLength="201.9199" x="947" y="660.5576">removeFromRegister() : void</text><ellipse cx="938" cy="673.5078" fill="#84BE84" rx="3" ry="3" style="stroke:#038048;stroke-width:1;"/><text fill="#000000" font-family="sans-serif" font-size="14" lengthAdjust="spacing" textLength="175.5469" x="947" y="676.8545">updateTableView() : void</text><rect fill="#F24D5C" height="6" style="stroke:#C82930;stroke-width:1;" width="6" x="935" y="686.8047"/><text fill="#000000" font-family="sans-serif" font-size="14" lengthAdjust="spacing" textLength="135.8232" x="947" y="693.1514">searchBook() : void</text></g><!--class SideBarController--><g class="entity" data-entity="SideBarController" data-source-line="4" data-uid="ent0003" id="entity_SideBarController"><rect fill="#F1F1F1" height="178.375" rx="2.5" ry="2.5" style="stroke:#181818;stroke-width:0.5;" width="226.751" x="1097.5" y="841.5"/><ellipse cx="1144.9312" cy="857.5" fill="#ADD1B2" rx="11" ry="11" style="stroke:#181818;stroke-width:1;"/><path d="M1147.8999,863.1406 Q1147.3218,863.4375 1146.6812,863.5781 Q1146.0405,863.7344 1145.3374,863.7344 Q1142.8374,863.7344 1141.5093,862.0938 Q1140.1968,860.4375 1140.1968,857.3125 Q1140.1968,854.1875 1141.5093,852.5313 Q1142.8374,850.875 1145.3374,850.875 Q1146.0405,850.875 1146.6812,851.0313 Q1147.3374,851.1875 1147.8999,851.4844 L1147.8999,854.2031 Q1147.2749,853.625 1146.6812,853.3594 Q1146.0874,853.0781 1145.4624,853.0781 Q1144.1187,853.0781 1143.4312,854.1563 Q1142.7437,855.2188 1142.7437,857.3125 Q1142.7437,859.4063 1143.4312,860.4844 Q1144.1187,861.5469 1145.4624,861.5469 Q1146.0874,861.5469 1146.6812,861.2813 Q1147.2749,861 1147.8999,860.4219 L1147.8999,863.1406 Z " fill="#000000"/><text fill="#000000" font-family="sans-serif" font-size="14" lengthAdjust="spacing" textLength="123.3887" x="1165.4312" y="862.3467">SideBarController</text><line style="stroke:#181818;stroke-width:0.5;" x1="1098.5" x2="1323.251" y1="873.5" y2="873.5"/><rect fill="none" height="6" style="stroke:#C82930;stroke-width:1;" width="6" x="1105.5" y="884.1484"/><text fill="#000000" font-family="sans-serif" font-size="14" lengthAdjust="spacing" textLength="110.8311" x="1117.5" y="890.4951">addBtn : Button</text><rect fill="none" height="6" style="stroke:#C82930;stroke-width:1;" width="6" x="1105.5" y="900.4453"/><text fill="#000000" font-family="sans-serif" font-size="14" lengthAdjust="spacing" textLength="165.2451" x="1117.5" y="906.792">searchBarTF : TextField</text><rect fill="none" height="6" style="stroke:#C82930;stroke-width:1;" width="6" x="1105.5" y="916.7422"/><text fill="#000000" font-family="sans-serif" font-size="14" lengthAdjust="spacing" textLength="137.9492" x="1117.5" y="923.0889">removeBtn : Button</text><rect fill="none" height="6" style="stroke:#C82930;stroke-width:1;" width="6" x="1105.5" y="933.0391"/><text fill="#000000" font-family="sans-serif" font-size="14" lengthAdjust="spacing" textLength="132.6719" x="1117.5" y="939.3857">modifyBtn : Button</text><line style="stroke:#181818;stroke-width:0.5;" x1="1098.5" x2="1323.251" y1="946.6875" y2="946.6875"/><ellipse cx="1108.5" cy="960.3359" fill="#84BE84" rx="3" ry="3" style="stroke:#038048;stroke-width:1;"/><text fill="#000000" font-family="sans-serif" font-size="14" lengthAdjust="spacing" textLength="145.7422" x="1117.5" y="963.6826">getAddBtn() : Button</text><ellipse cx="1108.5" cy="976.6328" fill="#84BE84" rx="3" ry="3" style="stroke:#038048;stroke-width:1;"/><text fill="#000000" font-family="sans-serif" font-size="14" lengthAdjust="spacing" textLength="200.751" x="1117.5" y="979.9795">getSearchBarTF() : TextField</text><ellipse cx="1108.5" cy="992.9297" fill="#84BE84" rx="3" ry="3" style="stroke:#038048;stroke-width:1;"/><text fill="#000000" font-family="sans-serif" font-size="14" lengthAdjust="spacing" textLength="175.834" x="1117.5" y="996.2764">getRemoveBtn() : Button</text><ellipse cx="1108.5" cy="1009.2266" fill="#84BE84" rx="3" ry="3" style="stroke:#038048;stroke-width:1;"/><text fill="#000000" font-family="sans-serif" font-size="14" lengthAdjust="spacing" textLength="165.0264" x="1117.5" y="1012.5732">getModifyBtn() : Button</text></g><!--class Register<T>--><g class="entity" data-entity="Register.T." data-source-line="5" data-uid="ent0005" id="entity_Register.T."><rect fill="#F1F1F1" height="129.4844" rx="2.5" ry="2.5" style="stroke:#181818;stroke-width:0.5;" width="237.3398" x="810.5" y="866"/><ellipse cx="879.7788" cy="882" fill="#B4A7E5" rx="11" ry="11" style="stroke:#181818;stroke-width:1;"/><path d="M875.7007,877.7656 L875.7007,875.6094 L883.0913,875.6094 L883.0913,877.7656 L880.6226,877.7656 L880.6226,885.8438 L883.0913,885.8438 L883.0913,888 L875.7007,888 L875.7007,885.8438 L878.1694,885.8438 L878.1694,877.7656 L875.7007,877.7656 Z " fill="#000000"/><text fill="#000000" font-family="sans-serif" font-size="14" font-style="italic" lengthAdjust="spacing" textLength="90.2822" x="900.2788" y="886.8467">Register&lt;T&gt;</text><line style="stroke:#181818;stroke-width:0.5;" x1="811.5" x2="1046.8398" y1="898" y2="898"/><line style="stroke:#181818;stroke-width:0.5;" x1="811.5" x2="1046.8398" y1="906" y2="906"/><ellipse cx="821.5" cy="919.6484" fill="#84BE84" rx="3" ry="3" style="stroke:#038048;stroke-width:1;"/><text fill="#000000" font-family="sans-serif" font-size="14" lengthAdjust="spacing" textLength="134.9277" x="830.5" y="922.9951">add(T toAdd) : void</text><ellipse cx="821.5" cy="935.9453" fill="#84BE84" rx="3" ry="3" style="stroke:#038048;stroke-width:1;"/><text fill="#000000" font-family="sans-serif" font-size="14" lengthAdjust="spacing" textLength="211.3398" x="830.5" y="939.292">modify(T old, T newObj) : void</text><ellipse cx="821.5" cy="952.2422" fill="#84BE84" rx="3" ry="3" style="stroke:#038048;stroke-width:1;"/><text fill="#000000" font-family="sans-serif" font-size="14" lengthAdjust="spacing" textLength="192.1377" x="830.5" y="955.5889">remove(T toRemove) : void</text><ellipse cx="821.5" cy="968.5391" fill="#84BE84" rx="3" ry="3" style="stroke:#038048;stroke-width:1;"/><text fill="#000000" font-family="sans-serif" font-size="14" lengthAdjust="spacing" textLength="209.1865" x="830.5" y="971.8857">isUnique(T toVerify) : boolean</text><ellipse cx="821.5" cy="984.8359" fill="#84BE84" rx="3" ry="3" style="stroke:#038048;stroke-width:1;"/><text fill="#000000" font-family="sans-serif" font-size="14" lengthAdjust="spacing" textLength="186.7578" x="830.5" y="988.1826">getRegisterList() : List&lt;T&gt;</text></g><!--class BookInsertPopupController--><g class="entity" data-entity="BookInsertPopupController" data-source-line="6" data-uid="ent0007" id="entity_BookInsertPopupController"><rect fill="#F1F1F1" height="113.1875" rx="2.5" ry="2.5" style="stroke:#181818;stroke-width:0.5;" width="870.3477" x="7" y="497.5"/><ellipse cx="344.0117" cy="513.5" fill="#ADD1B2" rx="11" ry="11" style="stroke:#181818;stroke-width:1;"/><path d="M346.9805,519.1406 Q346.4023,519.4375 345.7617,519.5781 Q345.1211,519.7344 344.418,519.7344 Q341.918,519.7344 340.5898,518.0938 Q339.2773,516.4375 339.2773,513.3125 Q339.2773,510.1875 340.5898,508.5313 Q341.918,506.875 344.418,506.875 Q345.1211,506.875 345.7617,507.0313 Q346.418,507.1875 346.9805,507.4844 L346.9805,510.2031 Q346.3555,509.625 345.7617,509.3594 Q345.168,509.0781 344.543,509.0781 Q343.1992,509.0781 342.5117,510.1563 Q341.8242,511.2188 341.8242,513.3125 Q341.8242,515.4063 342.5117,516.4844 Q343.1992,517.5469 344.543,517.5469 Q345.168,517.5469 345.7617,517.2813 Q346.3555,517 346.9805,516.4219 L346.9805,519.1406 Z " fill="#000000"/><text fill="#000000" font-family="sans-serif" font-size="14" lengthAdjust="spacing" textLength="187.8242" x="364.5117" y="518.3467">BookInsertPopupController</text><line style="stroke:#181818;stroke-width:0.5;" x1="8" x2="876.3477" y1="529.5" y2="529.5"/><rect fill="none" height="6" style="stroke:#C82930;stroke-width:1;" width="6" x="15" y="540.1484"/><text fill="#000000" font-family="sans-serif" font-size="14" lengthAdjust="spacing" textLength="306.0244" x="27" y="546.4951">bookRegisterAdder : RegisterAdder&lt;Book&gt;</text><rect fill="none" height="6" style="stroke:#C82930;stroke-width:1;" width="6" x="15" y="556.4453"/><text fill="#000000" font-family="sans-serif" font-size="14" lengthAdjust="spacing" textLength="349.0088" x="27" y="562.792">bookRegisterValidator : RegisterValidator&lt;Book&gt;</text><line style="stroke:#181818;stroke-width:0.5;" x1="8" x2="876.3477" y1="570.0938" y2="570.0938"/><ellipse cx="18" cy="583.7422" fill="#84BE84" rx="3" ry="3" style="stroke:#038048;stroke-width:1;"/><text fill="#000000" font-family="sans-serif" font-size="14" lengthAdjust="spacing" textLength="844.3477" x="27" y="587.0889">BookInsertPopupController(RegisterAdder&lt;Book&gt; bookRegisterAdder, RegisterValidator&lt;Book&gt; bookRegisterValidator)</text><ellipse cx="18" cy="600.0391" fill="#84BE84" rx="3" ry="3" style="stroke:#038048;stroke-width:1;"/><text fill="#000000" font-family="sans-serif" font-size="14" lengthAdjust="spacing" textLength="112.5195" x="27" y="603.3857">initialize() : void</text></g><!--class BookModifyPopupController--><g class="entity" data-entity="BookModifyPopupController" data-source-line="7" data-uid="ent0010" id="entity_BookModifyPopupController"><rect fill="#F1F1F1" height="113.1875" rx="2.5" ry="2.5" style="stroke:#181818;stroke-width:0.5;" width="703.9336" x="1429" y="497.5"/><ellipse cx="1679.5645" cy="513.5" fill="#ADD1B2" rx="11" ry="11" style="stroke:#181818;stroke-width:1;"/><path d="M1682.5332,519.1406 Q1681.9551,519.4375 1681.3145,519.5781 Q1680.6738,519.7344 1679.9707,519.7344 Q1677.4707,519.7344 1676.1426,518.0938 Q1674.8301,516.4375 1674.8301,513.3125 Q1674.8301,510.1875 1676.1426,508.5313 Q1677.4707,506.875 1679.9707,506.875 Q1680.6738,506.875 1681.3145,507.0313 Q1681.9707,507.1875 1682.5332,507.4844 L1682.5332,510.2031 Q1681.9082,509.625 1681.3145,509.3594 Q1680.7207,509.0781 1680.0957,509.0781 Q1678.752,509.0781 1678.0645,510.1563 Q1677.377,511.2188 1677.377,513.3125 Q1677.377,515.4063 1678.0645,516.4844 Q1678.752,517.5469 1680.0957,517.5469 Q1680.7207,517.5469 1681.3145,517.2813 Q1681.9082,517 1682.5332,516.4219 L1682.5332,519.1406 Z " fill="#000000"/><text fill="#000000" font-family="sans-serif" font-size="14" lengthAdjust="spacing" textLength="194.3047" x="1700.0645" y="518.3467">BookModifyPopupController</text><line style="stroke:#181818;stroke-width:0.5;" x1="1430" x2="2131.9336" y1="529.5" y2="529.5"/><rect fill="none" height="6" style="stroke:#C82930;stroke-width:1;" width="6" x="1437" y="540.1484"/><text fill="#000000" font-family="sans-serif" font-size="14" lengthAdjust="spacing" textLength="335.8018" x="1449" y="546.4951">bookRegisterModifier : RegisterModifier&lt;Book&gt;</text><rect fill="none" height="6" style="stroke:#C82930;stroke-width:1;" width="6" x="1437" y="556.4453"/><text fill="#000000" font-family="sans-serif" font-size="14" lengthAdjust="spacing" textLength="146.3369" x="1449" y="562.792">bookToModify : Book</text><line style="stroke:#181818;stroke-width:0.5;" x1="1430" x2="2131.9336" y1="570.0938" y2="570.0938"/><ellipse cx="1440" cy="583.7422" fill="#84BE84" rx="3" ry="3" style="stroke:#038048;stroke-width:1;"/><text fill="#000000" font-family="sans-serif" font-size="14" lengthAdjust="spacing" textLength="677.9336" x="1449" y="587.0889">BookModifyPopupController(RegisterModifier&lt;Book&gt; bookRegisterModifier, Book bookToModify)</text><ellipse cx="1440" cy="600.0391" fill="#84BE84" rx="3" ry="3" style="stroke:#038048;stroke-width:1;"/><text fill="#000000" font-family="sans-serif" font-size="14" lengthAdjust="spacing" textLength="112.5195" x="1449" y="603.3857">initialize() : void</text></g><!--class RegisterAdder<T>--><g class="entity" data-entity="RegisterAdder.T." data-source-line="9" data-uid="ent0012" id="entity_RegisterAdder.T."><rect fill="#F1F1F1" height="64.2969" rx="2.5" ry="2.5" style="stroke:#181818;stroke-width:0.5;" width="164.002" x="360" y="145.5"/><ellipse cx="375" cy="161.5" fill="#B4A7E5" rx="11" ry="11" style="stroke:#181818;stroke-width:1;"/><path d="M370.9219,157.2656 L370.9219,155.1094 L378.3125,155.1094 L378.3125,157.2656 L375.8438,157.2656 L375.8438,165.3438 L378.3125,165.3438 L378.3125,167.5 L370.9219,167.5 L370.9219,165.3438 L373.3906,165.3438 L373.3906,157.2656 L370.9219,157.2656 Z " fill="#000000"/><text fill="#000000" font-family="sans-serif" font-size="14" font-style="italic" lengthAdjust="spacing" textLength="132.002" x="389" y="166.3467">RegisterAdder&lt;T&gt;</text><line style="stroke:#181818;stroke-width:0.5;" x1="361" x2="523.002" y1="177.5" y2="177.5"/><line style="stroke:#181818;stroke-width:0.5;" x1="361" x2="523.002" y1="185.5" y2="185.5"/><ellipse cx="371" cy="199.1484" fill="#84BE84" rx="3" ry="3" style="stroke:#038048;stroke-width:1;"/><text fill="#000000" font-family="sans-serif" font-size="14" lengthAdjust="spacing" textLength="134.9277" x="380" y="202.4951">add(T toAdd) : void</text></g><!--class RegisterValidator<T>--><g class="entity" data-entity="RegisterValidator.T." data-source-line="10" data-uid="ent0015" id="entity_RegisterValidator.T."><rect fill="#F1F1F1" height="64.2969" rx="2.5" ry="2.5" style="stroke:#181818;stroke-width:0.5;" width="235.1865" x="324.5" y="898.5"/><ellipse cx="361.8616" cy="914.5" fill="#B4A7E5" rx="11" ry="11" style="stroke:#181818;stroke-width:1;"/><path d="M357.7834,910.2656 L357.7834,908.1094 L365.1741,908.1094 L365.1741,910.2656 L362.7053,910.2656 L362.7053,918.3438 L365.1741,918.3438 L365.1741,920.5 L357.7834,920.5 L357.7834,918.3438 L360.2522,918.3438 L360.2522,910.2656 L357.7834,910.2656 Z " fill="#000000"/><text fill="#000000" font-family="sans-serif" font-size="14" font-style="italic" lengthAdjust="spacing" textLength="153.4941" x="380.8308" y="919.3467">RegisterValidator&lt;T&gt;</text><line style="stroke:#181818;stroke-width:0.5;" x1="325.5" x2="558.6865" y1="930.5" y2="930.5"/><line style="stroke:#181818;stroke-width:0.5;" x1="325.5" x2="558.6865" y1="938.5" y2="938.5"/><ellipse cx="335.5" cy="952.1484" fill="#84BE84" rx="3" ry="3" style="stroke:#038048;stroke-width:1;"/><text fill="#000000" font-family="sans-serif" font-size="14" lengthAdjust="spacing" textLength="209.1865" x="344.5" y="955.4951">isUnique(T toVerify) : boolean</text></g><!--class BookPopupController--><g class="entity" data-entity="BookPopupController" data-source-line="11" data-uid="ent0017" id="entity_BookPopupController"><rect fill="#F1F1F1" height="341.3438" rx="2.5" ry="2.5" style="stroke:#181818;stroke-width:0.5;" width="586.5264" x="799.5" y="7"/><ellipse cx="1014.6782" cy="23" fill="#A9DCDF" rx="11" ry="11" style="stroke:#181818;stroke-width:1;"/><path d="M1014.7876,18.3438 L1013.6313,23.4219 L1015.9595,23.4219 L1014.7876,18.3438 Z M1013.3032,16.1094 L1016.2876,16.1094 L1019.647,28.5 L1017.1938,28.5 L1016.4282,25.4375 L1013.147,25.4375 L1012.397,28.5 L1009.9595,28.5 L1013.3032,16.1094 Z " fill="#000000"/><text fill="#000000" font-family="sans-serif" font-size="14" font-style="italic" lengthAdjust="spacing" textLength="147.6699" x="1035.1782" y="27.8467">BookPopupController</text><line style="stroke:#181818;stroke-width:0.5;" x1="800.5" x2="1385.0264" y1="39" y2="39"/><polygon fill="none" points="810.5,47.6484,814.5,51.6484,810.5,55.6484,806.5,51.6484" style="stroke:#B38D22;stroke-width:1;"/><text fill="#000000" font-family="sans-serif" font-size="14" lengthAdjust="spacing" textLength="121.8643" x="819.5" y="55.9951">titleTF : TextField</text><polygon fill="none" points="810.5,63.9453,814.5,67.9453,810.5,71.9453,806.5,67.9453" style="stroke:#B38D22;stroke-width:1;"/><text fill="#000000" font-family="sans-serif" font-size="14" lengthAdjust="spacing" textLength="163.584" x="819.5" y="72.292">authorsListVBox : VBox</text><polygon fill="none" points="810.5,80.2422,814.5,84.2422,810.5,88.2422,806.5,84.2422" style="stroke:#B38D22;stroke-width:1;"/><text fill="#000000" font-family="sans-serif" font-size="14" lengthAdjust="spacing" textLength="150.5342" x="819.5" y="88.5889">Author1TF : TextField</text><polygon fill="none" points="810.5,96.5391,814.5,100.5391,810.5,104.5391,806.5,100.5391" style="stroke:#B38D22;stroke-width:1;"/><text fill="#000000" font-family="sans-serif" font-size="14" lengthAdjust="spacing" textLength="176.5859" x="819.5" y="104.8857">publishYearTF : TextField</text><polygon fill="none" points="810.5,112.8359,814.5,116.8359,810.5,120.8359,806.5,116.8359" style="stroke:#B38D22;stroke-width:1;"/><text fill="#000000" font-family="sans-serif" font-size="14" lengthAdjust="spacing" textLength="139.4395" x="819.5" y="121.1826">copiesTF : TextField</text><polygon fill="none" points="810.5,129.1328,814.5,133.1328,810.5,137.1328,806.5,133.1328" style="stroke:#B38D22;stroke-width:1;"/><text fill="#000000" font-family="sans-serif" font-size="14" lengthAdjust="spacing" textLength="164.459" x="819.5" y="137.4795">bookCodeTF : TextField</text><polygon fill="none" points="810.5,145.4297,814.5,149.4297,810.5,153.4297,806.5,149.4297" style="stroke:#B38D22;stroke-width:1;"/><text fill="#000000" font-family="sans-serif" font-size="14" lengthAdjust="spacing" textLength="137.8262" x="819.5" y="153.7764">confirmBtn : Button</text><polygon fill="none" points="810.5,161.7266,814.5,165.7266,810.5,169.7266,806.5,165.7266" style="stroke:#B38D22;stroke-width:1;"/><text fill="#000000" font-family="sans-serif" font-size="14" lengthAdjust="spacing" textLength="129.8281" x="819.5" y="170.0732">cancelBtn : Button</text><polygon fill="none" points="810.5,178.0234,814.5,182.0234,810.5,186.0234,806.5,182.0234" style="stroke:#B38D22;stroke-width:1;"/><text fill="#000000" font-family="sans-serif" font-size="14" lengthAdjust="spacing" textLength="165.2588" x="819.5" y="186.3701">addAuthorsBtn : Button</text><polygon fill="none" points="810.5,194.3203,814.5,198.3203,810.5,202.3203,806.5,198.3203" style="stroke:#B38D22;stroke-width:1;"/><text fill="#000000" font-family="sans-serif" font-size="14" lengthAdjust="spacing" textLength="273.4307" x="819.5" y="202.667">dynamicAuthorFields : List&lt;TextField&gt;</text><rect fill="none" height="6" style="stroke:#C82930;stroke-width:1;" width="6" x="807.5" y="212.6172"/><text fill="#000000" font-family="sans-serif" font-size="14" lengthAdjust="spacing" textLength="137.5869" x="819.5" y="218.9639">removeImg : Image</text><line style="stroke:#181818;stroke-width:0.5;" x1="800.5" x2="1385.0264" y1="226.2656" y2="226.2656"/><ellipse cx="810.5" cy="239.9141" fill="#84BE84" rx="3" ry="3" style="stroke:#038048;stroke-width:1;"/><text fill="#000000" font-family="sans-serif" font-size="14" lengthAdjust="spacing" textLength="112.5195" x="819.5" y="243.2607">initialize() : void</text><rect fill="#F24D5C" height="6" style="stroke:#C82930;stroke-width:1;" width="6" x="807.5" y="253.2109"/><text fill="#000000" font-family="sans-serif" font-size="14" lengthAdjust="spacing" textLength="284.9697" x="819.5" y="259.5576">createAuthorRow(int authorNum) : HBox</text><polygon fill="#FFFF44" points="810.5,267.5078,814.5,271.5078,810.5,275.5078,806.5,271.5078" style="stroke:#B38D22;stroke-width:1;"/><text fill="#000000" font-family="sans-serif" font-size="14" lengthAdjust="spacing" textLength="259.7998" x="819.5" y="275.8545">getAuthorsListPopup() : List&lt;String&gt;</text><rect fill="#F24D5C" height="6" style="stroke:#C82930;stroke-width:1;" width="6" x="807.5" y="285.8047"/><text fill="#000000" font-family="sans-serif" font-size="14" lengthAdjust="spacing" textLength="263.4707" x="819.5" y="292.1514">addAuthors(ActionEvent event) : void</text><ellipse cx="810.5" cy="305.1016" fill="#84BE84" rx="3" ry="3" style="stroke:#038048;stroke-width:1;"/><text fill="#000000" font-family="sans-serif" font-size="14" font-style="italic" lengthAdjust="spacing" textLength="304.0967" x="819.5" y="308.4482">confirmBtnAction(ActionEvent event) : void</text><ellipse cx="810.5" cy="321.3984" fill="#84BE84" rx="3" ry="3" style="stroke:#038048;stroke-width:1;"/><text fill="#000000" font-family="sans-serif" font-size="14" lengthAdjust="spacing" textLength="296.0986" x="819.5" y="324.7451">cancelBtnAction(ActionEvent event) : void</text><polygon fill="#FFFF44" points="810.5,332.6953,814.5,336.6953,810.5,340.6953,806.5,336.6953" style="stroke:#B38D22;stroke-width:1;"/><text fill="#000000" font-family="sans-serif" font-size="14" lengthAdjust="spacing" textLength="560.5264" x="819.5" y="341.042">showAlert(Alert.AlertType type, String title, String header, String content) : void</text></g><!--class RegisterModifier<T>--><g class="entity" data-entity="RegisterModifier.T." data-source-line="14" data-uid="ent0020" id="entity_RegisterModifier.T."><rect fill="#F1F1F1" height="64.2969" rx="2.5" ry="2.5" style="stroke:#181818;stroke-width:0.5;" width="237.3398" x="1662.5" y="145.5"/><ellipse cx="1703.8021" cy="161.5" fill="#B4A7E5" rx="11" ry="11" style="stroke:#181818;stroke-width:1;"/><path d="M1699.724,157.2656 L1699.724,155.1094 L1707.1146,155.1094 L1707.1146,157.2656 L1704.6459,157.2656 L1704.6459,165.3438 L1707.1146,165.3438 L1707.1146,167.5 L1699.724,167.5 L1699.724,165.3438 L1702.1928,165.3438 L1702.1928,157.2656 L1699.724,157.2656 Z " fill="#000000"/><text fill="#000000" font-family="sans-serif" font-size="14" font-style="italic" lengthAdjust="spacing" textLength="146.8906" x="1723.6471" y="166.3467">RegisterModifier&lt;T&gt;</text><line style="stroke:#181818;stroke-width:0.5;" x1="1663.5" x2="1898.8398" y1="177.5" y2="177.5"/><line style="stroke:#181818;stroke-width:0.5;" x1="1663.5" x2="1898.8398" y1="185.5" y2="185.5"/><ellipse cx="1673.5" cy="199.1484" fill="#84BE84" rx="3" ry="3" style="stroke:#038048;stroke-width:1;"/><text fill="#000000" font-family="sans-serif" font-size="14" lengthAdjust="spacing" textLength="211.3398" x="1682.5" y="202.4951">modify(T old, T newObj) : void</text></g><!--class Book--><g class="entity" data-entity="Book" data-source-line="16" data-uid="ent0025" id="entity_Book"><rect fill="#F1F1F1" height="341.3438" rx="2.5" ry="2.5" style="stroke:#181818;stroke-width:0.5;" width="696.2637" x="1433" y="760"/><ellipse cx="1759.4604" cy="776" fill="#ADD1B2" rx="11" ry="11" style="stroke:#181818;stroke-width:1;"/><path d="M1762.4292,781.6406 Q1761.8511,781.9375 1761.2104,782.0781 Q1760.5698,782.2344 1759.8667,782.2344 Q1757.3667,782.2344 1756.0386,780.5938 Q1754.7261,778.9375 1754.7261,775.8125 Q1754.7261,772.6875 1756.0386,771.0313 Q1757.3667,769.375 1759.8667,769.375 Q1760.5698,769.375 1761.2104,769.5313 Q1761.8667,769.6875 1762.4292,769.9844 L1762.4292,772.7031 Q1761.8042,772.125 1761.2104,771.8594 Q1760.6167,771.5781 1759.9917,771.5781 Q1758.6479,771.5781 1757.9604,772.6563 Q1757.2729,773.7188 1757.2729,775.8125 Q1757.2729,777.9063 1757.9604,778.9844 Q1758.6479,780.0469 1759.9917,780.0469 Q1760.6167,780.0469 1761.2104,779.7813 Q1761.8042,779.5 1762.4292,778.9219 L1762.4292,781.6406 Z " fill="#000000"/><text fill="#000000" font-family="sans-serif" font-size="14" lengthAdjust="spacing" textLength="34.8428" x="1779.9604" y="780.8467">Book</text><line style="stroke:#181818;stroke-width:0.5;" x1="1434" x2="2128.2637" y1="792" y2="792"/><rect fill="none" height="6" style="stroke:#C82930;stroke-width:1;" width="6" x="1441" y="802.6484"/><text fill="#000000" font-family="sans-serif" font-size="14" lengthAdjust="spacing" textLength="82.7695" x="1453" y="808.9951">title : String</text><rect fill="none" height="6" style="stroke:#C82930;stroke-width:1;" width="6" x="1441" y="818.9453"/><text fill="#000000" font-family="sans-serif" font-size="14" lengthAdjust="spacing" textLength="156.7617" x="1453" y="825.292">authors : List&lt;String&gt;</text><rect fill="none" height="6" style="stroke:#C82930;stroke-width:1;" width="6" x="1441" y="835.2422"/><text fill="#000000" font-family="sans-serif" font-size="14" lengthAdjust="spacing" textLength="188.7061" x="1453" y="841.5889">bookId : String {readOnly}</text><rect fill="none" height="6" style="stroke:#C82930;stroke-width:1;" width="6" x="1441" y="851.5391"/><text fill="#000000" font-family="sans-serif" font-size="14" lengthAdjust="spacing" textLength="150.5752" x="1453" y="857.8857">publishmentYear : int</text><rect fill="none" height="6" style="stroke:#C82930;stroke-width:1;" width="6" x="1441" y="867.8359"/><text fill="#000000" font-family="sans-serif" font-size="14" lengthAdjust="spacing" textLength="142.085" x="1453" y="874.1826">availableCopies : int</text><line style="stroke:#181818;stroke-width:0.5;" x1="1434" x2="2128.2637" y1="881.4844" y2="881.4844"/><ellipse cx="1444" cy="895.1328" fill="#84BE84" rx="3" ry="3" style="stroke:#038048;stroke-width:1;"/><text fill="#000000" font-family="sans-serif" font-size="14" lengthAdjust="spacing" textLength="670.2637" x="1453" y="898.4795">Book(String title, List&lt;String&gt; authors, String bookId, int publishmentYear, int availableCopies)</text><ellipse cx="1444" cy="911.4297" fill="#84BE84" rx="3" ry="3" style="stroke:#038048;stroke-width:1;"/><text fill="#000000" font-family="sans-serif" font-size="14" lengthAdjust="spacing" textLength="119.7451" x="1453" y="914.7764">getTitle() : String</text><ellipse cx="1444" cy="927.7266" fill="#84BE84" rx="3" ry="3" style="stroke:#038048;stroke-width:1;"/><text fill="#000000" font-family="sans-serif" font-size="14" lengthAdjust="spacing" textLength="191.6729" x="1453" y="931.0732">getAuthors() : List&lt;String&gt;</text><ellipse cx="1444" cy="944.0234" fill="#84BE84" rx="3" ry="3" style="stroke:#038048;stroke-width:1;"/><text fill="#000000" font-family="sans-serif" font-size="14" lengthAdjust="spacing" textLength="137.1699" x="1453" y="947.3701">getBookId() : String</text><ellipse cx="1444" cy="960.3203" fill="#84BE84" rx="3" ry="3" style="stroke:#038048;stroke-width:1;"/><text fill="#000000" font-family="sans-serif" font-size="14" lengthAdjust="spacing" textLength="184.0439" x="1453" y="963.667">getPublishmentYear() : int</text><ellipse cx="1444" cy="976.6172" fill="#84BE84" rx="3" ry="3" style="stroke:#038048;stroke-width:1;"/><text fill="#000000" font-family="sans-serif" font-size="14" lengthAdjust="spacing" textLength="176.9961" x="1453" y="979.9639">getAvailableCopies() : int</text><ellipse cx="1444" cy="992.9141" fill="#84BE84" rx="3" ry="3" style="stroke:#038048;stroke-width:1;"/><text fill="#000000" font-family="sans-serif" font-size="14" lengthAdjust="spacing" textLength="328.5967" x="1453" y="996.2607">setAvailableCopies(int availableCopies  ) : void</text><ellipse cx="1444" cy="1009.2109" fill="#84BE84" rx="3" ry="3" style="stroke:#038048;stroke-width:1;"/><text fill="#000000" font-family="sans-serif" font-size="14" lengthAdjust="spacing" textLength="189.2598" x="1453" y="1012.5576">copy(Book newData) : void</text><ellipse cx="1444" cy="1025.5078" fill="#84BE84" rx="3" ry="3" style="stroke:#038048;stroke-width:1;"/><text fill="#000000" font-family="sans-serif" font-size="14" lengthAdjust="spacing" textLength="212.0781" x="1453" y="1028.8545">isAvailableForLoan() : boolean</text><rect fill="#F24D5C" height="6" style="stroke:#C82930;stroke-width:1;" width="6" x="1441" y="1038.8047"/><text fill="#000000" font-family="sans-serif" font-size="14" lengthAdjust="spacing" textLength="126.5195" x="1453" y="1045.1514">isValid() : boolean</text><rect fill="#F24D5C" height="6" style="stroke:#C82930;stroke-width:1;" width="6" x="1441" y="1055.1016"/><text fill="#000000" font-family="sans-serif" font-size="14" lengthAdjust="spacing" textLength="267.75" x="1453" y="1061.4482">isBookIdValid(String bookId) : boolean</text><rect fill="#F24D5C" height="6" style="stroke:#C82930;stroke-width:1;" width="6" x="1441" y="1071.3984"/><text fill="#000000" font-family="sans-serif" font-size="14" lengthAdjust="spacing" textLength="386.1895" x="1453" y="1077.7451">isPublishmentYearValid(int publishmentYear) : boolean</text><rect fill="#F24D5C" height="6" style="stroke:#C82930;stroke-width:1;" width="6" x="1441" y="1087.6953"/><text fill="#000000" font-family="sans-serif" font-size="14" lengthAdjust="spacing" textLength="370.6514" x="1453" y="1094.042">isAvailableCopiesValid(int availableCopies) : boolean</text></g><!--link BookRegisterController to SideBarController--><g class="link" data-entity-1="BookRegisterController" data-entity-2="SideBarController" data-source-line="4" data-uid="lnk4" id="link_BookRegisterController_SideBarController"><path codeLine="4" d="M1175.47,700.06 C1182.84,747.68 1189.8915,793.2207 1196.4115,835.3107" fill="none" id="BookRegisterController-to-SideBarController" style="stroke:#181818;stroke-width:1;"/><polygon fill="#181818" points="1197.33,841.24,1199.9051,831.7338,1196.5646,836.2989,1191.9994,832.9584,1197.33,841.24" style="stroke:#181818;stroke-width:1;"/><text fill="#000000" font-family="sans-serif" font-size="13" lengthAdjust="spacing" textLength="8.271" x="1168.4796" y="720.5159">1</text><text fill="#000000" font-family="sans-serif" font-size="13" lengthAdjust="spacing" textLength="8.271" x="1187.8882" y="830.2839">1</text></g><!--link BookRegisterController to Register<T>--><g class="link" data-entity-1="BookRegisterController" data-entity-2="Register.T." data-source-line="5" data-uid="lnk6" id="link_BookRegisterController_Register.T."><path codeLine="5" d="M1066.24,700.06 C1031.91,757.45 997.3196,815.2806 970.1496,860.7106" fill="none" id="BookRegisterController-to-Register&lt;T&gt;" style="stroke:#181818;stroke-width:1;"/><polygon fill="#181818" points="967.07,865.86,975.1224,860.1891,969.6364,861.5689,968.2566,856.0829,967.07,865.86" style="stroke:#181818;stroke-width:1;"/><text fill="#000000" font-family="sans-serif" font-size="13" lengthAdjust="spacing" textLength="8.271" x="1053.2761" y="720.5159">1</text><text fill="#000000" font-family="sans-serif" font-size="13" lengthAdjust="spacing" textLength="8.271" x="962.7926" y="855.0174">1</text></g><!--reverse link BookInsertPopupController to BookRegisterController--><g class="link" data-entity-1="BookInsertPopupController" data-entity-2="BookRegisterController" data-source-line="6" data-uid="lnk9" id="link_BookInsertPopupController_BookRegisterController"><path codeLine="6" d="M883,554 C899.62,554 910.24,554 926.86,554" fill="none" id="BookInsertPopupController-backto-BookRegisterController" style="stroke:#181818;stroke-width:1;stroke-dasharray:7,7;"/><polygon fill="#181818" points="877,554,886,558,882,554,886,550,877,554" style="stroke:#181818;stroke-width:1;"/></g><!--link BookRegisterController to BookModifyPopupController--><g class="link" data-entity-1="BookRegisterController" data-entity-2="BookModifyPopupController" data-source-line="7" data-uid="lnk11" id="link_BookRegisterController_BookModifyPopupController"><path codeLine="7" d="M1379.3,554 C1395.78,554 1406.25,554 1422.73,554" fill="none" id="BookRegisterController-to-BookModifyPopupController" style="stroke:#181818;stroke-width:1;stroke-dasharray:7,7;"/><polygon fill="#181818" points="1428.73,554,1419.73,550,1423.73,554,1419.73,558,1428.73,554" style="stroke:#181818;stroke-width:1;"/></g><!--reverse link RegisterAdder<T> to BookInsertPopupController--><g class="link" data-entity-1="RegisterAdder.T." data-entity-2="BookInsertPopupController" data-source-line="9" data-uid="lnk14" id="link_RegisterAdder.T._BookInsertPopupController"><path codeLine="9" d="M442,215.79 C442,279.16 442,417.44 442,497.28" fill="none" id="RegisterAdder&lt;T&gt;-backto-BookInsertPopupController" style="stroke:#181818;stroke-width:1;"/><polygon fill="#181818" points="442,209.79,438,218.79,442,214.79,446,218.79,442,209.79" style="stroke:#181818;stroke-width:1;"/><text fill="#000000" font-family="sans-serif" font-size="13" lengthAdjust="spacing" textLength="8.271" x="433.2027" y="230.0467">1</text><text fill="#000000" font-family="sans-serif" font-size="13" lengthAdjust="spacing" textLength="8.271" x="433.5078" y="486.5167">1</text></g><!--link BookInsertPopupController to RegisterValidator<T>--><g class="link" data-entity-1="BookInsertPopupController" data-entity-2="RegisterValidator.T." data-source-line="10" data-uid="lnk16" id="link_BookInsertPopupController_RegisterValidator.T."><path codeLine="10" d="M442,610.66 C442,690.54 442,829 442,892.33" fill="none" id="BookInsertPopupController-to-RegisterValidator&lt;T&gt;" style="stroke:#181818;stroke-width:1;"/><polygon fill="#181818" points="442,898.33,446,889.33,442,893.33,438,889.33,442,898.33" style="stroke:#181818;stroke-width:1;"/><text fill="#000000" font-family="sans-serif" font-size="13" lengthAdjust="spacing" textLength="8.271" x="433.4826" y="630.9439">1</text><text fill="#000000" font-family="sans-serif" font-size="13" lengthAdjust="spacing" textLength="8.271" x="433.1837" y="887.198">1</text></g><!--reverse link BookPopupController to BookInsertPopupController--><g class="link" data-entity-1="BookPopupController" data-entity-2="BookInsertPopupController" data-source-line="11" data-uid="lnk19" id="link_BookPopupController_BookInsertPopupController"><path codeLine="11" d="M783.7976,356.3757 C689.8776,410.4057 607.99,457.51 538.6,497.43" fill="none" id="BookPopupController-backto-BookInsertPopupController" style="stroke:#181818;stroke-width:1;"/><polygon fill="none" points="799.4,347.4,780.8056,351.1749,786.7895,361.5765,799.4,347.4" style="stroke:#181818;stroke-width:1;"/></g><!--reverse link RegisterModifier<T> to BookModifyPopupController--><g class="link" data-entity-1="RegisterModifier.T." data-entity-2="BookModifyPopupController" data-source-line="14" data-uid="lnk22" id="link_RegisterModifier.T._BookModifyPopupController"><path codeLine="14" d="M1781,215.79 C1781,279.16 1781,417.44 1781,497.28" fill="none" id="RegisterModifier&lt;T&gt;-backto-BookModifyPopupController" style="stroke:#181818;stroke-width:1;"/><polygon fill="#181818" points="1781,209.79,1777,218.79,1781,214.79,1785,218.79,1781,209.79" style="stroke:#181818;stroke-width:1;"/><text fill="#000000" font-family="sans-serif" font-size="13" lengthAdjust="spacing" textLength="8.271" x="1772.1679" y="230.0467">1</text><text fill="#000000" font-family="sans-serif" font-size="13" lengthAdjust="spacing" textLength="8.271" x="1772.5331" y="486.5167">1</text></g><!--reverse link BookPopupController to BookModifyPopupController--><g class="link" data-entity-1="BookPopupController" data-entity-2="BookModifyPopupController" data-source-line="15" data-uid="lnk24" id="link_BookPopupController_BookModifyPopupController"><path codeLine="15" d="M1402.5794,347.016 C1506.8494,403.776 1601.61,455.35 1679.02,497.49" fill="none" id="BookPopupController-backto-BookModifyPopupController" style="stroke:#181818;stroke-width:1;"/><polygon fill="none" points="1386.77,338.41,1399.7108,352.2858,1405.4481,341.7461,1386.77,338.41" style="stroke:#181818;stroke-width:1;"/></g><!--link BookModifyPopupController to Book--><g class="link" data-entity-1="BookModifyPopupController" data-entity-2="Book" data-source-line="16" data-uid="lnk26" id="link_BookModifyPopupController_Book"><path codeLine="16" d="M1781,610.66 C1781,650.39 1781,700.11 1781,753.87" fill="none" id="BookModifyPopupController-to-Book" style="stroke:#181818;stroke-width:1;"/><polygon fill="#181818" points="1781,759.87,1785,750.87,1781,754.87,1777,750.87,1781,759.87" style="stroke:#181818;stroke-width:1;"/><text fill="#000000" font-family="sans-serif" font-size="13" lengthAdjust="spacing" textLength="8.271" x="1772.5091" y="630.9439">1</text><text fill="#000000" font-family="sans-serif" font-size="13" lengthAdjust="spacing" textLength="8.271" x="1772.8189" y="748.8606">1</text></g><!--SRC=[bLVBRjiu5DthAuXaKHLrWdOnco8m47icQ81sMYIQ0BEafHkRhKHgI2gfn_M_3vyIHL5nnWlRyhddldWVjFX1Q8ivRX1b5GXeqM_lipSxKW5geDa05rcsOkp77Mo9aC3NZ4hEwXeuEljmXYwgYwNvSdQlA2iSu6Ulutc1gs8voxYiBvT8OxTK09VVMDkr0ppBuexrXLNaSH-pibc5riCkzl2wgW8tNs1EOdl0DQcmPAVOokOlw_B4sMmsa1blZIm974wJvqsUCEY3r6APUPKr5i8yeqE6rEi2II9hG1_HlUI4RjsFk9CxneNw-RFozCfYImTkT7Agde8E773rbTRxenDekqrDnAu1Aly6p9KaeT9hViAanfiQrgmb81ncm7V6iTnfDNujHlQzMmjlsNgoq2fYe_R7oDfRPsSBij3gyxVZm0roROqOR1AzaJ3LKIN9tyPU61aVlDK-zYWI45E1H1W8QTOJ8vMZbQpTv-PKAJp_ZYMES29whJUCVsQO6higVJLWwaw62DC3ISH6RF5HxbF2KGuiAt54AMuK_S2DJpBW7hDCIG1_n2MCXvKhydS8LrLU8CdKV8XIqvZsKI2hLI4LEe5VDzyZ8GuDUmAZuSvydUJtBqh-wQp40t2bCGxE7BxtJPVLK5_5SYQ4Vfgz64UQ6ywMdduYsBIcqMJiLPq8-UXdpMJdz8D7nRAIL75MdPJCbu1GXL7k5AEuKL01F-KDWRfog3s81Cr6DWA2dZEMJC83ae7k1tC67njqX-Pi9XLyyOP3z1XEsiJQEmIJjD15hIthpmS2prUQj0odyxfklC2QrLr3ZOYVWilnp7wTSDIASwHRLGvRuEF9_qftnWtxFopuX2dvlfd3d8X9INsSbbcuKgOdaFUAxsLNgIGiaR1VFE1N1Q544jK1_zfbqJVz1M8jqE2Ea8A3tHp3jf9lE6kynJmQAbshkWxwieWLk4RH6pDiOBmHakDIeg40uxk1hRvpMrk9DZltfQIdqyEA_LGI-iE1TZz-I19TMUcIIkAbgOKaf4z-hUwtCppwI7WpQNo5O5f2dG3KU76RF05MUueRKbe1OwY_w_IcbwEJkcssIkAsmLl8JfP6gMv44gpsE_Pi5vXv-hDhjEod8Pt3ZKER7sebSV4QGiglIqaO_UD9LIm2_HuLpy7NmJ78dIMTvFOfVPNyEH8xzdoj2alcvltIl1Vx5f1KR_rbpLtetDDEtHc1zu_AIHbg7atGz4tya1WPPcC6SyDkq71uXDBzPWiOmxQph62C9Dt84wQcBYtczAVzUMduZ3AJllodCkFl0q6e_HKXpa_1h5xTDUQlmv23fC4yhJ5fVs7_VOHcNepsFm00]--></g></svg>