<svg xmlns="http://www.w3.org/2000/svg" xmlns:xlink="http://www.w3.org/1999/xlink" contentStyleType="text/css" data-diagram-type="DESCRIPTION" height="300px" preserveAspectRatio="none" style="width:745px;height:300px;background:#FFFFFF;" version="1.1" viewBox="0 0 745 300" width="745px" zoomAndPan="magnify"><defs/><g><!--entity Admin--><g class="entity" data-entity="Admin" data-source-line="1" data-uid="ent0002" id="entity_Admin"><ellipse cx="437.1221" cy="14" fill="#F1F1F1" rx="8" ry="8" style="stroke:#181818;stroke-width:0.5;"/><path d="M437.1221,22 L437.1221,49 M424.1221,30 L450.1221,30 M437.1221,49 L424.1221,64 M437.1221,49 L450.1221,64" fill="none" style="stroke:#181818;stroke-width:0.5;"/><text fill="#000000" font-family="sans-serif" font-size="14" lengthAdjust="spacing" textLength="44.8643" x="414.69" y="78.4951">Admin</text></g><!--entity UC1--><g class="entity" data-entity="UC1" data-source-line="5" data-uid="ent0003" id="entity_UC1"><ellipse cx="86.1216" cy="161.2243" fill="#F1F1F1" rx="80.1216" ry="18.4243" style="stroke:#181818;stroke-width:0.5;"/><text fill="#000000" font-family="sans-serif" font-size="14" lengthAdjust="spacing" textLength="130.9629" x="20.6402" y="165.8728">Registrazione libro</text></g><!--entity UC2--><g class="entity" data-entity="UC2" data-source-line="7" data-uid="ent0004" id="entity_UC2"><ellipse cx="266.123" cy="161.2166" fill="#F1F1F1" rx="65.183" ry="15.4366" style="stroke:#181818;stroke-width:0.5;"/><text fill="#000000" font-family="sans-serif" font-size="14" lengthAdjust="spacing" textLength="93.9531" x="219.1464" y="165.865">Modifica libro</text></g><!--entity UC3--><g class="entity" data-entity="UC3" data-source-line="9" data-uid="ent0005" id="entity_UC3"><ellipse cx="437.1245" cy="161.2229" fill="#F1F1F1" rx="70.8645" ry="16.5729" style="stroke:#181818;stroke-width:0.5;"/><text fill="#000000" font-family="sans-serif" font-size="14" lengthAdjust="spacing" textLength="108.5479" x="382.8505" y="165.8713">Rimozione libro</text></g><!--entity UC4--><g class="entity" data-entity="UC4" data-source-line="11" data-uid="ent0006" id="entity_UC4"><ellipse cx="517.1182" cy="275.6076" fill="#F1F1F1" rx="82.8382" ry="18.9676" style="stroke:#181818;stroke-width:0.5;"/><text fill="#000000" font-family="sans-serif" font-size="14" lengthAdjust="spacing" textLength="137.3203" x="448.4581" y="280.2561">Visualizzazione libri</text></g><!--entity UC5--><g class="entity" data-entity="UC5" data-source-line="13" data-uid="ent0007" id="entity_UC5"><ellipse cx="677.1153" cy="161.2191" fill="#F1F1F1" rx="62.7453" ry="14.9491" style="stroke:#181818;stroke-width:0.5;"/><text fill="#000000" font-family="sans-serif" font-size="14" lengthAdjust="spacing" textLength="87.3975" x="633.4166" y="165.8675">Ricerca libro</text></g><!--link Admin to UC1--><g class="link" data-entity-1="Admin" data-entity-2="UC1" data-link-type="dependency" data-source-line="17" data-uid="lnk8" id="link_Admin_UC1"><path d="M414.36,52.14 C357.09,71 211.8991,118.8037 136.2991,143.6937" fill="none" id="Admin-to-UC1" style="stroke:#181818;stroke-width:1;"/><polygon fill="#181818" points="130.6,145.57,140.3995,146.5549,135.3492,144.0064,137.8977,138.9561,130.6,145.57" style="stroke:#181818;stroke-width:1;"/></g><!--link Admin to UC2--><g class="link" data-entity-1="Admin" data-entity-2="UC2" data-link-type="dependency" data-source-line="19" data-uid="lnk9" id="link_Admin_UC2"><path d="M414.41,59.99 C380.98,82.59 323.9708,121.1198 291.7508,142.8998" fill="none" id="Admin-to-UC2" style="stroke:#181818;stroke-width:1;"/><polygon fill="#181818" points="286.78,146.26,296.4764,144.5336,290.9224,143.4599,291.9961,137.9058,286.78,146.26" style="stroke:#181818;stroke-width:1;"/></g><!--link Admin to UC3--><g class="link" data-entity-1="Admin" data-entity-2="UC3" data-link-type="dependency" data-source-line="21" data-uid="lnk10" id="link_Admin_UC3"><path d="M437.12,82.17 C437.12,103.26 437.12,122.48 437.12,138.42" fill="none" id="Admin-to-UC3" style="stroke:#181818;stroke-width:1;"/><polygon fill="#181818" points="437.12,144.42,441.12,135.42,437.12,139.42,433.12,135.42,437.12,144.42" style="stroke:#181818;stroke-width:1;"/></g><!--link Admin to UC4--><g class="link" data-entity-1="Admin" data-entity-2="UC4" data-link-type="dependency" data-source-line="23" data-uid="lnk11" id="link_Admin_UC4"><path d="M459.92,63.65 C480.22,81.84 509.1,111.15 525.12,142.8 C542.19,176.5 547.18,189.73 539.12,226.64 C536.85,237.03 534.8642,242.5143 530.3742,251.2443" fill="none" id="Admin-to-UC4" style="stroke:#181818;stroke-width:1;"/><polygon fill="#181818" points="527.63,256.58,535.3034,250.406,529.9169,252.1336,528.1892,246.747,527.63,256.58" style="stroke:#181818;stroke-width:1;"/></g><!--link Admin to UC5--><g class="link" data-entity-1="Admin" data-entity-2="UC5" data-link-type="dependency" data-source-line="25" data-uid="lnk12" id="link_Admin_UC5"><path d="M459.98,54.26 C489.59,66.87 542.7,89.94 587.12,111.8 C610.05,123.08 630.4149,134.0764 648.4349,144.0864" fill="none" id="Admin-to-UC5" style="stroke:#181818;stroke-width:1;"/><polygon fill="#181818" points="653.68,147,647.7548,139.1329,649.3091,144.572,643.87,146.1263,653.68,147" style="stroke:#181818;stroke-width:1;"/></g><!--link UC3 to UC4--><g class="link" data-entity-1="UC3" data-entity-2="UC4" data-link-type="dependency" data-source-line="33" data-uid="lnk13" id="link_UC3_UC4"><path d="M443.62,178.07 C449.54,191.6 459.03,211.25 470.12,226.64 C478.03,237.62 484.0845,244.3523 493.0845,252.9623" fill="none" id="UC3-to-UC4" style="stroke:#181818;stroke-width:1;stroke-dasharray:7,7;"/><polygon fill="#181818" points="497.42,257.11,493.6818,247.9981,493.8071,253.6536,488.1516,253.7789,497.42,257.11" style="stroke:#181818;stroke-width:1;"/><text fill="#000000" font-family="sans-serif" font-size="13" lengthAdjust="spacing" textLength="63.0068" x="471.12" y="222.7069">&#171;include&#187;</text></g><!--link UC2 to UC4--><g class="link" data-entity-1="UC2" data-entity-2="UC4" data-link-type="dependency" data-source-line="35" data-uid="lnk14" id="link_UC2_UC4"><path d="M289.75,176.03 C313.8,189.8 352.37,211.07 387.12,226.64 C414.56,238.94 440.5343,248.6952 465.7243,257.4752" fill="none" id="UC2-to-UC4" style="stroke:#181818;stroke-width:1;stroke-dasharray:7,7;"/><polygon fill="#181818" points="471.39,259.45,464.208,252.7107,466.6686,257.8043,461.5749,260.265,471.39,259.45" style="stroke:#181818;stroke-width:1;"/><text fill="#000000" font-family="sans-serif" font-size="13" lengthAdjust="spacing" textLength="63.0068" x="388.12" y="222.7069">&#171;include&#187;</text></g><!--link UC5 to UC4--><g class="link" data-entity-1="UC5" data-entity-2="UC4" data-link-type="dependency" data-source-line="37" data-uid="lnk15" id="link_UC5_UC4"><path d="M658.24,175.91 C640.08,189.03 611.83,209.34 587.12,226.64 C572.52,236.87 561.037,244.7694 547.767,253.8194" fill="none" id="UC5-to-UC4" style="stroke:#181818;stroke-width:1;stroke-dasharray:7,7;"/><polygon fill="#181818" points="542.81,257.2,552.4992,255.4337,546.9408,254.3828,547.9917,248.8245,542.81,257.2" style="stroke:#181818;stroke-width:1;"/><text fill="#000000" font-family="sans-serif" font-size="13" lengthAdjust="spacing" textLength="67.958" x="611.12" y="222.7069">&#171;extends&#187;</text></g><!--SRC=[TO-z2iCm38HtFuN8da3pivHWA9sp5DhTjTKYS6om7IXv-jPE1XiQJJhkutGICbW75pMJ0U6XIbl5VhDubC8ZtA-dvDpmJJuuiP8r29gUpbOvrIPgiefU9CKVeDjYQBP74NqY7kGNeMbTirDKSCEU9D5bbnZRtgXh7akNiYrbLyg-b0FR9vPkcaJ06SQHZDIBGiwZrHvRGs7X9w1HdlCl]--></g></svg>