<svg xmlns="http://www.w3.org/2000/svg" xmlns:xlink="http://www.w3.org/1999/xlink" contentStyleType="text/css" data-diagram-type="DESCRIPTION" height="300px" preserveAspectRatio="none" style="width:745px;height:300px;background:#FFFFFF;" version="1.1" viewBox="0 0 745 300" width="745px" zoomAndPan="magnify"><defs/><g><!--entity Admin--><g class="entity" data-entity="Admin" data-source-line="1" data-uid="ent0002" id="entity_Admin"><ellipse cx="436.9321" cy="14" fill="#F1F1F1" rx="8" ry="8" style="stroke:#181818;stroke-width:0.5;"/><path d="M436.9321,22 L436.9321,49 M423.9321,30 L449.9321,30 M436.9321,49 L423.9321,64 M436.9321,49 L449.9321,64" fill="none" style="stroke:#181818;stroke-width:0.5;"/><text fill="#000000" font-family="sans-serif" font-size="14" lengthAdjust="spacing" textLength="44.8643" x="414.5" y="78.4951">Admin</text></g><!--entity Reg--><g class="entity" data-entity="Reg" data-source-line="4" data-uid="ent0003" id="entity_Reg"><ellipse cx="86.1216" cy="160.9243" fill="#F1F1F1" rx="80.1216" ry="18.4243" style="stroke:#181818;stroke-width:0.5;"/><text fill="#000000" font-family="sans-serif" font-size="14" lengthAdjust="spacing" textLength="130.9629" x="20.6402" y="165.5728">Registrazione libro</text></g><!--entity Mod--><g class="entity" data-entity="Mod" data-source-line="5" data-uid="ent0004" id="entity_Mod"><ellipse cx="266.183" cy="160.9366" fill="#F1F1F1" rx="65.183" ry="15.4366" style="stroke:#181818;stroke-width:0.5;"/><text fill="#000000" font-family="sans-serif" font-size="14" lengthAdjust="spacing" textLength="93.9531" x="219.2064" y="165.585">Modifica libro</text></g><!--entity Rim--><g class="entity" data-entity="Rim" data-source-line="6" data-uid="ent0005" id="entity_Rim"><ellipse cx="436.8645" cy="161.0729" fill="#F1F1F1" rx="70.8645" ry="16.5729" style="stroke:#181818;stroke-width:0.5;"/><text fill="#000000" font-family="sans-serif" font-size="14" lengthAdjust="spacing" textLength="108.5479" x="382.5905" y="165.7213">Rimozione libro</text></g><!--entity Vis--><g class="entity" data-entity="Vis" data-source-line="7" data-uid="ent0006" id="entity_Vis"><ellipse cx="436.8382" cy="275.4676" fill="#F1F1F1" rx="82.8382" ry="18.9676" style="stroke:#181818;stroke-width:0.5;"/><text fill="#000000" font-family="sans-serif" font-size="14" lengthAdjust="spacing" textLength="137.3203" x="368.1781" y="280.1161">Visualizzazione libri</text></g><!--entity Ric--><g class="entity" data-entity="Ric" data-source-line="8" data-uid="ent0007" id="entity_Ric"><ellipse cx="677.2453" cy="160.9491" fill="#F1F1F1" rx="62.7453" ry="14.9491" style="stroke:#181818;stroke-width:0.5;"/><text fill="#000000" font-family="sans-serif" font-size="14" lengthAdjust="spacing" textLength="87.3975" x="633.5466" y="165.5975">Ricerca libro</text></g><!--link Admin to Reg--><g class="link" data-entity-1="Admin" data-entity-2="Reg" data-source-line="11" data-uid="lnk8" id="link_Admin_Reg"><path d="M414.24,51.99 C356.89,70.86 211.3694,118.7446 135.8794,143.5846" fill="none" id="Admin-to-Reg" style="stroke:#181818;stroke-width:1;"/><polygon fill="#181818" points="130.18,145.46,139.9793,146.4465,134.9295,143.8972,137.4788,138.8473,130.18,145.46" style="stroke:#181818;stroke-width:1;"/></g><!--link Admin to Mod--><g class="link" data-entity-1="Admin" data-entity-2="Mod" data-source-line="12" data-uid="lnk9" id="link_Admin_Mod"><path d="M414.29,59.84 C380.77,82.48 323.512,121.1515 291.372,142.8615" fill="none" id="Admin-to-Mod" style="stroke:#181818;stroke-width:1;"/><polygon fill="#181818" points="286.4,146.22,296.097,144.4969,290.5433,143.4213,291.619,137.8676,286.4,146.22" style="stroke:#181818;stroke-width:1;"/></g><!--link Admin to Rim--><g class="link" data-entity-1="Admin" data-entity-2="Rim" data-source-line="13" data-uid="lnk10" id="link_Admin_Rim"><path d="M437,81.68 C437,102.92 437,122.42 437,138.42" fill="none" id="Admin-to-Rim" style="stroke:#181818;stroke-width:1;"/><polygon fill="#181818" points="437,144.42,441,135.42,437,139.42,433,135.42,437,144.42" style="stroke:#181818;stroke-width:1;"/></g><!--link Admin to Ric--><g class="link" data-entity-1="Admin" data-entity-2="Ric" data-source-line="14" data-uid="lnk11" id="link_Admin_Ric"><path d="M459.6,53.98 C489.18,66.51 542.47,89.59 587,111.5 C610.09,122.86 630.6585,133.99 648.6985,144.04" fill="none" id="Admin-to-Ric" style="stroke:#181818;stroke-width:1;"/><polygon fill="#181818" points="653.94,146.96,648.0244,139.0856,649.5721,144.5266,644.131,146.0743,653.94,146.96" style="stroke:#181818;stroke-width:1;"/></g><!--link Admin to Vis--><g class="link" data-entity-1="Admin" data-entity-2="Vis" data-source-line="15" data-uid="lnk12" id="link_Admin_Vis"><path d="M459.73,61.42 C481.2,78.97 511.99,108.55 525,142.5 C538.57,177.91 532.92,196.29 510,226.5 C500.01,239.67 490.4808,247.3208 476.8708,255.2108" fill="none" id="Admin-to-Vis" style="stroke:#181818;stroke-width:1;"/><polygon fill="#181818" points="471.68,258.22,481.4724,257.1667,476.0057,255.7123,477.4601,250.2456,471.68,258.22" style="stroke:#181818;stroke-width:1;"/></g><!--link Reg to Vis--><g class="link" data-entity-1="Reg" data-entity-2="Vis" data-source-line="17" data-uid="lnk13" id="link_Reg_Vis"><path d="M126,177.12 C162.5,190.72 218.06,210.89 267,226.5 C306.15,238.99 345.0985,249.982 378.8585,259.122" fill="none" id="Reg-to-Vis" style="stroke:#181818;stroke-width:1;stroke-dasharray:7,7;"/><polygon fill="#181818" points="384.65,260.69,377.0081,254.4771,379.8237,259.3834,374.9174,262.1991,384.65,260.69" style="stroke:#181818;stroke-width:1;"/><text fill="#000000" font-family="sans-serif" font-size="13" lengthAdjust="spacing" textLength="63.0068" x="268" y="222.5669">&#171;include&#187;</text></g><!--link Mod to Vis--><g class="link" data-entity-1="Mod" data-entity-2="Vis" data-source-line="18" data-uid="lnk14" id="link_Mod_Vis"><path d="M287.03,175.84 C306.87,188.91 337.45,209.04 364,226.5 C379.59,236.75 392.0384,244.9309 405.9684,254.1009" fill="none" id="Mod-to-Vis" style="stroke:#181818;stroke-width:1;stroke-dasharray:7,7;"/><polygon fill="#181818" points="410.98,257.4,405.662,249.1103,406.8037,254.6508,401.2632,255.7924,410.98,257.4" style="stroke:#181818;stroke-width:1;"/><text fill="#000000" font-family="sans-serif" font-size="13" lengthAdjust="spacing" textLength="63.0068" x="365" y="222.5669">&#171;include&#187;</text></g><!--link Rim to Vis--><g class="link" data-entity-1="Rim" data-entity-2="Vis" data-source-line="19" data-uid="lnk15" id="link_Rim_Vis"><path d="M437,177.64 C437,198.29 437,228.57 437,250.39" fill="none" id="Rim-to-Vis" style="stroke:#181818;stroke-width:1;stroke-dasharray:7,7;"/><polygon fill="#181818" points="437,256.39,441,247.39,437,251.39,433,247.39,437,256.39" style="stroke:#181818;stroke-width:1;"/><text fill="#000000" font-family="sans-serif" font-size="13" lengthAdjust="spacing" textLength="63.0068" x="438" y="222.5669">&#171;include&#187;</text></g><!--link Ric to Vis--><g class="link" data-entity-1="Ric" data-entity-2="Vis" data-source-line="20" data-uid="lnk16" id="link_Ric_Vis"><path d="M661.08,175.78 C643.83,190.13 615,212.43 587,226.5 C557.07,241.54 527.2217,251.5762 498.2017,259.6262" fill="none" id="Ric-to-Vis" style="stroke:#181818;stroke-width:1;stroke-dasharray:7,7;"/><polygon fill="#181818" points="492.42,261.23,502.1617,262.6787,497.2381,259.8935,500.0233,254.9698,492.42,261.23" style="stroke:#181818;stroke-width:1;"/><text fill="#000000" font-family="sans-serif" font-size="13" lengthAdjust="spacing" textLength="67.958" x="617" y="222.5669">&#171;extends&#187;</text></g><!--SRC=[TOwz2iCm38HtFuN8dZn02OO-G9SEtLrPAGB_W9r0oTDNyMA5al7qdUxEuPeBt7taP8pPAg6h1CEJFbpNudREYI3mk-G1N0MvTzCZUruOdU9oKY4Syry0nsvuSTrSu7rNFTniGdGEKZdLo4NMjjKmZhRDwkeOePWqQeLA7JL6dc6Qce0Rp3Cd39idQuq4NH09lIHu8lHTAVbgxGy0]--></g></svg>