<svg xmlns="http://www.w3.org/2000/svg" xmlns:xlink="http://www.w3.org/1999/xlink" contentStyleType="text/css" data-diagram-type="DESCRIPTION" height="187px" preserveAspectRatio="none" style="width:393px;height:187px;background:#FFFFFF;" version="1.1" viewBox="0 0 393 187" width="393px" zoomAndPan="magnify"><defs/><g><!--entity Admin--><g class="entity" data-entity="Admin" data-source-line="1" data-uid="ent0002" id="entity_Admin"><ellipse cx="194.9321" cy="14" fill="#F1F1F1" rx="8" ry="8" style="stroke:#181818;stroke-width:0.5;"/><path d="M194.9321,22 L194.9321,49 M181.9321,30 L207.9321,30 M194.9321,49 L181.9321,64 M194.9321,49 L207.9321,64" fill="none" style="stroke:#181818;stroke-width:0.5;"/><text fill="#000000" font-family="sans-serif" font-size="14" lengthAdjust="spacing" textLength="44.8643" x="172.5" y="78.4951">Admin</text></g><!--entity Sal--><g class="entity" data-entity="Sal" data-source-line="3" data-uid="ent0003" id="entity_Sal"><ellipse cx="91.077" cy="161.4154" fill="#F1F1F1" rx="85.077" ry="19.4154" style="stroke:#181818;stroke-width:0.5;"/><text fill="#000000" font-family="sans-serif" font-size="14" lengthAdjust="spacing" textLength="142.502" x="19.826" y="166.0638">Salvataggio archivio</text></g><!--entity Car--><g class="entity" data-entity="Car" data-source-line="4" data-uid="ent0004" id="entity_Car"><ellipse cx="299.106" cy="161.5212" fill="#F1F1F1" rx="88.106" ry="20.0212" style="stroke:#181818;stroke-width:0.5;"/><text fill="#000000" font-family="sans-serif" font-size="14" lengthAdjust="spacing" textLength="149.4404" x="224.3858" y="166.1696">Caricamento archivio</text></g><!--link Admin to Sal--><g class="link" data-entity-1="Admin" data-entity-2="Sal" data-source-line="6" data-uid="lnk5" id="link_Admin_Sal"><path d="M172.43,69.67 C152.84,91.53 128.9356,118.1929 111.4056,137.7429" fill="none" id="Admin-to-Sal" style="stroke:#181818;stroke-width:1;"/><polygon fill="#181818" points="107.4,142.21,116.3865,138.1797,110.738,138.4874,110.4303,132.8389,107.4,142.21" style="stroke:#181818;stroke-width:1;"/></g><!--link Admin to Car--><g class="link" data-entity-1="Admin" data-entity-2="Car" data-source-line="7" data-uid="lnk6" id="link_Admin_Car"><path d="M217.57,69.67 C237.04,91.39 260.7242,117.8131 278.2742,137.3831" fill="none" id="Admin-to-Car" style="stroke:#181818;stroke-width:1;"/><polygon fill="#181818" points="282.28,141.85,279.2492,132.4791,278.9418,138.1276,273.2933,137.8202,282.28,141.85" style="stroke:#181818;stroke-width:1;"/></g><!--SRC=[IqmkoIzIS4p9pSpZuYejJarEB4vLK0fEp2bBB4bCJy_CLqWiIix8BClCLr98B5O0IY1KEISMPIOdvgRcbQ2f0afmSO7DLD3LjGDhGl20aW00]--></g></svg>