<svg xmlns="http://www.w3.org/2000/svg" xmlns:xlink="http://www.w3.org/1999/xlink" contentStyleType="text/css" data-diagram-type="DESCRIPTION" height="187px" preserveAspectRatio="none" style="width:393px;height:187px;background:#FFFFFF;" version="1.1" viewBox="0 0 393 187" width="393px" zoomAndPan="magnify"><defs/><g><!--entity Admin--><g class="entity" data-entity="Admin" data-source-line="1" data-uid="ent0002" id="entity_Admin"><ellipse cx="195.0721" cy="14" fill="#F1F1F1" rx="8" ry="8" style="stroke:#181818;stroke-width:0.5;"/><path d="M195.0721,22 L195.0721,49 M182.0721,30 L208.0721,30 M195.0721,49 L182.0721,64 M195.0721,49 L208.0721,64" fill="none" style="stroke:#181818;stroke-width:0.5;"/><text fill="#000000" font-family="sans-serif" font-size="14" lengthAdjust="spacing" textLength="44.8643" x="172.64" y="78.4951">Admin</text></g><!--entity UC1--><g class="entity" data-entity="UC1" data-source-line="5" data-uid="ent0003" id="entity_UC1"><ellipse cx="91.077" cy="161.8154" fill="#F1F1F1" rx="85.077" ry="19.4154" style="stroke:#181818;stroke-width:0.5;"/><text fill="#000000" font-family="sans-serif" font-size="14" lengthAdjust="spacing" textLength="142.502" x="19.826" y="166.4638">Salvataggio archivio</text></g><!--entity UC2--><g class="entity" data-entity="UC2" data-source-line="7" data-uid="ent0004" id="entity_UC2"><ellipse cx="299.076" cy="161.8212" fill="#F1F1F1" rx="88.106" ry="20.0212" style="stroke:#181818;stroke-width:0.5;"/><text fill="#000000" font-family="sans-serif" font-size="14" lengthAdjust="spacing" textLength="149.4404" x="224.3558" y="166.4696">Caricamento archivio</text></g><!--link Admin to UC1--><g class="link" data-entity-1="Admin" data-entity-2="UC1" data-link-type="dependency" data-source-line="11" data-uid="lnk5" id="link_Admin_UC1"><path d="M172.25,70.14 C152.64,92.05 128.8422,118.6299 111.3922,138.1199" fill="none" id="Admin-to-UC1" style="stroke:#181818;stroke-width:1;"/><polygon fill="#181818" points="107.39,142.59,116.3735,138.553,110.7252,138.8649,110.4133,133.2166,107.39,142.59" style="stroke:#181818;stroke-width:1;"/></g><!--link Admin to UC2--><g class="link" data-entity-1="Admin" data-entity-2="UC2" data-link-type="dependency" data-source-line="13" data-uid="lnk6" id="link_Admin_UC2"><path d="M217.9,70.14 C237.27,91.78 260.6261,117.8814 278.1161,137.4014" fill="none" id="Admin-to-UC2" style="stroke:#181818;stroke-width:1;"/><polygon fill="#181818" points="282.12,141.87,279.0932,132.4978,278.7834,138.1461,273.135,137.8363,282.12,141.87" style="stroke:#181818;stroke-width:1;"/></g><!--SRC=[IqmkoIzIS4p9pSnJI2nMK0ApbBY0eBGuDJcnE5KXrDaGB1ESc5EMM9AOdfwPhv1Ob9oHMPQPhuIip0Yip3cnA3CvCJSrhmH56HSNn0vTNJkGYQXS8m00]--></g></svg>