<svg xmlns="http://www.w3.org/2000/svg" xmlns:xlink="http://www.w3.org/1999/xlink" contentStyleType="text/css" data-diagram-type="DESCRIPTION" height="308px" preserveAspectRatio="none" style="width:1014px;height:308px;background:#FFFFFF;" version="1.1" viewBox="0 0 1014 308" width="1014px" zoomAndPan="magnify"><defs/><g><!--entity Admin--><g class="entity" data-entity="Admin" data-source-line="1" data-uid="ent0002" id="entity_Admin"><ellipse cx="584.0921" cy="14" fill="#F1F1F1" rx="8" ry="8" style="stroke:#181818;stroke-width:0.5;"/><path d="M584.0921,22 L584.0921,49 M571.0921,30 L597.0921,30 M584.0921,49 L571.0921,64 M584.0921,49 L597.0921,64" fill="none" style="stroke:#181818;stroke-width:0.5;"/><text fill="#000000" font-family="sans-serif" font-size="14" lengthAdjust="spacing" textLength="44.8643" x="561.66" y="78.4951">Admin</text></g><!--entity UC1--><g class="entity" data-entity="UC1" data-source-line="5" data-uid="ent0003" id="entity_UC1"><ellipse cx="96.0963" cy="163.2093" fill="#F1F1F1" rx="90.0963" ry="20.4193" style="stroke:#181818;stroke-width:0.5;"/><text fill="#000000" font-family="sans-serif" font-size="14" lengthAdjust="spacing" textLength="153.959" x="19.1168" y="167.8577">Registrazione prestito</text></g><!--entity UC2--><g class="entity" data-entity="UC2" data-source-line="7" data-uid="ent0004" id="entity_UC2"><ellipse cx="295.0985" cy="163.2137" fill="#F1F1F1" rx="74.2685" ry="17.2537" style="stroke:#181818;stroke-width:0.5;"/><text fill="#000000" font-family="sans-serif" font-size="14" lengthAdjust="spacing" textLength="116.9492" x="236.6239" y="167.8621">Modifica prestito</text></g><!--entity UC3--><g class="entity" data-entity="UC3" data-source-line="9" data-uid="ent0005" id="entity_UC3"><ellipse cx="485.0985" cy="163.2137" fill="#F1F1F1" rx="80.3685" ry="18.4737" style="stroke:#181818;stroke-width:0.5;"/><text fill="#000000" font-family="sans-serif" font-size="14" lengthAdjust="spacing" textLength="131.5439" x="419.3265" y="167.8621">Rimozione prestito</text></g><!--entity UC4--><g class="entity" data-entity="UC4" data-source-line="11" data-uid="ent0006" id="entity_UC4"><ellipse cx="618.0981" cy="281.6236" fill="#F1F1F1" rx="92.9181" ry="20.9836" style="stroke:#181818;stroke-width:0.5;"/><text fill="#000000" font-family="sans-serif" font-size="14" lengthAdjust="spacing" textLength="160.3164" x="537.9399" y="286.2721">Visualizzazione prestiti</text></g><!--entity UC5--><g class="entity" data-entity="UC5" data-source-line="13" data-uid="ent0007" id="entity_UC5"><ellipse cx="743.1047" cy="163.2109" fill="#F1F1F1" rx="71.6047" ry="16.7209" style="stroke:#181818;stroke-width:0.5;"/><text fill="#000000" font-family="sans-serif" font-size="14" lengthAdjust="spacing" textLength="110.3936" x="687.908" y="167.8594">Ricerca prestito</text></g><!--entity UC6--><g class="entity" data-entity="UC6" data-source-line="15" data-uid="ent0008" id="entity_UC6"><ellipse cx="929.1021" cy="163.2124" fill="#F1F1F1" rx="79.7621" ry="18.3524" style="stroke:#181818;stroke-width:0.5;"/><text fill="#000000" font-family="sans-serif" font-size="14" lengthAdjust="spacing" textLength="130.1152" x="864.0445" y="167.8609">Estinzione prestito</text></g><!--link Admin to UC1--><g class="link" data-entity-1="Admin" data-entity-2="UC1" data-link-type="dependency" data-source-line="19" data-uid="lnk9" id="link_Admin_UC1"><path d="M561.21,50.16 C489.14,67.52 270.993,120.0743 162.313,146.2643" fill="none" id="Admin-to-UC1" style="stroke:#181818;stroke-width:1;"/><polygon fill="#181818" points="156.48,147.67,166.1666,149.4502,161.3409,146.4986,164.2924,141.6728,156.48,147.67" style="stroke:#181818;stroke-width:1;"/></g><!--link Admin to UC2--><g class="link" data-entity-1="Admin" data-entity-2="UC2" data-link-type="dependency" data-source-line="21" data-uid="lnk10" id="link_Admin_UC2"><path d="M561.42,53.87 C511.39,74.22 396.7675,120.8486 336.4575,145.3886" fill="none" id="Admin-to-UC2" style="stroke:#181818;stroke-width:1;"/><polygon fill="#181818" points="330.9,147.65,340.7439,147.963,335.5313,145.7655,337.7287,140.5529,330.9,147.65" style="stroke:#181818;stroke-width:1;"/></g><!--link Admin to UC3--><g class="link" data-entity-1="Admin" data-entity-2="UC3" data-link-type="dependency" data-source-line="23" data-uid="lnk11" id="link_Admin_UC3"><path d="M561.38,71.62 C542.43,94.13 519.8444,120.9502 503.5944,140.2502" fill="none" id="Admin-to-UC3" style="stroke:#181818;stroke-width:1;"/><polygon fill="#181818" points="499.73,144.84,508.5865,140.5316,502.9504,141.0152,502.4668,135.379,499.73,144.84" style="stroke:#181818;stroke-width:1;"/></g><!--link Admin to UC4--><g class="link" data-entity-1="Admin" data-entity-2="UC4" data-link-type="dependency" data-source-line="25" data-uid="lnk12" id="link_Admin_UC4"><path d="M589.48,82.04 C596.75,132.46 608.5741,214.5614 614.2941,254.2514" fill="none" id="Admin-to-UC4" style="stroke:#181818;stroke-width:1;"/><polygon fill="#181818" points="615.15,260.19,617.8253,250.7115,614.4368,255.2411,609.9071,251.8526,615.15,260.19" style="stroke:#181818;stroke-width:1;"/></g><!--link Admin to UC5--><g class="link" data-entity-1="Admin" data-entity-2="UC5" data-link-type="dependency" data-source-line="27" data-uid="lnk13" id="link_Admin_UC5"><path d="M606.88,61.49 C637.79,84.35 687.756,121.2922 717.556,143.3322" fill="none" id="Admin-to-UC5" style="stroke:#181818;stroke-width:1;"/><polygon fill="#181818" points="722.38,146.9,717.5226,138.3323,718.36,143.9268,712.7655,144.7643,722.38,146.9" style="stroke:#181818;stroke-width:1;"/></g><!--link Admin to UC6--><g class="link" data-entity-1="Admin" data-entity-2="UC6" data-link-type="dependency" data-source-line="29" data-uid="lnk14" id="link_Admin_UC6"><path d="M607,52.45 C663.74,71.79 805.8707,120.2247 879.8807,145.4447" fill="none" id="Admin-to-UC6" style="stroke:#181818;stroke-width:1;"/><polygon fill="#181818" points="885.56,147.38,878.3312,140.6908,880.8272,145.7672,875.7508,148.2632,885.56,147.38" style="stroke:#181818;stroke-width:1;"/></g><!--link UC3 to UC4--><g class="link" data-entity-1="UC3" data-entity-2="UC4" data-link-type="dependency" data-source-line="37" data-uid="lnk15" id="link_UC3_UC4"><path d="M493.21,182.03 C500.49,196.49 512.29,216.71 527.1,230.63 C541.02,243.72 553.648,251.8475 569.958,260.0375" fill="none" id="UC3-to-UC4" style="stroke:#181818;stroke-width:1;stroke-dasharray:7,7;"/><polygon fill="#181818" points="575.32,262.73,569.0721,255.1166,570.8517,260.4863,565.4821,262.2659,575.32,262.73" style="stroke:#181818;stroke-width:1;"/><text fill="#000000" font-family="sans-serif" font-size="13" lengthAdjust="spacing" textLength="63.0068" x="528.1" y="226.6969">&#171;include&#187;</text></g><!--link UC2 to UC4--><g class="link" data-entity-1="UC2" data-entity-2="UC4" data-link-type="dependency" data-source-line="39" data-uid="lnk16" id="link_UC2_UC4"><path d="M324.79,179.47 C353.71,193.93 399.15,215.61 440.1,230.63 C477.91,244.51 515.6206,255.2897 550.1606,264.2097" fill="none" id="UC2-to-UC4" style="stroke:#181818;stroke-width:1;stroke-dasharray:7,7;"/><polygon fill="#181818" points="555.97,265.71,548.2561,259.5866,551.1288,264.4598,546.2557,267.3325,555.97,265.71" style="stroke:#181818;stroke-width:1;"/><text fill="#000000" font-family="sans-serif" font-size="13" lengthAdjust="spacing" textLength="63.0068" x="441.1" y="226.6969">&#171;include&#187;</text></g><!--link UC5 to UC4--><g class="link" data-entity-1="UC5" data-entity-2="UC4" data-link-type="dependency" data-source-line="41" data-uid="lnk17" id="link_UC5_UC4"><path d="M726.24,179.91 C703.71,200.89 668.1912,233.9713 643.6612,256.8113" fill="none" id="UC5-to-UC4" style="stroke:#181818;stroke-width:1;stroke-dasharray:7,7;"/><polygon fill="#181818" points="639.27,260.9,648.5826,257.6945,642.9293,257.4928,643.131,251.8395,639.27,260.9" style="stroke:#181818;stroke-width:1;"/><text fill="#000000" font-family="sans-serif" font-size="13" lengthAdjust="spacing" textLength="67.958" x="689.1" y="226.6969">&#171;extends&#187;</text></g><!--link UC6 to UC4--><g class="link" data-entity-1="UC6" data-entity-2="UC4" data-link-type="dependency" data-source-line="43" data-uid="lnk18" id="link_UC6_UC4"><path d="M892.21,179.86 C859.12,193.72 809.14,214.24 765.1,230.63 C733.64,242.34 703.7149,252.5911 675.4049,261.9811" fill="none" id="UC6-to-UC4" style="stroke:#181818;stroke-width:1;stroke-dasharray:7,7;"/><polygon fill="#181818" points="669.71,263.87,679.5116,264.8332,674.4558,262.2959,676.9931,257.24,669.71,263.87" style="stroke:#181818;stroke-width:1;"/><text fill="#000000" font-family="sans-serif" font-size="13" lengthAdjust="spacing" textLength="63.0068" x="807.1" y="226.6969">&#171;include&#187;</text></g><!--SRC=[VO_D2i8m48JlUOhGUmlsxo2b8EBHYw3taAooK1F9fY1zUjkq1nTRzxJ3Dxl3A1sSbmVpH2iLoIHkYHYd9z2AG5wFkqWky40ANWteBCYN1meONF9jpAFnx0pUKQjrJp4_mwVxywYCfXjIhpeS1fw9p5ej_pJuhSWwMauZi3-PGipTqxITcdAPSrbmMN9PSLcBPQRAMHOFv5us3LhTzGRQTaBvDgeOWdS0QsX6zVhL1m00]--></g></svg>