<svg xmlns="http://www.w3.org/2000/svg" xmlns:xlink="http://www.w3.org/1999/xlink" contentStyleType="text/css" data-diagram-type="DESCRIPTION" height="309px" preserveAspectRatio="none" style="width:1017px;height:309px;background:#FFFFFF;" version="1.1" viewBox="0 0 1017 309" width="1017px" zoomAndPan="magnify"><defs/><g><!--entity Admin--><g class="entity" data-entity="Admin" data-source-line="1" data-uid="ent0002" id="entity_Admin"><ellipse cx="585.9321" cy="14" fill="#F1F1F1" rx="8" ry="8" style="stroke:#181818;stroke-width:0.5;"/><path d="M585.9321,22 L585.9321,49 M572.9321,30 L598.9321,30 M585.9321,49 L572.9321,64 M585.9321,49 L598.9321,64" fill="none" style="stroke:#181818;stroke-width:0.5;"/><text fill="#000000" font-family="sans-serif" font-size="14" lengthAdjust="spacing" textLength="44.8643" x="563.5" y="78.4951">Admin</text></g><!--entity Reg--><g class="entity" data-entity="Reg" data-source-line="3" data-uid="ent0003" id="entity_Reg"><ellipse cx="96.0963" cy="162.9193" fill="#F1F1F1" rx="90.0963" ry="20.4193" style="stroke:#181818;stroke-width:0.5;"/><text fill="#000000" font-family="sans-serif" font-size="14" lengthAdjust="spacing" textLength="153.959" x="19.1168" y="167.5677">Registrazione prestito</text></g><!--entity Mod--><g class="entity" data-entity="Mod" data-source-line="4" data-uid="ent0004" id="entity_Mod"><ellipse cx="295.7685" cy="162.7537" fill="#F1F1F1" rx="74.2685" ry="17.2537" style="stroke:#181818;stroke-width:0.5;"/><text fill="#000000" font-family="sans-serif" font-size="14" lengthAdjust="spacing" textLength="116.9492" x="237.2939" y="167.4021">Modifica prestito</text></g><!--entity Rim--><g class="entity" data-entity="Rim" data-source-line="5" data-uid="ent0005" id="entity_Rim"><ellipse cx="485.8685" cy="162.9737" fill="#F1F1F1" rx="80.3685" ry="18.4737" style="stroke:#181818;stroke-width:0.5;"/><text fill="#000000" font-family="sans-serif" font-size="14" lengthAdjust="spacing" textLength="131.5439" x="420.0965" y="167.6221">Rimozione prestito</text></g><!--entity Vis--><g class="entity" data-entity="Vis" data-source-line="6" data-uid="ent0006" id="entity_Vis"><ellipse cx="576.0083" cy="281.9017" fill="#F1F1F1" rx="95.0083" ry="21.4017" style="stroke:#181818;stroke-width:0.5;"/><text fill="#000000" font-family="sans-serif" font-size="14" lengthAdjust="spacing" textLength="164.9922" x="493.5122" y="286.5501">Visualizzazione prestito</text></g><!--entity Ric--><g class="entity" data-entity="Ric" data-source-line="7" data-uid="ent0007" id="entity_Ric"><ellipse cx="745.1047" cy="163.2209" fill="#F1F1F1" rx="71.6047" ry="16.7209" style="stroke:#181818;stroke-width:0.5;"/><text fill="#000000" font-family="sans-serif" font-size="14" lengthAdjust="spacing" textLength="110.3936" x="689.908" y="167.8694">Ricerca prestito</text></g><!--entity Est--><g class="entity" data-entity="Est" data-source-line="8" data-uid="ent0008" id="entity_Est"><ellipse cx="931.7621" cy="162.8524" fill="#F1F1F1" rx="79.7621" ry="18.3524" style="stroke:#181818;stroke-width:0.5;"/><text fill="#000000" font-family="sans-serif" font-size="14" lengthAdjust="spacing" textLength="130.1152" x="866.7045" y="167.5009">Estinzione prestito</text></g><!--link Admin to Reg--><g class="link" data-entity-1="Admin" data-entity-2="Reg" data-source-line="10" data-uid="lnk9" id="link_Admin_Reg"><path d="M563.35,49.93 C491.17,67.24 270.7545,120.0905 161.7345,146.2405" fill="none" id="Admin-to-Reg" style="stroke:#181818;stroke-width:1;"/><polygon fill="#181818" points="155.9,147.64,165.5847,149.4304,160.7621,146.4738,163.7188,141.6511,155.9,147.64" style="stroke:#181818;stroke-width:1;"/></g><!--link Admin to Mod--><g class="link" data-entity-1="Admin" data-entity-2="Mod" data-source-line="11" data-uid="lnk10" id="link_Admin_Mod"><path d="M563.24,53.72 C513.04,74.06 398.011,120.6673 337.481,145.1873" fill="none" id="Admin-to-Mod" style="stroke:#181818;stroke-width:1;"/><polygon fill="#181818" points="331.92,147.44,341.7634,147.7683,336.5542,145.5627,338.7598,140.3536,331.92,147.44" style="stroke:#181818;stroke-width:1;"/></g><!--link Admin to Rim--><g class="link" data-entity-1="Admin" data-entity-2="Rim" data-source-line="12" data-uid="lnk11" id="link_Admin_Rim"><path d="M563.31,71.16 C544.18,93.64 521.2384,120.5905 504.7384,139.9805" fill="none" id="Admin-to-Rim" style="stroke:#181818;stroke-width:1;"/><polygon fill="#181818" points="500.85,144.55,509.729,140.2881,504.0904,140.7421,503.6363,135.1035,500.85,144.55" style="stroke:#181818;stroke-width:1;"/></g><!--link Admin to Ric--><g class="link" data-entity-1="Admin" data-entity-2="Ric" data-source-line="13" data-uid="lnk12" id="link_Admin_Ric"><path d="M608.78,61.33 C639.87,84.31 690.2646,121.5542 719.9546,143.4942" fill="none" id="Admin-to-Ric" style="stroke:#181818;stroke-width:1;"/><polygon fill="#181818" points="724.78,147.06,719.9191,138.4943,720.7588,144.0885,715.1646,144.9282,724.78,147.06" style="stroke:#181818;stroke-width:1;"/></g><!--link Admin to Vis--><g class="link" data-entity-1="Admin" data-entity-2="Vis" data-source-line="14" data-uid="lnk13" id="link_Admin_Vis"><path d="M594.19,81.61 C601.19,119.45 608.59,179.66 598,230.5 C595.85,240.8 594.0809,246.1582 589.8009,255.0982" fill="none" id="Admin-to-Vis" style="stroke:#181818;stroke-width:1;"/><polygon fill="#181818" points="587.21,260.51,594.7042,254.1196,589.3691,256.0002,587.4885,250.6651,587.21,260.51" style="stroke:#181818;stroke-width:1;"/></g><!--link Admin to Est--><g class="link" data-entity-1="Admin" data-entity-2="Est" data-source-line="15" data-uid="lnk14" id="link_Admin_Est"><path d="M608.7,52.21 C665.53,71.51 808.9888,120.2203 883.1488,145.4103" fill="none" id="Admin-to-Est" style="stroke:#181818;stroke-width:1;"/><polygon fill="#181818" points="888.83,147.34,881.5947,140.6579,884.0957,145.7319,879.0217,148.2329,888.83,147.34" style="stroke:#181818;stroke-width:1;"/></g><!--link Reg to Vis--><g class="link" data-entity-1="Reg" data-entity-2="Vis" data-source-line="17" data-uid="lnk15" id="link_Reg_Vis"><path d="M148.9,179.78 C197.16,193.92 270.56,214.8 335,230.5 C392.11,244.41 451.5144,256.7839 499.7144,266.3339" fill="none" id="Reg-to-Vis" style="stroke:#181818;stroke-width:1;stroke-dasharray:7,7;"/><polygon fill="#181818" points="505.6,267.5,497.549,261.8271,500.6953,266.5282,495.9942,269.6745,505.6,267.5" style="stroke:#181818;stroke-width:1;"/><text fill="#000000" font-family="sans-serif" font-size="13" lengthAdjust="spacing" textLength="63.0068" x="336" y="226.5669">&#171;include&#187;</text></g><!--link Est to Vis--><g class="link" data-entity-1="Est" data-entity-2="Vis" data-source-line="18" data-uid="lnk16" id="link_Est_Vis"><path d="M892.4,179.11 C855.3,193.07 798.2,214.08 748,230.5 C710.29,242.84 673.2512,253.769 639.7712,263.289" fill="none" id="Est-to-Vis" style="stroke:#181818;stroke-width:1;stroke-dasharray:7,7;"/><polygon fill="#181818" points="634,264.93,643.7509,266.3159,638.8094,263.5625,641.5628,258.621,634,264.93" style="stroke:#181818;stroke-width:1;"/><text fill="#000000" font-family="sans-serif" font-size="13" lengthAdjust="spacing" textLength="63.0068" x="795" y="226.5669">&#171;include&#187;</text></g><!--link Mod to Vis--><g class="link" data-entity-1="Mod" data-entity-2="Vis" data-source-line="19" data-uid="lnk17" id="link_Mod_Vis"><path d="M328.05,178.88 C358.09,192.69 404.32,213.6 445,230.5 C472.46,241.91 497.8877,251.7982 522.8577,261.2382" fill="none" id="Mod-to-Vis" style="stroke:#181818;stroke-width:1;stroke-dasharray:7,7;"/><polygon fill="#181818" points="528.47,263.36,521.466,256.4358,523.7931,261.5919,518.637,263.9189,528.47,263.36" style="stroke:#181818;stroke-width:1;"/><text fill="#000000" font-family="sans-serif" font-size="13" lengthAdjust="spacing" textLength="63.0068" x="446" y="226.5669">&#171;include&#187;</text></g><!--link Rim to Vis--><g class="link" data-entity-1="Rim" data-entity-2="Vis" data-source-line="20" data-uid="lnk18" id="link_Rim_Vis"><path d="M496.16,181.51 C504.41,195.26 516.67,214.66 529,230.5 C537.1,240.89 542.7531,247.3533 551.3231,256.2733" fill="none" id="Rim-to-Vis" style="stroke:#181818;stroke-width:1;stroke-dasharray:7,7;"/><polygon fill="#181818" points="555.48,260.6,552.1291,251.3387,552.0159,256.9944,546.3602,256.8813,555.48,260.6" style="stroke:#181818;stroke-width:1;"/><text fill="#000000" font-family="sans-serif" font-size="13" lengthAdjust="spacing" textLength="63.0068" x="530" y="226.5669">&#171;include&#187;</text></g><!--link Ric to Vis--><g class="link" data-entity-1="Ric" data-entity-2="Vis" data-source-line="21" data-uid="lnk19" id="link_Ric_Vis"><path d="M723.6,178.82 C693.31,199.79 642.8226,234.734 609.1926,258.024" fill="none" id="Ric-to-Vis" style="stroke:#181818;stroke-width:1;stroke-dasharray:7,7;"/><polygon fill="#181818" points="604.26,261.44,613.9363,259.6044,608.3705,258.5933,609.3816,253.0275,604.26,261.44" style="stroke:#181818;stroke-width:1;"/><text fill="#000000" font-family="sans-serif" font-size="13" lengthAdjust="spacing" textLength="67.958" x="672" y="226.5669">&#171;extends&#187;</text></g><!--SRC=[TO-n2iCm34HtVuN8ddn02OOE7Rjqw6vajGWIkrWEb7nz5IzsIZBUlUDESfXZWgkVEHYp2A4JWkv1RvQStCen47mIIUOSEt02Ychk7Zs_6Dq-ecvJnNCygk6vPfuiYvjuNOy65RPjIEb_JysQkAaV3chKDwRy2NrlonjLRHStJ6zh5JPgkwQgKgfLC0m5mGN6aGDEYoThZU8JeeCdHCTF2Uu8VJC5BzR-0000]--></g></svg>