<svg xmlns="http://www.w3.org/2000/svg" xmlns:xlink="http://www.w3.org/1999/xlink" contentStyleType="text/css" data-diagram-type="DESCRIPTION" height="311px" preserveAspectRatio="none" style="width:848px;height:311px;background:#FFFFFF;" version="1.1" viewBox="0 0 848 311" width="848px" zoomAndPan="magnify"><defs/><g><!--entity Admin--><g class="entity" data-entity="Admin" data-source-line="1" data-uid="ent0002" id="entity_Admin"><ellipse cx="502.7221" cy="14" fill="#F1F1F1" rx="8" ry="8" style="stroke:#181818;stroke-width:0.5;"/><path d="M502.7221,22 L502.7221,49 M489.7221,30 L515.7221,30 M502.7221,49 L489.7221,64 M502.7221,49 L515.7221,64" fill="none" style="stroke:#181818;stroke-width:0.5;"/><text fill="#000000" font-family="sans-serif" font-size="14" lengthAdjust="spacing" textLength="44.8643" x="480.29" y="78.4951">Admin</text></g><!--entity UC1--><g class="entity" data-entity="UC1" data-source-line="5" data-uid="ent0003" id="entity_UC1"><ellipse cx="99.7173" cy="163.9435" fill="#F1F1F1" rx="93.7173" ry="21.1435" style="stroke:#181818;stroke-width:0.5;"/><text fill="#000000" font-family="sans-serif" font-size="14" lengthAdjust="spacing" textLength="162.1074" x="18.6636" y="168.5919">Registrazione studente</text></g><!--entity UC2--><g class="entity" data-entity="UC2" data-source-line="7" data-uid="ent0004" id="entity_UC2"><ellipse cx="305.7177" cy="163.9395" fill="#F1F1F1" rx="77.6477" ry="17.9295" style="stroke:#181818;stroke-width:0.5;"/><text fill="#000000" font-family="sans-serif" font-size="14" lengthAdjust="spacing" textLength="125.0977" x="243.1689" y="168.588">Modifica studente</text></g><!--entity UC3--><g class="entity" data-entity="UC3" data-source-line="9" data-uid="ent0005" id="entity_UC3"><ellipse cx="502.7205" cy="163.9421" fill="#F1F1F1" rx="83.8605" ry="19.1721" style="stroke:#181818;stroke-width:0.5;"/><text fill="#000000" font-family="sans-serif" font-size="14" lengthAdjust="spacing" textLength="139.6924" x="432.8743" y="168.5905">Rimozione studente</text></g><!--entity UC4--><g class="entity" data-entity="UC4" data-source-line="11" data-uid="ent0006" id="entity_UC4"><ellipse cx="594.7168" cy="283.7894" fill="#F1F1F1" rx="96.5468" ry="21.7094" style="stroke:#181818;stroke-width:0.5;"/><text fill="#000000" font-family="sans-serif" font-size="14" lengthAdjust="spacing" textLength="168.417" x="510.5083" y="288.4378">Visualizzazione studenti</text></g><!--entity UC5--><g class="entity" data-entity="UC5" data-source-line="13" data-uid="ent0007" id="entity_UC5"><ellipse cx="767.7234" cy="163.9447" fill="#F1F1F1" rx="74.9234" ry="17.3847" style="stroke:#181818;stroke-width:0.5;"/><text fill="#000000" font-family="sans-serif" font-size="14" lengthAdjust="spacing" textLength="118.542" x="708.4524" y="168.5931">Ricerca studente</text></g><!--link Admin to UC1--><g class="link" data-entity-1="Admin" data-entity-2="UC1" data-link-type="dependency" data-source-line="17" data-uid="lnk8" id="link_Admin_UC1"><path d="M479.9,51.34 C417.95,69.53 251.0872,118.5103 161.3072,144.8603" fill="none" id="Admin-to-UC1" style="stroke:#181818;stroke-width:1;"/><polygon fill="#181818" points="155.55,146.55,165.3122,147.8536,160.3476,145.1419,163.0593,140.1773,155.55,146.55" style="stroke:#181818;stroke-width:1;"/></g><!--link Admin to UC2--><g class="link" data-entity-1="Admin" data-entity-2="UC2" data-link-type="dependency" data-source-line="19" data-uid="lnk9" id="link_Admin_UC2"><path d="M480.12,58.22 C443.63,80.12 377.044,120.1115 337.904,143.6115" fill="none" id="Admin-to-UC2" style="stroke:#181818;stroke-width:1;"/><polygon fill="#181818" points="332.76,146.7,342.5351,145.4966,337.0467,144.1262,338.417,138.6379,332.76,146.7" style="stroke:#181818;stroke-width:1;"/></g><!--link Admin to UC3--><g class="link" data-entity-1="Admin" data-entity-2="UC3" data-link-type="dependency" data-source-line="21" data-uid="lnk10" id="link_Admin_UC3"><path d="M502.72,82.07 C502.72,102.92 502.72,121.95 502.72,138.58" fill="none" id="Admin-to-UC3" style="stroke:#181818;stroke-width:1;"/><polygon fill="#181818" points="502.72,144.58,506.72,135.58,502.72,139.58,498.72,135.58,502.72,144.58" style="stroke:#181818;stroke-width:1;"/></g><!--link Admin to UC4--><g class="link" data-entity-1="Admin" data-entity-2="UC4" data-link-type="dependency" data-source-line="23" data-uid="lnk11" id="link_Admin_UC4"><path d="M525.52,60.21 C549,77.53 584.77,107.73 603.72,142.79 C622.82,178.13 626.2,192.82 617.72,232.08 C615.51,242.29 613.7338,247.5338 609.3438,256.3938" fill="none" id="Admin-to-UC4" style="stroke:#181818;stroke-width:1;"/><polygon fill="#181818" points="606.68,261.77,614.2599,255.4815,608.8999,257.2898,607.0916,251.9297,606.68,261.77" style="stroke:#181818;stroke-width:1;"/></g><!--link Admin to UC5--><g class="link" data-entity-1="Admin" data-entity-2="UC5" data-link-type="dependency" data-source-line="25" data-uid="lnk12" id="link_Admin_UC5"><path d="M525.62,53.46 C557.37,65.82 616.43,89.32 665.72,111.79 C690.59,123.14 712.9613,134.3522 733.2113,144.8322" fill="none" id="Admin-to-UC5" style="stroke:#181818;stroke-width:1;"/><polygon fill="#181818" points="738.54,147.59,732.3855,139.9009,734.0994,145.2919,728.7085,147.0058,738.54,147.59" style="stroke:#181818;stroke-width:1;"/></g><!--link UC3 to UC4--><g class="link" data-entity-1="UC3" data-entity-2="UC4" data-link-type="dependency" data-source-line="33" data-uid="lnk13" id="link_UC3_UC4"><path d="M514.37,183.37 C523.31,197.13 536.19,216.23 548.72,232.08 C556.82,242.34 562.3743,248.756 570.7243,257.736" fill="none" id="UC3-to-UC4" style="stroke:#181818;stroke-width:1;stroke-dasharray:7,7;"/><polygon fill="#181818" points="574.81,262.13,571.6108,252.8152,571.4052,258.4684,565.7521,258.2628,574.81,262.13" style="stroke:#181818;stroke-width:1;"/><text fill="#000000" font-family="sans-serif" font-size="13" lengthAdjust="spacing" textLength="63.0068" x="549.72" y="228.1469">&#171;include&#187;</text></g><!--link UC2 to UC4--><g class="link" data-entity-1="UC2" data-entity-2="UC4" data-link-type="dependency" data-source-line="35" data-uid="lnk14" id="link_UC2_UC4"><path d="M341.03,180.33 C372.97,194.16 421.33,214.87 463.72,232.08 C491.06,243.18 516.2159,252.9767 541.0559,262.4767" fill="none" id="UC2-to-UC4" style="stroke:#181818;stroke-width:1;stroke-dasharray:7,7;"/><polygon fill="#181818" points="546.66,264.62,539.6827,257.669,541.9899,262.8339,536.8249,265.1412,546.66,264.62" style="stroke:#181818;stroke-width:1;"/><text fill="#000000" font-family="sans-serif" font-size="13" lengthAdjust="spacing" textLength="63.0068" x="464.72" y="228.1469">&#171;include&#187;</text></g><!--link UC5 to UC4--><g class="link" data-entity-1="UC5" data-entity-2="UC4" data-link-type="dependency" data-source-line="37" data-uid="lnk15" id="link_UC5_UC4"><path d="M744.39,180.83 C713.21,202.07 662.9286,236.3217 628.9786,259.4517" fill="none" id="UC5-to-UC4" style="stroke:#181818;stroke-width:1;stroke-dasharray:7,7;"/><polygon fill="#181818" points="624.02,262.83,633.71,261.0683,628.1521,260.0148,629.2057,254.4569,624.02,262.83" style="stroke:#181818;stroke-width:1;"/><text fill="#000000" font-family="sans-serif" font-size="13" lengthAdjust="spacing" textLength="67.958" x="692.72" y="228.1469">&#171;extends&#187;</text></g><!--SRC=[VO-z2iCm38HtFuN8da3pivHWA9sx5DhTs6eH93P4DfGyVHCdGmLjDUcuZpl9s1WcEBcHF1Y68c-5MYOnMiC8j_CXErTy4iV9p1Gy0iVaq4SiFi4wWvVWw47MV6UQBOp6y2UepT2TE9c1vbbsaa2xFS_Y92kLshugIxt-86KjPIDbAsMdzbclhwfCm17wdhmTbZwjLwl-RNN2mbT4xrZhDm00]--></g></svg>