<svg xmlns="http://www.w3.org/2000/svg" xmlns:xlink="http://www.w3.org/1999/xlink" contentStyleType="text/css" data-diagram-type="DESCRIPTION" height="311px" preserveAspectRatio="none" style="width:848px;height:311px;background:#FFFFFF;" version="1.1" viewBox="0 0 848 311" width="848px" zoomAndPan="magnify"><defs/><g><!--entity Admin--><g class="entity" data-entity="Admin" data-source-line="1" data-uid="ent0002" id="entity_Admin"><ellipse cx="502.4321" cy="14" fill="#F1F1F1" rx="8" ry="8" style="stroke:#181818;stroke-width:0.5;"/><path d="M502.4321,22 L502.4321,49 M489.4321,30 L515.4321,30 M502.4321,49 L489.4321,64 M502.4321,49 L515.4321,64" fill="none" style="stroke:#181818;stroke-width:0.5;"/><text fill="#000000" font-family="sans-serif" font-size="14" lengthAdjust="spacing" textLength="44.8643" x="480" y="78.4951">Admin</text></g><!--entity Reg--><g class="entity" data-entity="Reg" data-source-line="3" data-uid="ent0003" id="entity_Reg"><ellipse cx="99.7173" cy="163.6435" fill="#F1F1F1" rx="93.7173" ry="21.1435" style="stroke:#181818;stroke-width:0.5;"/><text fill="#000000" font-family="sans-serif" font-size="14" lengthAdjust="spacing" textLength="162.1074" x="18.6636" y="168.2919">Registrazione studente</text></g><!--entity Mod--><g class="entity" data-entity="Mod" data-source-line="4" data-uid="ent0004" id="entity_Mod"><ellipse cx="305.6477" cy="163.4295" fill="#F1F1F1" rx="77.6477" ry="17.9295" style="stroke:#181818;stroke-width:0.5;"/><text fill="#000000" font-family="sans-serif" font-size="14" lengthAdjust="spacing" textLength="125.0977" x="243.0989" y="168.078">Modifica studente</text></g><!--entity Rim--><g class="entity" data-entity="Rim" data-source-line="5" data-uid="ent0005" id="entity_Rim"><ellipse cx="502.3605" cy="163.6721" fill="#F1F1F1" rx="83.8605" ry="19.1721" style="stroke:#181818;stroke-width:0.5;"/><text fill="#000000" font-family="sans-serif" font-size="14" lengthAdjust="spacing" textLength="139.6924" x="432.5143" y="168.3205">Rimozione studente</text></g><!--entity Vis--><g class="entity" data-entity="Vis" data-source-line="6" data-uid="ent0006" id="entity_Vis"><ellipse cx="502.6783" cy="283.6357" fill="#F1F1F1" rx="98.6783" ry="22.1357" style="stroke:#181818;stroke-width:0.5;"/><text fill="#000000" font-family="sans-serif" font-size="14" lengthAdjust="spacing" textLength="173.1406" x="416.108" y="288.2841">Visualizzazione studente</text></g><!--entity Ric--><g class="entity" data-entity="Ric" data-source-line="7" data-uid="ent0007" id="entity_Ric"><ellipse cx="767.4234" cy="163.3847" fill="#F1F1F1" rx="74.9234" ry="17.3847" style="stroke:#181818;stroke-width:0.5;"/><text fill="#000000" font-family="sans-serif" font-size="14" lengthAdjust="spacing" textLength="118.542" x="708.1524" y="168.0331">Ricerca studente</text></g><!--link Admin to Reg--><g class="link" data-entity-1="Admin" data-entity-2="Reg" data-source-line="9" data-uid="lnk8" id="link_Admin_Reg"><path d="M479.97,51.1 C418.06,69.23 249.7583,118.5042 160.1283,144.7442" fill="none" id="Admin-to-Reg" style="stroke:#181818;stroke-width:1;"/><polygon fill="#181818" points="154.37,146.43,164.1313,147.7402,159.1686,145.0252,161.8836,140.0624,154.37,146.43" style="stroke:#181818;stroke-width:1;"/></g><!--link Admin to Mod--><g class="link" data-entity-1="Admin" data-entity-2="Mod" data-source-line="10" data-uid="lnk9" id="link_Admin_Mod"><path d="M479.9,58.04 C443.32,79.95 376.427,120.0165 337.367,143.4165" fill="none" id="Admin-to-Mod" style="stroke:#181818;stroke-width:1;"/><polygon fill="#181818" points="332.22,146.5,341.9962,145.3061,336.5092,143.9304,337.8849,138.4434,332.22,146.5" style="stroke:#181818;stroke-width:1;"/></g><!--link Admin to Rim--><g class="link" data-entity-1="Admin" data-entity-2="Rim" data-source-line="11" data-uid="lnk10" id="link_Admin_Rim"><path d="M502.5,81.51 C502.5,102.46 502.5,121.73 502.5,138.41" fill="none" id="Admin-to-Rim" style="stroke:#181818;stroke-width:1;"/><polygon fill="#181818" points="502.5,144.41,506.5,135.41,502.5,139.41,498.5,135.41,502.5,144.41" style="stroke:#181818;stroke-width:1;"/></g><!--link Admin to Ric--><g class="link" data-entity-1="Admin" data-entity-2="Ric" data-source-line="12" data-uid="lnk11" id="link_Admin_Ric"><path d="M525.14,53.19 C556.82,65.5 616.06,89.02 665.5,111.5 C690.37,122.81 712.737,134.0006 732.987,144.4406" fill="none" id="Admin-to-Ric" style="stroke:#181818;stroke-width:1;"/><polygon fill="#181818" points="738.32,147.19,732.1535,139.5105,733.8759,144.8988,728.4876,146.6211,738.32,147.19" style="stroke:#181818;stroke-width:1;"/></g><!--link Admin to Vis--><g class="link" data-entity-1="Admin" data-entity-2="Vis" data-source-line="13" data-uid="lnk12" id="link_Admin_Vis"><path d="M525.31,58.47 C549.92,75.03 587.7,105.15 603.5,142.5 C619.66,180.69 603.74,201.13 575.5,231.5 C564.34,243.5 554.9351,251.0316 541.8451,259.5716" fill="none" id="Admin-to-Vis" style="stroke:#181818;stroke-width:1;"/><polygon fill="#181818" points="536.82,262.85,546.5433,261.2824,541.0076,260.118,542.1721,254.5823,536.82,262.85" style="stroke:#181818;stroke-width:1;"/></g><!--link Reg to Vis--><g class="link" data-entity-1="Reg" data-entity-2="Vis" data-source-line="15" data-uid="lnk13" id="link_Reg_Vis"><path d="M152.29,180.96 C196.79,194.75 262.2,214.79 319.5,231.5 C360.35,243.41 400.7044,254.6803 436.4444,264.5003" fill="none" id="Reg-to-Vis" style="stroke:#181818;stroke-width:1;stroke-dasharray:7,7;"/><polygon fill="#181818" points="442.23,266.09,434.6114,259.8485,437.4087,264.7653,432.4919,267.5626,442.23,266.09" style="stroke:#181818;stroke-width:1;"/><text fill="#000000" font-family="sans-serif" font-size="13" lengthAdjust="spacing" textLength="63.0068" x="320.5" y="227.5669">&#171;include&#187;</text></g><!--link Mod to Vis--><g class="link" data-entity-1="Mod" data-entity-2="Vis" data-source-line="16" data-uid="lnk14" id="link_Mod_Vis"><path d="M332.07,180.41 C367.67,201.74 425.6928,236.4967 464.3228,259.6367" fill="none" id="Mod-to-Vis" style="stroke:#181818;stroke-width:1;stroke-dasharray:7,7;"/><polygon fill="#181818" points="469.47,262.72,463.8047,254.6637,465.1807,260.1506,459.6937,261.5266,469.47,262.72" style="stroke:#181818;stroke-width:1;"/><text fill="#000000" font-family="sans-serif" font-size="13" lengthAdjust="spacing" textLength="63.0068" x="417.5" y="227.5669">&#171;include&#187;</text></g><!--link Rim to Vis--><g class="link" data-entity-1="Rim" data-entity-2="Vis" data-source-line="17" data-uid="lnk15" id="link_Rim_Vis"><path d="M502.5,182.68 C502.5,203.88 502.5,232.89 502.5,255.31" fill="none" id="Rim-to-Vis" style="stroke:#181818;stroke-width:1;stroke-dasharray:7,7;"/><polygon fill="#181818" points="502.5,261.31,506.5,252.31,502.5,256.31,498.5,252.31,502.5,261.31" style="stroke:#181818;stroke-width:1;"/><text fill="#000000" font-family="sans-serif" font-size="13" lengthAdjust="spacing" textLength="63.0068" x="503.5" y="227.5669">&#171;include&#187;</text></g><!--link Ric to Vis--><g class="link" data-entity-1="Ric" data-entity-2="Vis" data-source-line="18" data-uid="lnk16" id="link_Ric_Vis"><path d="M747.02,180.42 C727.12,195.29 695.56,217.27 665.5,231.5 C634.28,246.28 603.4974,256.5509 572.9174,265.1209" fill="none" id="Ric-to-Vis" style="stroke:#181818;stroke-width:1;stroke-dasharray:7,7;"/><polygon fill="#181818" points="567.14,266.74,576.8855,268.1629,571.9545,265.3907,574.7267,260.4597,567.14,266.74" style="stroke:#181818;stroke-width:1;"/><text fill="#000000" font-family="sans-serif" font-size="13" lengthAdjust="spacing" textLength="67.958" x="696.5" y="227.5669">&#171;extends&#187;</text></g><!--SRC=[TOyn2iCm34LtdK9aJmvGWg47wDAXkv7L8eXjY1meENsLB7PACdwzh_ybJoNFU0zH4i2YJ5uPkoT_HCliLyc9KSiIE1Nkq2iQghv73l8MyaUBJPieYVaiHcBrl4GNFycwdXKQRDE8v_y-6mBiBs3Vk_t2ghPZ6cQrhQ96RKLWopWCky0RZgCacgpAER2W2sAXbuGEXB-5Kr3dVW00]--></g></svg>