<svg xmlns="http://www.w3.org/2000/svg" xmlns:xlink="http://www.w3.org/1999/xlink" contentStyleType="text/css" data-diagram-type="DESCRIPTION" height="1606px" preserveAspectRatio="none" style="width:335px;height:1606px;background:#FFFFFF;" version="1.1" viewBox="0 0 335 1606" width="335px" zoomAndPan="magnify"><defs/><g><!--cluster Gestione Studenti--><g class="cluster" data-entity="Gestione Studenti" data-source-line="9" data-uid="ent0003" id="cluster_Gestione Studenti"><rect fill="none" height="421" rx="2.5" ry="2.5" style="stroke:#181818;stroke-width:1;" width="225.1" x="104.86" y="7"/><text fill="#000000" font-family="sans-serif" font-size="14" font-weight="bold" lengthAdjust="spacing" textLength="142.4814" x="146.1693" y="31.9951">Gestione Studenti</text></g><!--cluster Gestione Libri--><g class="cluster" data-entity="Gestione Libri" data-source-line="17" data-uid="ent0009" id="cluster_Gestione Libri"><rect fill="none" height="415" rx="2.5" ry="2.5" style="stroke:#181818;stroke-width:1;" width="197.54" x="118.64" y="452"/><text fill="#000000" font-family="sans-serif" font-size="14" font-weight="bold" lengthAdjust="spacing" textLength="110.209" x="162.3055" y="476.9951">Gestione Libri</text></g><!--cluster Gestione Prestiti--><g class="cluster" data-entity="Gestione Prestiti" data-source-line="26" data-uid="ent0015" id="cluster_Gestione Prestiti"><rect fill="none" height="495" rx="2.5" ry="2.5" style="stroke:#181818;stroke-width:1;" width="217.6" x="108.61" y="891"/><text fill="#000000" font-family="sans-serif" font-size="14" font-weight="bold" lengthAdjust="spacing" textLength="132.7402" x="151.0399" y="915.9951">Gestione Prestiti</text></g><!--cluster Gestione Archivio--><g class="cluster" data-entity="Gestione Archivio" data-source-line="35" data-uid="ent0022" id="cluster_Gestione Archivio"><rect fill="none" height="190" rx="2.5" ry="2.5" style="stroke:#181818;stroke-width:1;" width="205.69" x="114.57" y="1410"/><text fill="#000000" font-family="sans-serif" font-size="14" font-weight="bold" lengthAdjust="spacing" textLength="139.1113" x="147.8593" y="1434.9951">Gestione Archivio</text></g><!--entity UC_Studente_Registrazione--><g class="entity" data-entity="UC_Studente_Registrazione" data-source-line="10" data-uid="ent0004" id="entity_UC_Studente_Registrazione"><ellipse cx="217.4073" cy="391.0035" fill="#F1F1F1" rx="93.7173" ry="21.1435" style="stroke:#181818;stroke-width:0.5;"/><text fill="#000000" font-family="sans-serif" font-size="14" lengthAdjust="spacing" textLength="162.1074" x="136.3536" y="395.6519">Registrazione studente</text></g><!--entity UC_Studente_Modifica--><g class="entity" data-entity="UC_Studente_Modifica" data-source-line="11" data-uid="ent0005" id="entity_UC_Studente_Modifica"><ellipse cx="217.4123" cy="314.0015" fill="#F1F1F1" rx="73.5223" ry="20.6415" style="stroke:#181818;stroke-width:0.5;"/><text fill="#000000" font-family="sans-serif" font-size="14" lengthAdjust="spacing" textLength="125.0977" x="154.8635" y="318.6499">Modifica studente</text></g><!--entity UC_Studente_Rimozione--><g class="entity" data-entity="UC_Studente_Rimozione" data-source-line="12" data-uid="ent0006" id="entity_UC_Studente_Rimozione"><ellipse cx="217.4093" cy="238.0046" fill="#F1F1F1" rx="81.5093" ry="20.8446" style="stroke:#181818;stroke-width:0.5;"/><text fill="#000000" font-family="sans-serif" font-size="14" lengthAdjust="spacing" textLength="139.6924" x="147.5631" y="242.653">Rimozione studente</text></g><!--entity UC_Studente_Visualizzazione--><g class="entity" data-entity="UC_Studente_Visualizzazione" data-source-line="13" data-uid="ent0007" id="entity_UC_Studente_Visualizzazione"><ellipse cx="217.4068" cy="159.9994" fill="#F1F1F1" rx="96.5468" ry="21.7094" style="stroke:#181818;stroke-width:0.5;"/><text fill="#000000" font-family="sans-serif" font-size="14" lengthAdjust="spacing" textLength="168.417" x="133.1983" y="164.6478">Visualizzazione studenti</text></g><!--entity UC_Studente_Ricerca--><g class="entity" data-entity="UC_Studente_Ricerca" data-source-line="14" data-uid="ent0008" id="entity_UC_Studente_Ricerca"><ellipse cx="217.4056" cy="82.9966" fill="#F1F1F1" rx="69.9356" ry="20.5366" style="stroke:#181818;stroke-width:0.5;"/><text fill="#000000" font-family="sans-serif" font-size="14" lengthAdjust="spacing" textLength="118.542" x="158.1346" y="87.645">Ricerca studente</text></g><!--entity UC_Libro_Registrazione--><g class="entity" data-entity="UC_Libro_Registrazione" data-source-line="18" data-uid="ent0010" id="entity_UC_Libro_Registrazione"><ellipse cx="217.4118" cy="829.9977" fill="#F1F1F1" rx="76.7318" ry="20.7277" style="stroke:#181818;stroke-width:0.5;"/><text fill="#000000" font-family="sans-serif" font-size="14" lengthAdjust="spacing" textLength="130.9629" x="151.9303" y="834.6462">Registrazione libro</text></g><!--entity UC_Libro_Modifica--><g class="entity" data-entity="UC_Libro_Modifica" data-source-line="19" data-uid="ent0011" id="entity_UC_Libro_Modifica"><ellipse cx="217.4104" cy="753.998" fill="#F1F1F1" rx="56.4904" ry="20.038" style="stroke:#181818;stroke-width:0.5;"/><text fill="#000000" font-family="sans-serif" font-size="14" lengthAdjust="spacing" textLength="93.9531" x="170.4339" y="758.6465">Modifica libro</text></g><!--entity UC_Libro_Rimozione--><g class="entity" data-entity="UC_Libro_Rimozione" data-source-line="20" data-uid="ent0012" id="entity_UC_Libro_Rimozione"><ellipse cx="217.4092" cy="678.9965" fill="#F1F1F1" rx="64.4692" ry="20.3565" style="stroke:#181818;stroke-width:0.5;"/><text fill="#000000" font-family="sans-serif" font-size="14" lengthAdjust="spacing" textLength="108.5479" x="163.1352" y="683.6449">Rimozione libro</text></g><!--entity UC_Libro_Visualizzazione--><g class="entity" data-entity="UC_Libro_Visualizzazione" data-source-line="21" data-uid="ent0013" id="entity_UC_Libro_Visualizzazione"><ellipse cx="217.4103" cy="603.0033" fill="#F1F1F1" rx="82.7703" ry="20.8733" style="stroke:#181818;stroke-width:0.5;"/><text fill="#000000" font-family="sans-serif" font-size="14" lengthAdjust="spacing" textLength="141.9961" x="146.4122" y="607.6518">Visualizzazione libro</text></g><!--entity UC_Libro_Ricerca--><g class="entity" data-entity="UC_Libro_Ricerca" data-source-line="22" data-uid="ent0014" id="entity_UC_Libro_Ricerca"><ellipse cx="217.4087" cy="526.9975" fill="#F1F1F1" rx="52.9087" ry="19.8675" style="stroke:#181818;stroke-width:0.5;"/><text fill="#000000" font-family="sans-serif" font-size="14" lengthAdjust="spacing" textLength="87.3975" x="173.7099" y="531.646">Ricerca libro</text></g><!--entity UC_Prestito_Registrazione--><g class="entity" data-entity="UC_Prestito_Registrazione" data-source-line="27" data-uid="ent0016" id="entity_UC_Prestito_Registrazione"><ellipse cx="217.409" cy="1349.0006" fill="#F1F1F1" rx="89.319" ry="21.0106" style="stroke:#181818;stroke-width:0.5;"/><text fill="#000000" font-family="sans-serif" font-size="14" lengthAdjust="spacing" textLength="153.959" x="140.4295" y="1353.6491">Registrazione prestito</text></g><!--entity UC_Prestito_Modifica--><g class="entity" data-entity="UC_Prestito_Modifica" data-source-line="28" data-uid="ent0017" id="entity_UC_Prestito_Modifica"><ellipse cx="217.4143" cy="1271.9996" fill="#F1F1F1" rx="69.0643" ry="20.5096" style="stroke:#181818;stroke-width:0.5;"/><text fill="#000000" font-family="sans-serif" font-size="14" lengthAdjust="spacing" textLength="116.9492" x="158.9397" y="1276.6481">Modifica prestito</text></g><!--entity UC_Prestito_Rimozione--><g class="entity" data-entity="UC_Prestito_Rimozione" data-source-line="29" data-uid="ent0018" id="entity_UC_Prestito_Rimozione"><ellipse cx="217.4097" cy="1195.9959" fill="#F1F1F1" rx="77.0497" ry="20.7359" style="stroke:#181818;stroke-width:0.5;"/><text fill="#000000" font-family="sans-serif" font-size="14" lengthAdjust="spacing" textLength="131.5439" x="151.6378" y="1200.6444">Rimozione prestito</text></g><!--entity UC_Prestito_Visualizzazione--><g class="entity" data-entity="UC_Prestito_Visualizzazione" data-source-line="30" data-uid="ent0019" id="entity_UC_Prestito_Visualizzazione"><ellipse cx="217.4096" cy="1118.9963" fill="#F1F1F1" rx="92.7996" ry="21.0763" style="stroke:#181818;stroke-width:0.5;"/><text fill="#000000" font-family="sans-serif" font-size="14" lengthAdjust="spacing" textLength="160.3164" x="137.2514" y="1123.6447">Visualizzazione prestiti</text></g><!--entity UC_Prestito_Ricerca--><g class="entity" data-entity="UC_Prestito_Ricerca" data-source-line="31" data-uid="ent0020" id="entity_UC_Prestito_Ricerca"><ellipse cx="217.4085" cy="1043.0018" fill="#F1F1F1" rx="65.4785" ry="20.3918" style="stroke:#181818;stroke-width:0.5;"/><text fill="#000000" font-family="sans-serif" font-size="14" lengthAdjust="spacing" textLength="110.3936" x="162.2118" y="1047.6502">Ricerca prestito</text></g><!--entity UC_Prestito_Estinzione--><g class="entity" data-entity="UC_Prestito_Estinzione" data-source-line="32" data-uid="ent0021" id="entity_UC_Prestito_Estinzione"><ellipse cx="217.4079" cy="966.9957" fill="#F1F1F1" rx="76.2679" ry="20.7157" style="stroke:#181818;stroke-width:0.5;"/><text fill="#000000" font-family="sans-serif" font-size="14" lengthAdjust="spacing" textLength="130.1152" x="152.3503" y="971.6441">Estinzione prestito</text></g><!--entity UC_Archivio_Salvataggio--><g class="entity" data-entity="UC_Archivio_Salvataggio" data-source-line="36" data-uid="ent0023" id="entity_UC_Archivio_Salvataggio"><ellipse cx="217.4072" cy="1562.9995" fill="#F1F1F1" rx="83.0472" ry="20.8795" style="stroke:#181818;stroke-width:0.5;"/><text fill="#000000" font-family="sans-serif" font-size="14" lengthAdjust="spacing" textLength="142.502" x="146.1562" y="1567.648">Salvataggio archivio</text></g><!--entity UC_Archivio_Caricamento--><g class="entity" data-entity="UC_Archivio_Caricamento" data-source-line="37" data-uid="ent0024" id="entity_UC_Archivio_Caricamento"><ellipse cx="217.4053" cy="1486.001" fill="#F1F1F1" rx="86.8453" ry="20.961" style="stroke:#181818;stroke-width:0.5;"/><text fill="#000000" font-family="sans-serif" font-size="14" lengthAdjust="spacing" textLength="149.4404" x="142.6851" y="1490.6494">Caricamento archivio</text></g><!--entity Admin--><g class="entity" data-entity="Admin" data-source-line="6" data-uid="ent0002" id="entity_Admin"><ellipse cx="28.4321" cy="752.35" fill="#F1F1F1" rx="8" ry="8" style="stroke:#181818;stroke-width:0.5;"/><path d="M28.4321,760.35 L28.4321,787.35 M15.4321,768.35 L41.4321,768.35 M28.4321,787.35 L15.4321,802.35 M28.4321,787.35 L41.4321,802.35" fill="none" style="stroke:#181818;stroke-width:0.5;"/><text fill="#000000" font-family="sans-serif" font-size="14" lengthAdjust="spacing" textLength="44.8643" x="6" y="826.8451">Admin</text></g><!--link Admin to UC_Studente_Registrazione--><g class="link" data-entity-1="Admin" data-entity-2="UC_Studente_Registrazione" data-source-line="41" data-uid="lnk25" id="link_Admin_UC_Studente_Registrazione"><path d="M30.85,743.36 C34.69,680.71 48.44,570.46 96.86,491 C117.77,456.69 149.6068,431.7806 176.8968,414.1906" fill="none" id="Admin-to-UC_Studente_Registrazione" style="stroke:#181818;stroke-width:1;"/><polygon fill="#181818" points="181.94,410.94,172.2082,412.4538,177.7374,413.6488,176.5423,419.178,181.94,410.94" style="stroke:#181818;stroke-width:1;"/></g><!--link Admin to UC_Studente_Modifica--><g class="link" data-entity-1="Admin" data-entity-2="UC_Studente_Modifica" data-source-line="42" data-uid="lnk26" id="link_Admin_UC_Studente_Modifica"><path d="M30.59,743.43 C33.99,641.56 47.14,410.14 96.86,352 C110.03,336.61 123.6391,329.022 142.9691,323.522" fill="none" id="Admin-to-UC_Studente_Modifica" style="stroke:#181818;stroke-width:1;"/><polygon fill="#181818" points="148.74,321.88,138.9889,320.4957,143.9309,323.2483,141.1783,328.1903,148.74,321.88" style="stroke:#181818;stroke-width:1;"/></g><!--link Admin to UC_Studente_Rimozione--><g class="link" data-entity-1="Admin" data-entity-2="UC_Studente_Rimozione" data-source-line="43" data-uid="lnk27" id="link_Admin_UC_Studente_Rimozione"><path d="M29.34,743.43 C30.12,628.89 38.11,346.26 96.86,276 C108.74,261.8 120.1941,254.6643 137.8341,249.0343" fill="none" id="Admin-to-UC_Studente_Rimozione" style="stroke:#181818;stroke-width:1;"/><polygon fill="#181818" points="143.55,247.21,133.7599,246.1358,138.7867,248.7303,136.1923,253.7571,143.55,247.21" style="stroke:#181818;stroke-width:1;"/></g><!--link Admin to UC_Studente_Visualizzazione--><g class="link" data-entity-1="Admin" data-entity-2="UC_Studente_Visualizzazione" data-source-line="44" data-uid="lnk28" id="link_Admin_UC_Studente_Visualizzazione"><path d="M31.98,743.71 C39.43,610 62.85,242 96.86,200 C107.26,187.16 116.3285,180.5602 131.8285,174.6102" fill="none" id="Admin-to-UC_Studente_Visualizzazione" style="stroke:#181818;stroke-width:1;"/><polygon fill="#181818" points="137.43,172.46,127.5943,171.951,132.7621,174.2519,130.4613,179.4197,137.43,172.46" style="stroke:#181818;stroke-width:1;"/></g><!--link Admin to UC_Studente_Ricerca--><g class="link" data-entity-1="Admin" data-entity-2="UC_Studente_Ricerca" data-source-line="45" data-uid="lnk29" id="link_Admin_UC_Studente_Ricerca"><path d="M31.27,743.36 C37.21,597.23 57.79,169.16 96.86,121 C110.17,104.6 124.763,96.7176 144.953,91.3276" fill="none" id="Admin-to-UC_Studente_Ricerca" style="stroke:#181818;stroke-width:1;"/><polygon fill="#181818" points="150.75,89.78,141.0228,88.2367,145.9192,91.0697,143.0863,95.966,150.75,89.78" style="stroke:#181818;stroke-width:1;"/></g><!--link Admin to UC_Libro_Registrazione--><g class="link" data-entity-1="Admin" data-entity-2="UC_Libro_Registrazione" data-source-line="47" data-uid="lnk30" id="link_Admin_UC_Libro_Registrazione"><path d="M61.15,798.45 C86.78,803.66 117.7404,809.9442 149.1104,816.3242" fill="none" id="Admin-to-UC_Libro_Registrazione" style="stroke:#181818;stroke-width:1;"/><polygon fill="#181818" points="154.99,817.52,146.9677,811.8066,150.0903,816.5235,145.3734,819.6461,154.99,817.52" style="stroke:#181818;stroke-width:1;"/></g><!--link Admin to UC_Libro_Modifica--><g class="link" data-entity-1="Admin" data-entity-2="UC_Libro_Modifica" data-source-line="48" data-uid="lnk31" id="link_Admin_UC_Libro_Modifica"><path d="M61.15,785.55 C90.32,779.62 128.1401,771.9345 161.7601,765.1045" fill="none" id="Admin-to-UC_Libro_Modifica" style="stroke:#181818;stroke-width:1;"/><polygon fill="#181818" points="167.64,763.91,158.0238,761.7818,162.7401,764.9054,159.6165,769.6217,167.64,763.91" style="stroke:#181818;stroke-width:1;"/></g><!--link Admin to UC_Libro_Rimozione--><g class="link" data-entity-1="Admin" data-entity-2="UC_Libro_Rimozione" data-source-line="49" data-uid="lnk32" id="link_Admin_UC_Libro_Rimozione"><path d="M61.24,748.03 C71.5,736.28 83.67,724.51 96.86,716 C116.22,703.52 134.2416,696.5722 155.5216,690.9122" fill="none" id="Admin-to-UC_Libro_Rimozione" style="stroke:#181818;stroke-width:1;"/><polygon fill="#181818" points="161.32,689.37,151.5942,687.8178,156.488,690.6552,153.6506,695.549,161.32,689.37" style="stroke:#181818;stroke-width:1;"/></g><!--link Admin to UC_Libro_Visualizzazione--><g class="link" data-entity-1="Admin" data-entity-2="UC_Libro_Visualizzazione" data-source-line="50" data-uid="lnk33" id="link_Admin_UC_Libro_Visualizzazione"><path d="M39.96,743.58 C49.54,710.43 66.89,667.78 96.86,641 C110.91,628.45 123.385,621.8356 141.335,616.2056" fill="none" id="Admin-to-UC_Libro_Visualizzazione" style="stroke:#181818;stroke-width:1;"/><polygon fill="#181818" points="147.06,614.41,137.2754,613.2868,142.2892,615.9064,139.6696,620.9201,147.06,614.41" style="stroke:#181818;stroke-width:1;"/></g><!--link Admin to UC_Libro_Ricerca--><g class="link" data-entity-1="Admin" data-entity-2="UC_Libro_Ricerca" data-source-line="51" data-uid="lnk34" id="link_Admin_UC_Libro_Ricerca"><path d="M31,743.77 C35.25,692.75 49.64,613.13 96.86,565 C115.01,546.5 136.2421,538.1942 160.0621,533.3142" fill="none" id="Admin-to-UC_Libro_Ricerca" style="stroke:#181818;stroke-width:1;"/><polygon fill="#181818" points="165.94,532.11,156.3203,529.9977,161.0417,533.1135,157.9259,537.8349,165.94,532.11" style="stroke:#181818;stroke-width:1;"/></g><!--link Admin to UC_Prestito_Registrazione--><g class="link" data-entity-1="Admin" data-entity-2="UC_Prestito_Registrazione" data-source-line="53" data-uid="lnk35" id="link_Admin_UC_Prestito_Registrazione"><path d="M29.35,840.3 C30.13,954.95 38.1,1239.15 96.86,1310 C108.01,1323.44 118.2105,1330.2974 134.7405,1336.1174" fill="none" id="Admin-to-UC_Prestito_Registrazione" style="stroke:#181818;stroke-width:1;"/><polygon fill="#181818" points="140.4,1338.11,133.2392,1331.3481,135.6838,1336.4495,130.5824,1338.894,140.4,1338.11" style="stroke:#181818;stroke-width:1;"/></g><!--link Admin to UC_Prestito_Modifica--><g class="link" data-entity-1="Admin" data-entity-2="UC_Prestito_Modifica" data-source-line="54" data-uid="lnk36" id="link_Admin_UC_Prestito_Modifica"><path d="M30.55,840.4 C33.87,942.54 46.87,1175.51 96.86,1234 C110.73,1250.22 125.6993,1258.0664 146.0493,1263.4464" fill="none" id="Admin-to-UC_Prestito_Modifica" style="stroke:#181818;stroke-width:1;"/><polygon fill="#181818" points="151.85,1264.98,144.1713,1258.8125,147.0161,1263.702,142.1266,1266.5468,151.85,1264.98" style="stroke:#181818;stroke-width:1;"/></g><!--link Admin to UC_Prestito_Rimozione--><g class="link" data-entity-1="Admin" data-entity-2="UC_Prestito_Rimozione" data-source-line="55" data-uid="lnk37" id="link_Admin_UC_Prestito_Rimozione"><path d="M32.28,840.46 C38.42,928.86 55.84,1111.48 96.86,1158 C109.75,1172.62 122.493,1179.9359 141.093,1185.5159" fill="none" id="Admin-to-UC_Prestito_Rimozione" style="stroke:#181818;stroke-width:1;"/><polygon fill="#181818" points="146.84,1187.24,139.369,1180.8226,142.0509,1185.8033,137.0702,1188.4852,146.84,1187.24" style="stroke:#181818;stroke-width:1;"/></g><!--link Admin to UC_Prestito_Visualizzazione--><g class="link" data-entity-1="Admin" data-entity-2="UC_Prestito_Visualizzazione" data-source-line="56" data-uid="lnk38" id="link_Admin_UC_Prestito_Visualizzazione"><path d="M34.91,840.35 C44.1,913.21 64.82,1046.34 96.86,1081 C108.25,1093.31 117.9463,1099.651 133.8463,1105.301" fill="none" id="Admin-to-UC_Prestito_Visualizzazione" style="stroke:#181818;stroke-width:1;"/><polygon fill="#181818" points="139.5,1107.31,132.3588,1100.5274,134.7886,1105.6358,129.6802,1108.0656,139.5,1107.31" style="stroke:#181818;stroke-width:1;"/></g><!--link Admin to UC_Prestito_Ricerca--><g class="link" data-entity-1="Admin" data-entity-2="UC_Prestito_Ricerca" data-source-line="57" data-uid="lnk39" id="link_Admin_UC_Prestito_Ricerca"><path d="M32.22,840.42 C37.53,888.41 52.87,960.95 96.86,1005 C112.64,1020.79 129.1377,1028.5411 150.2177,1033.9411" fill="none" id="Admin-to-UC_Prestito_Ricerca" style="stroke:#181818;stroke-width:1;"/><polygon fill="#181818" points="156.03,1035.43,148.3041,1029.3217,151.1864,1034.1892,146.3189,1037.0715,156.03,1035.43" style="stroke:#181818;stroke-width:1;"/></g><!--link Admin to UC_Prestito_Estinzione--><g class="link" data-entity-1="Admin" data-entity-2="UC_Prestito_Estinzione" data-source-line="58" data-uid="lnk40" id="link_Admin_UC_Prestito_Estinzione"><path d="M61.35,829.59 C72.26,841.86 84.77,855.33 96.86,867 C127.63,896.69 161.2403,924.1153 186.0703,943.6053" fill="none" id="Admin-to-UC_Prestito_Estinzione" style="stroke:#181818;stroke-width:1;"/><polygon fill="#181818" points="190.79,947.31,186.1802,938.6065,186.8569,944.2228,181.2407,944.8995,190.79,947.31" style="stroke:#181818;stroke-width:1;"/></g><!--link Admin to UC_Archivio_Salvataggio--><g class="link" data-entity-1="Admin" data-entity-2="UC_Archivio_Salvataggio" data-source-line="60" data-uid="lnk41" id="link_Admin_UC_Archivio_Salvataggio"><path d="M30.85,840.61 C35.79,995.53 54.29,1470.67 96.86,1524 C108.44,1538.5 119.8092,1545.7988 137.4492,1551.5888" fill="none" id="Admin-to-UC_Archivio_Salvataggio" style="stroke:#181818;stroke-width:1;"/><polygon fill="#181818" points="143.15,1553.46,135.8463,1546.8527,138.3994,1551.9007,133.3514,1554.4538,143.15,1553.46" style="stroke:#181818;stroke-width:1;"/></g><!--link Admin to UC_Archivio_Caricamento--><g class="link" data-entity-1="Admin" data-entity-2="UC_Archivio_Caricamento" data-source-line="61" data-uid="lnk42" id="link_Admin_UC_Archivio_Caricamento"><path d="M30.35,840.35 C33.41,964.6 46.21,1291.86 96.86,1386 C115.9,1421.39 147.979,1446.2109 175.849,1463.4709" fill="none" id="Admin-to-UC_Archivio_Caricamento" style="stroke:#181818;stroke-width:1;"/><polygon fill="#181818" points="180.95,1466.63,175.4045,1458.4907,176.6992,1463.9974,171.1924,1465.2921,180.95,1466.63" style="stroke:#181818;stroke-width:1;"/></g><!--SRC=[ZLJDJiCm3BxdAQnUE4s21m1fcX0NaD0ck4wcoJgBDAcIR8YXlJjjbwv_IRjSMlzyjlFPZXGx1qw3eMplW9CHgIEjcFqcLQ3170fClp4J6_Sh1LHcL9aK7GUxHwv_I6MmGsb53yfvfN-uPmnJfmqiUKwAiJjuh0wijDHA8LXIP9t1Yvhvb92y25jL8s3Z3bmeHmdyCIZFmOeKhO2FrTQRn7OjiZh8gKQWXQIliTunYKPuqvnsb68DlWhpk3NbkfFrAiqZFyaUKDBfrAbwgBFDtIVofyBuifl_DlUP1GXzfIyJOhFIwragPUMLXB5X4gSGCVgcCBSGDvrpJ9dtFu_daul9wNmtrLzmEhrfdjB2EoRH265Yvt4nUkUHjv1SD7UVo3-cUZxtS_bHRTgEs6A3axqqwPwEf0FDQ4pR3SeZEimoqdNqdjpWe-WLcfBvlDok2xedNz7zCP8Ygpt83r7z4C9YyHH_mY8-JUTZ8Ph-Hko3_aMZr7rYVNFWSGWvX2iSx7h8E5bRRsy7XOMtBE8JBc-yBX7xP973eOzOssaUN2GqeH6FpjJz0m00]--></g></svg>