<svg xmlns="http://www.w3.org/2000/svg" xmlns:xlink="http://www.w3.org/1999/xlink" contentStyleType="text/css" data-diagram-type="CLASS" height="962px" preserveAspectRatio="none" style="width:1285px;height:962px;background:#FFFFFF;" version="1.1" viewBox="0 0 1285 962" width="1285px" zoomAndPan="magnify"><defs/><g><!--class StudentRegisterController--><g class="entity" data-entity="StudentRegisterController" data-source-line="4" data-uid="ent0002" id="entity_StudentRegisterController"><rect fill="#F1F1F1" height="276.1563" rx="2.5" ry="2.5" style="stroke:#181818;stroke-width:0.5;" width="354.8428" x="471.91" y="277.97"/><ellipse cx="553.8045" cy="293.97" fill="#ADD1B2" rx="11" ry="11" style="stroke:#181818;stroke-width:1;"/><path d="M556.7733,299.6106 Q556.1952,299.9075 555.5545,300.0481 Q554.9139,300.2044 554.2108,300.2044 Q551.7108,300.2044 550.3827,298.5638 Q549.0702,296.9075 549.0702,293.7825 Q549.0702,290.6575 550.3827,289.0013 Q551.7108,287.345 554.2108,287.345 Q554.9139,287.345 555.5545,287.5013 Q556.2108,287.6575 556.7733,287.9544 L556.7733,290.6731 Q556.1483,290.095 555.5545,289.8294 Q554.9608,289.5481 554.3358,289.5481 Q552.992,289.5481 552.3045,290.6263 Q551.617,291.6888 551.617,293.7825 Q551.617,295.8763 552.3045,296.9544 Q552.992,298.0169 554.3358,298.0169 Q554.9608,298.0169 555.5545,297.7513 Q556.1483,297.47 556.7733,296.8919 L556.7733,299.6106 Z " fill="#000000"/><text fill="#000000" font-family="sans-serif" font-size="14" lengthAdjust="spacing" textLength="182.5537" x="574.3045" y="298.8167">StudentRegisterController</text><line style="stroke:#181818;stroke-width:0.5;" x1="472.91" x2="825.7528" y1="309.97" y2="309.97"/><g data-visibility-modifier="PRIVATE_FIELD"><rect fill="none" height="6" style="stroke:#C82930;stroke-width:1;" width="6" x="479.91" y="320.6184"/></g><text fill="#000000" font-family="sans-serif" font-size="14" lengthAdjust="spacing" textLength="256.2793" x="491.91" y="326.9651">studentTable : TableView&lt;Student&gt;</text><g data-visibility-modifier="PRIVATE_FIELD"><rect fill="none" height="6" style="stroke:#C82930;stroke-width:1;" width="6" x="479.91" y="336.9153"/></g><text fill="#000000" font-family="sans-serif" font-size="14" lengthAdjust="spacing" textLength="302.0117" x="491.91" y="343.262">nameClm : TableColumn&lt;Student, String&gt;</text><g data-visibility-modifier="PRIVATE_FIELD"><rect fill="none" height="6" style="stroke:#C82930;stroke-width:1;" width="6" x="479.91" y="353.2122"/></g><text fill="#000000" font-family="sans-serif" font-size="14" lengthAdjust="spacing" textLength="323.9346" x="491.91" y="359.5589">surnameClm : TableColumn&lt;Student, String&gt;</text><g data-visibility-modifier="PRIVATE_FIELD"><rect fill="none" height="6" style="stroke:#C82930;stroke-width:1;" width="6" x="479.91" y="369.5091"/></g><text fill="#000000" font-family="sans-serif" font-size="14" lengthAdjust="spacing" textLength="328.8428" x="491.91" y="375.8557">studentIdClm : TableColumn&lt;Student, String&gt;</text><g data-visibility-modifier="PRIVATE_FIELD"><rect fill="none" height="6" style="stroke:#C82930;stroke-width:1;" width="6" x="479.91" y="385.8059"/></g><text fill="#000000" font-family="sans-serif" font-size="14" lengthAdjust="spacing" textLength="300.918" x="491.91" y="392.1526">emailClm : TableColumn&lt;Student, String&gt;</text><g data-visibility-modifier="PRIVATE_FIELD"><rect fill="none" height="6" style="stroke:#C82930;stroke-width:1;" width="6" x="479.91" y="402.1028"/></g><text fill="#000000" font-family="sans-serif" font-size="14" lengthAdjust="spacing" textLength="262.2471" x="491.91" y="408.4495">studentRegister : Register&lt;Student&gt;</text><g data-visibility-modifier="PRIVATE_FIELD"><rect fill="none" height="6" style="stroke:#C82930;stroke-width:1;" width="6" x="479.91" y="418.3997"/></g><text fill="#000000" font-family="sans-serif" font-size="14" lengthAdjust="spacing" textLength="258.8018" x="491.91" y="424.7464">sideBarController : SideBarController</text><line style="stroke:#181818;stroke-width:0.5;" x1="472.91" x2="825.7528" y1="432.0481" y2="432.0481"/><g data-visibility-modifier="PUBLIC_METHOD"><ellipse cx="482.91" cy="445.6966" fill="#84BE84" rx="3" ry="3" style="stroke:#038048;stroke-width:1;"/></g><text fill="#000000" font-family="sans-serif" font-size="14" lengthAdjust="spacing" textLength="206.8281" x="491.91" y="449.0432">StudentRegisterController(...)</text><g data-visibility-modifier="PUBLIC_METHOD"><ellipse cx="482.91" cy="461.9934" fill="#84BE84" rx="3" ry="3" style="stroke:#038048;stroke-width:1;"/></g><text fill="#000000" font-family="sans-serif" font-size="14" lengthAdjust="spacing" textLength="112.5195" x="491.91" y="465.3401">initialize() : void</text><g data-visibility-modifier="PUBLIC_METHOD"><ellipse cx="482.91" cy="478.2903" fill="#84BE84" rx="3" ry="3" style="stroke:#038048;stroke-width:1;"/></g><text fill="#000000" font-family="sans-serif" font-size="14" lengthAdjust="spacing" textLength="175.5469" x="491.91" y="481.637">updateTableView() : void</text><g data-visibility-modifier="PRIVATE_METHOD"><rect fill="#F24D5C" height="6" style="stroke:#C82930;stroke-width:1;" width="6" x="479.91" y="491.5872"/></g><text fill="#000000" font-family="sans-serif" font-size="14" lengthAdjust="spacing" textLength="172.915" x="491.91" y="497.9339">openInsertPopup() : void</text><g data-visibility-modifier="PRIVATE_METHOD"><rect fill="#F24D5C" height="6" style="stroke:#C82930;stroke-width:1;" width="6" x="479.91" y="507.8841"/></g><text fill="#000000" font-family="sans-serif" font-size="14" lengthAdjust="spacing" textLength="179.3955" x="491.91" y="514.2307">openModifyPopup() : void</text><g data-visibility-modifier="PRIVATE_METHOD"><rect fill="#F24D5C" height="6" style="stroke:#C82930;stroke-width:1;" width="6" x="479.91" y="524.1809"/></g><text fill="#000000" font-family="sans-serif" font-size="14" lengthAdjust="spacing" textLength="201.9199" x="491.91" y="530.5276">removeFromRegister() : void</text><g data-visibility-modifier="PRIVATE_METHOD"><rect fill="#F24D5C" height="6" style="stroke:#C82930;stroke-width:1;" width="6" x="479.91" y="540.4778"/></g><text fill="#000000" font-family="sans-serif" font-size="14" lengthAdjust="spacing" textLength="135.8232" x="491.91" y="546.8245">searchBook() : void</text></g><!--class SideBarController--><g class="entity" data-entity="SideBarController" data-source-line="4" data-uid="ent0003" id="entity_SideBarController"><rect fill="#F1F1F1" height="178.375" rx="2.5" ry="2.5" style="stroke:#181818;stroke-width:0.5;" width="226.751" x="650.96" y="695.61"/><ellipse cx="698.3912" cy="711.61" fill="#ADD1B2" rx="11" ry="11" style="stroke:#181818;stroke-width:1;"/><path d="M701.3599,717.2506 Q700.7818,717.5475 700.1412,717.6881 Q699.5005,717.8444 698.7974,717.8444 Q696.2974,717.8444 694.9693,716.2038 Q693.6568,714.5475 693.6568,711.4225 Q693.6568,708.2975 694.9693,706.6413 Q696.2974,704.985 698.7974,704.985 Q699.5005,704.985 700.1412,705.1413 Q700.7974,705.2975 701.3599,705.5944 L701.3599,708.3131 Q700.7349,707.735 700.1412,707.4694 Q699.5474,707.1881 698.9224,707.1881 Q697.5787,707.1881 696.8912,708.2663 Q696.2037,709.3288 696.2037,711.4225 Q696.2037,713.5163 696.8912,714.5944 Q697.5787,715.6569 698.9224,715.6569 Q699.5474,715.6569 700.1412,715.3913 Q700.7349,715.11 701.3599,714.5319 L701.3599,717.2506 Z " fill="#000000"/><text fill="#000000" font-family="sans-serif" font-size="14" lengthAdjust="spacing" textLength="123.3887" x="718.8912" y="716.4567">SideBarController</text><line style="stroke:#181818;stroke-width:0.5;" x1="651.96" x2="876.711" y1="727.61" y2="727.61"/><g data-visibility-modifier="PRIVATE_FIELD"><rect fill="none" height="6" style="stroke:#C82930;stroke-width:1;" width="6" x="658.96" y="738.2584"/></g><text fill="#000000" font-family="sans-serif" font-size="14" lengthAdjust="spacing" textLength="110.8311" x="670.96" y="744.6051">addBtn : Button</text><g data-visibility-modifier="PRIVATE_FIELD"><rect fill="none" height="6" style="stroke:#C82930;stroke-width:1;" width="6" x="658.96" y="754.5553"/></g><text fill="#000000" font-family="sans-serif" font-size="14" lengthAdjust="spacing" textLength="165.2451" x="670.96" y="760.902">searchBarTF : TextField</text><g data-visibility-modifier="PRIVATE_FIELD"><rect fill="none" height="6" style="stroke:#C82930;stroke-width:1;" width="6" x="658.96" y="770.8522"/></g><text fill="#000000" font-family="sans-serif" font-size="14" lengthAdjust="spacing" textLength="137.9492" x="670.96" y="777.1989">removeBtn : Button</text><g data-visibility-modifier="PRIVATE_FIELD"><rect fill="none" height="6" style="stroke:#C82930;stroke-width:1;" width="6" x="658.96" y="787.1491"/></g><text fill="#000000" font-family="sans-serif" font-size="14" lengthAdjust="spacing" textLength="132.6719" x="670.96" y="793.4957">modifyBtn : Button</text><line style="stroke:#181818;stroke-width:0.5;" x1="651.96" x2="876.711" y1="800.7975" y2="800.7975"/><g data-visibility-modifier="PUBLIC_METHOD"><ellipse cx="661.96" cy="814.4459" fill="#84BE84" rx="3" ry="3" style="stroke:#038048;stroke-width:1;"/></g><text fill="#000000" font-family="sans-serif" font-size="14" lengthAdjust="spacing" textLength="145.7422" x="670.96" y="817.7926">getAddBtn() : Button</text><g data-visibility-modifier="PUBLIC_METHOD"><ellipse cx="661.96" cy="830.7428" fill="#84BE84" rx="3" ry="3" style="stroke:#038048;stroke-width:1;"/></g><text fill="#000000" font-family="sans-serif" font-size="14" lengthAdjust="spacing" textLength="200.751" x="670.96" y="834.0895">getSearchBarTF() : TextField</text><g data-visibility-modifier="PUBLIC_METHOD"><ellipse cx="661.96" cy="847.0397" fill="#84BE84" rx="3" ry="3" style="stroke:#038048;stroke-width:1;"/></g><text fill="#000000" font-family="sans-serif" font-size="14" lengthAdjust="spacing" textLength="175.834" x="670.96" y="850.3864">getRemoveBtn() : Button</text><g data-visibility-modifier="PUBLIC_METHOD"><ellipse cx="661.96" cy="863.3366" fill="#84BE84" rx="3" ry="3" style="stroke:#038048;stroke-width:1;"/></g><text fill="#000000" font-family="sans-serif" font-size="14" lengthAdjust="spacing" textLength="165.0264" x="670.96" y="866.6832">getModifyBtn() : Button</text></g><!--class Register<T>--><g class="entity" data-entity="Register.T." data-source-line="5" data-uid="ent0005" id="entity_Register.T."><rect fill="#F1F1F1" height="129.4844" rx="2.5" ry="2.5" style="stroke:#181818;stroke-width:0.5;" width="212.7578" x="387.96" y="720.06"/><ellipse cx="444.9478" cy="736.06" fill="#B4A7E5" rx="11" ry="11" style="stroke:#181818;stroke-width:1;"/><path d="M440.8697,731.8256 L440.8697,729.6694 L448.2603,729.6694 L448.2603,731.8256 L445.7915,731.8256 L445.7915,739.9038 L448.2603,739.9038 L448.2603,742.06 L440.8697,742.06 L440.8697,739.9038 L443.3384,739.9038 L443.3384,731.8256 L440.8697,731.8256 Z " fill="#000000"/><text fill="#000000" font-family="sans-serif" font-size="14" font-style="italic" lengthAdjust="spacing" textLength="90.2822" x="465.4478" y="740.9067">Register&lt;T&gt;</text><line style="stroke:#181818;stroke-width:0.5;" x1="388.96" x2="599.7178" y1="752.06" y2="752.06"/><line style="stroke:#181818;stroke-width:0.5;" x1="388.96" x2="599.7178" y1="760.06" y2="760.06"/><g data-visibility-modifier="PUBLIC_METHOD"><ellipse cx="398.96" cy="773.7084" fill="#84BE84" rx="3" ry="3" style="stroke:#038048;stroke-width:1;"/></g><text fill="#000000" font-family="sans-serif" font-size="14" lengthAdjust="spacing" textLength="93.8711" x="407.96" y="777.0551">add(...) : void</text><g data-visibility-modifier="PUBLIC_METHOD"><ellipse cx="398.96" cy="790.0053" fill="#84BE84" rx="3" ry="3" style="stroke:#038048;stroke-width:1;"/></g><text fill="#000000" font-family="sans-serif" font-size="14" lengthAdjust="spacing" textLength="115.7119" x="407.96" y="793.352">modify(...) : void</text><g data-visibility-modifier="PUBLIC_METHOD"><ellipse cx="398.96" cy="806.3022" fill="#84BE84" rx="3" ry="3" style="stroke:#038048;stroke-width:1;"/></g><text fill="#000000" font-family="sans-serif" font-size="14" lengthAdjust="spacing" textLength="120.9893" x="407.96" y="809.6489">remove(...) : void</text><g data-visibility-modifier="PUBLIC_METHOD"><ellipse cx="398.96" cy="822.5991" fill="#84BE84" rx="3" ry="3" style="stroke:#038048;stroke-width:1;"/></g><text fill="#000000" font-family="sans-serif" font-size="14" lengthAdjust="spacing" textLength="154.4307" x="407.96" y="825.9457">isUnique(...) : boolean</text><g data-visibility-modifier="PUBLIC_METHOD"><ellipse cx="398.96" cy="838.8959" fill="#84BE84" rx="3" ry="3" style="stroke:#038048;stroke-width:1;"/></g><text fill="#000000" font-family="sans-serif" font-size="14" lengthAdjust="spacing" textLength="186.7578" x="407.96" y="842.2426">getRegisterList() : List&lt;T&gt;</text></g><!--class StudentInsertPopupController--><g class="entity" data-entity="StudentInsertPopupController" data-source-line="6" data-uid="ent0007" id="entity_StudentInsertPopupController"><rect fill="#F1F1F1" height="96.8906" rx="2.5" ry="2.5" style="stroke:#181818;stroke-width:0.5;" width="414.6709" x="7" y="367.6"/><ellipse cx="106.0391" cy="383.6" fill="#ADD1B2" rx="11" ry="11" style="stroke:#181818;stroke-width:1;"/><path d="M109.0078,389.2406 Q108.4297,389.5375 107.7891,389.6781 Q107.1484,389.8344 106.4453,389.8344 Q103.9453,389.8344 102.6172,388.1938 Q101.3047,386.5375 101.3047,383.4125 Q101.3047,380.2875 102.6172,378.6313 Q103.9453,376.975 106.4453,376.975 Q107.1484,376.975 107.7891,377.1313 Q108.4453,377.2875 109.0078,377.5844 L109.0078,380.3031 Q108.3828,379.725 107.7891,379.4594 Q107.1953,379.1781 106.5703,379.1781 Q105.2266,379.1781 104.5391,380.2563 Q103.8516,381.3188 103.8516,383.4125 Q103.8516,385.5063 104.5391,386.5844 Q105.2266,387.6469 106.5703,387.6469 Q107.1953,387.6469 107.7891,387.3813 Q108.3828,387.1 109.0078,386.5219 L109.0078,389.2406 Z " fill="#000000"/><text fill="#000000" font-family="sans-serif" font-size="14" lengthAdjust="spacing" textLength="208.0928" x="126.5391" y="388.4467">StudentInsertPopupController</text><line style="stroke:#181818;stroke-width:0.5;" x1="8" x2="420.6709" y1="399.6" y2="399.6"/><g data-visibility-modifier="PRIVATE_FIELD"><rect fill="none" height="6" style="stroke:#C82930;stroke-width:1;" width="6" x="15" y="410.2484"/></g><text fill="#000000" font-family="sans-serif" font-size="14" lengthAdjust="spacing" textLength="345.6865" x="27" y="416.5951">studentRegisterAdder : RegisterAdder&lt;Student&gt;</text><g data-visibility-modifier="PRIVATE_FIELD"><rect fill="none" height="6" style="stroke:#C82930;stroke-width:1;" width="6" x="15" y="426.5453"/></g><text fill="#000000" font-family="sans-serif" font-size="14" lengthAdjust="spacing" textLength="388.6709" x="27" y="432.892">studentRegisterValidator : RegisterValidator&lt;Student&gt;</text><line style="stroke:#181818;stroke-width:0.5;" x1="8" x2="420.6709" y1="440.1938" y2="440.1938"/><g data-visibility-modifier="PUBLIC_METHOD"><ellipse cx="18" cy="453.8422" fill="#84BE84" rx="3" ry="3" style="stroke:#038048;stroke-width:1;"/></g><text fill="#000000" font-family="sans-serif" font-size="14" lengthAdjust="spacing" textLength="232.3672" x="27" y="457.1889">StudentInsertPopupController(...)</text></g><!--class StudentModifyPopupController--><g class="entity" data-entity="StudentModifyPopupController" data-source-line="7" data-uid="ent0010" id="entity_StudentModifyPopupController"><rect fill="#F1F1F1" height="113.1875" rx="2.5" ry="2.5" style="stroke:#181818;stroke-width:0.5;" width="401.4639" x="876.6" y="359.45"/><ellipse cx="965.7953" cy="375.45" fill="#ADD1B2" rx="11" ry="11" style="stroke:#181818;stroke-width:1;"/><path d="M968.7641,381.0906 Q968.1859,381.3875 967.5453,381.5281 Q966.9047,381.6844 966.2016,381.6844 Q963.7016,381.6844 962.3734,380.0438 Q961.0609,378.3875 961.0609,375.2625 Q961.0609,372.1375 962.3734,370.4813 Q963.7016,368.825 966.2016,368.825 Q966.9047,368.825 967.5453,368.9813 Q968.2016,369.1375 968.7641,369.4344 L968.7641,372.1531 Q968.1391,371.575 967.5453,371.3094 Q966.9516,371.0281 966.3266,371.0281 Q964.9828,371.0281 964.2953,372.1063 Q963.6078,373.1688 963.6078,375.2625 Q963.6078,377.3563 964.2953,378.4344 Q964.9828,379.4969 966.3266,379.4969 Q966.9516,379.4969 967.5453,379.2313 Q968.1391,378.95 968.7641,378.3719 L968.7641,381.0906 Z " fill="#000000"/><text fill="#000000" font-family="sans-serif" font-size="14" lengthAdjust="spacing" textLength="214.5732" x="986.2953" y="380.2967">StudentModifyPopupController</text><line style="stroke:#181818;stroke-width:0.5;" x1="877.6" x2="1277.0639" y1="391.45" y2="391.45"/><g data-visibility-modifier="PRIVATE_FIELD"><rect fill="none" height="6" style="stroke:#C82930;stroke-width:1;" width="6" x="884.6" y="402.0984"/></g><text fill="#000000" font-family="sans-serif" font-size="14" lengthAdjust="spacing" textLength="375.4639" x="896.6" y="408.4451">studentRegisterModifier : RegisterModifier&lt;Student&gt;</text><g data-visibility-modifier="PRIVATE_FIELD"><rect fill="none" height="6" style="stroke:#C82930;stroke-width:1;" width="6" x="884.6" y="418.3953"/></g><text fill="#000000" font-family="sans-serif" font-size="14" lengthAdjust="spacing" textLength="185.999" x="896.6" y="424.742">studentToModify : Student</text><line style="stroke:#181818;stroke-width:0.5;" x1="877.6" x2="1277.0639" y1="432.0438" y2="432.0438"/><g data-visibility-modifier="PUBLIC_METHOD"><ellipse cx="887.6" cy="445.6922" fill="#84BE84" rx="3" ry="3" style="stroke:#038048;stroke-width:1;"/></g><text fill="#000000" font-family="sans-serif" font-size="14" lengthAdjust="spacing" textLength="238.8477" x="896.6" y="449.0389">StudentModifyPopupController(...)</text><g data-visibility-modifier="PUBLIC_METHOD"><ellipse cx="887.6" cy="461.9891" fill="#84BE84" rx="3" ry="3" style="stroke:#038048;stroke-width:1;"/></g><text fill="#000000" font-family="sans-serif" font-size="14" lengthAdjust="spacing" textLength="112.5195" x="896.6" y="465.3357">initialize() : void</text></g><!--class RegisterAdder<T>--><g class="entity" data-entity="RegisterAdder.T." data-source-line="9" data-uid="ent0012" id="entity_RegisterAdder.T."><rect fill="#F1F1F1" height="64.2969" rx="2.5" ry="2.5" style="stroke:#181818;stroke-width:0.5;" width="164.002" x="132.33" y="80.34"/><ellipse cx="147.33" cy="96.34" fill="#B4A7E5" rx="11" ry="11" style="stroke:#181818;stroke-width:1;"/><path d="M143.2519,92.1056 L143.2519,89.9494 L150.6425,89.9494 L150.6425,92.1056 L148.1737,92.1056 L148.1737,100.1838 L150.6425,100.1838 L150.6425,102.34 L143.2519,102.34 L143.2519,100.1838 L145.7206,100.1838 L145.7206,92.1056 L143.2519,92.1056 Z " fill="#000000"/><text fill="#000000" font-family="sans-serif" font-size="14" font-style="italic" lengthAdjust="spacing" textLength="132.002" x="161.33" y="101.1867">RegisterAdder&lt;T&gt;</text><line style="stroke:#181818;stroke-width:0.5;" x1="133.33" x2="295.332" y1="112.34" y2="112.34"/><line style="stroke:#181818;stroke-width:0.5;" x1="133.33" x2="295.332" y1="120.34" y2="120.34"/><g data-visibility-modifier="PUBLIC_METHOD"><ellipse cx="143.33" cy="133.9884" fill="#84BE84" rx="3" ry="3" style="stroke:#038048;stroke-width:1;"/></g><text fill="#000000" font-family="sans-serif" font-size="14" lengthAdjust="spacing" textLength="93.8711" x="152.33" y="137.3351">add(...) : void</text></g><!--class RegisterValidator<T>--><g class="entity" data-entity="RegisterValidator.T." data-source-line="10" data-uid="ent0015" id="entity_RegisterValidator.T."><rect fill="#F1F1F1" height="64.2969" rx="2.5" ry="2.5" style="stroke:#181818;stroke-width:0.5;" width="185.4941" x="121.59" y="752.65"/><ellipse cx="136.59" cy="768.65" fill="#B4A7E5" rx="11" ry="11" style="stroke:#181818;stroke-width:1;"/><path d="M132.5119,764.4156 L132.5119,762.2594 L139.9025,762.2594 L139.9025,764.4156 L137.4338,764.4156 L137.4338,772.4938 L139.9025,772.4938 L139.9025,774.65 L132.5119,774.65 L132.5119,772.4938 L134.9806,772.4938 L134.9806,764.4156 L132.5119,764.4156 Z " fill="#000000"/><text fill="#000000" font-family="sans-serif" font-size="14" font-style="italic" lengthAdjust="spacing" textLength="153.4941" x="150.59" y="773.4967">RegisterValidator&lt;T&gt;</text><line style="stroke:#181818;stroke-width:0.5;" x1="122.59" x2="306.0841" y1="784.65" y2="784.65"/><line style="stroke:#181818;stroke-width:0.5;" x1="122.59" x2="306.0841" y1="792.65" y2="792.65"/><g data-visibility-modifier="PUBLIC_METHOD"><ellipse cx="132.59" cy="806.2984" fill="#84BE84" rx="3" ry="3" style="stroke:#038048;stroke-width:1;"/></g><text fill="#000000" font-family="sans-serif" font-size="14" lengthAdjust="spacing" textLength="154.4307" x="141.59" y="809.6451">isUnique(...) : boolean</text></g><!--class StudentPopupController--><g class="entity" data-entity="StudentPopupController" data-source-line="11" data-uid="ent0017" id="entity_StudentPopupController"><rect fill="#F1F1F1" height="210.9688" rx="2.5" ry="2.5" style="stroke:#181818;stroke-width:0.5;" width="214.9248" x="534.87" y="7"/><ellipse cx="556.6138" cy="23" fill="#A9DCDF" rx="11" ry="11" style="stroke:#181818;stroke-width:1;"/><path d="M556.7232,18.3438 L555.567,23.4219 L557.8951,23.4219 L556.7232,18.3438 Z M555.2388,16.1094 L558.2232,16.1094 L561.5826,28.5 L559.1295,28.5 L558.3638,25.4375 L555.0826,25.4375 L554.3326,28.5 L551.8951,28.5 L555.2388,16.1094 Z " fill="#000000"/><text fill="#000000" font-family="sans-serif" font-size="14" font-style="italic" lengthAdjust="spacing" textLength="167.9385" x="572.1125" y="27.8467">StudentPopupController</text><line style="stroke:#181818;stroke-width:0.5;" x1="535.87" x2="748.7948" y1="39" y2="39"/><g data-visibility-modifier="PROTECTED_FIELD"><polygon fill="none" points="545.87,47.6484,549.87,51.6484,545.87,55.6484,541.87,51.6484" style="stroke:#B38D22;stroke-width:1;"/></g><text fill="#000000" font-family="sans-serif" font-size="14" lengthAdjust="spacing" textLength="134.1963" x="554.87" y="55.9951">nameTF : TextField</text><g data-visibility-modifier="PROTECTED_FIELD"><polygon fill="none" points="545.87,63.9453,549.87,67.9453,545.87,71.9453,541.87,67.9453" style="stroke:#B38D22;stroke-width:1;"/></g><text fill="#000000" font-family="sans-serif" font-size="14" lengthAdjust="spacing" textLength="156.1191" x="554.87" y="72.292">surnameTF : TextField</text><g data-visibility-modifier="PROTECTED_FIELD"><polygon fill="none" points="545.87,80.2422,549.87,84.2422,545.87,88.2422,541.87,84.2422" style="stroke:#B38D22;stroke-width:1;"/></g><text fill="#000000" font-family="sans-serif" font-size="14" lengthAdjust="spacing" textLength="161.0273" x="554.87" y="88.5889">studentIdTF : TextField</text><g data-visibility-modifier="PROTECTED_FIELD"><polygon fill="none" points="545.87,96.5391,549.87,100.5391,545.87,104.5391,541.87,100.5391" style="stroke:#B38D22;stroke-width:1;"/></g><text fill="#000000" font-family="sans-serif" font-size="14" lengthAdjust="spacing" textLength="133.1025" x="554.87" y="104.8857">emailTF : TextField</text><g data-visibility-modifier="PROTECTED_FIELD"><polygon fill="none" points="545.87,112.8359,549.87,116.8359,545.87,120.8359,541.87,116.8359" style="stroke:#B38D22;stroke-width:1;"/></g><text fill="#000000" font-family="sans-serif" font-size="14" lengthAdjust="spacing" textLength="137.8262" x="554.87" y="121.1826">confirmBtn : Button</text><g data-visibility-modifier="PROTECTED_FIELD"><polygon fill="none" points="545.87,129.1328,549.87,133.1328,545.87,137.1328,541.87,133.1328" style="stroke:#B38D22;stroke-width:1;"/></g><text fill="#000000" font-family="sans-serif" font-size="14" lengthAdjust="spacing" textLength="129.8281" x="554.87" y="137.4795">cancelBtn : Button</text><line style="stroke:#181818;stroke-width:0.5;" x1="535.87" x2="748.7948" y1="144.7813" y2="144.7813"/><g data-visibility-modifier="PUBLIC_METHOD"><ellipse cx="545.87" cy="158.4297" fill="#84BE84" rx="3" ry="3" style="stroke:#038048;stroke-width:1;"/></g><text fill="#000000" font-family="sans-serif" font-size="14" lengthAdjust="spacing" textLength="112.5195" x="554.87" y="161.7764">initialize() : void</text><g data-visibility-modifier="PUBLIC_METHOD"><ellipse cx="545.87" cy="174.7266" fill="#84BE84" rx="3" ry="3" style="stroke:#038048;stroke-width:1;"/></g><text fill="#000000" font-family="sans-serif" font-size="14" font-style="italic" lengthAdjust="spacing" textLength="188.9248" x="554.87" y="178.0732">confirmBtnAction(...) : void</text><g data-visibility-modifier="PUBLIC_METHOD"><ellipse cx="545.87" cy="191.0234" fill="#84BE84" rx="3" ry="3" style="stroke:#038048;stroke-width:1;"/></g><text fill="#000000" font-family="sans-serif" font-size="14" lengthAdjust="spacing" textLength="180.9268" x="554.87" y="194.3701">cancelBtnAction(...) : void</text><g data-visibility-modifier="PROTECTED_METHOD"><polygon fill="#FFFF44" points="545.87,202.3203,549.87,206.3203,545.87,210.3203,541.87,206.3203" style="stroke:#B38D22;stroke-width:1;"/></g><text fill="#000000" font-family="sans-serif" font-size="14" lengthAdjust="spacing" textLength="137.0264" x="554.87" y="210.667">showAlert(...) : void</text></g><!--class RegisterModifier<T>--><g class="entity" data-entity="RegisterModifier.T." data-source-line="14" data-uid="ent0020" id="entity_RegisterModifier.T."><rect fill="#F1F1F1" height="64.2969" rx="2.5" ry="2.5" style="stroke:#181818;stroke-width:0.5;" width="178.8906" x="987.89" y="80.34"/><ellipse cx="1002.89" cy="96.34" fill="#B4A7E5" rx="11" ry="11" style="stroke:#181818;stroke-width:1;"/><path d="M998.8119,92.1056 L998.8119,89.9494 L1006.2025,89.9494 L1006.2025,92.1056 L1003.7338,92.1056 L1003.7338,100.1838 L1006.2025,100.1838 L1006.2025,102.34 L998.8119,102.34 L998.8119,100.1838 L1001.2806,100.1838 L1001.2806,92.1056 L998.8119,92.1056 Z " fill="#000000"/><text fill="#000000" font-family="sans-serif" font-size="14" font-style="italic" lengthAdjust="spacing" textLength="146.8906" x="1016.89" y="101.1867">RegisterModifier&lt;T&gt;</text><line style="stroke:#181818;stroke-width:0.5;" x1="988.89" x2="1165.7806" y1="112.34" y2="112.34"/><line style="stroke:#181818;stroke-width:0.5;" x1="988.89" x2="1165.7806" y1="120.34" y2="120.34"/><g data-visibility-modifier="PUBLIC_METHOD"><ellipse cx="998.89" cy="133.9884" fill="#84BE84" rx="3" ry="3" style="stroke:#038048;stroke-width:1;"/></g><text fill="#000000" font-family="sans-serif" font-size="14" lengthAdjust="spacing" textLength="115.7119" x="1007.89" y="137.3351">modify(...) : void</text></g><!--class Student--><g class="entity" data-entity="Student" data-source-line="16" data-uid="ent0025" id="entity_Student"><rect fill="#F1F1F1" height="341.3438" rx="2.5" ry="2.5" style="stroke:#181818;stroke-width:0.5;" width="239.9443" x="957.36" y="614.13"/><ellipse cx="1045.5265" cy="630.13" fill="#ADD1B2" rx="11" ry="11" style="stroke:#181818;stroke-width:1;"/><path d="M1048.4953,635.7706 Q1047.9171,636.0675 1047.2765,636.2081 Q1046.6359,636.3644 1045.9328,636.3644 Q1043.4328,636.3644 1042.1046,634.7238 Q1040.7921,633.0675 1040.7921,629.9425 Q1040.7921,626.8175 1042.1046,625.1613 Q1043.4328,623.505 1045.9328,623.505 Q1046.6359,623.505 1047.2765,623.6613 Q1047.9328,623.8175 1048.4953,624.1144 L1048.4953,626.8331 Q1047.8703,626.255 1047.2765,625.9894 Q1046.6828,625.7081 1046.0578,625.7081 Q1044.714,625.7081 1044.0265,626.7863 Q1043.339,627.8488 1043.339,629.9425 Q1043.339,632.0363 1044.0265,633.1144 Q1044.714,634.1769 1046.0578,634.1769 Q1046.6828,634.1769 1047.2765,633.9113 Q1047.8703,633.63 1048.4953,633.0519 L1048.4953,635.7706 Z " fill="#000000"/><text fill="#000000" font-family="sans-serif" font-size="14" lengthAdjust="spacing" textLength="55.1113" x="1066.0265" y="634.9767">Student</text><line style="stroke:#181818;stroke-width:0.5;" x1="958.36" x2="1196.3043" y1="646.13" y2="646.13"/><g data-visibility-modifier="PRIVATE_FIELD"><rect fill="none" height="6" style="stroke:#C82930;stroke-width:1;" width="6" x="965.36" y="656.7784"/></g><text fill="#000000" font-family="sans-serif" font-size="14" lengthAdjust="spacing" textLength="95.1016" x="977.36" y="663.1251">name : String</text><g data-visibility-modifier="PRIVATE_FIELD"><rect fill="none" height="6" style="stroke:#C82930;stroke-width:1;" width="6" x="965.36" y="673.0753"/></g><text fill="#000000" font-family="sans-serif" font-size="14" lengthAdjust="spacing" textLength="117.0244" x="977.36" y="679.422">surname : String</text><g data-visibility-modifier="PRIVATE_FIELD"><rect fill="none" height="6" style="stroke:#C82930;stroke-width:1;" width="6" x="965.36" y="689.3722"/></g><text fill="#000000" font-family="sans-serif" font-size="14" lengthAdjust="spacing" textLength="208.0996" x="977.36" y="695.7189">studentId : String {readOnly}</text><g data-visibility-modifier="PRIVATE_FIELD"><rect fill="none" height="6" style="stroke:#C82930;stroke-width:1;" width="6" x="965.36" y="705.6691"/></g><text fill="#000000" font-family="sans-serif" font-size="14" lengthAdjust="spacing" textLength="94.0078" x="977.36" y="712.0157">email : String</text><g data-visibility-modifier="PRIVATE_FIELD"><rect fill="none" height="6" style="stroke:#C82930;stroke-width:1;" width="6" x="965.36" y="721.9659"/></g><text fill="#000000" font-family="sans-serif" font-size="14" lengthAdjust="spacing" textLength="179.0332" x="977.36" y="728.3126">activeLoans : List&lt;Loan&gt;</text><line style="stroke:#181818;stroke-width:0.5;" x1="958.36" x2="1196.3043" y1="735.6144" y2="735.6144"/><g data-visibility-modifier="PUBLIC_METHOD"><ellipse cx="968.36" cy="749.2628" fill="#84BE84" rx="3" ry="3" style="stroke:#038048;stroke-width:1;"/></g><text fill="#000000" font-family="sans-serif" font-size="14" lengthAdjust="spacing" textLength="79.3857" x="977.36" y="752.6095">Student(...)</text><g data-visibility-modifier="PUBLIC_METHOD"><ellipse cx="968.36" cy="765.5597" fill="#84BE84" rx="3" ry="3" style="stroke:#038048;stroke-width:1;"/></g><text fill="#000000" font-family="sans-serif" font-size="14" lengthAdjust="spacing" textLength="130.6143" x="977.36" y="768.9064">getName() : String</text><g data-visibility-modifier="PUBLIC_METHOD"><ellipse cx="968.36" cy="781.8566" fill="#84BE84" rx="3" ry="3" style="stroke:#038048;stroke-width:1;"/></g><text fill="#000000" font-family="sans-serif" font-size="14" lengthAdjust="spacing" textLength="152.5303" x="977.36" y="785.2032">getSurname() : String</text><g data-visibility-modifier="PUBLIC_METHOD"><ellipse cx="968.36" cy="798.1534" fill="#84BE84" rx="3" ry="3" style="stroke:#038048;stroke-width:1;"/></g><text fill="#000000" font-family="sans-serif" font-size="14" lengthAdjust="spacing" textLength="157.4385" x="977.36" y="801.5001">getStudentId() : String</text><g data-visibility-modifier="PUBLIC_METHOD"><ellipse cx="968.36" cy="814.4503" fill="#84BE84" rx="3" ry="3" style="stroke:#038048;stroke-width:1;"/></g><text fill="#000000" font-family="sans-serif" font-size="14" lengthAdjust="spacing" textLength="128.1533" x="977.36" y="817.797">getEmail() : String</text><g data-visibility-modifier="PUBLIC_METHOD"><ellipse cx="968.36" cy="830.7472" fill="#84BE84" rx="3" ry="3" style="stroke:#038048;stroke-width:1;"/></g><text fill="#000000" font-family="sans-serif" font-size="14" lengthAdjust="spacing" textLength="213.9443" x="977.36" y="834.0939">getActiveLoans() : List&lt;Loan&gt;</text><g data-visibility-modifier="PUBLIC_METHOD"><ellipse cx="968.36" cy="847.0441" fill="#84BE84" rx="3" ry="3" style="stroke:#038048;stroke-width:1;"/></g><text fill="#000000" font-family="sans-serif" font-size="14" lengthAdjust="spacing" textLength="100.9531" x="977.36" y="850.3907">copy(...) : void</text><g data-visibility-modifier="PUBLIC_METHOD"><ellipse cx="968.36" cy="863.3409" fill="#84BE84" rx="3" ry="3" style="stroke:#038048;stroke-width:1;"/></g><text fill="#000000" font-family="sans-serif" font-size="14" lengthAdjust="spacing" textLength="171.2402" x="977.36" y="866.6876">addActiveLoan(...) : void</text><g data-visibility-modifier="PUBLIC_METHOD"><ellipse cx="968.36" cy="879.6378" fill="#84BE84" rx="3" ry="3" style="stroke:#038048;stroke-width:1;"/></g><text fill="#000000" font-family="sans-serif" font-size="14" lengthAdjust="spacing" textLength="198.3584" x="977.36" y="882.9845">removeActiveLoan(...) : void</text><g data-visibility-modifier="PUBLIC_METHOD"><ellipse cx="968.36" cy="895.9347" fill="#84BE84" rx="3" ry="3" style="stroke:#038048;stroke-width:1;"/></g><text fill="#000000" font-family="sans-serif" font-size="14" lengthAdjust="spacing" textLength="126.5195" x="977.36" y="899.2814">isValid() : boolean</text><g data-visibility-modifier="PUBLIC_METHOD"><ellipse cx="968.36" cy="912.2316" fill="#84BE84" rx="3" ry="3" style="stroke:#038048;stroke-width:1;"/></g><text fill="#000000" font-family="sans-serif" font-size="14" lengthAdjust="spacing" textLength="212.0781" x="977.36" y="915.5782">isAvailableForLoan() : boolean</text><g data-visibility-modifier="PRIVATE_METHOD"><rect fill="#F24D5C" height="6" style="stroke:#C82930;stroke-width:1;" width="6" x="965.36" y="925.5284"/></g><text fill="#000000" font-family="sans-serif" font-size="14" lengthAdjust="spacing" textLength="207.9971" x="977.36" y="931.8751">isStudentIdValid(...) : boolean</text><g data-visibility-modifier="PRIVATE_METHOD"><rect fill="#F24D5C" height="6" style="stroke:#C82930;stroke-width:1;" width="6" x="965.36" y="941.8253"/></g><text fill="#000000" font-family="sans-serif" font-size="14" lengthAdjust="spacing" textLength="178.7119" x="977.36" y="948.172">isEmailValid(...) : boolean</text></g><!--link StudentRegisterController to SideBarController--><g class="link" data-entity-1="StudentRegisterController" data-entity-2="SideBarController" data-link-type="dependency" data-source-line="4" data-uid="lnk4" id="link_StudentRegisterController_SideBarController"><path codeLine="4" d="M692.4,554.39 C707.2,601.57 721.5542,647.3751 734.8042,689.6151" fill="none" id="StudentRegisterController-to-SideBarController" style="stroke:#181818;stroke-width:1;"/><polygon fill="#181818" points="736.6,695.34,737.7229,685.5554,735.1035,690.5692,730.0896,687.9498,736.6,695.34" style="stroke:#181818;stroke-width:1;"/><text fill="#000000" font-family="sans-serif" font-size="13" lengthAdjust="spacing" textLength="8.271" x="686.4215" y="573.9803">1</text><text fill="#000000" font-family="sans-serif" font-size="13" lengthAdjust="spacing" textLength="8.271" x="726.0819" y="684.6859">1</text></g><!--link StudentRegisterController to Register<T>--><g class="link" data-entity-1="StudentRegisterController" data-entity-2="Register.T." data-link-type="dependency" data-source-line="5" data-uid="lnk6" id="link_StudentRegisterController_Register.T."><path codeLine="5" d="M591.29,554.39 C567.31,611.13 543.0051,668.623 523.7351,714.233" fill="none" id="StudentRegisterController-to-Register&lt;T&gt;" style="stroke:#181818;stroke-width:1;"/><polygon fill="#181818" points="521.4,719.76,528.5873,713.0263,523.3459,715.1542,521.218,709.9128,521.4,719.76" style="stroke:#181818;stroke-width:1;"/><text fill="#000000" font-family="sans-serif" font-size="13" lengthAdjust="spacing" textLength="8.271" x="580.098" y="573.9803">1</text><text fill="#000000" font-family="sans-serif" font-size="13" lengthAdjust="spacing" textLength="8.271" x="515.9371" y="708.8999">1</text></g><!--reverse link StudentInsertPopupController to StudentRegisterController--><g class="link" data-entity-1="StudentInsertPopupController" data-entity-2="StudentRegisterController" data-link-type="dependency" data-source-line="6" data-uid="lnk9" id="link_StudentInsertPopupController_StudentRegisterController"><path codeLine="6" d="M428.06,416.05 C444.64,416.05 455.21,416.05 471.78,416.05" fill="none" id="StudentInsertPopupController-backto-StudentRegisterController" style="stroke:#181818;stroke-width:1;stroke-dasharray:7,7;"/><polygon fill="#181818" points="422.06,416.05,431.06,420.05,427.06,416.05,431.06,412.05,422.06,416.05" style="stroke:#181818;stroke-width:1;"/></g><!--link StudentRegisterController to StudentModifyPopupController--><g class="link" data-entity-1="StudentRegisterController" data-entity-2="StudentModifyPopupController" data-link-type="dependency" data-source-line="7" data-uid="lnk11" id="link_StudentRegisterController_StudentModifyPopupController"><path codeLine="7" d="M826.97,416.05 C843.43,416.05 853.9,416.05 870.36,416.05" fill="none" id="StudentRegisterController-to-StudentModifyPopupController" style="stroke:#181818;stroke-width:1;stroke-dasharray:7,7;"/><polygon fill="#181818" points="876.36,416.05,867.36,412.05,871.36,416.05,867.36,420.05,876.36,416.05" style="stroke:#181818;stroke-width:1;"/></g><!--reverse link RegisterAdder<T> to StudentInsertPopupController--><g class="link" data-entity-1="RegisterAdder.T." data-entity-2="StudentInsertPopupController" data-link-type="dependency" data-source-line="9" data-uid="lnk14" id="link_RegisterAdder.T._StudentInsertPopupController"><path codeLine="9" d="M214.34,150.9 C214.34,203.78 214.34,304.86 214.34,367.15" fill="none" id="RegisterAdder&lt;T&gt;-backto-StudentInsertPopupController" style="stroke:#181818;stroke-width:1;"/><polygon fill="#181818" points="214.34,144.9,210.34,153.9,214.34,149.9,218.34,153.9,214.34,144.9" style="stroke:#181818;stroke-width:1;"/><text fill="#000000" font-family="sans-serif" font-size="13" lengthAdjust="spacing" textLength="8.271" x="205.605" y="164.5877">1</text><text fill="#000000" font-family="sans-serif" font-size="13" lengthAdjust="spacing" textLength="8.271" x="205.8213" y="356.6477">1</text></g><!--link StudentInsertPopupController to RegisterValidator<T>--><g class="link" data-entity-1="StudentInsertPopupController" data-entity-2="RegisterValidator.T." data-link-type="dependency" data-source-line="10" data-uid="lnk16" id="link_StudentInsertPopupController_RegisterValidator.T."><path codeLine="10" d="M214.34,464.62 C214.34,540.79 214.34,682.08 214.34,746.43" fill="none" id="StudentInsertPopupController-to-RegisterValidator&lt;T&gt;" style="stroke:#181818;stroke-width:1;"/><polygon fill="#181818" points="214.34,752.43,218.34,743.43,214.34,747.43,210.34,743.43,214.34,752.43" style="stroke:#181818;stroke-width:1;"/><text fill="#000000" font-family="sans-serif" font-size="13" lengthAdjust="spacing" textLength="8.271" x="205.7972" y="484.5817">1</text><text fill="#000000" font-family="sans-serif" font-size="13" lengthAdjust="spacing" textLength="8.271" x="205.5798" y="741.6609">1</text></g><!--reverse link StudentPopupController to StudentInsertPopupController--><g class="link" data-entity-1="StudentPopupController" data-entity-2="StudentInsertPopupController" data-link-type="extension" data-source-line="11" data-uid="lnk19" id="link_StudentPopupController_StudentInsertPopupController"><path codeLine="11" d="M519.8955,199.7574 C440.6555,255.5874 350.07,319.41 282.24,367.2" fill="none" id="StudentPopupController-backto-StudentInsertPopupController" style="stroke:#181818;stroke-width:1;"/><polygon fill="none" points="534.61,189.39,516.4397,194.8525,523.3513,204.6622,534.61,189.39" style="stroke:#181818;stroke-width:1;"/></g><!--reverse link RegisterModifier<T> to StudentModifyPopupController--><g class="link" data-entity-1="RegisterModifier.T." data-entity-2="StudentModifyPopupController" data-link-type="dependency" data-source-line="14" data-uid="lnk22" id="link_RegisterModifier.T._StudentModifyPopupController"><path codeLine="14" d="M1077.34,150.9 C1077.34,201.59 1077.34,296.09 1077.34,359.2" fill="none" id="RegisterModifier&lt;T&gt;-backto-StudentModifyPopupController" style="stroke:#181818;stroke-width:1;"/><polygon fill="#181818" points="1077.34,144.9,1073.34,153.9,1077.34,149.9,1081.34,153.9,1077.34,144.9" style="stroke:#181818;stroke-width:1;"/><text fill="#000000" font-family="sans-serif" font-size="13" lengthAdjust="spacing" textLength="8.271" x="1068.6042" y="164.5877">1</text><text fill="#000000" font-family="sans-serif" font-size="13" lengthAdjust="spacing" textLength="8.271" x="1068.87" y="348.4331">1</text></g><!--reverse link StudentPopupController to StudentModifyPopupController--><g class="link" data-entity-1="StudentPopupController" data-entity-2="StudentModifyPopupController" data-link-type="extension" data-source-line="15" data-uid="lnk24" id="link_StudentPopupController_StudentModifyPopupController"><path codeLine="15" d="M764.9333,198.4747 C841.3033,251.4147 927.31,311.04 996.74,359.18" fill="none" id="StudentPopupController-backto-StudentModifyPopupController" style="stroke:#181818;stroke-width:1;"/><polygon fill="none" points="750.14,188.22,761.515,203.4058,768.3515,193.5437,750.14,188.22" style="stroke:#181818;stroke-width:1;"/></g><!--link StudentModifyPopupController to Student--><g class="link" data-entity-1="StudentModifyPopupController" data-entity-2="Student" data-link-type="dependency" data-source-line="16" data-uid="lnk26" id="link_StudentModifyPopupController_Student"><path codeLine="16" d="M1077.34,472.75 C1077.34,510.62 1077.34,556.92 1077.34,607.83" fill="none" id="StudentModifyPopupController-to-Student" style="stroke:#181818;stroke-width:1;"/><polygon fill="#181818" points="1077.34,613.83,1081.34,604.83,1077.34,608.83,1073.34,604.83,1077.34,613.83" style="stroke:#181818;stroke-width:1;"/><text fill="#000000" font-family="sans-serif" font-size="13" lengthAdjust="spacing" textLength="8.271" x="1068.87" y="492.6501">1</text><text fill="#000000" font-family="sans-serif" font-size="13" lengthAdjust="spacing" textLength="8.271" x="1069.1652" y="602.8129">1</text></g><!--SRC=[bLR1Rjim3BtxAupqi1PRWksmIr4OI8i56D1kmvhshjXiAzIMF5bErsNvzyco94iAxMQv9F7Z4n-bHyhDCsKr4QHA6I-WWJhz_35vzqGBI2keDY2Q9BcLRG5C_eH7saWGLvn9mSiIH3hxD4ldnJpJFsQtYdL9F7nsDDK6NAopATAYN6IfWR-o1eJymUks7YAck6BWtl22Fhp6t6HgvLvm6mjU5aMeUe9yKEqzAMb193zY0PNvhvD_83oPgcj4kOwbeNYSFvdxxSosR1EP97b9ciR-JNT9gZxpb94AqdFrM53sQ9urhK0Vcvqg793k193YEojVzoO6AaBBc4XoIRTmpGbh57Ijzk6Y-vCb6dzlDPqk5eipy-WHv3SbuVGiN4i3jxqy7BCQKVHBfmv5beD4ZNiY-vYSrwzQe0Atd1RcCIcAWOhW0Yg-XSaGscX3whGRpaiWp27BhH9CDYMikD3qE6YkWbpD_JecGnobQqSZzab2cRBc0yaXd0d69RfCH7cbtJTQDLhh7QE_Mi14wdEmsRlz7mvYdOs8T7DWL2dEyxlGKP5oS7OmG1nzhBQzQxruKBicLA8l9LESorPARi-i0IBo9yLOhnIqXjzoHQ4i3DhlCKBhomW0p-SwazvPZzItpf1Eus52Spec9xh0ZKtie_jey21Nn2wSB-lExrt-xlkUmik5eMRUoBegAnjonSksOZReWsdjB9nbnyVRPZgQeKVU_wvljq6HNCD5PJO7TZa_j50qGWztrn-gb559bNV_zBFJwyksLdu6j-CXF4zv3Sox837OkubYk7VgIl3AoeiZZDCvVpxrMuzi6YdKvP463eflkzu-9zeMIAUSM0lWc3rk5DL7Yo8vPmzKL0Vjfn32SYYnzXlV_fsjTEyjt5qQ7BimN8QH25NL4tzPghsHyJ0BDX9_vTdXHjMJrdDhFtbZouOSDoSztZ0x7JUqCAggTt5S0FxsCrA07VcU5dSBu6MiUPz0lowObwX0Afh_hORR_mC0]--></g></svg>