<svg xmlns="http://www.w3.org/2000/svg" xmlns:xlink="http://www.w3.org/1999/xlink" contentStyleType="text/css" data-diagram-type="SEQUENCE" height="448px" preserveAspectRatio="none" style="width:671px;height:448px;background:#FFFFFF;" version="1.1" viewBox="0 0 671 448" width="671px" zoomAndPan="magnify"><defs/><g><rect fill="none" height="164.7969" style="stroke:#000000;stroke-width:1.5;" width="655.0659" x="10" y="156.5625"/><rect fill="none" height="46.2656" style="stroke:#000000;stroke-width:1.5;" width="516.3701" x="20" y="268.0938"/><g><title>Admin</title><rect fill="#000000" fill-opacity="0.00000" height="286.1953" width="8" x="51.4321" y="81.2969"/><line style="stroke:#181818;stroke-width:0.5;stroke-dasharray:5,5;" x1="55" x2="55" y1="81.2969" y2="367.4922"/></g><g><title>.u..BookRegisterController</title><rect fill="#000000" fill-opacity="0.00000" height="286.1953" width="8" x="215.3281" y="81.2969"/><line style="stroke:#181818;stroke-width:0.5;stroke-dasharray:5,5;" x1="218.8271" x2="218.8271" y1="81.2969" y2="367.4922"/></g><g><title>.u..BookInsertPopupController</title><rect fill="#000000" fill-opacity="0.00000" height="286.1953" width="8" x="419.0996" y="81.2969"/><line style="stroke:#181818;stroke-width:0.5;stroke-dasharray:5,5;" x1="422.8291" x2="422.8291" y1="81.2969" y2="367.4922"/></g><g><title>.u..BookRegister</title><rect fill="#000000" fill-opacity="0.00000" height="286.1953" width="8" x="595.1514" y="81.2969"/><line style="stroke:#181818;stroke-width:0.5;stroke-dasharray:5,5;" x1="598.2368" x2="598.2368" y1="81.2969" y2="367.4922"/></g><g class="participant participant-head" data-participant="Admin"><text fill="#000000" font-family="sans-serif" font-size="14" lengthAdjust="spacing" textLength="44.8643" x="30" y="77.9951">Admin</text><ellipse cx="55.4321" cy="13.5" fill="#E2E2F0" rx="8" ry="8" style="stroke:#181818;stroke-width:0.5;"/><path d="M55.4321,21.5 L55.4321,48.5 M42.4321,29.5 L68.4321,29.5 M55.4321,48.5 L42.4321,63.5 M55.4321,48.5 L68.4321,63.5" fill="none" style="stroke:#181818;stroke-width:0.5;"/></g><g class="participant participant-tail" data-participant="Admin"><text fill="#000000" font-family="sans-serif" font-size="14" lengthAdjust="spacing" textLength="44.8643" x="30" y="379.4873">Admin</text><ellipse cx="55.4321" cy="391.2891" fill="#E2E2F0" rx="8" ry="8" style="stroke:#181818;stroke-width:0.5;"/><path d="M55.4321,399.2891 L55.4321,426.2891 M42.4321,407.2891 L68.4321,407.2891 M55.4321,426.2891 L42.4321,441.2891 M55.4321,426.2891 L68.4321,441.2891" fill="none" style="stroke:#181818;stroke-width:0.5;"/></g><g class="participant participant-head" data-participant="BookRegisterController"><rect fill="#E2E2F0" height="30.2969" rx="2.5" ry="2.5" style="stroke:#181818;stroke-width:0.5;" width="181.002" x="128.8271" y="50"/><text fill="#000000" font-family="sans-serif" font-size="14" lengthAdjust="spacing" text-decoration="underline" textLength="167.002" x="135.8271" y="69.9951">:BookRegisterController</text></g><g class="participant participant-tail" data-participant="BookRegisterController"><rect fill="#E2E2F0" height="30.2969" rx="2.5" ry="2.5" style="stroke:#181818;stroke-width:0.5;" width="181.002" x="128.8271" y="366.4922"/><text fill="#000000" font-family="sans-serif" font-size="14" lengthAdjust="spacing" text-decoration="underline" textLength="167.002" x="135.8271" y="386.4873">:BookRegisterController</text></g><g class="participant participant-head" data-participant="BookInsertPopupController"><rect fill="#E2E2F0" height="30.2969" rx="2.5" ry="2.5" style="stroke:#181818;stroke-width:0.5;" width="206.541" x="319.8291" y="50"/><text fill="#000000" font-family="sans-serif" font-size="14" lengthAdjust="spacing" text-decoration="underline" textLength="192.541" x="326.8291" y="69.9951">:BookInsertPopupController</text></g><g class="participant participant-tail" data-participant="BookInsertPopupController"><rect fill="#E2E2F0" height="30.2969" rx="2.5" ry="2.5" style="stroke:#181818;stroke-width:0.5;" width="206.541" x="319.8291" y="366.4922"/><text fill="#000000" font-family="sans-serif" font-size="14" lengthAdjust="spacing" text-decoration="underline" textLength="192.541" x="326.8291" y="386.4873">:BookInsertPopupController</text></g><g class="participant participant-head" data-participant="BookRegister"><rect fill="#E2E2F0" height="30.2969" rx="2.5" ry="2.5" style="stroke:#181818;stroke-width:0.5;" width="111.8291" x="543.2368" y="50"/><text fill="#000000" font-family="sans-serif" font-size="14" lengthAdjust="spacing" text-decoration="underline" textLength="97.8291" x="550.2368" y="69.9951">:BookRegister</text></g><g class="participant participant-tail" data-participant="BookRegister"><rect fill="#E2E2F0" height="30.2969" rx="2.5" ry="2.5" style="stroke:#181818;stroke-width:0.5;" width="111.8291" x="543.2368" y="366.4922"/><text fill="#000000" font-family="sans-serif" font-size="14" lengthAdjust="spacing" text-decoration="underline" textLength="97.8291" x="550.2368" y="386.4873">:BookRegister</text></g><g class="message" data-participant-1="Admin" data-participant-2="BookRegisterController"><polygon fill="#181818" points="207.3281,108.4297,217.3281,112.4297,207.3281,116.4297,211.3281,112.4297" style="stroke:#181818;stroke-width:1;"/><line style="stroke:#181818;stroke-width:1;" x1="55.4321" x2="213.3281" y1="112.4297" y2="112.4297"/><text fill="#000000" font-family="sans-serif" font-size="13" lengthAdjust="spacing" textLength="120.4087" x="62.4321" y="107.3638">openInsertPopup()</text></g><g class="message" data-participant-1="BookRegisterController" data-participant-2="Admin"><polygon fill="#181818" points="66.4321,137.5625,56.4321,141.5625,66.4321,145.5625,62.4321,141.5625" style="stroke:#181818;stroke-width:1;"/><line style="stroke:#181818;stroke-width:1;stroke-dasharray:2,2;" x1="60.4321" x2="218.3281" y1="141.5625" y2="141.5625"/><text fill="#000000" font-family="sans-serif" font-size="13" lengthAdjust="spacing" textLength="139.896" x="72.4321" y="136.4966">"Shows Insert Popup"</text></g><path d="M10,156.5625 L86.624,156.5625 L86.624,163.6953 L76.624,173.6953 L10,173.6953 L10,156.5625" fill="#EEEEEE" style="stroke:#000000;stroke-width:1.5;"/><rect fill="none" height="164.7969" style="stroke:#000000;stroke-width:1.5;" width="655.0659" x="10" y="156.5625"/><text fill="#000000" font-family="sans-serif" font-size="13" font-weight="bold" lengthAdjust="spacing" textLength="31.624" x="25" y="169.6294">loop</text><text fill="#000000" font-family="sans-serif" font-size="11" font-weight="bold" lengthAdjust="spacing" textLength="94.2412" x="101.624" y="168.7729">[BookNotValid]</text><g class="message" data-participant-1="Admin" data-participant-2="BookInsertPopupController"><polygon fill="#181818" points="411.0996,190.8281,421.0996,194.8281,411.0996,198.8281,415.0996,194.8281" style="stroke:#181818;stroke-width:1;"/><line style="stroke:#181818;stroke-width:1;" x1="55.4321" x2="417.0996" y1="194.8281" y2="194.8281"/><text fill="#000000" font-family="sans-serif" font-size="13" lengthAdjust="spacing" textLength="159.9038" x="62.4321" y="189.7622">confirmBtnAction(event)</text></g><g class="message" data-participant-1="BookInsertPopupController" data-participant-2="BookRegister"><polygon fill="#181818" points="587.1514,219.9609,597.1514,223.9609,587.1514,227.9609,591.1514,223.9609" style="stroke:#181818;stroke-width:1;"/><line style="stroke:#181818;stroke-width:1;" x1="423.0996" x2="593.1514" y1="223.9609" y2="223.9609"/><text fill="#000000" font-family="sans-serif" font-size="13" lengthAdjust="spacing" textLength="152.0518" x="430.0996" y="218.895">isUnique(insertedBook)</text></g><g class="message" data-participant-1="BookRegister" data-participant-2="BookInsertPopupController"><polygon fill="#181818" points="434.0996,249.0938,424.0996,253.0938,434.0996,257.0938,430.0996,253.0938" style="stroke:#181818;stroke-width:1;"/><line style="stroke:#181818;stroke-width:1;stroke-dasharray:2,2;" x1="428.0996" x2="598.1514" y1="253.0938" y2="253.0938"/><text fill="#000000" font-family="sans-serif" font-size="13" lengthAdjust="spacing" textLength="37.064" x="440.0996" y="248.0278">result</text></g><path d="M20,268.0938 L89.4512,268.0938 L89.4512,275.2266 L79.4512,285.2266 L20,285.2266 L20,268.0938" fill="#EEEEEE" style="stroke:#000000;stroke-width:1.5;"/><rect fill="none" height="46.2656" style="stroke:#000000;stroke-width:1.5;" width="516.3701" x="20" y="268.0938"/><text fill="#000000" font-family="sans-serif" font-size="13" font-weight="bold" lengthAdjust="spacing" textLength="24.4512" x="35" y="281.1606">opt</text><text fill="#000000" font-family="sans-serif" font-size="11" font-weight="bold" lengthAdjust="spacing" textLength="94.2412" x="104.4512" y="280.3042">[BookNotValid]</text><g class="message" data-participant-1="BookInsertPopupController" data-participant-2="Admin"><polygon fill="#181818" points="66.4321,302.3594,56.4321,306.3594,66.4321,310.3594,62.4321,306.3594" style="stroke:#181818;stroke-width:1;"/><line style="stroke:#181818;stroke-width:1;stroke-dasharray:2,2;" x1="60.4321" x2="422.0996" y1="306.3594" y2="306.3594"/><text fill="#000000" font-family="sans-serif" font-size="13" lengthAdjust="spacing" textLength="125.2202" x="72.4321" y="301.2935">"Shows Error Alert"</text></g><g class="message" data-participant-1="BookInsertPopupController" data-participant-2="BookRegister"><polygon fill="#181818" points="587.1514,345.4922,597.1514,349.4922,587.1514,353.4922,591.1514,349.4922" style="stroke:#181818;stroke-width:1;"/><line style="stroke:#181818;stroke-width:1;" x1="423.0996" x2="593.1514" y1="349.4922" y2="349.4922"/><text fill="#000000" font-family="sans-serif" font-size="13" lengthAdjust="spacing" textLength="120.2817" x="430.0996" y="344.4263">add(insertedBook)</text></g><!--SRC=[bPBDReCm48JlVeeLbz03Bu2YID1O5HAG5aeFlLdWjbQ9rxMNzlNBpwKa3b8FbYpDphSpbdV7B7ceag98u9X1pPyQNhwETvxdkwoiUPKLl7m-JM9JGfwbrOanqH9QIBgpqemPOKcroWXD4Eo7GvmYVbRoNJcIzXurMUnxQGCG3loI7v5f9oqzeXcCX-9LjxDS9M1ihW3HuKOmY06Dr7zsXNVincWqKXPS347zWJyE5X_Cne3rY6RUKoAzY5vrw-tUGYEhHVscx3abdRIaK8VoMsfQOlWz5tL6XdADLb-33DLiaDsaRo7sKNJ9iD8DFJ4qj2wnaUFwHRYrqySPLGgOrDry_jD4TDswn2y0]--></g></svg>