<svg xmlns="http://www.w3.org/2000/svg" xmlns:xlink="http://www.w3.org/1999/xlink" contentStyleType="text/css" data-diagram-type="SEQUENCE" height="477px" preserveAspectRatio="none" style="width:944px;height:477px;background:#FFFFFF;" version="1.1" viewBox="0 0 944 477" width="944px" zoomAndPan="magnify"><defs/><g><rect fill="none" height="164.7969" style="stroke:#000000;stroke-width:1.5;" width="928.8159" x="10" y="185.6953"/><rect fill="none" height="46.2656" style="stroke:#000000;stroke-width:1.5;" width="675.1099" x="20" y="297.2266"/><g><title>Admin</title><rect fill="#000000" fill-opacity="0.00000" height="315.3281" width="8" x="51.4321" y="81.2969"/><line style="stroke:#181818;stroke-width:0.5;stroke-dasharray:5,5;" x1="55" x2="55" y1="81.2969" y2="396.625"/></g><g><title>SideBarController</title><rect fill="#000000" fill-opacity="0.00000" height="315.3281" width="8" x="214.3062" y="81.2969"/><line style="stroke:#181818;stroke-width:0.5;stroke-dasharray:5,5;" x1="217.6118" x2="217.6118" y1="81.2969" y2="396.625"/></g><g><title>BookRegisterController</title><rect fill="#000000" fill-opacity="0.00000" height="315.3281" width="8" x="381.1431" y="81.2969"/><line style="stroke:#181818;stroke-width:0.5;stroke-dasharray:5,5;" x1="385.0005" x2="385.0005" y1="81.2969" y2="396.625"/></g><g><title>BookInsertPopupController</title><rect fill="#000000" fill-opacity="0.00000" height="315.3281" width="8" x="580.1978" y="81.2969"/><line style="stroke:#181818;stroke-width:0.5;stroke-dasharray:5,5;" x1="583.2856" x2="583.2856" y1="81.2969" y2="396.625"/></g><g><title>MainController</title><rect fill="#000000" fill-opacity="0.00000" height="315.3281" width="8" x="749.4067" y="81.2969"/><line style="stroke:#181818;stroke-width:0.5;stroke-dasharray:5,5;" x1="753.1099" x2="753.1099" y1="81.2969" y2="396.625"/></g><g><title>BookRegister</title><rect fill="#000000" fill-opacity="0.00000" height="315.3281" width="8" x="871.2598" y="81.2969"/><line style="stroke:#181818;stroke-width:0.5;stroke-dasharray:5,5;" x1="874.7036" x2="874.7036" y1="81.2969" y2="396.625"/></g><g class="participant participant-head" data-participant="Admin"><text fill="#000000" font-family="sans-serif" font-size="14" lengthAdjust="spacing" textLength="44.8643" x="30" y="77.9951">Admin</text><ellipse cx="55.4321" cy="13.5" fill="#E2E2F0" rx="8" ry="8" style="stroke:#181818;stroke-width:0.5;"/><path d="M55.4321,21.5 L55.4321,48.5 M42.4321,29.5 L68.4321,29.5 M55.4321,48.5 L42.4321,63.5 M55.4321,48.5 L68.4321,63.5" fill="none" style="stroke:#181818;stroke-width:0.5;"/></g><g class="participant participant-tail" data-participant="Admin"><text fill="#000000" font-family="sans-serif" font-size="14" lengthAdjust="spacing" textLength="44.8643" x="30" y="408.6201">Admin</text><ellipse cx="55.4321" cy="420.4219" fill="#E2E2F0" rx="8" ry="8" style="stroke:#181818;stroke-width:0.5;"/><path d="M55.4321,428.4219 L55.4321,455.4219 M42.4321,436.4219 L68.4321,436.4219 M55.4321,455.4219 L42.4321,470.4219 M55.4321,455.4219 L68.4321,470.4219" fill="none" style="stroke:#181818;stroke-width:0.5;"/></g><g class="participant participant-head" data-participant="SideBarController"><rect fill="#E2E2F0" height="30.2969" rx="2.5" ry="2.5" style="stroke:#181818;stroke-width:0.5;" width="137.3887" x="149.6118" y="50"/><text fill="#000000" font-family="sans-serif" font-size="14" lengthAdjust="spacing" textLength="123.3887" x="156.6118" y="69.9951">SideBarController</text></g><g class="participant participant-tail" data-participant="SideBarController"><rect fill="#E2E2F0" height="30.2969" rx="2.5" ry="2.5" style="stroke:#181818;stroke-width:0.5;" width="137.3887" x="149.6118" y="395.625"/><text fill="#000000" font-family="sans-serif" font-size="14" lengthAdjust="spacing" textLength="123.3887" x="156.6118" y="415.6201">SideBarController</text></g><g class="participant participant-head" data-participant="BookRegisterController"><rect fill="#E2E2F0" height="30.2969" rx="2.5" ry="2.5" style="stroke:#181818;stroke-width:0.5;" width="176.2852" x="297.0005" y="50"/><text fill="#000000" font-family="sans-serif" font-size="14" lengthAdjust="spacing" textLength="162.2852" x="304.0005" y="69.9951">BookRegisterController</text></g><g class="participant participant-tail" data-participant="BookRegisterController"><rect fill="#E2E2F0" height="30.2969" rx="2.5" ry="2.5" style="stroke:#181818;stroke-width:0.5;" width="176.2852" x="297.0005" y="395.625"/><text fill="#000000" font-family="sans-serif" font-size="14" lengthAdjust="spacing" textLength="162.2852" x="304.0005" y="415.6201">BookRegisterController</text></g><g class="participant participant-head" data-participant="BookInsertPopupController"><rect fill="#E2E2F0" height="30.2969" rx="2.5" ry="2.5" style="stroke:#181818;stroke-width:0.5;" width="201.8242" x="483.2856" y="50"/><text fill="#000000" font-family="sans-serif" font-size="14" lengthAdjust="spacing" textLength="187.8242" x="490.2856" y="69.9951">BookInsertPopupController</text></g><g class="participant participant-tail" data-participant="BookInsertPopupController"><rect fill="#E2E2F0" height="30.2969" rx="2.5" ry="2.5" style="stroke:#181818;stroke-width:0.5;" width="201.8242" x="483.2856" y="395.625"/><text fill="#000000" font-family="sans-serif" font-size="14" lengthAdjust="spacing" textLength="187.8242" x="490.2856" y="415.6201">BookInsertPopupController</text></g><g class="participant participant-head" data-participant="MainController"><rect fill="#E2E2F0" height="30.2969" rx="2.5" ry="2.5" style="stroke:#181818;stroke-width:0.5;" width="116.5938" x="695.1099" y="50"/><text fill="#000000" font-family="sans-serif" font-size="14" lengthAdjust="spacing" textLength="102.5938" x="702.1099" y="69.9951">MainController</text></g><g class="participant participant-tail" data-participant="MainController"><rect fill="#E2E2F0" height="30.2969" rx="2.5" ry="2.5" style="stroke:#181818;stroke-width:0.5;" width="116.5938" x="695.1099" y="395.625"/><text fill="#000000" font-family="sans-serif" font-size="14" lengthAdjust="spacing" textLength="102.5938" x="702.1099" y="415.6201">MainController</text></g><g class="participant participant-head" data-participant="BookRegister"><rect fill="#E2E2F0" height="30.2969" rx="2.5" ry="2.5" style="stroke:#181818;stroke-width:0.5;" width="107.1123" x="821.7036" y="50"/><text fill="#000000" font-family="sans-serif" font-size="14" lengthAdjust="spacing" textLength="93.1123" x="828.7036" y="69.9951">BookRegister</text></g><g class="participant participant-tail" data-participant="BookRegister"><rect fill="#E2E2F0" height="30.2969" rx="2.5" ry="2.5" style="stroke:#181818;stroke-width:0.5;" width="107.1123" x="821.7036" y="395.625"/><text fill="#000000" font-family="sans-serif" font-size="14" lengthAdjust="spacing" textLength="93.1123" x="828.7036" y="415.6201">BookRegister</text></g><g class="message" data-participant-1="Admin" data-participant-2="SideBarController"><polygon fill="#181818" points="206.3062,108.4297,216.3062,112.4297,206.3062,116.4297,210.3062,112.4297" style="stroke:#181818;stroke-width:1;"/><line style="stroke:#181818;stroke-width:1;" x1="55.4321" x2="212.3062" y1="112.4297" y2="112.4297"/><text fill="#000000" font-family="sans-serif" font-size="13" lengthAdjust="spacing" textLength="138.874" x="62.4321" y="107.3638">"Clicks "Add" Button"</text></g><g class="message" data-participant-1="SideBarController" data-participant-2="BookRegisterController"><polygon fill="#181818" points="373.1431,137.5625,383.1431,141.5625,373.1431,145.5625,377.1431,141.5625" style="stroke:#181818;stroke-width:1;"/><line style="stroke:#181818;stroke-width:1;" x1="218.3062" x2="379.1431" y1="141.5625" y2="141.5625"/><text fill="#000000" font-family="sans-serif" font-size="13" lengthAdjust="spacing" textLength="120.4087" x="225.3062" y="136.4966">openInsertPopup()</text></g><g class="message" data-participant-1="BookRegisterController" data-participant-2="Admin"><polygon fill="#181818" points="66.4321,166.6953,56.4321,170.6953,66.4321,174.6953,62.4321,170.6953" style="stroke:#181818;stroke-width:1;"/><line style="stroke:#181818;stroke-width:1;stroke-dasharray:2,2;" x1="60.4321" x2="384.1431" y1="170.6953" y2="170.6953"/><text fill="#000000" font-family="sans-serif" font-size="13" lengthAdjust="spacing" textLength="139.896" x="72.4321" y="165.6294">"Shows Insert Popup"</text></g><path d="M10,185.6953 L86.624,185.6953 L86.624,192.8281 L76.624,202.8281 L10,202.8281 L10,185.6953" fill="#EEEEEE" style="stroke:#000000;stroke-width:1.5;"/><rect fill="none" height="164.7969" style="stroke:#000000;stroke-width:1.5;" width="928.8159" x="10" y="185.6953"/><text fill="#000000" font-family="sans-serif" font-size="13" font-weight="bold" lengthAdjust="spacing" textLength="31.624" x="25" y="198.7622">loop</text><text fill="#000000" font-family="sans-serif" font-size="11" font-weight="bold" lengthAdjust="spacing" textLength="94.2412" x="101.624" y="197.9058">[BookNotValid]</text><g class="message" data-participant-1="Admin" data-participant-2="BookInsertPopupController"><polygon fill="#181818" points="572.1978,219.9609,582.1978,223.9609,572.1978,227.9609,576.1978,223.9609" style="stroke:#181818;stroke-width:1;"/><line style="stroke:#181818;stroke-width:1;" x1="55.4321" x2="578.1978" y1="223.9609" y2="223.9609"/><text fill="#000000" font-family="sans-serif" font-size="13" lengthAdjust="spacing" textLength="91.1904" x="62.4321" y="218.895">"Inserts Data"</text></g><g class="message" data-participant-1="BookInsertPopupController" data-participant-2="BookRegister"><polygon fill="#181818" points="863.2598,249.0938,873.2598,253.0938,863.2598,257.0938,867.2598,253.0938" style="stroke:#181818;stroke-width:1;"/><line style="stroke:#181818;stroke-width:1;" x1="584.1978" x2="869.2598" y1="253.0938" y2="253.0938"/><text fill="#000000" font-family="sans-serif" font-size="13" lengthAdjust="spacing" textLength="142.6636" x="591.1978" y="248.0278">isValid(Book inserted)</text></g><g class="message" data-participant-1="BookRegister" data-participant-2="BookInsertPopupController"><polygon fill="#181818" points="595.1978,278.2266,585.1978,282.2266,595.1978,286.2266,591.1978,282.2266" style="stroke:#181818;stroke-width:1;"/><line style="stroke:#181818;stroke-width:1;stroke-dasharray:2,2;" x1="589.1978" x2="874.2598" y1="282.2266" y2="282.2266"/><text fill="#000000" font-family="sans-serif" font-size="13" lengthAdjust="spacing" textLength="37.064" x="601.1978" y="277.1606">result</text></g><path d="M20,297.2266 L89.4512,297.2266 L89.4512,304.3594 L79.4512,314.3594 L20,314.3594 L20,297.2266" fill="#EEEEEE" style="stroke:#000000;stroke-width:1.5;"/><rect fill="none" height="46.2656" style="stroke:#000000;stroke-width:1.5;" width="675.1099" x="20" y="297.2266"/><text fill="#000000" font-family="sans-serif" font-size="13" font-weight="bold" lengthAdjust="spacing" textLength="24.4512" x="35" y="310.2935">opt</text><text fill="#000000" font-family="sans-serif" font-size="11" font-weight="bold" lengthAdjust="spacing" textLength="94.2412" x="104.4512" y="309.437">[BookNotValid]</text><g class="message" data-participant-1="BookInsertPopupController" data-participant-2="Admin"><polygon fill="#181818" points="66.4321,331.4922,56.4321,335.4922,66.4321,339.4922,62.4321,335.4922" style="stroke:#181818;stroke-width:1;"/><line style="stroke:#181818;stroke-width:1;stroke-dasharray:2,2;" x1="60.4321" x2="583.1978" y1="335.4922" y2="335.4922"/><text fill="#000000" font-family="sans-serif" font-size="13" lengthAdjust="spacing" textLength="205.061" x="72.4321" y="330.4263">"Data not correct, please retry"</text></g><g class="message" data-participant-1="BookInsertPopupController" data-participant-2="BookRegister"><polygon fill="#181818" points="863.2598,374.625,873.2598,378.625,863.2598,382.625,867.2598,378.625" style="stroke:#181818;stroke-width:1;"/><line style="stroke:#181818;stroke-width:1;" x1="584.1978" x2="869.2598" y1="378.625" y2="378.625"/><text fill="#000000" font-family="sans-serif" font-size="13" lengthAdjust="spacing" textLength="124.4141" x="591.1978" y="373.5591">add(Book inserted)</text></g><!--SRC=[bP3DIiD04CVlynJ3Njg2UO4YGcA319fK4-l1sv9TTEcwi-nE4T_UJNgm7wPe810o_u_Vp2nNgY3QBI4zirMLFxHvNUUugh0hdxPbyvg-o_LwLZLTsLPrsJnlXk6smNLLj1i0sJC5pDM7SG1U1ZQzyT8nTaRfGePxSXp8MXrEfaDfgzzCP7rDKhce0p-It_i9LIsD-qC7m8Y8sTqb62vHt5lJxoAAT0-1nPwPd81BPRB_Jfuoo6jtn3jVm8GqIoa7cbJSlTDdn8CFHwC0I-J7deRuHLgZVk0dZp9a7GOHLvAbW6dfsHR9QkBOCnz-enbDMYskHDncsNb6q75l6SZpAViLZkD33D3eYB6d47JFD-Yjbb6dN0vV0hHJu_kVjQGwN-aR]--></g></svg>