<svg xmlns="http://www.w3.org/2000/svg" xmlns:xlink="http://www.w3.org/1999/xlink" contentStyleType="text/css" data-diagram-type="CLASS" height="230px" preserveAspectRatio="none" style="width:754px;height:230px;background:#FFFFFF;" version="1.1" viewBox="0 0 754 230" width="754px" zoomAndPan="magnify"><defs/><g><!--class BookRegisterController--><g class="entity" data-entity="BookRegisterController" data-source-line="4" data-uid="ent0002" id="entity_BookRegisterController"><rect fill="#F1F1F1" height="32" rx="2.5" ry="2.5" style="stroke:#181818;stroke-width:0.5;" width="194.2852" x="277.6" y="99"/><ellipse cx="292.6" cy="115" fill="#ADD1B2" rx="11" ry="11" style="stroke:#181818;stroke-width:1;"/><path d="M295.5688,120.6406 Q294.9906,120.9375 294.35,121.0781 Q293.7094,121.2344 293.0063,121.2344 Q290.5063,121.2344 289.1781,119.5938 Q287.8656,117.9375 287.8656,114.8125 Q287.8656,111.6875 289.1781,110.0313 Q290.5063,108.375 293.0063,108.375 Q293.7094,108.375 294.35,108.5313 Q295.0063,108.6875 295.5688,108.9844 L295.5688,111.7031 Q294.9438,111.125 294.35,110.8594 Q293.7563,110.5781 293.1313,110.5781 Q291.7875,110.5781 291.1,111.6563 Q290.4125,112.7188 290.4125,114.8125 Q290.4125,116.9063 291.1,117.9844 Q291.7875,119.0469 293.1313,119.0469 Q293.7563,119.0469 294.35,118.7813 Q294.9438,118.5 295.5688,117.9219 L295.5688,120.6406 Z " fill="#000000"/><text fill="#000000" font-family="sans-serif" font-size="14" lengthAdjust="spacing" textLength="162.2852" x="306.6" y="119.8467">BookRegisterController</text></g><!--class SideBarController--><g class="entity" data-entity="SideBarController" data-source-line="4" data-uid="ent0003" id="entity_SideBarController"><rect fill="#F1F1F1" height="32" rx="2.5" ry="2.5" style="stroke:#181818;stroke-width:0.5;" width="155.3887" x="415.05" y="191"/><ellipse cx="430.05" cy="207" fill="#ADD1B2" rx="11" ry="11" style="stroke:#181818;stroke-width:1;"/><path d="M433.0188,212.6406 Q432.4406,212.9375 431.8,213.0781 Q431.1594,213.2344 430.4563,213.2344 Q427.9563,213.2344 426.6281,211.5938 Q425.3156,209.9375 425.3156,206.8125 Q425.3156,203.6875 426.6281,202.0313 Q427.9563,200.375 430.4563,200.375 Q431.1594,200.375 431.8,200.5313 Q432.4563,200.6875 433.0188,200.9844 L433.0188,203.7031 Q432.3938,203.125 431.8,202.8594 Q431.2063,202.5781 430.5813,202.5781 Q429.2375,202.5781 428.55,203.6563 Q427.8625,204.7188 427.8625,206.8125 Q427.8625,208.9063 428.55,209.9844 Q429.2375,211.0469 430.5813,211.0469 Q431.2063,211.0469 431.8,210.7813 Q432.3938,210.5 433.0188,209.9219 L433.0188,212.6406 Z " fill="#000000"/><text fill="#000000" font-family="sans-serif" font-size="14" lengthAdjust="spacing" textLength="123.3887" x="444.05" y="211.8467">SideBarController</text></g><!--class Register<T>--><g class="entity" data-entity="Register.T." data-source-line="5" data-uid="ent0005" id="entity_Register.T."><rect fill="#F1F1F1" height="32" rx="2.5" ry="2.5" style="stroke:#181818;stroke-width:0.5;" width="122.2822" x="242.61" y="191"/><ellipse cx="257.61" cy="207" fill="#B4A7E5" rx="11" ry="11" style="stroke:#181818;stroke-width:1;"/><path d="M253.5319,202.7656 L253.5319,200.6094 L260.9225,200.6094 L260.9225,202.7656 L258.4538,202.7656 L258.4538,210.8438 L260.9225,210.8438 L260.9225,213 L253.5319,213 L253.5319,210.8438 L256.0006,210.8438 L256.0006,202.7656 L253.5319,202.7656 Z " fill="#000000"/><text fill="#000000" font-family="sans-serif" font-size="14" font-style="italic" lengthAdjust="spacing" textLength="90.2822" x="271.61" y="211.8467">Register&lt;T&gt;</text></g><!--class BookInsertPopupController--><g class="entity" data-entity="BookInsertPopupController" data-source-line="6" data-uid="ent0007" id="entity_BookInsertPopupController"><rect fill="#F1F1F1" height="32" rx="2.5" ry="2.5" style="stroke:#181818;stroke-width:0.5;" width="219.8242" x="7.83" y="99"/><ellipse cx="22.83" cy="115" fill="#ADD1B2" rx="11" ry="11" style="stroke:#181818;stroke-width:1;"/><path d="M25.7988,120.6406 Q25.2206,120.9375 24.58,121.0781 Q23.9394,121.2344 23.2363,121.2344 Q20.7363,121.2344 19.4081,119.5938 Q18.0956,117.9375 18.0956,114.8125 Q18.0956,111.6875 19.4081,110.0313 Q20.7363,108.375 23.2363,108.375 Q23.9394,108.375 24.58,108.5313 Q25.2363,108.6875 25.7988,108.9844 L25.7988,111.7031 Q25.1738,111.125 24.58,110.8594 Q23.9863,110.5781 23.3613,110.5781 Q22.0175,110.5781 21.33,111.6563 Q20.6425,112.7188 20.6425,114.8125 Q20.6425,116.9063 21.33,117.9844 Q22.0175,119.0469 23.3613,119.0469 Q23.9863,119.0469 24.58,118.7813 Q25.1738,118.5 25.7988,117.9219 L25.7988,120.6406 Z " fill="#000000"/><text fill="#000000" font-family="sans-serif" font-size="14" lengthAdjust="spacing" textLength="187.8242" x="36.83" y="119.8467">BookInsertPopupController</text></g><!--class BookModifyPopupController--><g class="entity" data-entity="BookModifyPopupController" data-source-line="7" data-uid="ent0010" id="entity_BookModifyPopupController"><rect fill="#F1F1F1" height="32" rx="2.5" ry="2.5" style="stroke:#181818;stroke-width:0.5;" width="226.3047" x="521.59" y="99"/><ellipse cx="536.59" cy="115" fill="#ADD1B2" rx="11" ry="11" style="stroke:#181818;stroke-width:1;"/><path d="M539.5588,120.6406 Q538.9806,120.9375 538.34,121.0781 Q537.6994,121.2344 536.9963,121.2344 Q534.4963,121.2344 533.1681,119.5938 Q531.8556,117.9375 531.8556,114.8125 Q531.8556,111.6875 533.1681,110.0313 Q534.4963,108.375 536.9963,108.375 Q537.6994,108.375 538.34,108.5313 Q538.9963,108.6875 539.5588,108.9844 L539.5588,111.7031 Q538.9338,111.125 538.34,110.8594 Q537.7463,110.5781 537.1213,110.5781 Q535.7775,110.5781 535.09,111.6563 Q534.4025,112.7188 534.4025,114.8125 Q534.4025,116.9063 535.09,117.9844 Q535.7775,119.0469 537.1213,119.0469 Q537.7463,119.0469 538.34,118.7813 Q538.9338,118.5 539.5588,117.9219 L539.5588,120.6406 Z " fill="#000000"/><text fill="#000000" font-family="sans-serif" font-size="14" lengthAdjust="spacing" textLength="194.3047" x="550.59" y="119.8467">BookModifyPopupController</text></g><!--class RegisterAdder<T>--><g class="entity" data-entity="RegisterAdder.T." data-source-line="9" data-uid="ent0012" id="entity_RegisterAdder.T."><rect fill="#F1F1F1" height="32" rx="2.5" ry="2.5" style="stroke:#181818;stroke-width:0.5;" width="164.002" x="35.75" y="7"/><ellipse cx="50.75" cy="23" fill="#B4A7E5" rx="11" ry="11" style="stroke:#181818;stroke-width:1;"/><path d="M46.6719,18.7656 L46.6719,16.6094 L54.0625,16.6094 L54.0625,18.7656 L51.5938,18.7656 L51.5938,26.8438 L54.0625,26.8438 L54.0625,29 L46.6719,29 L46.6719,26.8438 L49.1406,26.8438 L49.1406,18.7656 L46.6719,18.7656 Z " fill="#000000"/><text fill="#000000" font-family="sans-serif" font-size="14" font-style="italic" lengthAdjust="spacing" textLength="132.002" x="64.75" y="27.8467">RegisterAdder&lt;T&gt;</text></g><!--class RegisterValidator<T>--><g class="entity" data-entity="RegisterValidator.T." data-source-line="10" data-uid="ent0015" id="entity_RegisterValidator.T."><rect fill="#F1F1F1" height="32" rx="2.5" ry="2.5" style="stroke:#181818;stroke-width:0.5;" width="185.4941" x="7" y="191"/><ellipse cx="22" cy="207" fill="#B4A7E5" rx="11" ry="11" style="stroke:#181818;stroke-width:1;"/><path d="M17.9219,202.7656 L17.9219,200.6094 L25.3125,200.6094 L25.3125,202.7656 L22.8438,202.7656 L22.8438,210.8438 L25.3125,210.8438 L25.3125,213 L17.9219,213 L17.9219,210.8438 L20.3906,210.8438 L20.3906,202.7656 L17.9219,202.7656 Z " fill="#000000"/><text fill="#000000" font-family="sans-serif" font-size="14" font-style="italic" lengthAdjust="spacing" textLength="153.4941" x="36" y="211.8467">RegisterValidator&lt;T&gt;</text></g><!--class BookPopupController--><g class="entity" data-entity="BookPopupController" data-source-line="11" data-uid="ent0017" id="entity_BookPopupController"><rect fill="#F1F1F1" height="32" rx="2.5" ry="2.5" style="stroke:#181818;stroke-width:0.5;" width="179.6699" x="282.91" y="7"/><ellipse cx="297.91" cy="23" fill="#A9DCDF" rx="11" ry="11" style="stroke:#181818;stroke-width:1;"/><path d="M298.0194,18.3438 L296.8631,23.4219 L299.1913,23.4219 L298.0194,18.3438 Z M296.535,16.1094 L299.5194,16.1094 L302.8788,28.5 L300.4256,28.5 L299.66,25.4375 L296.3788,25.4375 L295.6288,28.5 L293.1913,28.5 L296.535,16.1094 Z " fill="#000000"/><text fill="#000000" font-family="sans-serif" font-size="14" font-style="italic" lengthAdjust="spacing" textLength="147.6699" x="311.91" y="27.8467">BookPopupController</text></g><!--class RegisterModifier<T>--><g class="entity" data-entity="RegisterModifier.T." data-source-line="14" data-uid="ent0020" id="entity_RegisterModifier.T."><rect fill="#F1F1F1" height="32" rx="2.5" ry="2.5" style="stroke:#181818;stroke-width:0.5;" width="178.8906" x="545.3" y="7"/><ellipse cx="560.3" cy="23" fill="#B4A7E5" rx="11" ry="11" style="stroke:#181818;stroke-width:1;"/><path d="M556.2219,18.7656 L556.2219,16.6094 L563.6125,16.6094 L563.6125,18.7656 L561.1438,18.7656 L561.1438,26.8438 L563.6125,26.8438 L563.6125,29 L556.2219,29 L556.2219,26.8438 L558.6906,26.8438 L558.6906,18.7656 L556.2219,18.7656 Z " fill="#000000"/><text fill="#000000" font-family="sans-serif" font-size="14" font-style="italic" lengthAdjust="spacing" textLength="146.8906" x="574.3" y="27.8467">RegisterModifier&lt;T&gt;</text></g><!--class Book--><g class="entity" data-entity="Book" data-source-line="16" data-uid="ent0025" id="entity_Book"><rect fill="#F1F1F1" height="32" rx="2.5" ry="2.5" style="stroke:#181818;stroke-width:0.5;" width="66.8428" x="620.33" y="191"/><ellipse cx="635.33" cy="207" fill="#ADD1B2" rx="11" ry="11" style="stroke:#181818;stroke-width:1;"/><path d="M638.2988,212.6406 Q637.7206,212.9375 637.08,213.0781 Q636.4394,213.2344 635.7363,213.2344 Q633.2363,213.2344 631.9081,211.5938 Q630.5956,209.9375 630.5956,206.8125 Q630.5956,203.6875 631.9081,202.0313 Q633.2363,200.375 635.7363,200.375 Q636.4394,200.375 637.08,200.5313 Q637.7363,200.6875 638.2988,200.9844 L638.2988,203.7031 Q637.6738,203.125 637.08,202.8594 Q636.4863,202.5781 635.8613,202.5781 Q634.5175,202.5781 633.83,203.6563 Q633.1425,204.7188 633.1425,206.8125 Q633.1425,208.9063 633.83,209.9844 Q634.5175,211.0469 635.8613,211.0469 Q636.4863,211.0469 637.08,210.7813 Q637.6738,210.5 638.2988,209.9219 L638.2988,212.6406 Z " fill="#000000"/><text fill="#000000" font-family="sans-serif" font-size="14" lengthAdjust="spacing" textLength="34.8428" x="649.33" y="211.8467">Book</text></g><!--link BookRegisterController to SideBarController--><g class="link" data-entity-1="BookRegisterController" data-entity-2="SideBarController" data-link-type="dependency" data-source-line="4" data-uid="lnk4" id="link_BookRegisterController_SideBarController"><path codeLine="4" d="M395.03,131.47 C416.78,148.06 446.309,170.5817 467.959,187.0917" fill="none" id="BookRegisterController-to-SideBarController" style="stroke:#181818;stroke-width:1;"/><polygon fill="#181818" points="472.73,190.73,467.999,182.0918,468.7541,187.6981,463.1479,188.4532,472.73,190.73" style="stroke:#181818;stroke-width:1;"/><text fill="#000000" font-family="sans-serif" font-size="13" lengthAdjust="spacing" textLength="8.271" x="392.2648" y="151.1985">1</text><text fill="#000000" font-family="sans-serif" font-size="13" lengthAdjust="spacing" textLength="8.271" x="456.8201" y="179.9451">1</text></g><!--link BookRegisterController to Register<T>--><g class="link" data-entity-1="BookRegisterController" data-entity-2="Register.T." data-link-type="dependency" data-source-line="5" data-uid="lnk6" id="link_BookRegisterController_Register.T."><path codeLine="5" d="M362.7,131.27 C349.65,147.82 332.6462,169.3694 319.5662,185.9494" fill="none" id="BookRegisterController-to-Register&lt;T&gt;" style="stroke:#181818;stroke-width:1;"/><polygon fill="#181818" points="315.85,190.66,324.5647,186.0716,318.9468,186.7345,318.2839,181.1166,315.85,190.66" style="stroke:#181818;stroke-width:1;"/><text fill="#000000" font-family="sans-serif" font-size="13" lengthAdjust="spacing" textLength="8.271" x="349.6296" y="150.9347">1</text><text fill="#000000" font-family="sans-serif" font-size="13" lengthAdjust="spacing" textLength="8.271" x="310.5776" y="179.8519">1</text></g><!--reverse link BookInsertPopupController to BookRegisterController--><g class="link" data-entity-1="BookInsertPopupController" data-entity-2="BookRegisterController" data-link-type="dependency" data-source-line="6" data-uid="lnk9" id="link_BookInsertPopupController_BookRegisterController"><path codeLine="6" d="M233.93,115 C250.37,115 260.81,115 277.25,115" fill="none" id="BookInsertPopupController-backto-BookRegisterController" style="stroke:#181818;stroke-width:1;stroke-dasharray:7,7;"/><polygon fill="#181818" points="227.93,115,236.93,119,232.93,115,236.93,111,227.93,115" style="stroke:#181818;stroke-width:1;"/></g><!--link BookRegisterController to BookModifyPopupController--><g class="link" data-entity-1="BookRegisterController" data-entity-2="BookModifyPopupController" data-link-type="dependency" data-source-line="7" data-uid="lnk11" id="link_BookRegisterController_BookModifyPopupController"><path codeLine="7" d="M472.25,115 C488.54,115 498.83,115 515.12,115" fill="none" id="BookRegisterController-to-BookModifyPopupController" style="stroke:#181818;stroke-width:1;stroke-dasharray:7,7;"/><polygon fill="#181818" points="521.12,115,512.12,111,516.12,115,512.12,119,521.12,115" style="stroke:#181818;stroke-width:1;"/></g><!--reverse link RegisterAdder<T> to BookInsertPopupController--><g class="link" data-entity-1="RegisterAdder.T." data-entity-2="BookInsertPopupController" data-link-type="dependency" data-source-line="9" data-uid="lnk14" id="link_RegisterAdder.T._BookInsertPopupController"><path codeLine="9" d="M117.75,45.27 C117.75,61.82 117.75,82.08 117.75,98.66" fill="none" id="RegisterAdder&lt;T&gt;-backto-BookInsertPopupController" style="stroke:#181818;stroke-width:1;"/><polygon fill="#181818" points="117.75,39.27,113.75,48.27,117.75,44.27,121.75,48.27,117.75,39.27" style="stroke:#181818;stroke-width:1;"/><text fill="#000000" font-family="sans-serif" font-size="13" lengthAdjust="spacing" textLength="8.271" x="108.5179" y="58.9347">1</text><text fill="#000000" font-family="sans-serif" font-size="13" lengthAdjust="spacing" textLength="8.271" x="108.4725" y="87.8519">1</text></g><!--link BookInsertPopupController to RegisterValidator<T>--><g class="link" data-entity-1="BookInsertPopupController" data-entity-2="RegisterValidator.T." data-link-type="dependency" data-source-line="10" data-uid="lnk16" id="link_BookInsertPopupController_RegisterValidator.T."><path codeLine="10" d="M114.69,131.27 C111.38,147.82 107.3046,168.1961 103.9946,184.7761" fill="none" id="BookInsertPopupController-to-RegisterValidator&lt;T&gt;" style="stroke:#181818;stroke-width:1;"/><polygon fill="#181818" points="102.82,190.66,108.5046,182.6173,103.7989,185.7568,100.6594,181.0511,102.82,190.66" style="stroke:#181818;stroke-width:1;"/><text fill="#000000" font-family="sans-serif" font-size="13" lengthAdjust="spacing" textLength="8.271" x="104.4853" y="150.9347">1</text><text fill="#000000" font-family="sans-serif" font-size="13" lengthAdjust="spacing" textLength="8.271" x="94.5578" y="179.8519">1</text></g><!--reverse link BookPopupController to BookInsertPopupController--><g class="link" data-entity-1="BookPopupController" data-entity-2="BookInsertPopupController" data-link-type="extension" data-source-line="11" data-uid="lnk19" id="link_BookPopupController_BookInsertPopupController"><path codeLine="11" d="M311.9367,45.4623 C265.0867,62.0023 208.23,82.06 161.44,98.58" fill="none" id="BookPopupController-backto-BookInsertPopupController" style="stroke:#181818;stroke-width:1;"/><polygon fill="none" points="328.91,39.47,309.9393,39.8045,313.9341,51.12,328.91,39.47" style="stroke:#181818;stroke-width:1;"/></g><!--reverse link RegisterModifier<T> to BookModifyPopupController--><g class="link" data-entity-1="RegisterModifier.T." data-entity-2="BookModifyPopupController" data-link-type="dependency" data-source-line="14" data-uid="lnk22" id="link_RegisterModifier.T._BookModifyPopupController"><path codeLine="14" d="M634.75,45.27 C634.75,61.82 634.75,82.08 634.75,98.66" fill="none" id="RegisterModifier&lt;T&gt;-backto-BookModifyPopupController" style="stroke:#181818;stroke-width:1;"/><polygon fill="#181818" points="634.75,39.27,630.75,48.27,634.75,44.27,638.75,48.27,634.75,39.27" style="stroke:#181818;stroke-width:1;"/><text fill="#000000" font-family="sans-serif" font-size="13" lengthAdjust="spacing" textLength="8.271" x="625.5197" y="58.9347">1</text><text fill="#000000" font-family="sans-serif" font-size="13" lengthAdjust="spacing" textLength="8.271" x="625.4724" y="87.8519">1</text></g><!--reverse link BookPopupController to BookModifyPopupController--><g class="link" data-entity-1="BookPopupController" data-entity-2="BookModifyPopupController" data-link-type="extension" data-source-line="15" data-uid="lnk24" id="link_BookPopupController_BookModifyPopupController"><path codeLine="15" d="M434.8129,45.32 C482.9429,61.86 541.78,82.06 589.86,98.58" fill="none" id="BookPopupController-backto-BookModifyPopupController" style="stroke:#181818;stroke-width:1;"/><polygon fill="none" points="417.79,39.47,432.8629,50.9942,436.7629,39.6457,417.79,39.47" style="stroke:#181818;stroke-width:1;"/></g><!--link BookModifyPopupController to Book--><g class="link" data-entity-1="BookModifyPopupController" data-entity-2="Book" data-link-type="dependency" data-source-line="16" data-uid="lnk26" id="link_BookModifyPopupController_Book"><path codeLine="16" d="M637.97,131.27 C641.46,147.82 645.7707,168.2094 649.2707,184.7894" fill="none" id="BookModifyPopupController-to-Book" style="stroke:#181818;stroke-width:1;"/><polygon fill="#181818" points="650.51,190.66,652.5648,181.0279,649.4773,185.7678,644.7373,182.6803,650.51,190.66" style="stroke:#181818;stroke-width:1;"/><text fill="#000000" font-family="sans-serif" font-size="13" lengthAdjust="spacing" textLength="8.271" x="629.767" y="150.9347">1</text><text fill="#000000" font-family="sans-serif" font-size="13" lengthAdjust="spacing" textLength="8.271" x="640.1562" y="179.8519">1</text></g><!--SRC=[bLPTRzem57tFhx3eIwiEj3xifQgG00aDgTMgbbNQeqbkmMfYPxRJbZ7- -_oPE8bJEbw0d7jyp_NzYdWXjCGS5uYo30IKwDlNP4SoG0KK6-0YIUQClJp0bWW9VC6ev2pFWQFHrGYDi_7K_1WzAieS1_ZeSpnlSBEU3Z8c-MIADBQY0hYyPsLLDl0WYplM7Sl8yxxBIWOFj0ghhi9PbWKoFs3sOdl2EScmPAVOokTVAxadDXaCP42jiIM1u3XvsEK9Xpv8RPQOJvfZ8Sn_T4YG-eoH9387T8qU9ITqwnxYIkuO5-hnhL9wOx6f0pVwShAQWWuSSFQ3vlkZCoYhJKx4hW0gVm7cof9GwKz-nIJ7cnmMh2GW76R0IoFiV3APNBZ_Mv1hBU_yeYtG83EhqM0zbSR2P36Bak_R4esD5sbFR-li68Y-WPQjR5uPoPnHoifzv34HDNN9-2t3r1okRZK7JDqr4M4ACehOi2pkZk-QTCBxqBOJIDJsc2GgUE3FE8NsF71rT8bmbaM2BKnrHW0E1Nk5wFNyfEHt1J6v9ZFUkyvva_prT41aFH86bSPvONFMr4WuSNPhdDJqeTYElZDx4xfkKoLwBgdYp2ifcS-UKCbDTugnNYfe3UzoII3F76hlE4ApORI0eFAD9tEp0Sb0ZuqxWxSTkkmudz43xhpZ43s6Soco90x1t5dhGjMUzVSJWRSRJPg6isoH5zvWmVAgeCRa2seFCJVXFcVS6MX3f9MgWotmzfpyf9ns4_w71tzXohxko_1EHA-ahljb5WxWVWR2aKmeaKGLznyxbEl67IDM0WrsPWmETbKNjhMwvApm_iyxWw4gLKD1dVZk0QuLz0O9UnDlXEGubQWfiUwkjFLrPgidqaXdlbZqe7cQitTbeRySQFVGLPJe2aSNJHHFJRQZaCxjGhtk3V3eC-55hxKLWcaAUGHG0yHjp0YOxIakI6eDZADwzzUkfwrChOgjibWLU0l9oT98rHk217lw0tlpu-zxSudDFjTEcmg9l7uqWKIsny7d-nZSqIoLXD7OXlQNDM1nXiIElSrKaSZkp6_AAVwUU8Yqg5b5GP_QrHGsQsXThv20qQmLomhQDYhZLEUs0ec_ISO2yRinK5QlosuuQsRFrILdtaCRoL679oN_0m00]--></g></svg>