<svg xmlns="http://www.w3.org/2000/svg" xmlns:xlink="http://www.w3.org/1999/xlink" contentStyleType="text/css" data-diagram-type="SEQUENCE" height="415px" preserveAspectRatio="none" style="width:1126px;height:415px;background:#FFFFFF;" version="1.1" viewBox="0 0 1126 415" width="1126px" zoomAndPan="magnify"><defs/><g><g><title>Admin</title><rect fill="#000000" fill-opacity="0.00000" height="253.0625" width="8" x="26.4321" y="81.2969"/><line style="stroke:#181818;stroke-width:0.5;stroke-dasharray:5,5;" x1="30" x2="30" y1="81.2969" y2="334.3594"/></g><g><title>.u..LoanRegisterController</title><rect fill="#000000" fill-opacity="0.00000" height="253.0625" width="8" x="197.7739" y="81.2969"/><line style="stroke:#181818;stroke-width:0.5;stroke-dasharray:5,5;" x1="200.7856" x2="200.7856" y1="81.2969" y2="334.3594"/></g><g><title>.u..LoanRegister</title><rect fill="#000000" fill-opacity="0.00000" height="253.0625" width="8" x="367.8462" y="81.2969"/><line style="stroke:#181818;stroke-width:0.5;stroke-dasharray:5,5;" x1="371.4443" x2="371.4443" y1="81.2969" y2="334.3594"/></g><g><title>.u.selectedLoan .Loan</title><rect fill="#000000" fill-opacity="0.00000" height="253.0625" width="8" x="508.1973" y="81.2969"/><line style="stroke:#181818;stroke-width:0.5;stroke-dasharray:5,5;" x1="511.248" x2="511.248" y1="81.2969" y2="334.3594"/></g><g><title>.u.selectedLoanBook .Book</title><rect fill="#000000" fill-opacity="0.00000" height="253.0625" width="8" x="786.9858" y="81.2969"/><line style="stroke:#181818;stroke-width:0.5;stroke-dasharray:5,5;" x1="790.1025" x2="790.1025" y1="81.2969" y2="334.3594"/></g><g><title>.u.selectedLoanStudent .Student</title><rect fill="#000000" fill-opacity="0.00000" height="253.0625" width="8" x="1003.021" y="81.2969"/><line style="stroke:#181818;stroke-width:0.5;stroke-dasharray:5,5;" x1="1006.8691" x2="1006.8691" y1="81.2969" y2="334.3594"/></g><g class="participant participant-head" data-participant="Admin"><text fill="#000000" font-family="sans-serif" font-size="14" lengthAdjust="spacing" textLength="44.8643" x="5" y="77.9951">Admin</text><ellipse cx="30.4321" cy="13.5" fill="#E2E2F0" rx="8" ry="8" style="stroke:#181818;stroke-width:0.5;"/><path d="M30.4321,21.5 L30.4321,48.5 M17.4321,29.5 L43.4321,29.5 M30.4321,48.5 L17.4321,63.5 M30.4321,48.5 L43.4321,63.5" fill="none" style="stroke:#181818;stroke-width:0.5;"/></g><g class="participant participant-tail" data-participant="Admin"><text fill="#000000" font-family="sans-serif" font-size="14" lengthAdjust="spacing" textLength="44.8643" x="5" y="346.3545">Admin</text><ellipse cx="30.4321" cy="358.1563" fill="#E2E2F0" rx="8" ry="8" style="stroke:#181818;stroke-width:0.5;"/><path d="M30.4321,366.1563 L30.4321,393.1563 M17.4321,374.1563 L43.4321,374.1563 M30.4321,393.1563 L17.4321,408.1563 M30.4321,393.1563 L43.4321,408.1563" fill="none" style="stroke:#181818;stroke-width:0.5;"/></g><g class="participant participant-head" data-participant="LoanRegisterController"><rect fill="#E2E2F0" height="30.2969" rx="2.5" ry="2.5" style="stroke:#181818;stroke-width:0.5;" width="179.9766" x="111.7856" y="50"/><text fill="#000000" font-family="sans-serif" font-size="14" lengthAdjust="spacing" text-decoration="underline" textLength="165.9766" x="118.7856" y="69.9951">:LoanRegisterController</text></g><g class="participant participant-tail" data-participant="LoanRegisterController"><rect fill="#E2E2F0" height="30.2969" rx="2.5" ry="2.5" style="stroke:#181818;stroke-width:0.5;" width="179.9766" x="111.7856" y="333.3594"/><text fill="#000000" font-family="sans-serif" font-size="14" lengthAdjust="spacing" text-decoration="underline" textLength="165.9766" x="118.7856" y="353.3545">:LoanRegisterController</text></g><g class="participant participant-head" data-participant="LoanRegister"><rect fill="#E2E2F0" height="30.2969" rx="2.5" ry="2.5" style="stroke:#181818;stroke-width:0.5;" width="110.8037" x="316.4443" y="50"/><text fill="#000000" font-family="sans-serif" font-size="14" lengthAdjust="spacing" text-decoration="underline" textLength="96.8037" x="323.4443" y="69.9951">:LoanRegister</text></g><g class="participant participant-tail" data-participant="LoanRegister"><rect fill="#E2E2F0" height="30.2969" rx="2.5" ry="2.5" style="stroke:#181818;stroke-width:0.5;" width="110.8037" x="316.4443" y="333.3594"/><text fill="#000000" font-family="sans-serif" font-size="14" lengthAdjust="spacing" text-decoration="underline" textLength="96.8037" x="323.4443" y="353.3545">:LoanRegister</text></g><g class="participant participant-head" data-participant="Loan"><rect fill="#E2E2F0" height="30.2969" rx="2.5" ry="2.5" style="stroke:#181818;stroke-width:0.5;" width="149.8984" x="437.248" y="50"/><text fill="#000000" font-family="sans-serif" font-size="14" lengthAdjust="spacing" text-decoration="underline" textLength="135.8984" x="444.248" y="69.9951">selectedLoan :Loan</text></g><g class="participant participant-tail" data-participant="Loan"><rect fill="#E2E2F0" height="30.2969" rx="2.5" ry="2.5" style="stroke:#181818;stroke-width:0.5;" width="149.8984" x="437.248" y="333.3594"/><text fill="#000000" font-family="sans-serif" font-size="14" lengthAdjust="spacing" text-decoration="underline" textLength="135.8984" x="444.248" y="353.3545">selectedLoan :Loan</text></g><g class="participant participant-head" data-participant="Book"><rect fill="#E2E2F0" height="30.2969" rx="2.5" ry="2.5" style="stroke:#181818;stroke-width:0.5;" width="185.7666" x="698.1025" y="50"/><text fill="#000000" font-family="sans-serif" font-size="14" lengthAdjust="spacing" text-decoration="underline" textLength="171.7666" x="705.1025" y="69.9951">selectedLoanBook :Book</text></g><g class="participant participant-tail" data-participant="Book"><rect fill="#E2E2F0" height="30.2969" rx="2.5" ry="2.5" style="stroke:#181818;stroke-width:0.5;" width="185.7666" x="698.1025" y="333.3594"/><text fill="#000000" font-family="sans-serif" font-size="14" lengthAdjust="spacing" text-decoration="underline" textLength="171.7666" x="705.1025" y="353.3545">selectedLoanBook :Book</text></g><g class="participant participant-head" data-participant="Student"><rect fill="#E2E2F0" height="30.2969" rx="2.5" ry="2.5" style="stroke:#181818;stroke-width:0.5;" width="226.3037" x="893.8691" y="50"/><text fill="#000000" font-family="sans-serif" font-size="14" lengthAdjust="spacing" text-decoration="underline" textLength="212.3037" x="900.8691" y="69.9951">selectedLoanStudent :Student</text></g><g class="participant participant-tail" data-participant="Student"><rect fill="#E2E2F0" height="30.2969" rx="2.5" ry="2.5" style="stroke:#181818;stroke-width:0.5;" width="226.3037" x="893.8691" y="333.3594"/><text fill="#000000" font-family="sans-serif" font-size="14" lengthAdjust="spacing" text-decoration="underline" textLength="212.3037" x="900.8691" y="353.3545">selectedLoanStudent :Student</text></g><g class="message" data-participant-1="Admin" data-participant-2="LoanRegisterController"><polygon fill="#181818" points="189.7739,108.4297,199.7739,112.4297,189.7739,116.4297,193.7739,112.4297" style="stroke:#181818;stroke-width:1;"/><line style="stroke:#181818;stroke-width:1;" x1="30.4321" x2="195.7739" y1="112.4297" y2="112.4297"/><text fill="#000000" font-family="sans-serif" font-size="13" lengthAdjust="spacing" textLength="106.4692" x="37.4321" y="107.3638">"Selects a Loan"</text></g><g class="message" data-participant-1="Admin" data-participant-2="LoanRegisterController"><polygon fill="#181818" points="189.7739,137.5625,199.7739,141.5625,189.7739,145.5625,193.7739,141.5625" style="stroke:#181818;stroke-width:1;"/><line style="stroke:#181818;stroke-width:1;" x1="30.4321" x2="195.7739" y1="141.5625" y2="141.5625"/><text fill="#000000" font-family="sans-serif" font-size="13" lengthAdjust="spacing" textLength="147.3418" x="37.4321" y="136.4966">removeFromRegister()</text></g><g class="message" data-participant-1="LoanRegisterController" data-participant-2="LoanRegister"><polygon fill="#181818" points="359.8462,166.6953,369.8462,170.6953,359.8462,174.6953,363.8462,170.6953" style="stroke:#181818;stroke-width:1;"/><line style="stroke:#181818;stroke-width:1;" x1="201.7739" x2="365.8462" y1="170.6953" y2="170.6953"/><text fill="#000000" font-family="sans-serif" font-size="13" lengthAdjust="spacing" textLength="146.0723" x="208.7739" y="165.6294">remove(selectedLoan)</text></g><g class="message" data-participant-1="LoanRegister" data-participant-2="Loan"><polygon fill="#181818" points="500.1973,195.8281,510.1973,199.8281,500.1973,203.8281,504.1973,199.8281" style="stroke:#181818;stroke-width:1;"/><line style="stroke:#181818;stroke-width:1;" x1="371.8462" x2="506.1973" y1="199.8281" y2="199.8281"/><text fill="#000000" font-family="sans-serif" font-size="13" lengthAdjust="spacing" textLength="81.8086" x="378.8462" y="194.7622">returnLoan()</text></g><g class="message" data-participant-1="Loan" data-participant-2="Book"><polygon fill="#181818" points="778.9858,224.9609,788.9858,228.9609,778.9858,232.9609,782.9858,228.9609" style="stroke:#181818;stroke-width:1;"/><line style="stroke:#181818;stroke-width:1;" x1="512.1973" x2="784.9858" y1="228.9609" y2="228.9609"/><text fill="#000000" font-family="sans-serif" font-size="13" lengthAdjust="spacing" textLength="134.7607" x="519.1973" y="223.895">getAvailableCopies()</text></g><g class="message" data-participant-1="Book" data-participant-2="Loan"><polygon fill="#181818" points="523.1973,254.0938,513.1973,258.0938,523.1973,262.0938,519.1973,258.0938" style="stroke:#181818;stroke-width:1;"/><line style="stroke:#181818;stroke-width:1;stroke-dasharray:2,2;" x1="517.1973" x2="789.9858" y1="258.0938" y2="258.0938"/><text fill="#000000" font-family="sans-serif" font-size="13" lengthAdjust="spacing" textLength="102.3433" x="529.1973" y="253.0278">availableCopies</text></g><g class="message" data-participant-1="Loan" data-participant-2="Book"><polygon fill="#181818" points="778.9858,283.2266,788.9858,287.2266,778.9858,291.2266,782.9858,287.2266" style="stroke:#181818;stroke-width:1;"/><line style="stroke:#181818;stroke-width:1;" x1="512.1973" x2="784.9858" y1="287.2266" y2="287.2266"/><text fill="#000000" font-family="sans-serif" font-size="13" lengthAdjust="spacing" textLength="254.7886" x="519.1973" y="282.1606">setAvailableCopies(availableCopies+1)</text></g><g class="message" data-participant-1="Loan" data-participant-2="Student"><polygon fill="#181818" points="995.021,312.3594,1005.021,316.3594,995.021,320.3594,999.021,316.3594" style="stroke:#181818;stroke-width:1;"/><line style="stroke:#181818;stroke-width:1;" x1="512.1973" x2="1001.021" y1="316.3594" y2="316.3594"/><text fill="#000000" font-family="sans-serif" font-size="13" lengthAdjust="spacing" textLength="155.3589" x="519.1973" y="311.2935">removeActiveLoan(this)</text></g><!--SRC=[ZP3DReCm48JlVeeLboQgSiWLLP7SX4P8_BIGN79pOPLQ1Onim_CNkuGqaA1UhBNdcrdlFkrykaze65BO-P1w7qSlEdMr5mGK4Z-CJtuSUKOxHl2UUEd1FyH02Ckqa43pabU4r4ngdl6QLHgSbsRZ1e9L2PwvqYYtej9I50LA1vY2-z9ynCG84rvXWPd6t51WpODfbdqLuXjSSrhU5BDygfiSktUtBwohhmcn-u3Lvi6Ku8AJsZ05p3BEFomIIz7YcnJbHLuioGDwb3Eu5tzdk7LVF9RLZQpCfUzWjDyDmHarRHals6U1Mr5pL1rZjTKrWDqIummrpHWvdjVNniEg-nbefdcBzdVwYwlb3m00]--></g></svg>