<svg xmlns="http://www.w3.org/2000/svg" xmlns:xlink="http://www.w3.org/1999/xlink" contentStyleType="text/css" data-diagram-type="CLASS" height="300px" preserveAspectRatio="none" style="width:486px;height:300px;background:#FFFFFF;" version="1.1" viewBox="0 0 486 300" width="486px" zoomAndPan="magnify"><defs/><g><!--class MenuBarController--><g class="entity" data-entity="MenuBarController" data-source-line="2" data-uid="ent0002" id="entity_MenuBarController"><rect fill="#F1F1F1" height="145.7813" rx="2.5" ry="2.5" style="stroke:#181818;stroke-width:0.5;" width="295.5752" x="95.42" y="7"/><ellipse cx="173.1822" cy="23" fill="#ADD1B2" rx="11" ry="11" style="stroke:#181818;stroke-width:1;"/><path d="M176.151,28.6406 Q175.5728,28.9375 174.9322,29.0781 Q174.2916,29.2344 173.5885,29.2344 Q171.0885,29.2344 169.7603,27.5938 Q168.4478,25.9375 168.4478,22.8125 Q168.4478,19.6875 169.7603,18.0313 Q171.0885,16.375 173.5885,16.375 Q174.2916,16.375 174.9322,16.5313 Q175.5885,16.6875 176.151,16.9844 L176.151,19.7031 Q175.526,19.125 174.9322,18.8594 Q174.3385,18.5781 173.7135,18.5781 Q172.3697,18.5781 171.6822,19.6563 Q170.9947,20.7188 170.9947,22.8125 Q170.9947,24.9063 171.6822,25.9844 Q172.3697,27.0469 173.7135,27.0469 Q174.3385,27.0469 174.9322,26.7813 Q175.526,26.5 176.151,25.9219 L176.151,28.6406 Z " fill="#000000"/><text fill="#000000" font-family="sans-serif" font-size="14" lengthAdjust="spacing" textLength="131.5508" x="193.6822" y="27.8467">MenuBarController</text><line style="stroke:#181818;stroke-width:0.5;" x1="96.42" x2="389.9952" y1="39" y2="39"/><g data-visibility-modifier="PRIVATE_FIELD"><rect fill="none" height="6" style="stroke:#C82930;stroke-width:1;" width="6" x="103.42" y="49.6484"/></g><text fill="#000000" font-family="sans-serif" font-size="14" lengthAdjust="spacing" textLength="260.6406" x="115.42" y="55.9951">libraryIOManager : LibraryIOManager</text><g data-visibility-modifier="PRIVATE_FIELD"><rect fill="none" height="6" style="stroke:#C82930;stroke-width:1;" width="6" x="103.42" y="65.9453"/></g><text fill="#000000" font-family="sans-serif" font-size="14" lengthAdjust="spacing" textLength="107.6113" x="115.42" y="72.292">library : Library</text><line style="stroke:#181818;stroke-width:0.5;" x1="96.42" x2="389.9952" y1="79.5938" y2="79.5938"/><g data-visibility-modifier="PUBLIC_METHOD"><ellipse cx="106.42" cy="93.2422" fill="#84BE84" rx="3" ry="3" style="stroke:#038048;stroke-width:1;"/></g><text fill="#000000" font-family="sans-serif" font-size="14" lengthAdjust="spacing" textLength="206.0967" x="115.42" y="96.5889">setLibrary(in library : Library)</text><g data-visibility-modifier="PRIVATE_METHOD"><rect fill="#F24D5C" height="6" style="stroke:#C82930;stroke-width:1;" width="6" x="103.42" y="106.5391"/></g><text fill="#000000" font-family="sans-serif" font-size="14" lengthAdjust="spacing" textLength="268.4541" x="115.42" y="112.8857">openFile(in event : ActionEvent) : void</text><g data-visibility-modifier="PRIVATE_METHOD"><rect fill="#F24D5C" height="6" style="stroke:#C82930;stroke-width:1;" width="6" x="103.42" y="122.8359"/></g><text fill="#000000" font-family="sans-serif" font-size="14" lengthAdjust="spacing" textLength="269.5752" x="115.42" y="129.1826">closeFile(in event : ActionEvent) : void</text><g data-visibility-modifier="PRIVATE_METHOD"><rect fill="#F24D5C" height="6" style="stroke:#C82930;stroke-width:1;" width="6" x="103.42" y="139.1328"/></g><text fill="#000000" font-family="sans-serif" font-size="14" lengthAdjust="spacing" textLength="266.2871" x="115.42" y="145.4795">saveFile(in event : ActionEvent) : void</text></g><!--class LibraryIOManager--><g class="entity" data-entity="LibraryIOManager" data-source-line="13" data-uid="ent0003" id="entity_LibraryIOManager"><rect fill="#F1F1F1" height="80.5938" rx="2.5" ry="2.5" style="stroke:#181818;stroke-width:0.5;" width="472.4141" x="7" y="212.79"/><ellipse cx="176.2236" cy="228.79" fill="#ADD1B2" rx="11" ry="11" style="stroke:#181818;stroke-width:1;"/><path d="M179.1924,234.4306 Q178.6143,234.7275 177.9736,234.8681 Q177.333,235.0244 176.6299,235.0244 Q174.1299,235.0244 172.8018,233.3838 Q171.4893,231.7275 171.4893,228.6025 Q171.4893,225.4775 172.8018,223.8213 Q174.1299,222.165 176.6299,222.165 Q177.333,222.165 177.9736,222.3213 Q178.6299,222.4775 179.1924,222.7744 L179.1924,225.4931 Q178.5674,224.915 177.9736,224.6494 Q177.3799,224.3681 176.7549,224.3681 Q175.4111,224.3681 174.7236,225.4463 Q174.0361,226.5088 174.0361,228.6025 Q174.0361,230.6963 174.7236,231.7744 Q175.4111,232.8369 176.7549,232.8369 Q177.3799,232.8369 177.9736,232.5713 Q178.5674,232.29 179.1924,231.7119 L179.1924,234.4306 Z " fill="#000000"/><text fill="#000000" font-family="sans-serif" font-size="14" lengthAdjust="spacing" textLength="125.4668" x="196.7236" y="233.6367">LibraryIOManager</text><line style="stroke:#181818;stroke-width:0.5;" x1="8" x2="478.4141" y1="244.79" y2="244.79"/><line style="stroke:#181818;stroke-width:0.5;" x1="8" x2="478.4141" y1="252.79" y2="252.79"/><g data-visibility-modifier="PUBLIC_METHOD"><ellipse cx="18" cy="266.4384" fill="#84BE84" rx="3" ry="3" style="stroke:#038048;stroke-width:1;"/></g><text fill="#000000" font-family="sans-serif" font-size="14" lengthAdjust="spacing" textLength="446.4141" x="27" y="269.7851">saveLibrary(in libraryToSave : Library, in filePath : String) : void</text><g data-visibility-modifier="PUBLIC_METHOD"><ellipse cx="18" cy="282.7353" fill="#84BE84" rx="3" ry="3" style="stroke:#038048;stroke-width:1;"/></g><text fill="#000000" font-family="sans-serif" font-size="14" lengthAdjust="spacing" textLength="273.2324" x="27" y="286.082">loadLibrary(in filePath : String): Library</text></g><!--link MenuBarController to LibraryIOManager--><g class="link" data-entity-1="MenuBarController" data-entity-2="LibraryIOManager" data-source-line="18" data-uid="lnk4" id="link_MenuBarController_LibraryIOManager"><path codeLine="18" d="M243.21,153 C243.21,173.47 243.21,188.99 243.21,206.73" fill="none" id="MenuBarController-to-LibraryIOManager" style="stroke:#181818;stroke-width:1;"/><polygon fill="#181818" points="243.21,212.73,247.21,203.73,243.21,207.73,239.21,203.73,243.21,212.73" style="stroke:#181818;stroke-width:1;"/><text fill="#000000" font-family="sans-serif" font-size="13" lengthAdjust="spacing" textLength="8.271" x="234.8419" y="172.7563">1</text><text fill="#000000" font-family="sans-serif" font-size="13" lengthAdjust="spacing" textLength="8.271" x="234.5463" y="201.5829">1</text></g><!--SRC=[lL112i8m4BplAnOljMWENZq8AWg2LR7wWBMk6WY99B4WnR-RYbPfBpsPIzYPONPce-WVBvcjzfFn5Z95pc72-ZOXEpNQMwCKsmA4aWTBzhvO9wJfp1Q7kAn1bUZB0VGS-_VGbHeRYXY4kRAUIyKbppbh7zXnvgNHitAAmvWRUGIHAUEubT9Htahu07XthfSfGl9Wqeo-Csd0lmNw6BXJsBKXVmbmwgtKvyy6X9uoTFonQKehAoppD8wFdK47XHYz_dhC9m00]--></g></svg>