<svg xmlns="http://www.w3.org/2000/svg" xmlns:xlink="http://www.w3.org/1999/xlink" contentStyleType="text/css" data-diagram-type="CLASS" height="1044px" preserveAspectRatio="none" style="width:2871px;height:1044px;background:#FFFFFF;" version="1.1" viewBox="0 0 2871 1044" width="2871px" zoomAndPan="magnify"><defs/><g><!--class LoanRegisterController--><g class="entity" data-entity="LoanRegisterController" data-source-line="5" data-uid="ent0002" id="entity_LoanRegisterController"><rect fill="#F1F1F1" height="357.6406" rx="2.5" ry="2.5" style="stroke:#181818;stroke-width:0.5;" width="422.2656" x="1681" y="294"/><ellipse cx="1807.2529" cy="310" fill="#ADD1B2" rx="11" ry="11" style="stroke:#181818;stroke-width:1;"/><path d="M1810.2217,315.6406 Q1809.6436,315.9375 1809.0029,316.0781 Q1808.3623,316.2344 1807.6592,316.2344 Q1805.1592,316.2344 1803.8311,314.5938 Q1802.5186,312.9375 1802.5186,309.8125 Q1802.5186,306.6875 1803.8311,305.0313 Q1805.1592,303.375 1807.6592,303.375 Q1808.3623,303.375 1809.0029,303.5313 Q1809.6592,303.6875 1810.2217,303.9844 L1810.2217,306.7031 Q1809.5967,306.125 1809.0029,305.8594 Q1808.4092,305.5781 1807.7842,305.5781 Q1806.4404,305.5781 1805.7529,306.6563 Q1805.0654,307.7188 1805.0654,309.8125 Q1805.0654,311.9063 1805.7529,312.9844 Q1806.4404,314.0469 1807.7842,314.0469 Q1808.4092,314.0469 1809.0029,313.7813 Q1809.5967,313.5 1810.2217,312.9219 L1810.2217,315.6406 Z " fill="#000000"/><text fill="#000000" font-family="sans-serif" font-size="14" lengthAdjust="spacing" textLength="161.2598" x="1827.7529" y="314.8467">LoanRegisterController</text><line style="stroke:#181818;stroke-width:0.5;" x1="1682" x2="2102.2656" y1="326" y2="326"/><rect fill="none" height="6" style="stroke:#C82930;stroke-width:1;" width="6" x="1689" y="336.6484"/><text fill="#000000" font-family="sans-serif" font-size="14" lengthAdjust="spacing" textLength="211.374" x="1701" y="342.9951">loanTable : TableView&lt;Loan&gt;</text><rect fill="none" height="6" style="stroke:#C82930;stroke-width:1;" width="6" x="1689" y="352.9453"/><text fill="#000000" font-family="sans-serif" font-size="14" lengthAdjust="spacing" textLength="335.8359" x="1701" y="359.292">studentNameClm : TableColumn&lt;Loan, String&gt;</text><rect fill="none" height="6" style="stroke:#C82930;stroke-width:1;" width="6" x="1689" y="369.2422"/><text fill="#000000" font-family="sans-serif" font-size="14" lengthAdjust="spacing" textLength="357.752" x="1701" y="375.5889">studentSurnameClm : TableColumn&lt;Loan, String&gt;</text><rect fill="none" height="6" style="stroke:#C82930;stroke-width:1;" width="6" x="1689" y="385.5391"/><text fill="#000000" font-family="sans-serif" font-size="14" lengthAdjust="spacing" textLength="307.5488" x="1701" y="391.8857">studentIdClm : TableColumn&lt;Loan, String&gt;</text><rect fill="none" height="6" style="stroke:#C82930;stroke-width:1;" width="6" x="1689" y="401.8359"/><text fill="#000000" font-family="sans-serif" font-size="14" lengthAdjust="spacing" textLength="316.4424" x="1701" y="408.1826">bookNameClm : TableColumn&lt;Loan, String&gt;</text><rect fill="none" height="6" style="stroke:#C82930;stroke-width:1;" width="6" x="1689" y="418.1328"/><text fill="#000000" font-family="sans-serif" font-size="14" lengthAdjust="spacing" textLength="288.1553" x="1701" y="424.4795">bookIdClm : TableColumn&lt;Loan, String&gt;</text><rect fill="none" height="6" style="stroke:#C82930;stroke-width:1;" width="6" x="1689" y="434.4297"/><text fill="#000000" font-family="sans-serif" font-size="14" lengthAdjust="spacing" textLength="325.7393" x="1701" y="440.7764">loanEndClm : TableColumn&lt;Loan, LocalDate&gt;</text><rect fill="none" height="6" style="stroke:#C82930;stroke-width:1;" width="6" x="1689" y="450.7266"/><text fill="#000000" font-family="sans-serif" font-size="14" lengthAdjust="spacing" textLength="301.875" x="1701" y="457.0732">returnedClm : TableColumn&lt;Loan, String&gt;</text><rect fill="none" height="6" style="stroke:#C82930;stroke-width:1;" width="6" x="1689" y="467.0234"/><text fill="#000000" font-family="sans-serif" font-size="14" lengthAdjust="spacing" textLength="107.6113" x="1701" y="473.3701">library : Library</text><rect fill="none" height="6" style="stroke:#C82930;stroke-width:1;" width="6" x="1689" y="483.3203"/><text fill="#000000" font-family="sans-serif" font-size="14" lengthAdjust="spacing" textLength="258.8018" x="1701" y="489.667">sideBarController : SideBarController</text><rect fill="none" height="6" style="stroke:#C82930;stroke-width:1;" width="6" x="1689" y="499.6172"/><text fill="#000000" font-family="sans-serif" font-size="14" lengthAdjust="spacing" textLength="383.3047" x="1701" y="505.9639">loanInsertPopupController : LoanInsertPopupController</text><rect fill="none" height="6" style="stroke:#C82930;stroke-width:1;" width="6" x="1689" y="515.9141"/><text fill="#000000" font-family="sans-serif" font-size="14" lengthAdjust="spacing" textLength="396.2656" x="1701" y="522.2607">loanModifyPopupController : LoanModifyPopupController</text><line style="stroke:#181818;stroke-width:0.5;" x1="1682" x2="2102.2656" y1="529.5625" y2="529.5625"/><ellipse cx="1692" cy="543.2109" fill="#84BE84" rx="3" ry="3" style="stroke:#038048;stroke-width:1;"/><text fill="#000000" font-family="sans-serif" font-size="14" lengthAdjust="spacing" textLength="279.7949" x="1701" y="546.5576">LoanRegisterController(library : Library)</text><ellipse cx="1692" cy="559.5078" fill="#84BE84" rx="3" ry="3" style="stroke:#038048;stroke-width:1;"/><text fill="#000000" font-family="sans-serif" font-size="14" lengthAdjust="spacing" textLength="112.5195" x="1701" y="562.8545">initialize() : void</text><rect fill="#F24D5C" height="6" style="stroke:#C82930;stroke-width:1;" width="6" x="1689" y="572.8047"/><text fill="#000000" font-family="sans-serif" font-size="14" lengthAdjust="spacing" textLength="172.915" x="1701" y="579.1514">openInsertPopup() : void</text><rect fill="#F24D5C" height="6" style="stroke:#C82930;stroke-width:1;" width="6" x="1689" y="589.1016"/><text fill="#000000" font-family="sans-serif" font-size="14" lengthAdjust="spacing" textLength="179.3955" x="1701" y="595.4482">openModifyPopup() : void</text><rect fill="#F24D5C" height="6" style="stroke:#C82930;stroke-width:1;" width="6" x="1689" y="605.3984"/><text fill="#000000" font-family="sans-serif" font-size="14" lengthAdjust="spacing" textLength="201.9199" x="1701" y="611.7451">removeFromRegister() : void</text><rect fill="#F24D5C" height="6" style="stroke:#C82930;stroke-width:1;" width="6" x="1689" y="621.6953"/><text fill="#000000" font-family="sans-serif" font-size="14" lengthAdjust="spacing" textLength="175.5469" x="1701" y="628.042">updateTableView() : void</text><rect fill="#F24D5C" height="6" style="stroke:#C82930;stroke-width:1;" width="6" x="1689" y="637.9922"/><text fill="#000000" font-family="sans-serif" font-size="14" lengthAdjust="spacing" textLength="134.7979" x="1701" y="644.3389">searchLoan() : void</text></g><!--class SideBarController--><g class="entity" data-entity="SideBarController" data-source-line="5" data-uid="ent0003" id="entity_SideBarController"><rect fill="#F1F1F1" height="178.375" rx="2.5" ry="2.5" style="stroke:#181818;stroke-width:0.5;" width="226.751" x="1896.5" y="785.5"/><ellipse cx="1943.9312" cy="801.5" fill="#ADD1B2" rx="11" ry="11" style="stroke:#181818;stroke-width:1;"/><path d="M1946.8999,807.1406 Q1946.3218,807.4375 1945.6812,807.5781 Q1945.0405,807.7344 1944.3374,807.7344 Q1941.8374,807.7344 1940.5093,806.0938 Q1939.1968,804.4375 1939.1968,801.3125 Q1939.1968,798.1875 1940.5093,796.5313 Q1941.8374,794.875 1944.3374,794.875 Q1945.0405,794.875 1945.6812,795.0313 Q1946.3374,795.1875 1946.8999,795.4844 L1946.8999,798.2031 Q1946.2749,797.625 1945.6812,797.3594 Q1945.0874,797.0781 1944.4624,797.0781 Q1943.1187,797.0781 1942.4312,798.1563 Q1941.7437,799.2188 1941.7437,801.3125 Q1941.7437,803.4063 1942.4312,804.4844 Q1943.1187,805.5469 1944.4624,805.5469 Q1945.0874,805.5469 1945.6812,805.2813 Q1946.2749,805 1946.8999,804.4219 L1946.8999,807.1406 Z " fill="#000000"/><text fill="#000000" font-family="sans-serif" font-size="14" lengthAdjust="spacing" textLength="123.3887" x="1964.4312" y="806.3467">SideBarController</text><line style="stroke:#181818;stroke-width:0.5;" x1="1897.5" x2="2122.251" y1="817.5" y2="817.5"/><rect fill="none" height="6" style="stroke:#C82930;stroke-width:1;" width="6" x="1904.5" y="828.1484"/><text fill="#000000" font-family="sans-serif" font-size="14" lengthAdjust="spacing" textLength="110.8311" x="1916.5" y="834.4951">addBtn : Button</text><rect fill="none" height="6" style="stroke:#C82930;stroke-width:1;" width="6" x="1904.5" y="844.4453"/><text fill="#000000" font-family="sans-serif" font-size="14" lengthAdjust="spacing" textLength="165.2451" x="1916.5" y="850.792">searchBarTF : TextField</text><rect fill="none" height="6" style="stroke:#C82930;stroke-width:1;" width="6" x="1904.5" y="860.7422"/><text fill="#000000" font-family="sans-serif" font-size="14" lengthAdjust="spacing" textLength="137.9492" x="1916.5" y="867.0889">removeBtn : Button</text><rect fill="none" height="6" style="stroke:#C82930;stroke-width:1;" width="6" x="1904.5" y="877.0391"/><text fill="#000000" font-family="sans-serif" font-size="14" lengthAdjust="spacing" textLength="132.6719" x="1916.5" y="883.3857">modifyBtn : Button</text><line style="stroke:#181818;stroke-width:0.5;" x1="1897.5" x2="2122.251" y1="890.6875" y2="890.6875"/><ellipse cx="1907.5" cy="904.3359" fill="#84BE84" rx="3" ry="3" style="stroke:#038048;stroke-width:1;"/><text fill="#000000" font-family="sans-serif" font-size="14" lengthAdjust="spacing" textLength="145.7422" x="1916.5" y="907.6826">getAddBtn() : Button</text><ellipse cx="1907.5" cy="920.6328" fill="#84BE84" rx="3" ry="3" style="stroke:#038048;stroke-width:1;"/><text fill="#000000" font-family="sans-serif" font-size="14" lengthAdjust="spacing" textLength="200.751" x="1916.5" y="923.9795">getSearchBarTF() : TextField</text><ellipse cx="1907.5" cy="936.9297" fill="#84BE84" rx="3" ry="3" style="stroke:#038048;stroke-width:1;"/><text fill="#000000" font-family="sans-serif" font-size="14" lengthAdjust="spacing" textLength="175.834" x="1916.5" y="940.2764">getRemoveBtn() : Button</text><ellipse cx="1907.5" cy="953.2266" fill="#84BE84" rx="3" ry="3" style="stroke:#038048;stroke-width:1;"/><text fill="#000000" font-family="sans-serif" font-size="14" lengthAdjust="spacing" textLength="165.0264" x="1916.5" y="956.5732">getModifyBtn() : Button</text></g><!--class Library--><g class="entity" data-entity="Library" data-source-line="6" data-uid="ent0005" id="entity_Library"><rect fill="#F1F1F1" height="162.0781" rx="2.5" ry="2.5" style="stroke:#181818;stroke-width:0.5;" width="323.7529" x="1522" y="793.5"/><ellipse cx="1655.1504" cy="809.5" fill="#ADD1B2" rx="11" ry="11" style="stroke:#181818;stroke-width:1;"/><path d="M1658.1191,815.1406 Q1657.541,815.4375 1656.9004,815.5781 Q1656.2598,815.7344 1655.5566,815.7344 Q1653.0566,815.7344 1651.7285,814.0938 Q1650.416,812.4375 1650.416,809.3125 Q1650.416,806.1875 1651.7285,804.5313 Q1653.0566,802.875 1655.5566,802.875 Q1656.2598,802.875 1656.9004,803.0313 Q1657.5566,803.1875 1658.1191,803.4844 L1658.1191,806.2031 Q1657.4941,805.625 1656.9004,805.3594 Q1656.3066,805.0781 1655.6816,805.0781 Q1654.3379,805.0781 1653.6504,806.1563 Q1652.9629,807.2188 1652.9629,809.3125 Q1652.9629,811.4063 1653.6504,812.4844 Q1654.3379,813.5469 1655.6816,813.5469 Q1656.3066,813.5469 1656.9004,813.2813 Q1657.4941,813 1658.1191,812.4219 L1658.1191,815.1406 Z " fill="#000000"/><text fill="#000000" font-family="sans-serif" font-size="14" lengthAdjust="spacing" textLength="48.9521" x="1675.6504" y="814.3467">Library</text><line style="stroke:#181818;stroke-width:0.5;" x1="1523" x2="1844.7529" y1="825.5" y2="825.5"/><rect fill="none" height="6" style="stroke:#C82930;stroke-width:1;" width="6" x="1530" y="836.1484"/><text fill="#000000" font-family="sans-serif" font-size="14" lengthAdjust="spacing" textLength="222.585" x="1542" y="842.4951">bookRegister : Register&lt;Book&gt;</text><rect fill="none" height="6" style="stroke:#C82930;stroke-width:1;" width="6" x="1530" y="852.4453"/><text fill="#000000" font-family="sans-serif" font-size="14" lengthAdjust="spacing" textLength="262.2471" x="1542" y="858.792">studentRegister : Register&lt;Student&gt;</text><rect fill="none" height="6" style="stroke:#C82930;stroke-width:1;" width="6" x="1530" y="868.7422"/><text fill="#000000" font-family="sans-serif" font-size="14" lengthAdjust="spacing" textLength="217.3418" x="1542" y="875.0889">loanRegister : Register&lt;Loan&gt;</text><line style="stroke:#181818;stroke-width:0.5;" x1="1523" x2="1844.7529" y1="882.3906" y2="882.3906"/><ellipse cx="1533" cy="896.0391" fill="#84BE84" rx="3" ry="3" style="stroke:#038048;stroke-width:1;"/><text fill="#000000" font-family="sans-serif" font-size="14" lengthAdjust="spacing" textLength="59.876" x="1542" y="899.3857">Library()</text><ellipse cx="1533" cy="912.3359" fill="#84BE84" rx="3" ry="3" style="stroke:#038048;stroke-width:1;"/><text fill="#000000" font-family="sans-serif" font-size="14" lengthAdjust="spacing" textLength="257.2158" x="1542" y="915.6826">getBookRegister() : Register&lt;Book&gt;</text><ellipse cx="1533" cy="928.6328" fill="#84BE84" rx="3" ry="3" style="stroke:#038048;stroke-width:1;"/><text fill="#000000" font-family="sans-serif" font-size="14" lengthAdjust="spacing" textLength="297.7529" x="1542" y="931.9795">getStudentRegister() : Register&lt;Student&gt;</text><ellipse cx="1533" cy="944.9297" fill="#84BE84" rx="3" ry="3" style="stroke:#038048;stroke-width:1;"/><text fill="#000000" font-family="sans-serif" font-size="14" lengthAdjust="spacing" textLength="255.165" x="1542" y="948.2764">getLoanRegister() : Register&lt;Loan&gt;</text></g><!--class LoanInsertPopupController--><g class="entity" data-entity="LoanInsertPopupController" data-source-line="7" data-uid="ent0007" id="entity_LoanInsertPopupController"><rect fill="#F1F1F1" height="178.375" rx="2.5" ry="2.5" style="stroke:#181818;stroke-width:0.5;" width="1624.2285" x="7" y="384"/><ellipse cx="721.4648" cy="400" fill="#ADD1B2" rx="11" ry="11" style="stroke:#181818;stroke-width:1;"/><path d="M724.4336,405.6406 Q723.8555,405.9375 723.2148,406.0781 Q722.5742,406.2344 721.8711,406.2344 Q719.3711,406.2344 718.043,404.5938 Q716.7305,402.9375 716.7305,399.8125 Q716.7305,396.6875 718.043,395.0313 Q719.3711,393.375 721.8711,393.375 Q722.5742,393.375 723.2148,393.5313 Q723.8711,393.6875 724.4336,393.9844 L724.4336,396.7031 Q723.8086,396.125 723.2148,395.8594 Q722.6211,395.5781 721.9961,395.5781 Q720.6523,395.5781 719.9648,396.6563 Q719.2773,397.7188 719.2773,399.8125 Q719.2773,401.9063 719.9648,402.9844 Q720.6523,404.0469 721.9961,404.0469 Q722.6211,404.0469 723.2148,403.7813 Q723.8086,403.5 724.4336,402.9219 L724.4336,405.6406 Z " fill="#000000"/><text fill="#000000" font-family="sans-serif" font-size="14" lengthAdjust="spacing" textLength="186.7988" x="741.9648" y="404.8467">LoanInsertPopupController</text><line style="stroke:#181818;stroke-width:0.5;" x1="8" x2="1630.2285" y1="416" y2="416"/><rect fill="none" height="6" style="stroke:#C82930;stroke-width:1;" width="6" x="15" y="426.6484"/><text fill="#000000" font-family="sans-serif" font-size="14" lengthAdjust="spacing" textLength="300.7813" x="27" y="432.9951">loanRegisterAdder : RegisterAdder&lt;Loan&gt;</text><rect fill="none" height="6" style="stroke:#C82930;stroke-width:1;" width="6" x="15" y="442.9453"/><text fill="#000000" font-family="sans-serif" font-size="14" lengthAdjust="spacing" textLength="344.7979" x="27" y="449.292">bookRegisterObtainer : RegisterObtainer&lt;Book&gt;</text><rect fill="none" height="6" style="stroke:#C82930;stroke-width:1;" width="6" x="15" y="459.2422"/><text fill="#000000" font-family="sans-serif" font-size="14" lengthAdjust="spacing" textLength="384.46" x="27" y="465.5889">studentRegisterObtainer : RegisterObtainer&lt;Student&gt;</text><rect fill="none" height="6" style="stroke:#C82930;stroke-width:1;" width="6" x="15" y="475.5391"/><text fill="#000000" font-family="sans-serif" font-size="14" lengthAdjust="spacing" textLength="343.7656" x="27" y="481.8857">loanRegisterValidator : RegisterValidator&lt;Loan&gt;</text><line style="stroke:#181818;stroke-width:0.5;" x1="8" x2="1630.2285" y1="489.1875" y2="489.1875"/><ellipse cx="18" cy="502.8359" fill="#84BE84" rx="3" ry="3" style="stroke:#038048;stroke-width:1;"/><text fill="#000000" font-family="sans-serif" font-size="14" lengthAdjust="spacing" textLength="1598.2285" x="27" y="506.1826">LoanInsertPopupController(loanRegisterAdder : RegisterAdder&lt;Loan&gt;, bookRegisterObtainer : RegisterObtainer&lt;Book&gt;, studentRegisterObtainer : RegisterObtainer&lt;Student&gt;, loanRegisterValidator : RegisterValidator&lt;Loan&gt;)</text><ellipse cx="18" cy="519.1328" fill="#84BE84" rx="3" ry="3" style="stroke:#038048;stroke-width:1;"/><text fill="#000000" font-family="sans-serif" font-size="14" lengthAdjust="spacing" textLength="112.5195" x="27" y="522.4795">initialize() : void</text><rect fill="#F24D5C" height="6" style="stroke:#C82930;stroke-width:1;" width="6" x="15" y="532.4297"/><text fill="#000000" font-family="sans-serif" font-size="14" lengthAdjust="spacing" textLength="188.5898" x="27" y="538.7764">setupStudentInsert() : void</text><rect fill="#F24D5C" height="6" style="stroke:#C82930;stroke-width:1;" width="6" x="15" y="548.7266"/><text fill="#000000" font-family="sans-serif" font-size="14" lengthAdjust="spacing" textLength="168.3213" x="27" y="555.0732">setupBookInsert() : void</text></g><!--class LoanModifyPopupController--><g class="entity" data-entity="LoanModifyPopupController" data-source-line="8" data-uid="ent0010" id="entity_LoanModifyPopupController"><rect fill="#F1F1F1" height="129.4844" rx="2.5" ry="2.5" style="stroke:#181818;stroke-width:0.5;" width="710.7559" x="2153.5" y="408.5"/><ellipse cx="2407.9883" cy="424.5" fill="#ADD1B2" rx="11" ry="11" style="stroke:#181818;stroke-width:1;"/><path d="M2410.957,430.1406 Q2410.3789,430.4375 2409.7383,430.5781 Q2409.0977,430.7344 2408.3945,430.7344 Q2405.8945,430.7344 2404.5664,429.0938 Q2403.2539,427.4375 2403.2539,424.3125 Q2403.2539,421.1875 2404.5664,419.5313 Q2405.8945,417.875 2408.3945,417.875 Q2409.0977,417.875 2409.7383,418.0313 Q2410.3945,418.1875 2410.957,418.4844 L2410.957,421.2031 Q2410.332,420.625 2409.7383,420.3594 Q2409.1445,420.0781 2408.5195,420.0781 Q2407.1758,420.0781 2406.4883,421.1563 Q2405.8008,422.2188 2405.8008,424.3125 Q2405.8008,426.4063 2406.4883,427.4844 Q2407.1758,428.5469 2408.5195,428.5469 Q2409.1445,428.5469 2409.7383,428.2813 Q2410.332,428 2410.957,427.4219 L2410.957,430.1406 Z " fill="#000000"/><text fill="#000000" font-family="sans-serif" font-size="14" lengthAdjust="spacing" textLength="193.2793" x="2428.4883" y="429.3467">LoanModifyPopupController</text><line style="stroke:#181818;stroke-width:0.5;" x1="2154.5" x2="2863.2559" y1="440.5" y2="440.5"/><rect fill="none" height="6" style="stroke:#C82930;stroke-width:1;" width="6" x="2161.5" y="451.1484"/><text fill="#000000" font-family="sans-serif" font-size="14" lengthAdjust="spacing" textLength="330.5586" x="2173.5" y="457.4951">loanRegisterModifier : RegisterModifier&lt;Loan&gt;</text><rect fill="none" height="6" style="stroke:#C82930;stroke-width:1;" width="6" x="2161.5" y="467.4453"/><text fill="#000000" font-family="sans-serif" font-size="14" lengthAdjust="spacing" textLength="343.7656" x="2173.5" y="473.792">loanRegisterValidator : RegisterValidator&lt;Loan&gt;</text><rect fill="none" height="6" style="stroke:#C82930;stroke-width:1;" width="6" x="2161.5" y="483.7422"/><text fill="#000000" font-family="sans-serif" font-size="14" lengthAdjust="spacing" textLength="141.0938" x="2173.5" y="490.0889">loanToModify : Loan</text><line style="stroke:#181818;stroke-width:0.5;" x1="2154.5" x2="2863.2559" y1="497.3906" y2="497.3906"/><ellipse cx="2164.5" cy="511.0391" fill="#84BE84" rx="3" ry="3" style="stroke:#038048;stroke-width:1;"/><text fill="#000000" font-family="sans-serif" font-size="14" lengthAdjust="spacing" textLength="684.7559" x="2173.5" y="514.3857">LoanModifyPopupController(loanRegisterModifier : RegisterModifier&lt;Loan&gt;, loanToModify : Loan)</text><ellipse cx="2164.5" cy="527.3359" fill="#84BE84" rx="3" ry="3" style="stroke:#038048;stroke-width:1;"/><text fill="#000000" font-family="sans-serif" font-size="14" lengthAdjust="spacing" textLength="112.5195" x="2173.5" y="530.6826">initialize() : void</text></g><!--class RegisterAdder<T>--><g class="entity" data-entity="RegisterAdder.T." data-source-line="10" data-uid="ent0012" id="entity_RegisterAdder.T."><rect fill="#F1F1F1" height="64.2969" rx="2.5" ry="2.5" style="stroke:#181818;stroke-width:0.5;" width="170.0947" x="849" y="88.5"/><ellipse cx="866.7417" cy="104.5" fill="#B4A7E5" rx="11" ry="11" style="stroke:#181818;stroke-width:1;"/><path d="M862.6636,100.2656 L862.6636,98.1094 L870.0542,98.1094 L870.0542,100.2656 L867.5855,100.2656 L867.5855,108.3438 L870.0542,108.3438 L870.0542,110.5 L862.6636,110.5 L862.6636,108.3438 L865.1324,108.3438 L865.1324,100.2656 L862.6636,100.2656 Z " fill="#000000"/><text fill="#000000" font-family="sans-serif" font-size="14" font-style="italic" lengthAdjust="spacing" textLength="132.002" x="881.351" y="109.3467">RegisterAdder&lt;T&gt;</text><line style="stroke:#181818;stroke-width:0.5;" x1="850" x2="1018.0947" y1="120.5" y2="120.5"/><line style="stroke:#181818;stroke-width:0.5;" x1="850" x2="1018.0947" y1="128.5" y2="128.5"/><ellipse cx="860" cy="142.1484" fill="#84BE84" rx="3" ry="3" style="stroke:#038048;stroke-width:1;"/><text fill="#000000" font-family="sans-serif" font-size="14" lengthAdjust="spacing" textLength="144.0947" x="869" y="145.4951">add(toAdd : T) : void</text></g><!--class RegisterValidator<T>--><g class="entity" data-entity="RegisterValidator.T." data-source-line="11" data-uid="ent0015" id="entity_RegisterValidator.T."><rect fill="#F1F1F1" height="64.2969" rx="2.5" ry="2.5" style="stroke:#181818;stroke-width:0.5;" width="244.3535" x="697" y="842.5"/><ellipse cx="738.4867" cy="858.5" fill="#B4A7E5" rx="11" ry="11" style="stroke:#181818;stroke-width:1;"/><path d="M734.4086,854.2656 L734.4086,852.1094 L741.7992,852.1094 L741.7992,854.2656 L739.3305,854.2656 L739.3305,862.3438 L741.7992,862.3438 L741.7992,864.5 L734.4086,864.5 L734.4086,862.3438 L736.8773,862.3438 L736.8773,854.2656 L734.4086,854.2656 Z " fill="#000000"/><text fill="#000000" font-family="sans-serif" font-size="14" font-style="italic" lengthAdjust="spacing" textLength="153.4941" x="758.3727" y="863.3467">RegisterValidator&lt;T&gt;</text><line style="stroke:#181818;stroke-width:0.5;" x1="698" x2="940.3535" y1="874.5" y2="874.5"/><line style="stroke:#181818;stroke-width:0.5;" x1="698" x2="940.3535" y1="882.5" y2="882.5"/><ellipse cx="708" cy="896.1484" fill="#84BE84" rx="3" ry="3" style="stroke:#038048;stroke-width:1;"/><text fill="#000000" font-family="sans-serif" font-size="14" lengthAdjust="spacing" textLength="218.3535" x="717" y="899.4951">isUnique(toVerify : T) : boolean</text></g><!--class RegisterObtainer<T>--><g class="entity" data-entity="RegisterObtainer.T." data-source-line="12" data-uid="ent0017" id="entity_RegisterObtainer.T."><rect fill="#F1F1F1" height="64.2969" rx="2.5" ry="2.5" style="stroke:#181818;stroke-width:0.5;" width="188.2852" x="611" y="88.5"/><ellipse cx="628.2034" cy="104.5" fill="#B4A7E5" rx="11" ry="11" style="stroke:#181818;stroke-width:1;"/><path d="M624.1253,100.2656 L624.1253,98.1094 L631.5159,98.1094 L631.5159,100.2656 L629.0472,100.2656 L629.0472,108.3438 L631.5159,108.3438 L631.5159,110.5 L624.1253,110.5 L624.1253,108.3438 L626.594,108.3438 L626.594,100.2656 L624.1253,100.2656 Z " fill="#000000"/><text fill="#000000" font-family="sans-serif" font-size="14" font-style="italic" lengthAdjust="spacing" textLength="151.3887" x="642.6931" y="109.3467">RegisterObtainer&lt;T&gt;</text><line style="stroke:#181818;stroke-width:0.5;" x1="612" x2="798.2852" y1="120.5" y2="120.5"/><line style="stroke:#181818;stroke-width:0.5;" x1="612" x2="798.2852" y1="128.5" y2="128.5"/><ellipse cx="622" cy="142.1484" fill="#84BE84" rx="3" ry="3" style="stroke:#038048;stroke-width:1;"/><text fill="#000000" font-family="sans-serif" font-size="14" lengthAdjust="spacing" textLength="162.2852" x="631" y="145.4951">getRegister() : List&lt;T&gt;</text></g><!--class LoanPopupController--><g class="entity" data-entity="LoanPopupController" data-source-line="13" data-uid="ent0020" id="entity_LoanPopupController"><rect fill="#F1F1F1" height="227.2656" rx="2.5" ry="2.5" style="stroke:#181818;stroke-width:0.5;" width="623.1943" x="1378.5" y="7"/><ellipse cx="1612.5249" cy="23" fill="#A9DCDF" rx="11" ry="11" style="stroke:#181818;stroke-width:1;"/><path d="M1612.6343,18.3438 L1611.478,23.4219 L1613.8062,23.4219 L1612.6343,18.3438 Z M1611.1499,16.1094 L1614.1343,16.1094 L1617.4937,28.5 L1615.0405,28.5 L1614.2749,25.4375 L1610.9937,25.4375 L1610.2437,28.5 L1607.8062,28.5 L1611.1499,16.1094 Z " fill="#000000"/><text fill="#000000" font-family="sans-serif" font-size="14" font-style="italic" lengthAdjust="spacing" textLength="146.6445" x="1633.0249" y="27.8467">LoanPopupController</text><line style="stroke:#181818;stroke-width:0.5;" x1="1379.5" x2="2000.6943" y1="39" y2="39"/><polygon fill="none" points="1389.5,47.6484,1393.5,51.6484,1389.5,55.6484,1385.5,51.6484" style="stroke:#B38D22;stroke-width:1;"/><text fill="#000000" font-family="sans-serif" font-size="14" lengthAdjust="spacing" textLength="196.417" x="1398.5" y="55.9951">studentSearchTF : TextField</text><polygon fill="none" points="1389.5,63.9453,1393.5,67.9453,1389.5,71.9453,1385.5,67.9453" style="stroke:#B38D22;stroke-width:1;"/><text fill="#000000" font-family="sans-serif" font-size="14" lengthAdjust="spacing" textLength="261.7139" x="1398.5" y="72.292">studentListView : ListView&lt;Student&gt;</text><polygon fill="none" points="1389.5,80.2422,1393.5,84.2422,1389.5,88.2422,1385.5,84.2422" style="stroke:#B38D22;stroke-width:1;"/><text fill="#000000" font-family="sans-serif" font-size="14" lengthAdjust="spacing" textLength="177.0234" x="1398.5" y="88.5889">bookSearchTF : TextField</text><polygon fill="none" points="1389.5,96.5391,1393.5,100.5391,1389.5,104.5391,1385.5,100.5391" style="stroke:#B38D22;stroke-width:1;"/><text fill="#000000" font-family="sans-serif" font-size="14" lengthAdjust="spacing" textLength="222.0518" x="1398.5" y="104.8857">bookListView : ListView&lt;Book&gt;</text><polygon fill="none" points="1389.5,112.8359,1393.5,116.8359,1389.5,120.8359,1385.5,116.8359" style="stroke:#B38D22;stroke-width:1;"/><text fill="#000000" font-family="sans-serif" font-size="14" lengthAdjust="spacing" textLength="140.376" x="1398.5" y="121.1826">dateDP : DatePicker</text><polygon fill="none" points="1389.5,129.1328,1393.5,133.1328,1389.5,137.1328,1385.5,133.1328" style="stroke:#B38D22;stroke-width:1;"/><text fill="#000000" font-family="sans-serif" font-size="14" lengthAdjust="spacing" textLength="137.8262" x="1398.5" y="137.4795">confirmBtn : Button</text><polygon fill="none" points="1389.5,145.4297,1393.5,149.4297,1389.5,153.4297,1385.5,149.4297" style="stroke:#B38D22;stroke-width:1;"/><text fill="#000000" font-family="sans-serif" font-size="14" lengthAdjust="spacing" textLength="129.8281" x="1398.5" y="153.7764">cancelBtn : Button</text><line style="stroke:#181818;stroke-width:0.5;" x1="1379.5" x2="2000.6943" y1="161.0781" y2="161.0781"/><ellipse cx="1389.5" cy="174.7266" fill="#84BE84" rx="3" ry="3" style="stroke:#038048;stroke-width:1;"/><text fill="#000000" font-family="sans-serif" font-size="14" lengthAdjust="spacing" textLength="112.5195" x="1398.5" y="178.0732">initialize() : void</text><ellipse cx="1389.5" cy="191.0234" fill="#84BE84" rx="3" ry="3" style="stroke:#038048;stroke-width:1;"/><text fill="#000000" font-family="sans-serif" font-size="14" font-style="italic" lengthAdjust="spacing" textLength="313.2637" x="1398.5" y="194.3701">confirmBtnAction(event : ActionEvent) : void</text><ellipse cx="1389.5" cy="207.3203" fill="#84BE84" rx="3" ry="3" style="stroke:#038048;stroke-width:1;"/><text fill="#000000" font-family="sans-serif" font-size="14" lengthAdjust="spacing" textLength="305.2656" x="1398.5" y="210.667">cancelBtnAction(event : ActionEvent) : void</text><polygon fill="#FFFF44" points="1389.5,218.6172,1393.5,222.6172,1389.5,226.6172,1385.5,222.6172" style="stroke:#B38D22;stroke-width:1;"/><text fill="#000000" font-family="sans-serif" font-size="14" lengthAdjust="spacing" textLength="597.1943" x="1398.5" y="226.9639">showAlert(type : Alert.AlertType, title : String, header : String, content : String) : void</text></g><!--class RegisterModifier<T>--><g class="entity" data-entity="RegisterModifier.T." data-source-line="16" data-uid="ent0023" id="entity_RegisterModifier.T."><rect fill="#F1F1F1" height="64.2969" rx="2.5" ry="2.5" style="stroke:#181818;stroke-width:0.5;" width="295.6162" x="2361" y="88.5"/><ellipse cx="2431.1128" cy="104.5" fill="#B4A7E5" rx="11" ry="11" style="stroke:#181818;stroke-width:1;"/><path d="M2427.0347,100.2656 L2427.0347,98.1094 L2434.4253,98.1094 L2434.4253,100.2656 L2431.9565,100.2656 L2431.9565,108.3438 L2434.4253,108.3438 L2434.4253,110.5 L2427.0347,110.5 L2427.0347,108.3438 L2429.5034,108.3438 L2429.5034,100.2656 L2427.0347,100.2656 Z " fill="#000000"/><text fill="#000000" font-family="sans-serif" font-size="14" font-style="italic" lengthAdjust="spacing" textLength="146.8906" x="2451.6128" y="109.3467">RegisterModifier&lt;T&gt;</text><line style="stroke:#181818;stroke-width:0.5;" x1="2362" x2="2655.6162" y1="120.5" y2="120.5"/><line style="stroke:#181818;stroke-width:0.5;" x1="2362" x2="2655.6162" y1="128.5" y2="128.5"/><ellipse cx="2372" cy="142.1484" fill="#84BE84" rx="3" ry="3" style="stroke:#038048;stroke-width:1;"/><text fill="#000000" font-family="sans-serif" font-size="14" lengthAdjust="spacing" textLength="269.6162" x="2381" y="145.4951">modify(oldItem : T, newItem : T) : void</text></g><!--class Loan--><g class="entity" data-entity="Loan" data-source-line="18" data-uid="ent0028" id="entity_Loan"><rect fill="#F1F1F1" height="325.0469" rx="2.5" ry="2.5" style="stroke:#181818;stroke-width:0.5;" width="433.4971" x="2292.5" y="712"/><ellipse cx="2488.0898" cy="728" fill="#ADD1B2" rx="11" ry="11" style="stroke:#181818;stroke-width:1;"/><path d="M2491.0586,733.6406 Q2490.4805,733.9375 2489.8398,734.0781 Q2489.1992,734.2344 2488.4961,734.2344 Q2485.9961,734.2344 2484.668,732.5938 Q2483.3555,730.9375 2483.3555,727.8125 Q2483.3555,724.6875 2484.668,723.0313 Q2485.9961,721.375 2488.4961,721.375 Q2489.1992,721.375 2489.8398,721.5313 Q2490.4961,721.6875 2491.0586,721.9844 L2491.0586,724.7031 Q2490.4336,724.125 2489.8398,723.8594 Q2489.2461,723.5781 2488.6211,723.5781 Q2487.2773,723.5781 2486.5898,724.6563 Q2485.9023,725.7188 2485.9023,727.8125 Q2485.9023,729.9063 2486.5898,730.9844 Q2487.2773,732.0469 2488.6211,732.0469 Q2489.2461,732.0469 2489.8398,731.7813 Q2490.4336,731.5 2491.0586,730.9219 L2491.0586,733.6406 Z " fill="#000000"/><text fill="#000000" font-family="sans-serif" font-size="14" lengthAdjust="spacing" textLength="33.8174" x="2508.5898" y="732.8467">Loan</text><line style="stroke:#181818;stroke-width:0.5;" x1="2293.5" x2="2724.9971" y1="744" y2="744"/><rect fill="none" height="6" style="stroke:#C82930;stroke-width:1;" width="6" x="2300.5" y="754.6484"/><text fill="#000000" font-family="sans-serif" font-size="14" lengthAdjust="spacing" textLength="178.1104" x="2312.5" y="760.9951">loanId : UUID {readOnly}</text><rect fill="none" height="6" style="stroke:#C82930;stroke-width:1;" width="6" x="2300.5" y="770.9453"/><text fill="#000000" font-family="sans-serif" font-size="14" lengthAdjust="spacing" textLength="208.4141" x="2312.5" y="777.292">student : Student {readOnly}</text><rect fill="none" height="6" style="stroke:#C82930;stroke-width:1;" width="6" x="2300.5" y="787.2422"/><text fill="#000000" font-family="sans-serif" font-size="14" lengthAdjust="spacing" textLength="168.752" x="2312.5" y="793.5889">book : Book {readOnly}</text><rect fill="none" height="6" style="stroke:#C82930;stroke-width:1;" width="6" x="2300.5" y="803.5391"/><text fill="#000000" font-family="sans-serif" font-size="14" lengthAdjust="spacing" textLength="140.123" x="2312.5" y="809.8857">loanEnd : LocalDate</text><rect fill="none" height="6" style="stroke:#C82930;stroke-width:1;" width="6" x="2300.5" y="819.8359"/><text fill="#000000" font-family="sans-serif" font-size="14" lengthAdjust="spacing" textLength="130.4502" x="2312.5" y="826.1826">returned : boolean</text><line style="stroke:#181818;stroke-width:0.5;" x1="2293.5" x2="2724.9971" y1="833.4844" y2="833.4844"/><ellipse cx="2303.5" cy="847.1328" fill="#84BE84" rx="3" ry="3" style="stroke:#038048;stroke-width:1;"/><text fill="#000000" font-family="sans-serif" font-size="14" lengthAdjust="spacing" textLength="407.4971" x="2312.5" y="850.4795">Loan(student : Student, book : Book, loanEnd : LocalDate)</text><ellipse cx="2303.5" cy="863.4297" fill="#84BE84" rx="3" ry="3" style="stroke:#038048;stroke-width:1;"/><text fill="#000000" font-family="sans-serif" font-size="14" lengthAdjust="spacing" textLength="129.7666" x="2312.5" y="866.7764">getLoanId() : UUID</text><ellipse cx="2303.5" cy="879.7266" fill="#84BE84" rx="3" ry="3" style="stroke:#038048;stroke-width:1;"/><text fill="#000000" font-family="sans-serif" font-size="14" lengthAdjust="spacing" textLength="157.7529" x="2312.5" y="883.0732">getStudent() : Student</text><ellipse cx="2303.5" cy="896.0234" fill="#84BE84" rx="3" ry="3" style="stroke:#038048;stroke-width:1;"/><text fill="#000000" font-family="sans-serif" font-size="14" lengthAdjust="spacing" textLength="117.2158" x="2312.5" y="899.3701">getBook() : Book</text><ellipse cx="2303.5" cy="912.3203" fill="#84BE84" rx="3" ry="3" style="stroke:#038048;stroke-width:1;"/><text fill="#000000" font-family="sans-serif" font-size="14" lengthAdjust="spacing" textLength="177.9463" x="2312.5" y="915.667">getLoanEnd() : LocalDate</text><ellipse cx="2303.5" cy="928.6172" fill="#84BE84" rx="3" ry="3" style="stroke:#038048;stroke-width:1;"/><text fill="#000000" font-family="sans-serif" font-size="14" lengthAdjust="spacing" textLength="156.5293" x="2312.5" y="931.9639">isReturned() : boolean</text><ellipse cx="2303.5" cy="944.9141" fill="#84BE84" rx="3" ry="3" style="stroke:#038048;stroke-width:1;"/><text fill="#000000" font-family="sans-serif" font-size="14" lengthAdjust="spacing" textLength="276.1104" x="2312.5" y="948.2607">setLoanEnd(loanEnd : LocalDate) : void</text><ellipse cx="2303.5" cy="961.2109" fill="#84BE84" rx="3" ry="3" style="stroke:#038048;stroke-width:1;"/><text fill="#000000" font-family="sans-serif" font-size="14" lengthAdjust="spacing" textLength="131.3457" x="2312.5" y="964.5576">returnLoan() : void</text><ellipse cx="2303.5" cy="977.5078" fill="#84BE84" rx="3" ry="3" style="stroke:#038048;stroke-width:1;"/><text fill="#000000" font-family="sans-serif" font-size="14" lengthAdjust="spacing" textLength="144.6074" x="2312.5" y="980.8545">activateLoan() : void</text><ellipse cx="2303.5" cy="993.8047" fill="#84BE84" rx="3" ry="3" style="stroke:#038048;stroke-width:1;"/><text fill="#000000" font-family="sans-serif" font-size="14" lengthAdjust="spacing" textLength="131.8447" x="2312.5" y="997.1514">isDelay() : boolean</text><rect fill="#F24D5C" height="6" style="stroke:#C82930;stroke-width:1;" width="6" x="2300.5" y="1007.1016"/><text fill="#000000" font-family="sans-serif" font-size="14" lengthAdjust="spacing" textLength="156.6045" x="2312.5" y="1013.4482">isActivable() : boolean</text><rect fill="#F24D5C" height="6" style="stroke:#C82930;stroke-width:1;" width="6" x="2300.5" y="1023.3984"/><text fill="#000000" font-family="sans-serif" font-size="14" lengthAdjust="spacing" textLength="126.5195" x="2312.5" y="1029.7451">isValid() : boolean</text></g><!--link LoanRegisterController to SideBarController--><g class="link" data-entity-1="LoanRegisterController" data-entity-2="SideBarController" data-source-line="5" data-uid="lnk4" id="link_LoanRegisterController_SideBarController"><path codeLine="5" d="M1944.62,652.14 C1958.26,698.33 1970.6603,740.3258 1982.2603,779.5958" fill="none" id="LoanRegisterController-to-SideBarController" style="stroke:#181818;stroke-width:1;"/><polygon fill="#181818" points="1983.96,785.35,1985.2465,775.5855,1982.5436,780.5548,1977.5743,777.8519,1983.96,785.35" style="stroke:#181818;stroke-width:1;"/><text fill="#000000" font-family="sans-serif" font-size="13" lengthAdjust="spacing" textLength="8.271" x="1938.5193" y="671.5071">1</text><text fill="#000000" font-family="sans-serif" font-size="13" lengthAdjust="spacing" textLength="8.271" x="1973.4938" y="774.403">1</text></g><!--link LoanRegisterController to Library--><g class="link" data-entity-1="LoanRegisterController" data-entity-2="Library" data-source-line="6" data-uid="lnk6" id="link_LoanRegisterController_Library"><path codeLine="6" d="M1799.25,652.14 C1773.52,701.55 1749.6413,747.4384 1728.4513,788.1284" fill="none" id="LoanRegisterController-to-Library" style="stroke:#181818;stroke-width:1;"/><polygon fill="#181818" points="1725.68,793.45,1733.3847,787.3151,1727.9894,789.0153,1726.2892,783.62,1725.68,793.45" style="stroke:#181818;stroke-width:1;"/><text fill="#000000" font-family="sans-serif" font-size="13" lengthAdjust="spacing" textLength="8.271" x="1787.4708" y="671.5071">1</text><text fill="#000000" font-family="sans-serif" font-size="13" lengthAdjust="spacing" textLength="8.271" x="1721.1775" y="782.3562">1</text></g><!--reverse link LoanInsertPopupController to LoanRegisterController--><g class="link" data-entity-1="LoanInsertPopupController" data-entity-2="LoanRegisterController" data-source-line="7" data-uid="lnk9" id="link_LoanInsertPopupController_LoanRegisterController"><path codeLine="7" d="M1637.08,473 C1653.65,473 1664.21,473 1680.77,473" fill="none" id="LoanInsertPopupController-backto-LoanRegisterController" style="stroke:#181818;stroke-width:1;stroke-dasharray:7,7;"/><polygon fill="#181818" points="1631.08,473,1640.08,477,1636.08,473,1640.08,469,1631.08,473" style="stroke:#181818;stroke-width:1;"/></g><!--link LoanRegisterController to LoanModifyPopupController--><g class="link" data-entity-1="LoanRegisterController" data-entity-2="LoanModifyPopupController" data-source-line="8" data-uid="lnk11" id="link_LoanRegisterController_LoanModifyPopupController"><path codeLine="8" d="M2103.19,473 C2119.83,473 2130.48,473 2147.12,473" fill="none" id="LoanRegisterController-to-LoanModifyPopupController" style="stroke:#181818;stroke-width:1;stroke-dasharray:7,7;"/><polygon fill="#181818" points="2153.12,473,2144.12,469,2148.12,473,2144.12,477,2153.12,473" style="stroke:#181818;stroke-width:1;"/></g><!--reverse link RegisterAdder<T> to LoanInsertPopupController--><g class="link" data-entity-1="RegisterAdder.T." data-entity-2="LoanInsertPopupController" data-source-line="10" data-uid="lnk14" id="link_RegisterAdder.T._LoanInsertPopupController"><path codeLine="10" d="M921.9206,158.3014 C905.0806,209.6614 872.72,308.28 847.95,383.76" fill="none" id="RegisterAdder&lt;T&gt;-backto-LoanInsertPopupController" style="stroke:#181818;stroke-width:1;"/><polygon fill="#181818" points="923.79,152.6,917.185,159.9058,922.2322,157.3511,924.7868,162.3983,923.79,152.6" style="stroke:#181818;stroke-width:1;"/><text fill="#000000" font-family="sans-serif" font-size="13" lengthAdjust="spacing" textLength="8.271" x="912.8774" y="172.8175">1</text><text fill="#000000" font-family="sans-serif" font-size="13" lengthAdjust="spacing" textLength="8.271" x="842.0179" y="372.8056">1</text></g><!--link LoanInsertPopupController to RegisterValidator<T>--><g class="link" data-entity-1="LoanInsertPopupController" data-entity-2="RegisterValidator.T." data-source-line="11" data-uid="lnk16" id="link_LoanInsertPopupController_RegisterValidator.T."><path codeLine="11" d="M819,562.17 C819,650.86 819,776.78 819,836.33" fill="none" id="LoanInsertPopupController-to-RegisterValidator&lt;T&gt;" style="stroke:#181818;stroke-width:1;"/><polygon fill="#181818" points="819,842.33,823,833.33,819,837.33,815,833.33,819,842.33" style="stroke:#181818;stroke-width:1;"/><text fill="#000000" font-family="sans-serif" font-size="13" lengthAdjust="spacing" textLength="8.271" x="810.6581" y="582.5341">1</text><text fill="#000000" font-family="sans-serif" font-size="13" lengthAdjust="spacing" textLength="8.271" x="810.1665" y="831.198">1</text></g><!--reverse link RegisterObtainer<T> to LoanInsertPopupController--><g class="link" data-entity-1="RegisterObtainer.T." data-entity-2="LoanInsertPopupController" data-source-line="12" data-uid="lnk19" id="link_RegisterObtainer.T._LoanInsertPopupController"><path codeLine="12" d="M716.9753,158.3059 C733.6753,209.6659 765.75,308.28 790.3,383.76" fill="none" id="RegisterObtainer&lt;T&gt;-backto-LoanInsertPopupController" style="stroke:#181818;stroke-width:1;"/><polygon fill="#181818" points="715.12,152.6,714.099,162.3958,716.6661,157.355,721.7069,159.922,715.12,152.6" style="stroke:#181818;stroke-width:1;"/><text fill="#000000" font-family="sans-serif" font-size="13" lengthAdjust="spacing" textLength="8.271" x="708.3808" y="172.8175">2</text><text fill="#000000" font-family="sans-serif" font-size="13" lengthAdjust="spacing" textLength="8.271" x="779.5938" y="372.8056">1</text></g><!--reverse link LoanPopupController to LoanInsertPopupController--><g class="link" data-entity-1="LoanPopupController" data-entity-2="LoanInsertPopupController" data-source-line="13" data-uid="lnk22" id="link_LoanPopupController_LoanInsertPopupController"><path codeLine="13" d="M1393.5212,240.8094 C1272.8912,289.3494 1150.6,338.56 1037.7,383.99" fill="none" id="LoanPopupController-backto-LoanInsertPopupController" style="stroke:#181818;stroke-width:1;"/><polygon fill="none" points="1410.22,234.09,1391.2814,235.2431,1395.761,246.3757,1410.22,234.09" style="stroke:#181818;stroke-width:1;"/></g><!--reverse link RegisterModifier<T> to LoanModifyPopupController--><g class="link" data-entity-1="RegisterModifier.T." data-entity-2="LoanModifyPopupController" data-source-line="16" data-uid="lnk25" id="link_RegisterModifier.T._LoanModifyPopupController"><path codeLine="16" d="M2509,158.6 C2509,215.82 2509,332.8 2509,408.37" fill="none" id="RegisterModifier&lt;T&gt;-backto-LoanModifyPopupController" style="stroke:#181818;stroke-width:1;"/><polygon fill="#181818" points="2509,152.6,2505,161.6,2509,157.6,2513,161.6,2509,152.6" style="stroke:#181818;stroke-width:1;"/><text fill="#000000" font-family="sans-serif" font-size="13" lengthAdjust="spacing" textLength="8.271" x="2500.2425" y="172.8175">1</text><text fill="#000000" font-family="sans-serif" font-size="13" lengthAdjust="spacing" textLength="8.271" x="2500.5907" y="397.5284">1</text></g><!--reverse link LoanPopupController to LoanModifyPopupController--><g class="link" data-entity-1="LoanPopupController" data-entity-2="LoanModifyPopupController" data-source-line="17" data-uid="lnk27" id="link_LoanPopupController_LoanModifyPopupController"><path codeLine="17" d="M1999.8869,240.7593 C2048.4669,260.2393 2081.45,273.98 2128,294 C2212.01,330.12 2305.01,373.51 2378.1,408.4" fill="none" id="LoanPopupController-backto-LoanModifyPopupController" style="stroke:#181818;stroke-width:1;"/><polygon fill="none" points="1983.18,234.06,1997.6538,246.3282,2002.12,235.1903,1983.18,234.06" style="stroke:#181818;stroke-width:1;"/></g><!--link LoanModifyPopupController to Loan--><g class="link" data-entity-1="LoanModifyPopupController" data-entity-2="Loan" data-source-line="18" data-uid="lnk29" id="link_LoanModifyPopupController_Loan"><path codeLine="18" d="M2509,537.74 C2509,584.67 2509,644.66 2509,705.73" fill="none" id="LoanModifyPopupController-to-Loan" style="stroke:#181818;stroke-width:1;"/><polygon fill="#181818" points="2509,711.73,2513,702.73,2509,706.73,2505,702.73,2509,711.73" style="stroke:#181818;stroke-width:1;"/><text fill="#000000" font-family="sans-serif" font-size="13" lengthAdjust="spacing" textLength="8.271" x="2500.5673" y="558.1393">1</text><text fill="#000000" font-family="sans-serif" font-size="13" lengthAdjust="spacing" textLength="8.271" x="2500.8136" y="701.0835">1</text></g><!--SRC=[dLPRJ-Cu57xFhx3AmmIHejcLzgKQLIetgL9dGBJmxjO6B1AxuxYmNRR_VOylSPp4wMLve7Q-S_UvbU-Chx741UA2q9AkqL_VaszlZ51Kq699PPaatz1mE4IFjxF9Odh_QwvloKnW_aXVMQcel1PSIP7dLAB17mCq9CEnEGpc8EOA1_ZWABuPMqeijtsqb_db66bioaigrODORzOrtCib7TTFGTZBjisLz0gqjcqgdohH4qAe_B4O3mvnaZRdCyuPmKeSnMtq_XbmtoyLPloWQc3yr_hRyJJfZKAFguQM1IhZpFqg3oZqxmvaIPLkrxF9V7vhaorPvRWi3Ow-4WH_GvHhrmaQeQUdwGtwaXIJUvvlTmukrOPGhW2VkrE7P2d4E-1N-gS3Ql6tNCkVYHNERx2Y3f5KRIId6W89ETKsQ-J2s9Ts56UXeYmc-Dpnlr9b7fIavywl6d323EBEDQWb6qGVci90bK6QNbmWLZuwFmnSUMB1ikQDcGkN3y688xRnCBwt4BnIx0COOXWhRsYEjntbGq0cXc-PqoXgogU1x7o2sCRXSqG7lafYeA-EFtIOnir4YP6vE8-3b8YHQVV6FWUi2UbvytKgOcDtn8xmZUEq3MFyyyPfhKKG5iRX-e9NDDAtN9JWcGX9bO3l86BXdodE7RO2Bw0mfPsAd4mLBRIK377wMLqEY0mRcXS9xZLScy4H27f4D3ggby7A9yv-RoWuzqmbM5WPqycRpfpo6GInkL9SLzP6AL4bOKcnNBq1n-9EowH_gpj6S-8RH24-Q8JDnga1rEvEZ2PRnJMJpOjQdS6R2bsmdCweW9-LuX3TXMqrCZ33HhlGrQWrwzzdHZzTYZLAw1Skw7LUL6JN8jyKt11cqB8auwyjXZdqZLDvfkGuSbtwnnkagO-Lx3fY7x5la-FMl3XIkcjX8xy5EVSxAJhgfcqu6gDRmMZFtbJpnaVrQD_sL0_0RYQb7P-gviWuKmngzn_Q70z39DOqD3C61vQqOLk1Tr8KZIOIK6pMq2-eJ-SsR0kyERUWNl2oL1Ac6geBfnqbMpLdFiMDe4YRy1IwisaJN9CpnTNezMScE_S8qd1CIZrTpf3szkO1K9sP3sprxXxy3Aq4Vs6owBGhG31VqJpMhlhUxG9zLI7Q1OBrF1SyfHzsBxBNMtrhSNkDHt904D_4vmJYhbArNUiEPIwNvly2lcH8CMLQbosp3Bt1ecUhntq0ErMriEaluOFNxnolfw_8Qc06R32DxS0D-sMubbJJBs3m0t7FchAFRS_QuWTbm5SFp-OYq-TqUgIpsMb-Pl_7nUnKxmvt7jXzDsidt_eVfT0sj-56miIRQ2nXgfqgiDglMM7QdFgGmVWMrXhNmyCdZfgPdcHU5jEnBz2x_m00]--></g></svg>