<svg xmlns="http://www.w3.org/2000/svg" xmlns:xlink="http://www.w3.org/1999/xlink" contentStyleType="text/css" data-diagram-type="CLASS" height="1044px" preserveAspectRatio="none" style="width:2816px;height:1044px;background:#FFFFFF;" version="1.1" viewBox="0 0 2816 1044" width="2816px" zoomAndPan="magnify"><defs/><g><!--class LoanRegisterController--><g class="entity" data-entity="LoanRegisterController" data-source-line="4" data-uid="ent0002" id="entity_LoanRegisterController"><rect fill="#F1F1F1" height="357.6406" rx="2.5" ry="2.5" style="stroke:#181818;stroke-width:0.5;" width="422.2656" x="1645" y="294"/><ellipse cx="1771.2529" cy="310" fill="#ADD1B2" rx="11" ry="11" style="stroke:#181818;stroke-width:1;"/><path d="M1774.2217,315.6406 Q1773.6436,315.9375 1773.0029,316.0781 Q1772.3623,316.2344 1771.6592,316.2344 Q1769.1592,316.2344 1767.8311,314.5938 Q1766.5186,312.9375 1766.5186,309.8125 Q1766.5186,306.6875 1767.8311,305.0313 Q1769.1592,303.375 1771.6592,303.375 Q1772.3623,303.375 1773.0029,303.5313 Q1773.6592,303.6875 1774.2217,303.9844 L1774.2217,306.7031 Q1773.5967,306.125 1773.0029,305.8594 Q1772.4092,305.5781 1771.7842,305.5781 Q1770.4404,305.5781 1769.7529,306.6563 Q1769.0654,307.7188 1769.0654,309.8125 Q1769.0654,311.9063 1769.7529,312.9844 Q1770.4404,314.0469 1771.7842,314.0469 Q1772.4092,314.0469 1773.0029,313.7813 Q1773.5967,313.5 1774.2217,312.9219 L1774.2217,315.6406 Z " fill="#000000"/><text fill="#000000" font-family="sans-serif" font-size="14" lengthAdjust="spacing" textLength="161.2598" x="1791.7529" y="314.8467">LoanRegisterController</text><line style="stroke:#181818;stroke-width:0.5;" x1="1646" x2="2066.2656" y1="326" y2="326"/><rect fill="none" height="6" style="stroke:#C82930;stroke-width:1;" width="6" x="1653" y="336.6484"/><text fill="#000000" font-family="sans-serif" font-size="14" lengthAdjust="spacing" textLength="211.374" x="1665" y="342.9951">loanTable : TableView&lt;Loan&gt;</text><rect fill="none" height="6" style="stroke:#C82930;stroke-width:1;" width="6" x="1653" y="352.9453"/><text fill="#000000" font-family="sans-serif" font-size="14" lengthAdjust="spacing" textLength="335.8359" x="1665" y="359.292">studentNameClm : TableColumn&lt;Loan, String&gt;</text><rect fill="none" height="6" style="stroke:#C82930;stroke-width:1;" width="6" x="1653" y="369.2422"/><text fill="#000000" font-family="sans-serif" font-size="14" lengthAdjust="spacing" textLength="357.752" x="1665" y="375.5889">studentSurnameClm : TableColumn&lt;Loan, String&gt;</text><rect fill="none" height="6" style="stroke:#C82930;stroke-width:1;" width="6" x="1653" y="385.5391"/><text fill="#000000" font-family="sans-serif" font-size="14" lengthAdjust="spacing" textLength="307.5488" x="1665" y="391.8857">studentIdClm : TableColumn&lt;Loan, String&gt;</text><rect fill="none" height="6" style="stroke:#C82930;stroke-width:1;" width="6" x="1653" y="401.8359"/><text fill="#000000" font-family="sans-serif" font-size="14" lengthAdjust="spacing" textLength="316.4424" x="1665" y="408.1826">bookNameClm : TableColumn&lt;Loan, String&gt;</text><rect fill="none" height="6" style="stroke:#C82930;stroke-width:1;" width="6" x="1653" y="418.1328"/><text fill="#000000" font-family="sans-serif" font-size="14" lengthAdjust="spacing" textLength="288.1553" x="1665" y="424.4795">bookIdClm : TableColumn&lt;Loan, String&gt;</text><rect fill="none" height="6" style="stroke:#C82930;stroke-width:1;" width="6" x="1653" y="434.4297"/><text fill="#000000" font-family="sans-serif" font-size="14" lengthAdjust="spacing" textLength="325.7393" x="1665" y="440.7764">loanEndClm : TableColumn&lt;Loan, LocalDate&gt;</text><rect fill="none" height="6" style="stroke:#C82930;stroke-width:1;" width="6" x="1653" y="450.7266"/><text fill="#000000" font-family="sans-serif" font-size="14" lengthAdjust="spacing" textLength="301.875" x="1665" y="457.0732">returnedClm : TableColumn&lt;Loan, String&gt;</text><rect fill="none" height="6" style="stroke:#C82930;stroke-width:1;" width="6" x="1653" y="467.0234"/><text fill="#000000" font-family="sans-serif" font-size="14" lengthAdjust="spacing" textLength="107.6113" x="1665" y="473.3701">library : Library</text><rect fill="none" height="6" style="stroke:#C82930;stroke-width:1;" width="6" x="1653" y="483.3203"/><text fill="#000000" font-family="sans-serif" font-size="14" lengthAdjust="spacing" textLength="258.8018" x="1665" y="489.667">sideBarController : SideBarController</text><rect fill="none" height="6" style="stroke:#C82930;stroke-width:1;" width="6" x="1653" y="499.6172"/><text fill="#000000" font-family="sans-serif" font-size="14" lengthAdjust="spacing" textLength="383.3047" x="1665" y="505.9639">loanInsertPopupController : LoanInsertPopupController</text><rect fill="none" height="6" style="stroke:#C82930;stroke-width:1;" width="6" x="1653" y="515.9141"/><text fill="#000000" font-family="sans-serif" font-size="14" lengthAdjust="spacing" textLength="396.2656" x="1665" y="522.2607">loanModifyPopupController : LoanModifyPopupController</text><line style="stroke:#181818;stroke-width:0.5;" x1="1646" x2="2066.2656" y1="529.5625" y2="529.5625"/><ellipse cx="1656" cy="543.2109" fill="#84BE84" rx="3" ry="3" style="stroke:#038048;stroke-width:1;"/><text fill="#000000" font-family="sans-serif" font-size="14" lengthAdjust="spacing" textLength="270.6279" x="1665" y="546.5576">LoanRegisterController(Library library)</text><ellipse cx="1656" cy="559.5078" fill="#84BE84" rx="3" ry="3" style="stroke:#038048;stroke-width:1;"/><text fill="#000000" font-family="sans-serif" font-size="14" lengthAdjust="spacing" textLength="112.5195" x="1665" y="562.8545">initialize() : void</text><rect fill="#F24D5C" height="6" style="stroke:#C82930;stroke-width:1;" width="6" x="1653" y="572.8047"/><text fill="#000000" font-family="sans-serif" font-size="14" lengthAdjust="spacing" textLength="172.915" x="1665" y="579.1514">openInsertPopup() : void</text><rect fill="#F24D5C" height="6" style="stroke:#C82930;stroke-width:1;" width="6" x="1653" y="589.1016"/><text fill="#000000" font-family="sans-serif" font-size="14" lengthAdjust="spacing" textLength="179.3955" x="1665" y="595.4482">openModifyPopup() : void</text><rect fill="#F24D5C" height="6" style="stroke:#C82930;stroke-width:1;" width="6" x="1653" y="605.3984"/><text fill="#000000" font-family="sans-serif" font-size="14" lengthAdjust="spacing" textLength="201.9199" x="1665" y="611.7451">removeFromRegister() : void</text><rect fill="#F24D5C" height="6" style="stroke:#C82930;stroke-width:1;" width="6" x="1653" y="621.6953"/><text fill="#000000" font-family="sans-serif" font-size="14" lengthAdjust="spacing" textLength="175.5469" x="1665" y="628.042">updateTableView() : void</text><rect fill="#F24D5C" height="6" style="stroke:#C82930;stroke-width:1;" width="6" x="1653" y="637.9922"/><text fill="#000000" font-family="sans-serif" font-size="14" lengthAdjust="spacing" textLength="134.7979" x="1665" y="644.3389">searchLoan() : void</text></g><!--class SideBarController--><g class="entity" data-entity="SideBarController" data-source-line="4" data-uid="ent0003" id="entity_SideBarController"><rect fill="#F1F1F1" height="178.375" rx="2.5" ry="2.5" style="stroke:#181818;stroke-width:0.5;" width="226.751" x="1862.5" y="785.5"/><ellipse cx="1909.9312" cy="801.5" fill="#ADD1B2" rx="11" ry="11" style="stroke:#181818;stroke-width:1;"/><path d="M1912.8999,807.1406 Q1912.3218,807.4375 1911.6812,807.5781 Q1911.0405,807.7344 1910.3374,807.7344 Q1907.8374,807.7344 1906.5093,806.0938 Q1905.1968,804.4375 1905.1968,801.3125 Q1905.1968,798.1875 1906.5093,796.5313 Q1907.8374,794.875 1910.3374,794.875 Q1911.0405,794.875 1911.6812,795.0313 Q1912.3374,795.1875 1912.8999,795.4844 L1912.8999,798.2031 Q1912.2749,797.625 1911.6812,797.3594 Q1911.0874,797.0781 1910.4624,797.0781 Q1909.1187,797.0781 1908.4312,798.1563 Q1907.7437,799.2188 1907.7437,801.3125 Q1907.7437,803.4063 1908.4312,804.4844 Q1909.1187,805.5469 1910.4624,805.5469 Q1911.0874,805.5469 1911.6812,805.2813 Q1912.2749,805 1912.8999,804.4219 L1912.8999,807.1406 Z " fill="#000000"/><text fill="#000000" font-family="sans-serif" font-size="14" lengthAdjust="spacing" textLength="123.3887" x="1930.4312" y="806.3467">SideBarController</text><line style="stroke:#181818;stroke-width:0.5;" x1="1863.5" x2="2088.251" y1="817.5" y2="817.5"/><rect fill="none" height="6" style="stroke:#C82930;stroke-width:1;" width="6" x="1870.5" y="828.1484"/><text fill="#000000" font-family="sans-serif" font-size="14" lengthAdjust="spacing" textLength="110.8311" x="1882.5" y="834.4951">addBtn : Button</text><rect fill="none" height="6" style="stroke:#C82930;stroke-width:1;" width="6" x="1870.5" y="844.4453"/><text fill="#000000" font-family="sans-serif" font-size="14" lengthAdjust="spacing" textLength="165.2451" x="1882.5" y="850.792">searchBarTF : TextField</text><rect fill="none" height="6" style="stroke:#C82930;stroke-width:1;" width="6" x="1870.5" y="860.7422"/><text fill="#000000" font-family="sans-serif" font-size="14" lengthAdjust="spacing" textLength="137.9492" x="1882.5" y="867.0889">removeBtn : Button</text><rect fill="none" height="6" style="stroke:#C82930;stroke-width:1;" width="6" x="1870.5" y="877.0391"/><text fill="#000000" font-family="sans-serif" font-size="14" lengthAdjust="spacing" textLength="132.6719" x="1882.5" y="883.3857">modifyBtn : Button</text><line style="stroke:#181818;stroke-width:0.5;" x1="1863.5" x2="2088.251" y1="890.6875" y2="890.6875"/><ellipse cx="1873.5" cy="904.3359" fill="#84BE84" rx="3" ry="3" style="stroke:#038048;stroke-width:1;"/><text fill="#000000" font-family="sans-serif" font-size="14" lengthAdjust="spacing" textLength="145.7422" x="1882.5" y="907.6826">getAddBtn() : Button</text><ellipse cx="1873.5" cy="920.6328" fill="#84BE84" rx="3" ry="3" style="stroke:#038048;stroke-width:1;"/><text fill="#000000" font-family="sans-serif" font-size="14" lengthAdjust="spacing" textLength="200.751" x="1882.5" y="923.9795">getSearchBarTF() : TextField</text><ellipse cx="1873.5" cy="936.9297" fill="#84BE84" rx="3" ry="3" style="stroke:#038048;stroke-width:1;"/><text fill="#000000" font-family="sans-serif" font-size="14" lengthAdjust="spacing" textLength="175.834" x="1882.5" y="940.2764">getRemoveBtn() : Button</text><ellipse cx="1873.5" cy="953.2266" fill="#84BE84" rx="3" ry="3" style="stroke:#038048;stroke-width:1;"/><text fill="#000000" font-family="sans-serif" font-size="14" lengthAdjust="spacing" textLength="165.0264" x="1882.5" y="956.5732">getModifyBtn() : Button</text></g><!--class Library--><g class="entity" data-entity="Library" data-source-line="5" data-uid="ent0005" id="entity_Library"><rect fill="#F1F1F1" height="162.0781" rx="2.5" ry="2.5" style="stroke:#181818;stroke-width:0.5;" width="323.7529" x="1488" y="793.5"/><ellipse cx="1621.1504" cy="809.5" fill="#ADD1B2" rx="11" ry="11" style="stroke:#181818;stroke-width:1;"/><path d="M1624.1191,815.1406 Q1623.541,815.4375 1622.9004,815.5781 Q1622.2598,815.7344 1621.5566,815.7344 Q1619.0566,815.7344 1617.7285,814.0938 Q1616.416,812.4375 1616.416,809.3125 Q1616.416,806.1875 1617.7285,804.5313 Q1619.0566,802.875 1621.5566,802.875 Q1622.2598,802.875 1622.9004,803.0313 Q1623.5566,803.1875 1624.1191,803.4844 L1624.1191,806.2031 Q1623.4941,805.625 1622.9004,805.3594 Q1622.3066,805.0781 1621.6816,805.0781 Q1620.3379,805.0781 1619.6504,806.1563 Q1618.9629,807.2188 1618.9629,809.3125 Q1618.9629,811.4063 1619.6504,812.4844 Q1620.3379,813.5469 1621.6816,813.5469 Q1622.3066,813.5469 1622.9004,813.2813 Q1623.4941,813 1624.1191,812.4219 L1624.1191,815.1406 Z " fill="#000000"/><text fill="#000000" font-family="sans-serif" font-size="14" lengthAdjust="spacing" textLength="48.9521" x="1641.6504" y="814.3467">Library</text><line style="stroke:#181818;stroke-width:0.5;" x1="1489" x2="1810.7529" y1="825.5" y2="825.5"/><rect fill="none" height="6" style="stroke:#C82930;stroke-width:1;" width="6" x="1496" y="836.1484"/><text fill="#000000" font-family="sans-serif" font-size="14" lengthAdjust="spacing" textLength="222.585" x="1508" y="842.4951">bookRegister : Register&lt;Book&gt;</text><rect fill="none" height="6" style="stroke:#C82930;stroke-width:1;" width="6" x="1496" y="852.4453"/><text fill="#000000" font-family="sans-serif" font-size="14" lengthAdjust="spacing" textLength="262.2471" x="1508" y="858.792">studentRegister : Register&lt;Student&gt;</text><rect fill="none" height="6" style="stroke:#C82930;stroke-width:1;" width="6" x="1496" y="868.7422"/><text fill="#000000" font-family="sans-serif" font-size="14" lengthAdjust="spacing" textLength="217.3418" x="1508" y="875.0889">loanRegister : Register&lt;Loan&gt;</text><line style="stroke:#181818;stroke-width:0.5;" x1="1489" x2="1810.7529" y1="882.3906" y2="882.3906"/><ellipse cx="1499" cy="896.0391" fill="#84BE84" rx="3" ry="3" style="stroke:#038048;stroke-width:1;"/><text fill="#000000" font-family="sans-serif" font-size="14" lengthAdjust="spacing" textLength="59.876" x="1508" y="899.3857">Library()</text><ellipse cx="1499" cy="912.3359" fill="#84BE84" rx="3" ry="3" style="stroke:#038048;stroke-width:1;"/><text fill="#000000" font-family="sans-serif" font-size="14" lengthAdjust="spacing" textLength="257.2158" x="1508" y="915.6826">getBookRegister() : Register&lt;Book&gt;</text><ellipse cx="1499" cy="928.6328" fill="#84BE84" rx="3" ry="3" style="stroke:#038048;stroke-width:1;"/><text fill="#000000" font-family="sans-serif" font-size="14" lengthAdjust="spacing" textLength="297.7529" x="1508" y="931.9795">getStudentRegister() : Register&lt;Student&gt;</text><ellipse cx="1499" cy="944.9297" fill="#84BE84" rx="3" ry="3" style="stroke:#038048;stroke-width:1;"/><text fill="#000000" font-family="sans-serif" font-size="14" lengthAdjust="spacing" textLength="255.165" x="1508" y="948.2764">getLoanRegister() : Register&lt;Loan&gt;</text></g><!--class LoanInsertPopupController--><g class="entity" data-entity="LoanInsertPopupController" data-source-line="6" data-uid="ent0007" id="entity_LoanInsertPopupController"><rect fill="#F1F1F1" height="178.375" rx="2.5" ry="2.5" style="stroke:#181818;stroke-width:0.5;" width="1587.5605" x="7" y="384"/><ellipse cx="703.1309" cy="400" fill="#ADD1B2" rx="11" ry="11" style="stroke:#181818;stroke-width:1;"/><path d="M706.0996,405.6406 Q705.5215,405.9375 704.8809,406.0781 Q704.2402,406.2344 703.5371,406.2344 Q701.0371,406.2344 699.709,404.5938 Q698.3965,402.9375 698.3965,399.8125 Q698.3965,396.6875 699.709,395.0313 Q701.0371,393.375 703.5371,393.375 Q704.2402,393.375 704.8809,393.5313 Q705.5371,393.6875 706.0996,393.9844 L706.0996,396.7031 Q705.4746,396.125 704.8809,395.8594 Q704.2871,395.5781 703.6621,395.5781 Q702.3184,395.5781 701.6309,396.6563 Q700.9434,397.7188 700.9434,399.8125 Q700.9434,401.9063 701.6309,402.9844 Q702.3184,404.0469 703.6621,404.0469 Q704.2871,404.0469 704.8809,403.7813 Q705.4746,403.5 706.0996,402.9219 L706.0996,405.6406 Z " fill="#000000"/><text fill="#000000" font-family="sans-serif" font-size="14" lengthAdjust="spacing" textLength="186.7988" x="723.6309" y="404.8467">LoanInsertPopupController</text><line style="stroke:#181818;stroke-width:0.5;" x1="8" x2="1593.5605" y1="416" y2="416"/><rect fill="none" height="6" style="stroke:#C82930;stroke-width:1;" width="6" x="15" y="426.6484"/><text fill="#000000" font-family="sans-serif" font-size="14" lengthAdjust="spacing" textLength="300.7813" x="27" y="432.9951">loanRegisterAdder : RegisterAdder&lt;Loan&gt;</text><rect fill="none" height="6" style="stroke:#C82930;stroke-width:1;" width="6" x="15" y="442.9453"/><text fill="#000000" font-family="sans-serif" font-size="14" lengthAdjust="spacing" textLength="344.7979" x="27" y="449.292">bookRegisterObtainer : RegisterObtainer&lt;Book&gt;</text><rect fill="none" height="6" style="stroke:#C82930;stroke-width:1;" width="6" x="15" y="459.2422"/><text fill="#000000" font-family="sans-serif" font-size="14" lengthAdjust="spacing" textLength="384.46" x="27" y="465.5889">studentRegisterObtainer : RegisterObtainer&lt;Student&gt;</text><rect fill="none" height="6" style="stroke:#C82930;stroke-width:1;" width="6" x="15" y="475.5391"/><text fill="#000000" font-family="sans-serif" font-size="14" lengthAdjust="spacing" textLength="343.7656" x="27" y="481.8857">loanRegisterValidator : RegisterValidator&lt;Loan&gt;</text><line style="stroke:#181818;stroke-width:0.5;" x1="8" x2="1593.5605" y1="489.1875" y2="489.1875"/><ellipse cx="18" cy="502.8359" fill="#84BE84" rx="3" ry="3" style="stroke:#038048;stroke-width:1;"/><text fill="#000000" font-family="sans-serif" font-size="14" lengthAdjust="spacing" textLength="1561.5605" x="27" y="506.1826">LoanInsertPopupController(RegisterAdder&lt;Loan&gt; loanRegisterAdder, RegisterObtainer&lt;Book&gt; bookRegisterObtainer, RegisterObtainer&lt;Student&gt; studentRegisterObtainer, RegisterValidator&lt;Loan&gt; loanRegisterValidator)</text><ellipse cx="18" cy="519.1328" fill="#84BE84" rx="3" ry="3" style="stroke:#038048;stroke-width:1;"/><text fill="#000000" font-family="sans-serif" font-size="14" lengthAdjust="spacing" textLength="112.5195" x="27" y="522.4795">initialize() : void</text><rect fill="#F24D5C" height="6" style="stroke:#C82930;stroke-width:1;" width="6" x="15" y="532.4297"/><text fill="#000000" font-family="sans-serif" font-size="14" lengthAdjust="spacing" textLength="188.5898" x="27" y="538.7764">setupStudentInsert() : void</text><rect fill="#F24D5C" height="6" style="stroke:#C82930;stroke-width:1;" width="6" x="15" y="548.7266"/><text fill="#000000" font-family="sans-serif" font-size="14" lengthAdjust="spacing" textLength="168.3213" x="27" y="555.0732">setupBookInsert() : void</text></g><!--class LoanModifyPopupController--><g class="entity" data-entity="LoanModifyPopupController" data-source-line="7" data-uid="ent0010" id="entity_LoanModifyPopupController"><rect fill="#F1F1F1" height="129.4844" rx="2.5" ry="2.5" style="stroke:#181818;stroke-width:0.5;" width="692.4219" x="2117" y="408.5"/><ellipse cx="2362.3213" cy="424.5" fill="#ADD1B2" rx="11" ry="11" style="stroke:#181818;stroke-width:1;"/><path d="M2365.29,430.1406 Q2364.7119,430.4375 2364.0713,430.5781 Q2363.4307,430.7344 2362.7275,430.7344 Q2360.2275,430.7344 2358.8994,429.0938 Q2357.5869,427.4375 2357.5869,424.3125 Q2357.5869,421.1875 2358.8994,419.5313 Q2360.2275,417.875 2362.7275,417.875 Q2363.4307,417.875 2364.0713,418.0313 Q2364.7275,418.1875 2365.29,418.4844 L2365.29,421.2031 Q2364.665,420.625 2364.0713,420.3594 Q2363.4775,420.0781 2362.8525,420.0781 Q2361.5088,420.0781 2360.8213,421.1563 Q2360.1338,422.2188 2360.1338,424.3125 Q2360.1338,426.4063 2360.8213,427.4844 Q2361.5088,428.5469 2362.8525,428.5469 Q2363.4775,428.5469 2364.0713,428.2813 Q2364.665,428 2365.29,427.4219 L2365.29,430.1406 Z " fill="#000000"/><text fill="#000000" font-family="sans-serif" font-size="14" lengthAdjust="spacing" textLength="193.2793" x="2382.8213" y="429.3467">LoanModifyPopupController</text><line style="stroke:#181818;stroke-width:0.5;" x1="2118" x2="2808.4219" y1="440.5" y2="440.5"/><rect fill="none" height="6" style="stroke:#C82930;stroke-width:1;" width="6" x="2125" y="451.1484"/><text fill="#000000" font-family="sans-serif" font-size="14" lengthAdjust="spacing" textLength="330.5586" x="2137" y="457.4951">loanRegisterModifier : RegisterModifier&lt;Loan&gt;</text><rect fill="none" height="6" style="stroke:#C82930;stroke-width:1;" width="6" x="2125" y="467.4453"/><text fill="#000000" font-family="sans-serif" font-size="14" lengthAdjust="spacing" textLength="343.7656" x="2137" y="473.792">loanRegisterValidator : RegisterValidator&lt;Loan&gt;</text><rect fill="none" height="6" style="stroke:#C82930;stroke-width:1;" width="6" x="2125" y="483.7422"/><text fill="#000000" font-family="sans-serif" font-size="14" lengthAdjust="spacing" textLength="141.0938" x="2137" y="490.0889">loanToModify : Loan</text><line style="stroke:#181818;stroke-width:0.5;" x1="2118" x2="2808.4219" y1="497.3906" y2="497.3906"/><ellipse cx="2128" cy="511.0391" fill="#84BE84" rx="3" ry="3" style="stroke:#038048;stroke-width:1;"/><text fill="#000000" font-family="sans-serif" font-size="14" lengthAdjust="spacing" textLength="666.4219" x="2137" y="514.3857">LoanModifyPopupController(RegisterModifier&lt;Loan&gt; loanRegisterModifier, Loan loanToModify)</text><ellipse cx="2128" cy="527.3359" fill="#84BE84" rx="3" ry="3" style="stroke:#038048;stroke-width:1;"/><text fill="#000000" font-family="sans-serif" font-size="14" lengthAdjust="spacing" textLength="112.5195" x="2137" y="530.6826">initialize() : void</text></g><!--class RegisterAdder<T>--><g class="entity" data-entity="RegisterAdder.T." data-source-line="9" data-uid="ent0012" id="entity_RegisterAdder.T."><rect fill="#F1F1F1" height="64.2969" rx="2.5" ry="2.5" style="stroke:#181818;stroke-width:0.5;" width="164.002" x="832" y="88.5"/><ellipse cx="847" cy="104.5" fill="#B4A7E5" rx="11" ry="11" style="stroke:#181818;stroke-width:1;"/><path d="M842.9219,100.2656 L842.9219,98.1094 L850.3125,98.1094 L850.3125,100.2656 L847.8438,100.2656 L847.8438,108.3438 L850.3125,108.3438 L850.3125,110.5 L842.9219,110.5 L842.9219,108.3438 L845.3906,108.3438 L845.3906,100.2656 L842.9219,100.2656 Z " fill="#000000"/><text fill="#000000" font-family="sans-serif" font-size="14" font-style="italic" lengthAdjust="spacing" textLength="132.002" x="861" y="109.3467">RegisterAdder&lt;T&gt;</text><line style="stroke:#181818;stroke-width:0.5;" x1="833" x2="995.002" y1="120.5" y2="120.5"/><line style="stroke:#181818;stroke-width:0.5;" x1="833" x2="995.002" y1="128.5" y2="128.5"/><ellipse cx="843" cy="142.1484" fill="#84BE84" rx="3" ry="3" style="stroke:#038048;stroke-width:1;"/><text fill="#000000" font-family="sans-serif" font-size="14" lengthAdjust="spacing" textLength="134.9277" x="852" y="145.4951">add(T toAdd) : void</text></g><!--class RegisterValidator<T>--><g class="entity" data-entity="RegisterValidator.T." data-source-line="10" data-uid="ent0015" id="entity_RegisterValidator.T."><rect fill="#F1F1F1" height="64.2969" rx="2.5" ry="2.5" style="stroke:#181818;stroke-width:0.5;" width="235.1865" x="683.5" y="842.5"/><ellipse cx="720.8616" cy="858.5" fill="#B4A7E5" rx="11" ry="11" style="stroke:#181818;stroke-width:1;"/><path d="M716.7834,854.2656 L716.7834,852.1094 L724.1741,852.1094 L724.1741,854.2656 L721.7053,854.2656 L721.7053,862.3438 L724.1741,862.3438 L724.1741,864.5 L716.7834,864.5 L716.7834,862.3438 L719.2522,862.3438 L719.2522,854.2656 L716.7834,854.2656 Z " fill="#000000"/><text fill="#000000" font-family="sans-serif" font-size="14" font-style="italic" lengthAdjust="spacing" textLength="153.4941" x="739.8308" y="863.3467">RegisterValidator&lt;T&gt;</text><line style="stroke:#181818;stroke-width:0.5;" x1="684.5" x2="917.6865" y1="874.5" y2="874.5"/><line style="stroke:#181818;stroke-width:0.5;" x1="684.5" x2="917.6865" y1="882.5" y2="882.5"/><ellipse cx="694.5" cy="896.1484" fill="#84BE84" rx="3" ry="3" style="stroke:#038048;stroke-width:1;"/><text fill="#000000" font-family="sans-serif" font-size="14" lengthAdjust="spacing" textLength="209.1865" x="703.5" y="899.4951">isUnique(T toVerify) : boolean</text></g><!--class RegisterObtainer<T>--><g class="entity" data-entity="RegisterObtainer.T." data-source-line="11" data-uid="ent0017" id="entity_RegisterObtainer.T."><rect fill="#F1F1F1" height="64.2969" rx="2.5" ry="2.5" style="stroke:#181818;stroke-width:0.5;" width="188.2852" x="594" y="88.5"/><ellipse cx="611.2034" cy="104.5" fill="#B4A7E5" rx="11" ry="11" style="stroke:#181818;stroke-width:1;"/><path d="M607.1253,100.2656 L607.1253,98.1094 L614.5159,98.1094 L614.5159,100.2656 L612.0472,100.2656 L612.0472,108.3438 L614.5159,108.3438 L614.5159,110.5 L607.1253,110.5 L607.1253,108.3438 L609.594,108.3438 L609.594,100.2656 L607.1253,100.2656 Z " fill="#000000"/><text fill="#000000" font-family="sans-serif" font-size="14" font-style="italic" lengthAdjust="spacing" textLength="151.3887" x="625.6931" y="109.3467">RegisterObtainer&lt;T&gt;</text><line style="stroke:#181818;stroke-width:0.5;" x1="595" x2="781.2852" y1="120.5" y2="120.5"/><line style="stroke:#181818;stroke-width:0.5;" x1="595" x2="781.2852" y1="128.5" y2="128.5"/><ellipse cx="605" cy="142.1484" fill="#84BE84" rx="3" ry="3" style="stroke:#038048;stroke-width:1;"/><text fill="#000000" font-family="sans-serif" font-size="14" lengthAdjust="spacing" textLength="162.2852" x="614" y="145.4951">getRegister() : List&lt;T&gt;</text></g><!--class LoanPopupController--><g class="entity" data-entity="LoanPopupController" data-source-line="12" data-uid="ent0020" id="entity_LoanPopupController"><rect fill="#F1F1F1" height="227.2656" rx="2.5" ry="2.5" style="stroke:#181818;stroke-width:0.5;" width="586.5264" x="1376.5" y="7"/><ellipse cx="1592.1909" cy="23" fill="#A9DCDF" rx="11" ry="11" style="stroke:#181818;stroke-width:1;"/><path d="M1592.3003,18.3438 L1591.144,23.4219 L1593.4722,23.4219 L1592.3003,18.3438 Z M1590.8159,16.1094 L1593.8003,16.1094 L1597.1597,28.5 L1594.7065,28.5 L1593.9409,25.4375 L1590.6597,25.4375 L1589.9097,28.5 L1587.4722,28.5 L1590.8159,16.1094 Z " fill="#000000"/><text fill="#000000" font-family="sans-serif" font-size="14" font-style="italic" lengthAdjust="spacing" textLength="146.6445" x="1612.6909" y="27.8467">LoanPopupController</text><line style="stroke:#181818;stroke-width:0.5;" x1="1377.5" x2="1962.0264" y1="39" y2="39"/><polygon fill="none" points="1387.5,47.6484,1391.5,51.6484,1387.5,55.6484,1383.5,51.6484" style="stroke:#B38D22;stroke-width:1;"/><text fill="#000000" font-family="sans-serif" font-size="14" lengthAdjust="spacing" textLength="196.417" x="1396.5" y="55.9951">studentSearchTF : TextField</text><polygon fill="none" points="1387.5,63.9453,1391.5,67.9453,1387.5,71.9453,1383.5,67.9453" style="stroke:#B38D22;stroke-width:1;"/><text fill="#000000" font-family="sans-serif" font-size="14" lengthAdjust="spacing" textLength="261.7139" x="1396.5" y="72.292">studentListView : ListView&lt;Student&gt;</text><polygon fill="none" points="1387.5,80.2422,1391.5,84.2422,1387.5,88.2422,1383.5,84.2422" style="stroke:#B38D22;stroke-width:1;"/><text fill="#000000" font-family="sans-serif" font-size="14" lengthAdjust="spacing" textLength="177.0234" x="1396.5" y="88.5889">bookSearchTF : TextField</text><polygon fill="none" points="1387.5,96.5391,1391.5,100.5391,1387.5,104.5391,1383.5,100.5391" style="stroke:#B38D22;stroke-width:1;"/><text fill="#000000" font-family="sans-serif" font-size="14" lengthAdjust="spacing" textLength="222.0518" x="1396.5" y="104.8857">bookListView : ListView&lt;Book&gt;</text><polygon fill="none" points="1387.5,112.8359,1391.5,116.8359,1387.5,120.8359,1383.5,116.8359" style="stroke:#B38D22;stroke-width:1;"/><text fill="#000000" font-family="sans-serif" font-size="14" lengthAdjust="spacing" textLength="140.376" x="1396.5" y="121.1826">dateDP : DatePicker</text><polygon fill="none" points="1387.5,129.1328,1391.5,133.1328,1387.5,137.1328,1383.5,133.1328" style="stroke:#B38D22;stroke-width:1;"/><text fill="#000000" font-family="sans-serif" font-size="14" lengthAdjust="spacing" textLength="137.8262" x="1396.5" y="137.4795">confirmBtn : Button</text><polygon fill="none" points="1387.5,145.4297,1391.5,149.4297,1387.5,153.4297,1383.5,149.4297" style="stroke:#B38D22;stroke-width:1;"/><text fill="#000000" font-family="sans-serif" font-size="14" lengthAdjust="spacing" textLength="129.8281" x="1396.5" y="153.7764">cancelBtn : Button</text><line style="stroke:#181818;stroke-width:0.5;" x1="1377.5" x2="1962.0264" y1="161.0781" y2="161.0781"/><ellipse cx="1387.5" cy="174.7266" fill="#84BE84" rx="3" ry="3" style="stroke:#038048;stroke-width:1;"/><text fill="#000000" font-family="sans-serif" font-size="14" lengthAdjust="spacing" textLength="112.5195" x="1396.5" y="178.0732">initialize() : void</text><ellipse cx="1387.5" cy="191.0234" fill="#84BE84" rx="3" ry="3" style="stroke:#038048;stroke-width:1;"/><text fill="#000000" font-family="sans-serif" font-size="14" font-style="italic" lengthAdjust="spacing" textLength="304.0967" x="1396.5" y="194.3701">confirmBtnAction(ActionEvent event) : void</text><ellipse cx="1387.5" cy="207.3203" fill="#84BE84" rx="3" ry="3" style="stroke:#038048;stroke-width:1;"/><text fill="#000000" font-family="sans-serif" font-size="14" lengthAdjust="spacing" textLength="296.0986" x="1396.5" y="210.667">cancelBtnAction(ActionEvent event) : void</text><polygon fill="#FFFF44" points="1387.5,218.6172,1391.5,222.6172,1387.5,226.6172,1383.5,222.6172" style="stroke:#B38D22;stroke-width:1;"/><text fill="#000000" font-family="sans-serif" font-size="14" lengthAdjust="spacing" textLength="560.5264" x="1396.5" y="226.9639">showAlert(Alert.AlertType type, String title, String header, String content) : void</text></g><!--class RegisterModifier<T>--><g class="entity" data-entity="RegisterModifier.T." data-source-line="15" data-uid="ent0023" id="entity_RegisterModifier.T."><rect fill="#F1F1F1" height="64.2969" rx="2.5" ry="2.5" style="stroke:#181818;stroke-width:0.5;" width="237.3398" x="2344.5" y="88.5"/><ellipse cx="2385.8021" cy="104.5" fill="#B4A7E5" rx="11" ry="11" style="stroke:#181818;stroke-width:1;"/><path d="M2381.724,100.2656 L2381.724,98.1094 L2389.1146,98.1094 L2389.1146,100.2656 L2386.6459,100.2656 L2386.6459,108.3438 L2389.1146,108.3438 L2389.1146,110.5 L2381.724,110.5 L2381.724,108.3438 L2384.1928,108.3438 L2384.1928,100.2656 L2381.724,100.2656 Z " fill="#000000"/><text fill="#000000" font-family="sans-serif" font-size="14" font-style="italic" lengthAdjust="spacing" textLength="146.8906" x="2405.6471" y="109.3467">RegisterModifier&lt;T&gt;</text><line style="stroke:#181818;stroke-width:0.5;" x1="2345.5" x2="2580.8398" y1="120.5" y2="120.5"/><line style="stroke:#181818;stroke-width:0.5;" x1="2345.5" x2="2580.8398" y1="128.5" y2="128.5"/><ellipse cx="2355.5" cy="142.1484" fill="#84BE84" rx="3" ry="3" style="stroke:#038048;stroke-width:1;"/><text fill="#000000" font-family="sans-serif" font-size="14" lengthAdjust="spacing" textLength="211.3398" x="2364.5" y="145.4951">modify(T old, T newObj) : void</text></g><!--class Loan--><g class="entity" data-entity="Loan" data-source-line="17" data-uid="ent0028" id="entity_Loan"><rect fill="#F1F1F1" height="325.0469" rx="2.5" ry="2.5" style="stroke:#181818;stroke-width:0.5;" width="405.9961" x="2260" y="712"/><ellipse cx="2441.8394" cy="728" fill="#ADD1B2" rx="11" ry="11" style="stroke:#181818;stroke-width:1;"/><path d="M2444.8081,733.6406 Q2444.23,733.9375 2443.5894,734.0781 Q2442.9487,734.2344 2442.2456,734.2344 Q2439.7456,734.2344 2438.4175,732.5938 Q2437.105,730.9375 2437.105,727.8125 Q2437.105,724.6875 2438.4175,723.0313 Q2439.7456,721.375 2442.2456,721.375 Q2442.9487,721.375 2443.5894,721.5313 Q2444.2456,721.6875 2444.8081,721.9844 L2444.8081,724.7031 Q2444.1831,724.125 2443.5894,723.8594 Q2442.9956,723.5781 2442.3706,723.5781 Q2441.0269,723.5781 2440.3394,724.6563 Q2439.6519,725.7188 2439.6519,727.8125 Q2439.6519,729.9063 2440.3394,730.9844 Q2441.0269,732.0469 2442.3706,732.0469 Q2442.9956,732.0469 2443.5894,731.7813 Q2444.1831,731.5 2444.8081,730.9219 L2444.8081,733.6406 Z " fill="#000000"/><text fill="#000000" font-family="sans-serif" font-size="14" lengthAdjust="spacing" textLength="33.8174" x="2462.3394" y="732.8467">Loan</text><line style="stroke:#181818;stroke-width:0.5;" x1="2261" x2="2664.9961" y1="744" y2="744"/><rect fill="none" height="6" style="stroke:#C82930;stroke-width:1;" width="6" x="2268" y="754.6484"/><text fill="#000000" font-family="sans-serif" font-size="14" lengthAdjust="spacing" textLength="178.1104" x="2280" y="760.9951">loanId : UUID {readOnly}</text><rect fill="none" height="6" style="stroke:#C82930;stroke-width:1;" width="6" x="2268" y="770.9453"/><text fill="#000000" font-family="sans-serif" font-size="14" lengthAdjust="spacing" textLength="208.4141" x="2280" y="777.292">student : Student {readOnly}</text><rect fill="none" height="6" style="stroke:#C82930;stroke-width:1;" width="6" x="2268" y="787.2422"/><text fill="#000000" font-family="sans-serif" font-size="14" lengthAdjust="spacing" textLength="168.752" x="2280" y="793.5889">book : Book {readOnly}</text><rect fill="none" height="6" style="stroke:#C82930;stroke-width:1;" width="6" x="2268" y="803.5391"/><text fill="#000000" font-family="sans-serif" font-size="14" lengthAdjust="spacing" textLength="140.123" x="2280" y="809.8857">loanEnd : LocalDate</text><rect fill="none" height="6" style="stroke:#C82930;stroke-width:1;" width="6" x="2268" y="819.8359"/><text fill="#000000" font-family="sans-serif" font-size="14" lengthAdjust="spacing" textLength="130.4502" x="2280" y="826.1826">returned : boolean</text><line style="stroke:#181818;stroke-width:0.5;" x1="2261" x2="2664.9961" y1="833.4844" y2="833.4844"/><ellipse cx="2271" cy="847.1328" fill="#84BE84" rx="3" ry="3" style="stroke:#038048;stroke-width:1;"/><text fill="#000000" font-family="sans-serif" font-size="14" lengthAdjust="spacing" textLength="379.9961" x="2280" y="850.4795">Loan(Student student, Book book, LocalDate loanEnd)</text><ellipse cx="2271" cy="863.4297" fill="#84BE84" rx="3" ry="3" style="stroke:#038048;stroke-width:1;"/><text fill="#000000" font-family="sans-serif" font-size="14" lengthAdjust="spacing" textLength="129.7666" x="2280" y="866.7764">getLoanId() : UUID</text><ellipse cx="2271" cy="879.7266" fill="#84BE84" rx="3" ry="3" style="stroke:#038048;stroke-width:1;"/><text fill="#000000" font-family="sans-serif" font-size="14" lengthAdjust="spacing" textLength="157.7529" x="2280" y="883.0732">getStudent() : Student</text><ellipse cx="2271" cy="896.0234" fill="#84BE84" rx="3" ry="3" style="stroke:#038048;stroke-width:1;"/><text fill="#000000" font-family="sans-serif" font-size="14" lengthAdjust="spacing" textLength="117.2158" x="2280" y="899.3701">getBook() : Book</text><ellipse cx="2271" cy="912.3203" fill="#84BE84" rx="3" ry="3" style="stroke:#038048;stroke-width:1;"/><text fill="#000000" font-family="sans-serif" font-size="14" lengthAdjust="spacing" textLength="177.9463" x="2280" y="915.667">getLoanEnd() : LocalDate</text><ellipse cx="2271" cy="928.6172" fill="#84BE84" rx="3" ry="3" style="stroke:#038048;stroke-width:1;"/><text fill="#000000" font-family="sans-serif" font-size="14" lengthAdjust="spacing" textLength="156.5293" x="2280" y="931.9639">isReturned() : boolean</text><ellipse cx="2271" cy="944.9141" fill="#84BE84" rx="3" ry="3" style="stroke:#038048;stroke-width:1;"/><text fill="#000000" font-family="sans-serif" font-size="14" lengthAdjust="spacing" textLength="266.9434" x="2280" y="948.2607">setLoanEnd(LocalDate loanEnd) : void</text><ellipse cx="2271" cy="961.2109" fill="#84BE84" rx="3" ry="3" style="stroke:#038048;stroke-width:1;"/><text fill="#000000" font-family="sans-serif" font-size="14" lengthAdjust="spacing" textLength="131.3457" x="2280" y="964.5576">returnLoan() : void</text><ellipse cx="2271" cy="977.5078" fill="#84BE84" rx="3" ry="3" style="stroke:#038048;stroke-width:1;"/><text fill="#000000" font-family="sans-serif" font-size="14" lengthAdjust="spacing" textLength="144.6074" x="2280" y="980.8545">activateLoan() : void</text><ellipse cx="2271" cy="993.8047" fill="#84BE84" rx="3" ry="3" style="stroke:#038048;stroke-width:1;"/><text fill="#000000" font-family="sans-serif" font-size="14" lengthAdjust="spacing" textLength="131.8447" x="2280" y="997.1514">isDelay() : boolean</text><rect fill="#F24D5C" height="6" style="stroke:#C82930;stroke-width:1;" width="6" x="2268" y="1007.1016"/><text fill="#000000" font-family="sans-serif" font-size="14" lengthAdjust="spacing" textLength="156.6045" x="2280" y="1013.4482">isActivable() : boolean</text><rect fill="#F24D5C" height="6" style="stroke:#C82930;stroke-width:1;" width="6" x="2268" y="1023.3984"/><text fill="#000000" font-family="sans-serif" font-size="14" lengthAdjust="spacing" textLength="126.5195" x="2280" y="1029.7451">isValid() : boolean</text></g><!--link LoanRegisterController to SideBarController--><g class="link" data-entity-1="LoanRegisterController" data-entity-2="SideBarController" data-source-line="4" data-uid="lnk4" id="link_LoanRegisterController_SideBarController"><path codeLine="4" d="M1909.51,652.14 C1923.38,698.33 1936.0047,740.3334 1947.7947,779.6034" fill="none" id="LoanRegisterController-to-SideBarController" style="stroke:#181818;stroke-width:1;"/><polygon fill="#181818" points="1949.52,785.35,1950.7631,775.5799,1948.0823,780.5612,1943.101,777.8803,1949.52,785.35" style="stroke:#181818;stroke-width:1;"/><text fill="#000000" font-family="sans-serif" font-size="13" lengthAdjust="spacing" textLength="8.271" x="1903.4441" y="671.5071">1</text><text fill="#000000" font-family="sans-serif" font-size="13" lengthAdjust="spacing" textLength="8.271" x="1939.0174" y="774.403">1</text></g><!--link LoanRegisterController to Library--><g class="link" data-entity-1="LoanRegisterController" data-entity-2="Library" data-source-line="5" data-uid="lnk6" id="link_LoanRegisterController_Library"><path codeLine="5" d="M1764.15,652.14 C1738.66,701.55 1715.0097,747.4271 1694.0297,788.1171" fill="none" id="LoanRegisterController-to-Library" style="stroke:#181818;stroke-width:1;"/><polygon fill="#181818" points="1691.28,793.45,1698.9597,787.2838,1693.5714,789.0059,1691.8492,783.6176,1691.28,793.45" style="stroke:#181818;stroke-width:1;"/><text fill="#000000" font-family="sans-serif" font-size="13" lengthAdjust="spacing" textLength="8.271" x="1752.406" y="671.5071">1</text><text fill="#000000" font-family="sans-serif" font-size="13" lengthAdjust="spacing" textLength="8.271" x="1686.7406" y="782.3562">1</text></g><!--reverse link LoanInsertPopupController to LoanRegisterController--><g class="link" data-entity-1="LoanInsertPopupController" data-entity-2="LoanRegisterController" data-source-line="6" data-uid="lnk9" id="link_LoanInsertPopupController_LoanRegisterController"><path codeLine="6" d="M1601.08,473 C1617.65,473 1628.21,473 1644.77,473" fill="none" id="LoanInsertPopupController-backto-LoanRegisterController" style="stroke:#181818;stroke-width:1;stroke-dasharray:7,7;"/><polygon fill="#181818" points="1595.08,473,1604.08,477,1600.08,473,1604.08,469,1595.08,473" style="stroke:#181818;stroke-width:1;"/></g><!--link LoanRegisterController to LoanModifyPopupController--><g class="link" data-entity-1="LoanRegisterController" data-entity-2="LoanModifyPopupController" data-source-line="7" data-uid="lnk11" id="link_LoanRegisterController_LoanModifyPopupController"><path codeLine="7" d="M2067.03,473 C2083.66,473 2094.28,473 2110.91,473" fill="none" id="LoanRegisterController-to-LoanModifyPopupController" style="stroke:#181818;stroke-width:1;stroke-dasharray:7,7;"/><polygon fill="#181818" points="2116.91,473,2107.91,469,2111.91,473,2107.91,477,2116.91,473" style="stroke:#181818;stroke-width:1;"/></g><!--reverse link RegisterAdder<T> to LoanInsertPopupController--><g class="link" data-entity-1="RegisterAdder.T." data-entity-2="LoanInsertPopupController" data-source-line="9" data-uid="lnk14" id="link_RegisterAdder.T._LoanInsertPopupController"><path codeLine="9" d="M902.1298,158.3108 C885.5798,209.6708 853.78,308.28 829.45,383.76" fill="none" id="RegisterAdder&lt;T&gt;-backto-LoanInsertPopupController" style="stroke:#181818;stroke-width:1;"/><polygon fill="#181818" points="903.97,152.6,897.4024,159.9394,902.4365,157.359,905.0169,162.3931,903.97,152.6" style="stroke:#181818;stroke-width:1;"/><text fill="#000000" font-family="sans-serif" font-size="13" lengthAdjust="spacing" textLength="8.271" x="893.1041" y="172.8175">1</text><text fill="#000000" font-family="sans-serif" font-size="13" lengthAdjust="spacing" textLength="8.271" x="823.5042" y="372.8056">1</text></g><!--link LoanInsertPopupController to RegisterValidator<T>--><g class="link" data-entity-1="LoanInsertPopupController" data-entity-2="RegisterValidator.T." data-source-line="10" data-uid="lnk16" id="link_LoanInsertPopupController_RegisterValidator.T."><path codeLine="10" d="M801,562.17 C801,650.86 801,776.78 801,836.33" fill="none" id="LoanInsertPopupController-to-RegisterValidator&lt;T&gt;" style="stroke:#181818;stroke-width:1;"/><polygon fill="#181818" points="801,842.33,805,833.33,801,837.33,797,833.33,801,842.33" style="stroke:#181818;stroke-width:1;"/><text fill="#000000" font-family="sans-serif" font-size="13" lengthAdjust="spacing" textLength="8.271" x="792.6868" y="582.5341">1</text><text fill="#000000" font-family="sans-serif" font-size="13" lengthAdjust="spacing" textLength="8.271" x="792.1837" y="831.198">1</text></g><!--reverse link RegisterObtainer<T> to LoanInsertPopupController--><g class="link" data-entity-1="RegisterObtainer.T." data-entity-2="LoanInsertPopupController" data-source-line="11" data-uid="lnk19" id="link_RegisterObtainer.T._LoanInsertPopupController"><path codeLine="11" d="M699.8702,158.3108 C716.4202,209.6708 748.22,308.28 772.55,383.76" fill="none" id="RegisterObtainer&lt;T&gt;-backto-LoanInsertPopupController" style="stroke:#181818;stroke-width:1;"/><polygon fill="#181818" points="698.03,152.6,696.9831,162.3931,699.5635,157.359,704.5976,159.9394,698.03,152.6" style="stroke:#181818;stroke-width:1;"/><text fill="#000000" font-family="sans-serif" font-size="13" lengthAdjust="spacing" textLength="8.271" x="691.2722" y="172.8175">2</text><text fill="#000000" font-family="sans-serif" font-size="13" lengthAdjust="spacing" textLength="8.271" x="761.8922" y="372.8056">1</text></g><!--reverse link LoanPopupController to LoanInsertPopupController--><g class="link" data-entity-1="LoanPopupController" data-entity-2="LoanInsertPopupController" data-source-line="12" data-uid="lnk22" id="link_LoanPopupController_LoanInsertPopupController"><path codeLine="12" d="M1374.1664,240.8224 C1253.8064,289.3624 1131.84,338.56 1019.2,383.99" fill="none" id="LoanPopupController-backto-LoanInsertPopupController" style="stroke:#181818;stroke-width:1;"/><polygon fill="none" points="1390.86,234.09,1371.9223,235.2578,1376.4105,246.3869,1390.86,234.09" style="stroke:#181818;stroke-width:1;"/></g><!--reverse link RegisterModifier<T> to LoanModifyPopupController--><g class="link" data-entity-1="RegisterModifier.T." data-entity-2="LoanModifyPopupController" data-source-line="15" data-uid="lnk25" id="link_RegisterModifier.T._LoanModifyPopupController"><path codeLine="15" d="M2463,158.6 C2463,215.82 2463,332.8 2463,408.37" fill="none" id="RegisterModifier&lt;T&gt;-backto-LoanModifyPopupController" style="stroke:#181818;stroke-width:1;"/><polygon fill="#181818" points="2463,152.6,2459,161.6,2463,157.6,2467,161.6,2463,152.6" style="stroke:#181818;stroke-width:1;"/><text fill="#000000" font-family="sans-serif" font-size="13" lengthAdjust="spacing" textLength="8.271" x="2454.1679" y="172.8175">1</text><text fill="#000000" font-family="sans-serif" font-size="13" lengthAdjust="spacing" textLength="8.271" x="2454.5542" y="397.5284">1</text></g><!--reverse link LoanPopupController to LoanModifyPopupController--><g class="link" data-entity-1="LoanPopupController" data-entity-2="LoanModifyPopupController" data-source-line="16" data-uid="lnk27" id="link_LoanPopupController_LoanModifyPopupController"><path codeLine="16" d="M1968.5116,240.9283 C2015.5016,260.4583 2046.97,274.01 2092,294 C2173.62,330.22 2263.99,373.51 2335.1,408.33" fill="none" id="LoanPopupController-backto-LoanModifyPopupController" style="stroke:#181818;stroke-width:1;"/><polygon fill="none" points="1951.89,234.02,1966.2088,246.4688,1970.8143,235.3877,1951.89,234.02" style="stroke:#181818;stroke-width:1;"/></g><!--link LoanModifyPopupController to Loan--><g class="link" data-entity-1="LoanModifyPopupController" data-entity-2="Loan" data-source-line="17" data-uid="lnk29" id="link_LoanModifyPopupController_Loan"><path codeLine="17" d="M2463,537.74 C2463,584.67 2463,644.66 2463,705.73" fill="none" id="LoanModifyPopupController-to-Loan" style="stroke:#181818;stroke-width:1;"/><polygon fill="#181818" points="2463,711.73,2467,702.73,2463,706.73,2459,702.73,2463,711.73" style="stroke:#181818;stroke-width:1;"/><text fill="#000000" font-family="sans-serif" font-size="13" lengthAdjust="spacing" textLength="8.271" x="2454.5288" y="558.1393">1</text><text fill="#000000" font-family="sans-serif" font-size="13" lengthAdjust="spacing" textLength="8.271" x="2454.825" y="701.0835">1</text></g><!--SRC=[bLTRJ-Cu57xlhx3AmmJHejcLzgKQLU8oI4ZCW8R2kziSm4DYTnq7filsly_n9OwTE6s7XpJHTxvpyxcOwfNnDPMq95paKC6Q_FDvzEc5vK1AA9SWgz7eHb3-0vvPfK1U2AwaA0gGPFpNc4ppwToyZE-HSau3V7mGxuOj9PMR8TdJudHED7RDAv3gJgphTGiFigHZVHCvUzfqMQD1XTQtkecfKNsMvo2_BERZVSoyotoa1Skf4WUnZTs_0_RjKb76zvf6ulystbwaey4i38HgP5bWCaqUDhd7e3zt54FtHgk2LfNv8XyZWdzJKkX0Sp8Z3m_Nb-H30irlUR7PEhXITGvS8NxltdeYIo5U4J_NFprGg__AjVuRiQB59LNW40cgbXmqX1eAq1vgvCJubpNcd0CJgr_RchIg6lN7ZlaCoXnSdXsxY5h0AJI8Usz1hTmW-YLMXkeD4lj_GbZrmqLWu2O62rOjj-yiIhy9bZjHcmSJSmUXAyNUa9Z2M7K91TtqJ4yHEJEyPG59r3H9X6nzOTZnu6j3PxifLPHlNh_e9CtZ0ac9kIpFWr98YUdmvlxihGlPSNmsZR3nE-57UC9fsSWPVxXfMUiHfeLn_7oYAqXC9vSbFAOypnP42KJy8QMvORjxUcdQ5pM88f-G1U7mVhlykKTJEAky9emfYkS6Nr5WG4KqBBqELZrmzcyD9g97aEXQibHw2yWN3QRZN77TIhLIegcx2gXSlI1ZSONG0dwfAmP5xcT1ATuWGRF9YO0ss3DZoRPjIxAbq9epU6pGfShPJ2hurXWEqMquGHERC9of2zs0shB-VMJmxgegwfhlj8IBecp4BaHHbzm8Jd16ISQVEuHx71L_ohdE3nFNtNwuGrhwKCrky0q9-mavxwo60xMxgJNprniNVgz4P_so3RTWSjtFTbo8Mcvw1yzsNOlQNTUlfAoPn2wsPXeopXJ3llqFudqm9M8DePCfEF2Z2zl-kvAYZ0P8856lSLQ0B-OkRDixNbJOBNHPAObhZBHjqysHxPaZN-16KM98U0azrRGBRi2Preg6-v6fpHsAD9pIqgwJ8wAZlRn3LDVb7LkzkkC-8Yl1dvWiUyCA4SfNKAI6rT2vdP2F9aNRGB5Uu89dzkVhcxu6WNvskDxUGVAOm1VnVeOvLvbvdfhdOhC6el3Hj1LHJ1NjrmjUw43wJtHIXPgZaPZke8_4_ZTRD5YvTgk64pAyUpJRBY3u1RZZBhABjkDkuXTZm6kNPNnR6GewImJMJy1a89nay9FX88O2dmpvduvt_vJ1QsszTbPjt4a97KGNZWebFIvJXT9ScOApyBUei5p-z023HIsiDsvQXqURT3DB-v7qUcB_rmhDx4hozZS0]--></g></svg>