<svg xmlns="http://www.w3.org/2000/svg" xmlns:xlink="http://www.w3.org/1999/xlink" contentStyleType="text/css" data-diagram-type="SEQUENCE" height="407px" preserveAspectRatio="none" style="width:547px;height:407px;background:#FFFFFF;" version="1.1" viewBox="0 0 547 407" width="547px" zoomAndPan="magnify"><defs/><g><rect fill="none" height="181.7969" style="stroke:#000000;stroke-width:1.5;" width="480.9795" x="59.5977" y="127.4297"/><rect fill="none" height="77.3984" style="stroke:#000000;stroke-width:1.5;" width="460.9795" x="69.5977" y="180.6953"/><g><title>Admin</title><rect fill="#000000" fill-opacity="0.00000" height="244.9297" width="8" x="26.4321" y="81.2969"/><line style="stroke:#181818;stroke-width:0.5;stroke-dasharray:5,5;" x1="30" x2="30" y1="81.2969" y2="326.2266"/></g><g><title>.u..MenuBarController</title><rect fill="#000000" fill-opacity="0.00000" height="244.9297" width="8" x="150.7314" y="81.2969"/><line style="stroke:#181818;stroke-width:0.5;stroke-dasharray:5,5;" x1="154.5977" x2="154.5977" y1="81.2969" y2="326.2266"/></g><g><title>.u..LibraryIOManager</title><rect fill="#000000" fill-opacity="0.00000" height="244.9297" width="8" x="444.4854" y="81.2969"/><line style="stroke:#181818;stroke-width:0.5;stroke-dasharray:5,5;" x1="448.3936" x2="448.3936" y1="81.2969" y2="326.2266"/></g><g class="participant participant-head" data-participant="Admin"><text fill="#000000" font-family="sans-serif" font-size="14" lengthAdjust="spacing" textLength="44.8643" x="5" y="77.9951">Admin</text><ellipse cx="30.4321" cy="13.5" fill="#E2E2F0" rx="8" ry="8" style="stroke:#181818;stroke-width:0.5;"/><path d="M30.4321,21.5 L30.4321,48.5 M17.4321,29.5 L43.4321,29.5 M30.4321,48.5 L17.4321,63.5 M30.4321,48.5 L43.4321,63.5" fill="none" style="stroke:#181818;stroke-width:0.5;"/></g><g class="participant participant-tail" data-participant="Admin"><text fill="#000000" font-family="sans-serif" font-size="14" lengthAdjust="spacing" textLength="44.8643" x="5" y="338.2217">Admin</text><ellipse cx="30.4321" cy="350.0234" fill="#E2E2F0" rx="8" ry="8" style="stroke:#181818;stroke-width:0.5;"/><path d="M30.4321,358.0234 L30.4321,385.0234 M17.4321,366.0234 L43.4321,366.0234 M30.4321,385.0234 L17.4321,400.0234 M30.4321,385.0234 L43.4321,400.0234" fill="none" style="stroke:#181818;stroke-width:0.5;"/></g><g class="participant participant-head" data-participant="MenuBarController"><rect fill="#E2E2F0" height="30.2969" rx="2.5" ry="2.5" style="stroke:#181818;stroke-width:0.5;" width="150.2676" x="79.5977" y="50"/><text fill="#000000" font-family="sans-serif" font-size="14" lengthAdjust="spacing" text-decoration="underline" textLength="136.2676" x="86.5977" y="69.9951">:MenuBarController</text></g><g class="participant participant-tail" data-participant="MenuBarController"><rect fill="#E2E2F0" height="30.2969" rx="2.5" ry="2.5" style="stroke:#181818;stroke-width:0.5;" width="150.2676" x="79.5977" y="325.2266"/><text fill="#000000" font-family="sans-serif" font-size="14" lengthAdjust="spacing" text-decoration="underline" textLength="136.2676" x="86.5977" y="345.2217">:MenuBarController</text></g><g class="participant participant-head" data-participant="LibraryIOManager"><rect fill="#E2E2F0" height="30.2969" rx="2.5" ry="2.5" style="stroke:#181818;stroke-width:0.5;" width="144.1836" x="376.3936" y="50"/><text fill="#000000" font-family="sans-serif" font-size="14" lengthAdjust="spacing" text-decoration="underline" textLength="130.1836" x="383.3936" y="69.9951">:LibraryIOManager</text></g><g class="participant participant-tail" data-participant="LibraryIOManager"><rect fill="#E2E2F0" height="30.2969" rx="2.5" ry="2.5" style="stroke:#181818;stroke-width:0.5;" width="144.1836" x="376.3936" y="325.2266"/><text fill="#000000" font-family="sans-serif" font-size="14" lengthAdjust="spacing" text-decoration="underline" textLength="130.1836" x="383.3936" y="345.2217">:LibraryIOManager</text></g><g class="message" data-participant-1="Admin" data-participant-2="MenuBarController"><polygon fill="#181818" points="142.7314,108.4297,152.7314,112.4297,142.7314,116.4297,146.7314,112.4297" style="stroke:#181818;stroke-width:1;"/><line style="stroke:#181818;stroke-width:1;" x1="30.4321" x2="148.7314" y1="112.4297" y2="112.4297"/><text fill="#000000" font-family="sans-serif" font-size="13" lengthAdjust="spacing" textLength="100.2993" x="37.4321" y="107.3638">saveFile(event)</text></g><path d="M59.5977,127.4297 L124.0405,127.4297 L124.0405,134.5625 L114.0405,144.5625 L59.5977,144.5625 L59.5977,127.4297" fill="#EEEEEE" style="stroke:#000000;stroke-width:1.5;"/><rect fill="none" height="181.7969" style="stroke:#000000;stroke-width:1.5;" width="480.9795" x="59.5977" y="127.4297"/><text fill="#000000" font-family="sans-serif" font-size="13" font-weight="bold" lengthAdjust="spacing" textLength="19.4429" x="74.5977" y="140.4966">alt</text><text fill="#000000" font-family="sans-serif" font-size="11" font-weight="bold" lengthAdjust="spacing" textLength="163.6787" x="139.0405" y="139.6401">[defaultSavePath == Null]</text><g class="message" data-participant-1="MenuBarController" data-participant-2="LibraryIOManager"><polygon fill="#181818" points="436.4854,161.6953,446.4854,165.6953,436.4854,169.6953,440.4854,165.6953" style="stroke:#181818;stroke-width:1;"/><line style="stroke:#181818;stroke-width:1;" x1="154.7314" x2="442.4854" y1="165.6953" y2="165.6953"/><text fill="#000000" font-family="sans-serif" font-size="13" lengthAdjust="spacing" textLength="242.9121" x="161.7314" y="160.6294">saveLibrary(library, defaultSavePath)</text></g><path d="M69.5977,180.6953 L134.0405,180.6953 L134.0405,187.8281 L124.0405,197.8281 L69.5977,197.8281 L69.5977,180.6953" fill="#EEEEEE" style="stroke:#000000;stroke-width:1.5;"/><rect fill="none" height="77.3984" style="stroke:#000000;stroke-width:1.5;" width="460.9795" x="69.5977" y="180.6953"/><text fill="#000000" font-family="sans-serif" font-size="13" font-weight="bold" lengthAdjust="spacing" textLength="19.4429" x="84.5977" y="193.7622">alt</text><text fill="#000000" font-family="sans-serif" font-size="11" font-weight="bold" lengthAdjust="spacing" textLength="59.4043" x="149.0405" y="192.9058">[Success]</text><g class="message" data-participant-1="LibraryIOManager" data-participant-2="MenuBarController"><polygon fill="#181818" points="165.7314,214.9609,155.7314,218.9609,165.7314,222.9609,161.7314,218.9609" style="stroke:#181818;stroke-width:1;"/><line style="stroke:#181818;stroke-width:1;" x1="159.7314" x2="447.4854" y1="218.9609" y2="218.9609"/><text fill="#000000" font-family="sans-serif" font-size="13" lengthAdjust="spacing" textLength="60.9946" x="171.7314" y="213.895">success()</text></g><line style="stroke:#000000;stroke-width:1;stroke-dasharray:2,2;" x1="69.5977" x2="530.5771" y1="227.9609" y2="227.9609"/><g class="message" data-participant-1="LibraryIOManager" data-participant-2="MenuBarController"><polygon fill="#181818" points="165.7314,246.0938,155.7314,250.0938,165.7314,254.0938,161.7314,250.0938" style="stroke:#181818;stroke-width:1;"/><line style="stroke:#181818;stroke-width:1;" x1="159.7314" x2="447.4854" y1="250.0938" y2="250.0938"/><text fill="#000000" font-family="sans-serif" font-size="13" lengthAdjust="spacing" textLength="51.4922" x="171.7314" y="245.0278">failure()</text></g><line style="stroke:#000000;stroke-width:1;stroke-dasharray:2,2;" x1="59.5977" x2="540.5771" y1="266.0938" y2="266.0938"/><g class="message" data-participant-1="MenuBarController" data-participant-2="MenuBarController"><line style="stroke:#181818;stroke-width:1;" x1="154.7314" x2="196.7314" y1="288.2266" y2="288.2266"/><line style="stroke:#181818;stroke-width:1;" x1="196.7314" x2="196.7314" y1="288.2266" y2="301.2266"/><line style="stroke:#181818;stroke-width:1;" x1="155.7314" x2="196.7314" y1="301.2266" y2="301.2266"/><polygon fill="#181818" points="165.7314,297.2266,155.7314,301.2266,165.7314,305.2266,161.7314,301.2266" style="stroke:#181818;stroke-width:1;"/><text fill="#000000" font-family="sans-serif" font-size="13" lengthAdjust="spacing" textLength="279.7539" x="161.7314" y="283.1606">saveWithName(event) [see other diagram]</text></g><!--SRC=[ZP3BQiCm44Nt-eeXcphG_a1e0chZ68Fjj7KVqDB5n9x4Wh4Sz0Zqx-jKwIPge2k9qPnpHtErp6Ns9CjImZA7EdryIQltyPuMKClYLJxBBClNGc3Z1WEoxPKMOe_6gKRjKJkOtFh5h2Jjxz3S3zgPWPdC1D12L8t1GcqCcgzyNQB6tOaxBu8GFy5miuYTC0EB1reffeGEfDrK83jeQOkUNJq-FQ3hO3w7oZEBc1-bKM1mdie9X_FwN1gIQjyqPAs899Uc3Vt9L11R-ZUsHSNUq17JRK3__Ckb1RqfrrNO_ou9FYmH3AuR6rg5EuFzvz7y3G00]--></g></svg>