<svg xmlns="http://www.w3.org/2000/svg" xmlns:xlink="http://www.w3.org/1999/xlink" contentStyleType="text/css" data-diagram-type="DESCRIPTION" height="1278px" preserveAspectRatio="none" style="width:310px;height:1278px;background:#FFFFFF;" version="1.1" viewBox="0 0 310 1278" width="310px" zoomAndPan="magnify"><defs/><g><!--entity Admin--><g class="entity" data-entity="Admin" data-source-line="3" data-uid="ent0002" id="entity_Admin"><ellipse cx="28.4321" cy="608" fill="#F1F1F1" rx="8" ry="8" style="stroke:#181818;stroke-width:0.5;"/><path d="M28.4321,616 L28.4321,643 M15.4321,624 L41.4321,624 M28.4321,643 L15.4321,658 M28.4321,643 L41.4321,658" fill="none" style="stroke:#181818;stroke-width:0.5;"/><text fill="#000000" font-family="sans-serif" font-size="14" lengthAdjust="spacing" textLength="44.8643" x="6" y="672.4951">Admin</text></g><!--entity UC1--><g class="entity" data-entity="UC1" data-source-line="5" data-uid="ent0003" id="entity_UC1"><ellipse cx="207.6216" cy="24.4243" fill="#F1F1F1" rx="80.1216" ry="18.4243" style="stroke:#181818;stroke-width:0.5;"/><text fill="#000000" font-family="sans-serif" font-size="14" lengthAdjust="spacing" textLength="130.9629" x="142.1402" y="29.0728">Registrazione libro</text></g><!--entity UC2--><g class="entity" data-entity="UC2" data-source-line="6" data-uid="ent0004" id="entity_UC2"><ellipse cx="207.683" cy="93.4366" fill="#F1F1F1" rx="65.183" ry="15.4366" style="stroke:#181818;stroke-width:0.5;"/><text fill="#000000" font-family="sans-serif" font-size="14" lengthAdjust="spacing" textLength="93.9531" x="160.7064" y="98.085">Modifica libro</text></g><!--entity UC3--><g class="entity" data-entity="UC3" data-source-line="7" data-uid="ent0005" id="entity_UC3"><ellipse cx="207.3645" cy="160.5729" fill="#F1F1F1" rx="70.8645" ry="16.5729" style="stroke:#181818;stroke-width:0.5;"/><text fill="#000000" font-family="sans-serif" font-size="14" lengthAdjust="spacing" textLength="108.5479" x="153.0905" y="165.2213">Rimozione libro</text></g><!--entity UC4--><g class="entity" data-entity="UC4" data-source-line="8" data-uid="ent0006" id="entity_UC4"><ellipse cx="207.3575" cy="231.3715" fill="#F1F1F1" rx="84.8575" ry="19.3715" style="stroke:#181818;stroke-width:0.5;"/><text fill="#000000" font-family="sans-serif" font-size="14" lengthAdjust="spacing" textLength="141.9961" x="136.3594" y="236.0199">Visualizzazione libro</text></g><!--entity UC5--><g class="entity" data-entity="UC5" data-source-line="9" data-uid="ent0007" id="entity_UC5"><ellipse cx="207.7173" cy="307.6435" fill="#F1F1F1" rx="93.7173" ry="21.1435" style="stroke:#181818;stroke-width:0.5;"/><text fill="#000000" font-family="sans-serif" font-size="14" lengthAdjust="spacing" textLength="162.1074" x="126.6636" y="312.2919">Registrazione studente</text></g><!--entity UC6--><g class="entity" data-entity="UC6" data-source-line="10" data-uid="ent0008" id="entity_UC6"><ellipse cx="207.6477" cy="381.4295" fill="#F1F1F1" rx="77.6477" ry="17.9295" style="stroke:#181818;stroke-width:0.5;"/><text fill="#000000" font-family="sans-serif" font-size="14" lengthAdjust="spacing" textLength="125.0977" x="145.0989" y="386.078">Modifica studente</text></g><!--entity UC7--><g class="entity" data-entity="UC7" data-source-line="11" data-uid="ent0009" id="entity_UC7"><ellipse cx="207.3605" cy="453.6721" fill="#F1F1F1" rx="83.8605" ry="19.1721" style="stroke:#181818;stroke-width:0.5;"/><text fill="#000000" font-family="sans-serif" font-size="14" lengthAdjust="spacing" textLength="139.6924" x="137.5143" y="458.3205">Rimozione studente</text></g><!--entity UC8--><g class="entity" data-entity="UC8" data-source-line="12" data-uid="ent0010" id="entity_UC8"><ellipse cx="207.5468" cy="529.7094" fill="#F1F1F1" rx="96.5468" ry="21.7094" style="stroke:#181818;stroke-width:0.5;"/><text fill="#000000" font-family="sans-serif" font-size="14" lengthAdjust="spacing" textLength="168.417" x="123.3383" y="534.3578">Visualizzazione studenti</text></g><!--entity UC9--><g class="entity" data-entity="UC9" data-source-line="13" data-uid="ent0011" id="entity_UC9"><ellipse cx="207.4234" cy="603.3847" fill="#F1F1F1" rx="74.9234" ry="17.3847" style="stroke:#181818;stroke-width:0.5;"/><text fill="#000000" font-family="sans-serif" font-size="14" lengthAdjust="spacing" textLength="118.542" x="148.1524" y="608.0331">Ricerca studente</text></g><!--entity UC10--><g class="entity" data-entity="UC10" data-source-line="14" data-uid="ent0012" id="entity_UC10"><ellipse cx="207.7453" cy="671.4491" fill="#F1F1F1" rx="62.7453" ry="14.9491" style="stroke:#181818;stroke-width:0.5;"/><text fill="#000000" font-family="sans-serif" font-size="14" lengthAdjust="spacing" textLength="87.3975" x="164.0466" y="676.0975">Ricerca libro</text></g><!--entity UC11--><g class="entity" data-entity="UC11" data-source-line="15" data-uid="ent0013" id="entity_UC11"><ellipse cx="207.5963" cy="742.4193" fill="#F1F1F1" rx="90.0963" ry="20.4193" style="stroke:#181818;stroke-width:0.5;"/><text fill="#000000" font-family="sans-serif" font-size="14" lengthAdjust="spacing" textLength="153.959" x="130.6168" y="747.0677">Registrazione prestito</text></g><!--entity UC12--><g class="entity" data-entity="UC12" data-source-line="16" data-uid="ent0014" id="entity_UC12"><ellipse cx="207.2685" cy="815.2537" fill="#F1F1F1" rx="74.2685" ry="17.2537" style="stroke:#181818;stroke-width:0.5;"/><text fill="#000000" font-family="sans-serif" font-size="14" lengthAdjust="spacing" textLength="116.9492" x="148.7939" y="819.9021">Modifica prestito</text></g><!--entity UC13--><g class="entity" data-entity="UC13" data-source-line="17" data-uid="ent0015" id="entity_UC13"><ellipse cx="207.3685" cy="886.4737" fill="#F1F1F1" rx="80.3685" ry="18.4737" style="stroke:#181818;stroke-width:0.5;"/><text fill="#000000" font-family="sans-serif" font-size="14" lengthAdjust="spacing" textLength="131.5439" x="141.5965" y="891.1221">Rimozione prestito</text></g><!--entity UC14--><g class="entity" data-entity="UC14" data-source-line="18" data-uid="ent0016" id="entity_UC14"><ellipse cx="207.4181" cy="961.4836" fill="#F1F1F1" rx="92.9181" ry="20.9836" style="stroke:#181818;stroke-width:0.5;"/><text fill="#000000" font-family="sans-serif" font-size="14" lengthAdjust="spacing" textLength="160.3164" x="127.2599" y="966.1321">Visualizzazione prestiti</text></g><!--entity UC15--><g class="entity" data-entity="UC15" data-source-line="19" data-uid="ent0017" id="entity_UC15"><ellipse cx="207.6047" cy="1034.7209" fill="#F1F1F1" rx="71.6047" ry="16.7209" style="stroke:#181818;stroke-width:0.5;"/><text fill="#000000" font-family="sans-serif" font-size="14" lengthAdjust="spacing" textLength="110.3936" x="152.408" y="1039.3694">Ricerca prestito</text></g><!--entity UC16--><g class="entity" data-entity="UC16" data-source-line="20" data-uid="ent0018" id="entity_UC16"><ellipse cx="207.2621" cy="1104.3524" fill="#F1F1F1" rx="79.7621" ry="18.3524" style="stroke:#181818;stroke-width:0.5;"/><text fill="#000000" font-family="sans-serif" font-size="14" lengthAdjust="spacing" textLength="130.1152" x="142.2045" y="1109.0009">Estinzione prestito</text></g><!--entity UC17--><g class="entity" data-entity="UC17" data-source-line="21" data-uid="ent0019" id="entity_UC17"><ellipse cx="207.577" cy="1177.4154" fill="#F1F1F1" rx="85.077" ry="19.4154" style="stroke:#181818;stroke-width:0.5;"/><text fill="#000000" font-family="sans-serif" font-size="14" lengthAdjust="spacing" textLength="142.502" x="136.326" y="1182.0638">Salvataggio archivio</text></g><!--entity UC18--><g class="entity" data-entity="UC18" data-source-line="22" data-uid="ent0020" id="entity_UC18"><ellipse cx="207.606" cy="1252.5212" fill="#F1F1F1" rx="88.106" ry="20.0212" style="stroke:#181818;stroke-width:0.5;"/><text fill="#000000" font-family="sans-serif" font-size="14" lengthAdjust="spacing" textLength="149.4404" x="132.8858" y="1257.1696">Caricamento archivio</text></g><!--link Admin to UC1--><g class="link" data-entity-1="Admin" data-entity-2="UC1" data-source-line="24" data-uid="lnk21" id="link_Admin_UC1"><path d="M29.96,599.23 C32.09,484.17 44.04,144.1 111,60.5 C119.86,49.44 126.9435,44.0092 140.1435,38.6992" fill="none" id="Admin-to-UC1" style="stroke:#181818;stroke-width:1;"/><polygon fill="#181818" points="145.71,36.46,135.8674,36.1079,141.0713,38.326,138.8531,43.5299,145.71,36.46" style="stroke:#181818;stroke-width:1;"/></g><!--link Admin to UC2--><g class="link" data-entity-1="Admin" data-entity-2="UC2" data-source-line="25" data-uid="lnk22" id="link_Admin_UC2"><path d="M30.63,599.42 C34.52,493.5 50.66,198.42 111,126.5 C121.37,114.14 130.8997,108.2107 146.1897,103.3707" fill="none" id="Admin-to-UC2" style="stroke:#181818;stroke-width:1;"/><polygon fill="#181818" points="151.91,101.56,142.1225,100.4626,147.1431,103.0689,144.5368,108.0896,151.91,101.56" style="stroke:#181818;stroke-width:1;"/></g><!--link Admin to UC3--><g class="link" data-entity-1="Admin" data-entity-2="UC3" data-source-line="26" data-uid="lnk23" id="link_Admin_UC3"><path d="M31.7,599.38 C37.98,503.49 58.97,255.6 111,194.5 C120.93,182.84 129.4743,177.1549 143.9043,172.1249" fill="none" id="Admin-to-UC3" style="stroke:#181818;stroke-width:1;"/><polygon fill="#181818" points="149.57,170.15,139.7549,169.3353,144.8486,171.7958,142.3881,176.8895,149.57,170.15" style="stroke:#181818;stroke-width:1;"/></g><!--link Admin to UC4--><g class="link" data-entity-1="Admin" data-entity-2="UC4" data-source-line="27" data-uid="lnk24" id="link_Admin_UC4"><path d="M33.36,599.4 C42.56,515.5 68.27,318.28 111,268.5 C120.03,257.98 126.8988,252.7551 139.7688,247.3451" fill="none" id="Admin-to-UC4" style="stroke:#181818;stroke-width:1;"/><polygon fill="#181818" points="145.3,245.02,135.4532,244.8202,140.6907,246.9576,138.5533,252.1951,145.3,245.02" style="stroke:#181818;stroke-width:1;"/></g><!--link Admin to UC5--><g class="link" data-entity-1="Admin" data-entity-2="UC5" data-source-line="28" data-uid="lnk25" id="link_Admin_UC5"><path d="M29.81,599.29 C32.33,538.16 45.91,417.92 111,345.5 C119.83,335.68 126.0516,330.8068 138.2316,325.3668" fill="none" id="Admin-to-UC5" style="stroke:#181818;stroke-width:1;"/><polygon fill="#181818" points="143.71,322.92,133.8612,322.938,139.1447,324.959,137.1236,330.2425,143.71,322.92" style="stroke:#181818;stroke-width:1;"/></g><!--link Admin to UC6--><g class="link" data-entity-1="Admin" data-entity-2="UC6" data-source-line="29" data-uid="lnk26" id="link_Admin_UC6"><path d="M33.73,599.47 C41.08,550.8 60.63,466.76 111,416.5 C121.5,406.02 129.7649,400.7377 143.6949,395.5677" fill="none" id="Admin-to-UC6" style="stroke:#181818;stroke-width:1;"/><polygon fill="#181818" points="149.32,393.48,139.4906,392.8615,144.6324,395.2197,142.2742,400.3616,149.32,393.48" style="stroke:#181818;stroke-width:1;"/></g><!--link Admin to UC7--><g class="link" data-entity-1="Admin" data-entity-2="UC7" data-source-line="30" data-uid="lnk27" id="link_Admin_UC7"><path d="M42.25,599.19 C54.96,566.31 77.46,519.75 111,490.5 C122.39,480.57 131.1567,475.3214 145.2467,469.8514" fill="none" id="Admin-to-UC7" style="stroke:#181818;stroke-width:1;"/><polygon fill="#181818" points="150.84,467.68,141.0024,467.2083,146.1789,469.4895,143.8977,474.666,150.84,467.68" style="stroke:#181818;stroke-width:1;"/></g><!--link Admin to UC8--><g class="link" data-entity-1="Admin" data-entity-2="UC8" data-source-line="31" data-uid="lnk28" id="link_Admin_UC8"><path d="M51.2,615.81 C66.83,601.06 88.97,581.86 111,568.5 C124.32,560.42 134.0604,555.5863 148.4504,549.7463" fill="none" id="Admin-to-UC8" style="stroke:#181818;stroke-width:1;"/><polygon fill="#181818" points="154.01,547.49,144.1664,547.168,149.377,549.3702,147.1748,554.5808,154.01,547.49" style="stroke:#181818;stroke-width:1;"/></g><!--link Admin to UC9--><g class="link" data-entity-1="Admin" data-entity-2="UC9" data-source-line="32" data-uid="lnk29" id="link_Admin_UC9"><path d="M51.2,633.33 C75.39,628.69 109.5976,622.1112 142.9876,615.7012" fill="none" id="Admin-to-UC9" style="stroke:#181818;stroke-width:1;"/><polygon fill="#181818" points="148.88,614.57,139.2873,612.3385,143.9697,615.5127,140.7955,620.195,148.88,614.57" style="stroke:#181818;stroke-width:1;"/></g><!--link Admin to UC10--><g class="link" data-entity-1="Admin" data-entity-2="UC10" data-source-line="33" data-uid="lnk30" id="link_Admin_UC10"><path d="M51.2,641.67 C77.7,646.76 117.3976,654.3887 152.3476,661.0987" fill="none" id="Admin-to-UC10" style="stroke:#181818;stroke-width:1;"/><polygon fill="#181818" points="158.24,662.23,150.1556,656.6048,153.3297,661.2873,148.6472,664.4614,158.24,662.23" style="stroke:#181818;stroke-width:1;"/></g><!--link Admin to UC11--><g class="link" data-entity-1="Admin" data-entity-2="UC11" data-source-line="34" data-uid="lnk31" id="link_Admin_UC11"><path d="M51.02,657.88 C66.74,672 89.06,690.52 111,703.5 C125.33,711.98 136.2864,717.2286 151.5164,723.2986" fill="none" id="Admin-to-UC11" style="stroke:#181818;stroke-width:1;"/><polygon fill="#181818" points="157.09,725.52,150.2105,718.4721,152.4453,723.6688,147.2486,725.9037,157.09,725.52" style="stroke:#181818;stroke-width:1;"/></g><!--link Admin to UC12--><g class="link" data-entity-1="Admin" data-entity-2="UC12" data-source-line="35" data-uid="lnk32" id="link_Admin_UC12"><path d="M42.63,675.56 C55.47,707.59 77.95,752.54 111,780.5 C123.13,790.76 132.8807,796.1471 147.7607,801.3871" fill="none" id="Admin-to-UC12" style="stroke:#181818;stroke-width:1;"/><polygon fill="#181818" points="153.42,803.38,146.2596,796.6177,148.7039,801.7192,143.6024,804.1635,153.42,803.38" style="stroke:#181818;stroke-width:1;"/></g><!--link Admin to UC13--><g class="link" data-entity-1="Admin" data-entity-2="UC13" data-source-line="36" data-uid="lnk33" id="link_Admin_UC13"><path d="M34.47,675.73 C42.53,722.83 62.73,802.46 111,850.5 C121.42,860.87 129.5323,866.1399 143.2923,871.4499" fill="none" id="Admin-to-UC13" style="stroke:#181818;stroke-width:1;"/><polygon fill="#181818" points="148.89,873.61,141.9336,866.638,144.2253,871.8099,139.0534,874.1016,148.89,873.61" style="stroke:#181818;stroke-width:1;"/></g><!--link Admin to UC14--><g class="link" data-entity-1="Admin" data-entity-2="UC14" data-source-line="37" data-uid="lnk34" id="link_Admin_UC14"><path d="M30.22,675.72 C33.34,735.61 47.8,851.99 111,922.5 C120.08,932.64 126.7131,937.7398 139.2531,943.3498" fill="none" id="Admin-to-UC14" style="stroke:#181818;stroke-width:1;"/><polygon fill="#181818" points="144.73,945.8,138.1481,938.4734,140.1659,943.7582,134.8812,945.776,144.73,945.8" style="stroke:#181818;stroke-width:1;"/></g><!--link Admin to UC15--><g class="link" data-entity-1="Admin" data-entity-2="UC15" data-source-line="38" data-uid="lnk35" id="link_Admin_UC15"><path d="M33.46,675.56 C42.79,758.34 68.61,951.21 111,999.5 C121.37,1011.31 130.4093,1017.1509 145.1793,1022.3409" fill="none" id="Admin-to-UC15" style="stroke:#181818;stroke-width:1;"/><polygon fill="#181818" points="150.84,1024.33,143.675,1017.5726,146.1228,1022.6724,141.0229,1025.1201,150.84,1024.33" style="stroke:#181818;stroke-width:1;"/></g><!--link Admin to UC16--><g class="link" data-entity-1="Admin" data-entity-2="UC16" data-source-line="39" data-uid="lnk36" id="link_Admin_UC16"><path d="M31.99,675.57 C38.84,769.48 60.92,1008.87 111,1068.5 C120.23,1079.49 127.6026,1084.9182 140.9926,1090.2282" fill="none" id="Admin-to-UC16" style="stroke:#181818;stroke-width:1;"/><polygon fill="#181818" points="146.57,1092.44,139.6784,1085.404,141.9221,1090.5968,136.7293,1092.8406,146.57,1092.44" style="stroke:#181818;stroke-width:1;"/></g><!--link Admin to UC17--><g class="link" data-entity-1="Admin" data-entity-2="UC17" data-source-line="40" data-uid="lnk37" id="link_Admin_UC17"><path d="M30.88,675.62 C35.39,780.25 52.95,1068.84 111,1140.5 C119.62,1151.14 126.172,1156.3638 138.842,1161.7738" fill="none" id="Admin-to-UC17" style="stroke:#181818;stroke-width:1;"/><polygon fill="#181818" points="144.36,1164.13,137.6537,1156.9171,139.7617,1162.1665,134.5122,1164.2744,144.36,1164.13" style="stroke:#181818;stroke-width:1;"/></g><!--link Admin to UC18--><g class="link" data-entity-1="Admin" data-entity-2="UC18" data-source-line="41" data-uid="lnk38" id="link_Admin_UC18"><path d="M30.03,675.71 C32.36,790.62 44.8,1130.29 111,1214.5 C119.49,1225.3 126.0142,1230.6326 138.6842,1236.1826" fill="none" id="Admin-to-UC18" style="stroke:#181818;stroke-width:1;"/><polygon fill="#181818" points="144.18,1238.59,137.5412,1231.315,139.6001,1236.5838,134.3313,1238.6428,144.18,1238.59" style="stroke:#181818;stroke-width:1;"/></g><!--SRC=[VP8nRuCm48LtVeN57YcNX8GibQAeOvTMxNur3Za9S6MR3FpwKc3W4TEDXp_kFZzHcLjGmIedvJseGfpHGMoJ9Ao3TUfIrD8ezYeTdj8aQRtHx8twlDBm_jsKueFZhl_Ag4g-dKrdq6w0tcmXDz7yVBuVXqXjLmOS1k1BVCkLTDtQdYmYuqDRc2QOENT4dnXoMYZ5c3ngDP4o9y_JD6tSoZxQ0l9qDOeL_UEC3n8GN9GTPPQ5Hw5uwHCArwCCvAFJnivV-uFcdvrZxHzSFJXmMOfLxFHT7eBOsFoLNN_3kgzoZYNZxxhPlFoHa7QGzf0Ea398HqWdI3caCsxVOaGRGXr27q8XGYD29K8dody1]--></g></svg>