<svg xmlns="http://www.w3.org/2000/svg" xmlns:xlink="http://www.w3.org/1999/xlink" contentStyleType="text/css" data-diagram-type="SEQUENCE" height="477px" preserveAspectRatio="none" style="width:941px;height:477px;background:#FFFFFF;" version="1.1" viewBox="0 0 941 477" width="941px" zoomAndPan="magnify"><defs/><g><rect fill="none" height="164.7969" style="stroke:#000000;stroke-width:1.5;" width="925.7397" x="10" y="185.6953"/><rect fill="none" height="46.2656" style="stroke:#000000;stroke-width:1.5;" width="673.0591" x="20" y="297.2266"/><g><title>Admin</title><rect fill="#000000" fill-opacity="0.00000" height="315.3281" width="8" x="51.4321" y="81.2969"/><line style="stroke:#181818;stroke-width:0.5;stroke-dasharray:5,5;" x1="55" x2="55" y1="81.2969" y2="396.625"/></g><g><title>SideBarController</title><rect fill="#000000" fill-opacity="0.00000" height="315.3281" width="8" x="214.3062" y="81.2969"/><line style="stroke:#181818;stroke-width:0.5;stroke-dasharray:5,5;" x1="217.6118" x2="217.6118" y1="81.2969" y2="396.625"/></g><g><title>LoanRegisterController</title><rect fill="#000000" fill-opacity="0.00000" height="315.3281" width="8" x="380.6304" y="81.2969"/><line style="stroke:#181818;stroke-width:0.5;stroke-dasharray:5,5;" x1="384.0005" x2="384.0005" y1="81.2969" y2="396.625"/></g><g><title>LoanInsertPopupController</title><rect fill="#000000" fill-opacity="0.00000" height="315.3281" width="8" x="578.6597" y="81.2969"/><line style="stroke:#181818;stroke-width:0.5;stroke-dasharray:5,5;" x1="582.2603" x2="582.2603" y1="81.2969" y2="396.625"/></g><g><title>MainController</title><rect fill="#000000" fill-opacity="0.00000" height="315.3281" width="8" x="747.356" y="81.2969"/><line style="stroke:#181818;stroke-width:0.5;stroke-dasharray:5,5;" x1="751.0591" x2="751.0591" y1="81.2969" y2="396.625"/></g><g><title>LoanRegister</title><rect fill="#000000" fill-opacity="0.00000" height="315.3281" width="8" x="868.6963" y="81.2969"/><line style="stroke:#181818;stroke-width:0.5;stroke-dasharray:5,5;" x1="872.6528" x2="872.6528" y1="81.2969" y2="396.625"/></g><g class="participant participant-head" data-participant="Admin"><text fill="#000000" font-family="sans-serif" font-size="14" lengthAdjust="spacing" textLength="44.8643" x="30" y="77.9951">Admin</text><ellipse cx="55.4321" cy="13.5" fill="#E2E2F0" rx="8" ry="8" style="stroke:#181818;stroke-width:0.5;"/><path d="M55.4321,21.5 L55.4321,48.5 M42.4321,29.5 L68.4321,29.5 M55.4321,48.5 L42.4321,63.5 M55.4321,48.5 L68.4321,63.5" fill="none" style="stroke:#181818;stroke-width:0.5;"/></g><g class="participant participant-tail" data-participant="Admin"><text fill="#000000" font-family="sans-serif" font-size="14" lengthAdjust="spacing" textLength="44.8643" x="30" y="408.6201">Admin</text><ellipse cx="55.4321" cy="420.4219" fill="#E2E2F0" rx="8" ry="8" style="stroke:#181818;stroke-width:0.5;"/><path d="M55.4321,428.4219 L55.4321,455.4219 M42.4321,436.4219 L68.4321,436.4219 M55.4321,455.4219 L42.4321,470.4219 M55.4321,455.4219 L68.4321,470.4219" fill="none" style="stroke:#181818;stroke-width:0.5;"/></g><g class="participant participant-head" data-participant="SideBarController"><rect fill="#E2E2F0" height="30.2969" rx="2.5" ry="2.5" style="stroke:#181818;stroke-width:0.5;" width="137.3887" x="149.6118" y="50"/><text fill="#000000" font-family="sans-serif" font-size="14" lengthAdjust="spacing" textLength="123.3887" x="156.6118" y="69.9951">SideBarController</text></g><g class="participant participant-tail" data-participant="SideBarController"><rect fill="#E2E2F0" height="30.2969" rx="2.5" ry="2.5" style="stroke:#181818;stroke-width:0.5;" width="137.3887" x="149.6118" y="395.625"/><text fill="#000000" font-family="sans-serif" font-size="14" lengthAdjust="spacing" textLength="123.3887" x="156.6118" y="415.6201">SideBarController</text></g><g class="participant participant-head" data-participant="LoanRegisterController"><rect fill="#E2E2F0" height="30.2969" rx="2.5" ry="2.5" style="stroke:#181818;stroke-width:0.5;" width="175.2598" x="297.0005" y="50"/><text fill="#000000" font-family="sans-serif" font-size="14" lengthAdjust="spacing" textLength="161.2598" x="304.0005" y="69.9951">LoanRegisterController</text></g><g class="participant participant-tail" data-participant="LoanRegisterController"><rect fill="#E2E2F0" height="30.2969" rx="2.5" ry="2.5" style="stroke:#181818;stroke-width:0.5;" width="175.2598" x="297.0005" y="395.625"/><text fill="#000000" font-family="sans-serif" font-size="14" lengthAdjust="spacing" textLength="161.2598" x="304.0005" y="415.6201">LoanRegisterController</text></g><g class="participant participant-head" data-participant="LoanInsertPopupController"><rect fill="#E2E2F0" height="30.2969" rx="2.5" ry="2.5" style="stroke:#181818;stroke-width:0.5;" width="200.7988" x="482.2603" y="50"/><text fill="#000000" font-family="sans-serif" font-size="14" lengthAdjust="spacing" textLength="186.7988" x="489.2603" y="69.9951">LoanInsertPopupController</text></g><g class="participant participant-tail" data-participant="LoanInsertPopupController"><rect fill="#E2E2F0" height="30.2969" rx="2.5" ry="2.5" style="stroke:#181818;stroke-width:0.5;" width="200.7988" x="482.2603" y="395.625"/><text fill="#000000" font-family="sans-serif" font-size="14" lengthAdjust="spacing" textLength="186.7988" x="489.2603" y="415.6201">LoanInsertPopupController</text></g><g class="participant participant-head" data-participant="MainController"><rect fill="#E2E2F0" height="30.2969" rx="2.5" ry="2.5" style="stroke:#181818;stroke-width:0.5;" width="116.5938" x="693.0591" y="50"/><text fill="#000000" font-family="sans-serif" font-size="14" lengthAdjust="spacing" textLength="102.5938" x="700.0591" y="69.9951">MainController</text></g><g class="participant participant-tail" data-participant="MainController"><rect fill="#E2E2F0" height="30.2969" rx="2.5" ry="2.5" style="stroke:#181818;stroke-width:0.5;" width="116.5938" x="693.0591" y="395.625"/><text fill="#000000" font-family="sans-serif" font-size="14" lengthAdjust="spacing" textLength="102.5938" x="700.0591" y="415.6201">MainController</text></g><g class="participant participant-head" data-participant="LoanRegister"><rect fill="#E2E2F0" height="30.2969" rx="2.5" ry="2.5" style="stroke:#181818;stroke-width:0.5;" width="106.0869" x="819.6528" y="50"/><text fill="#000000" font-family="sans-serif" font-size="14" lengthAdjust="spacing" textLength="92.0869" x="826.6528" y="69.9951">LoanRegister</text></g><g class="participant participant-tail" data-participant="LoanRegister"><rect fill="#E2E2F0" height="30.2969" rx="2.5" ry="2.5" style="stroke:#181818;stroke-width:0.5;" width="106.0869" x="819.6528" y="395.625"/><text fill="#000000" font-family="sans-serif" font-size="14" lengthAdjust="spacing" textLength="92.0869" x="826.6528" y="415.6201">LoanRegister</text></g><g class="message" data-participant-1="Admin" data-participant-2="SideBarController"><polygon fill="#181818" points="206.3062,108.4297,216.3062,112.4297,206.3062,116.4297,210.3062,112.4297" style="stroke:#181818;stroke-width:1;"/><line style="stroke:#181818;stroke-width:1;" x1="55.4321" x2="212.3062" y1="112.4297" y2="112.4297"/><text fill="#000000" font-family="sans-serif" font-size="13" lengthAdjust="spacing" textLength="138.874" x="62.4321" y="107.3638">"Clicks "Add" Button"</text></g><g class="message" data-participant-1="SideBarController" data-participant-2="LoanRegisterController"><polygon fill="#181818" points="372.6304,137.5625,382.6304,141.5625,372.6304,145.5625,376.6304,141.5625" style="stroke:#181818;stroke-width:1;"/><line style="stroke:#181818;stroke-width:1;" x1="218.3062" x2="378.6304" y1="141.5625" y2="141.5625"/><text fill="#000000" font-family="sans-serif" font-size="13" lengthAdjust="spacing" textLength="120.4087" x="225.3062" y="136.4966">openInsertPopup()</text></g><g class="message" data-participant-1="LoanRegisterController" data-participant-2="Admin"><polygon fill="#181818" points="66.4321,166.6953,56.4321,170.6953,66.4321,174.6953,62.4321,170.6953" style="stroke:#181818;stroke-width:1;"/><line style="stroke:#181818;stroke-width:1;stroke-dasharray:2,2;" x1="60.4321" x2="383.6304" y1="170.6953" y2="170.6953"/><text fill="#000000" font-family="sans-serif" font-size="13" lengthAdjust="spacing" textLength="139.896" x="72.4321" y="165.6294">"Shows Insert Popup"</text></g><path d="M10,185.6953 L86.624,185.6953 L86.624,192.8281 L76.624,202.8281 L10,202.8281 L10,185.6953" fill="#EEEEEE" style="stroke:#000000;stroke-width:1.5;"/><rect fill="none" height="164.7969" style="stroke:#000000;stroke-width:1.5;" width="925.7397" x="10" y="185.6953"/><text fill="#000000" font-family="sans-serif" font-size="13" font-weight="bold" lengthAdjust="spacing" textLength="31.624" x="25" y="198.7622">loop</text><text fill="#000000" font-family="sans-serif" font-size="11" font-weight="bold" lengthAdjust="spacing" textLength="93.2476" x="101.624" y="197.9058">[LoanNotValid]</text><g class="message" data-participant-1="Admin" data-participant-2="LoanInsertPopupController"><polygon fill="#181818" points="570.6597,219.9609,580.6597,223.9609,570.6597,227.9609,574.6597,223.9609" style="stroke:#181818;stroke-width:1;"/><line style="stroke:#181818;stroke-width:1;" x1="55.4321" x2="576.6597" y1="223.9609" y2="223.9609"/><text fill="#000000" font-family="sans-serif" font-size="13" lengthAdjust="spacing" textLength="91.1904" x="62.4321" y="218.895">"Inserts Data"</text></g><g class="message" data-participant-1="LoanInsertPopupController" data-participant-2="LoanRegister"><polygon fill="#181818" points="860.6963,249.0938,870.6963,253.0938,860.6963,257.0938,864.6963,253.0938" style="stroke:#181818;stroke-width:1;"/><line style="stroke:#181818;stroke-width:1;" x1="582.6597" x2="866.6963" y1="253.0938" y2="253.0938"/><text fill="#000000" font-family="sans-serif" font-size="13" lengthAdjust="spacing" textLength="141.7114" x="589.6597" y="248.0278">isValid(Loan inserted)</text></g><g class="message" data-participant-1="LoanRegister" data-participant-2="LoanInsertPopupController"><polygon fill="#181818" points="593.6597,278.2266,583.6597,282.2266,593.6597,286.2266,589.6597,282.2266" style="stroke:#181818;stroke-width:1;"/><line style="stroke:#181818;stroke-width:1;stroke-dasharray:2,2;" x1="587.6597" x2="871.6963" y1="282.2266" y2="282.2266"/><text fill="#000000" font-family="sans-serif" font-size="13" lengthAdjust="spacing" textLength="37.064" x="599.6597" y="277.1606">result</text></g><path d="M20,297.2266 L89.4512,297.2266 L89.4512,304.3594 L79.4512,314.3594 L20,314.3594 L20,297.2266" fill="#EEEEEE" style="stroke:#000000;stroke-width:1.5;"/><rect fill="none" height="46.2656" style="stroke:#000000;stroke-width:1.5;" width="673.0591" x="20" y="297.2266"/><text fill="#000000" font-family="sans-serif" font-size="13" font-weight="bold" lengthAdjust="spacing" textLength="24.4512" x="35" y="310.2935">opt</text><text fill="#000000" font-family="sans-serif" font-size="11" font-weight="bold" lengthAdjust="spacing" textLength="90.0088" x="104.4512" y="309.437">[loanNotValid]</text><g class="message" data-participant-1="LoanInsertPopupController" data-participant-2="Admin"><polygon fill="#181818" points="66.4321,331.4922,56.4321,335.4922,66.4321,339.4922,62.4321,335.4922" style="stroke:#181818;stroke-width:1;"/><line style="stroke:#181818;stroke-width:1;stroke-dasharray:2,2;" x1="60.4321" x2="581.6597" y1="335.4922" y2="335.4922"/><text fill="#000000" font-family="sans-serif" font-size="13" lengthAdjust="spacing" textLength="205.061" x="72.4321" y="330.4263">"Data not correct, please retry"</text></g><g class="message" data-participant-1="LoanInsertPopupController" data-participant-2="LoanRegister"><polygon fill="#181818" points="860.6963,374.625,870.6963,378.625,860.6963,382.625,864.6963,378.625" style="stroke:#181818;stroke-width:1;"/><line style="stroke:#181818;stroke-width:1;" x1="582.6597" x2="866.6963" y1="378.625" y2="378.625"/><text fill="#000000" font-family="sans-serif" font-size="13" lengthAdjust="spacing" textLength="123.4619" x="589.6597" y="373.5591">add(Loan inserted)</text></g><!--SRC=[bP3DIiGm4CVlUOeXbzq5-m8YGdUtIA7jQkjwy1QQeC6O2SaKyUrDsuErQuiU0Y7p__XDDiSylQlJiapXc4EJFPopwZdUiwBOv5MJrNcPLO-dVdYke3Yb5MEY9VIGodTj6NF2aswr4vQWqLBjXJ-W9O_6AFzZMg2mjNhHWTIQ9BT1URf7rxa5LIcq_KC7OmCY9BUNO70D_61q-nQ0fr9os7T4Q3cxL4Rxx-Gn0vsQycvtR46Qn9IH9XOth_WHOFJ1OEJC8BgXfq9w4aRBR_Z5J-cpna60eo31sR9qjaMqwZ3qRFjdq8D9oTrAn4sIp3Ey2fqXXex0JDbNEAOVqKE3HO8MlLSjNO4pIWGLSyb_SgQi7Cv_rX9olj8N]--></g></svg>