<svg xmlns="http://www.w3.org/2000/svg" xmlns:xlink="http://www.w3.org/1999/xlink" contentStyleType="text/css" data-diagram-type="SEQUENCE" height="602px" preserveAspectRatio="none" style="width:1293px;height:602px;background:#FFFFFF;" version="1.1" viewBox="0 0 1293 602" width="1293px" zoomAndPan="magnify"><defs/><g><g><title>.u.inserted .Loan</title><rect fill="#FFFFFF" height="121.5313" style="stroke:#181818;stroke-width:1;" width="10" x="682.8354" y="266.0938"/></g><g><title>Admin</title><rect fill="#000000" fill-opacity="0.00000" height="440.8594" width="8" x="26.4321" y="81.2969"/><line style="stroke:#181818;stroke-width:0.5;stroke-dasharray:5,5;" x1="30" x2="30" y1="81.2969" y2="522.1563"/></g><g><title>.u..LoanRegisterController</title><rect fill="#000000" fill-opacity="0.00000" height="440.8594" width="8" x="190.3281" y="81.2969"/><line style="stroke:#181818;stroke-width:0.5;stroke-dasharray:5,5;" x1="193.3398" x2="193.3398" y1="81.2969" y2="522.1563"/></g><g><title>.u..LoanInsertPopupController</title><rect fill="#000000" fill-opacity="0.00000" height="440.8594" width="8" x="393.0742" y="81.2969"/><line style="stroke:#181818;stroke-width:0.5;stroke-dasharray:5,5;" x1="396.3164" x2="396.3164" y1="81.2969" y2="522.1563"/></g><g><title>.u..LoanRegister</title><rect fill="#000000" fill-opacity="0.00000" height="440.8594" width="8" x="561.2339" y="81.2969"/><line style="stroke:#181818;stroke-width:0.5;stroke-dasharray:5,5;" x1="564.832" x2="564.832" y1="81.2969" y2="522.1563"/></g><g><title>.u.inserted .Loan</title><rect fill="#000000" fill-opacity="0.00000" height="440.8594" width="8" x="683.8354" y="81.2969"/><line style="stroke:#181818;stroke-width:0.5;stroke-dasharray:5,5;" x1="687.6357" x2="687.6357" y1="81.2969" y2="522.1563"/></g><g><title>.u.insertedLoanBook .Book</title><rect fill="#000000" fill-opacity="0.00000" height="440.8594" width="8" x="956.4224" y="81.2969"/><line style="stroke:#181818;stroke-width:0.5;stroke-dasharray:5,5;" x1="960.3799" x2="960.3799" y1="81.2969" y2="522.1563"/></g><g><title>.u.insertedLoanStudent .Student</title><rect fill="#000000" fill-opacity="0.00000" height="440.8594" width="8" x="1170.7759" y="81.2969"/><line style="stroke:#181818;stroke-width:0.5;stroke-dasharray:5,5;" x1="1174.4648" x2="1174.4648" y1="81.2969" y2="522.1563"/></g><g class="participant participant-head" data-participant="Admin"><text fill="#000000" font-family="sans-serif" font-size="14" lengthAdjust="spacing" textLength="44.8643" x="5" y="77.9951">Admin</text><ellipse cx="30.4321" cy="13.5" fill="#E2E2F0" rx="8" ry="8" style="stroke:#181818;stroke-width:0.5;"/><path d="M30.4321,21.5 L30.4321,48.5 M17.4321,29.5 L43.4321,29.5 M30.4321,48.5 L17.4321,63.5 M30.4321,48.5 L43.4321,63.5" fill="none" style="stroke:#181818;stroke-width:0.5;"/></g><g class="participant participant-tail" data-participant="Admin"><text fill="#000000" font-family="sans-serif" font-size="14" lengthAdjust="spacing" textLength="44.8643" x="5" y="534.1514">Admin</text><ellipse cx="30.4321" cy="545.9531" fill="#E2E2F0" rx="8" ry="8" style="stroke:#181818;stroke-width:0.5;"/><path d="M30.4321,553.9531 L30.4321,580.9531 M17.4321,561.9531 L43.4321,561.9531 M30.4321,580.9531 L17.4321,595.9531 M30.4321,580.9531 L43.4321,595.9531" fill="none" style="stroke:#181818;stroke-width:0.5;"/></g><g class="participant participant-head" data-participant="LoanRegisterController"><rect fill="#E2E2F0" height="30.2969" rx="2.5" ry="2.5" style="stroke:#181818;stroke-width:0.5;" width="179.9766" x="104.3398" y="50"/><text fill="#000000" font-family="sans-serif" font-size="14" lengthAdjust="spacing" text-decoration="underline" textLength="165.9766" x="111.3398" y="69.9951">:LoanRegisterController</text></g><g class="participant participant-tail" data-participant="LoanRegisterController"><rect fill="#E2E2F0" height="30.2969" rx="2.5" ry="2.5" style="stroke:#181818;stroke-width:0.5;" width="179.9766" x="104.3398" y="521.1563"/><text fill="#000000" font-family="sans-serif" font-size="14" lengthAdjust="spacing" text-decoration="underline" textLength="165.9766" x="111.3398" y="541.1514">:LoanRegisterController</text></g><g class="participant participant-head" data-participant="LoanInsertPopupController"><rect fill="#E2E2F0" height="30.2969" rx="2.5" ry="2.5" style="stroke:#181818;stroke-width:0.5;" width="205.5156" x="294.3164" y="50"/><text fill="#000000" font-family="sans-serif" font-size="14" lengthAdjust="spacing" text-decoration="underline" textLength="191.5156" x="301.3164" y="69.9951">:LoanInsertPopupController</text></g><g class="participant participant-tail" data-participant="LoanInsertPopupController"><rect fill="#E2E2F0" height="30.2969" rx="2.5" ry="2.5" style="stroke:#181818;stroke-width:0.5;" width="205.5156" x="294.3164" y="521.1563"/><text fill="#000000" font-family="sans-serif" font-size="14" lengthAdjust="spacing" text-decoration="underline" textLength="191.5156" x="301.3164" y="541.1514">:LoanInsertPopupController</text></g><g class="participant participant-head" data-participant="LoanRegister"><rect fill="#E2E2F0" height="30.2969" rx="2.5" ry="2.5" style="stroke:#181818;stroke-width:0.5;" width="110.8037" x="509.832" y="50"/><text fill="#000000" font-family="sans-serif" font-size="14" lengthAdjust="spacing" text-decoration="underline" textLength="96.8037" x="516.832" y="69.9951">:LoanRegister</text></g><g class="participant participant-tail" data-participant="LoanRegister"><rect fill="#E2E2F0" height="30.2969" rx="2.5" ry="2.5" style="stroke:#181818;stroke-width:0.5;" width="110.8037" x="509.832" y="521.1563"/><text fill="#000000" font-family="sans-serif" font-size="14" lengthAdjust="spacing" text-decoration="underline" textLength="96.8037" x="516.832" y="541.1514">:LoanRegister</text></g><g class="participant participant-head" data-participant="Loan"><rect fill="#E2E2F0" height="30.2969" rx="2.5" ry="2.5" style="stroke:#181818;stroke-width:0.5;" width="114.3994" x="630.6357" y="50"/><text fill="#000000" font-family="sans-serif" font-size="14" lengthAdjust="spacing" text-decoration="underline" textLength="100.3994" x="637.6357" y="69.9951">inserted :Loan</text></g><g class="participant participant-tail" data-participant="Loan"><rect fill="#E2E2F0" height="30.2969" rx="2.5" ry="2.5" style="stroke:#181818;stroke-width:0.5;" width="114.3994" x="630.6357" y="521.1563"/><text fill="#000000" font-family="sans-serif" font-size="14" lengthAdjust="spacing" text-decoration="underline" textLength="100.3994" x="637.6357" y="541.1514">inserted :Loan</text></g><g class="participant participant-head" data-participant="Book"><rect fill="#E2E2F0" height="30.2969" rx="2.5" ry="2.5" style="stroke:#181818;stroke-width:0.5;" width="184.085" x="868.3799" y="50"/><text fill="#000000" font-family="sans-serif" font-size="14" lengthAdjust="spacing" text-decoration="underline" textLength="170.085" x="875.3799" y="69.9951">insertedLoanBook :Book</text></g><g class="participant participant-tail" data-participant="Book"><rect fill="#E2E2F0" height="30.2969" rx="2.5" ry="2.5" style="stroke:#181818;stroke-width:0.5;" width="184.085" x="868.3799" y="521.1563"/><text fill="#000000" font-family="sans-serif" font-size="14" lengthAdjust="spacing" text-decoration="underline" textLength="170.085" x="875.3799" y="541.1514">insertedLoanBook :Book</text></g><g class="participant participant-head" data-participant="Student"><rect fill="#E2E2F0" height="30.2969" rx="2.5" ry="2.5" style="stroke:#181818;stroke-width:0.5;" width="224.6221" x="1062.4648" y="50"/><text fill="#000000" font-family="sans-serif" font-size="14" lengthAdjust="spacing" text-decoration="underline" textLength="210.6221" x="1069.4648" y="69.9951">insertedLoanStudent :Student</text></g><g class="participant participant-tail" data-participant="Student"><rect fill="#E2E2F0" height="30.2969" rx="2.5" ry="2.5" style="stroke:#181818;stroke-width:0.5;" width="224.6221" x="1062.4648" y="521.1563"/><text fill="#000000" font-family="sans-serif" font-size="14" lengthAdjust="spacing" text-decoration="underline" textLength="210.6221" x="1069.4648" y="541.1514">insertedLoanStudent :Student</text></g><g><title>.u.inserted .Loan</title><rect fill="#FFFFFF" height="121.5313" style="stroke:#181818;stroke-width:1;" width="10" x="682.8354" y="266.0938"/></g><g class="message" data-participant-1="Admin" data-participant-2="LoanRegisterController"><polygon fill="#181818" points="182.3281,108.4297,192.3281,112.4297,182.3281,116.4297,186.3281,112.4297" style="stroke:#181818;stroke-width:1;"/><line style="stroke:#181818;stroke-width:1;" x1="30.4321" x2="188.3281" y1="112.4297" y2="112.4297"/><text fill="#000000" font-family="sans-serif" font-size="13" lengthAdjust="spacing" textLength="120.4087" x="37.4321" y="107.3638">openInsertPopup()</text></g><g class="message" data-participant-1="LoanRegisterController" data-participant-2="Admin"><polygon fill="#181818" points="41.4321,137.5625,31.4321,141.5625,41.4321,145.5625,37.4321,141.5625" style="stroke:#181818;stroke-width:1;"/><line style="stroke:#181818;stroke-width:1;stroke-dasharray:2,2;" x1="35.4321" x2="193.3281" y1="141.5625" y2="141.5625"/><text fill="#000000" font-family="sans-serif" font-size="13" lengthAdjust="spacing" textLength="139.896" x="47.4321" y="136.4966">"Shows Insert Popup"</text></g><g class="message" data-participant-1="Admin" data-participant-2="LoanInsertPopupController"><polygon fill="#181818" points="385.0742,166.6953,395.0742,170.6953,385.0742,174.6953,389.0742,170.6953" style="stroke:#181818;stroke-width:1;"/><line style="stroke:#181818;stroke-width:1;" x1="30.4321" x2="391.0742" y1="170.6953" y2="170.6953"/><text fill="#000000" font-family="sans-serif" font-size="13" lengthAdjust="spacing" textLength="159.9038" x="37.4321" y="165.6294">confirmBtnAction(event)</text></g><g class="message" data-participant-1="LoanInsertPopupController" data-participant-2="LoanRegister"><polygon fill="#181818" points="553.2339,195.8281,563.2339,199.8281,553.2339,203.8281,557.2339,199.8281" style="stroke:#181818;stroke-width:1;"/><line style="stroke:#181818;stroke-width:1;" x1="397.0742" x2="559.2339" y1="199.8281" y2="199.8281"/><text fill="#000000" font-family="sans-serif" font-size="13" lengthAdjust="spacing" textLength="119.3296" x="404.0742" y="194.7622">add(insertedLoan)</text></g><g class="message" data-participant-1="LoanRegister" data-participant-2="Loan"><polygon fill="#181818" points="675.8354,224.9609,685.8354,228.9609,675.8354,232.9609,679.8354,228.9609" style="stroke:#181818;stroke-width:1;"/><line style="stroke:#181818;stroke-width:1;" x1="565.2339" x2="681.8354" y1="228.9609" y2="228.9609"/><text fill="#000000" font-family="sans-serif" font-size="13" lengthAdjust="spacing" textLength="94.123" x="572.2339" y="223.895">activateLoan()</text></g><g class="message" data-participant-1="Loan" data-participant-2="Loan"><line style="stroke:#181818;stroke-width:1;" x1="687.8354" x2="734.8354" y1="253.0938" y2="253.0938"/><line style="stroke:#181818;stroke-width:1;" x1="734.8354" x2="734.8354" y1="253.0938" y2="266.0938"/><line style="stroke:#181818;stroke-width:1;" x1="693.8354" x2="734.8354" y1="266.0938" y2="266.0938"/><polygon fill="#181818" points="703.8354,262.0938,693.8354,266.0938,703.8354,270.0938,699.8354,266.0938" style="stroke:#181818;stroke-width:1;"/><text fill="#000000" font-family="sans-serif" font-size="13" lengthAdjust="spacing" textLength="80.7993" x="699.8354" y="248.0278">isActivable()</text></g><g class="message" data-participant-1="Loan" data-participant-2="Book"><polygon fill="#181818" points="948.4224,296.2266,958.4224,300.2266,948.4224,304.2266,952.4224,300.2266" style="stroke:#181818;stroke-width:1;"/><line style="stroke:#181818;stroke-width:1;" x1="692.8354" x2="954.4224" y1="300.2266" y2="300.2266"/><text fill="#000000" font-family="sans-serif" font-size="13" lengthAdjust="spacing" textLength="132.3105" x="699.8354" y="295.1606">isAvailableForLoan()</text></g><g class="message" data-participant-1="Book" data-participant-2="Loan"><polygon fill="#181818" points="703.8354,325.3594,693.8354,329.3594,703.8354,333.3594,699.8354,329.3594" style="stroke:#181818;stroke-width:1;"/><line style="stroke:#181818;stroke-width:1;stroke-dasharray:2,2;" x1="697.8354" x2="959.4224" y1="329.3594" y2="329.3594"/><text fill="#000000" font-family="sans-serif" font-size="13" lengthAdjust="spacing" textLength="37.064" x="709.8354" y="324.2935">result</text></g><g class="message" data-participant-1="Loan" data-participant-2="Student"><polygon fill="#181818" points="1162.7759,354.4922,1172.7759,358.4922,1162.7759,362.4922,1166.7759,358.4922" style="stroke:#181818;stroke-width:1;"/><line style="stroke:#181818;stroke-width:1;" x1="692.8354" x2="1168.7759" y1="358.4922" y2="358.4922"/><text fill="#000000" font-family="sans-serif" font-size="13" lengthAdjust="spacing" textLength="132.3105" x="699.8354" y="353.4263">isAvailableForLoan()</text></g><g class="message" data-participant-1="Student" data-participant-2="Loan"><polygon fill="#181818" points="698.8354,383.625,688.8354,387.625,698.8354,391.625,694.8354,387.625" style="stroke:#181818;stroke-width:1;"/><line style="stroke:#181818;stroke-width:1;stroke-dasharray:2,2;" x1="692.8354" x2="1173.7759" y1="387.625" y2="387.625"/><text fill="#000000" font-family="sans-serif" font-size="13" lengthAdjust="spacing" textLength="37.064" x="704.8354" y="382.5591">result</text></g><g class="message" data-participant-1="Loan" data-participant-2="Book"><polygon fill="#181818" points="948.4224,412.7578,958.4224,416.7578,948.4224,420.7578,952.4224,416.7578" style="stroke:#181818;stroke-width:1;"/><line style="stroke:#181818;stroke-width:1;" x1="687.8354" x2="954.4224" y1="416.7578" y2="416.7578"/><text fill="#000000" font-family="sans-serif" font-size="13" lengthAdjust="spacing" textLength="134.7607" x="694.8354" y="411.6919">getAvailableCopies()</text></g><g class="message" data-participant-1="Book" data-participant-2="Loan"><polygon fill="#181818" points="698.8354,441.8906,688.8354,445.8906,698.8354,449.8906,694.8354,445.8906" style="stroke:#181818;stroke-width:1;"/><line style="stroke:#181818;stroke-width:1;stroke-dasharray:2,2;" x1="692.8354" x2="959.4224" y1="445.8906" y2="445.8906"/><text fill="#000000" font-family="sans-serif" font-size="13" lengthAdjust="spacing" textLength="102.3433" x="704.8354" y="440.8247">availableCopies</text></g><g class="message" data-participant-1="Loan" data-participant-2="Book"><polygon fill="#181818" points="948.4224,471.0234,958.4224,475.0234,948.4224,479.0234,952.4224,475.0234" style="stroke:#181818;stroke-width:1;"/><line style="stroke:#181818;stroke-width:1;" x1="687.8354" x2="954.4224" y1="475.0234" y2="475.0234"/><text fill="#000000" font-family="sans-serif" font-size="13" lengthAdjust="spacing" textLength="248.5869" x="694.8354" y="469.9575">setAvailableCopies(availableCopies-1)</text></g><g class="message" data-participant-1="Loan" data-participant-2="Student"><polygon fill="#181818" points="1162.7759,500.1563,1172.7759,504.1563,1162.7759,508.1563,1166.7759,504.1563" style="stroke:#181818;stroke-width:1;"/><line style="stroke:#181818;stroke-width:1;" x1="687.8354" x2="1168.7759" y1="504.1563" y2="504.1563"/><text fill="#000000" font-family="sans-serif" font-size="13" lengthAdjust="spacing" textLength="130.1777" x="694.8354" y="499.0903">addActiveLoan(this)</text></g><!--SRC=[VL6xRi8m5Dtz5LTPW253rwX2Cf1MaK9eILcwkOaBLeCTsGxz_ThEeq1CbkZ6vt6FZsUR1B_kyNQBOPD07hyVukpJp76Qpf8iZ_V9Diu-TXOyP93kS8OGARIGWCipumZLH6fMi9fm3S5piunIGVYU7fdILAu5rr9K5PK140L-o6-HS4MbVXDrKtjSlEXqbb624PqvKrg2qmtyXpmBheJuWSX-7TyEa_nSDoKrvr4tE5Kt8-GwXN3ve2c8GDJq-lBp1Nf03OrBQnT1a9_4hu9M1quOtExozccKXU3VJ9vNckD2Cy7dz6A2jalzchlmneEKvVowWjl8lS0IpOeBqTJ-TXUxGfd23l-gg05xRlj2FRLz3Kkz45PPwekGdPt3mdy_ILLJwK4wF8nVtSDZWv9EPZbIFTYjHSseycGXjunx3pNsk5E4JmlFJKpphhEsKNrYQl47]--></g></svg>