<svg xmlns="http://www.w3.org/2000/svg" xmlns:xlink="http://www.w3.org/1999/xlink" contentStyleType="text/css" data-diagram-type="CLASS" height="528px" preserveAspectRatio="none" style="width:1297px;height:528px;background:#FFFFFF;" version="1.1" viewBox="0 0 1297 528" width="1297px" zoomAndPan="magnify"><defs/><g><!--class BookRegisterController--><g class="entity" data-entity="BookRegisterController" data-source-line="1" data-uid="ent0002" id="entity_BookRegisterController"><rect fill="#F1F1F1" height="292.4531" rx="2.5" ry="2.5" style="stroke:#181818;stroke-width:0.5;" width="434.4746" x="430.82" y="7"/><ellipse cx="562.6647" cy="23" fill="#ADD1B2" rx="11" ry="11" style="stroke:#181818;stroke-width:1;"/><path d="M565.6335,28.6406 Q565.0554,28.9375 564.4147,29.0781 Q563.7741,29.2344 563.071,29.2344 Q560.571,29.2344 559.2429,27.5938 Q557.9304,25.9375 557.9304,22.8125 Q557.9304,19.6875 559.2429,18.0313 Q560.571,16.375 563.071,16.375 Q563.7741,16.375 564.4147,16.5313 Q565.071,16.6875 565.6335,16.9844 L565.6335,19.7031 Q565.0085,19.125 564.4147,18.8594 Q563.821,18.5781 563.196,18.5781 Q561.8522,18.5781 561.1647,19.6563 Q560.4772,20.7188 560.4772,22.8125 Q560.4772,24.9063 561.1647,25.9844 Q561.8522,27.0469 563.196,27.0469 Q563.821,27.0469 564.4147,26.7813 Q565.0085,26.5 565.6335,25.9219 L565.6335,28.6406 Z " fill="#000000"/><text fill="#000000" font-family="sans-serif" font-size="14" lengthAdjust="spacing" textLength="162.2852" x="583.1647" y="27.8467">BookRegisterController</text><line style="stroke:#181818;stroke-width:0.5;" x1="431.82" x2="864.2946" y1="39" y2="39"/><g data-visibility-modifier="PRIVATE_FIELD"><rect fill="none" height="6" style="stroke:#C82930;stroke-width:1;" width="6" x="438.82" y="49.6484"/></g><text fill="#000000" font-family="sans-serif" font-size="14" lengthAdjust="spacing" textLength="216.6172" x="450.82" y="55.9951">bookTable : TableView&lt;Book&gt;</text><g data-visibility-modifier="PRIVATE_FIELD"><rect fill="none" height="6" style="stroke:#C82930;stroke-width:1;" width="6" x="438.82" y="65.9453"/></g><text fill="#000000" font-family="sans-serif" font-size="14" lengthAdjust="spacing" textLength="269.4111" x="450.82" y="72.292">titleClm : TableColumn&lt;Book, String&gt;</text><g data-visibility-modifier="PRIVATE_FIELD"><rect fill="none" height="6" style="stroke:#C82930;stroke-width:1;" width="6" x="438.82" y="82.2422"/></g><text fill="#000000" font-family="sans-serif" font-size="14" lengthAdjust="spacing" textLength="295.4697" x="450.82" y="88.5889">authorsClm : TableColumn&lt;Book, String&gt;</text><g data-visibility-modifier="PRIVATE_FIELD"><rect fill="none" height="6" style="stroke:#C82930;stroke-width:1;" width="6" x="438.82" y="98.5391"/></g><text fill="#000000" font-family="sans-serif" font-size="14" lengthAdjust="spacing" textLength="369.3252" x="450.82" y="104.8857">publishmentYearClm : TableColumn&lt;Book, Integer&gt;</text><g data-visibility-modifier="PRIVATE_FIELD"><rect fill="none" height="6" style="stroke:#C82930;stroke-width:1;" width="6" x="438.82" y="114.8359"/></g><text fill="#000000" font-family="sans-serif" font-size="14" lengthAdjust="spacing" textLength="289.1807" x="450.82" y="121.1826">bookIdClm : TableColumn&lt;Book, String&gt;</text><g data-visibility-modifier="PRIVATE_FIELD"><rect fill="none" height="6" style="stroke:#C82930;stroke-width:1;" width="6" x="438.82" y="131.1328"/></g><text fill="#000000" font-family="sans-serif" font-size="14" lengthAdjust="spacing" textLength="360.835" x="450.82" y="137.4795">availableCopiesClm : TableColumn&lt;Book, Integer&gt;</text><g data-visibility-modifier="PRIVATE_FIELD"><rect fill="none" height="6" style="stroke:#C82930;stroke-width:1;" width="6" x="438.82" y="147.4297"/></g><text fill="#000000" font-family="sans-serif" font-size="14" lengthAdjust="spacing" textLength="222.585" x="450.82" y="153.7764">bookRegister : Register&lt;Book&gt;</text><g data-visibility-modifier="PRIVATE_FIELD"><rect fill="none" height="6" style="stroke:#C82930;stroke-width:1;" width="6" x="438.82" y="163.7266"/></g><text fill="#000000" font-family="sans-serif" font-size="14" lengthAdjust="spacing" textLength="258.8018" x="450.82" y="170.0732">sideBarController : SideBarController</text><g data-visibility-modifier="PRIVATE_FIELD"><rect fill="none" height="6" style="stroke:#C82930;stroke-width:1;" width="6" x="438.82" y="180.0234"/></g><text fill="#000000" font-family="sans-serif" font-size="14" lengthAdjust="spacing" textLength="388.5479" x="450.82" y="186.3701">bookInsertPopupController : BookInsertPopupController</text><g data-visibility-modifier="PRIVATE_FIELD"><rect fill="none" height="6" style="stroke:#C82930;stroke-width:1;" width="6" x="438.82" y="196.3203"/></g><text fill="#000000" font-family="sans-serif" font-size="14" lengthAdjust="spacing" textLength="401.5088" x="450.82" y="202.667">bookModifyPopupController : BookModifyPopupController</text><line style="stroke:#181818;stroke-width:0.5;" x1="431.82" x2="864.2946" y1="209.9688" y2="209.9688"/><g data-visibility-modifier="PUBLIC_METHOD"><ellipse cx="441.82" cy="223.6172" fill="#84BE84" rx="3" ry="3" style="stroke:#038048;stroke-width:1;"/></g><text fill="#000000" font-family="sans-serif" font-size="14" lengthAdjust="spacing" textLength="112.5195" x="450.82" y="226.9639">initialize() : void</text><g data-visibility-modifier="PRIVATE_METHOD"><rect fill="#F24D5C" height="6" style="stroke:#C82930;stroke-width:1;" width="6" x="438.82" y="236.9141"/></g><text fill="#000000" font-family="sans-serif" font-size="14" lengthAdjust="spacing" textLength="172.915" x="450.82" y="243.2607">openInsertPopup() : void</text><g data-visibility-modifier="PRIVATE_METHOD"><rect fill="#F24D5C" height="6" style="stroke:#C82930;stroke-width:1;" width="6" x="438.82" y="253.2109"/></g><text fill="#000000" font-family="sans-serif" font-size="14" lengthAdjust="spacing" textLength="179.3955" x="450.82" y="259.5576">openModifyPopup() : void</text><g data-visibility-modifier="PRIVATE_METHOD"><rect fill="#F24D5C" height="6" style="stroke:#C82930;stroke-width:1;" width="6" x="438.82" y="269.5078"/></g><text fill="#000000" font-family="sans-serif" font-size="14" lengthAdjust="spacing" textLength="201.9199" x="450.82" y="275.8545">removeFromRegister() : void</text><g data-visibility-modifier="PUBLIC_METHOD"><ellipse cx="441.82" cy="288.8047" fill="#84BE84" rx="3" ry="3" style="stroke:#038048;stroke-width:1;"/></g><text fill="#000000" font-family="sans-serif" font-size="14" lengthAdjust="spacing" textLength="408.4746" x="450.82" y="292.1514">setBookRegister(in bookRegister : Register&lt;Book&gt;) : void</text></g><!--class SideBarController--><g class="entity" data-entity="SideBarController" data-source-line="21" data-uid="ent0003" id="entity_SideBarController"><rect fill="#F1F1F1" height="178.375" rx="2.5" ry="2.5" style="stroke:#181818;stroke-width:0.5;" width="226.751" x="900.68" y="64.04"/><ellipse cx="948.1112" cy="80.04" fill="#ADD1B2" rx="11" ry="11" style="stroke:#181818;stroke-width:1;"/><path d="M951.0799,85.6806 Q950.5018,85.9775 949.8612,86.1181 Q949.2205,86.2744 948.5174,86.2744 Q946.0174,86.2744 944.6893,84.6337 Q943.3768,82.9775 943.3768,79.8525 Q943.3768,76.7275 944.6893,75.0712 Q946.0174,73.415 948.5174,73.415 Q949.2205,73.415 949.8612,73.5712 Q950.5174,73.7275 951.0799,74.0244 L951.0799,76.7431 Q950.4549,76.165 949.8612,75.8994 Q949.2674,75.6181 948.6424,75.6181 Q947.2987,75.6181 946.6112,76.6962 Q945.9237,77.7587 945.9237,79.8525 Q945.9237,81.9462 946.6112,83.0244 Q947.2987,84.0869 948.6424,84.0869 Q949.2674,84.0869 949.8612,83.8212 Q950.4549,83.54 951.0799,82.9619 L951.0799,85.6806 Z " fill="#000000"/><text fill="#000000" font-family="sans-serif" font-size="14" lengthAdjust="spacing" textLength="123.3887" x="968.6112" y="84.8867">SideBarController</text><line style="stroke:#181818;stroke-width:0.5;" x1="901.68" x2="1126.431" y1="96.04" y2="96.04"/><g data-visibility-modifier="PRIVATE_FIELD"><rect fill="none" height="6" style="stroke:#C82930;stroke-width:1;" width="6" x="908.68" y="106.6884"/></g><text fill="#000000" font-family="sans-serif" font-size="14" lengthAdjust="spacing" textLength="110.8311" x="920.68" y="113.0351">addBtn : Button</text><g data-visibility-modifier="PRIVATE_FIELD"><rect fill="none" height="6" style="stroke:#C82930;stroke-width:1;" width="6" x="908.68" y="122.9853"/></g><text fill="#000000" font-family="sans-serif" font-size="14" lengthAdjust="spacing" textLength="165.2451" x="920.68" y="129.332">searchBarTF : TextField</text><g data-visibility-modifier="PRIVATE_FIELD"><rect fill="none" height="6" style="stroke:#C82930;stroke-width:1;" width="6" x="908.68" y="139.2822"/></g><text fill="#000000" font-family="sans-serif" font-size="14" lengthAdjust="spacing" textLength="137.9492" x="920.68" y="145.6289">removeBtn : Button</text><g data-visibility-modifier="PRIVATE_FIELD"><rect fill="none" height="6" style="stroke:#C82930;stroke-width:1;" width="6" x="908.68" y="155.5791"/></g><text fill="#000000" font-family="sans-serif" font-size="14" lengthAdjust="spacing" textLength="132.6719" x="920.68" y="161.9257">modifyBtn : Button</text><line style="stroke:#181818;stroke-width:0.5;" x1="901.68" x2="1126.431" y1="169.2275" y2="169.2275"/><g data-visibility-modifier="PUBLIC_METHOD"><ellipse cx="911.68" cy="182.8759" fill="#84BE84" rx="3" ry="3" style="stroke:#038048;stroke-width:1;"/></g><text fill="#000000" font-family="sans-serif" font-size="14" lengthAdjust="spacing" textLength="145.7422" x="920.68" y="186.2226">getAddBtn() : Button</text><g data-visibility-modifier="PUBLIC_METHOD"><ellipse cx="911.68" cy="199.1728" fill="#84BE84" rx="3" ry="3" style="stroke:#038048;stroke-width:1;"/></g><text fill="#000000" font-family="sans-serif" font-size="14" lengthAdjust="spacing" textLength="200.751" x="920.68" y="202.5195">getSearchBarTF() : TextField</text><g data-visibility-modifier="PUBLIC_METHOD"><ellipse cx="911.68" cy="215.4697" fill="#84BE84" rx="3" ry="3" style="stroke:#038048;stroke-width:1;"/></g><text fill="#000000" font-family="sans-serif" font-size="14" lengthAdjust="spacing" textLength="175.834" x="920.68" y="218.8164">getRemoveBtn() : Button</text><g data-visibility-modifier="PUBLIC_METHOD"><ellipse cx="911.68" cy="231.7666" fill="#84BE84" rx="3" ry="3" style="stroke:#038048;stroke-width:1;"/></g><text fill="#000000" font-family="sans-serif" font-size="14" lengthAdjust="spacing" textLength="165.0264" x="920.68" y="235.1132">getModifyBtn() : Button</text></g><!--class BookInsertPopupController--><g class="entity" data-entity="BookInsertPopupController" data-source-line="33" data-uid="ent0004" id="entity_BookInsertPopupController"><rect fill="#F1F1F1" height="129.4844" rx="2.5" ry="2.5" style="stroke:#181818;stroke-width:0.5;" width="624.1104" x="7" y="375.75"/><ellipse cx="220.8931" cy="391.75" fill="#ADD1B2" rx="11" ry="11" style="stroke:#181818;stroke-width:1;"/><path d="M223.8618,397.3906 Q223.2837,397.6875 222.6431,397.8281 Q222.0024,397.9844 221.2993,397.9844 Q218.7993,397.9844 217.4712,396.3438 Q216.1587,394.6875 216.1587,391.5625 Q216.1587,388.4375 217.4712,386.7813 Q218.7993,385.125 221.2993,385.125 Q222.0024,385.125 222.6431,385.2813 Q223.2993,385.4375 223.8618,385.7344 L223.8618,388.4531 Q223.2368,387.875 222.6431,387.6094 Q222.0493,387.3281 221.4243,387.3281 Q220.0806,387.3281 219.3931,388.4063 Q218.7056,389.4688 218.7056,391.5625 Q218.7056,393.6563 219.3931,394.7344 Q220.0806,395.7969 221.4243,395.7969 Q222.0493,395.7969 222.6431,395.5313 Q223.2368,395.25 223.8618,394.6719 L223.8618,397.3906 Z " fill="#000000"/><text fill="#000000" font-family="sans-serif" font-size="14" lengthAdjust="spacing" textLength="187.8242" x="241.3931" y="396.5967">BookInsertPopupController</text><line style="stroke:#181818;stroke-width:0.5;" x1="8" x2="630.1104" y1="407.75" y2="407.75"/><g data-visibility-modifier="PRIVATE_FIELD"><rect fill="none" height="6" style="stroke:#C82930;stroke-width:1;" width="6" x="15" y="418.3984"/></g><text fill="#000000" font-family="sans-serif" font-size="14" lengthAdjust="spacing" textLength="306.0244" x="27" y="424.7451">bookRegisterAdder : RegisterAdder&lt;Book&gt;</text><g data-visibility-modifier="PRIVATE_FIELD"><rect fill="none" height="6" style="stroke:#C82930;stroke-width:1;" width="6" x="15" y="434.6953"/></g><text fill="#000000" font-family="sans-serif" font-size="14" lengthAdjust="spacing" textLength="349.0088" x="27" y="441.042">bookRegisterValidator : RegisterValidator&lt;Book&gt;</text><line style="stroke:#181818;stroke-width:0.5;" x1="8" x2="630.1104" y1="448.3438" y2="448.3438"/><g data-visibility-modifier="PUBLIC_METHOD"><ellipse cx="18" cy="461.9922" fill="#84BE84" rx="3" ry="3" style="stroke:#038048;stroke-width:1;"/></g><text fill="#000000" font-family="sans-serif" font-size="14" lengthAdjust="spacing" textLength="112.5195" x="27" y="465.3389">initialize() : void</text><g data-visibility-modifier="PUBLIC_METHOD"><ellipse cx="18" cy="478.2891" fill="#84BE84" rx="3" ry="3" style="stroke:#038048;stroke-width:1;"/></g><text fill="#000000" font-family="sans-serif" font-size="14" lengthAdjust="spacing" textLength="533.6338" x="27" y="481.6357">setBookRegisterAdder(in bookRegisterAdder : RegisterAdder&lt;Book&gt;) : void</text><g data-visibility-modifier="PUBLIC_METHOD"><ellipse cx="18" cy="494.5859" fill="#84BE84" rx="3" ry="3" style="stroke:#038048;stroke-width:1;"/></g><text fill="#000000" font-family="sans-serif" font-size="14" lengthAdjust="spacing" textLength="598.1104" x="27" y="497.9326">setBookRegisterValidator(in bookRegisterValidator : RegisterValidator&lt;Book&gt;) : void</text></g><!--class BookModifyPopupController--><g class="entity" data-entity="BookModifyPopupController" data-source-line="42" data-uid="ent0005" id="entity_BookModifyPopupController"><rect fill="#F1F1F1" height="162.0781" rx="2.5" ry="2.5" style="stroke:#181818;stroke-width:0.5;" width="624.1104" x="666" y="359.45"/><ellipse cx="876.6528" cy="375.45" fill="#ADD1B2" rx="11" ry="11" style="stroke:#181818;stroke-width:1;"/><path d="M879.6216,381.0906 Q879.0435,381.3875 878.4028,381.5281 Q877.7622,381.6844 877.0591,381.6844 Q874.5591,381.6844 873.231,380.0437 Q871.9185,378.3875 871.9185,375.2625 Q871.9185,372.1375 873.231,370.4812 Q874.5591,368.825 877.0591,368.825 Q877.7622,368.825 878.4028,368.9812 Q879.0591,369.1375 879.6216,369.4344 L879.6216,372.1531 Q878.9966,371.575 878.4028,371.3094 Q877.8091,371.0281 877.1841,371.0281 Q875.8403,371.0281 875.1528,372.1062 Q874.4653,373.1687 874.4653,375.2625 Q874.4653,377.3562 875.1528,378.4344 Q875.8403,379.4969 877.1841,379.4969 Q877.8091,379.4969 878.4028,379.2312 Q878.9966,378.95 879.6216,378.3719 L879.6216,381.0906 Z " fill="#000000"/><text fill="#000000" font-family="sans-serif" font-size="14" lengthAdjust="spacing" textLength="194.3047" x="897.1528" y="380.2967">BookModifyPopupController</text><line style="stroke:#181818;stroke-width:0.5;" x1="667" x2="1289.1104" y1="391.45" y2="391.45"/><g data-visibility-modifier="PRIVATE_FIELD"><rect fill="none" height="6" style="stroke:#C82930;stroke-width:1;" width="6" x="674" y="402.0984"/></g><text fill="#000000" font-family="sans-serif" font-size="14" lengthAdjust="spacing" textLength="335.8018" x="686" y="408.4451">bookRegisterModifier : RegisterModifier&lt;Book&gt;</text><g data-visibility-modifier="PRIVATE_FIELD"><rect fill="none" height="6" style="stroke:#C82930;stroke-width:1;" width="6" x="674" y="418.3953"/></g><text fill="#000000" font-family="sans-serif" font-size="14" lengthAdjust="spacing" textLength="349.0088" x="686" y="424.742">bookRegisterValidator : RegisterValidator&lt;Book&gt;</text><g data-visibility-modifier="PRIVATE_FIELD"><rect fill="none" height="6" style="stroke:#C82930;stroke-width:1;" width="6" x="674" y="434.6922"/></g><text fill="#000000" font-family="sans-serif" font-size="14" lengthAdjust="spacing" textLength="146.3369" x="686" y="441.0389">bookToModify : Book</text><line style="stroke:#181818;stroke-width:0.5;" x1="667" x2="1289.1104" y1="448.3406" y2="448.3406"/><g data-visibility-modifier="PUBLIC_METHOD"><ellipse cx="677" cy="461.9891" fill="#84BE84" rx="3" ry="3" style="stroke:#038048;stroke-width:1;"/></g><text fill="#000000" font-family="sans-serif" font-size="14" lengthAdjust="spacing" textLength="112.5195" x="686" y="465.3357">initialize() : void</text><g data-visibility-modifier="PUBLIC_METHOD"><ellipse cx="677" cy="478.2859" fill="#84BE84" rx="3" ry="3" style="stroke:#038048;stroke-width:1;"/></g><text fill="#000000" font-family="sans-serif" font-size="14" lengthAdjust="spacing" textLength="337.709" x="686" y="481.6326">setBookToModify(in bookToModify : Book) : void</text><g data-visibility-modifier="PUBLIC_METHOD"><ellipse cx="677" cy="494.5828" fill="#84BE84" rx="3" ry="3" style="stroke:#038048;stroke-width:1;"/></g><text fill="#000000" font-family="sans-serif" font-size="14" lengthAdjust="spacing" textLength="578.2998" x="686" y="497.9295">setBookRegisterModifier(in bookRegisterModifier : RegisterModifier&lt;Book&gt;) : void</text><g data-visibility-modifier="PUBLIC_METHOD"><ellipse cx="677" cy="510.8797" fill="#84BE84" rx="3" ry="3" style="stroke:#038048;stroke-width:1;"/></g><text fill="#000000" font-family="sans-serif" font-size="14" lengthAdjust="spacing" textLength="598.1104" x="686" y="514.2264">setBookRegisterValidator(in bookRegisterValidator : RegisterValidator&lt;Book&gt;) : void</text></g><!--link BookRegisterController to SideBarController--><g class="link" data-entity-1="BookRegisterController" data-entity-2="SideBarController" data-source-line="56" data-uid="lnk6" id="link_BookRegisterController_SideBarController"><path codeLine="56" d="M865.73,153.23 C877.22,153.23 882.71,153.23 894.2,153.23" fill="none" id="BookRegisterController-to-SideBarController" style="stroke:#181818;stroke-width:1;"/><polygon fill="#181818" points="900.2,153.23,891.2,149.23,895.2,153.23,891.2,157.23,900.2,153.23" style="stroke:#181818;stroke-width:1;"/><text fill="#000000" font-family="sans-serif" font-size="13" lengthAdjust="spacing" textLength="8.271" x="873.0081" y="150.0531">1</text><text fill="#000000" font-family="sans-serif" font-size="13" lengthAdjust="spacing" textLength="8.271" x="884.2907" y="149.7976">1</text></g><!--link BookRegisterController to BookInsertPopupController--><g class="link" data-entity-1="BookRegisterController" data-entity-2="BookInsertPopupController" data-source-line="57" data-uid="lnk7" id="link_BookRegisterController_BookInsertPopupController"><path codeLine="57" d="M480.18,299.78 C449.45,326.43 423.4022,349.0082 397.2822,371.6682" fill="none" id="BookRegisterController-to-BookInsertPopupController" style="stroke:#181818;stroke-width:1;"/><polygon fill="#181818" points="392.75,375.6,402.1695,372.7237,396.5268,372.3235,396.9271,366.6808,392.75,375.6" style="stroke:#181818;stroke-width:1;"/><text fill="#000000" font-family="sans-serif" font-size="13" lengthAdjust="spacing" textLength="8.271" x="463.8613" y="319.3121">1</text><text fill="#000000" font-family="sans-serif" font-size="13" lengthAdjust="spacing" textLength="8.271" x="392.3877" y="364.7563">1</text></g><!--link BookRegisterController to BookModifyPopupController--><g class="link" data-entity-1="BookRegisterController" data-entity-2="BookModifyPopupController" data-source-line="58" data-uid="lnk8" id="link_BookRegisterController_BookModifyPopupController"><path codeLine="58" d="M816.44,299.78 C840.11,320.25 859.1609,336.7162 880.7009,355.3362" fill="none" id="BookRegisterController-to-BookModifyPopupController" style="stroke:#181818;stroke-width:1;"/><polygon fill="#181818" points="885.24,359.26,881.0472,350.3482,881.4574,355.9902,875.8154,356.4004,885.24,359.26" style="stroke:#181818;stroke-width:1;"/><text fill="#000000" font-family="sans-serif" font-size="13" lengthAdjust="spacing" textLength="8.271" x="816.4088" y="319.3121">1</text><text fill="#000000" font-family="sans-serif" font-size="13" lengthAdjust="spacing" textLength="8.271" x="868.6295" y="348.4304">1</text></g><!--SRC=[jLHDQy904BtdLuIUB3Q7NaiH6a7m81GLeSVLJEFGpMxOdTWFyRztiydg9YOgXUQIPDwRhpUpk-5Cwp2MycCEAMe2DPQ2bEGSr3uOea12nl471lVXKxYJc0JHsh2NRCt1MEnxXV3vNCOO1H4XSHZpp65ZoOjCMFGXN912aHeMAsWhbRxAouirHxtDGD0RCDN7dmg25DIegcsQNC-_OyWhE4VGjyLr2Xcg-tHTQqmWPfvsXhDes-hgX0P5hp8lyWOzxiCgjvbCyFsxswqJ2oAPW_0YUXCi4S_9GnHaSWSJ9JFNuWaSQY1_KmOemekw73qFWNasTjNELDcRQIH9JA9ifY2ImiXfPhtP6jfoKiu5lcY2m8_bDScPRQHX2uOfq8kDQiklpQLrSGfjeLFm4fsx-6stcKlY0mVNLE_iBXqXfvMfiw6T_NUBvHDN9ah2IFhaewrsE1kIZTQUr8MKlTC-Pce7kw4iVn5EYdMkROzYhfgbhBnS4Uw_FWdT2biADZfsfh_g77KaFnVVPMbBThMWVv-2URel_V3kyIwCL3Io7-Tts2MlfFRglyfkzUvSZLy0]--></g></svg>