<svg xmlns="http://www.w3.org/2000/svg" xmlns:xlink="http://www.w3.org/1999/xlink" contentStyleType="text/css" data-diagram-type="CLASS" height="906px" preserveAspectRatio="none" style="width:1312px;height:906px;background:#FFFFFF;" version="1.1" viewBox="0 0 1312 906" width="1312px" zoomAndPan="magnify"><defs/><g><!--class BookRegisterController--><g class="entity" data-entity="BookRegisterController" data-source-line="3" data-uid="ent0002" id="entity_BookRegisterController"><rect fill="#F1F1F1" height="292.4531" rx="2.5" ry="2.5" style="stroke:#181818;stroke-width:0.5;" width="434.4746" x="439" y="7"/><ellipse cx="570.8447" cy="23" fill="#ADD1B2" rx="11" ry="11" style="stroke:#181818;stroke-width:1;"/><path d="M573.8135,28.6406 Q573.2354,28.9375 572.5947,29.0781 Q571.9541,29.2344 571.251,29.2344 Q568.751,29.2344 567.4229,27.5938 Q566.1104,25.9375 566.1104,22.8125 Q566.1104,19.6875 567.4229,18.0313 Q568.751,16.375 571.251,16.375 Q571.9541,16.375 572.5947,16.5313 Q573.251,16.6875 573.8135,16.9844 L573.8135,19.7031 Q573.1885,19.125 572.5947,18.8594 Q572.001,18.5781 571.376,18.5781 Q570.0322,18.5781 569.3447,19.6563 Q568.6572,20.7188 568.6572,22.8125 Q568.6572,24.9063 569.3447,25.9844 Q570.0322,27.0469 571.376,27.0469 Q572.001,27.0469 572.5947,26.7813 Q573.1885,26.5 573.8135,25.9219 L573.8135,28.6406 Z " fill="#000000"/><text fill="#000000" font-family="sans-serif" font-size="14" lengthAdjust="spacing" textLength="162.2852" x="591.3447" y="27.8467">BookRegisterController</text><line style="stroke:#181818;stroke-width:0.5;" x1="440" x2="872.4746" y1="39" y2="39"/><rect fill="none" height="6" style="stroke:#C82930;stroke-width:1;" width="6" x="447" y="49.6484"/><text fill="#000000" font-family="sans-serif" font-size="14" lengthAdjust="spacing" textLength="216.6172" x="459" y="55.9951">bookTable : TableView&lt;Book&gt;</text><rect fill="none" height="6" style="stroke:#C82930;stroke-width:1;" width="6" x="447" y="65.9453"/><text fill="#000000" font-family="sans-serif" font-size="14" lengthAdjust="spacing" textLength="269.4111" x="459" y="72.292">titleClm : TableColumn&lt;Book, String&gt;</text><rect fill="none" height="6" style="stroke:#C82930;stroke-width:1;" width="6" x="447" y="82.2422"/><text fill="#000000" font-family="sans-serif" font-size="14" lengthAdjust="spacing" textLength="295.4697" x="459" y="88.5889">authorsClm : TableColumn&lt;Book, String&gt;</text><rect fill="none" height="6" style="stroke:#C82930;stroke-width:1;" width="6" x="447" y="98.5391"/><text fill="#000000" font-family="sans-serif" font-size="14" lengthAdjust="spacing" textLength="369.3252" x="459" y="104.8857">publishmentYearClm : TableColumn&lt;Book, Integer&gt;</text><rect fill="none" height="6" style="stroke:#C82930;stroke-width:1;" width="6" x="447" y="114.8359"/><text fill="#000000" font-family="sans-serif" font-size="14" lengthAdjust="spacing" textLength="289.1807" x="459" y="121.1826">bookIdClm : TableColumn&lt;Book, String&gt;</text><rect fill="none" height="6" style="stroke:#C82930;stroke-width:1;" width="6" x="447" y="131.1328"/><text fill="#000000" font-family="sans-serif" font-size="14" lengthAdjust="spacing" textLength="360.835" x="459" y="137.4795">availableCopiesClm : TableColumn&lt;Book, Integer&gt;</text><rect fill="none" height="6" style="stroke:#C82930;stroke-width:1;" width="6" x="447" y="147.4297"/><text fill="#000000" font-family="sans-serif" font-size="14" lengthAdjust="spacing" textLength="222.585" x="459" y="153.7764">bookRegister : Register&lt;Book&gt;</text><rect fill="none" height="6" style="stroke:#C82930;stroke-width:1;" width="6" x="447" y="163.7266"/><text fill="#000000" font-family="sans-serif" font-size="14" lengthAdjust="spacing" textLength="258.8018" x="459" y="170.0732">sideBarController : SideBarController</text><rect fill="none" height="6" style="stroke:#C82930;stroke-width:1;" width="6" x="447" y="180.0234"/><text fill="#000000" font-family="sans-serif" font-size="14" lengthAdjust="spacing" textLength="388.5479" x="459" y="186.3701">bookInsertPopupController : BookInsertPopupController</text><rect fill="none" height="6" style="stroke:#C82930;stroke-width:1;" width="6" x="447" y="196.3203"/><text fill="#000000" font-family="sans-serif" font-size="14" lengthAdjust="spacing" textLength="401.5088" x="459" y="202.667">bookModifyPopupController : BookModifyPopupController</text><line style="stroke:#181818;stroke-width:0.5;" x1="440" x2="872.4746" y1="209.9688" y2="209.9688"/><ellipse cx="450" cy="223.6172" fill="#84BE84" rx="3" ry="3" style="stroke:#038048;stroke-width:1;"/><text fill="#000000" font-family="sans-serif" font-size="14" lengthAdjust="spacing" textLength="112.5195" x="459" y="226.9639">initialize() : void</text><rect fill="#F24D5C" height="6" style="stroke:#C82930;stroke-width:1;" width="6" x="447" y="236.9141"/><text fill="#000000" font-family="sans-serif" font-size="14" lengthAdjust="spacing" textLength="172.915" x="459" y="243.2607">openInsertPopup() : void</text><rect fill="#F24D5C" height="6" style="stroke:#C82930;stroke-width:1;" width="6" x="447" y="253.2109"/><text fill="#000000" font-family="sans-serif" font-size="14" lengthAdjust="spacing" textLength="179.3955" x="459" y="259.5576">openModifyPopup() : void</text><rect fill="#F24D5C" height="6" style="stroke:#C82930;stroke-width:1;" width="6" x="447" y="269.5078"/><text fill="#000000" font-family="sans-serif" font-size="14" lengthAdjust="spacing" textLength="201.9199" x="459" y="275.8545">removeFromRegister() : void</text><ellipse cx="450" cy="288.8047" fill="#84BE84" rx="3" ry="3" style="stroke:#038048;stroke-width:1;"/><text fill="#000000" font-family="sans-serif" font-size="14" lengthAdjust="spacing" textLength="408.4746" x="459" y="292.1514">setBookRegister(in bookRegister : Register&lt;Book&gt;) : void</text></g><!--class SideBarController--><g class="entity" data-entity="SideBarController" data-source-line="21" data-uid="ent0003" id="entity_SideBarController"><rect fill="#F1F1F1" height="178.375" rx="2.5" ry="2.5" style="stroke:#181818;stroke-width:0.5;" width="226.751" x="923.5" y="64"/><ellipse cx="970.9312" cy="80" fill="#ADD1B2" rx="11" ry="11" style="stroke:#181818;stroke-width:1;"/><path d="M973.8999,85.6406 Q973.3218,85.9375 972.6812,86.0781 Q972.0405,86.2344 971.3374,86.2344 Q968.8374,86.2344 967.5093,84.5938 Q966.1968,82.9375 966.1968,79.8125 Q966.1968,76.6875 967.5093,75.0313 Q968.8374,73.375 971.3374,73.375 Q972.0405,73.375 972.6812,73.5313 Q973.3374,73.6875 973.8999,73.9844 L973.8999,76.7031 Q973.2749,76.125 972.6812,75.8594 Q972.0874,75.5781 971.4624,75.5781 Q970.1187,75.5781 969.4312,76.6563 Q968.7437,77.7188 968.7437,79.8125 Q968.7437,81.9063 969.4312,82.9844 Q970.1187,84.0469 971.4624,84.0469 Q972.0874,84.0469 972.6812,83.7813 Q973.2749,83.5 973.8999,82.9219 L973.8999,85.6406 Z " fill="#000000"/><text fill="#000000" font-family="sans-serif" font-size="14" lengthAdjust="spacing" textLength="123.3887" x="991.4312" y="84.8467">SideBarController</text><line style="stroke:#181818;stroke-width:0.5;" x1="924.5" x2="1149.251" y1="96" y2="96"/><rect fill="none" height="6" style="stroke:#C82930;stroke-width:1;" width="6" x="931.5" y="106.6484"/><text fill="#000000" font-family="sans-serif" font-size="14" lengthAdjust="spacing" textLength="110.8311" x="943.5" y="112.9951">addBtn : Button</text><rect fill="none" height="6" style="stroke:#C82930;stroke-width:1;" width="6" x="931.5" y="122.9453"/><text fill="#000000" font-family="sans-serif" font-size="14" lengthAdjust="spacing" textLength="165.2451" x="943.5" y="129.292">searchBarTF : TextField</text><rect fill="none" height="6" style="stroke:#C82930;stroke-width:1;" width="6" x="931.5" y="139.2422"/><text fill="#000000" font-family="sans-serif" font-size="14" lengthAdjust="spacing" textLength="137.9492" x="943.5" y="145.5889">removeBtn : Button</text><rect fill="none" height="6" style="stroke:#C82930;stroke-width:1;" width="6" x="931.5" y="155.5391"/><text fill="#000000" font-family="sans-serif" font-size="14" lengthAdjust="spacing" textLength="132.6719" x="943.5" y="161.8857">modifyBtn : Button</text><line style="stroke:#181818;stroke-width:0.5;" x1="924.5" x2="1149.251" y1="169.1875" y2="169.1875"/><ellipse cx="934.5" cy="182.8359" fill="#84BE84" rx="3" ry="3" style="stroke:#038048;stroke-width:1;"/><text fill="#000000" font-family="sans-serif" font-size="14" lengthAdjust="spacing" textLength="145.7422" x="943.5" y="186.1826">getAddBtn() : Button</text><ellipse cx="934.5" cy="199.1328" fill="#84BE84" rx="3" ry="3" style="stroke:#038048;stroke-width:1;"/><text fill="#000000" font-family="sans-serif" font-size="14" lengthAdjust="spacing" textLength="200.751" x="943.5" y="202.4795">getSearchBarTF() : TextField</text><ellipse cx="934.5" cy="215.4297" fill="#84BE84" rx="3" ry="3" style="stroke:#038048;stroke-width:1;"/><text fill="#000000" font-family="sans-serif" font-size="14" lengthAdjust="spacing" textLength="175.834" x="943.5" y="218.7764">getRemoveBtn() : Button</text><ellipse cx="934.5" cy="231.7266" fill="#84BE84" rx="3" ry="3" style="stroke:#038048;stroke-width:1;"/><text fill="#000000" font-family="sans-serif" font-size="14" lengthAdjust="spacing" textLength="165.0264" x="943.5" y="235.0732">getModifyBtn() : Button</text></g><!--class BookInsertPopupController--><g class="entity" data-entity="BookInsertPopupController" data-source-line="33" data-uid="ent0004" id="entity_BookInsertPopupController"><rect fill="#F1F1F1" height="129.4844" rx="2.5" ry="2.5" style="stroke:#181818;stroke-width:0.5;" width="624.1104" x="7" y="375.5"/><ellipse cx="220.8931" cy="391.5" fill="#ADD1B2" rx="11" ry="11" style="stroke:#181818;stroke-width:1;"/><path d="M223.8618,397.1406 Q223.2837,397.4375 222.6431,397.5781 Q222.0024,397.7344 221.2993,397.7344 Q218.7993,397.7344 217.4712,396.0938 Q216.1587,394.4375 216.1587,391.3125 Q216.1587,388.1875 217.4712,386.5313 Q218.7993,384.875 221.2993,384.875 Q222.0024,384.875 222.6431,385.0313 Q223.2993,385.1875 223.8618,385.4844 L223.8618,388.2031 Q223.2368,387.625 222.6431,387.3594 Q222.0493,387.0781 221.4243,387.0781 Q220.0806,387.0781 219.3931,388.1563 Q218.7056,389.2188 218.7056,391.3125 Q218.7056,393.4063 219.3931,394.4844 Q220.0806,395.5469 221.4243,395.5469 Q222.0493,395.5469 222.6431,395.2813 Q223.2368,395 223.8618,394.4219 L223.8618,397.1406 Z " fill="#000000"/><text fill="#000000" font-family="sans-serif" font-size="14" lengthAdjust="spacing" textLength="187.8242" x="241.3931" y="396.3467">BookInsertPopupController</text><line style="stroke:#181818;stroke-width:0.5;" x1="8" x2="630.1104" y1="407.5" y2="407.5"/><rect fill="none" height="6" style="stroke:#C82930;stroke-width:1;" width="6" x="15" y="418.1484"/><text fill="#000000" font-family="sans-serif" font-size="14" lengthAdjust="spacing" textLength="306.0244" x="27" y="424.4951">bookRegisterAdder : RegisterAdder&lt;Book&gt;</text><rect fill="none" height="6" style="stroke:#C82930;stroke-width:1;" width="6" x="15" y="434.4453"/><text fill="#000000" font-family="sans-serif" font-size="14" lengthAdjust="spacing" textLength="349.0088" x="27" y="440.792">bookRegisterValidator : RegisterValidator&lt;Book&gt;</text><line style="stroke:#181818;stroke-width:0.5;" x1="8" x2="630.1104" y1="448.0938" y2="448.0938"/><ellipse cx="18" cy="461.7422" fill="#84BE84" rx="3" ry="3" style="stroke:#038048;stroke-width:1;"/><text fill="#000000" font-family="sans-serif" font-size="14" lengthAdjust="spacing" textLength="112.5195" x="27" y="465.0889">initialize() : void</text><ellipse cx="18" cy="478.0391" fill="#84BE84" rx="3" ry="3" style="stroke:#038048;stroke-width:1;"/><text fill="#000000" font-family="sans-serif" font-size="14" lengthAdjust="spacing" textLength="533.6338" x="27" y="481.3857">setBookRegisterAdder(in bookRegisterAdder : RegisterAdder&lt;Book&gt;) : void</text><ellipse cx="18" cy="494.3359" fill="#84BE84" rx="3" ry="3" style="stroke:#038048;stroke-width:1;"/><text fill="#000000" font-family="sans-serif" font-size="14" lengthAdjust="spacing" textLength="598.1104" x="27" y="497.6826">setBookRegisterValidator(in bookRegisterValidator : RegisterValidator&lt;Book&gt;) : void</text></g><!--class BookModifyPopupController--><g class="entity" data-entity="BookModifyPopupController" data-source-line="42" data-uid="ent0005" id="entity_BookModifyPopupController"><rect fill="#F1F1F1" height="162.0781" rx="2.5" ry="2.5" style="stroke:#181818;stroke-width:0.5;" width="624.1104" x="681" y="359"/><ellipse cx="891.6528" cy="375" fill="#ADD1B2" rx="11" ry="11" style="stroke:#181818;stroke-width:1;"/><path d="M894.6216,380.6406 Q894.0435,380.9375 893.4028,381.0781 Q892.7622,381.2344 892.0591,381.2344 Q889.5591,381.2344 888.231,379.5938 Q886.9185,377.9375 886.9185,374.8125 Q886.9185,371.6875 888.231,370.0313 Q889.5591,368.375 892.0591,368.375 Q892.7622,368.375 893.4028,368.5313 Q894.0591,368.6875 894.6216,368.9844 L894.6216,371.7031 Q893.9966,371.125 893.4028,370.8594 Q892.8091,370.5781 892.1841,370.5781 Q890.8403,370.5781 890.1528,371.6563 Q889.4653,372.7188 889.4653,374.8125 Q889.4653,376.9063 890.1528,377.9844 Q890.8403,379.0469 892.1841,379.0469 Q892.8091,379.0469 893.4028,378.7813 Q893.9966,378.5 894.6216,377.9219 L894.6216,380.6406 Z " fill="#000000"/><text fill="#000000" font-family="sans-serif" font-size="14" lengthAdjust="spacing" textLength="194.3047" x="912.1528" y="379.8467">BookModifyPopupController</text><line style="stroke:#181818;stroke-width:0.5;" x1="682" x2="1304.1104" y1="391" y2="391"/><rect fill="none" height="6" style="stroke:#C82930;stroke-width:1;" width="6" x="689" y="401.6484"/><text fill="#000000" font-family="sans-serif" font-size="14" lengthAdjust="spacing" textLength="335.8018" x="701" y="407.9951">bookRegisterModifier : RegisterModifier&lt;Book&gt;</text><rect fill="none" height="6" style="stroke:#C82930;stroke-width:1;" width="6" x="689" y="417.9453"/><text fill="#000000" font-family="sans-serif" font-size="14" lengthAdjust="spacing" textLength="349.0088" x="701" y="424.292">bookRegisterValidator : RegisterValidator&lt;Book&gt;</text><rect fill="none" height="6" style="stroke:#C82930;stroke-width:1;" width="6" x="689" y="434.2422"/><text fill="#000000" font-family="sans-serif" font-size="14" lengthAdjust="spacing" textLength="146.3369" x="701" y="440.5889">bookToModify : Book</text><line style="stroke:#181818;stroke-width:0.5;" x1="682" x2="1304.1104" y1="447.8906" y2="447.8906"/><ellipse cx="692" cy="461.5391" fill="#84BE84" rx="3" ry="3" style="stroke:#038048;stroke-width:1;"/><text fill="#000000" font-family="sans-serif" font-size="14" lengthAdjust="spacing" textLength="112.5195" x="701" y="464.8857">initialize() : void</text><ellipse cx="692" cy="477.8359" fill="#84BE84" rx="3" ry="3" style="stroke:#038048;stroke-width:1;"/><text fill="#000000" font-family="sans-serif" font-size="14" lengthAdjust="spacing" textLength="337.709" x="701" y="481.1826">setBookToModify(in bookToModify : Book) : void</text><ellipse cx="692" cy="494.1328" fill="#84BE84" rx="3" ry="3" style="stroke:#038048;stroke-width:1;"/><text fill="#000000" font-family="sans-serif" font-size="14" lengthAdjust="spacing" textLength="578.2998" x="701" y="497.4795">setBookRegisterModifier(in bookRegisterModifier : RegisterModifier&lt;Book&gt;) : void</text><ellipse cx="692" cy="510.4297" fill="#84BE84" rx="3" ry="3" style="stroke:#038048;stroke-width:1;"/><text fill="#000000" font-family="sans-serif" font-size="14" lengthAdjust="spacing" textLength="598.1104" x="701" y="513.7764">setBookRegisterValidator(in bookRegisterValidator : RegisterValidator&lt;Book&gt;) : void</text></g><!--class RegisterAdder--><g class="entity" data-entity="RegisterAdder" data-source-line="56" data-uid="ent0006" id="entity_RegisterAdder"><rect fill="#F1F1F1" height="64.2969" rx="2.5" ry="2.5" style="stroke:#181818;stroke-width:0.5;" width="204.1035" x="164" y="581"/><ellipse cx="206.3529" cy="597" fill="#B4A7E5" rx="11" ry="11" style="stroke:#181818;stroke-width:1;"/><path d="M202.2748,592.7656 L202.2748,590.6094 L209.6654,590.6094 L209.6654,592.7656 L207.1966,592.7656 L207.1966,600.8438 L209.6654,600.8438 L209.6654,603 L202.2748,603 L202.2748,600.8438 L204.7435,600.8438 L204.7435,592.7656 L202.2748,592.7656 Z " fill="#000000"/><text fill="#000000" font-family="sans-serif" font-size="14" font-style="italic" lengthAdjust="spacing" textLength="99.9893" x="226.4313" y="601.8467">RegisterAdder</text><rect fill="#FFFFFF" height="15.9688" style="stroke:#181818;stroke-width:1;stroke-dasharray:2,2;" width="9.3301" x="361.7734" y="578"/><text fill="#000000" font-family="sans-serif" font-size="12" font-style="italic" lengthAdjust="spacing" textLength="7.3301" x="362.7734" y="590.1387">T</text><line style="stroke:#181818;stroke-width:0.5;" x1="165" x2="367.1035" y1="613" y2="613"/><line style="stroke:#181818;stroke-width:0.5;" x1="165" x2="367.1035" y1="621" y2="621"/><text fill="#000000" font-family="sans-serif" font-size="14" lengthAdjust="spacing" textLength="192.1035" x="170" y="637.9951">add(in toAdd  : T) : boolean</text></g><!--class RegisterModifier--><g class="entity" data-entity="RegisterModifier" data-source-line="60" data-uid="ent0007" id="entity_RegisterModifier"><rect fill="#F1F1F1" height="64.2969" rx="2.5" ry="2.5" style="stroke:#181818;stroke-width:0.5;" width="278.6494" x="906.5" y="581"/><ellipse cx="978.4707" cy="597" fill="#B4A7E5" rx="11" ry="11" style="stroke:#181818;stroke-width:1;"/><path d="M974.3926,592.7656 L974.3926,590.6094 L981.7832,590.6094 L981.7832,592.7656 L979.3145,592.7656 L979.3145,600.8438 L981.7832,600.8438 L981.7832,603 L974.3926,603 L974.3926,600.8438 L976.8613,600.8438 L976.8613,592.7656 L974.3926,592.7656 Z " fill="#000000"/><text fill="#000000" font-family="sans-serif" font-size="14" font-style="italic" lengthAdjust="spacing" textLength="114.8779" x="998.9707" y="601.8467">RegisterModifier</text><rect fill="#FFFFFF" height="15.9688" style="stroke:#181818;stroke-width:1;stroke-dasharray:2,2;" width="9.3301" x="1178.8193" y="578"/><text fill="#000000" font-family="sans-serif" font-size="12" font-style="italic" lengthAdjust="spacing" textLength="7.3301" x="1179.8193" y="590.1387">T</text><line style="stroke:#181818;stroke-width:0.5;" x1="907.5" x2="1184.1494" y1="613" y2="613"/><line style="stroke:#181818;stroke-width:0.5;" x1="907.5" x2="1184.1494" y1="621" y2="621"/><text fill="#000000" font-family="sans-serif" font-size="14" lengthAdjust="spacing" textLength="266.6494" x="912.5" y="637.9951">modify(in old : T, in new : T) : boolean</text></g><!--class RegisterValidator--><g class="entity" data-entity="RegisterValidator" data-source-line="65" data-uid="ent0008" id="entity_RegisterValidator"><rect fill="#F1F1F1" height="64.2969" rx="2.5" ry="2.5" style="stroke:#181818;stroke-width:0.5;" width="233.0059" x="520.5" y="581"/><ellipse cx="566.3472" cy="597" fill="#B4A7E5" rx="11" ry="11" style="stroke:#181818;stroke-width:1;"/><path d="M562.269,592.7656 L562.269,590.6094 L569.6597,590.6094 L569.6597,592.7656 L567.1909,592.7656 L567.1909,600.8438 L569.6597,600.8438 L569.6597,603 L562.269,603 L562.269,600.8438 L564.7378,600.8438 L564.7378,592.7656 L562.269,592.7656 Z " fill="#000000"/><text fill="#000000" font-family="sans-serif" font-size="14" font-style="italic" lengthAdjust="spacing" textLength="121.4814" x="586.8472" y="601.8467">RegisterValidator</text><rect fill="#FFFFFF" height="15.9688" style="stroke:#181818;stroke-width:1;stroke-dasharray:2,2;" width="9.3301" x="747.1758" y="578"/><text fill="#000000" font-family="sans-serif" font-size="12" font-style="italic" lengthAdjust="spacing" textLength="7.3301" x="748.1758" y="590.1387">T</text><line style="stroke:#181818;stroke-width:0.5;" x1="521.5" x2="752.5059" y1="613" y2="613"/><line style="stroke:#181818;stroke-width:0.5;" x1="521.5" x2="752.5059" y1="621" y2="621"/><text fill="#000000" font-family="sans-serif" font-size="14" lengthAdjust="spacing" textLength="221.0059" x="526.5" y="637.9951">isValid(in toVerify : T) : boolean</text></g><!--class BookPopupController--><g class="entity" data-entity="BookPopupController" data-source-line="71" data-uid="ent0009" id="entity_BookPopupController"><rect fill="#F1F1F1" height="194.6719" rx="2.5" ry="2.5" style="stroke:#181818;stroke-width:0.5;" width="356.4766" x="459" y="705"/><ellipse cx="559.1533" cy="721" fill="#A9DCDF" rx="11" ry="11" style="stroke:#181818;stroke-width:1;"/><path d="M559.2627,716.3438 L558.1064,721.4219 L560.4346,721.4219 L559.2627,716.3438 Z M557.7783,714.1094 L560.7627,714.1094 L564.1221,726.5 L561.6689,726.5 L560.9033,723.4375 L557.6221,723.4375 L556.8721,726.5 L554.4346,726.5 L557.7783,714.1094 Z " fill="#000000"/><text fill="#000000" font-family="sans-serif" font-size="14" font-style="italic" lengthAdjust="spacing" textLength="147.6699" x="579.6533" y="725.8467">BookPopupController</text><line style="stroke:#181818;stroke-width:0.5;" x1="460" x2="814.4766" y1="737" y2="737"/><polygon fill="none" points="470,745.6484,474,749.6484,470,753.6484,466,749.6484" style="stroke:#B38D22;stroke-width:1;"/><text fill="#000000" font-family="sans-serif" font-size="14" lengthAdjust="spacing" textLength="121.8643" x="479" y="753.9951">titleTF : TextField</text><polygon fill="none" points="470,761.9453,474,765.9453,470,769.9453,466,765.9453" style="stroke:#B38D22;stroke-width:1;"/><text fill="#000000" font-family="sans-serif" font-size="14" lengthAdjust="spacing" textLength="147.9229" x="479" y="770.292">authorsTF : TextField</text><polygon fill="none" points="470,778.2422,474,782.2422,470,786.2422,466,782.2422" style="stroke:#B38D22;stroke-width:1;"/><text fill="#000000" font-family="sans-serif" font-size="14" lengthAdjust="spacing" textLength="213.1992" x="479" y="786.5889">publishmentYearTF : TextField</text><polygon fill="none" points="470,794.5391,474,798.5391,470,802.5391,466,798.5391" style="stroke:#B38D22;stroke-width:1;"/><text fill="#000000" font-family="sans-serif" font-size="14" lengthAdjust="spacing" textLength="204.709" x="479" y="802.8857">availableCopiesTF : TextField</text><polygon fill="none" points="470,810.8359,474,814.8359,470,818.8359,466,814.8359" style="stroke:#B38D22;stroke-width:1;"/><text fill="#000000" font-family="sans-serif" font-size="14" lengthAdjust="spacing" textLength="141.6338" x="479" y="819.1826">bookIdTF : TextField</text><polygon fill="none" points="470,827.1328,474,831.1328,470,835.1328,466,831.1328" style="stroke:#B38D22;stroke-width:1;"/><text fill="#000000" font-family="sans-serif" font-size="14" lengthAdjust="spacing" textLength="137.8262" x="479" y="835.4795">confirmBtn : Button</text><polygon fill="none" points="470,843.4297,474,847.4297,470,851.4297,466,847.4297" style="stroke:#B38D22;stroke-width:1;"/><text fill="#000000" font-family="sans-serif" font-size="14" lengthAdjust="spacing" textLength="129.8281" x="479" y="851.7764">cancelBtn : Button</text><line style="stroke:#181818;stroke-width:0.5;" x1="460" x2="814.4766" y1="859.0781" y2="859.0781"/><polygon fill="#FFFF44" points="470,867.7266,474,871.7266,470,875.7266,466,871.7266" style="stroke:#B38D22;stroke-width:1;"/><text fill="#000000" font-family="sans-serif" font-size="14" lengthAdjust="spacing" textLength="330.4766" x="479" y="876.0732">confirmBtnAction(in event : ActionEvent) : void</text><polygon fill="#FFFF44" points="470,884.0234,474,888.0234,470,892.0234,466,888.0234" style="stroke:#B38D22;stroke-width:1;"/><text fill="#000000" font-family="sans-serif" font-size="14" lengthAdjust="spacing" textLength="322.4785" x="479" y="892.3701">cancelBtnAction(in event : ActionEvent) : void</text></g><!--link BookInsertPopupController to BookPopupController--><g class="link" data-entity-1="BookInsertPopupController" data-entity-2="BookPopupController" data-source-line="86" data-uid="lnk10" id="link_BookInsertPopupController_BookPopupController"><path codeLine="86" d="M373.3,504.76 C407.88,545.17 453.78,598.41 495,645 C512.26,664.51 518.7962,671.88 536.6762,691.65" fill="none" id="BookInsertPopupController-to-BookPopupController" style="stroke:#181818;stroke-width:1;"/><polygon fill="none" points="548.75,705,541.1262,687.6254,532.2262,695.6746,548.75,705" style="stroke:#181818;stroke-width:1;"/></g><!--link BookModifyPopupController to BookPopupController--><g class="link" data-entity-1="BookModifyPopupController" data-entity-2="BookPopupController" data-source-line="87" data-uid="lnk11" id="link_BookModifyPopupController_BookPopupController"><path codeLine="87" d="M913.99,521.01 C860.43,575.25 801.9663,634.441 745.2163,691.921" fill="none" id="BookModifyPopupController-to-BookPopupController" style="stroke:#181818;stroke-width:1;"/><polygon fill="none" points="732.57,704.73,749.486,696.1364,740.9467,687.7056,732.57,704.73" style="stroke:#181818;stroke-width:1;"/></g><!--link BookInsertPopupController to RegisterValidator--><g class="link" data-entity-1="BookInsertPopupController" data-entity-2="RegisterValidator" data-source-line="89" data-uid="lnk12" id="link_BookInsertPopupController_RegisterValidator"><path codeLine="89" d="M437.41,504.67 C485.8,530.69 534.2652,556.7591 573.7952,578.0091" fill="none" id="BookInsertPopupController-to-RegisterValidator" style="stroke:#181818;stroke-width:1;"/><polygon fill="#181818" points="579.08,580.85,573.0468,573.0654,574.676,578.4826,569.2588,580.1118,579.08,580.85" style="stroke:#181818;stroke-width:1;"/></g><!--link BookInsertPopupController to RegisterAdder--><g class="link" data-entity-1="BookInsertPopupController" data-entity-2="RegisterAdder" data-source-line="90" data-uid="lnk13" id="link_BookInsertPopupController_RegisterAdder"><path codeLine="90" d="M299.26,504.67 C291.2,530.69 284.0172,553.8692 277.4272,575.1192" fill="none" id="BookInsertPopupController-to-RegisterAdder" style="stroke:#181818;stroke-width:1;"/><polygon fill="#181818" points="275.65,580.85,282.1363,573.4387,277.131,576.0744,274.4953,571.0691,275.65,580.85" style="stroke:#181818;stroke-width:1;"/></g><!--link BookModifyPopupController to RegisterValidator--><g class="link" data-entity-1="BookModifyPopupController" data-entity-2="RegisterValidator" data-source-line="92" data-uid="lnk14" id="link_BookModifyPopupController_RegisterValidator"><path codeLine="92" d="M826.21,521.12 C781.91,542.4 742.0884,561.5221 706.9684,578.3921" fill="none" id="BookModifyPopupController-to-RegisterValidator" style="stroke:#181818;stroke-width:1;"/><polygon fill="#181818" points="701.56,580.99,711.4045,580.6987,706.067,578.8251,707.9406,573.4875,701.56,580.99" style="stroke:#181818;stroke-width:1;"/></g><!--link BookModifyPopupController to RegisterModifier--><g class="link" data-entity-1="BookModifyPopupController" data-entity-2="RegisterModifier" data-source-line="93" data-uid="lnk15" id="link_BookModifyPopupController_RegisterModifier"><path codeLine="93" d="M1017.87,521.24 C1024.43,542.42 1029.3547,558.2887 1034.5647,575.1087" fill="none" id="BookModifyPopupController-to-RegisterModifier" style="stroke:#181818;stroke-width:1;"/><polygon fill="#181818" points="1036.34,580.84,1037.498,571.0595,1034.8606,576.0639,1029.8562,573.4265,1036.34,580.84" style="stroke:#181818;stroke-width:1;"/></g><!--link BookRegisterController to SideBarController--><g class="link" data-entity-1="BookRegisterController" data-entity-2="SideBarController" data-source-line="97" data-uid="lnk16" id="link_BookRegisterController_SideBarController"><path codeLine="97" d="M873.29,153 C890.02,153 900.76,153 917.49,153" fill="none" id="BookRegisterController-to-SideBarController" style="stroke:#181818;stroke-width:1;"/><polygon fill="#181818" points="923.49,153,914.49,149,918.49,153,914.49,157,923.49,153" style="stroke:#181818;stroke-width:1;"/><text fill="#000000" font-family="sans-serif" font-size="13" lengthAdjust="spacing" textLength="8.271" x="881.239" y="149.7916">1</text><text fill="#000000" font-family="sans-serif" font-size="13" lengthAdjust="spacing" textLength="8.271" x="907.2459" y="149.531">1</text></g><!--link BookRegisterController to BookInsertPopupController--><g class="link" data-entity-1="BookRegisterController" data-entity-2="BookInsertPopupController" data-source-line="98" data-uid="lnk17" id="link_BookRegisterController_BookInsertPopupController"><path codeLine="98" d="M484.54,299 C452.83,325.82 425.8417,348.646 398.9117,371.416" fill="none" id="BookRegisterController-to-BookInsertPopupController" style="stroke:#181818;stroke-width:1;"/><polygon fill="#181818" points="394.33,375.29,403.7853,372.5335,398.1481,372.0617,398.62,366.4245,394.33,375.29" style="stroke:#181818;stroke-width:1;"/><text fill="#000000" font-family="sans-serif" font-size="13" lengthAdjust="spacing" textLength="8.271" x="466.939" y="319.4527">1</text><text fill="#000000" font-family="sans-serif" font-size="13" lengthAdjust="spacing" textLength="8.271" x="394.1405" y="364.4397">1</text></g><!--link BookRegisterController to BookModifyPopupController--><g class="link" data-entity-1="BookRegisterController" data-entity-2="BookModifyPopupController" data-source-line="99" data-uid="lnk18" id="link_BookRegisterController_BookModifyPopupController"><path codeLine="99" d="M827.46,299 C851.85,319.63 871.5789,336.3153 893.7589,355.0753" fill="none" id="BookRegisterController-to-BookModifyPopupController" style="stroke:#181818;stroke-width:1;"/><polygon fill="#181818" points="898.34,358.95,894.0515,350.0838,894.5224,355.7211,888.8852,356.192,898.34,358.95" style="stroke:#181818;stroke-width:1;"/><text fill="#000000" font-family="sans-serif" font-size="13" lengthAdjust="spacing" textLength="8.271" x="828.6124" y="319.4527">1</text><text fill="#000000" font-family="sans-serif" font-size="13" lengthAdjust="spacing" textLength="8.271" x="881.2522" y="347.8562">1</text></g><!--link RegisterAdder to RegisterValidator--><!--SRC=[jLPDRzim3BthLmZjOHrQ0zjXbs4mu0JEO21DYoGBi0mxA3QR29KbGrRIRLt_-oJRSloTO41oYKNoaTGZAIbzfZmXaiIOYmXIIF2d3mY5ZAGf7WdnF8SjJHN8iU1A2iP0lg9RogcYXD4_SFCUVyO7GIFaRBJracmOQ4dslwBmyiNuS96Zg68mPh7LZGNRnppJtk65afHljHNPgvsGwKcxPBzXDDt5mDLt8BBFFk0AjY3TFBSWEXt_G2ZBrGc5z3o_bY5jQZ_jhbCQmOXKkDCsYwQio8wd8DMZIFP9pNpKfyjXzoAYJx-xOPqwv8W4UCLZfO96Km5LD19YSO295B7Tub5vcuAgTieDvNYGbnBvPXkjnSchhaKKZHGtMzah9RWcKrSwt6cpvSHK1Nwf2GLM9bStZhDjr6JeTWlAoxncoHTY8rqSNMUgetEZdLl_JTYz3L9Ll5MdfxDoGmDacT9vrfZBrhQjgeOhxIKYIbIDIra1Q9KeyzQiqq38tbgNaPhEpaYhtGQzJTl3cCrcANAKJSAkYpdePZWpeRKTMz7_yknq16-JRwCqAJkPqCMhWDvTvXVCWdNmW8FPqfzFlF7OHmXZgWzH-KH2Q3JSqdr5UlRDLfJG8cpcqMIfDyQ0P0FMnfPC6NXSTeDWaO7VwMYOmqk7gmvVHuQCCvfcwpoV5SYyj4qt5s8E8R99bIIXmiSHQGt7TNQxDex5w-8oROeRTsSBLRy2c-hy8crAGy6Vg8nhn-rrI7W8h7u4LoozK5713QrmqBbeerpYcrNPbKSlvzbd9UqzUR7ZE7_TBX9HxzapW1aA53bkkw46CtFhWu26KkhtthS7jpKgg62g_SB3Ln-li2Crndoq7on3gAX0zRzRpaLtFr_CfE5fCFCzFFCMuuV5qiEF_XpV1r-dmSFSc_juwk5LiFZcJOFrsjC7pyn7zJlE-R6Z-eF_b7IxKqu7aph8Fm00]--></g></svg>