<svg xmlns="http://www.w3.org/2000/svg" xmlns:xlink="http://www.w3.org/1999/xlink" contentStyleType="text/css" data-diagram-type="CLASS" height="718px" preserveAspectRatio="none" style="width:1464px;height:718px;background:#FFFFFF;" version="1.1" viewBox="0 0 1464 718" width="1464px" zoomAndPan="magnify"><defs/><g><!--class MainController--><g class="entity" data-entity="MainController" data-source-line="3" data-uid="ent0002" id="entity_MainController"><rect fill="#F1F1F1" height="145.7813" rx="2.5" ry="2.5" style="stroke:#181818;stroke-width:0.5;" width="403.1318" x="500.5" y="213"/><ellipse cx="646.519" cy="229" fill="#ADD1B2" rx="11" ry="11" style="stroke:#181818;stroke-width:1;"/><path d="M649.4878,234.6406 Q648.9097,234.9375 648.269,235.0781 Q647.6284,235.2344 646.9253,235.2344 Q644.4253,235.2344 643.0972,233.5938 Q641.7847,231.9375 641.7847,228.8125 Q641.7847,225.6875 643.0972,224.0313 Q644.4253,222.375 646.9253,222.375 Q647.6284,222.375 648.269,222.5313 Q648.9253,222.6875 649.4878,222.9844 L649.4878,225.7031 Q648.8628,225.125 648.269,224.8594 Q647.6753,224.5781 647.0503,224.5781 Q645.7065,224.5781 645.019,225.6563 Q644.3315,226.7188 644.3315,228.8125 Q644.3315,230.9063 645.019,231.9844 Q645.7065,233.0469 647.0503,233.0469 Q647.6753,233.0469 648.269,232.7813 Q648.8628,232.5 649.4878,231.9219 L649.4878,234.6406 Z " fill="#000000"/><text fill="#000000" font-family="sans-serif" font-size="14" lengthAdjust="spacing" textLength="102.5938" x="667.019" y="233.8467">MainController</text><line style="stroke:#181818;stroke-width:0.5;" x1="501.5" x2="902.6318" y1="245" y2="245"/><rect fill="none" height="6" style="stroke:#C82930;stroke-width:1;" width="6" x="508.5" y="255.6484"/><text fill="#000000" font-family="sans-serif" font-size="14" lengthAdjust="spacing" textLength="107.6113" x="520.5" y="261.9951">library : Library</text><rect fill="none" height="6" style="stroke:#C82930;stroke-width:1;" width="6" x="508.5" y="271.9453"/><text fill="#000000" font-family="sans-serif" font-size="14" lengthAdjust="spacing" textLength="377.1318" x="520.5" y="278.292">studentRegisterController : StudentRegisterController</text><rect fill="none" height="6" style="stroke:#C82930;stroke-width:1;" width="6" x="508.5" y="288.2422"/><text fill="#000000" font-family="sans-serif" font-size="14" lengthAdjust="spacing" textLength="337.4697" x="520.5" y="294.5889">bookRegisterController : BookRegisterController</text><rect fill="none" height="6" style="stroke:#C82930;stroke-width:1;" width="6" x="508.5" y="304.5391"/><text fill="#000000" font-family="sans-serif" font-size="14" lengthAdjust="spacing" textLength="332.2266" x="520.5" y="310.8857">loanRegisterController : LoanRegisterController</text><rect fill="none" height="6" style="stroke:#C82930;stroke-width:1;" width="6" x="508.5" y="320.8359"/><text fill="#000000" font-family="sans-serif" font-size="14" lengthAdjust="spacing" textLength="278.2773" x="520.5" y="327.1826">menuBarController : MenuBarController</text><line style="stroke:#181818;stroke-width:0.5;" x1="501.5" x2="902.6318" y1="334.4844" y2="334.4844"/><ellipse cx="511.5" cy="348.1328" fill="#84BE84" rx="3" ry="3" style="stroke:#038048;stroke-width:1;"/><text fill="#000000" font-family="sans-serif" font-size="14" lengthAdjust="spacing" textLength="112.5195" x="520.5" y="351.4795">initialize() : void</text></g><!--class BookRegisterController--><g class="entity" data-entity="BookRegisterController" data-source-line="12" data-uid="ent0003" id="entity_BookRegisterController"><rect fill="#F1F1F1" height="292.4531" rx="2.5" ry="2.5" style="stroke:#181818;stroke-width:0.5;" width="434.4746" x="7" y="419"/><ellipse cx="138.8447" cy="435" fill="#ADD1B2" rx="11" ry="11" style="stroke:#181818;stroke-width:1;"/><path d="M141.8135,440.6406 Q141.2354,440.9375 140.5947,441.0781 Q139.9541,441.2344 139.251,441.2344 Q136.751,441.2344 135.4229,439.5938 Q134.1104,437.9375 134.1104,434.8125 Q134.1104,431.6875 135.4229,430.0313 Q136.751,428.375 139.251,428.375 Q139.9541,428.375 140.5947,428.5313 Q141.251,428.6875 141.8135,428.9844 L141.8135,431.7031 Q141.1885,431.125 140.5947,430.8594 Q140.001,430.5781 139.376,430.5781 Q138.0322,430.5781 137.3447,431.6563 Q136.6572,432.7188 136.6572,434.8125 Q136.6572,436.9063 137.3447,437.9844 Q138.0322,439.0469 139.376,439.0469 Q140.001,439.0469 140.5947,438.7813 Q141.1885,438.5 141.8135,437.9219 L141.8135,440.6406 Z " fill="#000000"/><text fill="#000000" font-family="sans-serif" font-size="14" lengthAdjust="spacing" textLength="162.2852" x="159.3447" y="439.8467">BookRegisterController</text><line style="stroke:#181818;stroke-width:0.5;" x1="8" x2="440.4746" y1="451" y2="451"/><rect fill="none" height="6" style="stroke:#C82930;stroke-width:1;" width="6" x="15" y="461.6484"/><text fill="#000000" font-family="sans-serif" font-size="14" lengthAdjust="spacing" textLength="216.6172" x="27" y="467.9951">bookTable : TableView&lt;Book&gt;</text><rect fill="none" height="6" style="stroke:#C82930;stroke-width:1;" width="6" x="15" y="477.9453"/><text fill="#000000" font-family="sans-serif" font-size="14" lengthAdjust="spacing" textLength="269.4111" x="27" y="484.292">titleClm : TableColumn&lt;Book, String&gt;</text><rect fill="none" height="6" style="stroke:#C82930;stroke-width:1;" width="6" x="15" y="494.2422"/><text fill="#000000" font-family="sans-serif" font-size="14" lengthAdjust="spacing" textLength="295.4697" x="27" y="500.5889">authorsClm : TableColumn&lt;Book, String&gt;</text><rect fill="none" height="6" style="stroke:#C82930;stroke-width:1;" width="6" x="15" y="510.5391"/><text fill="#000000" font-family="sans-serif" font-size="14" lengthAdjust="spacing" textLength="369.3252" x="27" y="516.8857">publishmentYearClm : TableColumn&lt;Book, Integer&gt;</text><rect fill="none" height="6" style="stroke:#C82930;stroke-width:1;" width="6" x="15" y="526.8359"/><text fill="#000000" font-family="sans-serif" font-size="14" lengthAdjust="spacing" textLength="289.1807" x="27" y="533.1826">bookIdClm : TableColumn&lt;Book, String&gt;</text><rect fill="none" height="6" style="stroke:#C82930;stroke-width:1;" width="6" x="15" y="543.1328"/><text fill="#000000" font-family="sans-serif" font-size="14" lengthAdjust="spacing" textLength="360.835" x="27" y="549.4795">availableCopiesClm : TableColumn&lt;Book, Integer&gt;</text><rect fill="none" height="6" style="stroke:#C82930;stroke-width:1;" width="6" x="15" y="559.4297"/><text fill="#000000" font-family="sans-serif" font-size="14" lengthAdjust="spacing" textLength="222.585" x="27" y="565.7764">bookRegister : Register&lt;Book&gt;</text><rect fill="none" height="6" style="stroke:#C82930;stroke-width:1;" width="6" x="15" y="575.7266"/><text fill="#000000" font-family="sans-serif" font-size="14" lengthAdjust="spacing" textLength="258.8018" x="27" y="582.0732">sideBarController : SideBarController</text><rect fill="none" height="6" style="stroke:#C82930;stroke-width:1;" width="6" x="15" y="592.0234"/><text fill="#000000" font-family="sans-serif" font-size="14" lengthAdjust="spacing" textLength="388.5479" x="27" y="598.3701">bookInsertPopupController : BookInsertPopupController</text><rect fill="none" height="6" style="stroke:#C82930;stroke-width:1;" width="6" x="15" y="608.3203"/><text fill="#000000" font-family="sans-serif" font-size="14" lengthAdjust="spacing" textLength="401.5088" x="27" y="614.667">bookModifyPopupController : BookModifyPopupController</text><line style="stroke:#181818;stroke-width:0.5;" x1="8" x2="440.4746" y1="621.9688" y2="621.9688"/><ellipse cx="18" cy="635.6172" fill="#84BE84" rx="3" ry="3" style="stroke:#038048;stroke-width:1;"/><text fill="#000000" font-family="sans-serif" font-size="14" lengthAdjust="spacing" textLength="112.5195" x="27" y="638.9639">initialize() : void</text><rect fill="#F24D5C" height="6" style="stroke:#C82930;stroke-width:1;" width="6" x="15" y="648.9141"/><text fill="#000000" font-family="sans-serif" font-size="14" lengthAdjust="spacing" textLength="172.915" x="27" y="655.2607">openInsertPopup() : void</text><rect fill="#F24D5C" height="6" style="stroke:#C82930;stroke-width:1;" width="6" x="15" y="665.2109"/><text fill="#000000" font-family="sans-serif" font-size="14" lengthAdjust="spacing" textLength="179.3955" x="27" y="671.5576">openModifyPopup() : void</text><rect fill="#F24D5C" height="6" style="stroke:#C82930;stroke-width:1;" width="6" x="15" y="681.5078"/><text fill="#000000" font-family="sans-serif" font-size="14" lengthAdjust="spacing" textLength="201.9199" x="27" y="687.8545">removeFromRegister() : void</text><ellipse cx="18" cy="700.8047" fill="#84BE84" rx="3" ry="3" style="stroke:#038048;stroke-width:1;"/><text fill="#000000" font-family="sans-serif" font-size="14" lengthAdjust="spacing" textLength="408.4746" x="27" y="704.1514">setBookRegister(in bookRegister : Register&lt;Book&gt;) : void</text></g><!--class LoanRegisterController--><g class="entity" data-entity="LoanRegisterController" data-source-line="31" data-uid="ent0004" id="entity_LoanRegisterController"><rect fill="#F1F1F1" height="276.1563" rx="2.5" ry="2.5" style="stroke:#181818;stroke-width:0.5;" width="422.2656" x="491" y="427"/><ellipse cx="617.2529" cy="443" fill="#ADD1B2" rx="11" ry="11" style="stroke:#181818;stroke-width:1;"/><path d="M620.2217,448.6406 Q619.6436,448.9375 619.0029,449.0781 Q618.3623,449.2344 617.6592,449.2344 Q615.1592,449.2344 613.8311,447.5938 Q612.5186,445.9375 612.5186,442.8125 Q612.5186,439.6875 613.8311,438.0313 Q615.1592,436.375 617.6592,436.375 Q618.3623,436.375 619.0029,436.5313 Q619.6592,436.6875 620.2217,436.9844 L620.2217,439.7031 Q619.5967,439.125 619.0029,438.8594 Q618.4092,438.5781 617.7842,438.5781 Q616.4404,438.5781 615.7529,439.6563 Q615.0654,440.7188 615.0654,442.8125 Q615.0654,444.9063 615.7529,445.9844 Q616.4404,447.0469 617.7842,447.0469 Q618.4092,447.0469 619.0029,446.7813 Q619.5967,446.5 620.2217,445.9219 L620.2217,448.6406 Z " fill="#000000"/><text fill="#000000" font-family="sans-serif" font-size="14" lengthAdjust="spacing" textLength="161.2598" x="637.7529" y="447.8467">LoanRegisterController</text><line style="stroke:#181818;stroke-width:0.5;" x1="492" x2="912.2656" y1="459" y2="459"/><rect fill="none" height="6" style="stroke:#C82930;stroke-width:1;" width="6" x="499" y="469.6484"/><text fill="#000000" font-family="sans-serif" font-size="14" lengthAdjust="spacing" textLength="211.374" x="511" y="475.9951">loanTable : TableView&lt;Loan&gt;</text><rect fill="none" height="6" style="stroke:#C82930;stroke-width:1;" width="6" x="499" y="485.9453"/><text fill="#000000" font-family="sans-serif" font-size="14" lengthAdjust="spacing" textLength="294.5332" x="511" y="492.292">studentClm : TableColumn&lt;Loan, String&gt;</text><rect fill="none" height="6" style="stroke:#C82930;stroke-width:1;" width="6" x="499" y="502.2422"/><text fill="#000000" font-family="sans-serif" font-size="14" lengthAdjust="spacing" textLength="275.1396" x="511" y="508.5889">bookClm : TableColumn&lt;Loan, String&gt;</text><rect fill="none" height="6" style="stroke:#C82930;stroke-width:1;" width="6" x="499" y="518.5391"/><text fill="#000000" font-family="sans-serif" font-size="14" lengthAdjust="spacing" textLength="325.7393" x="511" y="524.8857">loanEndClm : TableColumn&lt;Loan, LocalDate&gt;</text><rect fill="none" height="6" style="stroke:#C82930;stroke-width:1;" width="6" x="499" y="534.8359"/><text fill="#000000" font-family="sans-serif" font-size="14" lengthAdjust="spacing" textLength="301.875" x="511" y="541.1826">returnedClm : TableColumn&lt;Loan, String&gt;</text><rect fill="none" height="6" style="stroke:#C82930;stroke-width:1;" width="6" x="499" y="551.1328"/><text fill="#000000" font-family="sans-serif" font-size="14" lengthAdjust="spacing" textLength="107.6113" x="511" y="557.4795">library : Library</text><rect fill="none" height="6" style="stroke:#C82930;stroke-width:1;" width="6" x="499" y="567.4297"/><text fill="#000000" font-family="sans-serif" font-size="14" lengthAdjust="spacing" textLength="258.8018" x="511" y="573.7764">sideBarController : SideBarController</text><rect fill="none" height="6" style="stroke:#C82930;stroke-width:1;" width="6" x="499" y="583.7266"/><text fill="#000000" font-family="sans-serif" font-size="14" lengthAdjust="spacing" textLength="383.3047" x="511" y="590.0732">loanInsertPopupController : LoanInsertPopupController</text><rect fill="none" height="6" style="stroke:#C82930;stroke-width:1;" width="6" x="499" y="600.0234"/><text fill="#000000" font-family="sans-serif" font-size="14" lengthAdjust="spacing" textLength="396.2656" x="511" y="606.3701">loanModifyPopupController : LoanModifyPopupController</text><line style="stroke:#181818;stroke-width:0.5;" x1="492" x2="912.2656" y1="613.6719" y2="613.6719"/><ellipse cx="502" cy="627.3203" fill="#84BE84" rx="3" ry="3" style="stroke:#038048;stroke-width:1;"/><text fill="#000000" font-family="sans-serif" font-size="14" lengthAdjust="spacing" textLength="112.5195" x="511" y="630.667">initialize() : void</text><rect fill="#F24D5C" height="6" style="stroke:#C82930;stroke-width:1;" width="6" x="499" y="640.6172"/><text fill="#000000" font-family="sans-serif" font-size="14" lengthAdjust="spacing" textLength="172.915" x="511" y="646.9639">openInsertPopup() : void</text><rect fill="#F24D5C" height="6" style="stroke:#C82930;stroke-width:1;" width="6" x="499" y="656.9141"/><text fill="#000000" font-family="sans-serif" font-size="14" lengthAdjust="spacing" textLength="179.3955" x="511" y="663.2607">openModifyPopup() : void</text><rect fill="#F24D5C" height="6" style="stroke:#C82930;stroke-width:1;" width="6" x="499" y="673.2109"/><text fill="#000000" font-family="sans-serif" font-size="14" lengthAdjust="spacing" textLength="201.9199" x="511" y="679.5576">removeFromRegister() : void</text><ellipse cx="502" cy="692.5078" fill="#84BE84" rx="3" ry="3" style="stroke:#038048;stroke-width:1;"/><text fill="#000000" font-family="sans-serif" font-size="14" lengthAdjust="spacing" textLength="249.3408" x="511" y="695.8545">setLibrary(in library : Library) : void</text></g><!--class StudentRegisterController--><g class="entity" data-entity="StudentRegisterController" data-source-line="49" data-uid="ent0005" id="entity_StudentRegisterController"><rect fill="#F1F1F1" height="276.1563" rx="2.5" ry="2.5" style="stroke:#181818;stroke-width:0.5;" width="494.4053" x="963" y="427"/><ellipse cx="1114.6758" cy="443" fill="#ADD1B2" rx="11" ry="11" style="stroke:#181818;stroke-width:1;"/><path d="M1117.6445,448.6406 Q1117.0664,448.9375 1116.4258,449.0781 Q1115.7852,449.2344 1115.082,449.2344 Q1112.582,449.2344 1111.2539,447.5938 Q1109.9414,445.9375 1109.9414,442.8125 Q1109.9414,439.6875 1111.2539,438.0313 Q1112.582,436.375 1115.082,436.375 Q1115.7852,436.375 1116.4258,436.5313 Q1117.082,436.6875 1117.6445,436.9844 L1117.6445,439.7031 Q1117.0195,439.125 1116.4258,438.8594 Q1115.832,438.5781 1115.207,438.5781 Q1113.8633,438.5781 1113.1758,439.6563 Q1112.4883,440.7188 1112.4883,442.8125 Q1112.4883,444.9063 1113.1758,445.9844 Q1113.8633,447.0469 1115.207,447.0469 Q1115.832,447.0469 1116.4258,446.7813 Q1117.0195,446.5 1117.6445,445.9219 L1117.6445,448.6406 Z " fill="#000000"/><text fill="#000000" font-family="sans-serif" font-size="14" lengthAdjust="spacing" textLength="182.5537" x="1135.1758" y="447.8467">StudentRegisterController</text><line style="stroke:#181818;stroke-width:0.5;" x1="964" x2="1456.4053" y1="459" y2="459"/><rect fill="none" height="6" style="stroke:#C82930;stroke-width:1;" width="6" x="971" y="469.6484"/><text fill="#000000" font-family="sans-serif" font-size="14" lengthAdjust="spacing" textLength="256.2793" x="983" y="475.9951">studentTable : TableView&lt;Student&gt;</text><rect fill="none" height="6" style="stroke:#C82930;stroke-width:1;" width="6" x="971" y="485.9453"/><text fill="#000000" font-family="sans-serif" font-size="14" lengthAdjust="spacing" textLength="302.0117" x="983" y="492.292">nameClm : TableColumn&lt;Student, String&gt;</text><rect fill="none" height="6" style="stroke:#C82930;stroke-width:1;" width="6" x="971" y="502.2422"/><text fill="#000000" font-family="sans-serif" font-size="14" lengthAdjust="spacing" textLength="323.9346" x="983" y="508.5889">surnameClm : TableColumn&lt;Student, String&gt;</text><rect fill="none" height="6" style="stroke:#C82930;stroke-width:1;" width="6" x="971" y="518.5391"/><text fill="#000000" font-family="sans-serif" font-size="14" lengthAdjust="spacing" textLength="328.8428" x="983" y="524.8857">studentIdClm : TableColumn&lt;Student, String&gt;</text><rect fill="none" height="6" style="stroke:#C82930;stroke-width:1;" width="6" x="971" y="534.8359"/><text fill="#000000" font-family="sans-serif" font-size="14" lengthAdjust="spacing" textLength="300.918" x="983" y="541.1826">emailClm : TableColumn&lt;Student, String&gt;</text><rect fill="none" height="6" style="stroke:#C82930;stroke-width:1;" width="6" x="971" y="551.1328"/><text fill="#000000" font-family="sans-serif" font-size="14" lengthAdjust="spacing" textLength="262.2471" x="983" y="557.4795">studentRegister : Register&lt;Student&gt;</text><rect fill="none" height="6" style="stroke:#C82930;stroke-width:1;" width="6" x="971" y="567.4297"/><text fill="#000000" font-family="sans-serif" font-size="14" lengthAdjust="spacing" textLength="258.8018" x="983" y="573.7764">sideBarController : SideBarController</text><rect fill="none" height="6" style="stroke:#C82930;stroke-width:1;" width="6" x="971" y="583.7266"/><text fill="#000000" font-family="sans-serif" font-size="14" lengthAdjust="spacing" textLength="428.21" x="983" y="590.0732">studentInsertPopupController : StudentInsertPopupController</text><rect fill="none" height="6" style="stroke:#C82930;stroke-width:1;" width="6" x="971" y="600.0234"/><text fill="#000000" font-family="sans-serif" font-size="14" lengthAdjust="spacing" textLength="441.1709" x="983" y="606.3701">studentModifyPopupController : StudentModifyPopupController</text><line style="stroke:#181818;stroke-width:0.5;" x1="964" x2="1456.4053" y1="613.6719" y2="613.6719"/><ellipse cx="974" cy="627.3203" fill="#84BE84" rx="3" ry="3" style="stroke:#038048;stroke-width:1;"/><text fill="#000000" font-family="sans-serif" font-size="14" lengthAdjust="spacing" textLength="112.5195" x="983" y="630.667">initialize() : void</text><rect fill="#F24D5C" height="6" style="stroke:#C82930;stroke-width:1;" width="6" x="971" y="640.6172"/><text fill="#000000" font-family="sans-serif" font-size="14" lengthAdjust="spacing" textLength="172.915" x="983" y="646.9639">openInsertPopup() : void</text><rect fill="#F24D5C" height="6" style="stroke:#C82930;stroke-width:1;" width="6" x="971" y="656.9141"/><text fill="#000000" font-family="sans-serif" font-size="14" lengthAdjust="spacing" textLength="179.3955" x="983" y="663.2607">openModifyPopup() : void</text><rect fill="#F24D5C" height="6" style="stroke:#C82930;stroke-width:1;" width="6" x="971" y="673.2109"/><text fill="#000000" font-family="sans-serif" font-size="14" lengthAdjust="spacing" textLength="201.9199" x="983" y="679.5576">removeFromRegister() : void</text><ellipse cx="974" cy="692.5078" fill="#84BE84" rx="3" ry="3" style="stroke:#038048;stroke-width:1;"/><text fill="#000000" font-family="sans-serif" font-size="14" lengthAdjust="spacing" textLength="468.4053" x="983" y="695.8545">setStudentRegister(in studentRegister : Register&lt;Student&gt;) : void</text></g><!--class MenuBarController--><g class="entity" data-entity="MenuBarController" data-source-line="67" data-uid="ent0006" id="entity_MenuBarController"><rect fill="#F1F1F1" height="145.7813" rx="2.5" ry="2.5" style="stroke:#181818;stroke-width:0.5;" width="295.5752" x="554" y="7"/><ellipse cx="631.7622" cy="23" fill="#ADD1B2" rx="11" ry="11" style="stroke:#181818;stroke-width:1;"/><path d="M634.731,28.6406 Q634.1528,28.9375 633.5122,29.0781 Q632.8716,29.2344 632.1685,29.2344 Q629.6685,29.2344 628.3403,27.5938 Q627.0278,25.9375 627.0278,22.8125 Q627.0278,19.6875 628.3403,18.0313 Q629.6685,16.375 632.1685,16.375 Q632.8716,16.375 633.5122,16.5313 Q634.1685,16.6875 634.731,16.9844 L634.731,19.7031 Q634.106,19.125 633.5122,18.8594 Q632.9185,18.5781 632.2935,18.5781 Q630.9497,18.5781 630.2622,19.6563 Q629.5747,20.7188 629.5747,22.8125 Q629.5747,24.9063 630.2622,25.9844 Q630.9497,27.0469 632.2935,27.0469 Q632.9185,27.0469 633.5122,26.7813 Q634.106,26.5 634.731,25.9219 L634.731,28.6406 Z " fill="#000000"/><text fill="#000000" font-family="sans-serif" font-size="14" lengthAdjust="spacing" textLength="131.5508" x="652.2622" y="27.8467">MenuBarController</text><line style="stroke:#181818;stroke-width:0.5;" x1="555" x2="848.5752" y1="39" y2="39"/><rect fill="none" height="6" style="stroke:#C82930;stroke-width:1;" width="6" x="562" y="49.6484"/><text fill="#000000" font-family="sans-serif" font-size="14" lengthAdjust="spacing" textLength="260.6406" x="574" y="55.9951">libraryIOManager : LibraryIOManager</text><rect fill="none" height="6" style="stroke:#C82930;stroke-width:1;" width="6" x="562" y="65.9453"/><text fill="#000000" font-family="sans-serif" font-size="14" lengthAdjust="spacing" textLength="107.6113" x="574" y="72.292">library : Library</text><line style="stroke:#181818;stroke-width:0.5;" x1="555" x2="848.5752" y1="79.5938" y2="79.5938"/><ellipse cx="565" cy="93.2422" fill="#84BE84" rx="3" ry="3" style="stroke:#038048;stroke-width:1;"/><text fill="#000000" font-family="sans-serif" font-size="14" lengthAdjust="spacing" textLength="206.0967" x="574" y="96.5889">setLibrary(in library : Library)</text><rect fill="#F24D5C" height="6" style="stroke:#C82930;stroke-width:1;" width="6" x="562" y="106.5391"/><text fill="#000000" font-family="sans-serif" font-size="14" lengthAdjust="spacing" textLength="268.4541" x="574" y="112.8857">openFile(in event : ActionEvent) : void</text><rect fill="#F24D5C" height="6" style="stroke:#C82930;stroke-width:1;" width="6" x="562" y="122.8359"/><text fill="#000000" font-family="sans-serif" font-size="14" lengthAdjust="spacing" textLength="269.5752" x="574" y="129.1826">closeFile(in event : ActionEvent) : void</text><rect fill="#F24D5C" height="6" style="stroke:#C82930;stroke-width:1;" width="6" x="562" y="139.1328"/><text fill="#000000" font-family="sans-serif" font-size="14" lengthAdjust="spacing" textLength="266.2871" x="574" y="145.4795">saveFile(in event : ActionEvent) : void</text></g><!--class LibraryIOManager--><g class="entity" data-entity="LibraryIOManager" data-source-line="77" data-uid="ent0007" id="entity_LibraryIOManager"><rect fill="#F1F1F1" height="80.5938" rx="2.5" ry="2.5" style="stroke:#181818;stroke-width:0.5;" width="472.4141" x="32" y="39.5"/><ellipse cx="201.2236" cy="55.5" fill="#ADD1B2" rx="11" ry="11" style="stroke:#181818;stroke-width:1;"/><path d="M204.1924,61.1406 Q203.6143,61.4375 202.9736,61.5781 Q202.333,61.7344 201.6299,61.7344 Q199.1299,61.7344 197.8018,60.0938 Q196.4893,58.4375 196.4893,55.3125 Q196.4893,52.1875 197.8018,50.5313 Q199.1299,48.875 201.6299,48.875 Q202.333,48.875 202.9736,49.0313 Q203.6299,49.1875 204.1924,49.4844 L204.1924,52.2031 Q203.5674,51.625 202.9736,51.3594 Q202.3799,51.0781 201.7549,51.0781 Q200.4111,51.0781 199.7236,52.1563 Q199.0361,53.2188 199.0361,55.3125 Q199.0361,57.4063 199.7236,58.4844 Q200.4111,59.5469 201.7549,59.5469 Q202.3799,59.5469 202.9736,59.2813 Q203.5674,59 204.1924,58.4219 L204.1924,61.1406 Z " fill="#000000"/><text fill="#000000" font-family="sans-serif" font-size="14" lengthAdjust="spacing" textLength="125.4668" x="221.7236" y="60.3467">LibraryIOManager</text><line style="stroke:#181818;stroke-width:0.5;" x1="33" x2="503.4141" y1="71.5" y2="71.5"/><line style="stroke:#181818;stroke-width:0.5;" x1="33" x2="503.4141" y1="79.5" y2="79.5"/><ellipse cx="43" cy="93.1484" fill="#84BE84" rx="3" ry="3" style="stroke:#038048;stroke-width:1;"/><text fill="#000000" font-family="sans-serif" font-size="14" lengthAdjust="spacing" textLength="446.4141" x="52" y="96.4951">saveLibrary(in libraryToSave : Library, in filePath : String) : void</text><ellipse cx="43" cy="109.4453" fill="#84BE84" rx="3" ry="3" style="stroke:#038048;stroke-width:1;"/><text fill="#000000" font-family="sans-serif" font-size="14" lengthAdjust="spacing" textLength="273.2324" x="52" y="112.792">loadLibrary(in filePath : String): Library</text></g><!--reverse link MenuBarController to MainController--><g class="link" data-entity-1="MenuBarController" data-entity-2="MainController" data-source-line="82" data-uid="lnk9" id="link_MenuBarController_MainController"><path codeLine="82" d="M702,159.21 C702,178.58 702,193.52 702,212.89" fill="none" id="MenuBarController-backto-MainController" style="stroke:#181818;stroke-width:1;"/><polygon fill="#181818" points="702,153.21,698,162.21,702,158.21,706,162.21,702,153.21" style="stroke:#181818;stroke-width:1;"/><text fill="#000000" font-family="sans-serif" font-size="13" lengthAdjust="spacing" textLength="8.271" x="693.6633" y="172.7336">1</text><text fill="#000000" font-family="sans-serif" font-size="13" lengthAdjust="spacing" textLength="8.271" x="693.6131" y="202.0392">1</text></g><!--link MainController to LoanRegisterController--><g class="link" data-entity-1="MainController" data-entity-2="LoanRegisterController" data-source-line="83" data-uid="lnk10" id="link_MainController_LoanRegisterController"><path codeLine="83" d="M702,359.06 C702,379.89 702,397.36 702,420.78" fill="none" id="MainController-to-LoanRegisterController" style="stroke:#181818;stroke-width:1;"/><polygon fill="#181818" points="702,426.78,706,417.78,702,421.78,698,417.78,702,426.78" style="stroke:#181818;stroke-width:1;"/><text fill="#000000" font-family="sans-serif" font-size="13" lengthAdjust="spacing" textLength="8.271" x="693.6254" y="378.822">1</text><text fill="#000000" font-family="sans-serif" font-size="13" lengthAdjust="spacing" textLength="8.271" x="693.7814" y="415.8772">1</text></g><!--link MainController to BookRegisterController--><g class="link" data-entity-1="MainController" data-entity-2="BookRegisterController" data-source-line="84" data-uid="lnk11" id="link_MainController_BookRegisterController"><path codeLine="84" d="M571.46,359.1 C537.04,378.36 500.02,399.3 466,419 C457.84,423.72 454.718,425.5287 446.348,430.4287" fill="none" id="MainController-to-BookRegisterController" style="stroke:#181818;stroke-width:1;"/><polygon fill="#181818" points="441.17,433.46,450.9578,432.365,445.485,430.9339,446.9161,425.4611,441.17,433.46" style="stroke:#181818;stroke-width:1;"/><text fill="#000000" font-family="sans-serif" font-size="13" lengthAdjust="spacing" textLength="8.271" x="550.6433" y="378.8658">1</text><text fill="#000000" font-family="sans-serif" font-size="13" lengthAdjust="spacing" textLength="8.271" x="449.8055" y="425.0894">1</text></g><!--link MainController to StudentRegisterController--><g class="link" data-entity-1="MainController" data-entity-2="StudentRegisterController" data-source-line="85" data-uid="lnk12" id="link_MainController_StudentRegisterController"><path codeLine="85" d="M834.14,359.06 C873.69,380.62 913.1227,402.1168 957.5427,426.3468" fill="none" id="MainController-to-StudentRegisterController" style="stroke:#181818;stroke-width:1;"/><polygon fill="#181818" points="962.81,429.22,956.8245,421.3987,958.4206,426.8257,952.9935,428.4218,962.81,429.22" style="stroke:#181818;stroke-width:1;"/><text fill="#000000" font-family="sans-serif" font-size="13" lengthAdjust="spacing" textLength="8.271" x="838.36" y="378.822">1</text><text fill="#000000" font-family="sans-serif" font-size="13" lengthAdjust="spacing" textLength="8.271" x="946.5656" y="421.5851">1</text></g><!--reverse link LibraryIOManager to MenuBarController--><g class="link" data-entity-1="LibraryIOManager" data-entity-2="MenuBarController" data-source-line="86" data-uid="lnk14" id="link_LibraryIOManager_MenuBarController"><path codeLine="86" d="M510.07,80 C526.7,80 537.32,80 553.94,80" fill="none" id="LibraryIOManager-backto-MenuBarController" style="stroke:#181818;stroke-width:1;"/><polygon fill="#181818" points="504.07,80,513.07,84,509.07,80,513.07,76,504.07,80" style="stroke:#181818;stroke-width:1;"/><text fill="#000000" font-family="sans-serif" font-size="13" lengthAdjust="spacing" textLength="8.271" x="512.6949" y="76.807">1</text><text fill="#000000" font-family="sans-serif" font-size="13" lengthAdjust="spacing" textLength="8.271" x="537.6432" y="76.6664">1</text></g><!--SRC=[lLPHRzem47xthx3wiauqqlQmbsb20aebj01LGoVjqP0hM7Nio7QOkgh_VJQ98KriaZqKNaZytPtlFd- -d7gcF2UIP9YB51Ja-DiNzEaYl_beja0RHfJ2SqBvH70j1MCWNz60SgefOVGlN7_6t_5Uq1H5ZAubaI_cFIwVKAHqaGBN3x2bIeCynJ16IGX3qLg8Pw_Fs0kOhGNXNeVO2w0e0rwCoNlRUNCDlLs8wl5o-REYsbzXY79Br8gi6PYLm_yl2dz-s1X356cg6KnOvh29O4N63-YDOLzIlZLMfD0x8LMdNLwi6LKxGvp-3OQbWFsCQzY279QvpTBk_VU4iXBEAQX-SHr3njGzkgeLJQ5viabphSgEAv3wNkH5tbAP5olTvYAbJoz-Do-6C8v43hmMitQ65gcvrH09cTZ3dHIPA_843XJekbQkASTdcJbwlg4BgJfUZbm3yL_3O2CnrcrLsnZ3OqjfwyJYDLrPCZgDx4vJdeRiOh4Xx9Pe6Dh3q8Naa7R7zBJ1VfgqsOGq6OUmqYsaoJY4eGzHP5Mn5MEBXiiBC5aztauNgqg3mUzDI8QLqjfAh2APi-OaytJO2gzfGXdfz3KjLtoTisqCcMcU_n7LrnrErVIKgSimeDJa37nq3karEGEZZz5iGnTMkptOggdvGkFOTF4u7ZsuYQmvgxmU6yziEIUSRClhtrZoTQVkYrkoUqSPM1psfdw3ZZQQ2ZwrRoUoDqmew6MfoBwNOJU_xXlJgDLSQxj7kxALICpwgRuRRB0dayezqRk31ksbSGbWD30DDgs5QPiUGs7RtDvFo_ZgwnMEYcXuU6ZFc3xhjB8EJA_dN08JyZcNy23UohPqP2wz1kF_0000]--></g></svg>