<svg xmlns="http://www.w3.org/2000/svg" xmlns:xlink="http://www.w3.org/1999/xlink" contentStyleType="text/css" data-diagram-type="CLASS" height="512px" preserveAspectRatio="none" style="width:1434px;height:512px;background:#FFFFFF;" version="1.1" viewBox="0 0 1434 512" width="1434px" zoomAndPan="magnify"><defs/><g><!--class MenuBarController--><g class="entity" data-entity="MenuBarController" data-source-line="2" data-uid="ent0002" id="entity_MenuBarController"><rect fill="#F1F1F1" height="145.7813" rx="2.5" ry="2.5" style="stroke:#181818;stroke-width:0.5;" width="295.5752" x="923.45" y="7"/><ellipse cx="1001.2122" cy="23" fill="#ADD1B2" rx="11" ry="11" style="stroke:#181818;stroke-width:1;"/><path d="M1004.181,28.6406 Q1003.6028,28.9375 1002.9622,29.0781 Q1002.3216,29.2344 1001.6185,29.2344 Q999.1185,29.2344 997.7903,27.5938 Q996.4778,25.9375 996.4778,22.8125 Q996.4778,19.6875 997.7903,18.0313 Q999.1185,16.375 1001.6185,16.375 Q1002.3216,16.375 1002.9622,16.5313 Q1003.6185,16.6875 1004.181,16.9844 L1004.181,19.7031 Q1003.556,19.125 1002.9622,18.8594 Q1002.3685,18.5781 1001.7435,18.5781 Q1000.3997,18.5781 999.7122,19.6563 Q999.0247,20.7188 999.0247,22.8125 Q999.0247,24.9063 999.7122,25.9844 Q1000.3997,27.0469 1001.7435,27.0469 Q1002.3685,27.0469 1002.9622,26.7813 Q1003.556,26.5 1004.181,25.9219 L1004.181,28.6406 Z " fill="#000000"/><text fill="#000000" font-family="sans-serif" font-size="14" lengthAdjust="spacing" textLength="131.5508" x="1021.7122" y="27.8467">MenuBarController</text><line style="stroke:#181818;stroke-width:0.5;" x1="924.45" x2="1218.0252" y1="39" y2="39"/><g data-visibility-modifier="PRIVATE_FIELD"><rect fill="none" height="6" style="stroke:#C82930;stroke-width:1;" width="6" x="931.45" y="49.6484"/></g><text fill="#000000" font-family="sans-serif" font-size="14" lengthAdjust="spacing" textLength="260.6406" x="943.45" y="55.9951">libraryIOManager : LibraryIOManager</text><g data-visibility-modifier="PRIVATE_FIELD"><rect fill="none" height="6" style="stroke:#C82930;stroke-width:1;" width="6" x="931.45" y="65.9453"/></g><text fill="#000000" font-family="sans-serif" font-size="14" lengthAdjust="spacing" textLength="107.6113" x="943.45" y="72.292">library : Library</text><line style="stroke:#181818;stroke-width:0.5;" x1="924.45" x2="1218.0252" y1="79.5938" y2="79.5938"/><g data-visibility-modifier="PUBLIC_METHOD"><ellipse cx="934.45" cy="93.2422" fill="#84BE84" rx="3" ry="3" style="stroke:#038048;stroke-width:1;"/></g><text fill="#000000" font-family="sans-serif" font-size="14" lengthAdjust="spacing" textLength="206.0967" x="943.45" y="96.5889">setLibrary(in library : Library)</text><g data-visibility-modifier="PRIVATE_METHOD"><rect fill="#F24D5C" height="6" style="stroke:#C82930;stroke-width:1;" width="6" x="931.45" y="106.5391"/></g><text fill="#000000" font-family="sans-serif" font-size="14" lengthAdjust="spacing" textLength="268.4541" x="943.45" y="112.8857">openFile(in event : ActionEvent) : void</text><g data-visibility-modifier="PRIVATE_METHOD"><rect fill="#F24D5C" height="6" style="stroke:#C82930;stroke-width:1;" width="6" x="931.45" y="122.8359"/></g><text fill="#000000" font-family="sans-serif" font-size="14" lengthAdjust="spacing" textLength="269.5752" x="943.45" y="129.1826">closeFile(in event : ActionEvent) : void</text><g data-visibility-modifier="PRIVATE_METHOD"><rect fill="#F24D5C" height="6" style="stroke:#C82930;stroke-width:1;" width="6" x="931.45" y="139.1328"/></g><text fill="#000000" font-family="sans-serif" font-size="14" lengthAdjust="spacing" textLength="266.2871" x="943.45" y="145.4795">saveFile(in event : ActionEvent) : void</text></g><!--class MainController--><g class="entity" data-entity="MainController" data-source-line="12" data-uid="ent0003" id="entity_MainController"><rect fill="#F1F1F1" height="145.7813" rx="2.5" ry="2.5" style="stroke:#181818;stroke-width:0.5;" width="403.1318" x="485.67" y="7"/><ellipse cx="631.689" cy="23" fill="#ADD1B2" rx="11" ry="11" style="stroke:#181818;stroke-width:1;"/><path d="M634.6578,28.6406 Q634.0797,28.9375 633.439,29.0781 Q632.7984,29.2344 632.0953,29.2344 Q629.5953,29.2344 628.2672,27.5938 Q626.9547,25.9375 626.9547,22.8125 Q626.9547,19.6875 628.2672,18.0313 Q629.5953,16.375 632.0953,16.375 Q632.7984,16.375 633.439,16.5313 Q634.0953,16.6875 634.6578,16.9844 L634.6578,19.7031 Q634.0328,19.125 633.439,18.8594 Q632.8453,18.5781 632.2203,18.5781 Q630.8765,18.5781 630.189,19.6563 Q629.5015,20.7188 629.5015,22.8125 Q629.5015,24.9063 630.189,25.9844 Q630.8765,27.0469 632.2203,27.0469 Q632.8453,27.0469 633.439,26.7813 Q634.0328,26.5 634.6578,25.9219 L634.6578,28.6406 Z " fill="#000000"/><text fill="#000000" font-family="sans-serif" font-size="14" lengthAdjust="spacing" textLength="102.5938" x="652.189" y="27.8467">MainController</text><line style="stroke:#181818;stroke-width:0.5;" x1="486.67" x2="887.8018" y1="39" y2="39"/><g data-visibility-modifier="PRIVATE_FIELD"><rect fill="none" height="6" style="stroke:#C82930;stroke-width:1;" width="6" x="493.67" y="49.6484"/></g><text fill="#000000" font-family="sans-serif" font-size="14" lengthAdjust="spacing" textLength="107.6113" x="505.67" y="55.9951">library : Library</text><g data-visibility-modifier="PRIVATE_FIELD"><rect fill="none" height="6" style="stroke:#C82930;stroke-width:1;" width="6" x="493.67" y="65.9453"/></g><text fill="#000000" font-family="sans-serif" font-size="14" lengthAdjust="spacing" textLength="377.1318" x="505.67" y="72.292">studentRegisterController : StudentRegisterController</text><g data-visibility-modifier="PRIVATE_FIELD"><rect fill="none" height="6" style="stroke:#C82930;stroke-width:1;" width="6" x="493.67" y="82.2422"/></g><text fill="#000000" font-family="sans-serif" font-size="14" lengthAdjust="spacing" textLength="337.4697" x="505.67" y="88.5889">bookRegisterController : BookRegisterController</text><g data-visibility-modifier="PRIVATE_FIELD"><rect fill="none" height="6" style="stroke:#C82930;stroke-width:1;" width="6" x="493.67" y="98.5391"/></g><text fill="#000000" font-family="sans-serif" font-size="14" lengthAdjust="spacing" textLength="332.2266" x="505.67" y="104.8857">loanRegisterController : LoanRegisterController</text><g data-visibility-modifier="PRIVATE_FIELD"><rect fill="none" height="6" style="stroke:#C82930;stroke-width:1;" width="6" x="493.67" y="114.8359"/></g><text fill="#000000" font-family="sans-serif" font-size="14" lengthAdjust="spacing" textLength="278.2773" x="505.67" y="121.1826">menuBarController : MenuBarController</text><line style="stroke:#181818;stroke-width:0.5;" x1="486.67" x2="887.8018" y1="128.4844" y2="128.4844"/><g data-visibility-modifier="PUBLIC_METHOD"><ellipse cx="496.67" cy="142.1328" fill="#84BE84" rx="3" ry="3" style="stroke:#038048;stroke-width:1;"/></g><text fill="#000000" font-family="sans-serif" font-size="14" lengthAdjust="spacing" textLength="112.5195" x="505.67" y="145.4795">initialize() : void</text></g><!--class BookRegisterController--><g class="entity" data-entity="BookRegisterController" data-source-line="21" data-uid="ent0004" id="entity_BookRegisterController"><rect fill="#F1F1F1" height="292.4531" rx="2.5" ry="2.5" style="stroke:#181818;stroke-width:0.5;" width="434.4746" x="7" y="212.78"/><ellipse cx="138.8447" cy="228.78" fill="#ADD1B2" rx="11" ry="11" style="stroke:#181818;stroke-width:1;"/><path d="M141.8135,234.4206 Q141.2354,234.7175 140.5947,234.8581 Q139.9541,235.0144 139.251,235.0144 Q136.751,235.0144 135.4229,233.3738 Q134.1104,231.7175 134.1104,228.5925 Q134.1104,225.4675 135.4229,223.8113 Q136.751,222.155 139.251,222.155 Q139.9541,222.155 140.5947,222.3113 Q141.251,222.4675 141.8135,222.7644 L141.8135,225.4831 Q141.1885,224.905 140.5947,224.6394 Q140.001,224.3581 139.376,224.3581 Q138.0322,224.3581 137.3447,225.4363 Q136.6572,226.4988 136.6572,228.5925 Q136.6572,230.6863 137.3447,231.7644 Q138.0322,232.8269 139.376,232.8269 Q140.001,232.8269 140.5947,232.5613 Q141.1885,232.28 141.8135,231.7019 L141.8135,234.4206 Z " fill="#000000"/><text fill="#000000" font-family="sans-serif" font-size="14" lengthAdjust="spacing" textLength="162.2852" x="159.3447" y="233.6267">BookRegisterController</text><line style="stroke:#181818;stroke-width:0.5;" x1="8" x2="440.4746" y1="244.78" y2="244.78"/><g data-visibility-modifier="PRIVATE_FIELD"><rect fill="none" height="6" style="stroke:#C82930;stroke-width:1;" width="6" x="15" y="255.4284"/></g><text fill="#000000" font-family="sans-serif" font-size="14" lengthAdjust="spacing" textLength="216.6172" x="27" y="261.7751">bookTable : TableView&lt;Book&gt;</text><g data-visibility-modifier="PRIVATE_FIELD"><rect fill="none" height="6" style="stroke:#C82930;stroke-width:1;" width="6" x="15" y="271.7253"/></g><text fill="#000000" font-family="sans-serif" font-size="14" lengthAdjust="spacing" textLength="269.4111" x="27" y="278.072">titleClm : TableColumn&lt;Book, String&gt;</text><g data-visibility-modifier="PRIVATE_FIELD"><rect fill="none" height="6" style="stroke:#C82930;stroke-width:1;" width="6" x="15" y="288.0222"/></g><text fill="#000000" font-family="sans-serif" font-size="14" lengthAdjust="spacing" textLength="295.4697" x="27" y="294.3689">authorsClm : TableColumn&lt;Book, String&gt;</text><g data-visibility-modifier="PRIVATE_FIELD"><rect fill="none" height="6" style="stroke:#C82930;stroke-width:1;" width="6" x="15" y="304.3191"/></g><text fill="#000000" font-family="sans-serif" font-size="14" lengthAdjust="spacing" textLength="369.3252" x="27" y="310.6657">publishmentYearClm : TableColumn&lt;Book, Integer&gt;</text><g data-visibility-modifier="PRIVATE_FIELD"><rect fill="none" height="6" style="stroke:#C82930;stroke-width:1;" width="6" x="15" y="320.6159"/></g><text fill="#000000" font-family="sans-serif" font-size="14" lengthAdjust="spacing" textLength="289.1807" x="27" y="326.9626">bookIdClm : TableColumn&lt;Book, String&gt;</text><g data-visibility-modifier="PRIVATE_FIELD"><rect fill="none" height="6" style="stroke:#C82930;stroke-width:1;" width="6" x="15" y="336.9128"/></g><text fill="#000000" font-family="sans-serif" font-size="14" lengthAdjust="spacing" textLength="360.835" x="27" y="343.2595">availableCopiesClm : TableColumn&lt;Book, Integer&gt;</text><g data-visibility-modifier="PRIVATE_FIELD"><rect fill="none" height="6" style="stroke:#C82930;stroke-width:1;" width="6" x="15" y="353.2097"/></g><text fill="#000000" font-family="sans-serif" font-size="14" lengthAdjust="spacing" textLength="222.585" x="27" y="359.5564">bookRegister : Register&lt;Book&gt;</text><g data-visibility-modifier="PRIVATE_FIELD"><rect fill="none" height="6" style="stroke:#C82930;stroke-width:1;" width="6" x="15" y="369.5066"/></g><text fill="#000000" font-family="sans-serif" font-size="14" lengthAdjust="spacing" textLength="258.8018" x="27" y="375.8532">sideBarController : SideBarController</text><g data-visibility-modifier="PRIVATE_FIELD"><rect fill="none" height="6" style="stroke:#C82930;stroke-width:1;" width="6" x="15" y="385.8034"/></g><text fill="#000000" font-family="sans-serif" font-size="14" lengthAdjust="spacing" textLength="388.5479" x="27" y="392.1501">bookInsertPopupController : BookInsertPopupController</text><g data-visibility-modifier="PRIVATE_FIELD"><rect fill="none" height="6" style="stroke:#C82930;stroke-width:1;" width="6" x="15" y="402.1003"/></g><text fill="#000000" font-family="sans-serif" font-size="14" lengthAdjust="spacing" textLength="401.5088" x="27" y="408.447">bookModifyPopupController : BookModifyPopupController</text><line style="stroke:#181818;stroke-width:0.5;" x1="8" x2="440.4746" y1="415.7488" y2="415.7488"/><g data-visibility-modifier="PUBLIC_METHOD"><ellipse cx="18" cy="429.3972" fill="#84BE84" rx="3" ry="3" style="stroke:#038048;stroke-width:1;"/></g><text fill="#000000" font-family="sans-serif" font-size="14" lengthAdjust="spacing" textLength="112.5195" x="27" y="432.7439">initialize() : void</text><g data-visibility-modifier="PRIVATE_METHOD"><rect fill="#F24D5C" height="6" style="stroke:#C82930;stroke-width:1;" width="6" x="15" y="442.6941"/></g><text fill="#000000" font-family="sans-serif" font-size="14" lengthAdjust="spacing" textLength="172.915" x="27" y="449.0407">openInsertPopup() : void</text><g data-visibility-modifier="PRIVATE_METHOD"><rect fill="#F24D5C" height="6" style="stroke:#C82930;stroke-width:1;" width="6" x="15" y="458.9909"/></g><text fill="#000000" font-family="sans-serif" font-size="14" lengthAdjust="spacing" textLength="179.3955" x="27" y="465.3376">openModifyPopup() : void</text><g data-visibility-modifier="PRIVATE_METHOD"><rect fill="#F24D5C" height="6" style="stroke:#C82930;stroke-width:1;" width="6" x="15" y="475.2878"/></g><text fill="#000000" font-family="sans-serif" font-size="14" lengthAdjust="spacing" textLength="201.9199" x="27" y="481.6345">removeFromRegister() : void</text><g data-visibility-modifier="PUBLIC_METHOD"><ellipse cx="18" cy="494.5847" fill="#84BE84" rx="3" ry="3" style="stroke:#038048;stroke-width:1;"/></g><text fill="#000000" font-family="sans-serif" font-size="14" lengthAdjust="spacing" textLength="408.4746" x="27" y="497.9314">setBookRegister(in bookRegister : Register&lt;Book&gt;) : void</text></g><!--class LoanRegisterController--><g class="entity" data-entity="LoanRegisterController" data-source-line="40" data-uid="ent0005" id="entity_LoanRegisterController"><rect fill="#F1F1F1" height="276.1563" rx="2.5" ry="2.5" style="stroke:#181818;stroke-width:0.5;" width="422.2656" x="476.1" y="220.93"/><ellipse cx="602.3529" cy="236.93" fill="#ADD1B2" rx="11" ry="11" style="stroke:#181818;stroke-width:1;"/><path d="M605.3217,242.5706 Q604.7436,242.8675 604.1029,243.0081 Q603.4623,243.1644 602.7592,243.1644 Q600.2592,243.1644 598.9311,241.5238 Q597.6186,239.8675 597.6186,236.7425 Q597.6186,233.6175 598.9311,231.9613 Q600.2592,230.305 602.7592,230.305 Q603.4623,230.305 604.1029,230.4613 Q604.7592,230.6175 605.3217,230.9144 L605.3217,233.6331 Q604.6967,233.055 604.1029,232.7894 Q603.5092,232.5081 602.8842,232.5081 Q601.5404,232.5081 600.8529,233.5863 Q600.1654,234.6488 600.1654,236.7425 Q600.1654,238.8363 600.8529,239.9144 Q601.5404,240.9769 602.8842,240.9769 Q603.5092,240.9769 604.1029,240.7113 Q604.6967,240.43 605.3217,239.8519 L605.3217,242.5706 Z " fill="#000000"/><text fill="#000000" font-family="sans-serif" font-size="14" lengthAdjust="spacing" textLength="161.2598" x="622.8529" y="241.7767">LoanRegisterController</text><line style="stroke:#181818;stroke-width:0.5;" x1="477.1" x2="897.3656" y1="252.93" y2="252.93"/><g data-visibility-modifier="PRIVATE_FIELD"><rect fill="none" height="6" style="stroke:#C82930;stroke-width:1;" width="6" x="484.1" y="263.5784"/></g><text fill="#000000" font-family="sans-serif" font-size="14" lengthAdjust="spacing" textLength="211.374" x="496.1" y="269.9251">loanTable : TableView&lt;Loan&gt;</text><g data-visibility-modifier="PRIVATE_FIELD"><rect fill="none" height="6" style="stroke:#C82930;stroke-width:1;" width="6" x="484.1" y="279.8753"/></g><text fill="#000000" font-family="sans-serif" font-size="14" lengthAdjust="spacing" textLength="294.5332" x="496.1" y="286.222">studentClm : TableColumn&lt;Loan, String&gt;</text><g data-visibility-modifier="PRIVATE_FIELD"><rect fill="none" height="6" style="stroke:#C82930;stroke-width:1;" width="6" x="484.1" y="296.1722"/></g><text fill="#000000" font-family="sans-serif" font-size="14" lengthAdjust="spacing" textLength="275.1396" x="496.1" y="302.5189">bookClm : TableColumn&lt;Loan, String&gt;</text><g data-visibility-modifier="PRIVATE_FIELD"><rect fill="none" height="6" style="stroke:#C82930;stroke-width:1;" width="6" x="484.1" y="312.4691"/></g><text fill="#000000" font-family="sans-serif" font-size="14" lengthAdjust="spacing" textLength="325.7393" x="496.1" y="318.8157">loanEndClm : TableColumn&lt;Loan, LocalDate&gt;</text><g data-visibility-modifier="PRIVATE_FIELD"><rect fill="none" height="6" style="stroke:#C82930;stroke-width:1;" width="6" x="484.1" y="328.7659"/></g><text fill="#000000" font-family="sans-serif" font-size="14" lengthAdjust="spacing" textLength="301.875" x="496.1" y="335.1126">returnedClm : TableColumn&lt;Loan, String&gt;</text><g data-visibility-modifier="PRIVATE_FIELD"><rect fill="none" height="6" style="stroke:#C82930;stroke-width:1;" width="6" x="484.1" y="345.0628"/></g><text fill="#000000" font-family="sans-serif" font-size="14" lengthAdjust="spacing" textLength="107.6113" x="496.1" y="351.4095">library : Library</text><g data-visibility-modifier="PRIVATE_FIELD"><rect fill="none" height="6" style="stroke:#C82930;stroke-width:1;" width="6" x="484.1" y="361.3597"/></g><text fill="#000000" font-family="sans-serif" font-size="14" lengthAdjust="spacing" textLength="258.8018" x="496.1" y="367.7064">sideBarController : SideBarController</text><g data-visibility-modifier="PRIVATE_FIELD"><rect fill="none" height="6" style="stroke:#C82930;stroke-width:1;" width="6" x="484.1" y="377.6566"/></g><text fill="#000000" font-family="sans-serif" font-size="14" lengthAdjust="spacing" textLength="383.3047" x="496.1" y="384.0032">loanInsertPopupController : LoanInsertPopupController</text><g data-visibility-modifier="PRIVATE_FIELD"><rect fill="none" height="6" style="stroke:#C82930;stroke-width:1;" width="6" x="484.1" y="393.9534"/></g><text fill="#000000" font-family="sans-serif" font-size="14" lengthAdjust="spacing" textLength="396.2656" x="496.1" y="400.3001">loanModifyPopupController : LoanModifyPopupController</text><line style="stroke:#181818;stroke-width:0.5;" x1="477.1" x2="897.3656" y1="407.6019" y2="407.6019"/><g data-visibility-modifier="PUBLIC_METHOD"><ellipse cx="487.1" cy="421.2503" fill="#84BE84" rx="3" ry="3" style="stroke:#038048;stroke-width:1;"/></g><text fill="#000000" font-family="sans-serif" font-size="14" lengthAdjust="spacing" textLength="112.5195" x="496.1" y="424.597">initialize() : void</text><g data-visibility-modifier="PRIVATE_METHOD"><rect fill="#F24D5C" height="6" style="stroke:#C82930;stroke-width:1;" width="6" x="484.1" y="434.5472"/></g><text fill="#000000" font-family="sans-serif" font-size="14" lengthAdjust="spacing" textLength="172.915" x="496.1" y="440.8939">openInsertPopup() : void</text><g data-visibility-modifier="PRIVATE_METHOD"><rect fill="#F24D5C" height="6" style="stroke:#C82930;stroke-width:1;" width="6" x="484.1" y="450.8441"/></g><text fill="#000000" font-family="sans-serif" font-size="14" lengthAdjust="spacing" textLength="179.3955" x="496.1" y="457.1907">openModifyPopup() : void</text><g data-visibility-modifier="PRIVATE_METHOD"><rect fill="#F24D5C" height="6" style="stroke:#C82930;stroke-width:1;" width="6" x="484.1" y="467.1409"/></g><text fill="#000000" font-family="sans-serif" font-size="14" lengthAdjust="spacing" textLength="201.9199" x="496.1" y="473.4876">removeFromRegister() : void</text><g data-visibility-modifier="PUBLIC_METHOD"><ellipse cx="487.1" cy="486.4378" fill="#84BE84" rx="3" ry="3" style="stroke:#038048;stroke-width:1;"/></g><text fill="#000000" font-family="sans-serif" font-size="14" lengthAdjust="spacing" textLength="249.3408" x="496.1" y="489.7845">setLibrary(in library : Library) : void</text></g><!--class StudentRegisterController--><g class="entity" data-entity="StudentRegisterController" data-source-line="58" data-uid="ent0006" id="entity_StudentRegisterController"><rect fill="#F1F1F1" height="276.1563" rx="2.5" ry="2.5" style="stroke:#181818;stroke-width:0.5;" width="494.4053" x="933.03" y="220.93"/><ellipse cx="1084.7058" cy="236.93" fill="#ADD1B2" rx="11" ry="11" style="stroke:#181818;stroke-width:1;"/><path d="M1087.6745,242.5706 Q1087.0964,242.8675 1086.4558,243.0081 Q1085.8152,243.1644 1085.112,243.1644 Q1082.612,243.1644 1081.2839,241.5238 Q1079.9714,239.8675 1079.9714,236.7425 Q1079.9714,233.6175 1081.2839,231.9613 Q1082.612,230.305 1085.112,230.305 Q1085.8152,230.305 1086.4558,230.4613 Q1087.112,230.6175 1087.6745,230.9144 L1087.6745,233.6331 Q1087.0495,233.055 1086.4558,232.7894 Q1085.862,232.5081 1085.237,232.5081 Q1083.8933,232.5081 1083.2058,233.5863 Q1082.5183,234.6488 1082.5183,236.7425 Q1082.5183,238.8363 1083.2058,239.9144 Q1083.8933,240.9769 1085.237,240.9769 Q1085.862,240.9769 1086.4558,240.7113 Q1087.0495,240.43 1087.6745,239.8519 L1087.6745,242.5706 Z " fill="#000000"/><text fill="#000000" font-family="sans-serif" font-size="14" lengthAdjust="spacing" textLength="182.5537" x="1105.2058" y="241.7767">StudentRegisterController</text><line style="stroke:#181818;stroke-width:0.5;" x1="934.03" x2="1426.4353" y1="252.93" y2="252.93"/><g data-visibility-modifier="PRIVATE_FIELD"><rect fill="none" height="6" style="stroke:#C82930;stroke-width:1;" width="6" x="941.03" y="263.5784"/></g><text fill="#000000" font-family="sans-serif" font-size="14" lengthAdjust="spacing" textLength="256.2793" x="953.03" y="269.9251">studentTable : TableView&lt;Student&gt;</text><g data-visibility-modifier="PRIVATE_FIELD"><rect fill="none" height="6" style="stroke:#C82930;stroke-width:1;" width="6" x="941.03" y="279.8753"/></g><text fill="#000000" font-family="sans-serif" font-size="14" lengthAdjust="spacing" textLength="302.0117" x="953.03" y="286.222">nameClm : TableColumn&lt;Student, String&gt;</text><g data-visibility-modifier="PRIVATE_FIELD"><rect fill="none" height="6" style="stroke:#C82930;stroke-width:1;" width="6" x="941.03" y="296.1722"/></g><text fill="#000000" font-family="sans-serif" font-size="14" lengthAdjust="spacing" textLength="323.9346" x="953.03" y="302.5189">surnameClm : TableColumn&lt;Student, String&gt;</text><g data-visibility-modifier="PRIVATE_FIELD"><rect fill="none" height="6" style="stroke:#C82930;stroke-width:1;" width="6" x="941.03" y="312.4691"/></g><text fill="#000000" font-family="sans-serif" font-size="14" lengthAdjust="spacing" textLength="328.8428" x="953.03" y="318.8157">studentIdClm : TableColumn&lt;Student, String&gt;</text><g data-visibility-modifier="PRIVATE_FIELD"><rect fill="none" height="6" style="stroke:#C82930;stroke-width:1;" width="6" x="941.03" y="328.7659"/></g><text fill="#000000" font-family="sans-serif" font-size="14" lengthAdjust="spacing" textLength="300.918" x="953.03" y="335.1126">emailClm : TableColumn&lt;Student, String&gt;</text><g data-visibility-modifier="PRIVATE_FIELD"><rect fill="none" height="6" style="stroke:#C82930;stroke-width:1;" width="6" x="941.03" y="345.0628"/></g><text fill="#000000" font-family="sans-serif" font-size="14" lengthAdjust="spacing" textLength="262.2471" x="953.03" y="351.4095">studentRegister : Register&lt;Student&gt;</text><g data-visibility-modifier="PRIVATE_FIELD"><rect fill="none" height="6" style="stroke:#C82930;stroke-width:1;" width="6" x="941.03" y="361.3597"/></g><text fill="#000000" font-family="sans-serif" font-size="14" lengthAdjust="spacing" textLength="258.8018" x="953.03" y="367.7064">sideBarController : SideBarController</text><g data-visibility-modifier="PRIVATE_FIELD"><rect fill="none" height="6" style="stroke:#C82930;stroke-width:1;" width="6" x="941.03" y="377.6566"/></g><text fill="#000000" font-family="sans-serif" font-size="14" lengthAdjust="spacing" textLength="428.21" x="953.03" y="384.0032">studentInsertPopupController : StudentInsertPopupController</text><g data-visibility-modifier="PRIVATE_FIELD"><rect fill="none" height="6" style="stroke:#C82930;stroke-width:1;" width="6" x="941.03" y="393.9534"/></g><text fill="#000000" font-family="sans-serif" font-size="14" lengthAdjust="spacing" textLength="441.1709" x="953.03" y="400.3001">studentModifyPopupController : StudentModifyPopupController</text><line style="stroke:#181818;stroke-width:0.5;" x1="934.03" x2="1426.4353" y1="407.6019" y2="407.6019"/><g data-visibility-modifier="PUBLIC_METHOD"><ellipse cx="944.03" cy="421.2503" fill="#84BE84" rx="3" ry="3" style="stroke:#038048;stroke-width:1;"/></g><text fill="#000000" font-family="sans-serif" font-size="14" lengthAdjust="spacing" textLength="112.5195" x="953.03" y="424.597">initialize() : void</text><g data-visibility-modifier="PRIVATE_METHOD"><rect fill="#F24D5C" height="6" style="stroke:#C82930;stroke-width:1;" width="6" x="941.03" y="434.5472"/></g><text fill="#000000" font-family="sans-serif" font-size="14" lengthAdjust="spacing" textLength="172.915" x="953.03" y="440.8939">openInsertPopup() : void</text><g data-visibility-modifier="PRIVATE_METHOD"><rect fill="#F24D5C" height="6" style="stroke:#C82930;stroke-width:1;" width="6" x="941.03" y="450.8441"/></g><text fill="#000000" font-family="sans-serif" font-size="14" lengthAdjust="spacing" textLength="179.3955" x="953.03" y="457.1907">openModifyPopup() : void</text><g data-visibility-modifier="PRIVATE_METHOD"><rect fill="#F24D5C" height="6" style="stroke:#C82930;stroke-width:1;" width="6" x="941.03" y="467.1409"/></g><text fill="#000000" font-family="sans-serif" font-size="14" lengthAdjust="spacing" textLength="201.9199" x="953.03" y="473.4876">removeFromRegister() : void</text><g data-visibility-modifier="PUBLIC_METHOD"><ellipse cx="944.03" cy="486.4378" fill="#84BE84" rx="3" ry="3" style="stroke:#038048;stroke-width:1;"/></g><text fill="#000000" font-family="sans-serif" font-size="14" lengthAdjust="spacing" textLength="468.4053" x="953.03" y="489.7845">setStudentRegister(in studentRegister : Register&lt;Student&gt;) : void</text></g><!--link MainController to MenuBarController--><g class="link" data-entity-1="MainController" data-entity-2="MenuBarController" data-source-line="77" data-uid="lnk7" id="link_MainController_MenuBarController"><path codeLine="77" d="M888.99,79.89 C900.38,79.89 905.77,79.89 917.16,79.89" fill="none" id="MainController-to-MenuBarController" style="stroke:#181818;stroke-width:1;"/><polygon fill="#181818" points="923.16,79.89,914.16,75.89,918.16,79.89,914.16,83.89,923.16,79.89" style="stroke:#181818;stroke-width:1;"/><text fill="#000000" font-family="sans-serif" font-size="13" lengthAdjust="spacing" textLength="8.271" x="897.0326" y="76.6665">1</text><text fill="#000000" font-family="sans-serif" font-size="13" lengthAdjust="spacing" textLength="8.271" x="907.3255" y="76.5736">1</text></g><!--link MainController to LoanRegisterController--><g class="link" data-entity-1="MainController" data-entity-2="LoanRegisterController" data-source-line="78" data-uid="lnk8" id="link_MainController_LoanRegisterController"><path codeLine="78" d="M687.24,152.97 C687.24,173.74 687.24,191.12 687.24,214.46" fill="none" id="MainController-to-LoanRegisterController" style="stroke:#181818;stroke-width:1;"/><polygon fill="#181818" points="687.24,220.46,691.24,211.46,687.24,215.46,683.24,211.46,687.24,220.46" style="stroke:#181818;stroke-width:1;"/><text fill="#000000" font-family="sans-serif" font-size="13" lengthAdjust="spacing" textLength="8.271" x="678.8721" y="172.7234">1</text><text fill="#000000" font-family="sans-serif" font-size="13" lengthAdjust="spacing" textLength="8.271" x="679.0411" y="209.9997">1</text></g><!--link MainController to BookRegisterController--><g class="link" data-entity-1="MainController" data-entity-2="BookRegisterController" data-source-line="79" data-uid="lnk9" id="link_MainController_BookRegisterController"><path codeLine="79" d="M559.92,153.22 C526.69,172.37 491.02,193.17 458.24,212.78 C452.8,216.03 452.4343,216.2253 446.8943,219.5753" fill="none" id="MainController-to-BookRegisterController" style="stroke:#181818;stroke-width:1;"/><polygon fill="#181818" points="441.76,222.68,451.5312,221.4459,446.0386,220.0928,447.3917,214.6001,441.76,222.68" style="stroke:#181818;stroke-width:1;"/><text fill="#000000" font-family="sans-serif" font-size="13" lengthAdjust="spacing" textLength="8.271" x="539.8268" y="172.7445">1</text><text fill="#000000" font-family="sans-serif" font-size="13" lengthAdjust="spacing" textLength="8.271" x="449.7258" y="214.5805">1</text></g><!--link MainController to StudentRegisterController--><g class="link" data-entity-1="MainController" data-entity-2="StudentRegisterController" data-source-line="80" data-uid="lnk10" id="link_MainController_StudentRegisterController"><path codeLine="80" d="M815.8,153.15 C852.75,173.92 889.0896,194.3502 930.5796,217.6702" fill="none" id="MainController-to-StudentRegisterController" style="stroke:#181818;stroke-width:1;"/><polygon fill="#181818" points="935.81,220.61,929.9242,212.7133,931.4513,218.1601,926.0045,219.6872,935.81,220.61" style="stroke:#181818;stroke-width:1;"/><text fill="#000000" font-family="sans-serif" font-size="13" lengthAdjust="spacing" textLength="8.271" x="819.6854" y="172.9206">1</text><text fill="#000000" font-family="sans-serif" font-size="13" lengthAdjust="spacing" textLength="8.271" x="916.5595" y="211.0689">1</text></g><!--SRC=[lLP1Rvim6BtxLw1UqghZiEiq8ILfAaKZoLJIIJiwuMjgpTZ8DfcwQVzzTe34mpPXXv9BmEzz7_Rpu-79P8pVQh5-dasVq9vYAQCLi6g6nPmp9JYb87wZc9ATmE9jkLbXXWyWeazHsXawaouOGlSIL7DpIrZaCEvGp4jWZuI2mU48J6bqkbU4iuMvkzEtHqvo5Eyfbp28AV5n4F4FceoZxtIvRiN5XDdAtXD65C6K_8BRom9S9MEfgbpF_GaEH2gmTaUJiX26uXtdFxmrCo-W7yqnynQaNW35HTSkckjOQ3IfPvlDbqPg_mf3aXkXjdX7GO-S_hyH-FdPz4XGh8YYCAT5YyqvhGfsGZzezGLX1yt2bNhbGbxbbTME4lcgXLFVGQiKu2-P0lrU9VNSbldrvnyneJLS4f33-hOAQMfxsQvQaXowEvjrnvhPCGb2VULbLJekys9rsOhdvENDN-R5whYmEbexQ12ho48455mdWk15kyGBQ1BATeh9Z5vThFGOoTFfPjh6X_yb3CQ8PhkUDZsISw2uBZ6uvIeZnbMIUTA2vI5UolUOFc05YTaCLGa6-VMUdX0SvaWpcv0Zqn1MbuKScOQmzt5axpTpT0Dcs-U7nNhRU33ujGdPi76QwyIcazvhXWjFlZQuvGcfhJEKMe_uSjCbGw6Zyp-w-jBXifg1Dcrd671grWEVYqD-pNfWz3wUxVZ2U7U0MhQRqR-de-ZcuqqKYpWvNRXd2XyxRzY1qqfVIU14r5SIV1N-0W00]--></g></svg>