<svg xmlns="http://www.w3.org/2000/svg" xmlns:xlink="http://www.w3.org/1999/xlink" contentStyleType="text/css" data-diagram-type="CLASS" height="1109px" preserveAspectRatio="none" style="width:1246px;height:1109px;background:#FFFFFF;" version="1.1" viewBox="0 0 1246 1109" width="1246px" zoomAndPan="magnify"><defs/><g><!--class BookRegisterController--><g class="entity" data-entity="BookRegisterController" data-source-line="4" data-uid="ent0002" id="entity_BookRegisterController"><rect fill="#F1F1F1" height="292.4531" rx="2.5" ry="2.5" style="stroke:#181818;stroke-width:0.5;" width="395.3252" x="431.84" y="408.34"/><ellipse cx="544.11" cy="424.34" fill="#ADD1B2" rx="11" ry="11" style="stroke:#181818;stroke-width:1;"/><path d="M547.0788,429.9806 Q546.5006,430.2775 545.86,430.4181 Q545.2194,430.5744 544.5163,430.5744 Q542.0163,430.5744 540.6881,428.9338 Q539.3756,427.2775 539.3756,424.1525 Q539.3756,421.0275 540.6881,419.3713 Q542.0163,417.715 544.5163,417.715 Q545.2194,417.715 545.86,417.8713 Q546.5163,418.0275 547.0788,418.3244 L547.0788,421.0431 Q546.4538,420.465 545.86,420.1994 Q545.2663,419.9181 544.6413,419.9181 Q543.2975,419.9181 542.61,420.9963 Q541.9225,422.0588 541.9225,424.1525 Q541.9225,426.2463 542.61,427.3244 Q543.2975,428.3869 544.6413,428.3869 Q545.2663,428.3869 545.86,428.1213 Q546.4538,427.84 547.0788,427.2619 L547.0788,429.9806 Z " fill="#000000"/><text fill="#000000" font-family="sans-serif" font-size="14" lengthAdjust="spacing" textLength="162.2852" x="564.61" y="429.1867">BookRegisterController</text><line style="stroke:#181818;stroke-width:0.5;" x1="432.84" x2="826.1652" y1="440.34" y2="440.34"/><g data-visibility-modifier="PRIVATE_FIELD"><rect fill="none" height="6" style="stroke:#C82930;stroke-width:1;" width="6" x="439.84" y="450.9884"/></g><text fill="#000000" font-family="sans-serif" font-size="14" lengthAdjust="spacing" textLength="216.6172" x="451.84" y="457.3351">bookTable : TableView&lt;Book&gt;</text><g data-visibility-modifier="PRIVATE_FIELD"><rect fill="none" height="6" style="stroke:#C82930;stroke-width:1;" width="6" x="439.84" y="467.2853"/></g><text fill="#000000" font-family="sans-serif" font-size="14" lengthAdjust="spacing" textLength="269.4111" x="451.84" y="473.632">titleClm : TableColumn&lt;Book, String&gt;</text><g data-visibility-modifier="PRIVATE_FIELD"><rect fill="none" height="6" style="stroke:#C82930;stroke-width:1;" width="6" x="439.84" y="483.5822"/></g><text fill="#000000" font-family="sans-serif" font-size="14" lengthAdjust="spacing" textLength="295.4697" x="451.84" y="489.9289">authorsClm : TableColumn&lt;Book, String&gt;</text><g data-visibility-modifier="PRIVATE_FIELD"><rect fill="none" height="6" style="stroke:#C82930;stroke-width:1;" width="6" x="439.84" y="499.8791"/></g><text fill="#000000" font-family="sans-serif" font-size="14" lengthAdjust="spacing" textLength="369.3252" x="451.84" y="506.2257">publishmentYearClm : TableColumn&lt;Book, Integer&gt;</text><g data-visibility-modifier="PRIVATE_FIELD"><rect fill="none" height="6" style="stroke:#C82930;stroke-width:1;" width="6" x="439.84" y="516.1759"/></g><text fill="#000000" font-family="sans-serif" font-size="14" lengthAdjust="spacing" textLength="289.1807" x="451.84" y="522.5226">bookIdClm : TableColumn&lt;Book, String&gt;</text><g data-visibility-modifier="PRIVATE_FIELD"><rect fill="none" height="6" style="stroke:#C82930;stroke-width:1;" width="6" x="439.84" y="532.4728"/></g><text fill="#000000" font-family="sans-serif" font-size="14" lengthAdjust="spacing" textLength="360.835" x="451.84" y="538.8195">availableCopiesClm : TableColumn&lt;Book, Integer&gt;</text><g data-visibility-modifier="PRIVATE_FIELD"><rect fill="none" height="6" style="stroke:#C82930;stroke-width:1;" width="6" x="439.84" y="548.7697"/></g><text fill="#000000" font-family="sans-serif" font-size="14" lengthAdjust="spacing" textLength="222.585" x="451.84" y="555.1164">bookRegister : Register&lt;Book&gt;</text><g data-visibility-modifier="PRIVATE_FIELD"><rect fill="none" height="6" style="stroke:#C82930;stroke-width:1;" width="6" x="439.84" y="565.0666"/></g><text fill="#000000" font-family="sans-serif" font-size="14" lengthAdjust="spacing" textLength="258.8018" x="451.84" y="571.4132">sideBarController : SideBarController</text><line style="stroke:#181818;stroke-width:0.5;" x1="432.84" x2="826.1652" y1="578.715" y2="578.715"/><g data-visibility-modifier="PUBLIC_METHOD"><ellipse cx="442.84" cy="592.3634" fill="#84BE84" rx="3" ry="3" style="stroke:#038048;stroke-width:1;"/></g><text fill="#000000" font-family="sans-serif" font-size="14" lengthAdjust="spacing" textLength="186.5596" x="451.84" y="595.7101">BookRegisterController(...)</text><g data-visibility-modifier="PUBLIC_METHOD"><ellipse cx="442.84" cy="608.6603" fill="#84BE84" rx="3" ry="3" style="stroke:#038048;stroke-width:1;"/></g><text fill="#000000" font-family="sans-serif" font-size="14" lengthAdjust="spacing" textLength="112.5195" x="451.84" y="612.007">initialize() : void</text><g data-visibility-modifier="PRIVATE_METHOD"><rect fill="#F24D5C" height="6" style="stroke:#C82930;stroke-width:1;" width="6" x="439.84" y="621.9572"/></g><text fill="#000000" font-family="sans-serif" font-size="14" lengthAdjust="spacing" textLength="172.915" x="451.84" y="628.3039">openInsertPopup() : void</text><g data-visibility-modifier="PRIVATE_METHOD"><rect fill="#F24D5C" height="6" style="stroke:#C82930;stroke-width:1;" width="6" x="439.84" y="638.2541"/></g><text fill="#000000" font-family="sans-serif" font-size="14" lengthAdjust="spacing" textLength="179.3955" x="451.84" y="644.6007">openModifyPopup() : void</text><g data-visibility-modifier="PRIVATE_METHOD"><rect fill="#F24D5C" height="6" style="stroke:#C82930;stroke-width:1;" width="6" x="439.84" y="654.5509"/></g><text fill="#000000" font-family="sans-serif" font-size="14" lengthAdjust="spacing" textLength="201.9199" x="451.84" y="660.8976">removeFromRegister() : void</text><g data-visibility-modifier="PUBLIC_METHOD"><ellipse cx="442.84" cy="673.8478" fill="#84BE84" rx="3" ry="3" style="stroke:#038048;stroke-width:1;"/></g><text fill="#000000" font-family="sans-serif" font-size="14" lengthAdjust="spacing" textLength="175.5469" x="451.84" y="677.1945">updateTableView() : void</text><g data-visibility-modifier="PRIVATE_METHOD"><rect fill="#F24D5C" height="6" style="stroke:#C82930;stroke-width:1;" width="6" x="439.84" y="687.1447"/></g><text fill="#000000" font-family="sans-serif" font-size="14" lengthAdjust="spacing" textLength="135.8232" x="451.84" y="693.4914">searchBook() : void</text></g><!--class SideBarController--><g class="entity" data-entity="SideBarController" data-source-line="4" data-uid="ent0003" id="entity_SideBarController"><rect fill="#F1F1F1" height="178.375" rx="2.5" ry="2.5" style="stroke:#181818;stroke-width:0.5;" width="226.751" x="620.13" y="842.28"/><ellipse cx="667.5612" cy="858.28" fill="#ADD1B2" rx="11" ry="11" style="stroke:#181818;stroke-width:1;"/><path d="M670.5299,863.9206 Q669.9518,864.2175 669.3112,864.3581 Q668.6705,864.5144 667.9674,864.5144 Q665.4674,864.5144 664.1393,862.8738 Q662.8268,861.2175 662.8268,858.0925 Q662.8268,854.9675 664.1393,853.3113 Q665.4674,851.655 667.9674,851.655 Q668.6705,851.655 669.3112,851.8113 Q669.9674,851.9675 670.5299,852.2644 L670.5299,854.9831 Q669.9049,854.405 669.3112,854.1394 Q668.7174,853.8581 668.0924,853.8581 Q666.7487,853.8581 666.0612,854.9363 Q665.3737,855.9988 665.3737,858.0925 Q665.3737,860.1863 666.0612,861.2644 Q666.7487,862.3269 668.0924,862.3269 Q668.7174,862.3269 669.3112,862.0613 Q669.9049,861.78 670.5299,861.2019 L670.5299,863.9206 Z " fill="#000000"/><text fill="#000000" font-family="sans-serif" font-size="14" lengthAdjust="spacing" textLength="123.3887" x="688.0612" y="863.1267">SideBarController</text><line style="stroke:#181818;stroke-width:0.5;" x1="621.13" x2="845.881" y1="874.28" y2="874.28"/><g data-visibility-modifier="PRIVATE_FIELD"><rect fill="none" height="6" style="stroke:#C82930;stroke-width:1;" width="6" x="628.13" y="884.9284"/></g><text fill="#000000" font-family="sans-serif" font-size="14" lengthAdjust="spacing" textLength="110.8311" x="640.13" y="891.2751">addBtn : Button</text><g data-visibility-modifier="PRIVATE_FIELD"><rect fill="none" height="6" style="stroke:#C82930;stroke-width:1;" width="6" x="628.13" y="901.2253"/></g><text fill="#000000" font-family="sans-serif" font-size="14" lengthAdjust="spacing" textLength="165.2451" x="640.13" y="907.572">searchBarTF : TextField</text><g data-visibility-modifier="PRIVATE_FIELD"><rect fill="none" height="6" style="stroke:#C82930;stroke-width:1;" width="6" x="628.13" y="917.5222"/></g><text fill="#000000" font-family="sans-serif" font-size="14" lengthAdjust="spacing" textLength="137.9492" x="640.13" y="923.8689">removeBtn : Button</text><g data-visibility-modifier="PRIVATE_FIELD"><rect fill="none" height="6" style="stroke:#C82930;stroke-width:1;" width="6" x="628.13" y="933.8191"/></g><text fill="#000000" font-family="sans-serif" font-size="14" lengthAdjust="spacing" textLength="132.6719" x="640.13" y="940.1657">modifyBtn : Button</text><line style="stroke:#181818;stroke-width:0.5;" x1="621.13" x2="845.881" y1="947.4675" y2="947.4675"/><g data-visibility-modifier="PUBLIC_METHOD"><ellipse cx="631.13" cy="961.1159" fill="#84BE84" rx="3" ry="3" style="stroke:#038048;stroke-width:1;"/></g><text fill="#000000" font-family="sans-serif" font-size="14" lengthAdjust="spacing" textLength="145.7422" x="640.13" y="964.4626">getAddBtn() : Button</text><g data-visibility-modifier="PUBLIC_METHOD"><ellipse cx="631.13" cy="977.4128" fill="#84BE84" rx="3" ry="3" style="stroke:#038048;stroke-width:1;"/></g><text fill="#000000" font-family="sans-serif" font-size="14" lengthAdjust="spacing" textLength="200.751" x="640.13" y="980.7595">getSearchBarTF() : TextField</text><g data-visibility-modifier="PUBLIC_METHOD"><ellipse cx="631.13" cy="993.7097" fill="#84BE84" rx="3" ry="3" style="stroke:#038048;stroke-width:1;"/></g><text fill="#000000" font-family="sans-serif" font-size="14" lengthAdjust="spacing" textLength="175.834" x="640.13" y="997.0564">getRemoveBtn() : Button</text><g data-visibility-modifier="PUBLIC_METHOD"><ellipse cx="631.13" cy="1010.0066" fill="#84BE84" rx="3" ry="3" style="stroke:#038048;stroke-width:1;"/></g><text fill="#000000" font-family="sans-serif" font-size="14" lengthAdjust="spacing" textLength="165.0264" x="640.13" y="1013.3532">getModifyBtn() : Button</text></g><!--class Register<T>--><g class="entity" data-entity="Register.T." data-source-line="5" data-uid="ent0005" id="entity_Register.T."><rect fill="#F1F1F1" height="129.4844" rx="2.5" ry="2.5" style="stroke:#181818;stroke-width:0.5;" width="212.7578" x="357.13" y="866.73"/><ellipse cx="414.1178" cy="882.73" fill="#B4A7E5" rx="11" ry="11" style="stroke:#181818;stroke-width:1;"/><path d="M410.0397,878.4956 L410.0397,876.3394 L417.4303,876.3394 L417.4303,878.4956 L414.9615,878.4956 L414.9615,886.5738 L417.4303,886.5738 L417.4303,888.73 L410.0397,888.73 L410.0397,886.5738 L412.5084,886.5738 L412.5084,878.4956 L410.0397,878.4956 Z " fill="#000000"/><text fill="#000000" font-family="sans-serif" font-size="14" font-style="italic" lengthAdjust="spacing" textLength="90.2822" x="434.6178" y="887.5767">Register&lt;T&gt;</text><line style="stroke:#181818;stroke-width:0.5;" x1="358.13" x2="568.8878" y1="898.73" y2="898.73"/><line style="stroke:#181818;stroke-width:0.5;" x1="358.13" x2="568.8878" y1="906.73" y2="906.73"/><g data-visibility-modifier="PUBLIC_METHOD"><ellipse cx="368.13" cy="920.3784" fill="#84BE84" rx="3" ry="3" style="stroke:#038048;stroke-width:1;"/></g><text fill="#000000" font-family="sans-serif" font-size="14" lengthAdjust="spacing" textLength="93.8711" x="377.13" y="923.7251">add(...) : void</text><g data-visibility-modifier="PUBLIC_METHOD"><ellipse cx="368.13" cy="936.6753" fill="#84BE84" rx="3" ry="3" style="stroke:#038048;stroke-width:1;"/></g><text fill="#000000" font-family="sans-serif" font-size="14" lengthAdjust="spacing" textLength="115.7119" x="377.13" y="940.022">modify(...) : void</text><g data-visibility-modifier="PUBLIC_METHOD"><ellipse cx="368.13" cy="952.9722" fill="#84BE84" rx="3" ry="3" style="stroke:#038048;stroke-width:1;"/></g><text fill="#000000" font-family="sans-serif" font-size="14" lengthAdjust="spacing" textLength="120.9893" x="377.13" y="956.3189">remove(...) : void</text><g data-visibility-modifier="PUBLIC_METHOD"><ellipse cx="368.13" cy="969.2691" fill="#84BE84" rx="3" ry="3" style="stroke:#038048;stroke-width:1;"/></g><text fill="#000000" font-family="sans-serif" font-size="14" lengthAdjust="spacing" textLength="154.4307" x="377.13" y="972.6157">isUnique(...) : boolean</text><g data-visibility-modifier="PUBLIC_METHOD"><ellipse cx="368.13" cy="985.5659" fill="#84BE84" rx="3" ry="3" style="stroke:#038048;stroke-width:1;"/></g><text fill="#000000" font-family="sans-serif" font-size="14" lengthAdjust="spacing" textLength="186.7578" x="377.13" y="988.9126">getRegisterList() : List&lt;T&gt;</text></g><!--class BookInsertPopupController--><g class="entity" data-entity="BookInsertPopupController" data-source-line="6" data-uid="ent0007" id="entity_BookInsertPopupController"><rect fill="#F1F1F1" height="113.1875" rx="2.5" ry="2.5" style="stroke:#181818;stroke-width:0.5;" width="375.0088" x="7" y="497.98"/><ellipse cx="96.3423" cy="513.98" fill="#ADD1B2" rx="11" ry="11" style="stroke:#181818;stroke-width:1;"/><path d="M99.311,519.6206 Q98.7329,519.9175 98.0923,520.0581 Q97.4517,520.2144 96.7485,520.2144 Q94.2485,520.2144 92.9204,518.5738 Q91.6079,516.9175 91.6079,513.7925 Q91.6079,510.6675 92.9204,509.0113 Q94.2485,507.355 96.7485,507.355 Q97.4517,507.355 98.0923,507.5113 Q98.7485,507.6675 99.311,507.9644 L99.311,510.6831 Q98.686,510.105 98.0923,509.8394 Q97.4985,509.5581 96.8735,509.5581 Q95.5298,509.5581 94.8423,510.6363 Q94.1548,511.6988 94.1548,513.7925 Q94.1548,515.8863 94.8423,516.9644 Q95.5298,518.0269 96.8735,518.0269 Q97.4985,518.0269 98.0923,517.7613 Q98.686,517.48 99.311,516.9019 L99.311,519.6206 Z " fill="#000000"/><text fill="#000000" font-family="sans-serif" font-size="14" lengthAdjust="spacing" textLength="187.8242" x="116.8423" y="518.8267">BookInsertPopupController</text><line style="stroke:#181818;stroke-width:0.5;" x1="8" x2="381.0088" y1="529.98" y2="529.98"/><g data-visibility-modifier="PRIVATE_FIELD"><rect fill="none" height="6" style="stroke:#C82930;stroke-width:1;" width="6" x="15" y="540.6284"/></g><text fill="#000000" font-family="sans-serif" font-size="14" lengthAdjust="spacing" textLength="306.0244" x="27" y="546.9751">bookRegisterAdder : RegisterAdder&lt;Book&gt;</text><g data-visibility-modifier="PRIVATE_FIELD"><rect fill="none" height="6" style="stroke:#C82930;stroke-width:1;" width="6" x="15" y="556.9253"/></g><text fill="#000000" font-family="sans-serif" font-size="14" lengthAdjust="spacing" textLength="349.0088" x="27" y="563.272">bookRegisterValidator : RegisterValidator&lt;Book&gt;</text><line style="stroke:#181818;stroke-width:0.5;" x1="8" x2="381.0088" y1="570.5738" y2="570.5738"/><g data-visibility-modifier="PUBLIC_METHOD"><ellipse cx="18" cy="584.2222" fill="#84BE84" rx="3" ry="3" style="stroke:#038048;stroke-width:1;"/></g><text fill="#000000" font-family="sans-serif" font-size="14" lengthAdjust="spacing" textLength="212.0986" x="27" y="587.5689">BookInsertPopupController(...)</text><g data-visibility-modifier="PUBLIC_METHOD"><ellipse cx="18" cy="600.5191" fill="#84BE84" rx="3" ry="3" style="stroke:#038048;stroke-width:1;"/></g><text fill="#000000" font-family="sans-serif" font-size="14" lengthAdjust="spacing" textLength="112.5195" x="27" y="603.8657">initialize() : void</text></g><!--class BookModifyPopupController--><g class="entity" data-entity="BookModifyPopupController" data-source-line="7" data-uid="ent0010" id="entity_BookModifyPopupController"><rect fill="#F1F1F1" height="113.1875" rx="2.5" ry="2.5" style="stroke:#181818;stroke-width:0.5;" width="361.8018" x="877.6" y="497.98"/><ellipse cx="957.0985" cy="513.98" fill="#ADD1B2" rx="11" ry="11" style="stroke:#181818;stroke-width:1;"/><path d="M960.0673,519.6206 Q959.4892,519.9175 958.8485,520.0581 Q958.2079,520.2144 957.5048,520.2144 Q955.0048,520.2144 953.6767,518.5738 Q952.3642,516.9175 952.3642,513.7925 Q952.3642,510.6675 953.6767,509.0113 Q955.0048,507.355 957.5048,507.355 Q958.2079,507.355 958.8485,507.5113 Q959.5048,507.6675 960.0673,507.9644 L960.0673,510.6831 Q959.4423,510.105 958.8485,509.8394 Q958.2548,509.5581 957.6298,509.5581 Q956.286,509.5581 955.5985,510.6363 Q954.911,511.6988 954.911,513.7925 Q954.911,515.8863 955.5985,516.9644 Q956.286,518.0269 957.6298,518.0269 Q958.2548,518.0269 958.8485,517.7613 Q959.4423,517.48 960.0673,516.9019 L960.0673,519.6206 Z " fill="#000000"/><text fill="#000000" font-family="sans-serif" font-size="14" lengthAdjust="spacing" textLength="194.3047" x="977.5985" y="518.8267">BookModifyPopupController</text><line style="stroke:#181818;stroke-width:0.5;" x1="878.6" x2="1238.4018" y1="529.98" y2="529.98"/><g data-visibility-modifier="PRIVATE_FIELD"><rect fill="none" height="6" style="stroke:#C82930;stroke-width:1;" width="6" x="885.6" y="540.6284"/></g><text fill="#000000" font-family="sans-serif" font-size="14" lengthAdjust="spacing" textLength="335.8018" x="897.6" y="546.9751">bookRegisterModifier : RegisterModifier&lt;Book&gt;</text><g data-visibility-modifier="PRIVATE_FIELD"><rect fill="none" height="6" style="stroke:#C82930;stroke-width:1;" width="6" x="885.6" y="556.9253"/></g><text fill="#000000" font-family="sans-serif" font-size="14" lengthAdjust="spacing" textLength="146.3369" x="897.6" y="563.272">bookToModify : Book</text><line style="stroke:#181818;stroke-width:0.5;" x1="878.6" x2="1238.4018" y1="570.5738" y2="570.5738"/><g data-visibility-modifier="PUBLIC_METHOD"><ellipse cx="888.6" cy="584.2222" fill="#84BE84" rx="3" ry="3" style="stroke:#038048;stroke-width:1;"/></g><text fill="#000000" font-family="sans-serif" font-size="14" lengthAdjust="spacing" textLength="218.5791" x="897.6" y="587.5689">BookModifyPopupController(...)</text><g data-visibility-modifier="PUBLIC_METHOD"><ellipse cx="888.6" cy="600.5191" fill="#84BE84" rx="3" ry="3" style="stroke:#038048;stroke-width:1;"/></g><text fill="#000000" font-family="sans-serif" font-size="14" lengthAdjust="spacing" textLength="112.5195" x="897.6" y="603.8657">initialize() : void</text></g><!--class RegisterAdder<T>--><g class="entity" data-entity="RegisterAdder.T." data-source-line="9" data-uid="ent0012" id="entity_RegisterAdder.T."><rect fill="#F1F1F1" height="64.2969" rx="2.5" ry="2.5" style="stroke:#181818;stroke-width:0.5;" width="164.002" x="112.5" y="145.52"/><ellipse cx="127.5" cy="161.52" fill="#B4A7E5" rx="11" ry="11" style="stroke:#181818;stroke-width:1;"/><path d="M123.4219,157.2856 L123.4219,155.1294 L130.8125,155.1294 L130.8125,157.2856 L128.3438,157.2856 L128.3438,165.3638 L130.8125,165.3638 L130.8125,167.52 L123.4219,167.52 L123.4219,165.3638 L125.8906,165.3638 L125.8906,157.2856 L123.4219,157.2856 Z " fill="#000000"/><text fill="#000000" font-family="sans-serif" font-size="14" font-style="italic" lengthAdjust="spacing" textLength="132.002" x="141.5" y="166.3667">RegisterAdder&lt;T&gt;</text><line style="stroke:#181818;stroke-width:0.5;" x1="113.5" x2="275.502" y1="177.52" y2="177.52"/><line style="stroke:#181818;stroke-width:0.5;" x1="113.5" x2="275.502" y1="185.52" y2="185.52"/><g data-visibility-modifier="PUBLIC_METHOD"><ellipse cx="123.5" cy="199.1684" fill="#84BE84" rx="3" ry="3" style="stroke:#038048;stroke-width:1;"/></g><text fill="#000000" font-family="sans-serif" font-size="14" lengthAdjust="spacing" textLength="93.8711" x="132.5" y="202.5151">add(...) : void</text></g><!--class RegisterValidator<T>--><g class="entity" data-entity="RegisterValidator.T." data-source-line="10" data-uid="ent0015" id="entity_RegisterValidator.T."><rect fill="#F1F1F1" height="64.2969" rx="2.5" ry="2.5" style="stroke:#181818;stroke-width:0.5;" width="185.4941" x="101.76" y="899.32"/><ellipse cx="116.76" cy="915.32" fill="#B4A7E5" rx="11" ry="11" style="stroke:#181818;stroke-width:1;"/><path d="M112.6819,911.0856 L112.6819,908.9294 L120.0725,908.9294 L120.0725,911.0856 L117.6038,911.0856 L117.6038,919.1638 L120.0725,919.1638 L120.0725,921.32 L112.6819,921.32 L112.6819,919.1638 L115.1506,919.1638 L115.1506,911.0856 L112.6819,911.0856 Z " fill="#000000"/><text fill="#000000" font-family="sans-serif" font-size="14" font-style="italic" lengthAdjust="spacing" textLength="153.4941" x="130.76" y="920.1667">RegisterValidator&lt;T&gt;</text><line style="stroke:#181818;stroke-width:0.5;" x1="102.76" x2="286.2541" y1="931.32" y2="931.32"/><line style="stroke:#181818;stroke-width:0.5;" x1="102.76" x2="286.2541" y1="939.32" y2="939.32"/><g data-visibility-modifier="PUBLIC_METHOD"><ellipse cx="112.76" cy="952.9684" fill="#84BE84" rx="3" ry="3" style="stroke:#038048;stroke-width:1;"/></g><text fill="#000000" font-family="sans-serif" font-size="14" lengthAdjust="spacing" textLength="154.4307" x="121.76" y="956.3151">isUnique(...) : boolean</text></g><!--class BookPopupController--><g class="entity" data-entity="BookPopupController" data-source-line="11" data-uid="ent0017" id="entity_BookPopupController"><rect fill="#F1F1F1" height="341.3438" rx="2.5" ry="2.5" style="stroke:#181818;stroke-width:0.5;" width="299.4307" x="473.79" y="7"/><ellipse cx="545.4204" cy="23" fill="#A9DCDF" rx="11" ry="11" style="stroke:#181818;stroke-width:1;"/><path d="M545.5297,18.3438 L544.3735,23.4219 L546.7016,23.4219 L545.5297,18.3438 Z M544.0454,16.1094 L547.0297,16.1094 L550.3891,28.5 L547.936,28.5 L547.1704,25.4375 L543.8891,25.4375 L543.1391,28.5 L540.7016,28.5 L544.0454,16.1094 Z " fill="#000000"/><text fill="#000000" font-family="sans-serif" font-size="14" font-style="italic" lengthAdjust="spacing" textLength="147.6699" x="565.9204" y="27.8467">BookPopupController</text><line style="stroke:#181818;stroke-width:0.5;" x1="474.79" x2="772.2207" y1="39" y2="39"/><g data-visibility-modifier="PROTECTED_FIELD"><polygon fill="none" points="484.79,47.6484,488.79,51.6484,484.79,55.6484,480.79,51.6484" style="stroke:#B38D22;stroke-width:1;"/></g><text fill="#000000" font-family="sans-serif" font-size="14" lengthAdjust="spacing" textLength="121.8643" x="493.79" y="55.9951">titleTF : TextField</text><g data-visibility-modifier="PROTECTED_FIELD"><polygon fill="none" points="484.79,63.9453,488.79,67.9453,484.79,71.9453,480.79,67.9453" style="stroke:#B38D22;stroke-width:1;"/></g><text fill="#000000" font-family="sans-serif" font-size="14" lengthAdjust="spacing" textLength="163.584" x="493.79" y="72.292">authorsListVBox : VBox</text><g data-visibility-modifier="PROTECTED_FIELD"><polygon fill="none" points="484.79,80.2422,488.79,84.2422,484.79,88.2422,480.79,84.2422" style="stroke:#B38D22;stroke-width:1;"/></g><text fill="#000000" font-family="sans-serif" font-size="14" lengthAdjust="spacing" textLength="150.5342" x="493.79" y="88.5889">Author1TF : TextField</text><g data-visibility-modifier="PROTECTED_FIELD"><polygon fill="none" points="484.79,96.5391,488.79,100.5391,484.79,104.5391,480.79,100.5391" style="stroke:#B38D22;stroke-width:1;"/></g><text fill="#000000" font-family="sans-serif" font-size="14" lengthAdjust="spacing" textLength="176.5859" x="493.79" y="104.8857">publishYearTF : TextField</text><g data-visibility-modifier="PROTECTED_FIELD"><polygon fill="none" points="484.79,112.8359,488.79,116.8359,484.79,120.8359,480.79,116.8359" style="stroke:#B38D22;stroke-width:1;"/></g><text fill="#000000" font-family="sans-serif" font-size="14" lengthAdjust="spacing" textLength="139.4395" x="493.79" y="121.1826">copiesTF : TextField</text><g data-visibility-modifier="PROTECTED_FIELD"><polygon fill="none" points="484.79,129.1328,488.79,133.1328,484.79,137.1328,480.79,133.1328" style="stroke:#B38D22;stroke-width:1;"/></g><text fill="#000000" font-family="sans-serif" font-size="14" lengthAdjust="spacing" textLength="164.459" x="493.79" y="137.4795">bookCodeTF : TextField</text><g data-visibility-modifier="PROTECTED_FIELD"><polygon fill="none" points="484.79,145.4297,488.79,149.4297,484.79,153.4297,480.79,149.4297" style="stroke:#B38D22;stroke-width:1;"/></g><text fill="#000000" font-family="sans-serif" font-size="14" lengthAdjust="spacing" textLength="137.8262" x="493.79" y="153.7764">confirmBtn : Button</text><g data-visibility-modifier="PROTECTED_FIELD"><polygon fill="none" points="484.79,161.7266,488.79,165.7266,484.79,169.7266,480.79,165.7266" style="stroke:#B38D22;stroke-width:1;"/></g><text fill="#000000" font-family="sans-serif" font-size="14" lengthAdjust="spacing" textLength="129.8281" x="493.79" y="170.0732">cancelBtn : Button</text><g data-visibility-modifier="PROTECTED_FIELD"><polygon fill="none" points="484.79,178.0234,488.79,182.0234,484.79,186.0234,480.79,182.0234" style="stroke:#B38D22;stroke-width:1;"/></g><text fill="#000000" font-family="sans-serif" font-size="14" lengthAdjust="spacing" textLength="165.2588" x="493.79" y="186.3701">addAuthorsBtn : Button</text><g data-visibility-modifier="PROTECTED_FIELD"><polygon fill="none" points="484.79,194.3203,488.79,198.3203,484.79,202.3203,480.79,198.3203" style="stroke:#B38D22;stroke-width:1;"/></g><text fill="#000000" font-family="sans-serif" font-size="14" lengthAdjust="spacing" textLength="273.4307" x="493.79" y="202.667">dynamicAuthorFields : List&lt;TextField&gt;</text><g data-visibility-modifier="PRIVATE_FIELD"><rect fill="none" height="6" style="stroke:#C82930;stroke-width:1;" width="6" x="481.79" y="212.6172"/></g><text fill="#000000" font-family="sans-serif" font-size="14" lengthAdjust="spacing" textLength="137.5869" x="493.79" y="218.9639">removeImg : Image</text><line style="stroke:#181818;stroke-width:0.5;" x1="474.79" x2="772.2207" y1="226.2656" y2="226.2656"/><g data-visibility-modifier="PUBLIC_METHOD"><ellipse cx="484.79" cy="239.9141" fill="#84BE84" rx="3" ry="3" style="stroke:#038048;stroke-width:1;"/></g><text fill="#000000" font-family="sans-serif" font-size="14" lengthAdjust="spacing" textLength="112.5195" x="493.79" y="243.2607">initialize() : void</text><g data-visibility-modifier="PRIVATE_METHOD"><rect fill="#F24D5C" height="6" style="stroke:#C82930;stroke-width:1;" width="6" x="481.79" y="253.2109"/></g><text fill="#000000" font-family="sans-serif" font-size="14" lengthAdjust="spacing" textLength="196.499" x="493.79" y="259.5576">createAuthorRow(...) : HBox</text><g data-visibility-modifier="PROTECTED_METHOD"><polygon fill="#FFFF44" points="484.79,267.5078,488.79,271.5078,484.79,275.5078,480.79,271.5078" style="stroke:#B38D22;stroke-width:1;"/></g><text fill="#000000" font-family="sans-serif" font-size="14" lengthAdjust="spacing" textLength="259.7998" x="493.79" y="275.8545">getAuthorsListPopup() : List&lt;String&gt;</text><g data-visibility-modifier="PRIVATE_METHOD"><rect fill="#F24D5C" height="6" style="stroke:#C82930;stroke-width:1;" width="6" x="481.79" y="285.8047"/></g><text fill="#000000" font-family="sans-serif" font-size="14" lengthAdjust="spacing" textLength="148.2988" x="493.79" y="292.1514">addAuthors(...) : void</text><g data-visibility-modifier="PUBLIC_METHOD"><ellipse cx="484.79" cy="305.1016" fill="#84BE84" rx="3" ry="3" style="stroke:#038048;stroke-width:1;"/></g><text fill="#000000" font-family="sans-serif" font-size="14" font-style="italic" lengthAdjust="spacing" textLength="188.9248" x="493.79" y="308.4482">confirmBtnAction(...) : void</text><g data-visibility-modifier="PUBLIC_METHOD"><ellipse cx="484.79" cy="321.3984" fill="#84BE84" rx="3" ry="3" style="stroke:#038048;stroke-width:1;"/></g><text fill="#000000" font-family="sans-serif" font-size="14" lengthAdjust="spacing" textLength="180.9268" x="493.79" y="324.7451">cancelBtnAction(...) : void</text><g data-visibility-modifier="PROTECTED_METHOD"><polygon fill="#FFFF44" points="484.79,332.6953,488.79,336.6953,484.79,340.6953,480.79,336.6953" style="stroke:#B38D22;stroke-width:1;"/></g><text fill="#000000" font-family="sans-serif" font-size="14" lengthAdjust="spacing" textLength="137.0264" x="493.79" y="341.042">showAlert(...) : void</text></g><!--class RegisterModifier<T>--><g class="entity" data-entity="RegisterModifier.T." data-source-line="14" data-uid="ent0020" id="entity_RegisterModifier.T."><rect fill="#F1F1F1" height="64.2969" rx="2.5" ry="2.5" style="stroke:#181818;stroke-width:0.5;" width="178.8906" x="969.06" y="145.52"/><ellipse cx="984.06" cy="161.52" fill="#B4A7E5" rx="11" ry="11" style="stroke:#181818;stroke-width:1;"/><path d="M979.9819,157.2856 L979.9819,155.1294 L987.3725,155.1294 L987.3725,157.2856 L984.9038,157.2856 L984.9038,165.3638 L987.3725,165.3638 L987.3725,167.52 L979.9819,167.52 L979.9819,165.3638 L982.4506,165.3638 L982.4506,157.2856 L979.9819,157.2856 Z " fill="#000000"/><text fill="#000000" font-family="sans-serif" font-size="14" font-style="italic" lengthAdjust="spacing" textLength="146.8906" x="998.06" y="166.3667">RegisterModifier&lt;T&gt;</text><line style="stroke:#181818;stroke-width:0.5;" x1="970.06" x2="1146.9506" y1="177.52" y2="177.52"/><line style="stroke:#181818;stroke-width:0.5;" x1="970.06" x2="1146.9506" y1="185.52" y2="185.52"/><g data-visibility-modifier="PUBLIC_METHOD"><ellipse cx="980.06" cy="199.1684" fill="#84BE84" rx="3" ry="3" style="stroke:#038048;stroke-width:1;"/></g><text fill="#000000" font-family="sans-serif" font-size="14" lengthAdjust="spacing" textLength="115.7119" x="989.06" y="202.5151">modify(...) : void</text></g><!--class Book--><g class="entity" data-entity="Book" data-source-line="16" data-uid="ent0025" id="entity_Book"><rect fill="#F1F1F1" height="341.3438" rx="2.5" ry="2.5" style="stroke:#181818;stroke-width:0.5;" width="284.1318" x="916.44" y="760.8"/><ellipse cx="1036.8345" cy="776.8" fill="#ADD1B2" rx="11" ry="11" style="stroke:#181818;stroke-width:1;"/><path d="M1039.8033,782.4406 Q1039.2252,782.7375 1038.5845,782.8781 Q1037.9439,783.0344 1037.2408,783.0344 Q1034.7408,783.0344 1033.4127,781.3938 Q1032.1002,779.7375 1032.1002,776.6125 Q1032.1002,773.4875 1033.4127,771.8313 Q1034.7408,770.175 1037.2408,770.175 Q1037.9439,770.175 1038.5845,770.3313 Q1039.2408,770.4875 1039.8033,770.7844 L1039.8033,773.5031 Q1039.1783,772.925 1038.5845,772.6594 Q1037.9908,772.3781 1037.3658,772.3781 Q1036.022,772.3781 1035.3345,773.4563 Q1034.647,774.5188 1034.647,776.6125 Q1034.647,778.7063 1035.3345,779.7844 Q1036.022,780.8469 1037.3658,780.8469 Q1037.9908,780.8469 1038.5845,780.5813 Q1039.1783,780.3 1039.8033,779.7219 L1039.8033,782.4406 Z " fill="#000000"/><text fill="#000000" font-family="sans-serif" font-size="14" lengthAdjust="spacing" textLength="34.8428" x="1057.3345" y="781.6467">Book</text><line style="stroke:#181818;stroke-width:0.5;" x1="917.44" x2="1199.5718" y1="792.8" y2="792.8"/><g data-visibility-modifier="PRIVATE_FIELD"><rect fill="none" height="6" style="stroke:#C82930;stroke-width:1;" width="6" x="924.44" y="803.4484"/></g><text fill="#000000" font-family="sans-serif" font-size="14" lengthAdjust="spacing" textLength="82.7695" x="936.44" y="809.7951">title : String</text><g data-visibility-modifier="PRIVATE_FIELD"><rect fill="none" height="6" style="stroke:#C82930;stroke-width:1;" width="6" x="924.44" y="819.7453"/></g><text fill="#000000" font-family="sans-serif" font-size="14" lengthAdjust="spacing" textLength="156.7617" x="936.44" y="826.092">authors : List&lt;String&gt;</text><g data-visibility-modifier="PRIVATE_FIELD"><rect fill="none" height="6" style="stroke:#C82930;stroke-width:1;" width="6" x="924.44" y="836.0422"/></g><text fill="#000000" font-family="sans-serif" font-size="14" lengthAdjust="spacing" textLength="188.7061" x="936.44" y="842.3889">bookId : String {readOnly}</text><g data-visibility-modifier="PRIVATE_FIELD"><rect fill="none" height="6" style="stroke:#C82930;stroke-width:1;" width="6" x="924.44" y="852.3391"/></g><text fill="#000000" font-family="sans-serif" font-size="14" lengthAdjust="spacing" textLength="150.5752" x="936.44" y="858.6857">publishmentYear : int</text><g data-visibility-modifier="PRIVATE_FIELD"><rect fill="none" height="6" style="stroke:#C82930;stroke-width:1;" width="6" x="924.44" y="868.6359"/></g><text fill="#000000" font-family="sans-serif" font-size="14" lengthAdjust="spacing" textLength="142.085" x="936.44" y="874.9826">availableCopies : int</text><line style="stroke:#181818;stroke-width:0.5;" x1="917.44" x2="1199.5718" y1="882.2844" y2="882.2844"/><g data-visibility-modifier="PUBLIC_METHOD"><ellipse cx="927.44" cy="895.9328" fill="#84BE84" rx="3" ry="3" style="stroke:#038048;stroke-width:1;"/></g><text fill="#000000" font-family="sans-serif" font-size="14" lengthAdjust="spacing" textLength="59.1172" x="936.44" y="899.2795">Book(...)</text><g data-visibility-modifier="PUBLIC_METHOD"><ellipse cx="927.44" cy="912.2297" fill="#84BE84" rx="3" ry="3" style="stroke:#038048;stroke-width:1;"/></g><text fill="#000000" font-family="sans-serif" font-size="14" lengthAdjust="spacing" textLength="119.7451" x="936.44" y="915.5764">getTitle() : String</text><g data-visibility-modifier="PUBLIC_METHOD"><ellipse cx="927.44" cy="928.5266" fill="#84BE84" rx="3" ry="3" style="stroke:#038048;stroke-width:1;"/></g><text fill="#000000" font-family="sans-serif" font-size="14" lengthAdjust="spacing" textLength="191.6729" x="936.44" y="931.8732">getAuthors() : List&lt;String&gt;</text><g data-visibility-modifier="PUBLIC_METHOD"><ellipse cx="927.44" cy="944.8234" fill="#84BE84" rx="3" ry="3" style="stroke:#038048;stroke-width:1;"/></g><text fill="#000000" font-family="sans-serif" font-size="14" lengthAdjust="spacing" textLength="137.1699" x="936.44" y="948.1701">getBookId() : String</text><g data-visibility-modifier="PUBLIC_METHOD"><ellipse cx="927.44" cy="961.1203" fill="#84BE84" rx="3" ry="3" style="stroke:#038048;stroke-width:1;"/></g><text fill="#000000" font-family="sans-serif" font-size="14" lengthAdjust="spacing" textLength="184.0439" x="936.44" y="964.467">getPublishmentYear() : int</text><g data-visibility-modifier="PUBLIC_METHOD"><ellipse cx="927.44" cy="977.4172" fill="#84BE84" rx="3" ry="3" style="stroke:#038048;stroke-width:1;"/></g><text fill="#000000" font-family="sans-serif" font-size="14" lengthAdjust="spacing" textLength="176.9961" x="936.44" y="980.7639">getAvailableCopies() : int</text><g data-visibility-modifier="PUBLIC_METHOD"><ellipse cx="927.44" cy="993.7141" fill="#84BE84" rx="3" ry="3" style="stroke:#038048;stroke-width:1;"/></g><text fill="#000000" font-family="sans-serif" font-size="14" lengthAdjust="spacing" textLength="200.1289" x="936.44" y="997.0607">setAvailableCopies(...) : void</text><g data-visibility-modifier="PUBLIC_METHOD"><ellipse cx="927.44" cy="1010.0109" fill="#84BE84" rx="3" ry="3" style="stroke:#038048;stroke-width:1;"/></g><text fill="#000000" font-family="sans-serif" font-size="14" lengthAdjust="spacing" textLength="100.9531" x="936.44" y="1013.3576">copy(...) : void</text><g data-visibility-modifier="PUBLIC_METHOD"><ellipse cx="927.44" cy="1026.3078" fill="#84BE84" rx="3" ry="3" style="stroke:#038048;stroke-width:1;"/></g><text fill="#000000" font-family="sans-serif" font-size="14" lengthAdjust="spacing" textLength="212.0781" x="936.44" y="1029.6545">isAvailableForLoan() : boolean</text><g data-visibility-modifier="PRIVATE_METHOD"><rect fill="#F24D5C" height="6" style="stroke:#C82930;stroke-width:1;" width="6" x="924.44" y="1039.6047"/></g><text fill="#000000" font-family="sans-serif" font-size="14" lengthAdjust="spacing" textLength="126.5195" x="936.44" y="1045.9514">isValid() : boolean</text><g data-visibility-modifier="PRIVATE_METHOD"><rect fill="#F24D5C" height="6" style="stroke:#C82930;stroke-width:1;" width="6" x="924.44" y="1055.9016"/></g><text fill="#000000" font-family="sans-serif" font-size="14" lengthAdjust="spacing" textLength="187.7285" x="936.44" y="1062.2482">isBookIdValid(...) : boolean</text><g data-visibility-modifier="PRIVATE_METHOD"><rect fill="#F24D5C" height="6" style="stroke:#C82930;stroke-width:1;" width="6" x="924.44" y="1072.1984"/></g><text fill="#000000" font-family="sans-serif" font-size="14" lengthAdjust="spacing" textLength="258.1318" x="936.44" y="1078.5451">isPublishmentYearValid(...) : boolean</text><g data-visibility-modifier="PRIVATE_METHOD"><rect fill="#F24D5C" height="6" style="stroke:#C82930;stroke-width:1;" width="6" x="924.44" y="1088.4953"/></g><text fill="#000000" font-family="sans-serif" font-size="14" lengthAdjust="spacing" textLength="251.084" x="936.44" y="1094.842">isAvailableCopiesValid(...) : boolean</text></g><!--link BookRegisterController to SideBarController--><g class="link" data-entity-1="BookRegisterController" data-entity-2="SideBarController" data-link-type="dependency" data-source-line="4" data-uid="lnk4" id="link_BookRegisterController_SideBarController"><path codeLine="4" d="M669.86,701.05 C683.05,748.6 695.6848,794.1587 707.3548,836.1887" fill="none" id="BookRegisterController-to-SideBarController" style="stroke:#181818;stroke-width:1;"/><polygon fill="#181818" points="708.96,841.97,710.4064,832.2279,707.6223,837.1523,702.698,834.3682,708.96,841.97" style="stroke:#181818;stroke-width:1;"/><text fill="#000000" font-family="sans-serif" font-size="13" lengthAdjust="spacing" textLength="8.271" x="663.7417" y="721.0601">1</text><text fill="#000000" font-family="sans-serif" font-size="13" lengthAdjust="spacing" textLength="8.271" x="698.6961" y="831.3127">1</text></g><!--link BookRegisterController to Register<T>--><g class="link" data-entity-1="BookRegisterController" data-entity-2="Register.T." data-link-type="dependency" data-source-line="5" data-uid="lnk6" id="link_BookRegisterController_Register.T."><path codeLine="5" d="M565.09,701.05 C539.75,758.27 514.4089,815.5036 494.3189,860.8836" fill="none" id="BookRegisterController-to-Register&lt;T&gt;" style="stroke:#181818;stroke-width:1;"/><polygon fill="#181818" points="491.89,866.37,499.1909,859.7596,493.9141,861.798,491.8757,856.5212,491.89,866.37" style="stroke:#181818;stroke-width:1;"/><text fill="#000000" font-family="sans-serif" font-size="13" lengthAdjust="spacing" textLength="8.271" x="553.5695" y="721.0601">1</text><text fill="#000000" font-family="sans-serif" font-size="13" lengthAdjust="spacing" textLength="8.271" x="486.5715" y="855.5033">1</text></g><!--reverse link BookInsertPopupController to BookRegisterController--><g class="link" data-entity-1="BookInsertPopupController" data-entity-2="BookRegisterController" data-link-type="dependency" data-source-line="6" data-uid="lnk9" id="link_BookInsertPopupController_BookRegisterController"><path codeLine="6" d="M388.27,554.57 C404.69,554.57 415.1,554.57 431.52,554.57" fill="none" id="BookInsertPopupController-backto-BookRegisterController" style="stroke:#181818;stroke-width:1;stroke-dasharray:7,7;"/><polygon fill="#181818" points="382.27,554.57,391.27,558.57,387.27,554.57,391.27,550.57,382.27,554.57" style="stroke:#181818;stroke-width:1;"/></g><!--link BookRegisterController to BookModifyPopupController--><g class="link" data-entity-1="BookRegisterController" data-entity-2="BookModifyPopupController" data-link-type="dependency" data-source-line="7" data-uid="lnk11" id="link_BookRegisterController_BookModifyPopupController"><path codeLine="7" d="M827.67,554.57 C844.2,554.57 854.73,554.57 871.26,554.57" fill="none" id="BookRegisterController-to-BookModifyPopupController" style="stroke:#181818;stroke-width:1;stroke-dasharray:7,7;"/><polygon fill="#181818" points="877.26,554.57,868.26,550.57,872.26,554.57,868.26,558.57,877.26,554.57" style="stroke:#181818;stroke-width:1;"/></g><!--reverse link RegisterAdder<T> to BookInsertPopupController--><g class="link" data-entity-1="RegisterAdder.T." data-entity-2="BookInsertPopupController" data-link-type="dependency" data-source-line="9" data-uid="lnk14" id="link_RegisterAdder.T._BookInsertPopupController"><path codeLine="9" d="M194.5,216.31 C194.5,279.86 194.5,417.75 194.5,497.58" fill="none" id="RegisterAdder&lt;T&gt;-backto-BookInsertPopupController" style="stroke:#181818;stroke-width:1;"/><polygon fill="#181818" points="194.5,210.31,190.5,219.31,194.5,215.31,198.5,219.31,194.5,210.31" style="stroke:#181818;stroke-width:1;"/><text fill="#000000" font-family="sans-serif" font-size="13" lengthAdjust="spacing" textLength="8.271" x="185.7873" y="229.7902">1</text><text fill="#000000" font-family="sans-serif" font-size="13" lengthAdjust="spacing" textLength="8.271" x="186.0285" y="486.7948">1</text></g><!--link BookInsertPopupController to RegisterValidator<T>--><g class="link" data-entity-1="BookInsertPopupController" data-entity-2="RegisterValidator.T." data-link-type="dependency" data-source-line="10" data-uid="lnk16" id="link_BookInsertPopupController_RegisterValidator.T."><path codeLine="10" d="M194.5,611.29 C194.5,691.25 194.5,829.87 194.5,893.26" fill="none" id="BookInsertPopupController-to-RegisterValidator&lt;T&gt;" style="stroke:#181818;stroke-width:1;"/><polygon fill="#181818" points="194.5,899.26,198.5,890.26,194.5,894.26,190.5,890.26,194.5,899.26" style="stroke:#181818;stroke-width:1;"/><text fill="#000000" font-family="sans-serif" font-size="13" lengthAdjust="spacing" textLength="8.271" x="186.0285" y="631.1913">1</text><text fill="#000000" font-family="sans-serif" font-size="13" lengthAdjust="spacing" textLength="8.271" x="185.7015" y="888.1507">1</text></g><!--reverse link BookPopupController to BookInsertPopupController--><g class="link" data-entity-1="BookPopupController" data-entity-2="BookInsertPopupController" data-link-type="extension" data-source-line="11" data-uid="lnk19" id="link_BookPopupController_BookInsertPopupController"><path codeLine="11" d="M459.9069,321.6354 C386.3369,385.9354 315.16,448.13 258.57,497.59" fill="none" id="BookPopupController-backto-BookInsertPopupController" style="stroke:#181818;stroke-width:1;"/><polygon fill="none" points="473.46,309.79,455.9584,317.1177,463.8554,326.1531,473.46,309.79" style="stroke:#181818;stroke-width:1;"/></g><!--reverse link RegisterModifier<T> to BookModifyPopupController--><g class="link" data-entity-1="RegisterModifier.T." data-entity-2="BookModifyPopupController" data-link-type="dependency" data-source-line="14" data-uid="lnk22" id="link_RegisterModifier.T._BookModifyPopupController"><path codeLine="14" d="M1058.5,216.31 C1058.5,279.86 1058.5,417.75 1058.5,497.58" fill="none" id="RegisterModifier&lt;T&gt;-backto-BookModifyPopupController" style="stroke:#181818;stroke-width:1;"/><polygon fill="#181818" points="1058.5,210.31,1054.5,219.31,1058.5,215.31,1062.5,219.31,1058.5,210.31" style="stroke:#181818;stroke-width:1;"/><text fill="#000000" font-family="sans-serif" font-size="13" lengthAdjust="spacing" textLength="8.271" x="1049.7865" y="229.7902">1</text><text fill="#000000" font-family="sans-serif" font-size="13" lengthAdjust="spacing" textLength="8.271" x="1050.0289" y="486.7948">1</text></g><!--reverse link BookPopupController to BookModifyPopupController--><g class="link" data-entity-1="BookPopupController" data-entity-2="BookModifyPopupController" data-link-type="extension" data-source-line="15" data-uid="lnk24" id="link_BookPopupController_BookModifyPopupController"><path codeLine="15" d="M787.145,319.701 C862.195,384.381 935.52,447.57 993.45,497.5" fill="none" id="BookPopupController-backto-BookModifyPopupController" style="stroke:#181818;stroke-width:1;"/><polygon fill="none" points="773.51,307.95,783.228,324.246,791.062,315.156,773.51,307.95" style="stroke:#181818;stroke-width:1;"/></g><!--link BookModifyPopupController to Book--><g class="link" data-entity-1="BookModifyPopupController" data-entity-2="Book" data-link-type="dependency" data-source-line="16" data-uid="lnk26" id="link_BookModifyPopupController_Book"><path codeLine="16" d="M1058.5,611.29 C1058.5,651.07 1058.5,700.84 1058.5,754.66" fill="none" id="BookModifyPopupController-to-Book" style="stroke:#181818;stroke-width:1;"/><polygon fill="#181818" points="1058.5,760.66,1062.5,751.66,1058.5,755.66,1054.5,751.66,1058.5,760.66" style="stroke:#181818;stroke-width:1;"/><text fill="#000000" font-family="sans-serif" font-size="13" lengthAdjust="spacing" textLength="8.271" x="1050.0289" y="631.1913">1</text><text fill="#000000" font-family="sans-serif" font-size="13" lengthAdjust="spacing" textLength="8.271" x="1050.3246" y="749.6501">1</text></g><!--SRC=[bLPTRzem57tFhx3empfreFLXBrM514XeIArMjQpI7aro2rOJExETjepnt-VFn4cSql42vDpZUwxlLyGpeINck42KPI2WHD- -9fzs90DKGB41Bf9apjZpFMo9aC0NZ4hEyXmu6bsEq3WRJysFqOEYp760Zpx6ymRNw-aWOv9FfaXZAog0opjMLcK33xAuOzsoZ3pjkwnay42hiEegd6LP8FCTPY-sHvoJ34jsYgry_hMIUsAJmK06r1fR4WYEauTTdd3eWzHcYVcaEHR2_4U71AdF64aYSq1Nw45oGhVk8QxaZd6X7jyefTSMcpfmeoydgodem05dFsY-Fpg3ijhaHEmAeF8NOAui2PN-v1TCShp9OS5A0i9X1hmmmiudaybdztyBSgtbdNzk2pJ8p6eqM4-biJ1PpABakxP4O-D5sjFREZi6ec-WPIkR5qOoPvIoSXzvJ4HDNJ9-mp0rXwjRpG5JTqr4c8AC8ZOiYxlZkoQTyDwrxGGIjJqcYGeU-1DEeJqFN1rT89nbaM0BKvqHW4F1NY1wFJyf-Lr1JAx9ZFUkSzuaVpqT45cFX46bSLxOd3Kr4awStHedDNqejgFlpDw4hjjKYPvBgZZpIahcioTKSjETOgoN2bh3crmIo3E7sZkEq6mOBI2eVEF9t6n0Cj13uyxWROSkEyvdz81RxpX4Z-5SYYo9Gp1trhfGjMVz_KZWzLgJfk4iM-I5DrYml2geCVc2saFCJRYF6NS6sX1ffUfW2xmz9pyefzs4_-71NvYoh_iol1FHAwchVfc50xYVWN0a4qeaKSNznmxbkd77Y9L0WvqPWuDTrOLjhIuvAxp_yyvWg4hLK50dldk0QmMzGSBUn1iXEKubQagikojjVPtPweaqqfal5Zre7kViJLdeBmVQFNGP9Rh2qKKJnLEJxIYaSxjGxti3FFf4UD5hROLWca8U0TG0SHip0cPxYWkIMWFZgDxzjUjfArEhOgiiLWNUGdAoD5BrXY31ddxFNltu-zvSOhFFjTEcGYAl7qqWaUrnyFa-1dSqIoLXDBQX_MKDM9mXiMElCrKaiZlpctAAloSU8YrgLb7GftOrXSqQMjSh960qQyMoWhQDoZZLkQr0uc-IiK3yRWoKrUko6ywQsNDroPdtq4PorE59oVy0]--></g></svg>