<svg xmlns="http://www.w3.org/2000/svg" xmlns:xlink="http://www.w3.org/1999/xlink" contentStyleType="text/css" data-diagram-type="SEQUENCE" height="506px" preserveAspectRatio="none" style="width:969px;height:506px;background:#FFFFFF;" version="1.1" viewBox="0 0 969 506" width="969px" zoomAndPan="magnify"><defs/><g><rect fill="none" height="164.7969" style="stroke:#000000;stroke-width:1.5;" width="953.2031" x="10" y="214.8281"/><rect fill="none" height="46.2656" style="stroke:#000000;stroke-width:1.5;" width="699.4971" x="20" y="326.3594"/><g><title>Admin</title><rect fill="#000000" fill-opacity="0.00000" height="344.4609" width="8" x="51.4321" y="81.2969"/><line style="stroke:#181818;stroke-width:0.5;stroke-dasharray:5,5;" x1="55" x2="55" y1="81.2969" y2="425.7578"/></g><g><title>SideBarController</title><rect fill="#000000" fill-opacity="0.00000" height="344.4609" width="8" x="232.2129" y="81.2969"/><line style="stroke:#181818;stroke-width:0.5;stroke-dasharray:5,5;" x1="235.5186" x2="235.5186" y1="81.2969" y2="425.7578"/></g><g><title>BookRegisterController</title><rect fill="#000000" fill-opacity="0.00000" height="344.4609" width="8" x="399.0498" y="81.2969"/><line style="stroke:#181818;stroke-width:0.5;stroke-dasharray:5,5;" x1="402.9072" x2="402.9072" y1="81.2969" y2="425.7578"/></g><g><title>BookModifyPopupController</title><rect fill="#000000" fill-opacity="0.00000" height="344.4609" width="8" x="601.3447" y="81.2969"/><line style="stroke:#181818;stroke-width:0.5;stroke-dasharray:5,5;" x1="605.1924" x2="605.1924" y1="81.2969" y2="425.7578"/></g><g><title>MainController</title><rect fill="#000000" fill-opacity="0.00000" height="344.4609" width="8" x="773.7939" y="81.2969"/><line style="stroke:#181818;stroke-width:0.5;stroke-dasharray:5,5;" x1="777.4971" x2="777.4971" y1="81.2969" y2="425.7578"/></g><g><title>BookRegister</title><rect fill="#000000" fill-opacity="0.00000" height="344.4609" width="8" x="895.647" y="81.2969"/><line style="stroke:#181818;stroke-width:0.5;stroke-dasharray:5,5;" x1="899.0908" x2="899.0908" y1="81.2969" y2="425.7578"/></g><g class="participant participant-head" data-participant="Admin"><text fill="#000000" font-family="sans-serif" font-size="14" lengthAdjust="spacing" textLength="44.8643" x="30" y="77.9951">Admin</text><ellipse cx="55.4321" cy="13.5" fill="#E2E2F0" rx="8" ry="8" style="stroke:#181818;stroke-width:0.5;"/><path d="M55.4321,21.5 L55.4321,48.5 M42.4321,29.5 L68.4321,29.5 M55.4321,48.5 L42.4321,63.5 M55.4321,48.5 L68.4321,63.5" fill="none" style="stroke:#181818;stroke-width:0.5;"/></g><g class="participant participant-tail" data-participant="Admin"><text fill="#000000" font-family="sans-serif" font-size="14" lengthAdjust="spacing" textLength="44.8643" x="30" y="437.7529">Admin</text><ellipse cx="55.4321" cy="449.5547" fill="#E2E2F0" rx="8" ry="8" style="stroke:#181818;stroke-width:0.5;"/><path d="M55.4321,457.5547 L55.4321,484.5547 M42.4321,465.5547 L68.4321,465.5547 M55.4321,484.5547 L42.4321,499.5547 M55.4321,484.5547 L68.4321,499.5547" fill="none" style="stroke:#181818;stroke-width:0.5;"/></g><g class="participant participant-head" data-participant="SideBarController"><rect fill="#E2E2F0" height="30.2969" rx="2.5" ry="2.5" style="stroke:#181818;stroke-width:0.5;" width="137.3887" x="167.5186" y="50"/><text fill="#000000" font-family="sans-serif" font-size="14" lengthAdjust="spacing" textLength="123.3887" x="174.5186" y="69.9951">SideBarController</text></g><g class="participant participant-tail" data-participant="SideBarController"><rect fill="#E2E2F0" height="30.2969" rx="2.5" ry="2.5" style="stroke:#181818;stroke-width:0.5;" width="137.3887" x="167.5186" y="424.7578"/><text fill="#000000" font-family="sans-serif" font-size="14" lengthAdjust="spacing" textLength="123.3887" x="174.5186" y="444.7529">SideBarController</text></g><g class="participant participant-head" data-participant="BookRegisterController"><rect fill="#E2E2F0" height="30.2969" rx="2.5" ry="2.5" style="stroke:#181818;stroke-width:0.5;" width="176.2852" x="314.9072" y="50"/><text fill="#000000" font-family="sans-serif" font-size="14" lengthAdjust="spacing" textLength="162.2852" x="321.9072" y="69.9951">BookRegisterController</text></g><g class="participant participant-tail" data-participant="BookRegisterController"><rect fill="#E2E2F0" height="30.2969" rx="2.5" ry="2.5" style="stroke:#181818;stroke-width:0.5;" width="176.2852" x="314.9072" y="424.7578"/><text fill="#000000" font-family="sans-serif" font-size="14" lengthAdjust="spacing" textLength="162.2852" x="321.9072" y="444.7529">BookRegisterController</text></g><g class="participant participant-head" data-participant="BookModifyPopupController"><rect fill="#E2E2F0" height="30.2969" rx="2.5" ry="2.5" style="stroke:#181818;stroke-width:0.5;" width="208.3047" x="501.1924" y="50"/><text fill="#000000" font-family="sans-serif" font-size="14" lengthAdjust="spacing" textLength="194.3047" x="508.1924" y="69.9951">BookModifyPopupController</text></g><g class="participant participant-tail" data-participant="BookModifyPopupController"><rect fill="#E2E2F0" height="30.2969" rx="2.5" ry="2.5" style="stroke:#181818;stroke-width:0.5;" width="208.3047" x="501.1924" y="424.7578"/><text fill="#000000" font-family="sans-serif" font-size="14" lengthAdjust="spacing" textLength="194.3047" x="508.1924" y="444.7529">BookModifyPopupController</text></g><g class="participant participant-head" data-participant="MainController"><rect fill="#E2E2F0" height="30.2969" rx="2.5" ry="2.5" style="stroke:#181818;stroke-width:0.5;" width="116.5938" x="719.4971" y="50"/><text fill="#000000" font-family="sans-serif" font-size="14" lengthAdjust="spacing" textLength="102.5938" x="726.4971" y="69.9951">MainController</text></g><g class="participant participant-tail" data-participant="MainController"><rect fill="#E2E2F0" height="30.2969" rx="2.5" ry="2.5" style="stroke:#181818;stroke-width:0.5;" width="116.5938" x="719.4971" y="424.7578"/><text fill="#000000" font-family="sans-serif" font-size="14" lengthAdjust="spacing" textLength="102.5938" x="726.4971" y="444.7529">MainController</text></g><g class="participant participant-head" data-participant="BookRegister"><rect fill="#E2E2F0" height="30.2969" rx="2.5" ry="2.5" style="stroke:#181818;stroke-width:0.5;" width="107.1123" x="846.0908" y="50"/><text fill="#000000" font-family="sans-serif" font-size="14" lengthAdjust="spacing" textLength="93.1123" x="853.0908" y="69.9951">BookRegister</text></g><g class="participant participant-tail" data-participant="BookRegister"><rect fill="#E2E2F0" height="30.2969" rx="2.5" ry="2.5" style="stroke:#181818;stroke-width:0.5;" width="107.1123" x="846.0908" y="424.7578"/><text fill="#000000" font-family="sans-serif" font-size="14" lengthAdjust="spacing" textLength="93.1123" x="853.0908" y="444.7529">BookRegister</text></g><g class="message" data-participant-1="Admin" data-participant-2="BookRegisterController"><polygon fill="#181818" points="391.0498,108.4297,401.0498,112.4297,391.0498,116.4297,395.0498,112.4297" style="stroke:#181818;stroke-width:1;"/><line style="stroke:#181818;stroke-width:1;" x1="55.4321" x2="397.0498" y1="112.4297" y2="112.4297"/><text fill="#000000" font-family="sans-serif" font-size="13" lengthAdjust="spacing" textLength="107.4214" x="62.4321" y="107.3638">"Selects a Book"</text></g><g class="message" data-participant-1="Admin" data-participant-2="SideBarController"><polygon fill="#181818" points="224.2129,137.5625,234.2129,141.5625,224.2129,145.5625,228.2129,141.5625" style="stroke:#181818;stroke-width:1;"/><line style="stroke:#181818;stroke-width:1;" x1="55.4321" x2="230.2129" y1="141.5625" y2="141.5625"/><text fill="#000000" font-family="sans-serif" font-size="13" lengthAdjust="spacing" textLength="156.7808" x="62.4321" y="136.4966">"Clicks "Modify" Button"</text></g><g class="message" data-participant-1="SideBarController" data-participant-2="BookRegisterController"><polygon fill="#181818" points="391.0498,166.6953,401.0498,170.6953,391.0498,174.6953,395.0498,170.6953" style="stroke:#181818;stroke-width:1;"/><line style="stroke:#181818;stroke-width:1;" x1="236.2129" x2="397.0498" y1="170.6953" y2="170.6953"/><text fill="#000000" font-family="sans-serif" font-size="13" lengthAdjust="spacing" textLength="126.4263" x="243.2129" y="165.6294">openModifyPopup()</text></g><g class="message" data-participant-1="BookRegisterController" data-participant-2="Admin"><polygon fill="#181818" points="66.4321,195.8281,56.4321,199.8281,66.4321,203.8281,62.4321,199.8281" style="stroke:#181818;stroke-width:1;"/><line style="stroke:#181818;stroke-width:1;stroke-dasharray:2,2;" x1="60.4321" x2="402.0498" y1="199.8281" y2="199.8281"/><text fill="#000000" font-family="sans-serif" font-size="13" lengthAdjust="spacing" textLength="145.9136" x="72.4321" y="194.7622">"Shows Modify Popup"</text></g><path d="M10,214.8281 L86.624,214.8281 L86.624,221.9609 L76.624,231.9609 L10,231.9609 L10,214.8281" fill="#EEEEEE" style="stroke:#000000;stroke-width:1.5;"/><rect fill="none" height="164.7969" style="stroke:#000000;stroke-width:1.5;" width="953.2031" x="10" y="214.8281"/><text fill="#000000" font-family="sans-serif" font-size="13" font-weight="bold" lengthAdjust="spacing" textLength="31.624" x="25" y="227.895">loop</text><text fill="#000000" font-family="sans-serif" font-size="11" font-weight="bold" lengthAdjust="spacing" textLength="94.2412" x="101.624" y="227.0386">[BookNotValid]</text><g class="message" data-participant-1="Admin" data-participant-2="BookModifyPopupController"><polygon fill="#181818" points="593.3447,249.0938,603.3447,253.0938,593.3447,257.0938,597.3447,253.0938" style="stroke:#181818;stroke-width:1;"/><line style="stroke:#181818;stroke-width:1;" x1="55.4321" x2="599.3447" y1="253.0938" y2="253.0938"/><text fill="#000000" font-family="sans-serif" font-size="13" lengthAdjust="spacing" textLength="122.1924" x="62.4321" y="248.0278">"Inserts new Data"</text></g><g class="message" data-participant-1="BookModifyPopupController" data-participant-2="BookRegister"><polygon fill="#181818" points="887.647,278.2266,897.647,282.2266,887.647,286.2266,891.647,282.2266" style="stroke:#181818;stroke-width:1;"/><line style="stroke:#181818;stroke-width:1;" x1="605.3447" x2="893.647" y1="282.2266" y2="282.2266"/><text fill="#000000" font-family="sans-serif" font-size="13" lengthAdjust="spacing" textLength="116.2192" x="612.3447" y="277.1606">isValid(new Book)</text></g><g class="message" data-participant-1="BookRegister" data-participant-2="BookModifyPopupController"><polygon fill="#181818" points="616.3447,307.3594,606.3447,311.3594,616.3447,315.3594,612.3447,311.3594" style="stroke:#181818;stroke-width:1;"/><line style="stroke:#181818;stroke-width:1;stroke-dasharray:2,2;" x1="610.3447" x2="898.647" y1="311.3594" y2="311.3594"/><text fill="#000000" font-family="sans-serif" font-size="13" lengthAdjust="spacing" textLength="37.064" x="622.3447" y="306.2935">result</text></g><path d="M20,326.3594 L89.4512,326.3594 L89.4512,333.4922 L79.4512,343.4922 L20,343.4922 L20,326.3594" fill="#EEEEEE" style="stroke:#000000;stroke-width:1.5;"/><rect fill="none" height="46.2656" style="stroke:#000000;stroke-width:1.5;" width="699.4971" x="20" y="326.3594"/><text fill="#000000" font-family="sans-serif" font-size="13" font-weight="bold" lengthAdjust="spacing" textLength="24.4512" x="35" y="339.4263">opt</text><text fill="#000000" font-family="sans-serif" font-size="11" font-weight="bold" lengthAdjust="spacing" textLength="94.2412" x="104.4512" y="338.5698">[BookNotValid]</text><g class="message" data-participant-1="BookModifyPopupController" data-participant-2="Admin"><polygon fill="#181818" points="66.4321,360.625,56.4321,364.625,66.4321,368.625,62.4321,364.625" style="stroke:#181818;stroke-width:1;"/><line style="stroke:#181818;stroke-width:1;stroke-dasharray:2,2;" x1="60.4321" x2="604.3447" y1="364.625" y2="364.625"/><text fill="#000000" font-family="sans-serif" font-size="13" lengthAdjust="spacing" textLength="205.061" x="72.4321" y="359.5591">"Data not correct, please retry"</text></g><g class="message" data-participant-1="BookModifyPopupController" data-participant-2="BookRegister"><polygon fill="#181818" points="887.647,403.7578,897.647,407.7578,887.647,411.7578,891.647,407.7578" style="stroke:#181818;stroke-width:1;"/><line style="stroke:#181818;stroke-width:1;" x1="605.3447" x2="893.647" y1="407.7578" y2="407.7578"/><text fill="#000000" font-family="sans-serif" font-size="13" lengthAdjust="spacing" textLength="217.877" x="612.3447" y="402.6919">modify(Book selected, new Book)</text></g><!--SRC=[bPBDQiCm48Jl-nIBBaaWVe5G2dRi5aESj0dfeJTXgws8eXMIGiZRrvAXpKzjqeD1U6Tslf4zggYH7wUCQ3T301ZbPVgyJgignRp4JV6wBPRlxRbOB5AiLddvLCxZQBl4HPcjLm2yzcGnRVPI0nXklQobuThZHZOYutPEsbjIIjYBQOXSYq_fl1YIT7mlP0wcHrLngU_808Y8c3psHECCsKOeKNk7F6hOh-McIr3FbQnt3bd7o30xU4-QmQruA9ICq6SjnnFeaIRjbWuea7xHqM7dmsXae8XCp5cIV-DADfUL_xpAiAlKJjYsjHP7pBdd3FhbLqrQktGnQnpSOJGPS3yaoRNT2dTG7iZuI_G1XFDx2BoeoMDDrhRVRef62Uv4kzVR4mEXc_Zyfz4-wiRXBRhuHuXcYZ_zlW40]--></g></svg>