<svg xmlns="http://www.w3.org/2000/svg" xmlns:xlink="http://www.w3.org/1999/xlink" contentStyleType="text/css" data-diagram-type="SEQUENCE" height="419px" preserveAspectRatio="none" style="width:727px;height:419px;background:#FFFFFF;" version="1.1" viewBox="0 0 727 419" width="727px" zoomAndPan="magnify"><defs/><g><rect fill="none" height="106.5313" style="stroke:#000000;stroke-width:1.5;" width="548.8682" x="10" y="185.6953"/><rect fill="none" height="46.2656" style="stroke:#000000;stroke-width:1.5;" width="528.8682" x="20" y="238.9609"/><g><title>Admin</title><rect fill="#000000" fill-opacity="0.00000" height="257.0625" width="8" x="51.4321" y="81.2969"/><line style="stroke:#181818;stroke-width:0.5;stroke-dasharray:5,5;" x1="55" x2="55" y1="81.2969" y2="338.3594"/></g><g><title>.u..BookRegisterController</title><rect fill="#000000" fill-opacity="0.00000" height="257.0625" width="8" x="221.3457" y="81.2969"/><line style="stroke:#181818;stroke-width:0.5;stroke-dasharray:5,5;" x1="224.8447" x2="224.8447" y1="81.2969" y2="338.3594"/></g><g><title>.u..BookModifyPopupController</title><rect fill="#000000" fill-opacity="0.00000" height="257.0625" width="8" x="428.3574" y="81.2969"/><line style="stroke:#181818;stroke-width:0.5;stroke-dasharray:5,5;" x1="431.8467" x2="431.8467" y1="81.2969" y2="338.3594"/></g><g><title>.u..BookRegister</title><rect fill="#000000" fill-opacity="0.00000" height="257.0625" width="8" x="661.9697" y="81.2969"/><line style="stroke:#181818;stroke-width:0.5;stroke-dasharray:5,5;" x1="665.0552" x2="665.0552" y1="81.2969" y2="338.3594"/></g><g class="participant participant-head" data-participant="Admin"><text fill="#000000" font-family="sans-serif" font-size="14" lengthAdjust="spacing" textLength="44.8643" x="30" y="77.9951">Admin</text><ellipse cx="55.4321" cy="13.5" fill="#E2E2F0" rx="8" ry="8" style="stroke:#181818;stroke-width:0.5;"/><path d="M55.4321,21.5 L55.4321,48.5 M42.4321,29.5 L68.4321,29.5 M55.4321,48.5 L42.4321,63.5 M55.4321,48.5 L68.4321,63.5" fill="none" style="stroke:#181818;stroke-width:0.5;"/></g><g class="participant participant-tail" data-participant="Admin"><text fill="#000000" font-family="sans-serif" font-size="14" lengthAdjust="spacing" textLength="44.8643" x="30" y="350.3545">Admin</text><ellipse cx="55.4321" cy="362.1563" fill="#E2E2F0" rx="8" ry="8" style="stroke:#181818;stroke-width:0.5;"/><path d="M55.4321,370.1563 L55.4321,397.1563 M42.4321,378.1563 L68.4321,378.1563 M55.4321,397.1563 L42.4321,412.1563 M55.4321,397.1563 L68.4321,412.1563" fill="none" style="stroke:#181818;stroke-width:0.5;"/></g><g class="participant participant-head" data-participant="BookRegisterController"><rect fill="#E2E2F0" height="30.2969" rx="2.5" ry="2.5" style="stroke:#181818;stroke-width:0.5;" width="181.002" x="134.8447" y="50"/><text fill="#000000" font-family="sans-serif" font-size="14" lengthAdjust="spacing" text-decoration="underline" textLength="167.002" x="141.8447" y="69.9951">:BookRegisterController</text></g><g class="participant participant-tail" data-participant="BookRegisterController"><rect fill="#E2E2F0" height="30.2969" rx="2.5" ry="2.5" style="stroke:#181818;stroke-width:0.5;" width="181.002" x="134.8447" y="337.3594"/><text fill="#000000" font-family="sans-serif" font-size="14" lengthAdjust="spacing" text-decoration="underline" textLength="167.002" x="141.8447" y="357.3545">:BookRegisterController</text></g><g class="participant participant-head" data-participant="BookModifyPopupController"><rect fill="#E2E2F0" height="30.2969" rx="2.5" ry="2.5" style="stroke:#181818;stroke-width:0.5;" width="213.0215" x="325.8467" y="50"/><text fill="#000000" font-family="sans-serif" font-size="14" lengthAdjust="spacing" text-decoration="underline" textLength="199.0215" x="332.8467" y="69.9951">:BookModifyPopupController</text></g><g class="participant participant-tail" data-participant="BookModifyPopupController"><rect fill="#E2E2F0" height="30.2969" rx="2.5" ry="2.5" style="stroke:#181818;stroke-width:0.5;" width="213.0215" x="325.8467" y="337.3594"/><text fill="#000000" font-family="sans-serif" font-size="14" lengthAdjust="spacing" text-decoration="underline" textLength="199.0215" x="332.8467" y="357.3545">:BookModifyPopupController</text></g><g class="participant participant-head" data-participant="BookRegister"><rect fill="#E2E2F0" height="30.2969" rx="2.5" ry="2.5" style="stroke:#181818;stroke-width:0.5;" width="111.8291" x="610.0552" y="50"/><text fill="#000000" font-family="sans-serif" font-size="14" lengthAdjust="spacing" text-decoration="underline" textLength="97.8291" x="617.0552" y="69.9951">:BookRegister</text></g><g class="participant participant-tail" data-participant="BookRegister"><rect fill="#E2E2F0" height="30.2969" rx="2.5" ry="2.5" style="stroke:#181818;stroke-width:0.5;" width="111.8291" x="610.0552" y="337.3594"/><text fill="#000000" font-family="sans-serif" font-size="14" lengthAdjust="spacing" text-decoration="underline" textLength="97.8291" x="617.0552" y="357.3545">:BookRegister</text></g><g class="message" data-participant-1="Admin" data-participant-2="BookRegisterController"><polygon fill="#181818" points="213.3457,108.4297,223.3457,112.4297,213.3457,116.4297,217.3457,112.4297" style="stroke:#181818;stroke-width:1;"/><line style="stroke:#181818;stroke-width:1;" x1="55.4321" x2="219.3457" y1="112.4297" y2="112.4297"/><text fill="#000000" font-family="sans-serif" font-size="13" lengthAdjust="spacing" textLength="107.4214" x="62.4321" y="107.3638">"Selects a Book"</text></g><g class="message" data-participant-1="Admin" data-participant-2="BookRegisterController"><polygon fill="#181818" points="213.3457,137.5625,223.3457,141.5625,213.3457,145.5625,217.3457,141.5625" style="stroke:#181818;stroke-width:1;"/><line style="stroke:#181818;stroke-width:1;" x1="55.4321" x2="219.3457" y1="141.5625" y2="141.5625"/><text fill="#000000" font-family="sans-serif" font-size="13" lengthAdjust="spacing" textLength="126.4263" x="62.4321" y="136.4966">openModifyPopup()</text></g><g class="message" data-participant-1="BookRegisterController" data-participant-2="Admin"><polygon fill="#181818" points="66.4321,166.6953,56.4321,170.6953,66.4321,174.6953,62.4321,170.6953" style="stroke:#181818;stroke-width:1;"/><line style="stroke:#181818;stroke-width:1;stroke-dasharray:2,2;" x1="60.4321" x2="224.3457" y1="170.6953" y2="170.6953"/><text fill="#000000" font-family="sans-serif" font-size="13" lengthAdjust="spacing" textLength="145.9136" x="72.4321" y="165.6294">"Shows Modify Popup"</text></g><path d="M10,185.6953 L86.624,185.6953 L86.624,192.8281 L76.624,202.8281 L10,202.8281 L10,185.6953" fill="#EEEEEE" style="stroke:#000000;stroke-width:1.5;"/><rect fill="none" height="106.5313" style="stroke:#000000;stroke-width:1.5;" width="548.8682" x="10" y="185.6953"/><text fill="#000000" font-family="sans-serif" font-size="13" font-weight="bold" lengthAdjust="spacing" textLength="31.624" x="25" y="198.7622">loop</text><text fill="#000000" font-family="sans-serif" font-size="11" font-weight="bold" lengthAdjust="spacing" textLength="94.2412" x="101.624" y="197.9058">[BookNotValid]</text><g class="message" data-participant-1="Admin" data-participant-2="BookModifyPopupController"><polygon fill="#181818" points="420.3574,219.9609,430.3574,223.9609,420.3574,227.9609,424.3574,223.9609" style="stroke:#181818;stroke-width:1;"/><line style="stroke:#181818;stroke-width:1;" x1="55.4321" x2="426.3574" y1="223.9609" y2="223.9609"/><text fill="#000000" font-family="sans-serif" font-size="13" lengthAdjust="spacing" textLength="159.9038" x="62.4321" y="218.895">confirmBtnAction(event)</text></g><path d="M20,238.9609 L89.4512,238.9609 L89.4512,246.0938 L79.4512,256.0938 L20,256.0938 L20,238.9609" fill="#EEEEEE" style="stroke:#000000;stroke-width:1.5;"/><rect fill="none" height="46.2656" style="stroke:#000000;stroke-width:1.5;" width="528.8682" x="20" y="238.9609"/><text fill="#000000" font-family="sans-serif" font-size="13" font-weight="bold" lengthAdjust="spacing" textLength="24.4512" x="35" y="252.0278">opt</text><text fill="#000000" font-family="sans-serif" font-size="11" font-weight="bold" lengthAdjust="spacing" textLength="94.2412" x="104.4512" y="251.1714">[BookNotValid]</text><g class="message" data-participant-1="BookModifyPopupController" data-participant-2="Admin"><polygon fill="#181818" points="66.4321,273.2266,56.4321,277.2266,66.4321,281.2266,62.4321,277.2266" style="stroke:#181818;stroke-width:1;"/><line style="stroke:#181818;stroke-width:1;stroke-dasharray:2,2;" x1="60.4321" x2="431.3574" y1="277.2266" y2="277.2266"/><text fill="#000000" font-family="sans-serif" font-size="13" lengthAdjust="spacing" textLength="125.2202" x="72.4321" y="272.1606">"Shows Error Alert"</text></g><g class="message" data-participant-1="BookModifyPopupController" data-participant-2="BookRegister"><polygon fill="#181818" points="653.9697,316.3594,663.9697,320.3594,653.9697,324.3594,657.9697,320.3594" style="stroke:#181818;stroke-width:1;"/><line style="stroke:#181818;stroke-width:1;" x1="432.3574" x2="659.9697" y1="320.3594" y2="320.3594"/><text fill="#000000" font-family="sans-serif" font-size="13" lengthAdjust="spacing" textLength="209.6123" x="439.3574" y="315.2935">modify(selectedBook, newBook)</text></g><!--SRC=[ZP71QiCm38RlVWhXon9ONw2CWjDa8v2aNKftsCqaxcQMMCPHL_hsIzpBmfooWq7mw__qItv8S_5IYx8KaEPmo5wFMVK-rbbH22XtQVwSRxrqhA38ath7c6m87OYsruOnAntfHbjf2FZJURDE4BzgzQ47KcwBXXnsdN8Sv01XAOmeiTMdwnxjsGOeGVL-bZy96FChm6gp40pMm0-gKmqD87qF_uS5hJA_uaKnMsXTZPGRRfhpYPS1RZxmHiuwHEldL4XlijFjV7hm1YEhGNFIha_8Y8OqcaXzAqCnGqjpsZ8a42rpRlhqKINEb6dzkqEONsZazBul6ln1LJkfZs3KPIhY7m00]--></g></svg>