<svg xmlns="http://www.w3.org/2000/svg" xmlns:xlink="http://www.w3.org/1999/xlink" contentStyleType="text/css" data-diagram-type="CLASS" height="544px" preserveAspectRatio="none" style="width:1344px;height:544px;background:#FFFFFF;" version="1.1" viewBox="0 0 1344 544" width="1344px" zoomAndPan="magnify"><defs/><g><!--class LoanRegisterController--><g class="entity" data-entity="LoanRegisterController" data-source-line="1" data-uid="ent0002" id="entity_LoanRegisterController"><rect fill="#F1F1F1" height="276.1563" rx="2.5" ry="2.5" style="stroke:#181818;stroke-width:0.5;" width="422.2656" x="475.73" y="7"/><ellipse cx="601.9829" cy="23" fill="#ADD1B2" rx="11" ry="11" style="stroke:#181818;stroke-width:1;"/><path d="M604.9517,28.6406 Q604.3736,28.9375 603.7329,29.0781 Q603.0923,29.2344 602.3892,29.2344 Q599.8892,29.2344 598.5611,27.5938 Q597.2486,25.9375 597.2486,22.8125 Q597.2486,19.6875 598.5611,18.0313 Q599.8892,16.375 602.3892,16.375 Q603.0923,16.375 603.7329,16.5313 Q604.3892,16.6875 604.9517,16.9844 L604.9517,19.7031 Q604.3267,19.125 603.7329,18.8594 Q603.1392,18.5781 602.5142,18.5781 Q601.1704,18.5781 600.4829,19.6563 Q599.7954,20.7188 599.7954,22.8125 Q599.7954,24.9063 600.4829,25.9844 Q601.1704,27.0469 602.5142,27.0469 Q603.1392,27.0469 603.7329,26.7813 Q604.3267,26.5 604.9517,25.9219 L604.9517,28.6406 Z " fill="#000000"/><text fill="#000000" font-family="sans-serif" font-size="14" lengthAdjust="spacing" textLength="161.2598" x="622.4829" y="27.8467">LoanRegisterController</text><line style="stroke:#181818;stroke-width:0.5;" x1="476.73" x2="896.9956" y1="39" y2="39"/><g data-visibility-modifier="PRIVATE_FIELD"><rect fill="none" height="6" style="stroke:#C82930;stroke-width:1;" width="6" x="483.73" y="49.6484"/></g><text fill="#000000" font-family="sans-serif" font-size="14" lengthAdjust="spacing" textLength="211.374" x="495.73" y="55.9951">loanTable : TableView&lt;Loan&gt;</text><g data-visibility-modifier="PRIVATE_FIELD"><rect fill="none" height="6" style="stroke:#C82930;stroke-width:1;" width="6" x="483.73" y="65.9453"/></g><text fill="#000000" font-family="sans-serif" font-size="14" lengthAdjust="spacing" textLength="294.5332" x="495.73" y="72.292">studentClm : TableColumn&lt;Loan, String&gt;</text><g data-visibility-modifier="PRIVATE_FIELD"><rect fill="none" height="6" style="stroke:#C82930;stroke-width:1;" width="6" x="483.73" y="82.2422"/></g><text fill="#000000" font-family="sans-serif" font-size="14" lengthAdjust="spacing" textLength="275.1396" x="495.73" y="88.5889">bookClm : TableColumn&lt;Loan, String&gt;</text><g data-visibility-modifier="PRIVATE_FIELD"><rect fill="none" height="6" style="stroke:#C82930;stroke-width:1;" width="6" x="483.73" y="98.5391"/></g><text fill="#000000" font-family="sans-serif" font-size="14" lengthAdjust="spacing" textLength="325.7393" x="495.73" y="104.8857">loanEndClm : TableColumn&lt;Loan, LocalDate&gt;</text><g data-visibility-modifier="PRIVATE_FIELD"><rect fill="none" height="6" style="stroke:#C82930;stroke-width:1;" width="6" x="483.73" y="114.8359"/></g><text fill="#000000" font-family="sans-serif" font-size="14" lengthAdjust="spacing" textLength="301.875" x="495.73" y="121.1826">returnedClm : TableColumn&lt;Loan, String&gt;</text><g data-visibility-modifier="PRIVATE_FIELD"><rect fill="none" height="6" style="stroke:#C82930;stroke-width:1;" width="6" x="483.73" y="131.1328"/></g><text fill="#000000" font-family="sans-serif" font-size="14" lengthAdjust="spacing" textLength="107.6113" x="495.73" y="137.4795">library : Library</text><g data-visibility-modifier="PRIVATE_FIELD"><rect fill="none" height="6" style="stroke:#C82930;stroke-width:1;" width="6" x="483.73" y="147.4297"/></g><text fill="#000000" font-family="sans-serif" font-size="14" lengthAdjust="spacing" textLength="258.8018" x="495.73" y="153.7764">sideBarController : SideBarController</text><g data-visibility-modifier="PRIVATE_FIELD"><rect fill="none" height="6" style="stroke:#C82930;stroke-width:1;" width="6" x="483.73" y="163.7266"/></g><text fill="#000000" font-family="sans-serif" font-size="14" lengthAdjust="spacing" textLength="383.3047" x="495.73" y="170.0732">loanInsertPopupController : LoanInsertPopupController</text><g data-visibility-modifier="PRIVATE_FIELD"><rect fill="none" height="6" style="stroke:#C82930;stroke-width:1;" width="6" x="483.73" y="180.0234"/></g><text fill="#000000" font-family="sans-serif" font-size="14" lengthAdjust="spacing" textLength="396.2656" x="495.73" y="186.3701">loanModifyPopupController : LoanModifyPopupController</text><line style="stroke:#181818;stroke-width:0.5;" x1="476.73" x2="896.9956" y1="193.6719" y2="193.6719"/><g data-visibility-modifier="PUBLIC_METHOD"><ellipse cx="486.73" cy="207.3203" fill="#84BE84" rx="3" ry="3" style="stroke:#038048;stroke-width:1;"/></g><text fill="#000000" font-family="sans-serif" font-size="14" lengthAdjust="spacing" textLength="112.5195" x="495.73" y="210.667">initialize() : void</text><g data-visibility-modifier="PRIVATE_METHOD"><rect fill="#F24D5C" height="6" style="stroke:#C82930;stroke-width:1;" width="6" x="483.73" y="220.6172"/></g><text fill="#000000" font-family="sans-serif" font-size="14" lengthAdjust="spacing" textLength="172.915" x="495.73" y="226.9639">openInsertPopup() : void</text><g data-visibility-modifier="PRIVATE_METHOD"><rect fill="#F24D5C" height="6" style="stroke:#C82930;stroke-width:1;" width="6" x="483.73" y="236.9141"/></g><text fill="#000000" font-family="sans-serif" font-size="14" lengthAdjust="spacing" textLength="179.3955" x="495.73" y="243.2607">openModifyPopup() : void</text><g data-visibility-modifier="PRIVATE_METHOD"><rect fill="#F24D5C" height="6" style="stroke:#C82930;stroke-width:1;" width="6" x="483.73" y="253.2109"/></g><text fill="#000000" font-family="sans-serif" font-size="14" lengthAdjust="spacing" textLength="201.9199" x="495.73" y="259.5576">removeFromRegister() : void</text><g data-visibility-modifier="PUBLIC_METHOD"><ellipse cx="486.73" cy="272.5078" fill="#84BE84" rx="3" ry="3" style="stroke:#038048;stroke-width:1;"/></g><text fill="#000000" font-family="sans-serif" font-size="14" lengthAdjust="spacing" textLength="249.3408" x="495.73" y="275.8545">setLibrary(in library : Library) : void</text></g><!--class SideBarController--><g class="entity" data-entity="SideBarController" data-source-line="18" data-uid="ent0003" id="entity_SideBarController"><rect fill="#F1F1F1" height="178.375" rx="2.5" ry="2.5" style="stroke:#181818;stroke-width:0.5;" width="226.751" x="933.49" y="55.89"/><ellipse cx="980.9212" cy="71.89" fill="#ADD1B2" rx="11" ry="11" style="stroke:#181818;stroke-width:1;"/><path d="M983.8899,77.5306 Q983.3118,77.8275 982.6712,77.9681 Q982.0305,78.1244 981.3274,78.1244 Q978.8274,78.1244 977.4993,76.4838 Q976.1868,74.8275 976.1868,71.7025 Q976.1868,68.5775 977.4993,66.9213 Q978.8274,65.265 981.3274,65.265 Q982.0305,65.265 982.6712,65.4213 Q983.3274,65.5775 983.8899,65.8744 L983.8899,68.5931 Q983.2649,68.015 982.6712,67.7494 Q982.0774,67.4681 981.4524,67.4681 Q980.1087,67.4681 979.4212,68.5463 Q978.7337,69.6088 978.7337,71.7025 Q978.7337,73.7963 979.4212,74.8744 Q980.1087,75.9369 981.4524,75.9369 Q982.0774,75.9369 982.6712,75.6713 Q983.2649,75.39 983.8899,74.8119 L983.8899,77.5306 Z " fill="#000000"/><text fill="#000000" font-family="sans-serif" font-size="14" lengthAdjust="spacing" textLength="123.3887" x="1001.4212" y="76.7367">SideBarController</text><line style="stroke:#181818;stroke-width:0.5;" x1="934.49" x2="1159.241" y1="87.89" y2="87.89"/><g data-visibility-modifier="PRIVATE_FIELD"><rect fill="none" height="6" style="stroke:#C82930;stroke-width:1;" width="6" x="941.49" y="98.5384"/></g><text fill="#000000" font-family="sans-serif" font-size="14" lengthAdjust="spacing" textLength="110.8311" x="953.49" y="104.8851">addBtn : Button</text><g data-visibility-modifier="PRIVATE_FIELD"><rect fill="none" height="6" style="stroke:#C82930;stroke-width:1;" width="6" x="941.49" y="114.8353"/></g><text fill="#000000" font-family="sans-serif" font-size="14" lengthAdjust="spacing" textLength="165.2451" x="953.49" y="121.182">searchBarTF : TextField</text><g data-visibility-modifier="PRIVATE_FIELD"><rect fill="none" height="6" style="stroke:#C82930;stroke-width:1;" width="6" x="941.49" y="131.1322"/></g><text fill="#000000" font-family="sans-serif" font-size="14" lengthAdjust="spacing" textLength="137.9492" x="953.49" y="137.4789">removeBtn : Button</text><g data-visibility-modifier="PRIVATE_FIELD"><rect fill="none" height="6" style="stroke:#C82930;stroke-width:1;" width="6" x="941.49" y="147.4291"/></g><text fill="#000000" font-family="sans-serif" font-size="14" lengthAdjust="spacing" textLength="132.6719" x="953.49" y="153.7757">modifyBtn : Button</text><line style="stroke:#181818;stroke-width:0.5;" x1="934.49" x2="1159.241" y1="161.0775" y2="161.0775"/><g data-visibility-modifier="PUBLIC_METHOD"><ellipse cx="944.49" cy="174.7259" fill="#84BE84" rx="3" ry="3" style="stroke:#038048;stroke-width:1;"/></g><text fill="#000000" font-family="sans-serif" font-size="14" lengthAdjust="spacing" textLength="145.7422" x="953.49" y="178.0726">getAddBtn() : Button</text><g data-visibility-modifier="PUBLIC_METHOD"><ellipse cx="944.49" cy="191.0228" fill="#84BE84" rx="3" ry="3" style="stroke:#038048;stroke-width:1;"/></g><text fill="#000000" font-family="sans-serif" font-size="14" lengthAdjust="spacing" textLength="200.751" x="953.49" y="194.3695">getSearchBarTF() : TextField</text><g data-visibility-modifier="PUBLIC_METHOD"><ellipse cx="944.49" cy="207.3197" fill="#84BE84" rx="3" ry="3" style="stroke:#038048;stroke-width:1;"/></g><text fill="#000000" font-family="sans-serif" font-size="14" lengthAdjust="spacing" textLength="175.834" x="953.49" y="210.6664">getRemoveBtn() : Button</text><g data-visibility-modifier="PUBLIC_METHOD"><ellipse cx="944.49" cy="223.6166" fill="#84BE84" rx="3" ry="3" style="stroke:#038048;stroke-width:1;"/></g><text fill="#000000" font-family="sans-serif" font-size="14" lengthAdjust="spacing" textLength="165.0264" x="953.49" y="226.9632">getModifyBtn() : Button</text></g><!--class LoanInsertPopupController--><g class="entity" data-entity="LoanInsertPopupController" data-source-line="30" data-uid="ent0004" id="entity_LoanInsertPopupController"><rect fill="#F1F1F1" height="194.6719" rx="2.5" ry="2.5" style="stroke:#181818;stroke-width:0.5;" width="677.7246" x="7" y="343.16"/><ellipse cx="248.2129" cy="359.16" fill="#ADD1B2" rx="11" ry="11" style="stroke:#181818;stroke-width:1;"/><path d="M251.1816,364.8006 Q250.6035,365.0975 249.9629,365.2381 Q249.3223,365.3944 248.6191,365.3944 Q246.1191,365.3944 244.791,363.7538 Q243.4785,362.0975 243.4785,358.9725 Q243.4785,355.8475 244.791,354.1913 Q246.1191,352.535 248.6191,352.535 Q249.3223,352.535 249.9629,352.6913 Q250.6191,352.8475 251.1816,353.1444 L251.1816,355.8631 Q250.5566,355.285 249.9629,355.0194 Q249.3691,354.7381 248.7441,354.7381 Q247.4004,354.7381 246.7129,355.8163 Q246.0254,356.8788 246.0254,358.9725 Q246.0254,361.0663 246.7129,362.1444 Q247.4004,363.2069 248.7441,363.2069 Q249.3691,363.2069 249.9629,362.9413 Q250.5566,362.66 251.1816,362.0819 L251.1816,364.8006 Z " fill="#000000"/><text fill="#000000" font-family="sans-serif" font-size="14" lengthAdjust="spacing" textLength="186.7988" x="268.7129" y="364.0067">LoanInsertPopupController</text><line style="stroke:#181818;stroke-width:0.5;" x1="8" x2="683.7246" y1="375.16" y2="375.16"/><g data-visibility-modifier="PRIVATE_FIELD"><rect fill="none" height="6" style="stroke:#C82930;stroke-width:1;" width="6" x="15" y="385.8084"/></g><text fill="#000000" font-family="sans-serif" font-size="14" lengthAdjust="spacing" textLength="300.7813" x="27" y="392.1551">loanRegisterAdder : RegisterAdder&lt;Loan&gt;</text><g data-visibility-modifier="PRIVATE_FIELD"><rect fill="none" height="6" style="stroke:#C82930;stroke-width:1;" width="6" x="15" y="402.1053"/></g><text fill="#000000" font-family="sans-serif" font-size="14" lengthAdjust="spacing" textLength="344.7979" x="27" y="408.452">bookRegisterObtainer : RegisterObtainer&lt;Book&gt;</text><g data-visibility-modifier="PRIVATE_FIELD"><rect fill="none" height="6" style="stroke:#C82930;stroke-width:1;" width="6" x="15" y="418.4022"/></g><text fill="#000000" font-family="sans-serif" font-size="14" lengthAdjust="spacing" textLength="384.46" x="27" y="424.7489">studentRegisterObtainer : RegisterObtainer&lt;Student&gt;</text><g data-visibility-modifier="PRIVATE_FIELD"><rect fill="none" height="6" style="stroke:#C82930;stroke-width:1;" width="6" x="15" y="434.6991"/></g><text fill="#000000" font-family="sans-serif" font-size="14" lengthAdjust="spacing" textLength="343.7656" x="27" y="441.0457">loanRegisterValidator : RegisterValidator&lt;Loan&gt;</text><line style="stroke:#181818;stroke-width:0.5;" x1="8" x2="683.7246" y1="448.3475" y2="448.3475"/><g data-visibility-modifier="PUBLIC_METHOD"><ellipse cx="18" cy="461.9959" fill="#84BE84" rx="3" ry="3" style="stroke:#038048;stroke-width:1;"/></g><text fill="#000000" font-family="sans-serif" font-size="14" lengthAdjust="spacing" textLength="112.5195" x="27" y="465.3426">initialize() : void</text><g data-visibility-modifier="PUBLIC_METHOD"><ellipse cx="18" cy="478.2928" fill="#84BE84" rx="3" ry="3" style="stroke:#038048;stroke-width:1;"/></g><text fill="#000000" font-family="sans-serif" font-size="14" lengthAdjust="spacing" textLength="591.7939" x="27" y="481.6395">setBookRegisterObtainer(in bookRegisterObtainer : RegisterObtainer&lt;Book&gt;) : void</text><g data-visibility-modifier="PUBLIC_METHOD"><ellipse cx="18" cy="494.5897" fill="#84BE84" rx="3" ry="3" style="stroke:#038048;stroke-width:1;"/></g><text fill="#000000" font-family="sans-serif" font-size="14" lengthAdjust="spacing" textLength="651.7246" x="27" y="497.9364">setStudentRegisterObtainer(in studentRegisterObtainer : RegisterObtainer&lt;Student&gt;) : void</text><g data-visibility-modifier="PUBLIC_METHOD"><ellipse cx="18" cy="510.8866" fill="#84BE84" rx="3" ry="3" style="stroke:#038048;stroke-width:1;"/></g><text fill="#000000" font-family="sans-serif" font-size="14" lengthAdjust="spacing" textLength="527.3652" x="27" y="514.2332">setLoanRegisterAdder(in loanRegisterAdder : RegisterAdder&lt;Loan&gt;) : void</text><g data-visibility-modifier="PUBLIC_METHOD"><ellipse cx="18" cy="527.1834" fill="#84BE84" rx="3" ry="3" style="stroke:#038048;stroke-width:1;"/></g><text fill="#000000" font-family="sans-serif" font-size="14" lengthAdjust="spacing" textLength="591.8418" x="27" y="530.5301">setLoanRegisterValidator(in loanRegisterValidator : RegisterValidator&lt;Loan&gt;) : void</text></g><!--class LoanModifyPopupController--><g class="entity" data-entity="LoanModifyPopupController" data-source-line="45" data-uid="ent0005" id="entity_LoanModifyPopupController"><rect fill="#F1F1F1" height="162.0781" rx="2.5" ry="2.5" style="stroke:#181818;stroke-width:0.5;" width="617.8418" x="719.94" y="359.46"/><ellipse cx="927.9713" cy="375.46" fill="#ADD1B2" rx="11" ry="11" style="stroke:#181818;stroke-width:1;"/><path d="M930.94,381.1006 Q930.3619,381.3975 929.7213,381.5381 Q929.0806,381.6944 928.3775,381.6944 Q925.8775,381.6944 924.5494,380.0538 Q923.2369,378.3975 923.2369,375.2725 Q923.2369,372.1475 924.5494,370.4913 Q925.8775,368.835 928.3775,368.835 Q929.0806,368.835 929.7213,368.9913 Q930.3775,369.1475 930.94,369.4444 L930.94,372.1631 Q930.315,371.585 929.7213,371.3194 Q929.1275,371.0381 928.5025,371.0381 Q927.1588,371.0381 926.4713,372.1163 Q925.7838,373.1788 925.7838,375.2725 Q925.7838,377.3663 926.4713,378.4444 Q927.1588,379.5069 928.5025,379.5069 Q929.1275,379.5069 929.7213,379.2413 Q930.315,378.96 930.94,378.3819 L930.94,381.1006 Z " fill="#000000"/><text fill="#000000" font-family="sans-serif" font-size="14" lengthAdjust="spacing" textLength="193.2793" x="948.4713" y="380.3067">LoanModifyPopupController</text><line style="stroke:#181818;stroke-width:0.5;" x1="720.94" x2="1336.7818" y1="391.46" y2="391.46"/><g data-visibility-modifier="PRIVATE_FIELD"><rect fill="none" height="6" style="stroke:#C82930;stroke-width:1;" width="6" x="727.94" y="402.1084"/></g><text fill="#000000" font-family="sans-serif" font-size="14" lengthAdjust="spacing" textLength="330.5586" x="739.94" y="408.4551">loanRegisterModifier : RegisterModifier&lt;Loan&gt;</text><g data-visibility-modifier="PRIVATE_FIELD"><rect fill="none" height="6" style="stroke:#C82930;stroke-width:1;" width="6" x="727.94" y="418.4053"/></g><text fill="#000000" font-family="sans-serif" font-size="14" lengthAdjust="spacing" textLength="343.7656" x="739.94" y="424.752">loanRegisterValidator : RegisterValidator&lt;Loan&gt;</text><g data-visibility-modifier="PRIVATE_FIELD"><rect fill="none" height="6" style="stroke:#C82930;stroke-width:1;" width="6" x="727.94" y="434.7022"/></g><text fill="#000000" font-family="sans-serif" font-size="14" lengthAdjust="spacing" textLength="136.6436" x="739.94" y="441.0489">loanToModify: Loan</text><line style="stroke:#181818;stroke-width:0.5;" x1="720.94" x2="1336.7818" y1="448.3506" y2="448.3506"/><g data-visibility-modifier="PUBLIC_METHOD"><ellipse cx="730.94" cy="461.9991" fill="#84BE84" rx="3" ry="3" style="stroke:#038048;stroke-width:1;"/></g><text fill="#000000" font-family="sans-serif" font-size="14" lengthAdjust="spacing" textLength="112.5195" x="739.94" y="465.3457">initialize() : void</text><g data-visibility-modifier="PUBLIC_METHOD"><ellipse cx="730.94" cy="478.2959" fill="#84BE84" rx="3" ry="3" style="stroke:#038048;stroke-width:1;"/></g><text fill="#000000" font-family="sans-serif" font-size="14" lengthAdjust="spacing" textLength="331.4404" x="739.94" y="481.6426">setLoanToModify(in loanToModify : Loan) : void</text><g data-visibility-modifier="PUBLIC_METHOD"><ellipse cx="730.94" cy="494.5928" fill="#84BE84" rx="3" ry="3" style="stroke:#038048;stroke-width:1;"/></g><text fill="#000000" font-family="sans-serif" font-size="14" lengthAdjust="spacing" textLength="572.0313" x="739.94" y="497.9395">setLoanRegisterModifier(in loanRegisterModifier : RegisterModifier&lt;Loan&gt;) : void</text><g data-visibility-modifier="PUBLIC_METHOD"><ellipse cx="730.94" cy="510.8897" fill="#84BE84" rx="3" ry="3" style="stroke:#038048;stroke-width:1;"/></g><text fill="#000000" font-family="sans-serif" font-size="14" lengthAdjust="spacing" textLength="591.8418" x="739.94" y="514.2364">setLoanRegisterValidator(in loanRegisterValidator : RegisterValidator&lt;Loan&gt;) : void</text></g><!--link LoanRegisterController to SideBarController--><g class="link" data-entity-1="LoanRegisterController" data-entity-2="SideBarController" data-source-line="55" data-uid="lnk6" id="link_LoanRegisterController_SideBarController"><path codeLine="55" d="M898.15,145.08 C909.77,145.08 915.39,145.08 927.01,145.08" fill="none" id="LoanRegisterController-to-SideBarController" style="stroke:#181818;stroke-width:1;"/><polygon fill="#181818" points="933.01,145.08,924.01,141.08,928.01,145.08,924.01,149.08,933.01,145.08" style="stroke:#181818;stroke-width:1;"/><text fill="#000000" font-family="sans-serif" font-size="13" lengthAdjust="spacing" textLength="8.271" x="905.8918" y="141.8798">1</text><text fill="#000000" font-family="sans-serif" font-size="13" lengthAdjust="spacing" textLength="8.271" x="917.1007" y="141.6476">1</text></g><!--link LoanRegisterController to LoanInsertPopupController--><g class="link" data-entity-1="LoanRegisterController" data-entity-2="LoanInsertPopupController" data-source-line="56" data-uid="lnk7" id="link_LoanRegisterController_LoanInsertPopupController"><path codeLine="56" d="M527.34,283.34 C503.94,303.47 484.8195,319.9382 462.6295,339.0182" fill="none" id="LoanRegisterController-to-LoanInsertPopupController" style="stroke:#181818;stroke-width:1;"/><polygon fill="#181818" points="458.08,342.93,467.5121,340.0952,461.8712,339.6701,462.2963,334.0293,458.08,342.93" style="stroke:#181818;stroke-width:1;"/><text fill="#000000" font-family="sans-serif" font-size="13" lengthAdjust="spacing" textLength="8.271" x="510.4048" y="303.3819">1</text><text fill="#000000" font-family="sans-serif" font-size="13" lengthAdjust="spacing" textLength="8.271" x="458.3758" y="331.9579">1</text></g><!--link LoanRegisterController to LoanModifyPopupController--><g class="link" data-entity-1="LoanRegisterController" data-entity-2="LoanModifyPopupController" data-source-line="57" data-uid="lnk8" id="link_LoanRegisterController_LoanModifyPopupController"><path codeLine="57" d="M847.1,283.55 C877.32,309.48 903.4356,331.8939 930.7656,355.3339" fill="none" id="LoanRegisterController-to-LoanModifyPopupController" style="stroke:#181818;stroke-width:1;"/><polygon fill="#181818" points="935.32,359.24,931.0925,350.3446,931.5247,355.9849,925.8844,356.4171,935.32,359.24" style="stroke:#181818;stroke-width:1;"/><text fill="#000000" font-family="sans-serif" font-size="13" lengthAdjust="spacing" textLength="8.271" x="847.163" y="303.147">1</text><text fill="#000000" font-family="sans-serif" font-size="13" lengthAdjust="spacing" textLength="8.271" x="918.6448" y="348.4077">1</text></g><!--SRC=[jLN1Zjem4BtxAw8zKT4SUgqGKg6Bj59GAq1xT_0ijTQnaJEXfQl-Usqd3axYB73O4ycyDyypRoPcBsXP9fcYSWC7NYBefPAebH2WtyYKIuwS2luN9f-Ihyb9SKPIOTWxcWim4VVxpE7tp6hCILfYnK3YKXGUNIfH5TBXdvCjQYuFXfShzNgLP4zwb6oCbwaz5TyfWg5gm4fBODSrUQwfFXjILZ-PcZc31GqwD-2s7wkhUP8bQFofZjMnGy_6i3fjhHX_ESVJeXX9rH52nS1_YmH90QAXK2TOQLNuQLx0QGdOT3pXCXdOq1B_4R9tMp6mu8sabB45IaDTL8XA6k-0wlqlGzkjhE_m1rSSH5jBbrougZinCZq0VdEghjOcRAFRYxI3Bk8MtNZzVjhQ7n82RLEZWtflsxsRfautjivxi_dMtuLPQe_zo95oQIPWpCuZyK36XsOsVzwPsBR-d6AYPHoAwJOgNUcitvXRYzkw7HLwDlOnYceWrWA1O1lhYQPt-TNUEVSuqPth3SKHOdSeMABePpkoHDwbdQgpl3d-lRa9ualdABpJZW_vI_VUNjBmyFhimIJz6Vr1NYtdOtV3327-RvKyV7b8KftEtSFm-dulYpLPuxVuhTdHhVWF]--></g></svg>