<svg xmlns="http://www.w3.org/2000/svg" xmlns:xlink="http://www.w3.org/1999/xlink" contentStyleType="text/css" data-diagram-type="CLASS" height="891px" preserveAspectRatio="none" style="width:1359px;height:891px;background:#FFFFFF;" version="1.1" viewBox="0 0 1359 891" width="1359px" zoomAndPan="magnify"><defs/><g><!--class LoanRegisterController--><g class="entity" data-entity="LoanRegisterController" data-source-line="3" data-uid="ent0002" id="entity_LoanRegisterController"><rect fill="#F1F1F1" height="276.1563" rx="2.5" ry="2.5" style="stroke:#181818;stroke-width:0.5;" width="422.2656" x="484" y="7"/><ellipse cx="610.2529" cy="23" fill="#ADD1B2" rx="11" ry="11" style="stroke:#181818;stroke-width:1;"/><path d="M613.2217,28.6406 Q612.6436,28.9375 612.0029,29.0781 Q611.3623,29.2344 610.6592,29.2344 Q608.1592,29.2344 606.8311,27.5938 Q605.5186,25.9375 605.5186,22.8125 Q605.5186,19.6875 606.8311,18.0313 Q608.1592,16.375 610.6592,16.375 Q611.3623,16.375 612.0029,16.5313 Q612.6592,16.6875 613.2217,16.9844 L613.2217,19.7031 Q612.5967,19.125 612.0029,18.8594 Q611.4092,18.5781 610.7842,18.5781 Q609.4404,18.5781 608.7529,19.6563 Q608.0654,20.7188 608.0654,22.8125 Q608.0654,24.9063 608.7529,25.9844 Q609.4404,27.0469 610.7842,27.0469 Q611.4092,27.0469 612.0029,26.7813 Q612.5967,26.5 613.2217,25.9219 L613.2217,28.6406 Z " fill="#000000"/><text fill="#000000" font-family="sans-serif" font-size="14" lengthAdjust="spacing" textLength="161.2598" x="630.7529" y="27.8467">LoanRegisterController</text><line style="stroke:#181818;stroke-width:0.5;" x1="485" x2="905.2656" y1="39" y2="39"/><rect fill="none" height="6" style="stroke:#C82930;stroke-width:1;" width="6" x="492" y="49.6484"/><text fill="#000000" font-family="sans-serif" font-size="14" lengthAdjust="spacing" textLength="211.374" x="504" y="55.9951">loanTable : TableView&lt;Loan&gt;</text><rect fill="none" height="6" style="stroke:#C82930;stroke-width:1;" width="6" x="492" y="65.9453"/><text fill="#000000" font-family="sans-serif" font-size="14" lengthAdjust="spacing" textLength="294.5332" x="504" y="72.292">studentClm : TableColumn&lt;Loan, String&gt;</text><rect fill="none" height="6" style="stroke:#C82930;stroke-width:1;" width="6" x="492" y="82.2422"/><text fill="#000000" font-family="sans-serif" font-size="14" lengthAdjust="spacing" textLength="275.1396" x="504" y="88.5889">bookClm : TableColumn&lt;Loan, String&gt;</text><rect fill="none" height="6" style="stroke:#C82930;stroke-width:1;" width="6" x="492" y="98.5391"/><text fill="#000000" font-family="sans-serif" font-size="14" lengthAdjust="spacing" textLength="325.7393" x="504" y="104.8857">loanEndClm : TableColumn&lt;Loan, LocalDate&gt;</text><rect fill="none" height="6" style="stroke:#C82930;stroke-width:1;" width="6" x="492" y="114.8359"/><text fill="#000000" font-family="sans-serif" font-size="14" lengthAdjust="spacing" textLength="301.875" x="504" y="121.1826">returnedClm : TableColumn&lt;Loan, String&gt;</text><rect fill="none" height="6" style="stroke:#C82930;stroke-width:1;" width="6" x="492" y="131.1328"/><text fill="#000000" font-family="sans-serif" font-size="14" lengthAdjust="spacing" textLength="107.6113" x="504" y="137.4795">library : Library</text><rect fill="none" height="6" style="stroke:#C82930;stroke-width:1;" width="6" x="492" y="147.4297"/><text fill="#000000" font-family="sans-serif" font-size="14" lengthAdjust="spacing" textLength="258.8018" x="504" y="153.7764">sideBarController : SideBarController</text><rect fill="none" height="6" style="stroke:#C82930;stroke-width:1;" width="6" x="492" y="163.7266"/><text fill="#000000" font-family="sans-serif" font-size="14" lengthAdjust="spacing" textLength="383.3047" x="504" y="170.0732">loanInsertPopupController : LoanInsertPopupController</text><rect fill="none" height="6" style="stroke:#C82930;stroke-width:1;" width="6" x="492" y="180.0234"/><text fill="#000000" font-family="sans-serif" font-size="14" lengthAdjust="spacing" textLength="396.2656" x="504" y="186.3701">loanModifyPopupController : LoanModifyPopupController</text><line style="stroke:#181818;stroke-width:0.5;" x1="485" x2="905.2656" y1="193.6719" y2="193.6719"/><ellipse cx="495" cy="207.3203" fill="#84BE84" rx="3" ry="3" style="stroke:#038048;stroke-width:1;"/><text fill="#000000" font-family="sans-serif" font-size="14" lengthAdjust="spacing" textLength="112.5195" x="504" y="210.667">initialize() : void</text><rect fill="#F24D5C" height="6" style="stroke:#C82930;stroke-width:1;" width="6" x="492" y="220.6172"/><text fill="#000000" font-family="sans-serif" font-size="14" lengthAdjust="spacing" textLength="172.915" x="504" y="226.9639">openInsertPopup() : void</text><rect fill="#F24D5C" height="6" style="stroke:#C82930;stroke-width:1;" width="6" x="492" y="236.9141"/><text fill="#000000" font-family="sans-serif" font-size="14" lengthAdjust="spacing" textLength="179.3955" x="504" y="243.2607">openModifyPopup() : void</text><rect fill="#F24D5C" height="6" style="stroke:#C82930;stroke-width:1;" width="6" x="492" y="253.2109"/><text fill="#000000" font-family="sans-serif" font-size="14" lengthAdjust="spacing" textLength="201.9199" x="504" y="259.5576">removeFromRegister() : void</text><ellipse cx="495" cy="272.5078" fill="#84BE84" rx="3" ry="3" style="stroke:#038048;stroke-width:1;"/><text fill="#000000" font-family="sans-serif" font-size="14" lengthAdjust="spacing" textLength="249.3408" x="504" y="275.8545">setLibrary(in library : Library) : void</text></g><!--class SideBarController--><g class="entity" data-entity="SideBarController" data-source-line="20" data-uid="ent0003" id="entity_SideBarController"><rect fill="#F1F1F1" height="178.375" rx="2.5" ry="2.5" style="stroke:#181818;stroke-width:0.5;" width="226.751" x="956.5" y="56"/><ellipse cx="1003.9312" cy="72" fill="#ADD1B2" rx="11" ry="11" style="stroke:#181818;stroke-width:1;"/><path d="M1006.8999,77.6406 Q1006.3218,77.9375 1005.6812,78.0781 Q1005.0405,78.2344 1004.3374,78.2344 Q1001.8374,78.2344 1000.5093,76.5938 Q999.1968,74.9375 999.1968,71.8125 Q999.1968,68.6875 1000.5093,67.0313 Q1001.8374,65.375 1004.3374,65.375 Q1005.0405,65.375 1005.6812,65.5313 Q1006.3374,65.6875 1006.8999,65.9844 L1006.8999,68.7031 Q1006.2749,68.125 1005.6812,67.8594 Q1005.0874,67.5781 1004.4624,67.5781 Q1003.1187,67.5781 1002.4312,68.6563 Q1001.7437,69.7188 1001.7437,71.8125 Q1001.7437,73.9063 1002.4312,74.9844 Q1003.1187,76.0469 1004.4624,76.0469 Q1005.0874,76.0469 1005.6812,75.7813 Q1006.2749,75.5 1006.8999,74.9219 L1006.8999,77.6406 Z " fill="#000000"/><text fill="#000000" font-family="sans-serif" font-size="14" lengthAdjust="spacing" textLength="123.3887" x="1024.4312" y="76.8467">SideBarController</text><line style="stroke:#181818;stroke-width:0.5;" x1="957.5" x2="1182.251" y1="88" y2="88"/><rect fill="none" height="6" style="stroke:#C82930;stroke-width:1;" width="6" x="964.5" y="98.6484"/><text fill="#000000" font-family="sans-serif" font-size="14" lengthAdjust="spacing" textLength="110.8311" x="976.5" y="104.9951">addBtn : Button</text><rect fill="none" height="6" style="stroke:#C82930;stroke-width:1;" width="6" x="964.5" y="114.9453"/><text fill="#000000" font-family="sans-serif" font-size="14" lengthAdjust="spacing" textLength="165.2451" x="976.5" y="121.292">searchBarTF : TextField</text><rect fill="none" height="6" style="stroke:#C82930;stroke-width:1;" width="6" x="964.5" y="131.2422"/><text fill="#000000" font-family="sans-serif" font-size="14" lengthAdjust="spacing" textLength="137.9492" x="976.5" y="137.5889">removeBtn : Button</text><rect fill="none" height="6" style="stroke:#C82930;stroke-width:1;" width="6" x="964.5" y="147.5391"/><text fill="#000000" font-family="sans-serif" font-size="14" lengthAdjust="spacing" textLength="132.6719" x="976.5" y="153.8857">modifyBtn : Button</text><line style="stroke:#181818;stroke-width:0.5;" x1="957.5" x2="1182.251" y1="161.1875" y2="161.1875"/><ellipse cx="967.5" cy="174.8359" fill="#84BE84" rx="3" ry="3" style="stroke:#038048;stroke-width:1;"/><text fill="#000000" font-family="sans-serif" font-size="14" lengthAdjust="spacing" textLength="145.7422" x="976.5" y="178.1826">getAddBtn() : Button</text><ellipse cx="967.5" cy="191.1328" fill="#84BE84" rx="3" ry="3" style="stroke:#038048;stroke-width:1;"/><text fill="#000000" font-family="sans-serif" font-size="14" lengthAdjust="spacing" textLength="200.751" x="976.5" y="194.4795">getSearchBarTF() : TextField</text><ellipse cx="967.5" cy="207.4297" fill="#84BE84" rx="3" ry="3" style="stroke:#038048;stroke-width:1;"/><text fill="#000000" font-family="sans-serif" font-size="14" lengthAdjust="spacing" textLength="175.834" x="976.5" y="210.7764">getRemoveBtn() : Button</text><ellipse cx="967.5" cy="223.7266" fill="#84BE84" rx="3" ry="3" style="stroke:#038048;stroke-width:1;"/><text fill="#000000" font-family="sans-serif" font-size="14" lengthAdjust="spacing" textLength="165.0264" x="976.5" y="227.0732">getModifyBtn() : Button</text></g><!--class LoanInsertPopupController--><g class="entity" data-entity="LoanInsertPopupController" data-source-line="32" data-uid="ent0004" id="entity_LoanInsertPopupController"><rect fill="#F1F1F1" height="194.6719" rx="2.5" ry="2.5" style="stroke:#181818;stroke-width:0.5;" width="677.7246" x="7" y="343"/><ellipse cx="248.2129" cy="359" fill="#ADD1B2" rx="11" ry="11" style="stroke:#181818;stroke-width:1;"/><path d="M251.1816,364.6406 Q250.6035,364.9375 249.9629,365.0781 Q249.3223,365.2344 248.6191,365.2344 Q246.1191,365.2344 244.791,363.5938 Q243.4785,361.9375 243.4785,358.8125 Q243.4785,355.6875 244.791,354.0313 Q246.1191,352.375 248.6191,352.375 Q249.3223,352.375 249.9629,352.5313 Q250.6191,352.6875 251.1816,352.9844 L251.1816,355.7031 Q250.5566,355.125 249.9629,354.8594 Q249.3691,354.5781 248.7441,354.5781 Q247.4004,354.5781 246.7129,355.6563 Q246.0254,356.7188 246.0254,358.8125 Q246.0254,360.9063 246.7129,361.9844 Q247.4004,363.0469 248.7441,363.0469 Q249.3691,363.0469 249.9629,362.7813 Q250.5566,362.5 251.1816,361.9219 L251.1816,364.6406 Z " fill="#000000"/><text fill="#000000" font-family="sans-serif" font-size="14" lengthAdjust="spacing" textLength="186.7988" x="268.7129" y="363.8467">LoanInsertPopupController</text><line style="stroke:#181818;stroke-width:0.5;" x1="8" x2="683.7246" y1="375" y2="375"/><rect fill="none" height="6" style="stroke:#C82930;stroke-width:1;" width="6" x="15" y="385.6484"/><text fill="#000000" font-family="sans-serif" font-size="14" lengthAdjust="spacing" textLength="300.7813" x="27" y="391.9951">loanRegisterAdder : RegisterAdder&lt;Loan&gt;</text><rect fill="none" height="6" style="stroke:#C82930;stroke-width:1;" width="6" x="15" y="401.9453"/><text fill="#000000" font-family="sans-serif" font-size="14" lengthAdjust="spacing" textLength="344.7979" x="27" y="408.292">bookRegisterObtainer : RegisterObtainer&lt;Book&gt;</text><rect fill="none" height="6" style="stroke:#C82930;stroke-width:1;" width="6" x="15" y="418.2422"/><text fill="#000000" font-family="sans-serif" font-size="14" lengthAdjust="spacing" textLength="384.46" x="27" y="424.5889">studentRegisterObtainer : RegisterObtainer&lt;Student&gt;</text><rect fill="none" height="6" style="stroke:#C82930;stroke-width:1;" width="6" x="15" y="434.5391"/><text fill="#000000" font-family="sans-serif" font-size="14" lengthAdjust="spacing" textLength="343.7656" x="27" y="440.8857">loanRegisterValidator : RegisterValidator&lt;Loan&gt;</text><line style="stroke:#181818;stroke-width:0.5;" x1="8" x2="683.7246" y1="448.1875" y2="448.1875"/><ellipse cx="18" cy="461.8359" fill="#84BE84" rx="3" ry="3" style="stroke:#038048;stroke-width:1;"/><text fill="#000000" font-family="sans-serif" font-size="14" lengthAdjust="spacing" textLength="112.5195" x="27" y="465.1826">initialize() : void</text><ellipse cx="18" cy="478.1328" fill="#84BE84" rx="3" ry="3" style="stroke:#038048;stroke-width:1;"/><text fill="#000000" font-family="sans-serif" font-size="14" lengthAdjust="spacing" textLength="591.7939" x="27" y="481.4795">setBookRegisterObtainer(in bookRegisterObtainer : RegisterObtainer&lt;Book&gt;) : void</text><ellipse cx="18" cy="494.4297" fill="#84BE84" rx="3" ry="3" style="stroke:#038048;stroke-width:1;"/><text fill="#000000" font-family="sans-serif" font-size="14" lengthAdjust="spacing" textLength="651.7246" x="27" y="497.7764">setStudentRegisterObtainer(in studentRegisterObtainer : RegisterObtainer&lt;Student&gt;) : void</text><ellipse cx="18" cy="510.7266" fill="#84BE84" rx="3" ry="3" style="stroke:#038048;stroke-width:1;"/><text fill="#000000" font-family="sans-serif" font-size="14" lengthAdjust="spacing" textLength="527.3652" x="27" y="514.0732">setLoanRegisterAdder(in loanRegisterAdder : RegisterAdder&lt;Loan&gt;) : void</text><ellipse cx="18" cy="527.0234" fill="#84BE84" rx="3" ry="3" style="stroke:#038048;stroke-width:1;"/><text fill="#000000" font-family="sans-serif" font-size="14" lengthAdjust="spacing" textLength="591.8418" x="27" y="530.3701">setLoanRegisterValidator(in loanRegisterValidator : RegisterValidator&lt;Loan&gt;) : void</text></g><!--class LoanModifyPopupController--><g class="entity" data-entity="LoanModifyPopupController" data-source-line="48" data-uid="ent0005" id="entity_LoanModifyPopupController"><rect fill="#F1F1F1" height="162.0781" rx="2.5" ry="2.5" style="stroke:#181818;stroke-width:0.5;" width="617.8418" x="735" y="359.5"/><ellipse cx="943.0313" cy="375.5" fill="#ADD1B2" rx="11" ry="11" style="stroke:#181818;stroke-width:1;"/><path d="M946,381.1406 Q945.4219,381.4375 944.7813,381.5781 Q944.1406,381.7344 943.4375,381.7344 Q940.9375,381.7344 939.6094,380.0938 Q938.2969,378.4375 938.2969,375.3125 Q938.2969,372.1875 939.6094,370.5313 Q940.9375,368.875 943.4375,368.875 Q944.1406,368.875 944.7813,369.0313 Q945.4375,369.1875 946,369.4844 L946,372.2031 Q945.375,371.625 944.7813,371.3594 Q944.1875,371.0781 943.5625,371.0781 Q942.2188,371.0781 941.5313,372.1563 Q940.8438,373.2188 940.8438,375.3125 Q940.8438,377.4063 941.5313,378.4844 Q942.2188,379.5469 943.5625,379.5469 Q944.1875,379.5469 944.7813,379.2813 Q945.375,379 946,378.4219 L946,381.1406 Z " fill="#000000"/><text fill="#000000" font-family="sans-serif" font-size="14" lengthAdjust="spacing" textLength="193.2793" x="963.5313" y="380.3467">LoanModifyPopupController</text><line style="stroke:#181818;stroke-width:0.5;" x1="736" x2="1351.8418" y1="391.5" y2="391.5"/><rect fill="none" height="6" style="stroke:#C82930;stroke-width:1;" width="6" x="743" y="402.1484"/><text fill="#000000" font-family="sans-serif" font-size="14" lengthAdjust="spacing" textLength="330.5586" x="755" y="408.4951">loanRegisterModifier : RegisterModifier&lt;Loan&gt;</text><rect fill="none" height="6" style="stroke:#C82930;stroke-width:1;" width="6" x="743" y="418.4453"/><text fill="#000000" font-family="sans-serif" font-size="14" lengthAdjust="spacing" textLength="343.7656" x="755" y="424.792">loanRegisterValidator : RegisterValidator&lt;Loan&gt;</text><rect fill="none" height="6" style="stroke:#C82930;stroke-width:1;" width="6" x="743" y="434.7422"/><text fill="#000000" font-family="sans-serif" font-size="14" lengthAdjust="spacing" textLength="136.6436" x="755" y="441.0889">loanToModify: Loan</text><line style="stroke:#181818;stroke-width:0.5;" x1="736" x2="1351.8418" y1="448.3906" y2="448.3906"/><ellipse cx="746" cy="462.0391" fill="#84BE84" rx="3" ry="3" style="stroke:#038048;stroke-width:1;"/><text fill="#000000" font-family="sans-serif" font-size="14" lengthAdjust="spacing" textLength="112.5195" x="755" y="465.3857">initialize() : void</text><ellipse cx="746" cy="478.3359" fill="#84BE84" rx="3" ry="3" style="stroke:#038048;stroke-width:1;"/><text fill="#000000" font-family="sans-serif" font-size="14" lengthAdjust="spacing" textLength="331.4404" x="755" y="481.6826">setLoanToModify(in loanToModify : Loan) : void</text><ellipse cx="746" cy="494.6328" fill="#84BE84" rx="3" ry="3" style="stroke:#038048;stroke-width:1;"/><text fill="#000000" font-family="sans-serif" font-size="14" lengthAdjust="spacing" textLength="572.0313" x="755" y="497.9795">setLoanRegisterModifier(in loanRegisterModifier : RegisterModifier&lt;Loan&gt;) : void</text><ellipse cx="746" cy="510.9297" fill="#84BE84" rx="3" ry="3" style="stroke:#038048;stroke-width:1;"/><text fill="#000000" font-family="sans-serif" font-size="14" lengthAdjust="spacing" textLength="591.8418" x="755" y="514.2764">setLoanRegisterValidator(in loanRegisterValidator : RegisterValidator&lt;Loan&gt;) : void</text></g><!--class RegisterAdder--><g class="entity" data-entity="RegisterAdder" data-source-line="62" data-uid="ent0006" id="entity_RegisterAdder"><rect fill="#F1F1F1" height="64.2969" rx="2.5" ry="2.5" style="stroke:#181818;stroke-width:0.5;" width="204.1035" x="203" y="598"/><ellipse cx="245.3529" cy="614" fill="#B4A7E5" rx="11" ry="11" style="stroke:#181818;stroke-width:1;"/><path d="M241.2748,609.7656 L241.2748,607.6094 L248.6654,607.6094 L248.6654,609.7656 L246.1966,609.7656 L246.1966,617.8438 L248.6654,617.8438 L248.6654,620 L241.2748,620 L241.2748,617.8438 L243.7435,617.8438 L243.7435,609.7656 L241.2748,609.7656 Z " fill="#000000"/><text fill="#000000" font-family="sans-serif" font-size="14" font-style="italic" lengthAdjust="spacing" textLength="99.9893" x="265.4313" y="618.8467">RegisterAdder</text><rect fill="#FFFFFF" height="15.9688" style="stroke:#181818;stroke-width:1;stroke-dasharray:2,2;" width="9.3301" x="400.7734" y="595"/><text fill="#000000" font-family="sans-serif" font-size="12" font-style="italic" lengthAdjust="spacing" textLength="7.3301" x="401.7734" y="607.1387">T</text><line style="stroke:#181818;stroke-width:0.5;" x1="204" x2="406.1035" y1="630" y2="630"/><line style="stroke:#181818;stroke-width:0.5;" x1="204" x2="406.1035" y1="638" y2="638"/><text fill="#000000" font-family="sans-serif" font-size="14" lengthAdjust="spacing" textLength="192.1035" x="209" y="654.9951">add(in toAdd  : T) : boolean</text></g><!--class RegisterModifier--><g class="entity" data-entity="RegisterModifier" data-source-line="66" data-uid="ent0007" id="entity_RegisterModifier"><rect fill="#F1F1F1" height="64.2969" rx="2.5" ry="2.5" style="stroke:#181818;stroke-width:0.5;" width="278.6494" x="945.5" y="598"/><ellipse cx="1017.4707" cy="614" fill="#B4A7E5" rx="11" ry="11" style="stroke:#181818;stroke-width:1;"/><path d="M1013.3926,609.7656 L1013.3926,607.6094 L1020.7832,607.6094 L1020.7832,609.7656 L1018.3145,609.7656 L1018.3145,617.8438 L1020.7832,617.8438 L1020.7832,620 L1013.3926,620 L1013.3926,617.8438 L1015.8613,617.8438 L1015.8613,609.7656 L1013.3926,609.7656 Z " fill="#000000"/><text fill="#000000" font-family="sans-serif" font-size="14" font-style="italic" lengthAdjust="spacing" textLength="114.8779" x="1037.9707" y="618.8467">RegisterModifier</text><rect fill="#FFFFFF" height="15.9688" style="stroke:#181818;stroke-width:1;stroke-dasharray:2,2;" width="9.3301" x="1217.8193" y="595"/><text fill="#000000" font-family="sans-serif" font-size="12" font-style="italic" lengthAdjust="spacing" textLength="7.3301" x="1218.8193" y="607.1387">T</text><line style="stroke:#181818;stroke-width:0.5;" x1="946.5" x2="1223.1494" y1="630" y2="630"/><line style="stroke:#181818;stroke-width:0.5;" x1="946.5" x2="1223.1494" y1="638" y2="638"/><text fill="#000000" font-family="sans-serif" font-size="14" lengthAdjust="spacing" textLength="266.6494" x="951.5" y="654.9951">modify(in old : T, in new : T) : boolean</text></g><!--class RegisterValidator--><g class="entity" data-entity="RegisterValidator" data-source-line="71" data-uid="ent0008" id="entity_RegisterValidator"><rect fill="#F1F1F1" height="64.2969" rx="2.5" ry="2.5" style="stroke:#181818;stroke-width:0.5;" width="233.0059" x="559.5" y="598"/><ellipse cx="605.3472" cy="614" fill="#B4A7E5" rx="11" ry="11" style="stroke:#181818;stroke-width:1;"/><path d="M601.269,609.7656 L601.269,607.6094 L608.6597,607.6094 L608.6597,609.7656 L606.1909,609.7656 L606.1909,617.8438 L608.6597,617.8438 L608.6597,620 L601.269,620 L601.269,617.8438 L603.7378,617.8438 L603.7378,609.7656 L601.269,609.7656 Z " fill="#000000"/><text fill="#000000" font-family="sans-serif" font-size="14" font-style="italic" lengthAdjust="spacing" textLength="121.4814" x="625.8472" y="618.8467">RegisterValidator</text><rect fill="#FFFFFF" height="15.9688" style="stroke:#181818;stroke-width:1;stroke-dasharray:2,2;" width="9.3301" x="786.1758" y="595"/><text fill="#000000" font-family="sans-serif" font-size="12" font-style="italic" lengthAdjust="spacing" textLength="7.3301" x="787.1758" y="607.1387">T</text><line style="stroke:#181818;stroke-width:0.5;" x1="560.5" x2="791.5059" y1="630" y2="630"/><line style="stroke:#181818;stroke-width:0.5;" x1="560.5" x2="791.5059" y1="638" y2="638"/><text fill="#000000" font-family="sans-serif" font-size="14" lengthAdjust="spacing" textLength="221.0059" x="565.5" y="654.9951">isValid(in toVerify : T) : boolean</text></g><!--class LoanPopupController--><g class="entity" data-entity="LoanPopupController" data-source-line="77" data-uid="ent0009" id="entity_LoanPopupController"><rect fill="#F1F1F1" height="162.0781" rx="2.5" ry="2.5" style="stroke:#181818;stroke-width:0.5;" width="356.4766" x="498" y="722"/><ellipse cx="598.666" cy="738" fill="#A9DCDF" rx="11" ry="11" style="stroke:#181818;stroke-width:1;"/><path d="M598.7754,733.3438 L597.6191,738.4219 L599.9473,738.4219 L598.7754,733.3438 Z M597.291,731.1094 L600.2754,731.1094 L603.6348,743.5 L601.1816,743.5 L600.416,740.4375 L597.1348,740.4375 L596.3848,743.5 L593.9473,743.5 L597.291,731.1094 Z " fill="#000000"/><text fill="#000000" font-family="sans-serif" font-size="14" font-style="italic" lengthAdjust="spacing" textLength="146.6445" x="619.166" y="742.8467">LoanPopupController</text><line style="stroke:#181818;stroke-width:0.5;" x1="499" x2="853.4766" y1="754" y2="754"/><polygon fill="none" points="509,762.6484,513,766.6484,509,770.6484,505,766.6484" style="stroke:#B38D22;stroke-width:1;"/><text fill="#000000" font-family="sans-serif" font-size="14" lengthAdjust="spacing" textLength="240.9736" x="518" y="770.9951">studentCB : ComboBox&lt;Student&gt;</text><polygon fill="none" points="509,778.9453,513,782.9453,509,786.9453,505,782.9453" style="stroke:#B38D22;stroke-width:1;"/><text fill="#000000" font-family="sans-serif" font-size="14" lengthAdjust="spacing" textLength="201.3115" x="518" y="787.292">bookCB : ComboBox&lt;Book&gt;</text><polygon fill="none" points="509,795.2422,513,799.2422,509,803.2422,505,799.2422" style="stroke:#B38D22;stroke-width:1;"/><text fill="#000000" font-family="sans-serif" font-size="14" lengthAdjust="spacing" textLength="153.7813" x="518" y="803.5889">loanEndCB : TextField</text><polygon fill="none" points="509,811.5391,513,815.5391,509,819.5391,505,815.5391" style="stroke:#B38D22;stroke-width:1;"/><text fill="#000000" font-family="sans-serif" font-size="14" lengthAdjust="spacing" textLength="137.8262" x="518" y="819.8857">confirmBtn : Button</text><polygon fill="none" points="509,827.8359,513,831.8359,509,835.8359,505,831.8359" style="stroke:#B38D22;stroke-width:1;"/><text fill="#000000" font-family="sans-serif" font-size="14" lengthAdjust="spacing" textLength="129.8281" x="518" y="836.1826">cancelBtn : Button</text><line style="stroke:#181818;stroke-width:0.5;" x1="499" x2="853.4766" y1="843.4844" y2="843.4844"/><polygon fill="#FFFF44" points="509,852.1328,513,856.1328,509,860.1328,505,856.1328" style="stroke:#B38D22;stroke-width:1;"/><text fill="#000000" font-family="sans-serif" font-size="14" lengthAdjust="spacing" textLength="330.4766" x="518" y="860.4795">confirmBtnAction(in event : ActionEvent) : void</text><polygon fill="#FFFF44" points="509,868.4297,513,872.4297,509,876.4297,505,872.4297" style="stroke:#B38D22;stroke-width:1;"/><text fill="#000000" font-family="sans-serif" font-size="14" lengthAdjust="spacing" textLength="322.4785" x="518" y="876.7764">cancelBtnAction(in event : ActionEvent) : void</text></g><!--link LoanInsertPopupController to LoanPopupController--><g class="link" data-entity-1="LoanInsertPopupController" data-entity-2="LoanPopupController" data-source-line="89" data-uid="lnk10" id="link_LoanInsertPopupController_LoanPopupController"><path codeLine="89" d="M425.21,538.04 C458.12,577.18 497.17,622.4 534,662 C552.39,681.77 559.9763,689.8181 579.4063,709.0781" fill="none" id="LoanInsertPopupController-to-LoanPopupController" style="stroke:#181818;stroke-width:1;"/><polygon fill="none" points="592.19,721.75,583.6302,704.8169,575.1823,713.3394,592.19,721.75" style="stroke:#181818;stroke-width:1;"/></g><!--link LoanModifyPopupController to LoanPopupController--><g class="link" data-entity-1="LoanModifyPopupController" data-entity-2="LoanPopupController" data-source-line="90" data-uid="lnk11" id="link_LoanModifyPopupController_LoanPopupController"><path codeLine="90" d="M962.33,521.51 C901.45,581.14 831.5182,649.6537 770.6182,709.3137" fill="none" id="LoanModifyPopupController-to-LoanPopupController" style="stroke:#181818;stroke-width:1;"/><polygon fill="none" points="757.76,721.91,774.8169,713.5997,766.4194,705.0276,757.76,721.91" style="stroke:#181818;stroke-width:1;"/></g><!--link LoanInsertPopupController to RegisterValidator--><g class="link" data-entity-1="LoanInsertPopupController" data-entity-2="RegisterValidator" data-source-line="93" data-uid="lnk12" id="link_LoanInsertPopupController_RegisterValidator"><path codeLine="93" d="M516.32,538.27 C554.46,559.94 586.9939,578.4249 616.2139,595.0349" fill="none" id="LoanInsertPopupController-to-RegisterValidator" style="stroke:#181818;stroke-width:1;"/><polygon fill="#181818" points="621.43,598,615.5825,590.0749,617.0832,595.5291,611.629,597.0298,621.43,598" style="stroke:#181818;stroke-width:1;"/></g><!--link LoanInsertPopupController to RegisterAdder--><g class="link" data-entity-1="LoanInsertPopupController" data-entity-2="RegisterAdder" data-source-line="94" data-uid="lnk13" id="link_LoanInsertPopupController_RegisterAdder"><path codeLine="94" d="M324.84,538.27 C320.1,559.94 316.691,575.5283 313.061,592.1383" fill="none" id="LoanInsertPopupController-to-RegisterAdder" style="stroke:#181818;stroke-width:1;"/><polygon fill="#181818" points="311.78,598,317.6093,590.0615,312.8475,593.1153,309.7938,588.3535,311.78,598" style="stroke:#181818;stroke-width:1;"/></g><!--link LoanModifyPopupController to RegisterValidator--><g class="link" data-entity-1="LoanModifyPopupController" data-entity-2="RegisterValidator" data-source-line="96" data-uid="lnk14" id="link_LoanModifyPopupController_RegisterValidator"><path codeLine="96" d="M886.87,521.56 C833.93,548.53 783.2955,574.325 742.3355,595.205" fill="none" id="LoanModifyPopupController-to-RegisterValidator" style="stroke:#181818;stroke-width:1;"/><polygon fill="#181818" points="736.99,597.93,746.8249,597.4062,741.4446,595.6592,743.1916,590.2789,736.99,597.93" style="stroke:#181818;stroke-width:1;"/></g><!--link LoanModifyPopupController to RegisterModifier--><g class="link" data-entity-1="LoanModifyPopupController" data-entity-2="RegisterModifier" data-source-line="97" data-uid="lnk15" id="link_LoanModifyPopupController_RegisterModifier"><path codeLine="97" d="M1061.51,521.56 C1067.38,548.44 1072.3208,570.978 1076.8708,591.828" fill="none" id="LoanModifyPopupController-to-RegisterModifier" style="stroke:#181818;stroke-width:1;"/><polygon fill="#181818" points="1078.15,597.69,1080.1392,588.0441,1077.084,592.805,1072.3231,589.7498,1078.15,597.69" style="stroke:#181818;stroke-width:1;"/></g><!--link LoanRegisterController to SideBarController--><g class="link" data-entity-1="LoanRegisterController" data-entity-2="SideBarController" data-source-line="101" data-uid="lnk16" id="link_LoanRegisterController_SideBarController"><path codeLine="101" d="M906.3,145 C923.04,145 933.77,145 950.5,145" fill="none" id="LoanRegisterController-to-SideBarController" style="stroke:#181818;stroke-width:1;"/><polygon fill="#181818" points="956.5,145,947.5,141,951.5,145,947.5,149,956.5,145" style="stroke:#181818;stroke-width:1;"/><text fill="#000000" font-family="sans-serif" font-size="13" lengthAdjust="spacing" textLength="8.271" x="914.0374" y="141.7969">1</text><text fill="#000000" font-family="sans-serif" font-size="13" lengthAdjust="spacing" textLength="8.271" x="940.2566" y="141.531">1</text></g><!--link LoanRegisterController to LoanInsertPopupController--><g class="link" data-entity-1="LoanRegisterController" data-entity-2="LoanInsertPopupController" data-source-line="102" data-uid="lnk17" id="link_LoanRegisterController_LoanInsertPopupController"><path codeLine="102" d="M532,283.08 C507.94,303.32 488.1823,319.9285 465.3723,339.1085" fill="none" id="LoanRegisterController-to-LoanInsertPopupController" style="stroke:#181818;stroke-width:1;"/><polygon fill="#181818" points="460.78,342.97,470.2427,340.2393,464.6069,339.7521,465.0941,334.1163,460.78,342.97" style="stroke:#181818;stroke-width:1;"/><text fill="#000000" font-family="sans-serif" font-size="13" lengthAdjust="spacing" textLength="8.271" x="514.8673" y="303.1077">1</text><text fill="#000000" font-family="sans-serif" font-size="13" lengthAdjust="spacing" textLength="8.271" x="461.2825" y="332.0132">1</text></g><!--link LoanRegisterController to LoanModifyPopupController--><g class="link" data-entity-1="LoanRegisterController" data-entity-2="LoanModifyPopupController" data-source-line="103" data-uid="lnk18" id="link_LoanRegisterController_LoanModifyPopupController"><path codeLine="103" d="M858,283.08 C889.08,309.21 916.0476,331.8987 944.1276,355.5087" fill="none" id="LoanRegisterController-to-LoanModifyPopupController" style="stroke:#181818;stroke-width:1;"/><polygon fill="#181818" points="948.72,359.37,944.4056,350.5164,944.893,356.1522,939.2572,356.6396,948.72,359.37" style="stroke:#181818;stroke-width:1;"/><text fill="#000000" font-family="sans-serif" font-size="13" lengthAdjust="spacing" textLength="8.271" x="858.6955" y="303.1077">1</text><text fill="#000000" font-family="sans-serif" font-size="13" lengthAdjust="spacing" textLength="8.271" x="931.897" y="348.5457">1</text></g><!--link RegisterAdder to RegisterValidator--><!--SRC=[jLPBRwCm4BxxLrZDORjAaNOFUrbLIC2I5H9Dgf3DeQiz671Jgs17nkbZk_tlQmC6p2DD3yqbU1xVp7mpVXJtXEuHHpcaBCK5tiDlNm18CbGKC6I8hl6E509pZr71MPPX_WBcX191K4R-ulFFy3jyO2G5LYQjDoZEi9IK_rk27oyLXWsiGXnIJ8MNvLhhiUoGqr9_0IF12Tr9kvYn-pUDL2IVfbDs8KjGzWC9B4qv5WTESVes9eavui_IAAo-PCuanIxgL2wLKLzMPHFG0dDnpVQ7lM4UJkagjokMajldSRTH7R3O7dSHE_mhJSUfe-4uPmzumLckkzagvmKMTSNdXC813OtXgvwA0GKlm49fwWegJTs348nAxZ3YoPqqsomKx_X9B0ZEcbnCuxpCsf21-GuBfqGjSwt5IXgrqAMg1LVQjSRlkrtf85t5QtVKHnjrRDercpBFict6kfvynQyhXrhhLh50XCeEIBBZ4Na7HeikbRzjT2ogjjCOQ36k6iEjKKpei5zOEHQdLJi9j9NqfKYm0LYZw00siXwezIw-cZFdFKoOVJqXEG3K37MdQ7JVJaoHfcd3AY_DZbxNHy7ur9KcnAX7Y_If-zvYh6xmAlQWbJf6lvDlflEnmr5suTF7_89bS1EiOB3S-Ek5uta-010IAhEvHGdkROID_GBaSQXg4KoAe3gYL9foUZECoZDdwDjGfTppPXXObYht2naDKlmu0ZM2rLAam4XHhgjyjfXNOzM7-I3c041n8JXA16nto61lpFJhm9L9UIoFcSkUsZqvAny5XgxQuJFz472DQs2MC7fBU6vSABC4qGHdvYNJiNGIGHXLBE476LKQLH9VhPefQr5EirSDchnQe6LP_-mnIi3aGNB4vsYarBA7yt4qDTkSQt0ifsdqgIBimUI3ke3XWnEUVJs35fS-wcFu0ZlcbTPUqm-nKxt7tsDguy0mMFeEN3gHjues3hpsr_0g-1a6gxMpzc7em6qG_NB2uER6aUV8qWVcLMhzlYFoW_xXP7Sdh14cPP3_]--></g></svg>