<svg xmlns="http://www.w3.org/2000/svg" xmlns:xlink="http://www.w3.org/1999/xlink" contentStyleType="text/css" data-diagram-type="SEQUENCE" height="331px" preserveAspectRatio="none" style="width:578px;height:331px;background:#FFFFFF;" version="1.1" viewBox="0 0 578 331" width="578px" zoomAndPan="magnify"><defs/><g><rect fill="none" height="77.3984" style="stroke:#000000;stroke-width:1.5;" width="434.1377" x="137.7524" y="156.5625"/><g><title>Admin</title><rect fill="#000000" fill-opacity="0.00000" height="169.6641" width="8" x="26.4321" y="81.2969"/><line style="stroke:#181818;stroke-width:0.5;stroke-dasharray:5,5;" x1="30" x2="30" y1="81.2969" y2="250.9609"/></g><g><title>.u..MenuBarController</title><rect fill="#000000" fill-opacity="0.00000" height="169.6641" width="8" x="218.8862" y="81.2969"/><line style="stroke:#181818;stroke-width:0.5;stroke-dasharray:5,5;" x1="222.7524" x2="222.7524" y1="81.2969" y2="250.9609"/></g><g><title>.u..LibraryIOManager</title><rect fill="#000000" fill-opacity="0.00000" height="169.6641" width="8" x="485.7983" y="81.2969"/><line style="stroke:#181818;stroke-width:0.5;stroke-dasharray:5,5;" x1="489.7065" x2="489.7065" y1="81.2969" y2="250.9609"/></g><g class="participant participant-head" data-participant="Admin"><text fill="#000000" font-family="sans-serif" font-size="14" lengthAdjust="spacing" textLength="44.8643" x="5" y="77.9951">Admin</text><ellipse cx="30.4321" cy="13.5" fill="#E2E2F0" rx="8" ry="8" style="stroke:#181818;stroke-width:0.5;"/><path d="M30.4321,21.5 L30.4321,48.5 M17.4321,29.5 L43.4321,29.5 M30.4321,48.5 L17.4321,63.5 M30.4321,48.5 L43.4321,63.5" fill="none" style="stroke:#181818;stroke-width:0.5;"/></g><g class="participant participant-tail" data-participant="Admin"><text fill="#000000" font-family="sans-serif" font-size="14" lengthAdjust="spacing" textLength="44.8643" x="5" y="262.9561">Admin</text><ellipse cx="30.4321" cy="274.7578" fill="#E2E2F0" rx="8" ry="8" style="stroke:#181818;stroke-width:0.5;"/><path d="M30.4321,282.7578 L30.4321,309.7578 M17.4321,290.7578 L43.4321,290.7578 M30.4321,309.7578 L17.4321,324.7578 M30.4321,309.7578 L43.4321,324.7578" fill="none" style="stroke:#181818;stroke-width:0.5;"/></g><g class="participant participant-head" data-participant="MenuBarController"><rect fill="#E2E2F0" height="30.2969" rx="2.5" ry="2.5" style="stroke:#181818;stroke-width:0.5;" width="150.2676" x="147.7524" y="50"/><text fill="#000000" font-family="sans-serif" font-size="14" lengthAdjust="spacing" text-decoration="underline" textLength="136.2676" x="154.7524" y="69.9951">:MenuBarController</text></g><g class="participant participant-tail" data-participant="MenuBarController"><rect fill="#E2E2F0" height="30.2969" rx="2.5" ry="2.5" style="stroke:#181818;stroke-width:0.5;" width="150.2676" x="147.7524" y="249.9609"/><text fill="#000000" font-family="sans-serif" font-size="14" lengthAdjust="spacing" text-decoration="underline" textLength="136.2676" x="154.7524" y="269.9561">:MenuBarController</text></g><g class="participant participant-head" data-participant="LibraryIOManager"><rect fill="#E2E2F0" height="30.2969" rx="2.5" ry="2.5" style="stroke:#181818;stroke-width:0.5;" width="144.1836" x="417.7065" y="50"/><text fill="#000000" font-family="sans-serif" font-size="14" lengthAdjust="spacing" text-decoration="underline" textLength="130.1836" x="424.7065" y="69.9951">:LibraryIOManager</text></g><g class="participant participant-tail" data-participant="LibraryIOManager"><rect fill="#E2E2F0" height="30.2969" rx="2.5" ry="2.5" style="stroke:#181818;stroke-width:0.5;" width="144.1836" x="417.7065" y="249.9609"/><text fill="#000000" font-family="sans-serif" font-size="14" lengthAdjust="spacing" text-decoration="underline" textLength="130.1836" x="424.7065" y="269.9561">:LibraryIOManager</text></g><g class="message" data-participant-1="Admin" data-participant-2="MenuBarController"><polygon fill="#181818" points="210.8862,108.4297,220.8862,112.4297,210.8862,116.4297,214.8862,112.4297" style="stroke:#181818;stroke-width:1;"/><line style="stroke:#181818;stroke-width:1;" x1="30.4321" x2="216.8862" y1="112.4297" y2="112.4297"/><text fill="#000000" font-family="sans-serif" font-size="13" lengthAdjust="spacing" textLength="168.4541" x="37.4321" y="107.3638">saveFileWithName(event)</text></g><g class="message" data-participant-1="MenuBarController" data-participant-2="LibraryIOManager"><polygon fill="#181818" points="477.7983,137.5625,487.7983,141.5625,477.7983,145.5625,481.7983,141.5625" style="stroke:#181818;stroke-width:1;"/><line style="stroke:#181818;stroke-width:1;" x1="222.8862" x2="483.7983" y1="141.5625" y2="141.5625"/><text fill="#000000" font-family="sans-serif" font-size="13" lengthAdjust="spacing" textLength="242.9121" x="229.8862" y="136.4966">saveLibrary(library, defaultSavePath)</text></g><path d="M137.7524,156.5625 L202.1953,156.5625 L202.1953,163.6953 L192.1953,173.6953 L137.7524,173.6953 L137.7524,156.5625" fill="#EEEEEE" style="stroke:#000000;stroke-width:1.5;"/><rect fill="none" height="77.3984" style="stroke:#000000;stroke-width:1.5;" width="434.1377" x="137.7524" y="156.5625"/><text fill="#000000" font-family="sans-serif" font-size="13" font-weight="bold" lengthAdjust="spacing" textLength="19.4429" x="152.7524" y="169.6294">alt</text><text fill="#000000" font-family="sans-serif" font-size="11" font-weight="bold" lengthAdjust="spacing" textLength="59.4043" x="217.1953" y="168.7729">[Success]</text><g class="message" data-participant-1="LibraryIOManager" data-participant-2="MenuBarController"><polygon fill="#181818" points="233.8862,190.8281,223.8862,194.8281,233.8862,198.8281,229.8862,194.8281" style="stroke:#181818;stroke-width:1;"/><line style="stroke:#181818;stroke-width:1;" x1="227.8862" x2="488.7983" y1="194.8281" y2="194.8281"/><text fill="#000000" font-family="sans-serif" font-size="13" lengthAdjust="spacing" textLength="60.9946" x="239.8862" y="189.7622">success()</text></g><line style="stroke:#000000;stroke-width:1;stroke-dasharray:2,2;" x1="137.7524" x2="571.8901" y1="203.8281" y2="203.8281"/><g class="message" data-participant-1="LibraryIOManager" data-participant-2="MenuBarController"><polygon fill="#181818" points="233.8862,221.9609,223.8862,225.9609,233.8862,229.9609,229.8862,225.9609" style="stroke:#181818;stroke-width:1;"/><line style="stroke:#181818;stroke-width:1;" x1="227.8862" x2="488.7983" y1="225.9609" y2="225.9609"/><text fill="#000000" font-family="sans-serif" font-size="13" lengthAdjust="spacing" textLength="51.4922" x="239.8862" y="220.895">failure()</text></g><!--SRC=[ZOxFQiCm38VlUWhHInFONg2KWjTc8H0dsx8_q9kMgAl1TOej5_RsovQUPWOxIVoaxvEMkqgLJqfhXRiAk-BnfMZsKr_KsAdwLJshignQtBODDgqk0AYNqQCQJiO1dCcBwSsPdE1Y7JShpIxUaT-EJlneBVi5Ki0aJS7Ql7lodrMhoT77bViT8i3FORpTf4vSOQ0BtnlBRqQE3PquumixoI7TdGI9VEQlSMRdUeC37oXQwQRP0yan1xA2NUnx3W4IoL-VpVjP3cm3_nixaB7HypVcXYy0]--></g></svg>