<svg xmlns="http://www.w3.org/2000/svg" xmlns:xlink="http://www.w3.org/1999/xlink" contentStyleType="text/css" data-diagram-type="CLASS" height="414px" preserveAspectRatio="none" style="width:1686px;height:414px;background:#FFFFFF;" version="1.1" viewBox="0 0 1686 414" width="1686px" zoomAndPan="magnify"><defs/><g><!--class RegisterAdder--><g class="entity" data-entity="RegisterAdder" data-source-line="3" data-uid="ent0002" id="entity_RegisterAdder"><rect fill="#F1F1F1" height="64.2969" rx="2.5" ry="2.5" style="stroke:#181818;stroke-width:0.5;" width="204.1035" x="246.97" y="286.11"/><ellipse cx="289.3229" cy="302.11" fill="#B4A7E5" rx="11" ry="11" style="stroke:#181818;stroke-width:1;"/><path d="M285.2448,297.8756 L285.2448,295.7194 L292.6354,295.7194 L292.6354,297.8756 L290.1666,297.8756 L290.1666,305.9537 L292.6354,305.9537 L292.6354,308.11 L285.2448,308.11 L285.2448,305.9537 L287.7135,305.9537 L287.7135,297.8756 L285.2448,297.8756 Z " fill="#000000"/><text fill="#000000" font-family="sans-serif" font-size="14" font-style="italic" lengthAdjust="spacing" textLength="99.9893" x="309.4013" y="306.9567">RegisterAdder</text><rect fill="#FFFFFF" height="15.9688" style="stroke:#181818;stroke-width:1;stroke-dasharray:2,2;" width="9.3301" x="444.7434" y="283.11"/><text fill="#000000" font-family="sans-serif" font-size="12" font-style="italic" lengthAdjust="spacing" textLength="7.3301" x="445.7434" y="295.2487">T</text><line style="stroke:#181818;stroke-width:0.5;" x1="247.97" x2="450.0735" y1="318.11" y2="318.11"/><line style="stroke:#181818;stroke-width:0.5;" x1="247.97" x2="450.0735" y1="326.11" y2="326.11"/><text fill="#000000" font-family="sans-serif" font-size="14" lengthAdjust="spacing" textLength="192.1035" x="252.97" y="343.1051">add(in toAdd  : T) : boolean</text></g><!--class RegisterModifier--><g class="entity" data-entity="RegisterModifier" data-source-line="7" data-uid="ent0003" id="entity_RegisterModifier"><rect fill="#F1F1F1" height="64.2969" rx="2.5" ry="2.5" style="stroke:#181818;stroke-width:0.5;" width="278.6494" x="1197.7" y="286.11"/><ellipse cx="1269.6707" cy="302.11" fill="#B4A7E5" rx="11" ry="11" style="stroke:#181818;stroke-width:1;"/><path d="M1265.5926,297.8756 L1265.5926,295.7194 L1272.9832,295.7194 L1272.9832,297.8756 L1270.5145,297.8756 L1270.5145,305.9537 L1272.9832,305.9537 L1272.9832,308.11 L1265.5926,308.11 L1265.5926,305.9537 L1268.0613,305.9537 L1268.0613,297.8756 L1265.5926,297.8756 Z " fill="#000000"/><text fill="#000000" font-family="sans-serif" font-size="14" font-style="italic" lengthAdjust="spacing" textLength="114.8779" x="1290.1707" y="306.9567">RegisterModifier</text><rect fill="#FFFFFF" height="15.9688" style="stroke:#181818;stroke-width:1;stroke-dasharray:2,2;" width="9.3301" x="1470.0193" y="283.11"/><text fill="#000000" font-family="sans-serif" font-size="12" font-style="italic" lengthAdjust="spacing" textLength="7.3301" x="1471.0193" y="295.2487">T</text><line style="stroke:#181818;stroke-width:0.5;" x1="1198.7" x2="1475.3494" y1="318.11" y2="318.11"/><line style="stroke:#181818;stroke-width:0.5;" x1="1198.7" x2="1475.3494" y1="326.11" y2="326.11"/><text fill="#000000" font-family="sans-serif" font-size="14" lengthAdjust="spacing" textLength="266.6494" x="1203.7" y="343.1051">modify(in old : T, in new : T) : boolean</text></g><!--class RegisterValidator--><g class="entity" data-entity="RegisterValidator" data-source-line="11" data-uid="ent0004" id="entity_RegisterValidator"><rect fill="#F1F1F1" height="64.2969" rx="2.5" ry="2.5" style="stroke:#181818;stroke-width:0.5;" width="233.0059" x="726.52" y="55.89"/><ellipse cx="772.3672" cy="71.89" fill="#B4A7E5" rx="11" ry="11" style="stroke:#181818;stroke-width:1;"/><path d="M768.289,67.6556 L768.289,65.4994 L775.6797,65.4994 L775.6797,67.6556 L773.2109,67.6556 L773.2109,75.7337 L775.6797,75.7337 L775.6797,77.89 L768.289,77.89 L768.289,75.7337 L770.7578,75.7337 L770.7578,67.6556 L768.289,67.6556 Z " fill="#000000"/><text fill="#000000" font-family="sans-serif" font-size="14" font-style="italic" lengthAdjust="spacing" textLength="121.4814" x="792.8672" y="76.7367">RegisterValidator</text><rect fill="#FFFFFF" height="15.9688" style="stroke:#181818;stroke-width:1;stroke-dasharray:2,2;" width="9.3301" x="953.1958" y="52.89"/><text fill="#000000" font-family="sans-serif" font-size="12" font-style="italic" lengthAdjust="spacing" textLength="7.3301" x="954.1958" y="65.0287">T</text><line style="stroke:#181818;stroke-width:0.5;" x1="727.52" x2="958.5259" y1="87.89" y2="87.89"/><line style="stroke:#181818;stroke-width:0.5;" x1="727.52" x2="958.5259" y1="95.89" y2="95.89"/><text fill="#000000" font-family="sans-serif" font-size="14" lengthAdjust="spacing" textLength="221.0059" x="732.52" y="112.8851">isValid(in toVerify : T) : boolean</text></g><!--class StudentInsertPopupController--><g class="entity" data-entity="StudentInsertPopupController" data-source-line="15" data-uid="ent0005" id="entity_StudentInsertPopupController"><rect fill="#F1F1F1" height="129.4844" rx="2.5" ry="2.5" style="stroke:#181818;stroke-width:0.5;" width="684.041" x="7" y="23.29"/><ellipse cx="240.7241" cy="39.29" fill="#ADD1B2" rx="11" ry="11" style="stroke:#181818;stroke-width:1;"/><path d="M243.6929,44.9306 Q243.1147,45.2275 242.4741,45.3681 Q241.8335,45.5244 241.1304,45.5244 Q238.6304,45.5244 237.3022,43.8837 Q235.9897,42.2275 235.9897,39.1025 Q235.9897,35.9775 237.3022,34.3212 Q238.6304,32.665 241.1304,32.665 Q241.8335,32.665 242.4741,32.8212 Q243.1304,32.9775 243.6929,33.2744 L243.6929,35.9931 Q243.0679,35.415 242.4741,35.1494 Q241.8804,34.8681 241.2554,34.8681 Q239.9116,34.8681 239.2241,35.9462 Q238.5366,37.0087 238.5366,39.1025 Q238.5366,41.1962 239.2241,42.2744 Q239.9116,43.3369 241.2554,43.3369 Q241.8804,43.3369 242.4741,43.0712 Q243.0679,42.79 243.6929,42.2119 L243.6929,44.9306 Z " fill="#000000"/><text fill="#000000" font-family="sans-serif" font-size="14" lengthAdjust="spacing" textLength="208.0928" x="261.2241" y="44.1367">StudentInsertPopupController</text><line style="stroke:#181818;stroke-width:0.5;" x1="8" x2="690.041" y1="55.29" y2="55.29"/><g data-visibility-modifier="PRIVATE_FIELD"><rect fill="none" height="6" style="stroke:#C82930;stroke-width:1;" width="6" x="15" y="65.9384"/></g><text fill="#000000" font-family="sans-serif" font-size="14" lengthAdjust="spacing" textLength="345.6865" x="27" y="72.2851">studentRegisterAdder : RegisterAdder&lt;Student&gt;</text><g data-visibility-modifier="PRIVATE_FIELD"><rect fill="none" height="6" style="stroke:#C82930;stroke-width:1;" width="6" x="15" y="82.2353"/></g><text fill="#000000" font-family="sans-serif" font-size="14" lengthAdjust="spacing" textLength="388.6709" x="27" y="88.582">studentRegisterValidator : RegisterValidator&lt;Student&gt;</text><line style="stroke:#181818;stroke-width:0.5;" x1="8" x2="690.041" y1="95.8837" y2="95.8837"/><g data-visibility-modifier="PUBLIC_METHOD"><ellipse cx="18" cy="109.5322" fill="#84BE84" rx="3" ry="3" style="stroke:#038048;stroke-width:1;"/></g><text fill="#000000" font-family="sans-serif" font-size="14" lengthAdjust="spacing" textLength="112.5195" x="27" y="112.8789">initialize() : void</text><g data-visibility-modifier="PUBLIC_METHOD"><ellipse cx="18" cy="125.8291" fill="#84BE84" rx="3" ry="3" style="stroke:#038048;stroke-width:1;"/></g><text fill="#000000" font-family="sans-serif" font-size="14" lengthAdjust="spacing" textLength="593.5645" x="27" y="129.1757">setStudentRegisterAdder(in studentRegisterAdder : RegisterAdder&lt;Student&gt;) : void</text><g data-visibility-modifier="PUBLIC_METHOD"><ellipse cx="18" cy="142.1259" fill="#84BE84" rx="3" ry="3" style="stroke:#038048;stroke-width:1;"/></g><text fill="#000000" font-family="sans-serif" font-size="14" lengthAdjust="spacing" textLength="658.041" x="27" y="145.4726">setStudentRegisterValidator(in studentRegisterValidator : RegisterValidator&lt;Student&gt;) : void</text></g><!--class StudentModifyPopupController--><g class="entity" data-entity="StudentModifyPopupController" data-source-line="24" data-uid="ent0006" id="entity_StudentModifyPopupController"><rect fill="#F1F1F1" height="162.0781" rx="2.5" ry="2.5" style="stroke:#181818;stroke-width:0.5;" width="684.041" x="995" y="7"/><ellipse cx="1225.4839" cy="23" fill="#ADD1B2" rx="11" ry="11" style="stroke:#181818;stroke-width:1;"/><path d="M1228.4526,28.6406 Q1227.8745,28.9375 1227.2339,29.0781 Q1226.5933,29.2344 1225.8901,29.2344 Q1223.3901,29.2344 1222.062,27.5938 Q1220.7495,25.9375 1220.7495,22.8125 Q1220.7495,19.6875 1222.062,18.0313 Q1223.3901,16.375 1225.8901,16.375 Q1226.5933,16.375 1227.2339,16.5313 Q1227.8901,16.6875 1228.4526,16.9844 L1228.4526,19.7031 Q1227.8276,19.125 1227.2339,18.8594 Q1226.6401,18.5781 1226.0151,18.5781 Q1224.6714,18.5781 1223.9839,19.6563 Q1223.2964,20.7188 1223.2964,22.8125 Q1223.2964,24.9063 1223.9839,25.9844 Q1224.6714,27.0469 1226.0151,27.0469 Q1226.6401,27.0469 1227.2339,26.7813 Q1227.8276,26.5 1228.4526,25.9219 L1228.4526,28.6406 Z " fill="#000000"/><text fill="#000000" font-family="sans-serif" font-size="14" lengthAdjust="spacing" textLength="214.5732" x="1245.9839" y="27.8467">StudentModifyPopupController</text><line style="stroke:#181818;stroke-width:0.5;" x1="996" x2="1678.041" y1="39" y2="39"/><g data-visibility-modifier="PRIVATE_FIELD"><rect fill="none" height="6" style="stroke:#C82930;stroke-width:1;" width="6" x="1003" y="49.6484"/></g><text fill="#000000" font-family="sans-serif" font-size="14" lengthAdjust="spacing" textLength="375.4639" x="1015" y="55.9951">studentRegisterModifier : RegisterModifier&lt;Student&gt;</text><g data-visibility-modifier="PRIVATE_FIELD"><rect fill="none" height="6" style="stroke:#C82930;stroke-width:1;" width="6" x="1003" y="65.9453"/></g><text fill="#000000" font-family="sans-serif" font-size="14" lengthAdjust="spacing" textLength="388.6709" x="1015" y="72.292">studentRegisterValidator : RegisterValidator&lt;Student&gt;</text><g data-visibility-modifier="PRIVATE_FIELD"><rect fill="none" height="6" style="stroke:#C82930;stroke-width:1;" width="6" x="1003" y="82.2422"/></g><text fill="#000000" font-family="sans-serif" font-size="14" lengthAdjust="spacing" textLength="181.5488" x="1015" y="88.5889">studentToModify: Student</text><line style="stroke:#181818;stroke-width:0.5;" x1="996" x2="1678.041" y1="95.8906" y2="95.8906"/><g data-visibility-modifier="PUBLIC_METHOD"><ellipse cx="1006" cy="109.5391" fill="#84BE84" rx="3" ry="3" style="stroke:#038048;stroke-width:1;"/></g><text fill="#000000" font-family="sans-serif" font-size="14" lengthAdjust="spacing" textLength="112.5195" x="1015" y="112.8857">initialize() : void</text><g data-visibility-modifier="PUBLIC_METHOD"><ellipse cx="1006" cy="125.8359" fill="#84BE84" rx="3" ry="3" style="stroke:#038048;stroke-width:1;"/></g><text fill="#000000" font-family="sans-serif" font-size="14" lengthAdjust="spacing" textLength="397.6396" x="1015" y="129.1826">setStudentToModify(in studentToModify : Student) : void</text><g data-visibility-modifier="PUBLIC_METHOD"><ellipse cx="1006" cy="142.1328" fill="#84BE84" rx="3" ry="3" style="stroke:#038048;stroke-width:1;"/></g><text fill="#000000" font-family="sans-serif" font-size="14" lengthAdjust="spacing" textLength="638.2305" x="1015" y="145.4795">setStudentRegisterModifier(in studentRegisterModifier : RegisterModifier&lt;Student&gt;) : void</text><g data-visibility-modifier="PUBLIC_METHOD"><ellipse cx="1006" cy="158.4297" fill="#84BE84" rx="3" ry="3" style="stroke:#038048;stroke-width:1;"/></g><text fill="#000000" font-family="sans-serif" font-size="14" lengthAdjust="spacing" textLength="658.041" x="1015" y="161.7764">setStudentRegisterValidator(in studentRegisterValidator : RegisterValidator&lt;Student&gt;) : void</text></g><!--class StudentPopupController--><g class="entity" data-entity="StudentPopupController" data-source-line="35" data-uid="ent0007" id="entity_StudentPopupController"><rect fill="#F1F1F1" height="178.375" rx="2.5" ry="2.5" style="stroke:#181818;stroke-width:0.5;" width="356.4766" x="645.78" y="229.07"/><ellipse cx="735.799" cy="245.07" fill="#A9DCDF" rx="11" ry="11" style="stroke:#181818;stroke-width:1;"/><path d="M735.9084,240.4138 L734.7522,245.4919 L737.0803,245.4919 L735.9084,240.4138 Z M734.424,238.1794 L737.4084,238.1794 L740.7678,250.57 L738.3147,250.57 L737.549,247.5075 L734.2678,247.5075 L733.5178,250.57 L731.0803,250.57 L734.424,238.1794 Z " fill="#000000"/><text fill="#000000" font-family="sans-serif" font-size="14" font-style="italic" lengthAdjust="spacing" textLength="167.9385" x="756.299" y="249.9167">StudentPopupController</text><line style="stroke:#181818;stroke-width:0.5;" x1="646.78" x2="1001.2566" y1="261.07" y2="261.07"/><g data-visibility-modifier="PROTECTED_FIELD"><polygon fill="none" points="656.78,269.7184,660.78,273.7184,656.78,277.7184,652.78,273.7184" style="stroke:#B38D22;stroke-width:1;"/></g><text fill="#000000" font-family="sans-serif" font-size="14" lengthAdjust="spacing" textLength="134.1963" x="665.78" y="278.0651">nameTF : TextField</text><g data-visibility-modifier="PROTECTED_FIELD"><polygon fill="none" points="656.78,286.0153,660.78,290.0153,656.78,294.0153,652.78,290.0153" style="stroke:#B38D22;stroke-width:1;"/></g><text fill="#000000" font-family="sans-serif" font-size="14" lengthAdjust="spacing" textLength="156.1191" x="665.78" y="294.362">surnameTF : TextField</text><g data-visibility-modifier="PROTECTED_FIELD"><polygon fill="none" points="656.78,302.3122,660.78,306.3122,656.78,310.3122,652.78,306.3122" style="stroke:#B38D22;stroke-width:1;"/></g><text fill="#000000" font-family="sans-serif" font-size="14" lengthAdjust="spacing" textLength="161.0273" x="665.78" y="310.6589">studentIdTF : TextField</text><g data-visibility-modifier="PROTECTED_FIELD"><polygon fill="none" points="656.78,318.6091,660.78,322.6091,656.78,326.6091,652.78,322.6091" style="stroke:#B38D22;stroke-width:1;"/></g><text fill="#000000" font-family="sans-serif" font-size="14" lengthAdjust="spacing" textLength="133.1025" x="665.78" y="326.9557">emailTF : TextField</text><g data-visibility-modifier="PROTECTED_FIELD"><polygon fill="none" points="656.78,334.9059,660.78,338.9059,656.78,342.9059,652.78,338.9059" style="stroke:#B38D22;stroke-width:1;"/></g><text fill="#000000" font-family="sans-serif" font-size="14" lengthAdjust="spacing" textLength="137.8262" x="665.78" y="343.2526">confirmBtn : Button</text><g data-visibility-modifier="PROTECTED_FIELD"><polygon fill="none" points="656.78,351.2028,660.78,355.2028,656.78,359.2028,652.78,355.2028" style="stroke:#B38D22;stroke-width:1;"/></g><text fill="#000000" font-family="sans-serif" font-size="14" lengthAdjust="spacing" textLength="129.8281" x="665.78" y="359.5495">cancelBtn : Button</text><line style="stroke:#181818;stroke-width:0.5;" x1="646.78" x2="1001.2566" y1="366.8513" y2="366.8513"/><g data-visibility-modifier="PROTECTED_METHOD"><polygon fill="#FFFF44" points="656.78,375.4997,660.78,379.4997,656.78,383.4997,652.78,379.4997" style="stroke:#B38D22;stroke-width:1;"/></g><text fill="#000000" font-family="sans-serif" font-size="14" lengthAdjust="spacing" textLength="330.4766" x="665.78" y="383.8464">confirmBtnAction(in event : ActionEvent) : void</text><g data-visibility-modifier="PROTECTED_METHOD"><polygon fill="#FFFF44" points="656.78,391.7966,660.78,395.7966,656.78,399.7966,652.78,395.7966" style="stroke:#B38D22;stroke-width:1;"/></g><text fill="#000000" font-family="sans-serif" font-size="14" lengthAdjust="spacing" textLength="322.4785" x="665.78" y="400.1432">cancelBtnAction(in event : ActionEvent) : void</text></g><!--link StudentInsertPopupController to StudentPopupController--><g class="link" data-entity-1="StudentInsertPopupController" data-entity-2="StudentPopupController" data-source-line="47" data-uid="lnk8" id="link_StudentInsertPopupController_StudentPopupController"><path codeLine="47" d="M482.6,153.22 C533.09,177.48 575.1554,197.6949 629.1254,223.6249" fill="none" id="StudentInsertPopupController-to-StudentPopupController" style="stroke:#181818;stroke-width:1;"/><polygon fill="none" points="645.35,231.42,631.7238,218.2167,626.5271,229.0331,645.35,231.42" style="stroke:#181818;stroke-width:1;"/></g><!--link StudentModifyPopupController to StudentPopupController--><g class="link" data-entity-1="StudentModifyPopupController" data-entity-2="StudentPopupController" data-source-line="48" data-uid="lnk9" id="link_StudentModifyPopupController_StudentPopupController"><path codeLine="48" d="M1156.16,169.5 C1106.25,191.7 1068.5956,208.4528 1018.8356,230.5928" fill="none" id="StudentModifyPopupController-to-StudentPopupController" style="stroke:#181818;stroke-width:1;"/><polygon fill="none" points="1002.39,237.91,1021.2747,236.0746,1016.3965,225.1109,1002.39,237.91" style="stroke:#181818;stroke-width:1;"/></g><!--link StudentInsertPopupController to RegisterValidator--><g class="link" data-entity-1="StudentInsertPopupController" data-entity-2="RegisterValidator" data-source-line="50" data-uid="lnk10" id="link_StudentInsertPopupController_RegisterValidator"><path codeLine="50" d="M691.54,88.04 C703.08,88.04 708.62,88.04 720.16,88.04" fill="none" id="StudentInsertPopupController-to-RegisterValidator" style="stroke:#181818;stroke-width:1;"/><polygon fill="#181818" points="726.16,88.04,717.16,84.04,721.16,88.04,717.16,92.04,726.16,88.04" style="stroke:#181818;stroke-width:1;"/></g><!--link StudentInsertPopupController to RegisterAdder--><g class="link" data-entity-1="StudentInsertPopupController" data-entity-2="RegisterAdder" data-source-line="51" data-uid="lnk11" id="link_StudentInsertPopupController_RegisterAdder"><path codeLine="51" d="M349.02,153.22 C349.02,196.46 349.02,245.62 349.02,279.69" fill="none" id="StudentInsertPopupController-to-RegisterAdder" style="stroke:#181818;stroke-width:1;"/><polygon fill="#181818" points="349.02,285.69,353.02,276.69,349.02,280.69,345.02,276.69,349.02,285.69" style="stroke:#181818;stroke-width:1;"/></g><!--reverse link RegisterValidator to StudentModifyPopupController--><g class="link" data-entity-1="RegisterValidator" data-entity-2="StudentModifyPopupController" data-source-line="53" data-uid="lnk13" id="link_RegisterValidator_StudentModifyPopupController"><path codeLine="53" d="M965.77,88.04 C977.43,88.04 983.1,88.04 994.77,88.04" fill="none" id="RegisterValidator-backto-StudentModifyPopupController" style="stroke:#181818;stroke-width:1;"/><polygon fill="#181818" points="959.77,88.04,968.77,92.04,964.77,88.04,968.77,84.04,959.77,88.04" style="stroke:#181818;stroke-width:1;"/></g><!--link StudentModifyPopupController to RegisterModifier--><g class="link" data-entity-1="StudentModifyPopupController" data-entity-2="RegisterModifier" data-source-line="54" data-uid="lnk14" id="link_StudentModifyPopupController_RegisterModifier"><path codeLine="54" d="M1337.02,169.5 C1337.02,209.67 1337.02,249.95 1337.02,279.85" fill="none" id="StudentModifyPopupController-to-RegisterModifier" style="stroke:#181818;stroke-width:1;"/><polygon fill="#181818" points="1337.02,285.85,1341.02,276.85,1337.02,280.85,1333.02,276.85,1337.02,285.85" style="stroke:#181818;stroke-width:1;"/></g><!--SRC=[lLJBRi8m4BpxAonnW8hc1weg4Y2GSe1M477epSHBPScnaUtGKjf_hqE2oOkGgcfpYEB9xknuP-r-_q-UO16y14yuM8JJvMmqcKmHOiA0sf88y19UcRQB4QMW7aF_Y0Yb0oQmaHR2-067T_QraP834UYhANSkATkoF3rE5uUKGNAQfjzZ-otWhHFLcd16YP4P5zEdTIPd3SeIDx14d6YDLoQX84mWD2ZpB7V9RYA5KP9pK4SqP88PPia-O92cxoMZoDDPJga7zcUv9pcnNmjtMWif5_qk3Gqrc5L3fNHRFrBWX3Smki8DhDs4ElPgIq_s7hgrjA0ib7Ct2heCsUWywAeNvvagI7PZzbj7l8eSfwRHgtFPXiPs4Vb_ff6DDef41fVSg_dM4oI6S9OU97WtCmQSefvEL2ES7ofQ_G4nORmAHb9icOh7HbXyd1WZXGM9Y82Ni6BaA39CYdJ_iBULR526JFV5wRYmT8kttMYx3x3dVVfN6eJQfhuryKP9vVbr8s_9zCjN0RgXZhVLkBOZlpQytm00]--></g></svg>