<svg xmlns="http://www.w3.org/2000/svg" xmlns:xlink="http://www.w3.org/1999/xlink" contentStyleType="text/css" data-diagram-type="CLASS" height="1043px" preserveAspectRatio="none" style="width:1318px;height:1043px;background:#FFFFFF;" version="1.1" viewBox="0 0 1318 1043" width="1318px" zoomAndPan="magnify"><defs/><g><!--class LoanRegisterController--><g class="entity" data-entity="LoanRegisterController" data-source-line="4" data-uid="ent0002" id="entity_LoanRegisterController"><rect fill="#F1F1F1" height="357.6406" rx="2.5" ry="2.5" style="stroke:#181818;stroke-width:0.5;" width="422.2656" x="469.01" y="294.26"/><ellipse cx="595.2629" cy="310.26" fill="#ADD1B2" rx="11" ry="11" style="stroke:#181818;stroke-width:1;"/><path d="M598.2317,315.9006 Q597.6536,316.1975 597.0129,316.3381 Q596.3723,316.4944 595.6692,316.4944 Q593.1692,316.4944 591.8411,314.8538 Q590.5286,313.1975 590.5286,310.0725 Q590.5286,306.9475 591.8411,305.2913 Q593.1692,303.635 595.6692,303.635 Q596.3723,303.635 597.0129,303.7913 Q597.6692,303.9475 598.2317,304.2444 L598.2317,306.9631 Q597.6067,306.385 597.0129,306.1194 Q596.4192,305.8381 595.7942,305.8381 Q594.4504,305.8381 593.7629,306.9163 Q593.0754,307.9788 593.0754,310.0725 Q593.0754,312.1663 593.7629,313.2444 Q594.4504,314.3069 595.7942,314.3069 Q596.4192,314.3069 597.0129,314.0413 Q597.6067,313.76 598.2317,313.1819 L598.2317,315.9006 Z " fill="#000000"/><text fill="#000000" font-family="sans-serif" font-size="14" lengthAdjust="spacing" textLength="161.2598" x="615.7629" y="315.1067">LoanRegisterController</text><line style="stroke:#181818;stroke-width:0.5;" x1="470.01" x2="890.2756" y1="326.26" y2="326.26"/><g data-visibility-modifier="PRIVATE_FIELD"><rect fill="none" height="6" style="stroke:#C82930;stroke-width:1;" width="6" x="477.01" y="336.9084"/></g><text fill="#000000" font-family="sans-serif" font-size="14" lengthAdjust="spacing" textLength="211.374" x="489.01" y="343.2551">loanTable : TableView&lt;Loan&gt;</text><g data-visibility-modifier="PRIVATE_FIELD"><rect fill="none" height="6" style="stroke:#C82930;stroke-width:1;" width="6" x="477.01" y="353.2053"/></g><text fill="#000000" font-family="sans-serif" font-size="14" lengthAdjust="spacing" textLength="335.8359" x="489.01" y="359.552">studentNameClm : TableColumn&lt;Loan, String&gt;</text><g data-visibility-modifier="PRIVATE_FIELD"><rect fill="none" height="6" style="stroke:#C82930;stroke-width:1;" width="6" x="477.01" y="369.5022"/></g><text fill="#000000" font-family="sans-serif" font-size="14" lengthAdjust="spacing" textLength="357.752" x="489.01" y="375.8489">studentSurnameClm : TableColumn&lt;Loan, String&gt;</text><g data-visibility-modifier="PRIVATE_FIELD"><rect fill="none" height="6" style="stroke:#C82930;stroke-width:1;" width="6" x="477.01" y="385.7991"/></g><text fill="#000000" font-family="sans-serif" font-size="14" lengthAdjust="spacing" textLength="307.5488" x="489.01" y="392.1457">studentIdClm : TableColumn&lt;Loan, String&gt;</text><g data-visibility-modifier="PRIVATE_FIELD"><rect fill="none" height="6" style="stroke:#C82930;stroke-width:1;" width="6" x="477.01" y="402.0959"/></g><text fill="#000000" font-family="sans-serif" font-size="14" lengthAdjust="spacing" textLength="316.4424" x="489.01" y="408.4426">bookNameClm : TableColumn&lt;Loan, String&gt;</text><g data-visibility-modifier="PRIVATE_FIELD"><rect fill="none" height="6" style="stroke:#C82930;stroke-width:1;" width="6" x="477.01" y="418.3928"/></g><text fill="#000000" font-family="sans-serif" font-size="14" lengthAdjust="spacing" textLength="288.1553" x="489.01" y="424.7395">bookIdClm : TableColumn&lt;Loan, String&gt;</text><g data-visibility-modifier="PRIVATE_FIELD"><rect fill="none" height="6" style="stroke:#C82930;stroke-width:1;" width="6" x="477.01" y="434.6897"/></g><text fill="#000000" font-family="sans-serif" font-size="14" lengthAdjust="spacing" textLength="325.7393" x="489.01" y="441.0364">loanEndClm : TableColumn&lt;Loan, LocalDate&gt;</text><g data-visibility-modifier="PRIVATE_FIELD"><rect fill="none" height="6" style="stroke:#C82930;stroke-width:1;" width="6" x="477.01" y="450.9866"/></g><text fill="#000000" font-family="sans-serif" font-size="14" lengthAdjust="spacing" textLength="301.875" x="489.01" y="457.3332">returnedClm : TableColumn&lt;Loan, String&gt;</text><g data-visibility-modifier="PRIVATE_FIELD"><rect fill="none" height="6" style="stroke:#C82930;stroke-width:1;" width="6" x="477.01" y="467.2834"/></g><text fill="#000000" font-family="sans-serif" font-size="14" lengthAdjust="spacing" textLength="107.6113" x="489.01" y="473.6301">library : Library</text><g data-visibility-modifier="PRIVATE_FIELD"><rect fill="none" height="6" style="stroke:#C82930;stroke-width:1;" width="6" x="477.01" y="483.5803"/></g><text fill="#000000" font-family="sans-serif" font-size="14" lengthAdjust="spacing" textLength="258.8018" x="489.01" y="489.927">sideBarController : SideBarController</text><g data-visibility-modifier="PRIVATE_FIELD"><rect fill="none" height="6" style="stroke:#C82930;stroke-width:1;" width="6" x="477.01" y="499.8772"/></g><text fill="#000000" font-family="sans-serif" font-size="14" lengthAdjust="spacing" textLength="383.3047" x="489.01" y="506.2239">loanInsertPopupController : LoanInsertPopupController</text><g data-visibility-modifier="PRIVATE_FIELD"><rect fill="none" height="6" style="stroke:#C82930;stroke-width:1;" width="6" x="477.01" y="516.1741"/></g><text fill="#000000" font-family="sans-serif" font-size="14" lengthAdjust="spacing" textLength="396.2656" x="489.01" y="522.5207">loanModifyPopupController : LoanModifyPopupController</text><line style="stroke:#181818;stroke-width:0.5;" x1="470.01" x2="890.2756" y1="529.8225" y2="529.8225"/><g data-visibility-modifier="PUBLIC_METHOD"><ellipse cx="480.01" cy="543.4709" fill="#84BE84" rx="3" ry="3" style="stroke:#038048;stroke-width:1;"/></g><text fill="#000000" font-family="sans-serif" font-size="14" lengthAdjust="spacing" textLength="185.5342" x="489.01" y="546.8176">LoanRegisterController(...)</text><g data-visibility-modifier="PUBLIC_METHOD"><ellipse cx="480.01" cy="559.7678" fill="#84BE84" rx="3" ry="3" style="stroke:#038048;stroke-width:1;"/></g><text fill="#000000" font-family="sans-serif" font-size="14" lengthAdjust="spacing" textLength="112.5195" x="489.01" y="563.1145">initialize() : void</text><g data-visibility-modifier="PRIVATE_METHOD"><rect fill="#F24D5C" height="6" style="stroke:#C82930;stroke-width:1;" width="6" x="477.01" y="573.0647"/></g><text fill="#000000" font-family="sans-serif" font-size="14" lengthAdjust="spacing" textLength="172.915" x="489.01" y="579.4114">openInsertPopup() : void</text><g data-visibility-modifier="PRIVATE_METHOD"><rect fill="#F24D5C" height="6" style="stroke:#C82930;stroke-width:1;" width="6" x="477.01" y="589.3616"/></g><text fill="#000000" font-family="sans-serif" font-size="14" lengthAdjust="spacing" textLength="179.3955" x="489.01" y="595.7082">openModifyPopup() : void</text><g data-visibility-modifier="PRIVATE_METHOD"><rect fill="#F24D5C" height="6" style="stroke:#C82930;stroke-width:1;" width="6" x="477.01" y="605.6584"/></g><text fill="#000000" font-family="sans-serif" font-size="14" lengthAdjust="spacing" textLength="201.9199" x="489.01" y="612.0051">removeFromRegister() : void</text><g data-visibility-modifier="PRIVATE_METHOD"><rect fill="#F24D5C" height="6" style="stroke:#C82930;stroke-width:1;" width="6" x="477.01" y="621.9553"/></g><text fill="#000000" font-family="sans-serif" font-size="14" lengthAdjust="spacing" textLength="175.5469" x="489.01" y="628.302">updateTableView() : void</text><g data-visibility-modifier="PRIVATE_METHOD"><rect fill="#F24D5C" height="6" style="stroke:#C82930;stroke-width:1;" width="6" x="477.01" y="638.2522"/></g><text fill="#000000" font-family="sans-serif" font-size="14" lengthAdjust="spacing" textLength="134.7979" x="489.01" y="644.5989">searchLoan() : void</text></g><!--class SideBarController--><g class="entity" data-entity="SideBarController" data-source-line="4" data-uid="ent0003" id="entity_SideBarController"><rect fill="#F1F1F1" height="178.375" rx="2.5" ry="2.5" style="stroke:#181818;stroke-width:0.5;" width="226.751" x="731.77" y="785.24"/><ellipse cx="779.2012" cy="801.24" fill="#ADD1B2" rx="11" ry="11" style="stroke:#181818;stroke-width:1;"/><path d="M782.1699,806.8806 Q781.5918,807.1775 780.9512,807.3181 Q780.3105,807.4744 779.6074,807.4744 Q777.1074,807.4744 775.7793,805.8338 Q774.4668,804.1775 774.4668,801.0525 Q774.4668,797.9275 775.7793,796.2713 Q777.1074,794.615 779.6074,794.615 Q780.3105,794.615 780.9512,794.7713 Q781.6074,794.9275 782.1699,795.2244 L782.1699,797.9431 Q781.5449,797.365 780.9512,797.0994 Q780.3574,796.8181 779.7324,796.8181 Q778.3887,796.8181 777.7012,797.8963 Q777.0137,798.9588 777.0137,801.0525 Q777.0137,803.1463 777.7012,804.2244 Q778.3887,805.2869 779.7324,805.2869 Q780.3574,805.2869 780.9512,805.0213 Q781.5449,804.74 782.1699,804.1619 L782.1699,806.8806 Z " fill="#000000"/><text fill="#000000" font-family="sans-serif" font-size="14" lengthAdjust="spacing" textLength="123.3887" x="799.7012" y="806.0867">SideBarController</text><line style="stroke:#181818;stroke-width:0.5;" x1="732.77" x2="957.521" y1="817.24" y2="817.24"/><g data-visibility-modifier="PRIVATE_FIELD"><rect fill="none" height="6" style="stroke:#C82930;stroke-width:1;" width="6" x="739.77" y="827.8884"/></g><text fill="#000000" font-family="sans-serif" font-size="14" lengthAdjust="spacing" textLength="110.8311" x="751.77" y="834.2351">addBtn : Button</text><g data-visibility-modifier="PRIVATE_FIELD"><rect fill="none" height="6" style="stroke:#C82930;stroke-width:1;" width="6" x="739.77" y="844.1853"/></g><text fill="#000000" font-family="sans-serif" font-size="14" lengthAdjust="spacing" textLength="165.2451" x="751.77" y="850.532">searchBarTF : TextField</text><g data-visibility-modifier="PRIVATE_FIELD"><rect fill="none" height="6" style="stroke:#C82930;stroke-width:1;" width="6" x="739.77" y="860.4822"/></g><text fill="#000000" font-family="sans-serif" font-size="14" lengthAdjust="spacing" textLength="137.9492" x="751.77" y="866.8289">removeBtn : Button</text><g data-visibility-modifier="PRIVATE_FIELD"><rect fill="none" height="6" style="stroke:#C82930;stroke-width:1;" width="6" x="739.77" y="876.7791"/></g><text fill="#000000" font-family="sans-serif" font-size="14" lengthAdjust="spacing" textLength="132.6719" x="751.77" y="883.1257">modifyBtn : Button</text><line style="stroke:#181818;stroke-width:0.5;" x1="732.77" x2="957.521" y1="890.4275" y2="890.4275"/><g data-visibility-modifier="PUBLIC_METHOD"><ellipse cx="742.77" cy="904.0759" fill="#84BE84" rx="3" ry="3" style="stroke:#038048;stroke-width:1;"/></g><text fill="#000000" font-family="sans-serif" font-size="14" lengthAdjust="spacing" textLength="145.7422" x="751.77" y="907.4226">getAddBtn() : Button</text><g data-visibility-modifier="PUBLIC_METHOD"><ellipse cx="742.77" cy="920.3728" fill="#84BE84" rx="3" ry="3" style="stroke:#038048;stroke-width:1;"/></g><text fill="#000000" font-family="sans-serif" font-size="14" lengthAdjust="spacing" textLength="200.751" x="751.77" y="923.7195">getSearchBarTF() : TextField</text><g data-visibility-modifier="PUBLIC_METHOD"><ellipse cx="742.77" cy="936.6697" fill="#84BE84" rx="3" ry="3" style="stroke:#038048;stroke-width:1;"/></g><text fill="#000000" font-family="sans-serif" font-size="14" lengthAdjust="spacing" textLength="175.834" x="751.77" y="940.0164">getRemoveBtn() : Button</text><g data-visibility-modifier="PUBLIC_METHOD"><ellipse cx="742.77" cy="952.9666" fill="#84BE84" rx="3" ry="3" style="stroke:#038048;stroke-width:1;"/></g><text fill="#000000" font-family="sans-serif" font-size="14" lengthAdjust="spacing" textLength="165.0264" x="751.77" y="956.3132">getModifyBtn() : Button</text></g><!--class Library--><g class="entity" data-entity="Library" data-source-line="5" data-uid="ent0005" id="entity_Library"><rect fill="#F1F1F1" height="162.0781" rx="2.5" ry="2.5" style="stroke:#181818;stroke-width:0.5;" width="323.7529" x="358.27" y="793.39"/><ellipse cx="491.4204" cy="809.39" fill="#ADD1B2" rx="11" ry="11" style="stroke:#181818;stroke-width:1;"/><path d="M494.3891,815.0306 Q493.811,815.3275 493.1704,815.4681 Q492.5298,815.6244 491.8266,815.6244 Q489.3266,815.6244 487.9985,813.9838 Q486.686,812.3275 486.686,809.2025 Q486.686,806.0775 487.9985,804.4213 Q489.3266,802.765 491.8266,802.765 Q492.5298,802.765 493.1704,802.9213 Q493.8266,803.0775 494.3891,803.3744 L494.3891,806.0931 Q493.7641,805.515 493.1704,805.2494 Q492.5766,804.9681 491.9516,804.9681 Q490.6079,804.9681 489.9204,806.0463 Q489.2329,807.1088 489.2329,809.2025 Q489.2329,811.2963 489.9204,812.3744 Q490.6079,813.4369 491.9516,813.4369 Q492.5766,813.4369 493.1704,813.1713 Q493.7641,812.89 494.3891,812.3119 L494.3891,815.0306 Z " fill="#000000"/><text fill="#000000" font-family="sans-serif" font-size="14" lengthAdjust="spacing" textLength="48.9521" x="511.9204" y="814.2367">Library</text><line style="stroke:#181818;stroke-width:0.5;" x1="359.27" x2="681.0229" y1="825.39" y2="825.39"/><g data-visibility-modifier="PRIVATE_FIELD"><rect fill="none" height="6" style="stroke:#C82930;stroke-width:1;" width="6" x="366.27" y="836.0384"/></g><text fill="#000000" font-family="sans-serif" font-size="14" lengthAdjust="spacing" textLength="222.585" x="378.27" y="842.3851">bookRegister : Register&lt;Book&gt;</text><g data-visibility-modifier="PRIVATE_FIELD"><rect fill="none" height="6" style="stroke:#C82930;stroke-width:1;" width="6" x="366.27" y="852.3353"/></g><text fill="#000000" font-family="sans-serif" font-size="14" lengthAdjust="spacing" textLength="262.2471" x="378.27" y="858.682">studentRegister : Register&lt;Student&gt;</text><g data-visibility-modifier="PRIVATE_FIELD"><rect fill="none" height="6" style="stroke:#C82930;stroke-width:1;" width="6" x="366.27" y="868.6322"/></g><text fill="#000000" font-family="sans-serif" font-size="14" lengthAdjust="spacing" textLength="217.3418" x="378.27" y="874.9789">loanRegister : Register&lt;Loan&gt;</text><line style="stroke:#181818;stroke-width:0.5;" x1="359.27" x2="681.0229" y1="882.2806" y2="882.2806"/><g data-visibility-modifier="PUBLIC_METHOD"><ellipse cx="369.27" cy="895.9291" fill="#84BE84" rx="3" ry="3" style="stroke:#038048;stroke-width:1;"/></g><text fill="#000000" font-family="sans-serif" font-size="14" lengthAdjust="spacing" textLength="59.876" x="378.27" y="899.2757">Library()</text><g data-visibility-modifier="PUBLIC_METHOD"><ellipse cx="369.27" cy="912.2259" fill="#84BE84" rx="3" ry="3" style="stroke:#038048;stroke-width:1;"/></g><text fill="#000000" font-family="sans-serif" font-size="14" lengthAdjust="spacing" textLength="257.2158" x="378.27" y="915.5726">getBookRegister() : Register&lt;Book&gt;</text><g data-visibility-modifier="PUBLIC_METHOD"><ellipse cx="369.27" cy="928.5228" fill="#84BE84" rx="3" ry="3" style="stroke:#038048;stroke-width:1;"/></g><text fill="#000000" font-family="sans-serif" font-size="14" lengthAdjust="spacing" textLength="297.7529" x="378.27" y="931.8695">getStudentRegister() : Register&lt;Student&gt;</text><g data-visibility-modifier="PUBLIC_METHOD"><ellipse cx="369.27" cy="944.8197" fill="#84BE84" rx="3" ry="3" style="stroke:#038048;stroke-width:1;"/></g><text fill="#000000" font-family="sans-serif" font-size="14" lengthAdjust="spacing" textLength="255.165" x="378.27" y="948.1664">getLoanRegister() : Register&lt;Loan&gt;</text></g><!--class LoanInsertPopupController--><g class="entity" data-entity="LoanInsertPopupController" data-source-line="6" data-uid="ent0007" id="entity_LoanInsertPopupController"><rect fill="#F1F1F1" height="178.375" rx="2.5" ry="2.5" style="stroke:#181818;stroke-width:0.5;" width="410.46" x="8.91" y="383.9"/><ellipse cx="116.4906" cy="399.9" fill="#ADD1B2" rx="11" ry="11" style="stroke:#181818;stroke-width:1;"/><path d="M119.4593,405.5406 Q118.8812,405.8375 118.2406,405.9781 Q117.5999,406.1344 116.8968,406.1344 Q114.3968,406.1344 113.0687,404.4938 Q111.7562,402.8375 111.7562,399.7125 Q111.7562,396.5875 113.0687,394.9313 Q114.3968,393.275 116.8968,393.275 Q117.5999,393.275 118.2406,393.4313 Q118.8968,393.5875 119.4593,393.8844 L119.4593,396.6031 Q118.8343,396.025 118.2406,395.7594 Q117.6468,395.4781 117.0218,395.4781 Q115.6781,395.4781 114.9906,396.5563 Q114.3031,397.6188 114.3031,399.7125 Q114.3031,401.8063 114.9906,402.8844 Q115.6781,403.9469 117.0218,403.9469 Q117.6468,403.9469 118.2406,403.6813 Q118.8343,403.4 119.4593,402.8219 L119.4593,405.5406 Z " fill="#000000"/><text fill="#000000" font-family="sans-serif" font-size="14" lengthAdjust="spacing" textLength="186.7988" x="136.9906" y="404.7467">LoanInsertPopupController</text><line style="stroke:#181818;stroke-width:0.5;" x1="9.91" x2="418.37" y1="415.9" y2="415.9"/><g data-visibility-modifier="PRIVATE_FIELD"><rect fill="none" height="6" style="stroke:#C82930;stroke-width:1;" width="6" x="16.91" y="426.5484"/></g><text fill="#000000" font-family="sans-serif" font-size="14" lengthAdjust="spacing" textLength="300.7813" x="28.91" y="432.8951">loanRegisterAdder : RegisterAdder&lt;Loan&gt;</text><g data-visibility-modifier="PRIVATE_FIELD"><rect fill="none" height="6" style="stroke:#C82930;stroke-width:1;" width="6" x="16.91" y="442.8453"/></g><text fill="#000000" font-family="sans-serif" font-size="14" lengthAdjust="spacing" textLength="344.7979" x="28.91" y="449.192">bookRegisterObtainer : RegisterObtainer&lt;Book&gt;</text><g data-visibility-modifier="PRIVATE_FIELD"><rect fill="none" height="6" style="stroke:#C82930;stroke-width:1;" width="6" x="16.91" y="459.1422"/></g><text fill="#000000" font-family="sans-serif" font-size="14" lengthAdjust="spacing" textLength="384.46" x="28.91" y="465.4889">studentRegisterObtainer : RegisterObtainer&lt;Student&gt;</text><g data-visibility-modifier="PRIVATE_FIELD"><rect fill="none" height="6" style="stroke:#C82930;stroke-width:1;" width="6" x="16.91" y="475.4391"/></g><text fill="#000000" font-family="sans-serif" font-size="14" lengthAdjust="spacing" textLength="343.7656" x="28.91" y="481.7857">loanRegisterValidator : RegisterValidator&lt;Loan&gt;</text><line style="stroke:#181818;stroke-width:0.5;" x1="9.91" x2="418.37" y1="489.0875" y2="489.0875"/><g data-visibility-modifier="PUBLIC_METHOD"><ellipse cx="19.91" cy="502.7359" fill="#84BE84" rx="3" ry="3" style="stroke:#038048;stroke-width:1;"/></g><text fill="#000000" font-family="sans-serif" font-size="14" lengthAdjust="spacing" textLength="211.0732" x="28.91" y="506.0826">LoanInsertPopupController(...)</text><g data-visibility-modifier="PUBLIC_METHOD"><ellipse cx="19.91" cy="519.0328" fill="#84BE84" rx="3" ry="3" style="stroke:#038048;stroke-width:1;"/></g><text fill="#000000" font-family="sans-serif" font-size="14" lengthAdjust="spacing" textLength="112.5195" x="28.91" y="522.3795">initialize() : void</text><g data-visibility-modifier="PRIVATE_METHOD"><rect fill="#F24D5C" height="6" style="stroke:#C82930;stroke-width:1;" width="6" x="16.91" y="532.3297"/></g><text fill="#000000" font-family="sans-serif" font-size="14" lengthAdjust="spacing" textLength="188.5898" x="28.91" y="538.6764">setupStudentInsert() : void</text><g data-visibility-modifier="PRIVATE_METHOD"><rect fill="#F24D5C" height="6" style="stroke:#C82930;stroke-width:1;" width="6" x="16.91" y="548.6266"/></g><text fill="#000000" font-family="sans-serif" font-size="14" lengthAdjust="spacing" textLength="168.3213" x="28.91" y="554.9732">setupBookInsert() : void</text></g><!--class LoanModifyPopupController--><g class="entity" data-entity="LoanModifyPopupController" data-source-line="7" data-uid="ent0010" id="entity_LoanModifyPopupController"><rect fill="#F1F1F1" height="129.4844" rx="2.5" ry="2.5" style="stroke:#181818;stroke-width:0.5;" width="369.7656" x="941.26" y="408.34"/><ellipse cx="1025.2532" cy="424.34" fill="#ADD1B2" rx="11" ry="11" style="stroke:#181818;stroke-width:1;"/><path d="M1028.2219,429.9806 Q1027.6438,430.2775 1027.0032,430.4181 Q1026.3625,430.5744 1025.6594,430.5744 Q1023.1594,430.5744 1021.8313,428.9338 Q1020.5188,427.2775 1020.5188,424.1525 Q1020.5188,421.0275 1021.8313,419.3713 Q1023.1594,417.715 1025.6594,417.715 Q1026.3625,417.715 1027.0032,417.8713 Q1027.6594,418.0275 1028.2219,418.3244 L1028.2219,421.0431 Q1027.5969,420.465 1027.0032,420.1994 Q1026.4094,419.9181 1025.7844,419.9181 Q1024.4407,419.9181 1023.7532,420.9963 Q1023.0657,422.0588 1023.0657,424.1525 Q1023.0657,426.2463 1023.7532,427.3244 Q1024.4407,428.3869 1025.7844,428.3869 Q1026.4094,428.3869 1027.0032,428.1213 Q1027.5969,427.84 1028.2219,427.2619 L1028.2219,429.9806 Z " fill="#000000"/><text fill="#000000" font-family="sans-serif" font-size="14" lengthAdjust="spacing" textLength="193.2793" x="1045.7532" y="429.1867">LoanModifyPopupController</text><line style="stroke:#181818;stroke-width:0.5;" x1="942.26" x2="1310.0256" y1="440.34" y2="440.34"/><g data-visibility-modifier="PRIVATE_FIELD"><rect fill="none" height="6" style="stroke:#C82930;stroke-width:1;" width="6" x="949.26" y="450.9884"/></g><text fill="#000000" font-family="sans-serif" font-size="14" lengthAdjust="spacing" textLength="330.5586" x="961.26" y="457.3351">loanRegisterModifier : RegisterModifier&lt;Loan&gt;</text><g data-visibility-modifier="PRIVATE_FIELD"><rect fill="none" height="6" style="stroke:#C82930;stroke-width:1;" width="6" x="949.26" y="467.2853"/></g><text fill="#000000" font-family="sans-serif" font-size="14" lengthAdjust="spacing" textLength="343.7656" x="961.26" y="473.632">loanRegisterValidator : RegisterValidator&lt;Loan&gt;</text><g data-visibility-modifier="PRIVATE_FIELD"><rect fill="none" height="6" style="stroke:#C82930;stroke-width:1;" width="6" x="949.26" y="483.5822"/></g><text fill="#000000" font-family="sans-serif" font-size="14" lengthAdjust="spacing" textLength="141.0938" x="961.26" y="489.9289">loanToModify : Loan</text><line style="stroke:#181818;stroke-width:0.5;" x1="942.26" x2="1310.0256" y1="497.2306" y2="497.2306"/><g data-visibility-modifier="PUBLIC_METHOD"><ellipse cx="952.26" cy="510.8791" fill="#84BE84" rx="3" ry="3" style="stroke:#038048;stroke-width:1;"/></g><text fill="#000000" font-family="sans-serif" font-size="14" lengthAdjust="spacing" textLength="217.5537" x="961.26" y="514.2257">LoanModifyPopupController(...)</text><g data-visibility-modifier="PUBLIC_METHOD"><ellipse cx="952.26" cy="527.1759" fill="#84BE84" rx="3" ry="3" style="stroke:#038048;stroke-width:1;"/></g><text fill="#000000" font-family="sans-serif" font-size="14" lengthAdjust="spacing" textLength="112.5195" x="961.26" y="530.5226">initialize() : void</text></g><!--class RegisterAdder<T>--><g class="entity" data-entity="RegisterAdder.T." data-source-line="9" data-uid="ent0012" id="entity_RegisterAdder.T."><rect fill="#F1F1F1" height="64.2969" rx="2.5" ry="2.5" style="stroke:#181818;stroke-width:0.5;" width="164.002" x="245.14" y="88.48"/><ellipse cx="260.14" cy="104.48" fill="#B4A7E5" rx="11" ry="11" style="stroke:#181818;stroke-width:1;"/><path d="M256.0619,100.2456 L256.0619,98.0894 L263.4525,98.0894 L263.4525,100.2456 L260.9838,100.2456 L260.9838,108.3238 L263.4525,108.3238 L263.4525,110.48 L256.0619,110.48 L256.0619,108.3238 L258.5306,108.3238 L258.5306,100.2456 L256.0619,100.2456 Z " fill="#000000"/><text fill="#000000" font-family="sans-serif" font-size="14" font-style="italic" lengthAdjust="spacing" textLength="132.002" x="274.14" y="109.3267">RegisterAdder&lt;T&gt;</text><line style="stroke:#181818;stroke-width:0.5;" x1="246.14" x2="408.142" y1="120.48" y2="120.48"/><line style="stroke:#181818;stroke-width:0.5;" x1="246.14" x2="408.142" y1="128.48" y2="128.48"/><g data-visibility-modifier="PUBLIC_METHOD"><ellipse cx="256.14" cy="142.1284" fill="#84BE84" rx="3" ry="3" style="stroke:#038048;stroke-width:1;"/></g><text fill="#000000" font-family="sans-serif" font-size="14" lengthAdjust="spacing" textLength="93.8711" x="265.14" y="145.4751">add(...) : void</text></g><!--class RegisterValidator<T>--><g class="entity" data-entity="RegisterValidator.T." data-source-line="10" data-uid="ent0015" id="entity_RegisterValidator.T."><rect fill="#F1F1F1" height="64.2969" rx="2.5" ry="2.5" style="stroke:#181818;stroke-width:0.5;" width="185.4941" x="121.4" y="842.28"/><ellipse cx="136.4" cy="858.28" fill="#B4A7E5" rx="11" ry="11" style="stroke:#181818;stroke-width:1;"/><path d="M132.3219,854.0456 L132.3219,851.8894 L139.7125,851.8894 L139.7125,854.0456 L137.2438,854.0456 L137.2438,862.1238 L139.7125,862.1238 L139.7125,864.28 L132.3219,864.28 L132.3219,862.1238 L134.7906,862.1238 L134.7906,854.0456 L132.3219,854.0456 Z " fill="#000000"/><text fill="#000000" font-family="sans-serif" font-size="14" font-style="italic" lengthAdjust="spacing" textLength="153.4941" x="150.4" y="863.1267">RegisterValidator&lt;T&gt;</text><line style="stroke:#181818;stroke-width:0.5;" x1="122.4" x2="305.8941" y1="874.28" y2="874.28"/><line style="stroke:#181818;stroke-width:0.5;" x1="122.4" x2="305.8941" y1="882.28" y2="882.28"/><g data-visibility-modifier="PUBLIC_METHOD"><ellipse cx="132.4" cy="895.9284" fill="#84BE84" rx="3" ry="3" style="stroke:#038048;stroke-width:1;"/></g><text fill="#000000" font-family="sans-serif" font-size="14" lengthAdjust="spacing" textLength="154.4307" x="141.4" y="899.2751">isUnique(...) : boolean</text></g><!--class RegisterObtainer<T>--><g class="entity" data-entity="RegisterObtainer.T." data-source-line="11" data-uid="ent0017" id="entity_RegisterObtainer.T."><rect fill="#F1F1F1" height="64.2969" rx="2.5" ry="2.5" style="stroke:#181818;stroke-width:0.5;" width="188.2852" x="7" y="88.48"/><ellipse cx="24.2034" cy="104.48" fill="#B4A7E5" rx="11" ry="11" style="stroke:#181818;stroke-width:1;"/><path d="M20.1253,100.2456 L20.1253,98.0894 L27.5159,98.0894 L27.5159,100.2456 L25.0472,100.2456 L25.0472,108.3238 L27.5159,108.3238 L27.5159,110.48 L20.1253,110.48 L20.1253,108.3238 L22.594,108.3238 L22.594,100.2456 L20.1253,100.2456 Z " fill="#000000"/><text fill="#000000" font-family="sans-serif" font-size="14" font-style="italic" lengthAdjust="spacing" textLength="151.3887" x="38.6931" y="109.3267">RegisterObtainer&lt;T&gt;</text><line style="stroke:#181818;stroke-width:0.5;" x1="8" x2="194.2852" y1="120.48" y2="120.48"/><line style="stroke:#181818;stroke-width:0.5;" x1="8" x2="194.2852" y1="128.48" y2="128.48"/><g data-visibility-modifier="PUBLIC_METHOD"><ellipse cx="18" cy="142.1284" fill="#84BE84" rx="3" ry="3" style="stroke:#038048;stroke-width:1;"/></g><text fill="#000000" font-family="sans-serif" font-size="14" lengthAdjust="spacing" textLength="162.2852" x="27" y="145.4751">getRegister() : List&lt;T&gt;</text></g><!--class LoanPopupController--><g class="entity" data-entity="LoanPopupController" data-source-line="12" data-uid="ent0020" id="entity_LoanPopupController"><rect fill="#F1F1F1" height="227.2656" rx="2.5" ry="2.5" style="stroke:#181818;stroke-width:0.5;" width="287.7139" x="579.29" y="7"/><ellipse cx="645.5747" cy="23" fill="#A9DCDF" rx="11" ry="11" style="stroke:#181818;stroke-width:1;"/><path d="M645.684,18.3438 L644.5278,23.4219 L646.8559,23.4219 L645.684,18.3438 Z M644.1997,16.1094 L647.184,16.1094 L650.5434,28.5 L648.0903,28.5 L647.3247,25.4375 L644.0434,25.4375 L643.2934,28.5 L640.8559,28.5 L644.1997,16.1094 Z " fill="#000000"/><text fill="#000000" font-family="sans-serif" font-size="14" font-style="italic" lengthAdjust="spacing" textLength="146.6445" x="666.0747" y="27.8467">LoanPopupController</text><line style="stroke:#181818;stroke-width:0.5;" x1="580.29" x2="866.0039" y1="39" y2="39"/><g data-visibility-modifier="PROTECTED_FIELD"><polygon fill="none" points="590.29,47.6484,594.29,51.6484,590.29,55.6484,586.29,51.6484" style="stroke:#B38D22;stroke-width:1;"/></g><text fill="#000000" font-family="sans-serif" font-size="14" lengthAdjust="spacing" textLength="196.417" x="599.29" y="55.9951">studentSearchTF : TextField</text><g data-visibility-modifier="PROTECTED_FIELD"><polygon fill="none" points="590.29,63.9453,594.29,67.9453,590.29,71.9453,586.29,67.9453" style="stroke:#B38D22;stroke-width:1;"/></g><text fill="#000000" font-family="sans-serif" font-size="14" lengthAdjust="spacing" textLength="261.7139" x="599.29" y="72.292">studentListView : ListView&lt;Student&gt;</text><g data-visibility-modifier="PROTECTED_FIELD"><polygon fill="none" points="590.29,80.2422,594.29,84.2422,590.29,88.2422,586.29,84.2422" style="stroke:#B38D22;stroke-width:1;"/></g><text fill="#000000" font-family="sans-serif" font-size="14" lengthAdjust="spacing" textLength="177.0234" x="599.29" y="88.5889">bookSearchTF : TextField</text><g data-visibility-modifier="PROTECTED_FIELD"><polygon fill="none" points="590.29,96.5391,594.29,100.5391,590.29,104.5391,586.29,100.5391" style="stroke:#B38D22;stroke-width:1;"/></g><text fill="#000000" font-family="sans-serif" font-size="14" lengthAdjust="spacing" textLength="222.0518" x="599.29" y="104.8857">bookListView : ListView&lt;Book&gt;</text><g data-visibility-modifier="PROTECTED_FIELD"><polygon fill="none" points="590.29,112.8359,594.29,116.8359,590.29,120.8359,586.29,116.8359" style="stroke:#B38D22;stroke-width:1;"/></g><text fill="#000000" font-family="sans-serif" font-size="14" lengthAdjust="spacing" textLength="140.376" x="599.29" y="121.1826">dateDP : DatePicker</text><g data-visibility-modifier="PROTECTED_FIELD"><polygon fill="none" points="590.29,129.1328,594.29,133.1328,590.29,137.1328,586.29,133.1328" style="stroke:#B38D22;stroke-width:1;"/></g><text fill="#000000" font-family="sans-serif" font-size="14" lengthAdjust="spacing" textLength="137.8262" x="599.29" y="137.4795">confirmBtn : Button</text><g data-visibility-modifier="PROTECTED_FIELD"><polygon fill="none" points="590.29,145.4297,594.29,149.4297,590.29,153.4297,586.29,149.4297" style="stroke:#B38D22;stroke-width:1;"/></g><text fill="#000000" font-family="sans-serif" font-size="14" lengthAdjust="spacing" textLength="129.8281" x="599.29" y="153.7764">cancelBtn : Button</text><line style="stroke:#181818;stroke-width:0.5;" x1="580.29" x2="866.0039" y1="161.0781" y2="161.0781"/><g data-visibility-modifier="PUBLIC_METHOD"><ellipse cx="590.29" cy="174.7266" fill="#84BE84" rx="3" ry="3" style="stroke:#038048;stroke-width:1;"/></g><text fill="#000000" font-family="sans-serif" font-size="14" lengthAdjust="spacing" textLength="112.5195" x="599.29" y="178.0732">initialize() : void</text><g data-visibility-modifier="PUBLIC_METHOD"><ellipse cx="590.29" cy="191.0234" fill="#84BE84" rx="3" ry="3" style="stroke:#038048;stroke-width:1;"/></g><text fill="#000000" font-family="sans-serif" font-size="14" font-style="italic" lengthAdjust="spacing" textLength="188.9248" x="599.29" y="194.3701">confirmBtnAction(...) : void</text><g data-visibility-modifier="PUBLIC_METHOD"><ellipse cx="590.29" cy="207.3203" fill="#84BE84" rx="3" ry="3" style="stroke:#038048;stroke-width:1;"/></g><text fill="#000000" font-family="sans-serif" font-size="14" lengthAdjust="spacing" textLength="180.9268" x="599.29" y="210.667">cancelBtnAction(...) : void</text><g data-visibility-modifier="PROTECTED_METHOD"><polygon fill="#FFFF44" points="590.29,218.6172,594.29,222.6172,590.29,226.6172,586.29,222.6172" style="stroke:#B38D22;stroke-width:1;"/></g><text fill="#000000" font-family="sans-serif" font-size="14" lengthAdjust="spacing" textLength="137.0264" x="599.29" y="226.9639">showAlert(...) : void</text></g><!--class RegisterModifier<T>--><g class="entity" data-entity="RegisterModifier.T." data-source-line="15" data-uid="ent0023" id="entity_RegisterModifier.T."><rect fill="#F1F1F1" height="64.2969" rx="2.5" ry="2.5" style="stroke:#181818;stroke-width:0.5;" width="178.8906" x="1036.7" y="88.48"/><ellipse cx="1051.7" cy="104.48" fill="#B4A7E5" rx="11" ry="11" style="stroke:#181818;stroke-width:1;"/><path d="M1047.6219,100.2456 L1047.6219,98.0894 L1055.0125,98.0894 L1055.0125,100.2456 L1052.5438,100.2456 L1052.5438,108.3238 L1055.0125,108.3238 L1055.0125,110.48 L1047.6219,110.48 L1047.6219,108.3238 L1050.0906,108.3238 L1050.0906,100.2456 L1047.6219,100.2456 Z " fill="#000000"/><text fill="#000000" font-family="sans-serif" font-size="14" font-style="italic" lengthAdjust="spacing" textLength="146.8906" x="1065.7" y="109.3267">RegisterModifier&lt;T&gt;</text><line style="stroke:#181818;stroke-width:0.5;" x1="1037.7" x2="1214.5906" y1="120.48" y2="120.48"/><line style="stroke:#181818;stroke-width:0.5;" x1="1037.7" x2="1214.5906" y1="128.48" y2="128.48"/><g data-visibility-modifier="PUBLIC_METHOD"><ellipse cx="1047.7" cy="142.1284" fill="#84BE84" rx="3" ry="3" style="stroke:#038048;stroke-width:1;"/></g><text fill="#000000" font-family="sans-serif" font-size="14" lengthAdjust="spacing" textLength="115.7119" x="1056.7" y="145.4751">modify(...) : void</text></g><!--class Loan--><g class="entity" data-entity="Loan" data-source-line="17" data-uid="ent0028" id="entity_Loan"><rect fill="#F1F1F1" height="325.0469" rx="2.5" ry="2.5" style="stroke:#181818;stroke-width:0.5;" width="234.4141" x="1008.94" y="711.9"/><ellipse cx="1104.9883" cy="727.9" fill="#ADD1B2" rx="11" ry="11" style="stroke:#181818;stroke-width:1;"/><path d="M1107.9571,733.5406 Q1107.379,733.8375 1106.7383,733.9781 Q1106.0977,734.1344 1105.3946,734.1344 Q1102.8946,734.1344 1101.5665,732.4938 Q1100.254,730.8375 1100.254,727.7125 Q1100.254,724.5875 1101.5665,722.9313 Q1102.8946,721.275 1105.3946,721.275 Q1106.0977,721.275 1106.7383,721.4313 Q1107.3946,721.5875 1107.9571,721.8844 L1107.9571,724.6031 Q1107.3321,724.025 1106.7383,723.7594 Q1106.1446,723.4781 1105.5196,723.4781 Q1104.1758,723.4781 1103.4883,724.5563 Q1102.8008,725.6188 1102.8008,727.7125 Q1102.8008,729.8063 1103.4883,730.8844 Q1104.1758,731.9469 1105.5196,731.9469 Q1106.1446,731.9469 1106.7383,731.6813 Q1107.3321,731.4 1107.9571,730.8219 L1107.9571,733.5406 Z " fill="#000000"/><text fill="#000000" font-family="sans-serif" font-size="14" lengthAdjust="spacing" textLength="33.8174" x="1125.4883" y="732.7467">Loan</text><line style="stroke:#181818;stroke-width:0.5;" x1="1009.94" x2="1242.3541" y1="743.9" y2="743.9"/><g data-visibility-modifier="PRIVATE_FIELD"><rect fill="none" height="6" style="stroke:#C82930;stroke-width:1;" width="6" x="1016.94" y="754.5484"/></g><text fill="#000000" font-family="sans-serif" font-size="14" lengthAdjust="spacing" textLength="178.1104" x="1028.94" y="760.8951">loanId : UUID {readOnly}</text><g data-visibility-modifier="PRIVATE_FIELD"><rect fill="none" height="6" style="stroke:#C82930;stroke-width:1;" width="6" x="1016.94" y="770.8453"/></g><text fill="#000000" font-family="sans-serif" font-size="14" lengthAdjust="spacing" textLength="208.4141" x="1028.94" y="777.192">student : Student {readOnly}</text><g data-visibility-modifier="PRIVATE_FIELD"><rect fill="none" height="6" style="stroke:#C82930;stroke-width:1;" width="6" x="1016.94" y="787.1422"/></g><text fill="#000000" font-family="sans-serif" font-size="14" lengthAdjust="spacing" textLength="168.752" x="1028.94" y="793.4889">book : Book {readOnly}</text><g data-visibility-modifier="PRIVATE_FIELD"><rect fill="none" height="6" style="stroke:#C82930;stroke-width:1;" width="6" x="1016.94" y="803.4391"/></g><text fill="#000000" font-family="sans-serif" font-size="14" lengthAdjust="spacing" textLength="140.123" x="1028.94" y="809.7857">loanEnd : LocalDate</text><g data-visibility-modifier="PRIVATE_FIELD"><rect fill="none" height="6" style="stroke:#C82930;stroke-width:1;" width="6" x="1016.94" y="819.7359"/></g><text fill="#000000" font-family="sans-serif" font-size="14" lengthAdjust="spacing" textLength="130.4502" x="1028.94" y="826.0826">returned : boolean</text><line style="stroke:#181818;stroke-width:0.5;" x1="1009.94" x2="1242.3541" y1="833.3844" y2="833.3844"/><g data-visibility-modifier="PUBLIC_METHOD"><ellipse cx="1019.94" cy="847.0328" fill="#84BE84" rx="3" ry="3" style="stroke:#038048;stroke-width:1;"/></g><text fill="#000000" font-family="sans-serif" font-size="14" lengthAdjust="spacing" textLength="58.0918" x="1028.94" y="850.3795">Loan(...)</text><g data-visibility-modifier="PUBLIC_METHOD"><ellipse cx="1019.94" cy="863.3297" fill="#84BE84" rx="3" ry="3" style="stroke:#038048;stroke-width:1;"/></g><text fill="#000000" font-family="sans-serif" font-size="14" lengthAdjust="spacing" textLength="129.7666" x="1028.94" y="866.6764">getLoanId() : UUID</text><g data-visibility-modifier="PUBLIC_METHOD"><ellipse cx="1019.94" cy="879.6266" fill="#84BE84" rx="3" ry="3" style="stroke:#038048;stroke-width:1;"/></g><text fill="#000000" font-family="sans-serif" font-size="14" lengthAdjust="spacing" textLength="157.7529" x="1028.94" y="882.9732">getStudent() : Student</text><g data-visibility-modifier="PUBLIC_METHOD"><ellipse cx="1019.94" cy="895.9234" fill="#84BE84" rx="3" ry="3" style="stroke:#038048;stroke-width:1;"/></g><text fill="#000000" font-family="sans-serif" font-size="14" lengthAdjust="spacing" textLength="117.2158" x="1028.94" y="899.2701">getBook() : Book</text><g data-visibility-modifier="PUBLIC_METHOD"><ellipse cx="1019.94" cy="912.2203" fill="#84BE84" rx="3" ry="3" style="stroke:#038048;stroke-width:1;"/></g><text fill="#000000" font-family="sans-serif" font-size="14" lengthAdjust="spacing" textLength="177.9463" x="1028.94" y="915.567">getLoanEnd() : LocalDate</text><g data-visibility-modifier="PUBLIC_METHOD"><ellipse cx="1019.94" cy="928.5172" fill="#84BE84" rx="3" ry="3" style="stroke:#038048;stroke-width:1;"/></g><text fill="#000000" font-family="sans-serif" font-size="14" lengthAdjust="spacing" textLength="156.5293" x="1028.94" y="931.8639">isReturned() : boolean</text><g data-visibility-modifier="PUBLIC_METHOD"><ellipse cx="1019.94" cy="944.8141" fill="#84BE84" rx="3" ry="3" style="stroke:#038048;stroke-width:1;"/></g><text fill="#000000" font-family="sans-serif" font-size="14" lengthAdjust="spacing" textLength="149.3379" x="1028.94" y="948.1607">setLoanEnd(...) : void</text><g data-visibility-modifier="PUBLIC_METHOD"><ellipse cx="1019.94" cy="961.1109" fill="#84BE84" rx="3" ry="3" style="stroke:#038048;stroke-width:1;"/></g><text fill="#000000" font-family="sans-serif" font-size="14" lengthAdjust="spacing" textLength="131.3457" x="1028.94" y="964.4576">returnLoan() : void</text><g data-visibility-modifier="PUBLIC_METHOD"><ellipse cx="1019.94" cy="977.4078" fill="#84BE84" rx="3" ry="3" style="stroke:#038048;stroke-width:1;"/></g><text fill="#000000" font-family="sans-serif" font-size="14" lengthAdjust="spacing" textLength="144.6074" x="1028.94" y="980.7545">activateLoan() : void</text><g data-visibility-modifier="PUBLIC_METHOD"><ellipse cx="1019.94" cy="993.7047" fill="#84BE84" rx="3" ry="3" style="stroke:#038048;stroke-width:1;"/></g><text fill="#000000" font-family="sans-serif" font-size="14" lengthAdjust="spacing" textLength="131.8447" x="1028.94" y="997.0514">isDelay() : boolean</text><g data-visibility-modifier="PRIVATE_METHOD"><rect fill="#F24D5C" height="6" style="stroke:#C82930;stroke-width:1;" width="6" x="1016.94" y="1007.0016"/></g><text fill="#000000" font-family="sans-serif" font-size="14" lengthAdjust="spacing" textLength="156.6045" x="1028.94" y="1013.3482">isActivable() : boolean</text><g data-visibility-modifier="PRIVATE_METHOD"><rect fill="#F24D5C" height="6" style="stroke:#C82930;stroke-width:1;" width="6" x="1016.94" y="1023.2984"/></g><text fill="#000000" font-family="sans-serif" font-size="14" lengthAdjust="spacing" textLength="126.5195" x="1028.94" y="1029.6451">isValid() : boolean</text></g><!--link LoanRegisterController to SideBarController--><g class="link" data-entity-1="LoanRegisterController" data-entity-2="SideBarController" data-link-type="dependency" data-source-line="4" data-uid="lnk4" id="link_LoanRegisterController_SideBarController"><path codeLine="4" d="M753.72,652.15 C772.71,698.11 790.0483,740.0849 806.2283,779.2349" fill="none" id="LoanRegisterController-to-SideBarController" style="stroke:#181818;stroke-width:1;"/><polygon fill="#181818" points="808.52,784.78,808.7792,774.9346,806.6103,780.1591,801.3857,777.9901,808.52,784.78" style="stroke:#181818;stroke-width:1;"/><text fill="#000000" font-family="sans-serif" font-size="13" lengthAdjust="spacing" textLength="8.271" x="748.661" y="672.0906">1</text><text fill="#000000" font-family="sans-serif" font-size="13" lengthAdjust="spacing" textLength="8.271" x="797.2935" y="774.1107">1</text></g><!--link LoanRegisterController to Library--><g class="link" data-entity-1="LoanRegisterController" data-entity-2="Library" data-link-type="dependency" data-source-line="5" data-uid="lnk6" id="link_LoanRegisterController_Library"><path codeLine="5" d="M608.8,652.15 C589.09,701.34 570.9007,746.7301 554.6407,787.3301" fill="none" id="LoanRegisterController-to-Library" style="stroke:#181818;stroke-width:1;"/><polygon fill="#181818" points="552.41,792.9,559.4693,786.0323,554.2689,788.2584,552.0428,783.058,552.41,792.9" style="stroke:#181818;stroke-width:1;"/><text fill="#000000" font-family="sans-serif" font-size="13" lengthAdjust="spacing" textLength="8.271" x="597.6272" y="672.0906">1</text><text fill="#000000" font-family="sans-serif" font-size="13" lengthAdjust="spacing" textLength="8.271" x="546.8505" y="782.3217">1</text></g><!--reverse link LoanInsertPopupController to LoanRegisterController--><g class="link" data-entity-1="LoanInsertPopupController" data-entity-2="LoanRegisterController" data-link-type="dependency" data-source-line="6" data-uid="lnk9" id="link_LoanInsertPopupController_LoanRegisterController"><path codeLine="6" d="M425.84,473.08 C442.11,473.08 452.38,473.08 468.65,473.08" fill="none" id="LoanInsertPopupController-backto-LoanRegisterController" style="stroke:#181818;stroke-width:1;stroke-dasharray:7,7;"/><polygon fill="#181818" points="419.84,473.08,428.84,477.08,424.84,473.08,428.84,469.08,419.84,473.08" style="stroke:#181818;stroke-width:1;"/></g><!--link LoanRegisterController to LoanModifyPopupController--><g class="link" data-entity-1="LoanRegisterController" data-entity-2="LoanModifyPopupController" data-link-type="dependency" data-source-line="7" data-uid="lnk11" id="link_LoanRegisterController_LoanModifyPopupController"><path codeLine="7" d="M891.38,473.08 C907.89,473.08 918.4,473.08 934.9,473.08" fill="none" id="LoanRegisterController-to-LoanModifyPopupController" style="stroke:#181818;stroke-width:1;stroke-dasharray:7,7;"/><polygon fill="#181818" points="940.9,473.08,931.9,469.08,935.9,473.08,931.9,477.08,940.9,473.08" style="stroke:#181818;stroke-width:1;"/></g><!--reverse link RegisterAdder<T> to LoanInsertPopupController--><g class="link" data-entity-1="RegisterAdder.T." data-entity-2="LoanInsertPopupController" data-link-type="dependency" data-source-line="9" data-uid="lnk14" id="link_RegisterAdder.T._LoanInsertPopupController"><path codeLine="9" d="M315.1784,158.7504 C298.5984,210.1604 266.93,308.37 242.65,383.67" fill="none" id="RegisterAdder&lt;T&gt;-backto-LoanInsertPopupController" style="stroke:#181818;stroke-width:1;"/><polygon fill="#181818" points="317.02,153.04,310.4506,160.3778,315.4853,157.7986,318.0645,162.8333,317.02,153.04" style="stroke:#181818;stroke-width:1;"/><text fill="#000000" font-family="sans-serif" font-size="13" lengthAdjust="spacing" textLength="8.271" x="306.354" y="172.7277">1</text><text fill="#000000" font-family="sans-serif" font-size="13" lengthAdjust="spacing" textLength="8.271" x="236.691" y="372.7164">1</text></g><!--link LoanInsertPopupController to RegisterValidator<T>--><g class="link" data-entity-1="LoanInsertPopupController" data-entity-2="RegisterValidator.T." data-link-type="dependency" data-source-line="10" data-uid="lnk16" id="link_LoanInsertPopupController_RegisterValidator.T."><path codeLine="10" d="M214.14,562.71 C214.14,651.18 214.14,776.29 214.14,835.89" fill="none" id="LoanInsertPopupController-to-RegisterValidator&lt;T&gt;" style="stroke:#181818;stroke-width:1;"/><polygon fill="#181818" points="214.14,841.89,218.14,832.89,214.14,836.89,210.14,832.89,214.14,841.89" style="stroke:#181818;stroke-width:1;"/><text fill="#000000" font-family="sans-serif" font-size="13" lengthAdjust="spacing" textLength="8.271" x="205.8441" y="582.2179">1</text><text fill="#000000" font-family="sans-serif" font-size="13" lengthAdjust="spacing" textLength="8.271" x="205.402" y="831.3372">1</text></g><!--reverse link RegisterObtainer<T> to LoanInsertPopupController--><g class="link" data-entity-1="RegisterObtainer.T." data-entity-2="LoanInsertPopupController" data-link-type="dependency" data-source-line="11" data-uid="lnk19" id="link_RegisterObtainer.T._LoanInsertPopupController"><path codeLine="11" d="M113.1116,158.7504 C129.6916,210.1604 161.35,308.37 185.63,383.67" fill="none" id="RegisterObtainer&lt;T&gt;-backto-LoanInsertPopupController" style="stroke:#181818;stroke-width:1;"/><polygon fill="#181818" points="111.27,153.04,110.2255,162.8333,112.8047,157.7986,117.8394,160.3778,111.27,153.04" style="stroke:#181818;stroke-width:1;"/><text fill="#000000" font-family="sans-serif" font-size="13" lengthAdjust="spacing" textLength="8.271" x="104.4639" y="172.7277">2</text><text fill="#000000" font-family="sans-serif" font-size="13" lengthAdjust="spacing" textLength="8.271" x="174.949" y="372.7164">1</text></g><!--reverse link LoanPopupController to LoanInsertPopupController--><g class="link" data-entity-1="LoanPopupController" data-entity-2="LoanInsertPopupController" data-link-type="extension" data-source-line="12" data-uid="lnk22" id="link_LoanPopupController_LoanInsertPopupController"><path codeLine="12" d="M563.6784,216.3008 C519.7684,243.3108 487.09,264.49 444.14,294.26 C404.01,322.08 361.36,354.27 323.83,383.56" fill="none" id="LoanPopupController-backto-LoanInsertPopupController" style="stroke:#181818;stroke-width:1;"/><polygon fill="none" points="579.01,206.87,560.5347,211.1903,566.822,221.4114,579.01,206.87" style="stroke:#181818;stroke-width:1;"/></g><!--reverse link RegisterModifier<T> to LoanModifyPopupController--><g class="link" data-entity-1="RegisterModifier.T." data-entity-2="LoanModifyPopupController" data-link-type="dependency" data-source-line="15" data-uid="lnk25" id="link_RegisterModifier.T._LoanModifyPopupController"><path codeLine="15" d="M1126.14,159.04 C1126.14,216.24 1126.14,332.47 1126.14,407.93" fill="none" id="RegisterModifier&lt;T&gt;-backto-LoanModifyPopupController" style="stroke:#181818;stroke-width:1;"/><polygon fill="#181818" points="1126.14,153.04,1122.14,162.04,1126.14,158.04,1130.14,162.04,1126.14,153.04" style="stroke:#181818;stroke-width:1;"/><text fill="#000000" font-family="sans-serif" font-size="13" lengthAdjust="spacing" textLength="8.271" x="1117.4023" y="172.7277">1</text><text fill="#000000" font-family="sans-serif" font-size="13" lengthAdjust="spacing" textLength="8.271" x="1117.717" y="397.0578">1</text></g><!--reverse link LoanPopupController to LoanModifyPopupController--><g class="link" data-entity-1="LoanPopupController" data-entity-2="LoanModifyPopupController" data-link-type="extension" data-source-line="16" data-uid="lnk27" id="link_LoanPopupController_LoanModifyPopupController"><path codeLine="16" d="M866.7323,246.5019 C932.6323,303.8119 996.68,359.5 1052.28,407.85" fill="none" id="LoanPopupController-backto-LoanModifyPopupController" style="stroke:#181818;stroke-width:1;"/><polygon fill="none" points="853.15,234.69,862.795,251.0293,870.6696,241.9744,853.15,234.69" style="stroke:#181818;stroke-width:1;"/></g><!--link LoanModifyPopupController to Loan--><g class="link" data-entity-1="LoanModifyPopupController" data-entity-2="Loan" data-link-type="dependency" data-source-line="17" data-uid="lnk29" id="link_LoanModifyPopupController_Loan"><path codeLine="17" d="M1126.14,538.24 C1126.14,585.1 1126.14,644.79 1126.14,705.63" fill="none" id="LoanModifyPopupController-to-Loan" style="stroke:#181818;stroke-width:1;"/><polygon fill="#181818" points="1126.14,711.63,1130.14,702.63,1126.14,706.63,1122.14,702.63,1126.14,711.63" style="stroke:#181818;stroke-width:1;"/><text fill="#000000" font-family="sans-serif" font-size="13" lengthAdjust="spacing" textLength="8.271" x="1117.7412" y="557.8066">1</text><text fill="#000000" font-family="sans-serif" font-size="13" lengthAdjust="spacing" textLength="8.271" x="1117.9646" y="700.9835">1</text></g><!--SRC=[bLPRJzim57xlhx3QXu5OgstINYfKgT0X8PM1Hk7TJGnO97RdEB2kwt_VyIMEdJXju8LKt_dE_UBYbR8D5ZX7ZAUa81lq_SlWqmjD2Sf9lYQY60oM7BDVv9aMaeXBpgJWMKO46duTed4wdkcFuJrGBh273tlnbdGjiDXsoKwooGmfx9eLHCWxlYatDTp94fPrmrFwj6so1fqAZMzb5LEbUfwcH9olPiDZpBJ9VCGPJR7alTZQxZUFVRkMcBAZfe7upyJRYdJGcOMEKBKizKp6oTqcZnXqTGSnS6-GPBWez2-q6o3u6wDC1PgYANfuk5wWdI0ulMNPTc_XGfOfOHBmU_lL4bbp_WhuXVhN0fNw7qpfN_84PmiiYKK4aQLWH46W8IFAGuMSQVzE9fF9gVtzJAGkHtfoQlsi0UkLHknt3IgNDA8-GcNWaqP2hyuGBNvPlpHSUMR0ekOgzm1_upIre8b7-zv0S2Bf6vY8ORHOa0nlMyR6WCmrRvsHAAgRFK3shi1cp5sDLOMgbWFvwlDSfMKM5ZecPlCwyqeQ4rFXpLmDZGidfs4rAc7jTyGFlwPnsS0PLywuhF48qa8P_7p22Obi6PibA5CQbZNEyqVMKNCzWZtO_evnR8WXy7y9do3GeI9OSau7BHuO_LsIoeTMJxGkXkiEYFj2CZKbfPIyQh22O96y06Dr1T2A_95Nb6If6zwSlv48pMGY0EeevzgIcSYQP6fUczDuQD3coDgCAhYf3FletbzvaTFbBy6LcZHbMVr_fEJTjaym7ZznJYwpl1Axv5cPCotu6TQFeEovGRY7dV1HpdNQJroDTN-7b7HVpNPhTmcxfJbhxFAUskrwchhtY0s_rQBJTjlwPojwdwS7NZ0rDtuqfuVUCVLnQdUIVwueevB2aFubuR8V8xuXlcCnsBFTXCtCNGcU1zl2aoWti1Y8Q-0cR4Owl48m8NXTI04t2jMZqioBcPEHQsgjAB8Od8HQOSe5kytqE0MRUwJxyO0Y1SUqrBTYX5IqYpj0LI_UqUJLbdY44iwUgCXR2meGp1AInHPKLztEqAvAqTvJhAupPv67WBFG8G59Uk7lSyYhR5wCkWBntjv5Jh0-PDxLCuVDtrt- -QyEa4TmD-d0S-0GxS3pmDqgZrVVh_31q1Lqlz62frcviPuODL495M8J3l8Utmknl5SF0IyqzpRmi__HV7WNYHjlx5hoCnLryrYczly1]--></g></svg>