<svg xmlns="http://www.w3.org/2000/svg" xmlns:xlink="http://www.w3.org/1999/xlink" contentStyleType="text/css" data-diagram-type="SEQUENCE" height="360px" preserveAspectRatio="none" style="width:618px;height:360px;background:#FFFFFF;" version="1.1" viewBox="0 0 618 360" width="618px" zoomAndPan="magnify"><defs/><g><rect fill="none" height="106.5313" style="stroke:#000000;stroke-width:1.5;" width="540.0259" x="71.6099" y="156.5625"/><g><title>Admin</title><rect fill="#000000" fill-opacity="0.00000" height="198.7969" width="8" x="26.4321" y="81.2969"/><line style="stroke:#181818;stroke-width:0.5;stroke-dasharray:5,5;" x1="30" x2="30" y1="81.2969" y2="280.0938"/></g><g><title>.u..MenuBarController</title><rect fill="#000000" fill-opacity="0.00000" height="198.7969" width="8" x="152.7437" y="81.2969"/><line style="stroke:#181818;stroke-width:0.5;stroke-dasharray:5,5;" x1="156.6099" x2="156.6099" y1="81.2969" y2="280.0938"/></g><g><title>.u..LibraryIOManager</title><rect fill="#000000" fill-opacity="0.00000" height="198.7969" width="8" x="394.2334" y="81.2969"/><line style="stroke:#181818;stroke-width:0.5;stroke-dasharray:5,5;" x1="398.1416" x2="398.1416" y1="81.2969" y2="280.0938"/></g><g><title>.u..MainController</title><rect fill="#000000" fill-opacity="0.00000" height="198.7969" width="8" x="536.9805" y="81.2969"/><line style="stroke:#181818;stroke-width:0.5;stroke-dasharray:5,5;" x1="540.3252" x2="540.3252" y1="81.2969" y2="280.0938"/></g><g class="participant participant-head" data-participant="Admin"><text fill="#000000" font-family="sans-serif" font-size="14" lengthAdjust="spacing" textLength="44.8643" x="5" y="77.9951">Admin</text><ellipse cx="30.4321" cy="13.5" fill="#E2E2F0" rx="8" ry="8" style="stroke:#181818;stroke-width:0.5;"/><path d="M30.4321,21.5 L30.4321,48.5 M17.4321,29.5 L43.4321,29.5 M30.4321,48.5 L17.4321,63.5 M30.4321,48.5 L43.4321,63.5" fill="none" style="stroke:#181818;stroke-width:0.5;"/></g><g class="participant participant-tail" data-participant="Admin"><text fill="#000000" font-family="sans-serif" font-size="14" lengthAdjust="spacing" textLength="44.8643" x="5" y="292.0889">Admin</text><ellipse cx="30.4321" cy="303.8906" fill="#E2E2F0" rx="8" ry="8" style="stroke:#181818;stroke-width:0.5;"/><path d="M30.4321,311.8906 L30.4321,338.8906 M17.4321,319.8906 L43.4321,319.8906 M30.4321,338.8906 L17.4321,353.8906 M30.4321,338.8906 L43.4321,353.8906" fill="none" style="stroke:#181818;stroke-width:0.5;"/></g><g class="participant participant-head" data-participant="MenuBarController"><rect fill="#E2E2F0" height="30.2969" rx="2.5" ry="2.5" style="stroke:#181818;stroke-width:0.5;" width="150.2676" x="81.6099" y="50"/><text fill="#000000" font-family="sans-serif" font-size="14" lengthAdjust="spacing" text-decoration="underline" textLength="136.2676" x="88.6099" y="69.9951">:MenuBarController</text></g><g class="participant participant-tail" data-participant="MenuBarController"><rect fill="#E2E2F0" height="30.2969" rx="2.5" ry="2.5" style="stroke:#181818;stroke-width:0.5;" width="150.2676" x="81.6099" y="279.0938"/><text fill="#000000" font-family="sans-serif" font-size="14" lengthAdjust="spacing" text-decoration="underline" textLength="136.2676" x="88.6099" y="299.0889">:MenuBarController</text></g><g class="participant participant-head" data-participant="LibraryIOManager"><rect fill="#E2E2F0" height="30.2969" rx="2.5" ry="2.5" style="stroke:#181818;stroke-width:0.5;" width="144.1836" x="326.1416" y="50"/><text fill="#000000" font-family="sans-serif" font-size="14" lengthAdjust="spacing" text-decoration="underline" textLength="130.1836" x="333.1416" y="69.9951">:LibraryIOManager</text></g><g class="participant participant-tail" data-participant="LibraryIOManager"><rect fill="#E2E2F0" height="30.2969" rx="2.5" ry="2.5" style="stroke:#181818;stroke-width:0.5;" width="144.1836" x="326.1416" y="279.0938"/><text fill="#000000" font-family="sans-serif" font-size="14" lengthAdjust="spacing" text-decoration="underline" textLength="130.1836" x="333.1416" y="299.0889">:LibraryIOManager</text></g><g class="participant participant-head" data-participant="MainController"><rect fill="#E2E2F0" height="30.2969" rx="2.5" ry="2.5" style="stroke:#181818;stroke-width:0.5;" width="121.3105" x="480.3252" y="50"/><text fill="#000000" font-family="sans-serif" font-size="14" lengthAdjust="spacing" text-decoration="underline" textLength="107.3105" x="487.3252" y="69.9951">:MainController</text></g><g class="participant participant-tail" data-participant="MainController"><rect fill="#E2E2F0" height="30.2969" rx="2.5" ry="2.5" style="stroke:#181818;stroke-width:0.5;" width="121.3105" x="480.3252" y="279.0938"/><text fill="#000000" font-family="sans-serif" font-size="14" lengthAdjust="spacing" text-decoration="underline" textLength="107.3105" x="487.3252" y="299.0889">:MainController</text></g><g class="message" data-participant-1="Admin" data-participant-2="MenuBarController"><polygon fill="#181818" points="144.7437,108.4297,154.7437,112.4297,144.7437,116.4297,148.7437,112.4297" style="stroke:#181818;stroke-width:1;"/><line style="stroke:#181818;stroke-width:1;" x1="30.4321" x2="150.7437" y1="112.4297" y2="112.4297"/><text fill="#000000" font-family="sans-serif" font-size="13" lengthAdjust="spacing" textLength="102.3115" x="37.4321" y="107.3638">openFile(event)</text></g><g class="message" data-participant-1="MenuBarController" data-participant-2="LibraryIOManager"><polygon fill="#181818" points="386.2334,137.5625,396.2334,141.5625,386.2334,145.5625,390.2334,141.5625" style="stroke:#181818;stroke-width:1;"/><line style="stroke:#181818;stroke-width:1;" x1="156.7437" x2="392.2334" y1="141.5625" y2="141.5625"/><text fill="#000000" font-family="sans-serif" font-size="13" lengthAdjust="spacing" textLength="217.4897" x="163.7437" y="136.4966">loadLibrary(library, selectedPath)</text></g><path d="M71.6099,156.5625 L136.0527,156.5625 L136.0527,163.6953 L126.0527,173.6953 L71.6099,173.6953 L71.6099,156.5625" fill="#EEEEEE" style="stroke:#000000;stroke-width:1.5;"/><rect fill="none" height="106.5313" style="stroke:#000000;stroke-width:1.5;" width="540.0259" x="71.6099" y="156.5625"/><text fill="#000000" font-family="sans-serif" font-size="13" font-weight="bold" lengthAdjust="spacing" textLength="19.4429" x="86.6099" y="169.6294">alt</text><text fill="#000000" font-family="sans-serif" font-size="11" font-weight="bold" lengthAdjust="spacing" textLength="59.4043" x="151.0527" y="168.7729">[Success]</text><g class="message" data-participant-1="LibraryIOManager" data-participant-2="MenuBarController"><polygon fill="#181818" points="167.7437,190.8281,157.7437,194.8281,167.7437,198.8281,163.7437,194.8281" style="stroke:#181818;stroke-width:1;"/><line style="stroke:#181818;stroke-width:1;" x1="161.7437" x2="397.2334" y1="194.8281" y2="194.8281"/><text fill="#000000" font-family="sans-serif" font-size="13" lengthAdjust="spacing" textLength="60.9946" x="173.7437" y="189.7622">success()</text></g><g class="message" data-participant-1="MenuBarController" data-participant-2="MainController"><polygon fill="#181818" points="528.9805,219.9609,538.9805,223.9609,528.9805,227.9609,532.9805,223.9609" style="stroke:#181818;stroke-width:1;"/><line style="stroke:#181818;stroke-width:1;" x1="156.7437" x2="534.9805" y1="223.9609" y2="223.9609"/><text fill="#000000" font-family="sans-serif" font-size="13" lengthAdjust="spacing" textLength="145.9072" x="163.7437" y="218.895">refresh(loadedLibrary)</text></g><line style="stroke:#000000;stroke-width:1;stroke-dasharray:2,2;" x1="71.6099" x2="611.6357" y1="232.9609" y2="232.9609"/><g class="message" data-participant-1="LibraryIOManager" data-participant-2="MenuBarController"><polygon fill="#181818" points="167.7437,251.0938,157.7437,255.0938,167.7437,259.0938,163.7437,255.0938" style="stroke:#181818;stroke-width:1;"/><line style="stroke:#181818;stroke-width:1;" x1="161.7437" x2="397.2334" y1="255.0938" y2="255.0938"/><text fill="#000000" font-family="sans-serif" font-size="13" lengthAdjust="spacing" textLength="51.4922" x="173.7437" y="250.0278">failure()</text></g><!--SRC=[ZOz1JyCm38Nl_XNMBcib-0CJcXHOGPLQ61sxSFDIZqKAIUMaIFnx0Xk7DKpYPElfFR_FyrMj7ZhLjWfNDMwgvstr-9hsgcdcQbrrBzjE0P2ENb3rxyO132JHQ3EGYpYx6PUBbjruItBdNHHlBSiCAM2cvi76x8JaitvgoT7RAJSL_-WZuwPbPnB03ofUBtCANA0VsDqRomL_i8ibv9uKd6AadFNKd-J27kSL1hQi8_ThYeSIo4RSZ5fp291Tk80JZlxY0iZvQyall1SEX-8RXt-1Ic0R-D-TUp9s54wTxFel]--></g></svg>