<svg xmlns="http://www.w3.org/2000/svg" xmlns:xlink="http://www.w3.org/1999/xlink" contentStyleType="text/css" data-diagram-type="CLASS" height="230px" preserveAspectRatio="none" style="width:940px;height:230px;background:#FFFFFF;" version="1.1" viewBox="0 0 940 230" width="940px" zoomAndPan="magnify"><defs/><g><!--class LoanRegisterController--><g class="entity" data-entity="LoanRegisterController" data-source-line="4" data-uid="ent0002" id="entity_LoanRegisterController"><rect fill="#F1F1F1" height="32" rx="2.5" ry="2.5" style="stroke:#181818;stroke-width:0.5;" width="193.2598" x="465.06" y="99"/><ellipse cx="480.06" cy="115" fill="#ADD1B2" rx="11" ry="11" style="stroke:#181818;stroke-width:1;"/><path d="M483.0288,120.6406 Q482.4506,120.9375 481.81,121.0781 Q481.1694,121.2344 480.4663,121.2344 Q477.9663,121.2344 476.6381,119.5938 Q475.3256,117.9375 475.3256,114.8125 Q475.3256,111.6875 476.6381,110.0313 Q477.9663,108.375 480.4663,108.375 Q481.1694,108.375 481.81,108.5313 Q482.4663,108.6875 483.0288,108.9844 L483.0288,111.7031 Q482.4038,111.125 481.81,110.8594 Q481.2163,110.5781 480.5913,110.5781 Q479.2475,110.5781 478.56,111.6563 Q477.8725,112.7188 477.8725,114.8125 Q477.8725,116.9063 478.56,117.9844 Q479.2475,119.0469 480.5913,119.0469 Q481.2163,119.0469 481.81,118.7813 Q482.4038,118.5 483.0288,117.9219 L483.0288,120.6406 Z " fill="#000000"/><text fill="#000000" font-family="sans-serif" font-size="14" lengthAdjust="spacing" textLength="161.2598" x="494.06" y="119.8467">LoanRegisterController</text></g><!--class SideBarController--><g class="entity" data-entity="SideBarController" data-source-line="4" data-uid="ent0003" id="entity_SideBarController"><rect fill="#F1F1F1" height="32" rx="2.5" ry="2.5" style="stroke:#181818;stroke-width:0.5;" width="155.3887" x="581" y="191"/><ellipse cx="596" cy="207" fill="#ADD1B2" rx="11" ry="11" style="stroke:#181818;stroke-width:1;"/><path d="M598.9688,212.6406 Q598.3906,212.9375 597.75,213.0781 Q597.1094,213.2344 596.4063,213.2344 Q593.9063,213.2344 592.5781,211.5938 Q591.2656,209.9375 591.2656,206.8125 Q591.2656,203.6875 592.5781,202.0313 Q593.9063,200.375 596.4063,200.375 Q597.1094,200.375 597.75,200.5313 Q598.4063,200.6875 598.9688,200.9844 L598.9688,203.7031 Q598.3438,203.125 597.75,202.8594 Q597.1563,202.5781 596.5313,202.5781 Q595.1875,202.5781 594.5,203.6563 Q593.8125,204.7188 593.8125,206.8125 Q593.8125,208.9063 594.5,209.9844 Q595.1875,211.0469 596.5313,211.0469 Q597.1563,211.0469 597.75,210.7813 Q598.3438,210.5 598.9688,209.9219 L598.9688,212.6406 Z " fill="#000000"/><text fill="#000000" font-family="sans-serif" font-size="14" lengthAdjust="spacing" textLength="123.3887" x="610" y="211.8467">SideBarController</text></g><!--class Library--><g class="entity" data-entity="Library" data-source-line="5" data-uid="ent0005" id="entity_Library"><rect fill="#F1F1F1" height="32" rx="2.5" ry="2.5" style="stroke:#181818;stroke-width:0.5;" width="80.9521" x="450.22" y="191"/><ellipse cx="465.22" cy="207" fill="#ADD1B2" rx="11" ry="11" style="stroke:#181818;stroke-width:1;"/><path d="M468.1888,212.6406 Q467.6106,212.9375 466.97,213.0781 Q466.3294,213.2344 465.6263,213.2344 Q463.1263,213.2344 461.7981,211.5938 Q460.4856,209.9375 460.4856,206.8125 Q460.4856,203.6875 461.7981,202.0313 Q463.1263,200.375 465.6263,200.375 Q466.3294,200.375 466.97,200.5313 Q467.6263,200.6875 468.1888,200.9844 L468.1888,203.7031 Q467.5638,203.125 466.97,202.8594 Q466.3763,202.5781 465.7513,202.5781 Q464.4075,202.5781 463.72,203.6563 Q463.0325,204.7188 463.0325,206.8125 Q463.0325,208.9063 463.72,209.9844 Q464.4075,211.0469 465.7513,211.0469 Q466.3763,211.0469 466.97,210.7813 Q467.5638,210.5 468.1888,209.9219 L468.1888,212.6406 Z " fill="#000000"/><text fill="#000000" font-family="sans-serif" font-size="14" lengthAdjust="spacing" textLength="48.9521" x="479.22" y="211.8467">Library</text></g><!--class LoanInsertPopupController--><g class="entity" data-entity="LoanInsertPopupController" data-source-line="6" data-uid="ent0007" id="entity_LoanInsertPopupController"><rect fill="#F1F1F1" height="32" rx="2.5" ry="2.5" style="stroke:#181818;stroke-width:0.5;" width="218.7988" x="196.29" y="99"/><ellipse cx="211.29" cy="115" fill="#ADD1B2" rx="11" ry="11" style="stroke:#181818;stroke-width:1;"/><path d="M214.2588,120.6406 Q213.6806,120.9375 213.04,121.0781 Q212.3994,121.2344 211.6963,121.2344 Q209.1963,121.2344 207.8681,119.5938 Q206.5556,117.9375 206.5556,114.8125 Q206.5556,111.6875 207.8681,110.0313 Q209.1963,108.375 211.6963,108.375 Q212.3994,108.375 213.04,108.5313 Q213.6963,108.6875 214.2588,108.9844 L214.2588,111.7031 Q213.6338,111.125 213.04,110.8594 Q212.4463,110.5781 211.8213,110.5781 Q210.4775,110.5781 209.79,111.6563 Q209.1025,112.7188 209.1025,114.8125 Q209.1025,116.9063 209.79,117.9844 Q210.4775,119.0469 211.8213,119.0469 Q212.4463,119.0469 213.04,118.7813 Q213.6338,118.5 214.2588,117.9219 L214.2588,120.6406 Z " fill="#000000"/><text fill="#000000" font-family="sans-serif" font-size="14" lengthAdjust="spacing" textLength="186.7988" x="225.29" y="119.8467">LoanInsertPopupController</text></g><!--class LoanModifyPopupController--><g class="entity" data-entity="LoanModifyPopupController" data-source-line="7" data-uid="ent0010" id="entity_LoanModifyPopupController"><rect fill="#F1F1F1" height="32" rx="2.5" ry="2.5" style="stroke:#181818;stroke-width:0.5;" width="225.2793" x="708.05" y="99"/><ellipse cx="723.05" cy="115" fill="#ADD1B2" rx="11" ry="11" style="stroke:#181818;stroke-width:1;"/><path d="M726.0188,120.6406 Q725.4406,120.9375 724.8,121.0781 Q724.1594,121.2344 723.4563,121.2344 Q720.9563,121.2344 719.6281,119.5938 Q718.3156,117.9375 718.3156,114.8125 Q718.3156,111.6875 719.6281,110.0313 Q720.9563,108.375 723.4563,108.375 Q724.1594,108.375 724.8,108.5313 Q725.4563,108.6875 726.0188,108.9844 L726.0188,111.7031 Q725.3938,111.125 724.8,110.8594 Q724.2063,110.5781 723.5813,110.5781 Q722.2375,110.5781 721.55,111.6563 Q720.8625,112.7188 720.8625,114.8125 Q720.8625,116.9063 721.55,117.9844 Q722.2375,119.0469 723.5813,119.0469 Q724.2063,119.0469 724.8,118.7813 Q725.3938,118.5 726.0188,117.9219 L726.0188,120.6406 Z " fill="#000000"/><text fill="#000000" font-family="sans-serif" font-size="14" lengthAdjust="spacing" textLength="193.2793" x="737.05" y="119.8467">LoanModifyPopupController</text></g><!--class RegisterAdder<T>--><g class="entity" data-entity="RegisterAdder.T." data-source-line="9" data-uid="ent0012" id="entity_RegisterAdder.T."><rect fill="#F1F1F1" height="32" rx="2.5" ry="2.5" style="stroke:#181818;stroke-width:0.5;" width="164.002" x="240.69" y="7"/><ellipse cx="255.69" cy="23" fill="#B4A7E5" rx="11" ry="11" style="stroke:#181818;stroke-width:1;"/><path d="M251.6119,18.7656 L251.6119,16.6094 L259.0025,16.6094 L259.0025,18.7656 L256.5338,18.7656 L256.5338,26.8438 L259.0025,26.8438 L259.0025,29 L251.6119,29 L251.6119,26.8438 L254.0806,26.8438 L254.0806,18.7656 L251.6119,18.7656 Z " fill="#000000"/><text fill="#000000" font-family="sans-serif" font-size="14" font-style="italic" lengthAdjust="spacing" textLength="132.002" x="269.69" y="27.8467">RegisterAdder&lt;T&gt;</text></g><!--class RegisterValidator<T>--><g class="entity" data-entity="RegisterValidator.T." data-source-line="10" data-uid="ent0015" id="entity_RegisterValidator.T."><rect fill="#F1F1F1" height="32" rx="2.5" ry="2.5" style="stroke:#181818;stroke-width:0.5;" width="185.4941" x="212.95" y="191"/><ellipse cx="227.95" cy="207" fill="#B4A7E5" rx="11" ry="11" style="stroke:#181818;stroke-width:1;"/><path d="M223.8719,202.7656 L223.8719,200.6094 L231.2625,200.6094 L231.2625,202.7656 L228.7938,202.7656 L228.7938,210.8438 L231.2625,210.8438 L231.2625,213 L223.8719,213 L223.8719,210.8438 L226.3406,210.8438 L226.3406,202.7656 L223.8719,202.7656 Z " fill="#000000"/><text fill="#000000" font-family="sans-serif" font-size="14" font-style="italic" lengthAdjust="spacing" textLength="153.4941" x="241.95" y="211.8467">RegisterValidator&lt;T&gt;</text></g><!--class RegisterObtainer<T>--><g class="entity" data-entity="RegisterObtainer.T." data-source-line="11" data-uid="ent0017" id="entity_RegisterObtainer.T."><rect fill="#F1F1F1" height="32" rx="2.5" ry="2.5" style="stroke:#181818;stroke-width:0.5;" width="183.3887" x="7" y="7"/><ellipse cx="22" cy="23" fill="#B4A7E5" rx="11" ry="11" style="stroke:#181818;stroke-width:1;"/><path d="M17.9219,18.7656 L17.9219,16.6094 L25.3125,16.6094 L25.3125,18.7656 L22.8438,18.7656 L22.8438,26.8438 L25.3125,26.8438 L25.3125,29 L17.9219,29 L17.9219,26.8438 L20.3906,26.8438 L20.3906,18.7656 L17.9219,18.7656 Z " fill="#000000"/><text fill="#000000" font-family="sans-serif" font-size="14" font-style="italic" lengthAdjust="spacing" textLength="151.3887" x="36" y="27.8467">RegisterObtainer&lt;T&gt;</text></g><!--class LoanPopupController--><g class="entity" data-entity="LoanPopupController" data-source-line="12" data-uid="ent0020" id="entity_LoanPopupController"><rect fill="#F1F1F1" height="32" rx="2.5" ry="2.5" style="stroke:#181818;stroke-width:0.5;" width="178.6445" x="486.37" y="7"/><ellipse cx="501.37" cy="23" fill="#A9DCDF" rx="11" ry="11" style="stroke:#181818;stroke-width:1;"/><path d="M501.4794,18.3438 L500.3231,23.4219 L502.6513,23.4219 L501.4794,18.3438 Z M499.995,16.1094 L502.9794,16.1094 L506.3388,28.5 L503.8856,28.5 L503.12,25.4375 L499.8388,25.4375 L499.0888,28.5 L496.6513,28.5 L499.995,16.1094 Z " fill="#000000"/><text fill="#000000" font-family="sans-serif" font-size="14" font-style="italic" lengthAdjust="spacing" textLength="146.6445" x="515.37" y="27.8467">LoanPopupController</text></g><!--class RegisterModifier<T>--><g class="entity" data-entity="RegisterModifier.T." data-source-line="15" data-uid="ent0023" id="entity_RegisterModifier.T."><rect fill="#F1F1F1" height="32" rx="2.5" ry="2.5" style="stroke:#181818;stroke-width:0.5;" width="178.8906" x="731.25" y="7"/><ellipse cx="746.25" cy="23" fill="#B4A7E5" rx="11" ry="11" style="stroke:#181818;stroke-width:1;"/><path d="M742.1719,18.7656 L742.1719,16.6094 L749.5625,16.6094 L749.5625,18.7656 L747.0938,18.7656 L747.0938,26.8438 L749.5625,26.8438 L749.5625,29 L742.1719,29 L742.1719,26.8438 L744.6406,26.8438 L744.6406,18.7656 L742.1719,18.7656 Z " fill="#000000"/><text fill="#000000" font-family="sans-serif" font-size="14" font-style="italic" lengthAdjust="spacing" textLength="146.8906" x="760.25" y="27.8467">RegisterModifier&lt;T&gt;</text></g><!--class Loan--><g class="entity" data-entity="Loan" data-source-line="17" data-uid="ent0028" id="entity_Loan"><rect fill="#F1F1F1" height="32" rx="2.5" ry="2.5" style="stroke:#181818;stroke-width:0.5;" width="65.8174" x="787.79" y="191"/><ellipse cx="802.79" cy="207" fill="#ADD1B2" rx="11" ry="11" style="stroke:#181818;stroke-width:1;"/><path d="M805.7588,212.6406 Q805.1806,212.9375 804.54,213.0781 Q803.8994,213.2344 803.1963,213.2344 Q800.6963,213.2344 799.3681,211.5938 Q798.0556,209.9375 798.0556,206.8125 Q798.0556,203.6875 799.3681,202.0313 Q800.6963,200.375 803.1963,200.375 Q803.8994,200.375 804.54,200.5313 Q805.1963,200.6875 805.7588,200.9844 L805.7588,203.7031 Q805.1338,203.125 804.54,202.8594 Q803.9463,202.5781 803.3213,202.5781 Q801.9775,202.5781 801.29,203.6563 Q800.6025,204.7188 800.6025,206.8125 Q800.6025,208.9063 801.29,209.9844 Q801.9775,211.0469 803.3213,211.0469 Q803.9463,211.0469 804.54,210.7813 Q805.1338,210.5 805.7588,209.9219 L805.7588,212.6406 Z " fill="#000000"/><text fill="#000000" font-family="sans-serif" font-size="14" lengthAdjust="spacing" textLength="33.8174" x="816.79" y="211.8467">Loan</text></g><!--link LoanRegisterController to SideBarController--><g class="link" data-entity-1="LoanRegisterController" data-entity-2="SideBarController" data-link-type="dependency" data-source-line="4" data-uid="lnk4" id="link_LoanRegisterController_SideBarController"><path codeLine="4" d="M578.15,131.27 C595.99,147.82 619.8916,169.9991 637.7616,186.5791" fill="none" id="LoanRegisterController-to-SideBarController" style="stroke:#181818;stroke-width:1;"/><polygon fill="#181818" points="642.16,190.66,638.283,181.6063,638.4946,187.2592,632.8418,187.4709,642.16,190.66" style="stroke:#181818;stroke-width:1;"/><text fill="#000000" font-family="sans-serif" font-size="13" lengthAdjust="spacing" textLength="8.271" x="574.1649" y="150.9347">1</text><text fill="#000000" font-family="sans-serif" font-size="13" lengthAdjust="spacing" textLength="8.271" x="627.4029" y="179.8519">1</text></g><!--link LoanRegisterController to Library--><g class="link" data-entity-1="LoanRegisterController" data-entity-2="Library" data-link-type="dependency" data-source-line="5" data-uid="lnk6" id="link_LoanRegisterController_Library"><path codeLine="5" d="M549.65,131.27 C536.59,147.82 519.5962,169.3694 506.5162,185.9494" fill="none" id="LoanRegisterController-to-Library" style="stroke:#181818;stroke-width:1;"/><polygon fill="#181818" points="502.8,190.66,511.5147,186.0716,505.8968,186.7345,505.2339,181.1166,502.8,190.66" style="stroke:#181818;stroke-width:1;"/><text fill="#000000" font-family="sans-serif" font-size="13" lengthAdjust="spacing" textLength="8.271" x="536.5805" y="150.9347">1</text><text fill="#000000" font-family="sans-serif" font-size="13" lengthAdjust="spacing" textLength="8.271" x="497.5293" y="179.8519">1</text></g><!--reverse link LoanInsertPopupController to LoanRegisterController--><g class="link" data-entity-1="LoanInsertPopupController" data-entity-2="LoanRegisterController" data-link-type="dependency" data-source-line="6" data-uid="lnk9" id="link_LoanInsertPopupController_LoanRegisterController"><path codeLine="6" d="M421.44,115 C437.82,115 448.2,115 464.58,115" fill="none" id="LoanInsertPopupController-backto-LoanRegisterController" style="stroke:#181818;stroke-width:1;stroke-dasharray:7,7;"/><polygon fill="#181818" points="415.44,115,424.44,119,420.44,115,424.44,111,415.44,115" style="stroke:#181818;stroke-width:1;"/></g><!--link LoanRegisterController to LoanModifyPopupController--><g class="link" data-entity-1="LoanRegisterController" data-entity-2="LoanModifyPopupController" data-link-type="dependency" data-source-line="7" data-uid="lnk11" id="link_LoanRegisterController_LoanModifyPopupController"><path codeLine="7" d="M658.82,115 C675.15,115 685.49,115 701.82,115" fill="none" id="LoanRegisterController-to-LoanModifyPopupController" style="stroke:#181818;stroke-width:1;stroke-dasharray:7,7;"/><polygon fill="#181818" points="707.82,115,698.82,111,702.82,115,698.82,119,707.82,115" style="stroke:#181818;stroke-width:1;"/></g><!--reverse link RegisterAdder<T> to LoanInsertPopupController--><g class="link" data-entity-1="RegisterAdder.T." data-entity-2="LoanInsertPopupController" data-link-type="dependency" data-source-line="9" data-uid="lnk14" id="link_RegisterAdder.T._LoanInsertPopupController"><path codeLine="9" d="M318.695,45.1655 C315.565,61.7155 311.72,82.08 308.59,98.66" fill="none" id="RegisterAdder&lt;T&gt;-backto-LoanInsertPopupController" style="stroke:#181818;stroke-width:1;"/><polygon fill="#181818" points="319.81,39.27,314.2072,47.3699,318.8809,44.1829,322.0679,48.8566,319.81,39.27" style="stroke:#181818;stroke-width:1;"/><text fill="#000000" font-family="sans-serif" font-size="13" lengthAdjust="spacing" textLength="8.271" x="309.6599" y="58.9347">1</text><text fill="#000000" font-family="sans-serif" font-size="13" lengthAdjust="spacing" textLength="8.271" x="300.2707" y="87.8519">1</text></g><!--link LoanInsertPopupController to RegisterValidator<T>--><g class="link" data-entity-1="LoanInsertPopupController" data-entity-2="RegisterValidator.T." data-link-type="dependency" data-source-line="10" data-uid="lnk16" id="link_LoanInsertPopupController_RegisterValidator.T."><path codeLine="10" d="M305.69,131.27 C305.69,147.82 305.69,168.08 305.69,184.66" fill="none" id="LoanInsertPopupController-to-RegisterValidator&lt;T&gt;" style="stroke:#181818;stroke-width:1;"/><polygon fill="#181818" points="305.69,190.66,309.69,181.66,305.69,185.66,301.69,181.66,305.69,190.66" style="stroke:#181818;stroke-width:1;"/><text fill="#000000" font-family="sans-serif" font-size="13" lengthAdjust="spacing" textLength="8.271" x="296.4584" y="150.9347">1</text><text fill="#000000" font-family="sans-serif" font-size="13" lengthAdjust="spacing" textLength="8.271" x="296.4075" y="179.8519">1</text></g><!--reverse link RegisterObtainer<T> to LoanInsertPopupController--><g class="link" data-entity-1="RegisterObtainer.T." data-entity-2="LoanInsertPopupController" data-link-type="dependency" data-source-line="11" data-uid="lnk19" id="link_RegisterObtainer.T._LoanInsertPopupController"><path codeLine="11" d="M139.7821,41.863 C177.8121,58.403 232.24,82.06 270.23,98.58" fill="none" id="RegisterObtainer&lt;T&gt;-backto-LoanInsertPopupController" style="stroke:#181818;stroke-width:1;"/><polygon fill="#181818" points="134.28,39.47,140.9379,46.7276,138.8651,41.4642,144.1285,39.3914,134.28,39.47" style="stroke:#181818;stroke-width:1;"/><text fill="#000000" font-family="sans-serif" font-size="13" lengthAdjust="spacing" textLength="8.271" x="136.3911" y="59.1985">2</text><text fill="#000000" font-family="sans-serif" font-size="13" lengthAdjust="spacing" textLength="8.271" x="249.6955" y="88.0436">1</text></g><!--reverse link LoanPopupController to LoanInsertPopupController--><g class="link" data-entity-1="LoanPopupController" data-entity-2="LoanInsertPopupController" data-link-type="extension" data-source-line="12" data-uid="lnk22" id="link_LoanPopupController_LoanInsertPopupController"><path codeLine="12" d="M512.204,45.1631 C462.594,61.7031 401.5,82.06 351.95,98.58" fill="none" id="LoanPopupController-backto-LoanInsertPopupController" style="stroke:#181818;stroke-width:1;"/><polygon fill="none" points="529.28,39.47,510.3063,39.4711,514.1018,50.8551,529.28,39.47" style="stroke:#181818;stroke-width:1;"/></g><!--reverse link RegisterModifier<T> to LoanModifyPopupController--><g class="link" data-entity-1="RegisterModifier.T." data-entity-2="LoanModifyPopupController" data-link-type="dependency" data-source-line="15" data-uid="lnk25" id="link_RegisterModifier.T._LoanModifyPopupController"><path codeLine="15" d="M820.69,45.27 C820.69,61.82 820.69,82.08 820.69,98.66" fill="none" id="RegisterModifier&lt;T&gt;-backto-LoanModifyPopupController" style="stroke:#181818;stroke-width:1;"/><polygon fill="#181818" points="820.69,39.27,816.69,48.27,820.69,44.27,824.69,48.27,820.69,39.27" style="stroke:#181818;stroke-width:1;"/><text fill="#000000" font-family="sans-serif" font-size="13" lengthAdjust="spacing" textLength="8.271" x="811.4565" y="58.9347">1</text><text fill="#000000" font-family="sans-serif" font-size="13" lengthAdjust="spacing" textLength="8.271" x="811.41" y="87.8519">1</text></g><!--reverse link LoanPopupController to LoanModifyPopupController--><g class="link" data-entity-1="LoanPopupController" data-entity-2="LoanModifyPopupController" data-link-type="extension" data-source-line="16" data-uid="lnk27" id="link_LoanPopupController_LoanModifyPopupController"><path codeLine="16" d="M634.7054,45.6786 C679.7154,62.2186 733.76,82.06 778.72,98.58" fill="none" id="LoanPopupController-backto-LoanModifyPopupController" style="stroke:#181818;stroke-width:1;"/><polygon fill="none" points="617.81,39.47,632.6358,51.3104,636.7749,40.0468,617.81,39.47" style="stroke:#181818;stroke-width:1;"/></g><!--link LoanModifyPopupController to Loan--><g class="link" data-entity-1="LoanModifyPopupController" data-entity-2="Loan" data-link-type="dependency" data-source-line="17" data-uid="lnk29" id="link_LoanModifyPopupController_Loan"><path codeLine="17" d="M820.69,131.27 C820.69,147.82 820.69,168.08 820.69,184.66" fill="none" id="LoanModifyPopupController-to-Loan" style="stroke:#181818;stroke-width:1;"/><polygon fill="#181818" points="820.69,190.66,824.69,181.66,820.69,185.66,816.69,181.66,820.69,190.66" style="stroke:#181818;stroke-width:1;"/><text fill="#000000" font-family="sans-serif" font-size="13" lengthAdjust="spacing" textLength="8.271" x="811.4583" y="150.9347">1</text><text fill="#000000" font-family="sans-serif" font-size="13" lengthAdjust="spacing" textLength="8.271" x="811.407" y="179.8519">1</text></g><!--SRC=[bLPRJzim57xlhx3Q5n1hjKtQIuKg5Jeaf38G5DxTs815OdUE0-kw_lSTEuvZ9quRU27LTxvplpX_Oto39SuG5uJcT8D-V1syCa9HHhCrbVbWi1IOtzCNbYigBmLNKgGfbMZuROZ6P3mp7yC7e5nW3n_suYtPMcAvxPATf9CPqjWrpwbKTs9JR6guaoKjwqOGzhnjiWQT2alVYYgcIlMS42hFLxFXCIPfCfzmoWXMeXVRsFtkiM_N2ZD-r3GG_vNnjY8TT6QX8rGZopoJSNAtoIC6NTr13DmR92dES_CBxGO8_iOerO4ID4MFZzSBj9CKarkURlSMpbL1A5U0FzYlbiXQY3V0B_I_5gZL_-HQ_r8aE5rWHIqYgIeafne23IdL7chapFXtCfbCJktl5wfCESZ9gVMp1gnN1h7VDQXTCeZ-29M1JmO9lJf3BB-tVXcuygm4yvghtGFyNJ1YmJ8Uuti3mObYxs0YXh5yGLEyRHaR0p8tl7LAewXfzW3PkmANO-vgh2jKjHp8Lv_dEYspiD0nCPlNcLVIc9WER-PgMBfmSXfMen8sVaVyy6iQbmsSSUMCovOUGLeOXv_FEA6HBMEp16KYOLdZF7za7JKp8zY3xUyOnuOO0l-Ny0a27Ig29UTqiFoHizy5hNnezKJhOhZkWBWl5DTJKYWbgWRBAPR9Ap1MLm2jw1zrnMXAtF1cufr6Q6Kc0g2EScuibHDPaygQr-OC7XgqER8semfkAiC-klTNNkHq-KjmfITDMzR_dnZziEqJZCSldD7BDAl4BaLQPDm8Ve7r8nb_QH0UO2TybdDD-edhiUxla9RkgzbkxIvXjpHdZLtUKxjTJrFt7h7XjrfqscvR_sn5x_Fqm0kcviQFvlJGEwO-JkrEyiyLuqmn6DA_D5psOoGsr7Si1dksct0vSrTIPC6sy2IA3Im6wXgu2PSZ7LuXc12ypfM46uNgKMdcfPoJaMjgeoYo69o4Nc7Q1RlDp3W5ctja-l608Wt7jDItOeHqj8ixG7Klth7apPPuX1B1dvdCMWiA4CmJciOML5VTpj2kIj7UKwoli-2HXu2pq241INeL7tF8gsfUZBe2yTxUHKwmEMJUrIiFcx-x_FDV7I2Fu6xIWUV08Tg1vu6xLHwllb_XWw4hw7wZ1K-pOcCzATL49NI8JJZ8UtmlnF9UFGIyqDpRmC_-P_FXNIHHUcFNaf-fg9l7ChN_3m00]--></g></svg>