<svg xmlns="http://www.w3.org/2000/svg" xmlns:xlink="http://www.w3.org/1999/xlink" contentStyleType="text/css" data-diagram-type="CLASS" height="230px" preserveAspectRatio="none" style="width:815px;height:230px;background:#FFFFFF;" version="1.1" viewBox="0 0 815 230" width="815px" zoomAndPan="magnify"><defs/><g><!--class StudentRegisterController--><g class="entity" data-entity="StudentRegisterController" data-source-line="4" data-uid="ent0002" id="entity_StudentRegisterController"><rect fill="#F1F1F1" height="32" rx="2.5" ry="2.5" style="stroke:#181818;stroke-width:0.5;" width="214.5537" x="296.77" y="99"/><ellipse cx="311.77" cy="115" fill="#ADD1B2" rx="11" ry="11" style="stroke:#181818;stroke-width:1;"/><path d="M314.7388,120.6406 Q314.1606,120.9375 313.52,121.0781 Q312.8794,121.2344 312.1763,121.2344 Q309.6763,121.2344 308.3481,119.5938 Q307.0356,117.9375 307.0356,114.8125 Q307.0356,111.6875 308.3481,110.0313 Q309.6763,108.375 312.1763,108.375 Q312.8794,108.375 313.52,108.5313 Q314.1763,108.6875 314.7388,108.9844 L314.7388,111.7031 Q314.1138,111.125 313.52,110.8594 Q312.9263,110.5781 312.3013,110.5781 Q310.9575,110.5781 310.27,111.6563 Q309.5825,112.7188 309.5825,114.8125 Q309.5825,116.9063 310.27,117.9844 Q310.9575,119.0469 312.3013,119.0469 Q312.9263,119.0469 313.52,118.7813 Q314.1138,118.5 314.7388,117.9219 L314.7388,120.6406 Z " fill="#000000"/><text fill="#000000" font-family="sans-serif" font-size="14" lengthAdjust="spacing" textLength="182.5537" x="325.77" y="119.8467">StudentRegisterController</text></g><!--class SideBarController--><g class="entity" data-entity="SideBarController" data-source-line="4" data-uid="ent0003" id="entity_SideBarController"><rect fill="#F1F1F1" height="32" rx="2.5" ry="2.5" style="stroke:#181818;stroke-width:0.5;" width="155.3887" x="439.35" y="191"/><ellipse cx="454.35" cy="207" fill="#ADD1B2" rx="11" ry="11" style="stroke:#181818;stroke-width:1;"/><path d="M457.3188,212.6406 Q456.7406,212.9375 456.1,213.0781 Q455.4594,213.2344 454.7563,213.2344 Q452.2563,213.2344 450.9281,211.5938 Q449.6156,209.9375 449.6156,206.8125 Q449.6156,203.6875 450.9281,202.0313 Q452.2563,200.375 454.7563,200.375 Q455.4594,200.375 456.1,200.5313 Q456.7563,200.6875 457.3188,200.9844 L457.3188,203.7031 Q456.6938,203.125 456.1,202.8594 Q455.5063,202.5781 454.8813,202.5781 Q453.5375,202.5781 452.85,203.6563 Q452.1625,204.7188 452.1625,206.8125 Q452.1625,208.9063 452.85,209.9844 Q453.5375,211.0469 454.8813,211.0469 Q455.5063,211.0469 456.1,210.7813 Q456.6938,210.5 457.3188,209.9219 L457.3188,212.6406 Z " fill="#000000"/><text fill="#000000" font-family="sans-serif" font-size="14" lengthAdjust="spacing" textLength="123.3887" x="468.35" y="211.8467">SideBarController</text></g><!--class Register<T>--><g class="entity" data-entity="Register.T." data-source-line="5" data-uid="ent0005" id="entity_Register.T."><rect fill="#F1F1F1" height="32" rx="2.5" ry="2.5" style="stroke:#181818;stroke-width:0.5;" width="122.2822" x="266.91" y="191"/><ellipse cx="281.91" cy="207" fill="#B4A7E5" rx="11" ry="11" style="stroke:#181818;stroke-width:1;"/><path d="M277.8319,202.7656 L277.8319,200.6094 L285.2225,200.6094 L285.2225,202.7656 L282.7538,202.7656 L282.7538,210.8438 L285.2225,210.8438 L285.2225,213 L277.8319,213 L277.8319,210.8438 L280.3006,210.8438 L280.3006,202.7656 L277.8319,202.7656 Z " fill="#000000"/><text fill="#000000" font-family="sans-serif" font-size="14" font-style="italic" lengthAdjust="spacing" textLength="90.2822" x="295.91" y="211.8467">Register&lt;T&gt;</text></g><!--class StudentInsertPopupController--><g class="entity" data-entity="StudentInsertPopupController" data-source-line="6" data-uid="ent0007" id="entity_StudentInsertPopupController"><rect fill="#F1F1F1" height="32" rx="2.5" ry="2.5" style="stroke:#181818;stroke-width:0.5;" width="240.0928" x="7" y="99"/><ellipse cx="22" cy="115" fill="#ADD1B2" rx="11" ry="11" style="stroke:#181818;stroke-width:1;"/><path d="M24.9688,120.6406 Q24.3906,120.9375 23.75,121.0781 Q23.1094,121.2344 22.4063,121.2344 Q19.9063,121.2344 18.5781,119.5938 Q17.2656,117.9375 17.2656,114.8125 Q17.2656,111.6875 18.5781,110.0313 Q19.9063,108.375 22.4063,108.375 Q23.1094,108.375 23.75,108.5313 Q24.4063,108.6875 24.9688,108.9844 L24.9688,111.7031 Q24.3438,111.125 23.75,110.8594 Q23.1563,110.5781 22.5313,110.5781 Q21.1875,110.5781 20.5,111.6563 Q19.8125,112.7188 19.8125,114.8125 Q19.8125,116.9063 20.5,117.9844 Q21.1875,119.0469 22.5313,119.0469 Q23.1563,119.0469 23.75,118.7813 Q24.3438,118.5 24.9688,117.9219 L24.9688,120.6406 Z " fill="#000000"/><text fill="#000000" font-family="sans-serif" font-size="14" lengthAdjust="spacing" textLength="208.0928" x="36" y="119.8467">StudentInsertPopupController</text></g><!--class StudentModifyPopupController--><g class="entity" data-entity="StudentModifyPopupController" data-source-line="7" data-uid="ent0010" id="entity_StudentModifyPopupController"><rect fill="#F1F1F1" height="32" rx="2.5" ry="2.5" style="stroke:#181818;stroke-width:0.5;" width="246.5732" x="561.76" y="99"/><ellipse cx="576.76" cy="115" fill="#ADD1B2" rx="11" ry="11" style="stroke:#181818;stroke-width:1;"/><path d="M579.7288,120.6406 Q579.1506,120.9375 578.51,121.0781 Q577.8694,121.2344 577.1663,121.2344 Q574.6663,121.2344 573.3381,119.5938 Q572.0256,117.9375 572.0256,114.8125 Q572.0256,111.6875 573.3381,110.0313 Q574.6663,108.375 577.1663,108.375 Q577.8694,108.375 578.51,108.5313 Q579.1663,108.6875 579.7288,108.9844 L579.7288,111.7031 Q579.1038,111.125 578.51,110.8594 Q577.9163,110.5781 577.2913,110.5781 Q575.9475,110.5781 575.26,111.6563 Q574.5725,112.7188 574.5725,114.8125 Q574.5725,116.9063 575.26,117.9844 Q575.9475,119.0469 577.2913,119.0469 Q577.9163,119.0469 578.51,118.7813 Q579.1038,118.5 579.7288,117.9219 L579.7288,120.6406 Z " fill="#000000"/><text fill="#000000" font-family="sans-serif" font-size="14" lengthAdjust="spacing" textLength="214.5732" x="590.76" y="119.8467">StudentModifyPopupController</text></g><!--class RegisterAdder<T>--><g class="entity" data-entity="RegisterAdder.T." data-source-line="9" data-uid="ent0012" id="entity_RegisterAdder.T."><rect fill="#F1F1F1" height="32" rx="2.5" ry="2.5" style="stroke:#181818;stroke-width:0.5;" width="164.002" x="45.05" y="7"/><ellipse cx="60.05" cy="23" fill="#B4A7E5" rx="11" ry="11" style="stroke:#181818;stroke-width:1;"/><path d="M55.9719,18.7656 L55.9719,16.6094 L63.3625,16.6094 L63.3625,18.7656 L60.8938,18.7656 L60.8938,26.8438 L63.3625,26.8438 L63.3625,29 L55.9719,29 L55.9719,26.8438 L58.4406,26.8438 L58.4406,18.7656 L55.9719,18.7656 Z " fill="#000000"/><text fill="#000000" font-family="sans-serif" font-size="14" font-style="italic" lengthAdjust="spacing" textLength="132.002" x="74.05" y="27.8467">RegisterAdder&lt;T&gt;</text></g><!--class RegisterValidator<T>--><g class="entity" data-entity="RegisterValidator.T." data-source-line="10" data-uid="ent0015" id="entity_RegisterValidator.T."><rect fill="#F1F1F1" height="32" rx="2.5" ry="2.5" style="stroke:#181818;stroke-width:0.5;" width="185.4941" x="31.3" y="191"/><ellipse cx="46.3" cy="207" fill="#B4A7E5" rx="11" ry="11" style="stroke:#181818;stroke-width:1;"/><path d="M42.2219,202.7656 L42.2219,200.6094 L49.6125,200.6094 L49.6125,202.7656 L47.1438,202.7656 L47.1438,210.8438 L49.6125,210.8438 L49.6125,213 L42.2219,213 L42.2219,210.8438 L44.6906,210.8438 L44.6906,202.7656 L42.2219,202.7656 Z " fill="#000000"/><text fill="#000000" font-family="sans-serif" font-size="14" font-style="italic" lengthAdjust="spacing" textLength="153.4941" x="60.3" y="211.8467">RegisterValidator&lt;T&gt;</text></g><!--class StudentPopupController--><g class="entity" data-entity="StudentPopupController" data-source-line="11" data-uid="ent0017" id="entity_StudentPopupController"><rect fill="#F1F1F1" height="32" rx="2.5" ry="2.5" style="stroke:#181818;stroke-width:0.5;" width="199.9385" x="303.08" y="7"/><ellipse cx="318.08" cy="23" fill="#A9DCDF" rx="11" ry="11" style="stroke:#181818;stroke-width:1;"/><path d="M318.1894,18.3438 L317.0331,23.4219 L319.3613,23.4219 L318.1894,18.3438 Z M316.705,16.1094 L319.6894,16.1094 L323.0488,28.5 L320.5956,28.5 L319.83,25.4375 L316.5488,25.4375 L315.7988,28.5 L313.3613,28.5 L316.705,16.1094 Z " fill="#000000"/><text fill="#000000" font-family="sans-serif" font-size="14" font-style="italic" lengthAdjust="spacing" textLength="167.9385" x="332.08" y="27.8467">StudentPopupController</text></g><!--class RegisterModifier<T>--><g class="entity" data-entity="RegisterModifier.T." data-source-line="14" data-uid="ent0020" id="entity_RegisterModifier.T."><rect fill="#F1F1F1" height="32" rx="2.5" ry="2.5" style="stroke:#181818;stroke-width:0.5;" width="178.8906" x="595.6" y="7"/><ellipse cx="610.6" cy="23" fill="#B4A7E5" rx="11" ry="11" style="stroke:#181818;stroke-width:1;"/><path d="M606.5219,18.7656 L606.5219,16.6094 L613.9125,16.6094 L613.9125,18.7656 L611.4438,18.7656 L611.4438,26.8438 L613.9125,26.8438 L613.9125,29 L606.5219,29 L606.5219,26.8438 L608.9906,26.8438 L608.9906,18.7656 L606.5219,18.7656 Z " fill="#000000"/><text fill="#000000" font-family="sans-serif" font-size="14" font-style="italic" lengthAdjust="spacing" textLength="146.8906" x="624.6" y="27.8467">RegisterModifier&lt;T&gt;</text></g><!--class Student--><g class="entity" data-entity="Student" data-source-line="16" data-uid="ent0025" id="entity_Student"><rect fill="#F1F1F1" height="32" rx="2.5" ry="2.5" style="stroke:#181818;stroke-width:0.5;" width="87.1113" x="644.49" y="191"/><ellipse cx="659.49" cy="207" fill="#ADD1B2" rx="11" ry="11" style="stroke:#181818;stroke-width:1;"/><path d="M662.4588,212.6406 Q661.8806,212.9375 661.24,213.0781 Q660.5994,213.2344 659.8963,213.2344 Q657.3963,213.2344 656.0681,211.5938 Q654.7556,209.9375 654.7556,206.8125 Q654.7556,203.6875 656.0681,202.0313 Q657.3963,200.375 659.8963,200.375 Q660.5994,200.375 661.24,200.5313 Q661.8963,200.6875 662.4588,200.9844 L662.4588,203.7031 Q661.8338,203.125 661.24,202.8594 Q660.6463,202.5781 660.0213,202.5781 Q658.6775,202.5781 657.99,203.6563 Q657.3025,204.7188 657.3025,206.8125 Q657.3025,208.9063 657.99,209.9844 Q658.6775,211.0469 660.0213,211.0469 Q660.6463,211.0469 661.24,210.7813 Q661.8338,210.5 662.4588,209.9219 L662.4588,212.6406 Z " fill="#000000"/><text fill="#000000" font-family="sans-serif" font-size="14" lengthAdjust="spacing" textLength="55.1113" x="673.49" y="211.8467">Student</text></g><!--link StudentRegisterController to SideBarController--><g class="link" data-entity-1="StudentRegisterController" data-entity-2="SideBarController" data-link-type="dependency" data-source-line="4" data-uid="lnk4" id="link_StudentRegisterController_SideBarController"><path codeLine="4" d="M423.47,131.47 C444.3,148.06 472.4575,170.481 493.1775,186.991" fill="none" id="StudentRegisterController-to-SideBarController" style="stroke:#181818;stroke-width:1;"/><polygon fill="#181818" points="497.87,190.73,493.324,181.9931,493.9596,187.6141,488.3386,188.2498,497.87,190.73" style="stroke:#181818;stroke-width:1;"/><text fill="#000000" font-family="sans-serif" font-size="13" lengthAdjust="spacing" textLength="8.271" x="420.4293" y="151.1985">1</text><text fill="#000000" font-family="sans-serif" font-size="13" lengthAdjust="spacing" textLength="8.271" x="482.2384" y="179.9451">1</text></g><!--link StudentRegisterController to Register<T>--><g class="link" data-entity-1="StudentRegisterController" data-entity-2="Register.T." data-link-type="dependency" data-source-line="5" data-uid="lnk6" id="link_StudentRegisterController_Register.T."><path codeLine="5" d="M391.15,131.27 C377.18,147.82 358.8709,169.4957 344.8709,186.0757" fill="none" id="StudentRegisterController-to-Register&lt;T&gt;" style="stroke:#181818;stroke-width:1;"/><polygon fill="#181818" points="341,190.66,349.8626,186.3642,344.2258,186.8397,343.7502,181.2029,341,190.66" style="stroke:#181818;stroke-width:1;"/><text fill="#000000" font-family="sans-serif" font-size="13" lengthAdjust="spacing" textLength="8.271" x="377.8073" y="150.9347">1</text><text fill="#000000" font-family="sans-serif" font-size="13" lengthAdjust="spacing" textLength="8.271" x="336.0092" y="179.8519">1</text></g><!--reverse link StudentInsertPopupController to StudentRegisterController--><g class="link" data-entity-1="StudentInsertPopupController" data-entity-2="StudentRegisterController" data-link-type="dependency" data-source-line="6" data-uid="lnk9" id="link_StudentInsertPopupController_StudentRegisterController"><path codeLine="6" d="M253.42,115 C269.74,115 280.05,115 296.37,115" fill="none" id="StudentInsertPopupController-backto-StudentRegisterController" style="stroke:#181818;stroke-width:1;stroke-dasharray:7,7;"/><polygon fill="#181818" points="247.42,115,256.42,119,252.42,115,256.42,111,247.42,115" style="stroke:#181818;stroke-width:1;"/></g><!--link StudentRegisterController to StudentModifyPopupController--><g class="link" data-entity-1="StudentRegisterController" data-entity-2="StudentModifyPopupController" data-link-type="dependency" data-source-line="7" data-uid="lnk11" id="link_StudentRegisterController_StudentModifyPopupController"><path codeLine="7" d="M511.62,115 C528.21,115 538.81,115 555.41,115" fill="none" id="StudentRegisterController-to-StudentModifyPopupController" style="stroke:#181818;stroke-width:1;stroke-dasharray:7,7;"/><polygon fill="#181818" points="561.41,115,552.41,111,556.41,115,552.41,119,561.41,115" style="stroke:#181818;stroke-width:1;"/></g><!--reverse link RegisterAdder<T> to StudentInsertPopupController--><g class="link" data-entity-1="RegisterAdder.T." data-entity-2="StudentInsertPopupController" data-link-type="dependency" data-source-line="9" data-uid="lnk14" id="link_RegisterAdder.T._StudentInsertPopupController"><path codeLine="9" d="M127.05,45.27 C127.05,61.82 127.05,82.08 127.05,98.66" fill="none" id="RegisterAdder&lt;T&gt;-backto-StudentInsertPopupController" style="stroke:#181818;stroke-width:1;"/><polygon fill="#181818" points="127.05,39.27,123.05,48.27,127.05,44.27,131.05,48.27,127.05,39.27" style="stroke:#181818;stroke-width:1;"/><text fill="#000000" font-family="sans-serif" font-size="13" lengthAdjust="spacing" textLength="8.271" x="117.8179" y="58.9347">1</text><text fill="#000000" font-family="sans-serif" font-size="13" lengthAdjust="spacing" textLength="8.271" x="117.7711" y="87.8519">1</text></g><!--link StudentInsertPopupController to RegisterValidator<T>--><g class="link" data-entity-1="StudentInsertPopupController" data-entity-2="RegisterValidator.T." data-link-type="dependency" data-source-line="10" data-uid="lnk16" id="link_StudentInsertPopupController_RegisterValidator.T."><path codeLine="10" d="M126.54,131.27 C125.99,147.82 125.3089,168.0833 124.7589,184.6633" fill="none" id="StudentInsertPopupController-to-RegisterValidator&lt;T&gt;" style="stroke:#181818;stroke-width:1;"/><polygon fill="#181818" points="124.56,190.66,128.8562,181.7976,124.7258,185.6627,120.8606,181.5323,124.56,190.66" style="stroke:#181818;stroke-width:1;"/><text fill="#000000" font-family="sans-serif" font-size="13" lengthAdjust="spacing" textLength="8.271" x="117.1468" y="150.9347">1</text><text fill="#000000" font-family="sans-serif" font-size="13" lengthAdjust="spacing" textLength="8.271" x="115.4498" y="179.8519">1</text></g><!--reverse link StudentPopupController to StudentInsertPopupController--><g class="link" data-entity-1="StudentPopupController" data-entity-2="StudentInsertPopupController" data-link-type="extension" data-source-line="11" data-uid="lnk19" id="link_StudentPopupController_StudentInsertPopupController"><path codeLine="11" d="M338.4873,45.0516 C287.7773,61.5916 224.98,82.06 174.33,98.58" fill="none" id="StudentPopupController-backto-StudentInsertPopupController" style="stroke:#181818;stroke-width:1;"/><polygon fill="none" points="355.6,39.47,336.6267,39.3474,340.3478,50.7559,355.6,39.47" style="stroke:#181818;stroke-width:1;"/></g><!--reverse link RegisterModifier<T> to StudentModifyPopupController--><g class="link" data-entity-1="RegisterModifier.T." data-entity-2="StudentModifyPopupController" data-link-type="dependency" data-source-line="14" data-uid="lnk22" id="link_RegisterModifier.T._StudentModifyPopupController"><path codeLine="14" d="M685.05,45.27 C685.05,61.82 685.05,82.08 685.05,98.66" fill="none" id="RegisterModifier&lt;T&gt;-backto-StudentModifyPopupController" style="stroke:#181818;stroke-width:1;"/><polygon fill="#181818" points="685.05,39.27,681.05,48.27,685.05,44.27,689.05,48.27,685.05,39.27" style="stroke:#181818;stroke-width:1;"/><text fill="#000000" font-family="sans-serif" font-size="13" lengthAdjust="spacing" textLength="8.271" x="675.8197" y="58.9347">1</text><text fill="#000000" font-family="sans-serif" font-size="13" lengthAdjust="spacing" textLength="8.271" x="675.771" y="87.8519">1</text></g><!--reverse link StudentPopupController to StudentModifyPopupController--><g class="link" data-entity-1="StudentPopupController" data-entity-2="StudentModifyPopupController" data-link-type="extension" data-source-line="15" data-uid="lnk24" id="link_StudentPopupController_StudentModifyPopupController"><path codeLine="15" d="M468.6674,44.9442 C520.4774,61.4842 584.98,82.06 636.73,98.58" fill="none" id="StudentPopupController-backto-StudentModifyPopupController" style="stroke:#181818;stroke-width:1;"/><polygon fill="none" points="451.52,39.47,466.8427,50.66,470.4921,39.2284,451.52,39.47" style="stroke:#181818;stroke-width:1;"/></g><!--link StudentModifyPopupController to Student--><g class="link" data-entity-1="StudentModifyPopupController" data-entity-2="Student" data-link-type="dependency" data-source-line="16" data-uid="lnk26" id="link_StudentModifyPopupController_Student"><path codeLine="16" d="M685.56,131.27 C686.11,147.82 686.7811,168.0833 687.3311,184.6633" fill="none" id="StudentModifyPopupController-to-Student" style="stroke:#181818;stroke-width:1;"/><polygon fill="#181818" points="687.53,190.66,691.2294,181.5323,687.3642,185.6627,683.2338,181.7976,687.53,190.66" style="stroke:#181818;stroke-width:1;"/><text fill="#000000" font-family="sans-serif" font-size="13" lengthAdjust="spacing" textLength="8.271" x="676.4918" y="150.9347">1</text><text fill="#000000" font-family="sans-serif" font-size="13" lengthAdjust="spacing" textLength="8.271" x="678.0791" y="179.8519">1</text></g><!--SRC=[bLR1Rjim3BtxAupqqc9Bi1rsAGe3IR400zfjMBFU5PjjXTgI9ylfkYp_FbcMP4cXtIoN97vyugFqIBbvfgmcWbGfumKqKAUVFYHFj82qWceBeacIEzaMmEGFUAID177DcHIyB46aiu-pT5xCC_rZTgTOA-BXivEfDk1gaqsH5kKYImtyXJKWv7TUj_KGCSKL0_UM5_JXDUOcKoltWjjOyB8eGjKJvADgxqb92oBv2Gkep7-T_2FXoLHT8yfrB0t5u_p9t6zdjcMRo2J9Iz8qzc-wJrBrcQUCL91UgiU2iaVph6a5-jZiLE60T2-05DzO-NemCL0HMiP4aakwWnjEMAEW6xKFLzsVBD7uEwlfVB5ON9X7Zo2_AWdd5-5Q6hZhvU6OrOYYdpjrAB8S96hS4zd7vBn-rG8LkEEqC8z9KGnK11TGyHrCXj166rAdtN9U0c4EMUwKOB8jOSs5fiT1SnNaQkxNCHdYA5qx6d584igKDHz83k5CC2xHPIBAA-s-qQhHMdyo-gi5JAG-1vkzs__X83RPY4Wt1qQLuZo_2nqLAGTd1mF4qSTgExZMYmUrQq8bUYMPugnQARazimQ8o9yKOxDMq0P-opM5iZ1elyS8hIyZ03oVwqnwPprItpf3Ees72Stfc9pe0hSsiOyUei63N17xSBviEhzt-RllUmelLuQQUIFhkgnio3KlsuhPeFUcjRDmbfqURvlfP8OUUV-xljq6HN8D5vNP7DdbyjX2qGWztbr_g5969LNU_TFFJgylsrhv6ToEX_0yvJKmxuB4OEycYk7UgMl1AoilZZ1Ev_pvt6yzicsaK9T76ZWelkrw-vnfMo2TScOjW6Fsk55K7osAv9mzK54TjPz22CkXnDflVFltjjA3jt1tQN3imd0PHY9KLK_yPQdsHiR3BDX8_9LdZnjLJrhFhVtaZIqRSjoSz7Z3x7JSqCAegjx5SG7usyz80NRaUrhSBO2NiU5z0lswO5wY0gbe_hSQxl0F]--></g></svg>