<svg xmlns="http://www.w3.org/2000/svg" xmlns:xlink="http://www.w3.org/1999/xlink" contentStyleType="text/css" data-diagram-type="CLASS" height="447px" preserveAspectRatio="none" style="width:1566px;height:447px;background:#FFFFFF;" version="1.1" viewBox="0 0 1566 447" width="1566px" zoomAndPan="magnify"><defs/><g><!--class RegisterAdder--><g class="entity" data-entity="RegisterAdder" data-source-line="3" data-uid="ent0002" id="entity_RegisterAdder"><rect fill="#F1F1F1" height="64.2969" rx="2.5" ry="2.5" style="stroke:#181818;stroke-width:0.5;" width="204.1035" x="217" y="302.42"/><ellipse cx="259.3529" cy="318.42" fill="#B4A7E5" rx="11" ry="11" style="stroke:#181818;stroke-width:1;"/><path d="M255.2748,314.1856 L255.2748,312.0294 L262.6654,312.0294 L262.6654,314.1856 L260.1966,314.1856 L260.1966,322.2638 L262.6654,322.2638 L262.6654,324.42 L255.2748,324.42 L255.2748,322.2638 L257.7435,322.2638 L257.7435,314.1856 L255.2748,314.1856 Z " fill="#000000"/><text fill="#000000" font-family="sans-serif" font-size="14" font-style="italic" lengthAdjust="spacing" textLength="99.9893" x="279.4313" y="323.2667">RegisterAdder</text><rect fill="#FFFFFF" height="15.9688" style="stroke:#181818;stroke-width:1;stroke-dasharray:2,2;" width="9.3301" x="414.7734" y="299.42"/><text fill="#000000" font-family="sans-serif" font-size="12" font-style="italic" lengthAdjust="spacing" textLength="7.3301" x="415.7734" y="311.5587">T</text><line style="stroke:#181818;stroke-width:0.5;" x1="218" x2="420.1035" y1="334.42" y2="334.42"/><line style="stroke:#181818;stroke-width:0.5;" x1="218" x2="420.1035" y1="342.42" y2="342.42"/><text fill="#000000" font-family="sans-serif" font-size="14" lengthAdjust="spacing" textLength="192.1035" x="223" y="359.4151">add(in toAdd  : T) : boolean</text></g><!--class RegisterModifier--><g class="entity" data-entity="RegisterModifier" data-source-line="7" data-uid="ent0003" id="entity_RegisterModifier"><rect fill="#F1F1F1" height="64.2969" rx="2.5" ry="2.5" style="stroke:#181818;stroke-width:0.5;" width="278.6494" x="1107.73" y="302.42"/><ellipse cx="1179.7007" cy="318.42" fill="#B4A7E5" rx="11" ry="11" style="stroke:#181818;stroke-width:1;"/><path d="M1175.6226,314.1856 L1175.6226,312.0294 L1183.0132,312.0294 L1183.0132,314.1856 L1180.5445,314.1856 L1180.5445,322.2638 L1183.0132,322.2638 L1183.0132,324.42 L1175.6226,324.42 L1175.6226,322.2638 L1178.0913,322.2638 L1178.0913,314.1856 L1175.6226,314.1856 Z " fill="#000000"/><text fill="#000000" font-family="sans-serif" font-size="14" font-style="italic" lengthAdjust="spacing" textLength="114.8779" x="1200.2007" y="323.2667">RegisterModifier</text><rect fill="#FFFFFF" height="15.9688" style="stroke:#181818;stroke-width:1;stroke-dasharray:2,2;" width="9.3301" x="1380.0493" y="299.42"/><text fill="#000000" font-family="sans-serif" font-size="12" font-style="italic" lengthAdjust="spacing" textLength="7.3301" x="1381.0493" y="311.5587">T</text><line style="stroke:#181818;stroke-width:0.5;" x1="1108.73" x2="1385.3794" y1="334.42" y2="334.42"/><line style="stroke:#181818;stroke-width:0.5;" x1="1108.73" x2="1385.3794" y1="342.42" y2="342.42"/><text fill="#000000" font-family="sans-serif" font-size="14" lengthAdjust="spacing" textLength="266.6494" x="1113.73" y="359.4151">modify(in old : T, in new : T) : boolean</text></g><!--class RegisterValidator--><g class="entity" data-entity="RegisterValidator" data-source-line="11" data-uid="ent0004" id="entity_RegisterValidator"><rect fill="#F1F1F1" height="64.2969" rx="2.5" ry="2.5" style="stroke:#181818;stroke-width:0.5;" width="233.0059" x="666.55" y="55.89"/><ellipse cx="712.3972" cy="71.89" fill="#B4A7E5" rx="11" ry="11" style="stroke:#181818;stroke-width:1;"/><path d="M708.319,67.6556 L708.319,65.4994 L715.7097,65.4994 L715.7097,67.6556 L713.2409,67.6556 L713.2409,75.7337 L715.7097,75.7337 L715.7097,77.89 L708.319,77.89 L708.319,75.7337 L710.7878,75.7337 L710.7878,67.6556 L708.319,67.6556 Z " fill="#000000"/><text fill="#000000" font-family="sans-serif" font-size="14" font-style="italic" lengthAdjust="spacing" textLength="121.4814" x="732.8972" y="76.7367">RegisterValidator</text><rect fill="#FFFFFF" height="15.9688" style="stroke:#181818;stroke-width:1;stroke-dasharray:2,2;" width="9.3301" x="893.2258" y="52.89"/><text fill="#000000" font-family="sans-serif" font-size="12" font-style="italic" lengthAdjust="spacing" textLength="7.3301" x="894.2258" y="65.0287">T</text><line style="stroke:#181818;stroke-width:0.5;" x1="667.55" x2="898.5559" y1="87.89" y2="87.89"/><line style="stroke:#181818;stroke-width:0.5;" x1="667.55" x2="898.5559" y1="95.89" y2="95.89"/><text fill="#000000" font-family="sans-serif" font-size="14" lengthAdjust="spacing" textLength="221.0059" x="672.55" y="112.8851">isValid(in toVerify : T) : boolean</text></g><!--class BookInsertPopupController--><g class="entity" data-entity="BookInsertPopupController" data-source-line="15" data-uid="ent0005" id="entity_BookInsertPopupController"><rect fill="#F1F1F1" height="129.4844" rx="2.5" ry="2.5" style="stroke:#181818;stroke-width:0.5;" width="624.1104" x="7" y="23.3"/><ellipse cx="220.8931" cy="39.3" fill="#ADD1B2" rx="11" ry="11" style="stroke:#181818;stroke-width:1;"/><path d="M223.8618,44.9406 Q223.2837,45.2375 222.6431,45.3781 Q222.0024,45.5344 221.2993,45.5344 Q218.7993,45.5344 217.4712,43.8938 Q216.1587,42.2375 216.1587,39.1125 Q216.1587,35.9875 217.4712,34.3313 Q218.7993,32.675 221.2993,32.675 Q222.0024,32.675 222.6431,32.8313 Q223.2993,32.9875 223.8618,33.2844 L223.8618,36.0031 Q223.2368,35.425 222.6431,35.1594 Q222.0493,34.8781 221.4243,34.8781 Q220.0806,34.8781 219.3931,35.9563 Q218.7056,37.0188 218.7056,39.1125 Q218.7056,41.2063 219.3931,42.2844 Q220.0806,43.3469 221.4243,43.3469 Q222.0493,43.3469 222.6431,43.0813 Q223.2368,42.8 223.8618,42.2219 L223.8618,44.9406 Z " fill="#000000"/><text fill="#000000" font-family="sans-serif" font-size="14" lengthAdjust="spacing" textLength="187.8242" x="241.3931" y="44.1467">BookInsertPopupController</text><line style="stroke:#181818;stroke-width:0.5;" x1="8" x2="630.1104" y1="55.3" y2="55.3"/><g data-visibility-modifier="PRIVATE_FIELD"><rect fill="none" height="6" style="stroke:#C82930;stroke-width:1;" width="6" x="15" y="65.9484"/></g><text fill="#000000" font-family="sans-serif" font-size="14" lengthAdjust="spacing" textLength="306.0244" x="27" y="72.2951">bookRegisterAdder : RegisterAdder&lt;Book&gt;</text><g data-visibility-modifier="PRIVATE_FIELD"><rect fill="none" height="6" style="stroke:#C82930;stroke-width:1;" width="6" x="15" y="82.2453"/></g><text fill="#000000" font-family="sans-serif" font-size="14" lengthAdjust="spacing" textLength="349.0088" x="27" y="88.592">bookRegisterValidator : RegisterValidator&lt;Book&gt;</text><line style="stroke:#181818;stroke-width:0.5;" x1="8" x2="630.1104" y1="95.8938" y2="95.8938"/><g data-visibility-modifier="PUBLIC_METHOD"><ellipse cx="18" cy="109.5422" fill="#84BE84" rx="3" ry="3" style="stroke:#038048;stroke-width:1;"/></g><text fill="#000000" font-family="sans-serif" font-size="14" lengthAdjust="spacing" textLength="112.5195" x="27" y="112.8889">initialize() : void</text><g data-visibility-modifier="PUBLIC_METHOD"><ellipse cx="18" cy="125.8391" fill="#84BE84" rx="3" ry="3" style="stroke:#038048;stroke-width:1;"/></g><text fill="#000000" font-family="sans-serif" font-size="14" lengthAdjust="spacing" textLength="533.6338" x="27" y="129.1857">setBookRegisterAdder(in bookRegisterAdder : RegisterAdder&lt;Book&gt;) : void</text><g data-visibility-modifier="PUBLIC_METHOD"><ellipse cx="18" cy="142.1359" fill="#84BE84" rx="3" ry="3" style="stroke:#038048;stroke-width:1;"/></g><text fill="#000000" font-family="sans-serif" font-size="14" lengthAdjust="spacing" textLength="598.1104" x="27" y="145.4826">setBookRegisterValidator(in bookRegisterValidator : RegisterValidator&lt;Book&gt;) : void</text></g><!--class BookModifyPopupController--><g class="entity" data-entity="BookModifyPopupController" data-source-line="24" data-uid="ent0006" id="entity_BookModifyPopupController"><rect fill="#F1F1F1" height="162.0781" rx="2.5" ry="2.5" style="stroke:#181818;stroke-width:0.5;" width="624.1104" x="935" y="7"/><ellipse cx="1145.6528" cy="23" fill="#ADD1B2" rx="11" ry="11" style="stroke:#181818;stroke-width:1;"/><path d="M1148.6216,28.6406 Q1148.0435,28.9375 1147.4028,29.0781 Q1146.7622,29.2344 1146.0591,29.2344 Q1143.5591,29.2344 1142.231,27.5938 Q1140.9185,25.9375 1140.9185,22.8125 Q1140.9185,19.6875 1142.231,18.0313 Q1143.5591,16.375 1146.0591,16.375 Q1146.7622,16.375 1147.4028,16.5313 Q1148.0591,16.6875 1148.6216,16.9844 L1148.6216,19.7031 Q1147.9966,19.125 1147.4028,18.8594 Q1146.8091,18.5781 1146.1841,18.5781 Q1144.8403,18.5781 1144.1528,19.6563 Q1143.4653,20.7188 1143.4653,22.8125 Q1143.4653,24.9063 1144.1528,25.9844 Q1144.8403,27.0469 1146.1841,27.0469 Q1146.8091,27.0469 1147.4028,26.7813 Q1147.9966,26.5 1148.6216,25.9219 L1148.6216,28.6406 Z " fill="#000000"/><text fill="#000000" font-family="sans-serif" font-size="14" lengthAdjust="spacing" textLength="194.3047" x="1166.1528" y="27.8467">BookModifyPopupController</text><line style="stroke:#181818;stroke-width:0.5;" x1="936" x2="1558.1104" y1="39" y2="39"/><g data-visibility-modifier="PRIVATE_FIELD"><rect fill="none" height="6" style="stroke:#C82930;stroke-width:1;" width="6" x="943" y="49.6484"/></g><text fill="#000000" font-family="sans-serif" font-size="14" lengthAdjust="spacing" textLength="335.8018" x="955" y="55.9951">bookRegisterModifier : RegisterModifier&lt;Book&gt;</text><g data-visibility-modifier="PRIVATE_FIELD"><rect fill="none" height="6" style="stroke:#C82930;stroke-width:1;" width="6" x="943" y="65.9453"/></g><text fill="#000000" font-family="sans-serif" font-size="14" lengthAdjust="spacing" textLength="349.0088" x="955" y="72.292">bookRegisterValidator : RegisterValidator&lt;Book&gt;</text><g data-visibility-modifier="PRIVATE_FIELD"><rect fill="none" height="6" style="stroke:#C82930;stroke-width:1;" width="6" x="943" y="82.2422"/></g><text fill="#000000" font-family="sans-serif" font-size="14" lengthAdjust="spacing" textLength="146.3369" x="955" y="88.5889">bookToModify : Book</text><line style="stroke:#181818;stroke-width:0.5;" x1="936" x2="1558.1104" y1="95.8906" y2="95.8906"/><g data-visibility-modifier="PUBLIC_METHOD"><ellipse cx="946" cy="109.5391" fill="#84BE84" rx="3" ry="3" style="stroke:#038048;stroke-width:1;"/></g><text fill="#000000" font-family="sans-serif" font-size="14" lengthAdjust="spacing" textLength="112.5195" x="955" y="112.8857">initialize() : void</text><g data-visibility-modifier="PUBLIC_METHOD"><ellipse cx="946" cy="125.8359" fill="#84BE84" rx="3" ry="3" style="stroke:#038048;stroke-width:1;"/></g><text fill="#000000" font-family="sans-serif" font-size="14" lengthAdjust="spacing" textLength="337.709" x="955" y="129.1826">setBookToModify(in bookToModify : Book) : void</text><g data-visibility-modifier="PUBLIC_METHOD"><ellipse cx="946" cy="142.1328" fill="#84BE84" rx="3" ry="3" style="stroke:#038048;stroke-width:1;"/></g><text fill="#000000" font-family="sans-serif" font-size="14" lengthAdjust="spacing" textLength="578.2998" x="955" y="145.4795">setBookRegisterModifier(in bookRegisterModifier : RegisterModifier&lt;Book&gt;) : void</text><g data-visibility-modifier="PUBLIC_METHOD"><ellipse cx="946" cy="158.4297" fill="#84BE84" rx="3" ry="3" style="stroke:#038048;stroke-width:1;"/></g><text fill="#000000" font-family="sans-serif" font-size="14" lengthAdjust="spacing" textLength="598.1104" x="955" y="161.7764">setBookRegisterValidator(in bookRegisterValidator : RegisterValidator&lt;Book&gt;) : void</text></g><!--class BookPopupController--><g class="entity" data-entity="BookPopupController" data-source-line="35" data-uid="ent0007" id="entity_BookPopupController"><rect fill="#F1F1F1" height="210.9688" rx="2.5" ry="2.5" style="stroke:#181818;stroke-width:0.5;" width="356.4766" x="585.82" y="229.08"/><ellipse cx="685.9733" cy="245.08" fill="#A9DCDF" rx="11" ry="11" style="stroke:#181818;stroke-width:1;"/><path d="M686.0827,240.4238 L684.9264,245.5019 L687.2546,245.5019 L686.0827,240.4238 Z M684.5983,238.1894 L687.5827,238.1894 L690.9421,250.58 L688.4889,250.58 L687.7233,247.5175 L684.4421,247.5175 L683.6921,250.58 L681.2546,250.58 L684.5983,238.1894 Z " fill="#000000"/><text fill="#000000" font-family="sans-serif" font-size="14" font-style="italic" lengthAdjust="spacing" textLength="147.6699" x="706.4733" y="249.9267">BookPopupController</text><line style="stroke:#181818;stroke-width:0.5;" x1="586.82" x2="941.2966" y1="261.08" y2="261.08"/><g data-visibility-modifier="PROTECTED_FIELD"><polygon fill="none" points="596.82,269.7284,600.82,273.7284,596.82,277.7284,592.82,273.7284" style="stroke:#B38D22;stroke-width:1;"/></g><text fill="#000000" font-family="sans-serif" font-size="14" lengthAdjust="spacing" textLength="121.8643" x="605.82" y="278.0751">titleTF : TextField</text><g data-visibility-modifier="PROTECTED_FIELD"><polygon fill="none" points="596.82,286.0253,600.82,290.0253,596.82,294.0253,592.82,290.0253" style="stroke:#B38D22;stroke-width:1;"/></g><text fill="#000000" font-family="sans-serif" font-size="14" lengthAdjust="spacing" textLength="147.9229" x="605.82" y="294.372">authorsTF : TextField</text><g data-visibility-modifier="PROTECTED_FIELD"><polygon fill="none" points="596.82,302.3222,600.82,306.3222,596.82,310.3222,592.82,306.3222" style="stroke:#B38D22;stroke-width:1;"/></g><text fill="#000000" font-family="sans-serif" font-size="14" lengthAdjust="spacing" textLength="213.1992" x="605.82" y="310.6689">publishmentYearTF : TextField</text><g data-visibility-modifier="PROTECTED_FIELD"><polygon fill="none" points="596.82,318.6191,600.82,322.6191,596.82,326.6191,592.82,322.6191" style="stroke:#B38D22;stroke-width:1;"/></g><text fill="#000000" font-family="sans-serif" font-size="14" lengthAdjust="spacing" textLength="204.709" x="605.82" y="326.9657">availableCopiesTF : TextField</text><g data-visibility-modifier="PROTECTED_FIELD"><polygon fill="none" points="596.82,334.9159,600.82,338.9159,596.82,342.9159,592.82,338.9159" style="stroke:#B38D22;stroke-width:1;"/></g><text fill="#000000" font-family="sans-serif" font-size="14" lengthAdjust="spacing" textLength="141.6338" x="605.82" y="343.2626">bookIdTF : TextField</text><g data-visibility-modifier="PROTECTED_FIELD"><polygon fill="none" points="596.82,351.2128,600.82,355.2128,596.82,359.2128,592.82,355.2128" style="stroke:#B38D22;stroke-width:1;"/></g><text fill="#000000" font-family="sans-serif" font-size="14" lengthAdjust="spacing" textLength="137.8262" x="605.82" y="359.5595">confirmBtn : Button</text><g data-visibility-modifier="PROTECTED_FIELD"><polygon fill="none" points="596.82,367.5097,600.82,371.5097,596.82,375.5097,592.82,371.5097" style="stroke:#B38D22;stroke-width:1;"/></g><text fill="#000000" font-family="sans-serif" font-size="14" lengthAdjust="spacing" textLength="129.8281" x="605.82" y="375.8564">cancelBtn : Button</text><g data-visibility-modifier="PROTECTED_FIELD"><polygon fill="none" points="596.82,383.8066,600.82,387.8066,596.82,391.8066,592.82,387.8066" style="stroke:#B38D22;stroke-width:1;"/></g><text fill="#000000" font-family="sans-serif" font-size="14" lengthAdjust="spacing" textLength="172.9697" x="605.82" y="392.1532">bookToEdit : Book = null</text><line style="stroke:#181818;stroke-width:0.5;" x1="586.82" x2="941.2966" y1="399.455" y2="399.455"/><g data-visibility-modifier="PROTECTED_METHOD"><polygon fill="#FFFF44" points="596.82,408.1034,600.82,412.1034,596.82,416.1034,592.82,412.1034" style="stroke:#B38D22;stroke-width:1;"/></g><text fill="#000000" font-family="sans-serif" font-size="14" lengthAdjust="spacing" textLength="330.4766" x="605.82" y="416.4501">confirmBtnAction(in event : ActionEvent) : void</text><g data-visibility-modifier="PROTECTED_METHOD"><polygon fill="#FFFF44" points="596.82,424.4003,600.82,428.4003,596.82,432.4003,592.82,428.4003" style="stroke:#B38D22;stroke-width:1;"/></g><text fill="#000000" font-family="sans-serif" font-size="14" lengthAdjust="spacing" textLength="322.4785" x="605.82" y="432.747">cancelBtnAction(in event : ActionEvent) : void</text></g><!--link BookInsertPopupController to BookPopupController--><g class="link" data-entity-1="BookInsertPopupController" data-entity-2="BookPopupController" data-source-line="50" data-uid="lnk8" id="link_BookInsertPopupController_BookPopupController"><path codeLine="50" d="M435.68,153.13 C481.52,178.32 519.4055,199.1301 569.8955,226.8801" fill="none" id="BookInsertPopupController-to-BookPopupController" style="stroke:#181818;stroke-width:1;"/><polygon fill="none" points="585.67,235.55,572.7855,221.622,567.0056,232.1383,585.67,235.55" style="stroke:#181818;stroke-width:1;"/></g><!--link BookModifyPopupController to BookPopupController--><g class="link" data-entity-1="BookModifyPopupController" data-entity-2="BookPopupController" data-source-line="51" data-uid="lnk9" id="link_BookModifyPopupController_BookPopupController"><path codeLine="51" d="M1088.23,169.45 C1041.63,193.04 1006.4091,210.8695 958.6691,235.0395" fill="none" id="BookModifyPopupController-to-BookPopupController" style="stroke:#181818;stroke-width:1;"/><polygon fill="none" points="942.61,243.17,961.3793,240.3926,955.959,229.6865,942.61,243.17" style="stroke:#181818;stroke-width:1;"/></g><!--link BookInsertPopupController to RegisterValidator--><g class="link" data-entity-1="BookInsertPopupController" data-entity-2="RegisterValidator" data-source-line="53" data-uid="lnk10" id="link_BookInsertPopupController_RegisterValidator"><path codeLine="53" d="M631.26,88.04 C642.92,88.04 648.58,88.04 660.24,88.04" fill="none" id="BookInsertPopupController-to-RegisterValidator" style="stroke:#181818;stroke-width:1;"/><polygon fill="#181818" points="666.24,88.04,657.24,84.04,661.24,88.04,657.24,92.04,666.24,88.04" style="stroke:#181818;stroke-width:1;"/></g><!--link BookInsertPopupController to RegisterAdder--><g class="link" data-entity-1="BookInsertPopupController" data-entity-2="RegisterAdder" data-source-line="54" data-uid="lnk11" id="link_BookInsertPopupController_RegisterAdder"><path codeLine="54" d="M319.06,152.97 C319.06,200.94 319.06,258.56 319.06,296.07" fill="none" id="BookInsertPopupController-to-RegisterAdder" style="stroke:#181818;stroke-width:1;"/><polygon fill="#181818" points="319.06,302.07,323.06,293.07,319.06,297.07,315.06,293.07,319.06,302.07" style="stroke:#181818;stroke-width:1;"/></g><!--reverse link RegisterValidator to BookModifyPopupController--><g class="link" data-entity-1="RegisterValidator" data-entity-2="BookModifyPopupController" data-source-line="56" data-uid="lnk13" id="link_RegisterValidator_BookModifyPopupController"><path codeLine="56" d="M905.96,88.04 C917.49,88.04 923.01,88.04 934.54,88.04" fill="none" id="RegisterValidator-backto-BookModifyPopupController" style="stroke:#181818;stroke-width:1;"/><polygon fill="#181818" points="899.96,88.04,908.96,92.04,904.96,88.04,908.96,84.04,899.96,88.04" style="stroke:#181818;stroke-width:1;"/></g><!--link BookModifyPopupController to RegisterModifier--><g class="link" data-entity-1="BookModifyPopupController" data-entity-2="RegisterModifier" data-source-line="57" data-uid="lnk14" id="link_BookModifyPopupController_RegisterModifier"><path codeLine="57" d="M1247.06,169.45 C1247.06,214.69 1247.06,262.62 1247.06,295.98" fill="none" id="BookModifyPopupController-to-RegisterModifier" style="stroke:#181818;stroke-width:1;"/><polygon fill="#181818" points="1247.06,301.98,1251.06,292.98,1247.06,296.98,1243.06,292.98,1247.06,301.98" style="stroke:#181818;stroke-width:1;"/></g><!--SRC=[jLDDRzim3BthLmZeeHqw_u6XCv042U13kw8m2cmtsM9MeeeOI7JQhjj_drGtJloL6GFgWs7IvEFJUzJv-OSysKts8_icivjyURUQBHPB8T0okBKgGTx1J_GXc6aDxYfFNuNI-WAjP0efAR_8_5Du5KG6b1L_XdglIUCQtzitCNY926HqRFyimxU5fqbGzygWLamr5lgtkAPp3ou03w2KHdalvqIFcVNW-9QsrNP1bXqP0-vLNA95ne3q2ovYxuvGYoGWFBPE7_wqrOYGQRkmuNTKVE1SDuXB3ppleiT3J1pPSEm2DPEwO1DeDQ0jnTwiUvccs9vDJjUDnyLH7EhYxs65zpjoHB1Pc__KEHaOtXT_FwKhsJy9VRWBgl3iLCdoO4VFY3D6Df2lujh3CwyGZ1Pdgk87ShwRtbQ5GV-m0SlVGRbUrqwXKOM11MqHUjtn99dkPakoQtIRETkeSCLCDYILBS6qSxKPIutyReNyAcrbZ3Z6c9MCPADki0iiGsMTMSQeqUQ0Fwq-YZbw_MMI_4w7n1MZ-p_UScgCIzA-woTvfUtBBqunCgFeOqT8Utlz5m00]--></g></svg>