<svg xmlns="http://www.w3.org/2000/svg" xmlns:xlink="http://www.w3.org/1999/xlink" contentStyleType="text/css" data-diagram-type="SEQUENCE" height="419px" preserveAspectRatio="none" style="width:724px;height:419px;background:#FFFFFF;" version="1.1" viewBox="0 0 724 419" width="724px" zoomAndPan="magnify"><defs/><g><rect fill="none" height="106.5313" style="stroke:#000000;stroke-width:1.5;" width="547.3301" x="10" y="185.6953"/><rect fill="none" height="46.2656" style="stroke:#000000;stroke-width:1.5;" width="527.3301" x="20" y="238.9609"/><g><title>Admin</title><rect fill="#000000" fill-opacity="0.00000" height="257.0625" width="8" x="51.4321" y="81.2969"/><line style="stroke:#181818;stroke-width:0.5;stroke-dasharray:5,5;" x1="55" x2="55" y1="81.2969" y2="338.3594"/></g><g><title>.u..LoanRegisterController</title><rect fill="#000000" fill-opacity="0.00000" height="257.0625" width="8" x="221.3457" y="81.2969"/><line style="stroke:#181818;stroke-width:0.5;stroke-dasharray:5,5;" x1="224.3574" x2="224.3574" y1="81.2969" y2="338.3594"/></g><g><title>.u..LoanModifyPopupController</title><rect fill="#000000" fill-opacity="0.00000" height="257.0625" width="8" x="427.332" y="81.2969"/><line style="stroke:#181818;stroke-width:0.5;stroke-dasharray:5,5;" x1="430.334" x2="430.334" y1="81.2969" y2="338.3594"/></g><g><title>.u..LoanRegister</title><rect fill="#000000" fill-opacity="0.00000" height="257.0625" width="8" x="659.04" y="81.2969"/><line style="stroke:#181818;stroke-width:0.5;stroke-dasharray:5,5;" x1="662.6382" x2="662.6382" y1="81.2969" y2="338.3594"/></g><g class="participant participant-head" data-participant="Admin"><text fill="#000000" font-family="sans-serif" font-size="14" lengthAdjust="spacing" textLength="44.8643" x="30" y="77.9951">Admin</text><ellipse cx="55.4321" cy="13.5" fill="#E2E2F0" rx="8" ry="8" style="stroke:#181818;stroke-width:0.5;"/><path d="M55.4321,21.5 L55.4321,48.5 M42.4321,29.5 L68.4321,29.5 M55.4321,48.5 L42.4321,63.5 M55.4321,48.5 L68.4321,63.5" fill="none" style="stroke:#181818;stroke-width:0.5;"/></g><g class="participant participant-tail" data-participant="Admin"><text fill="#000000" font-family="sans-serif" font-size="14" lengthAdjust="spacing" textLength="44.8643" x="30" y="350.3545">Admin</text><ellipse cx="55.4321" cy="362.1563" fill="#E2E2F0" rx="8" ry="8" style="stroke:#181818;stroke-width:0.5;"/><path d="M55.4321,370.1563 L55.4321,397.1563 M42.4321,378.1563 L68.4321,378.1563 M55.4321,397.1563 L42.4321,412.1563 M55.4321,397.1563 L68.4321,412.1563" fill="none" style="stroke:#181818;stroke-width:0.5;"/></g><g class="participant participant-head" data-participant="LoanRegisterController"><rect fill="#E2E2F0" height="30.2969" rx="2.5" ry="2.5" style="stroke:#181818;stroke-width:0.5;" width="179.9766" x="135.3574" y="50"/><text fill="#000000" font-family="sans-serif" font-size="14" lengthAdjust="spacing" text-decoration="underline" textLength="165.9766" x="142.3574" y="69.9951">:LoanRegisterController</text></g><g class="participant participant-tail" data-participant="LoanRegisterController"><rect fill="#E2E2F0" height="30.2969" rx="2.5" ry="2.5" style="stroke:#181818;stroke-width:0.5;" width="179.9766" x="135.3574" y="337.3594"/><text fill="#000000" font-family="sans-serif" font-size="14" lengthAdjust="spacing" text-decoration="underline" textLength="165.9766" x="142.3574" y="357.3545">:LoanRegisterController</text></g><g class="participant participant-head" data-participant="LoanModifyPopupController"><rect fill="#E2E2F0" height="30.2969" rx="2.5" ry="2.5" style="stroke:#181818;stroke-width:0.5;" width="211.9961" x="325.334" y="50"/><text fill="#000000" font-family="sans-serif" font-size="14" lengthAdjust="spacing" text-decoration="underline" textLength="197.9961" x="332.334" y="69.9951">:LoanModifyPopupController</text></g><g class="participant participant-tail" data-participant="LoanModifyPopupController"><rect fill="#E2E2F0" height="30.2969" rx="2.5" ry="2.5" style="stroke:#181818;stroke-width:0.5;" width="211.9961" x="325.334" y="337.3594"/><text fill="#000000" font-family="sans-serif" font-size="14" lengthAdjust="spacing" text-decoration="underline" textLength="197.9961" x="332.334" y="357.3545">:LoanModifyPopupController</text></g><g class="participant participant-head" data-participant="LoanRegister"><rect fill="#E2E2F0" height="30.2969" rx="2.5" ry="2.5" style="stroke:#181818;stroke-width:0.5;" width="110.8037" x="607.6382" y="50"/><text fill="#000000" font-family="sans-serif" font-size="14" lengthAdjust="spacing" text-decoration="underline" textLength="96.8037" x="614.6382" y="69.9951">:LoanRegister</text></g><g class="participant participant-tail" data-participant="LoanRegister"><rect fill="#E2E2F0" height="30.2969" rx="2.5" ry="2.5" style="stroke:#181818;stroke-width:0.5;" width="110.8037" x="607.6382" y="337.3594"/><text fill="#000000" font-family="sans-serif" font-size="14" lengthAdjust="spacing" text-decoration="underline" textLength="96.8037" x="614.6382" y="357.3545">:LoanRegister</text></g><g class="message" data-participant-1="Admin" data-participant-2="LoanRegisterController"><polygon fill="#181818" points="213.3457,108.4297,223.3457,112.4297,213.3457,116.4297,217.3457,112.4297" style="stroke:#181818;stroke-width:1;"/><line style="stroke:#181818;stroke-width:1;" x1="55.4321" x2="219.3457" y1="112.4297" y2="112.4297"/><text fill="#000000" font-family="sans-serif" font-size="13" lengthAdjust="spacing" textLength="106.4692" x="62.4321" y="107.3638">"Selects a Loan"</text></g><g class="message" data-participant-1="Admin" data-participant-2="LoanRegisterController"><polygon fill="#181818" points="213.3457,137.5625,223.3457,141.5625,213.3457,145.5625,217.3457,141.5625" style="stroke:#181818;stroke-width:1;"/><line style="stroke:#181818;stroke-width:1;" x1="55.4321" x2="219.3457" y1="141.5625" y2="141.5625"/><text fill="#000000" font-family="sans-serif" font-size="13" lengthAdjust="spacing" textLength="126.4263" x="62.4321" y="136.4966">openModifyPopup()</text></g><g class="message" data-participant-1="LoanRegisterController" data-participant-2="Admin"><polygon fill="#181818" points="66.4321,166.6953,56.4321,170.6953,66.4321,174.6953,62.4321,170.6953" style="stroke:#181818;stroke-width:1;"/><line style="stroke:#181818;stroke-width:1;stroke-dasharray:2,2;" x1="60.4321" x2="224.3457" y1="170.6953" y2="170.6953"/><text fill="#000000" font-family="sans-serif" font-size="13" lengthAdjust="spacing" textLength="145.9136" x="72.4321" y="165.6294">"Shows Modify Popup"</text></g><path d="M10,185.6953 L86.624,185.6953 L86.624,192.8281 L76.624,202.8281 L10,202.8281 L10,185.6953" fill="#EEEEEE" style="stroke:#000000;stroke-width:1.5;"/><rect fill="none" height="106.5313" style="stroke:#000000;stroke-width:1.5;" width="547.3301" x="10" y="185.6953"/><text fill="#000000" font-family="sans-serif" font-size="13" font-weight="bold" lengthAdjust="spacing" textLength="31.624" x="25" y="198.7622">loop</text><text fill="#000000" font-family="sans-serif" font-size="11" font-weight="bold" lengthAdjust="spacing" textLength="93.2476" x="101.624" y="197.9058">[LoanNotValid]</text><g class="message" data-participant-1="Admin" data-participant-2="LoanModifyPopupController"><polygon fill="#181818" points="419.332,219.9609,429.332,223.9609,419.332,227.9609,423.332,223.9609" style="stroke:#181818;stroke-width:1;"/><line style="stroke:#181818;stroke-width:1;" x1="55.4321" x2="425.332" y1="223.9609" y2="223.9609"/><text fill="#000000" font-family="sans-serif" font-size="13" lengthAdjust="spacing" textLength="159.9038" x="62.4321" y="218.895">confirmBtnAction(event)</text></g><path d="M20,238.9609 L89.4512,238.9609 L89.4512,246.0938 L79.4512,256.0938 L20,256.0938 L20,238.9609" fill="#EEEEEE" style="stroke:#000000;stroke-width:1.5;"/><rect fill="none" height="46.2656" style="stroke:#000000;stroke-width:1.5;" width="527.3301" x="20" y="238.9609"/><text fill="#000000" font-family="sans-serif" font-size="13" font-weight="bold" lengthAdjust="spacing" textLength="24.4512" x="35" y="252.0278">opt</text><text fill="#000000" font-family="sans-serif" font-size="11" font-weight="bold" lengthAdjust="spacing" textLength="93.2476" x="104.4512" y="251.1714">[LoanNotValid]</text><g class="message" data-participant-1="LoanModifyPopupController" data-participant-2="Admin"><polygon fill="#181818" points="66.4321,273.2266,56.4321,277.2266,66.4321,281.2266,62.4321,277.2266" style="stroke:#181818;stroke-width:1;"/><line style="stroke:#181818;stroke-width:1;stroke-dasharray:2,2;" x1="60.4321" x2="430.332" y1="277.2266" y2="277.2266"/><text fill="#000000" font-family="sans-serif" font-size="13" lengthAdjust="spacing" textLength="125.2202" x="72.4321" y="272.1606">"Shows Error Alert"</text></g><g class="message" data-participant-1="LoanModifyPopupController" data-participant-2="LoanRegister"><polygon fill="#181818" points="651.04,316.3594,661.04,320.3594,651.04,324.3594,655.04,320.3594" style="stroke:#181818;stroke-width:1;"/><line style="stroke:#181818;stroke-width:1;" x1="431.332" x2="657.04" y1="320.3594" y2="320.3594"/><text fill="#000000" font-family="sans-serif" font-size="13" lengthAdjust="spacing" textLength="207.708" x="438.332" y="315.2935">modify(selectedLoan, newLoan)</text></g><!--SRC=[ZP71QiCm38RlVWhXon9ONw2CWjUa8v2aNTBki9j9tCsGMCPHL_RsIzpBmfooWq7mw__qItv8Cl5IYQ8Ga6HGfw-dj7mVwpJF1HJx9DjbMo-TIZXKQNtCZdl6P4FeGBIzDenPwKWtsaf3m9ykctMEqbJgGm-at1ODEUmwvJZ80S9I655Wgy_V1xGN6w04rVjP_YHWpAy0gyr2C5W3hrMd6Xf0-Xx-3mjQzJjU5BE5rjL8kU6cEPzu7U3c0s_ah4EqVaw9z2OxtSwd1symiXeqP-twPpAY8OqcKb_AKCpGqfos30b4IvsRFdrKYJDbMl_k4EON6Zczxui6Vr3LJkeZ67MTYlW7]--></g></svg>